<?xml version="1.0" encoding="UTF-8" standalone="no"?>
<svg
   xmlns:dc="http://purl.org/dc/elements/1.1/"
   xmlns:cc="http://creativecommons.org/ns#"
   xmlns:rdf="http://www.w3.org/1999/02/22-rdf-syntax-ns#"
   xmlns:svg="http://www.w3.org/2000/svg"
   xmlns="http://www.w3.org/2000/svg"
   id="svg8"
   version="1.1"
   viewBox="0 0 145.52083 145.52084"
   height="550"
   width="550">
  <defs
     id="defs2" />
  <metadata
     id="metadata5">
    <rdf:RDF>
      <cc:Work
         rdf:about="">
        <dc:format>image/svg+xml</dc:format>
        <dc:type
           rdf:resource="http://purl.org/dc/dcmitype/StillImage" />
        <dc:title></dc:title>
      </cc:Work>
    </rdf:RDF>
  </metadata>
  <g
     transform="translate(0,-151.47915)"
     id="layer1">
    <path
       id="rect894"
       d="M 1.6666667e-6,151.47915 H 145.52083 V 296.99998 H 1.6666667e-6 Z"
       style="opacity:0.65894039;fill:#ffffff;fill-opacity:1;stroke:none;stroke-width:0.79278958;stroke-linecap:round;stroke-linejoin:round;stroke-miterlimit:4;stroke-dasharray:none;stroke-opacity:1;paint-order:normal" />
    <g
       transform="matrix(0.98869691,0,0,0.98869691,635.52885,-199.37454)"
       id="g900">
      <path
         id="path837"
         d="m -545.03072,442.41165 a 40.654404,40.654404 0 0 1 -40.6544,40.65441 40.654404,40.654404 0 0 1 -40.6544,-40.65441 40.654404,40.654404 0 0 1 40.6544,-40.6544 40.654404,40.654404 0 0 1 40.6544,40.6544 z"
         style="opacity:0.65894039;fill:#d8fffc;fill-opacity:1;stroke:none;stroke-width:2.08430743;stroke-linecap:round;stroke-linejoin:round;stroke-miterlimit:4;stroke-dasharray:none;stroke-opacity:1;paint-order:normal" />
      <path
         id="path837-3"
         d="m -496.95087,388.76273 a 33.228943,33.228943 0 0 1 -33.22894,33.22894 33.228943,33.228943 0 0 1 -33.22894,-33.22894 33.228943,33.228943 0 0 1 33.22894,-33.22895 33.228943,33.228943 0 0 1 33.22894,33.22895 z"
         style="opacity:0.65894039;fill:#effff7;fill-opacity:1;stroke:none;stroke-width:1.70361197;stroke-linecap:round;stroke-linejoin:round;stroke-miterlimit:4;stroke-dasharray:none;stroke-opacity:1;paint-order:normal" />
      <path
         id="path837-3-6"
         d="m -496.72387,368.27338 a 4.3469872,4.3469872 0 0 1 -4.34699,4.34698 4.3469872,4.3469872 0 0 1 -4.34699,-4.34698 4.3469872,4.3469872 0 0 1 4.34699,-4.34699 4.3469872,4.3469872 0 0 1 4.34699,4.34699 z"
         style="opacity:0.65894039;fill:#b5e2ec;fill-opacity:1;stroke:none;stroke-width:0.22286533;stroke-linecap:round;stroke-linejoin:round;stroke-miterlimit:4;stroke-dasharray:none;stroke-opacity:1;paint-order:normal" />
      <path
         id="path837-3-6-7"
         d="m -627.48151,494.28073 a 7.0994835,7.0994835 0 0 1 -7.09948,7.09948 7.0994835,7.0994835 0 0 1 -7.09949,-7.09948 7.0994835,7.0994835 0 0 1 7.09949,-7.09948 7.0994835,7.0994835 0 0 1 7.09948,7.09948 z"
         style="opacity:0.65894039;fill:#b2ff93;fill-opacity:1;stroke:none;stroke-width:0.3639828;stroke-linecap:round;stroke-linejoin:round;stroke-miterlimit:4;stroke-dasharray:none;stroke-opacity:1;paint-order:normal" />
    </g>
  </g>
</svg>
