<svg width="41" height="40" viewBox="0 0 41 40" fill="none" xmlns="http://www.w3.org/2000/svg">
<path d="M0.556641 8C0.556641 3.58172 4.13836 0 8.55664 0H32.5566C36.9749 0 40.5566 3.58172 40.5566 8V32C40.5566 36.4183 36.9749 40 32.5566 40H8.55664C4.13836 40 0.556641 36.4183 0.556641 32V8Z" fill="#EBEBF0"/>
<g clip-path="url(#clip0)">
<path d="M33.9038 20.262C33.9038 19.1149 33.8107 18.2778 33.6092 17.4097H20.5099V22.5873H28.1989C28.044 23.874 27.2069 25.8118 25.3466 27.1139L25.3205 27.2872L29.4623 30.4958L29.7492 30.5244C32.3845 28.0905 33.9038 24.5096 33.9038 20.262Z" fill="#4285F4"/>
<path d="M20.5099 33.9038C24.2769 33.9038 27.4393 32.6636 29.7491 30.5243L25.3465 27.1137C24.1684 27.9354 22.5871 28.509 20.5099 28.509C16.8204 28.509 13.689 26.0752 12.5728 22.7112L12.4092 22.7251L8.10252 26.0581L8.0462 26.2146C10.3405 30.7723 15.0531 33.9038 20.5099 33.9038Z" fill="#34A853"/>
<path d="M12.5728 22.7113C12.2783 21.8432 12.1078 20.913 12.1078 19.9519C12.1078 18.9907 12.2783 18.0606 12.5573 17.1925L12.5495 17.0076L8.18888 13.6211L8.04621 13.689C7.10062 15.5802 6.55804 17.7041 6.55804 19.9519C6.55804 22.1997 7.10062 24.3234 8.04621 26.2147L12.5728 22.7113Z" fill="#FBBC05"/>
<path d="M20.51 11.3947C23.1298 11.3947 24.897 12.5264 25.9047 13.472L29.8422 9.6275C27.424 7.37969 24.277 6 20.51 6C15.0532 6 10.3405 9.1314 8.0462 13.689L12.5573 17.1925C13.6891 13.8286 16.8205 11.3947 20.51 11.3947Z" fill="#EB4335"/>
</g>
<defs>
<clipPath id="clip0">
<rect width="27.3616" height="28" fill="white" transform="translate(6.55664 6)"/>
</clipPath>
</defs>
</svg>
