<svg xmlns="http://www.w3.org/2000/svg" width="40" height="40" viewBox="0 0 40 40" fill="none"><link xmlns="" type="text/css" rel="stylesheet" id="dark-mode-custom-link"/><link xmlns="" type="text/css" rel="stylesheet" id="dark-mode-general-link"/><style xmlns="" lang="en" type="text/css" id="dark-mode-custom-style"/><style xmlns="" lang="en" type="text/css" id="dark-mode-native-style"/><style xmlns="" lang="en" type="text/css" id="dark-mode-native-sheet"/>
<path d="M0 8C0 3.58172 3.58172 0 8 0H32C36.4183 0 40 3.58172 40 8V32C40 36.4183 36.4183 40 32 40H8C3.58172 40 0 36.4183 0 32V8Z" fill="#EBEBF0"/>
<path d="M27.0789 13.9211H13.9211V27.079H27.0789V13.9211Z" fill="white"/>
<path d="M27.0789 32.9999L33 27.0789H27.0789V32.9999Z" fill="#EA4335"/>
<path d="M33 13.9211H27.0789V27.079H33V13.9211Z" fill="#FBBC04"/>
<path d="M27.0789 27.0789H13.9211V32.9999H27.0789V27.0789Z" fill="#34A853"/>
<path d="M8 27.0789V31.0262C8 32.1167 8.88322 32.9999 9.97368 32.9999H13.9211V27.0789H8Z" fill="#188038"/>
<path d="M33 13.9211V9.97368C33 8.88322 32.1168 8 31.0263 8H27.0789V13.9211H33Z" fill="#1967D2"/>
<path d="M27.0789 8H9.97368C8.88322 8 8 8.88322 8 9.97368V27.0789H13.9211V13.9211H27.0789V8Z" fill="#4285F4"/>
<path d="M16.6201 24.1283C16.1283 23.796 15.7878 23.3108 15.602 22.6694L16.7434 22.199C16.847 22.5937 17.028 22.8997 17.2862 23.1168C17.5428 23.3339 17.8553 23.4408 18.2204 23.4408C18.5938 23.4408 18.9145 23.3273 19.1826 23.1003C19.4507 22.8733 19.5855 22.5839 19.5855 22.2335C19.5855 21.875 19.4441 21.5822 19.1612 21.3553C18.8783 21.1283 18.523 21.0148 18.0987 21.0148H17.4391V19.8849H18.0312C18.3964 19.8849 18.7039 19.7862 18.9539 19.5888C19.2039 19.3914 19.3289 19.1217 19.3289 18.7779C19.3289 18.472 19.2171 18.2286 18.9934 18.046C18.7697 17.8635 18.4868 17.7714 18.1431 17.7714C17.8076 17.7714 17.5411 17.8602 17.3438 18.0395C17.1465 18.2192 16.9982 18.4462 16.9128 18.699L15.7829 18.2286C15.9326 17.8043 16.2072 17.4293 16.6102 17.1053C17.0132 16.7812 17.528 16.6184 18.153 16.6184C18.6151 16.6184 19.0313 16.7072 19.3997 16.8865C19.7681 17.0658 20.0576 17.3141 20.2664 17.6299C20.4753 17.9474 20.579 18.3026 20.579 18.6974C20.579 19.1003 20.4819 19.4408 20.2878 19.7204C20.0938 20 19.8553 20.2138 19.5724 20.3635V20.4309C19.9377 20.5815 20.255 20.8289 20.4901 21.1464C20.7286 21.4671 20.8487 21.8503 20.8487 22.2977C20.8487 22.7451 20.7352 23.1447 20.5082 23.4951C20.2812 23.8454 19.9671 24.1217 19.5691 24.3224C19.1694 24.523 18.7204 24.625 18.222 24.625C17.6447 24.6266 17.1118 24.4605 16.6201 24.1283V24.1283ZM23.6316 18.4638L22.3783 19.3701L21.7516 18.4194L24 16.7977H24.8618V24.4474H23.6316V18.4638Z" fill="#4285F4"/>
</svg>