<svg width="41" height="40" viewBox="0 0 41 40" fill="none" xmlns="http://www.w3.org/2000/svg">
<path d="M0.556641 8C0.556641 3.58172 4.13836 0 8.55664 0H32.5566C36.9749 0 40.5566 3.58172 40.5566 8V32C40.5566 36.4183 36.9749 40 32.5566 40H8.55664C4.13836 40 0.556641 36.4183 0.556641 32V8Z" fill="#2D8CFF"/>
<g clip-path="url(#clip0)">
<path d="M27.88 16.7696L34.05 12.2596C34.59 11.8196 35 11.9196 35 12.7296V26.4796C35 27.3896 34.49 27.2896 34.05 26.9496L27.88 22.4396V16.7696ZM7 12.7696V23.0096C7.00262 23.5611 7.11385 24.1068 7.32735 24.6153C7.54084 25.1239 7.85242 25.5854 8.24428 25.9736C8.63614 26.3617 9.10062 26.6689 9.6112 26.8775C10.1218 27.0862 10.6684 27.1922 11.22 27.1896H26.17C26.3721 27.1883 26.5657 27.1081 26.7096 26.9662C26.8534 26.8242 26.9361 26.6316 26.94 26.4296V16.1796C26.9374 15.628 26.8261 15.0824 26.6127 14.5738C26.3992 14.0652 26.0876 13.6037 25.6957 13.2156C25.3039 12.8274 24.8394 12.5202 24.3288 12.3116C23.8182 12.103 23.2716 11.9969 22.72 11.9996H7.77C7.56691 12.0032 7.37314 12.0854 7.22951 12.2291C7.08587 12.3727 7.0036 12.5665 7 12.7696V12.7696Z" fill="white"/>
</g>
<defs>
<clipPath id="clip0">
<rect width="28" height="15.194" fill="white" transform="translate(7 12)"/>
</clipPath>
</defs>
</svg>
