<svg width="408" height="360" viewBox="0 0 408 360" fill="none" xmlns="http://www.w3.org/2000/svg">
<path d="M151.881 59.096C151.881 58.6053 151.483 58.2073 150.995 58.2073C150.506 58.2073 150.108 58.6053 150.108 59.096C150.108 59.5852 150.506 59.9803 150.995 59.9803C151.483 59.9818 151.881 59.5852 151.881 59.096ZM151.881 50.2121C151.881 49.7199 151.483 49.3219 150.995 49.3219C150.506 49.3219 150.108 49.7199 150.108 50.2121C150.108 50.6984 150.506 51.0949 150.995 51.0949C151.483 51.0964 151.881 50.6984 151.881 50.2121ZM151.881 41.3267C151.881 40.8374 151.483 40.438 150.995 40.438C150.506 40.438 150.108 40.8374 150.108 41.3267C150.108 41.8159 150.506 42.2124 150.995 42.2124C151.483 42.211 151.881 41.8144 151.881 41.3267ZM160.766 59.096C160.766 58.6053 160.37 58.2073 159.881 58.2073C159.39 58.2073 158.993 58.6053 158.993 59.096C158.993 59.5852 159.39 59.9803 159.881 59.9803C160.371 59.9818 160.766 59.5852 160.766 59.096ZM160.766 50.2135C160.766 49.7214 160.371 49.3234 159.881 49.3234C159.39 49.3234 158.993 49.7214 158.993 50.2135C158.993 50.6998 159.39 51.0964 159.881 51.0964C160.371 51.0964 160.766 50.6984 160.766 50.2135ZM160.766 41.3267C160.766 40.8374 160.371 40.438 159.881 40.438C159.39 40.438 158.993 40.8374 158.993 41.3267C158.993 41.8159 159.39 42.2124 159.881 42.2124C160.371 42.211 160.766 41.8144 160.766 41.3267ZM169.653 59.096C169.653 58.6053 169.257 58.2073 168.766 58.2073C168.277 58.2073 167.879 58.6053 167.879 59.096C167.879 59.5852 168.275 59.9803 168.766 59.9803C169.257 59.9818 169.653 59.5852 169.653 59.096ZM169.653 50.2135C169.653 49.7214 169.257 49.3234 168.766 49.3234C168.277 49.3234 167.879 49.7214 167.879 50.2135C167.879 50.6998 168.275 51.0964 168.766 51.0964C169.257 51.0964 169.653 50.6984 169.653 50.2135ZM169.653 41.3267C169.653 40.8374 169.257 40.438 168.766 40.4365C168.277 40.4365 167.879 40.8374 167.879 41.3267C167.879 41.8159 168.275 42.2124 168.766 42.2124C169.257 42.211 169.653 41.8144 169.653 41.3267ZM178.54 59.096C178.54 58.6053 178.142 58.2073 177.654 58.2073C177.164 58.2073 176.767 58.6053 176.767 59.096C176.767 59.5852 177.164 59.9803 177.654 59.9803C178.142 59.9818 178.54 59.5852 178.54 59.096ZM178.54 50.2135C178.54 49.7214 178.142 49.3234 177.654 49.3234C177.164 49.3234 176.767 49.7214 176.767 50.2135C176.767 50.6998 177.164 51.0964 177.654 51.0964C178.142 51.0964 178.54 50.6984 178.54 50.2135ZM178.54 41.3267C178.54 40.8374 178.142 40.4365 177.654 40.438C177.164 40.438 176.767 40.8374 176.767 41.3267C176.767 41.8159 177.164 42.2124 177.654 42.2124C178.142 42.211 178.54 41.8144 178.54 41.3267ZM187.425 59.096C187.425 58.6053 187.027 58.2073 186.54 58.2073C186.049 58.2073 185.652 58.6053 185.652 59.096C185.652 59.5852 186.049 59.9803 186.54 59.9803C187.029 59.9818 187.425 59.5852 187.425 59.096ZM187.425 50.2135C187.425 49.7214 187.027 49.3234 186.54 49.3234C186.049 49.3234 185.652 49.7214 185.652 50.2135C185.652 50.6998 186.049 51.0964 186.54 51.0964C187.029 51.0964 187.425 50.6984 187.425 50.2135ZM187.425 41.3267C187.425 40.8374 187.027 40.438 186.54 40.438C186.049 40.438 185.652 40.8374 185.652 41.3267C185.652 41.8159 186.049 42.2124 186.54 42.2124C187.029 42.211 187.425 41.8144 187.425 41.3267Z" fill="#EAEEF4"/>
<path d="M82.6996 338.276C82.6996 338.276 82.9616 327.249 81.3318 326.849C79.7021 326.45 73.998 325.458 73.351 326.334C72.7026 327.21 77.573 339.757 79.2317 340.912C80.8918 342.067 82.5259 341.211 82.6996 338.276Z" fill="#FE947C"/>
<path opacity="0.2" d="M79.213 336.61C79.8571 334.94 80.4057 333.233 80.9267 331.52C81.1785 330.69 81.4203 329.861 81.7257 329.049C81.8429 328.735 81.9616 328.421 82.0759 328.107C82.8691 331.085 82.6983 338.275 82.6983 338.275C82.526 341.208 80.8905 342.065 79.2304 340.91C78.9308 340.7 78.5964 340.165 78.2534 339.425C78.5501 338.482 78.8555 337.538 79.213 336.61Z" fill="white"/>
<path d="M103.061 340.834L104.186 340.768C104.186 340.768 104.88 342.015 104.539 342.732C104.197 343.45 100.011 345.951 91.1477 347.713C82.284 349.474 77.9071 348.917 77.7407 347.308C77.5714 345.698 100.11 345.354 103.061 340.834Z" fill="#D6D9EA"/>
<path d="M77.7396 347.308C90.2753 348.508 107.12 341.631 103.807 340.412C103.077 340.146 101.89 340.042 100.469 340.01C95.4192 339.903 87.421 340.712 86.6655 338.353C85.6958 335.332 83.9647 335.253 83.6159 335.449C83.5276 335.5 83.2917 335.664 82.9603 335.865C81.9905 336.455 80.2001 337.382 78.8439 336.842C77.0217 336.122 76.7626 336.05 76.23 336.916C74.6712 339.454 75.1271 341.197 77.7396 347.308Z" fill="#18A45A"/>
<path opacity="0.2" d="M82.9585 335.865C83.2813 336.549 83.7849 337.296 84.3074 337.882C85.6245 339.349 84.5868 340.577 88.0605 342.945C91.5313 345.313 98.0777 342.207 99.926 341.094C101.012 340.438 100.816 340.143 100.469 340.01C95.4189 339.903 87.4207 340.712 86.6652 338.353C85.6955 335.332 83.9644 335.253 83.6156 335.449C83.5259 335.501 83.2914 335.664 82.9585 335.865Z" fill="#D6D9EA"/>
<path d="M69.5544 164.273C67.1561 148.898 33.2689 173.715 33.2689 173.715C33.2689 173.715 32.0748 198.821 47.99 253.242C63.9068 307.664 73.6881 331.222 73.6881 331.222L83.1481 329.336C83.1495 329.337 79.4472 227.696 69.5544 164.273Z" fill="#171C80"/>
<path opacity="0.25" d="M54.7637 269.384C55.1198 267.244 55.5439 264.961 56.4499 262.978C56.9377 261.91 57.6947 260.652 58.951 260.411C61.5172 259.916 63.2279 263.546 64.0153 265.387C68.0057 274.713 64.7462 285.495 69.0695 294.735C70.9699 298.796 74.1295 302.008 76.6624 305.657C79.3922 309.591 81.0566 314.08 81.5212 318.852C81.8845 322.566 81.5386 326.269 80.634 329.838L83.1481 329.337C83.1481 329.337 79.4457 227.696 69.5529 164.273C67.1547 148.898 33.2689 173.715 33.2689 173.715C33.2689 173.715 32.0748 198.821 47.99 253.242C50.206 260.819 52.2989 267.776 54.2673 274.178C54.3469 272.571 54.5003 270.969 54.7637 269.384Z" fill="#171C80"/>
<path d="M61.5519 80.1871C61.5519 80.1871 91.938 88.2548 85.888 97.1879C81.2116 104.09 55.8247 95.3628 55.8247 95.3628L61.5519 80.1871Z" fill="#FE947C"/>
<path d="M74.3885 83.794L92.8714 52.3123L98.2035 54.7236C98.2035 54.7236 94.0337 99.2721 80.6976 98.9551C67.363 98.6382 74.3885 83.794 74.3885 83.794Z" fill="#FE947C"/>
<path d="M101.86 51.137C101.531 51.5987 101.162 52.004 100.793 52.3542C99.6527 53.434 98.4962 53.9782 98.4962 53.9782L94.241 64.9319C92.0019 64.5266 89.3242 62.8998 88.8813 62.5958C88.8813 62.5958 93.6982 52.884 93.1308 50.9416C93.1294 50.9242 93.1221 50.904 93.1149 50.8881C92.824 50.519 92.6966 49.7649 92.7125 48.9182C92.7241 48.3349 92.8008 47.7082 92.934 47.1321C93.2582 45.7224 90.569 42.8117 91.2681 42.2559C91.97 41.7016 93.9862 42.9681 94.2844 44.1332C94.584 45.2954 95.6218 45.0146 96.0791 43.9653C96.784 42.3471 98.4224 34.1333 99.6064 34.4459C100.792 34.7571 99.1389 42.887 99.1389 42.887C99.1389 42.887 102.559 33.9857 103.545 34.8888C104.529 35.7906 101.172 43.89 101.172 43.89C101.172 43.89 104.189 37.6244 105.403 37.869C106.619 38.1092 103.322 45.4025 103.322 45.4025C103.322 45.4025 106.056 41.2515 107.131 41.5496C108.207 41.8449 103.199 49.2482 101.86 51.137Z" fill="#FE947C"/>
<path opacity="0.1" d="M94.0486 52.3977C94.4944 53.0881 95.2586 53.5006 96.0344 53.7148C96.8029 53.9261 97.6612 53.9608 98.4167 53.6772C98.6411 53.5932 98.8394 53.476 99.0261 53.3414C98.9031 53.3833 98.78 53.4195 98.6599 53.4441C97.1923 53.7408 96.1965 52.4208 96.1965 52.4208C95.8535 52.4903 94.5769 52.0054 93.6245 51.3339C93.7345 51.7 93.8373 52.072 94.0486 52.3977Z" fill="#18A45A"/>
<path d="M101.86 51.137C101.531 51.5987 101.162 52.004 100.793 52.3542C100.165 52.8174 99.3702 53.3022 98.6596 53.4441C97.1919 53.7408 96.1961 52.4208 96.1961 52.4208C95.7894 52.5033 94.0656 51.8071 93.1306 50.9401C93.1292 50.9228 93.1219 50.9025 93.1147 50.8866C92.8238 50.5175 92.6964 49.7634 92.7123 48.9167C92.7239 48.3334 92.8006 47.7067 92.9338 47.1307C93.258 45.7209 90.5688 42.8103 91.2679 42.2545C91.9698 41.7001 93.986 42.9666 94.2842 44.1317C94.5838 45.294 95.6215 45.0132 96.0789 43.9638C96.7838 42.3457 98.4222 34.1319 99.6061 34.4445C100.792 34.7557 99.1387 42.8855 99.1387 42.8855C99.1387 42.8855 102.559 33.9842 103.544 34.8874C104.529 35.7891 101.172 43.8886 101.172 43.8886C101.172 43.8886 104.189 37.6229 105.403 37.8675C106.619 38.1078 103.322 45.4011 103.322 45.4011C103.322 45.4011 106.056 41.25 107.131 41.5482C108.206 41.8449 103.199 49.2482 101.86 51.137Z" fill="#FE947C"/>
<path opacity="0.1" d="M103.662 45.9901C103.296 45.6355 102.925 45.2896 102.536 44.9668C102.146 44.6455 101.748 44.3329 101.307 44.1028C100.867 43.8625 100.401 43.6584 99.9333 43.4659C99.4658 43.2778 98.9881 43.107 98.4917 42.9883C99.0026 43.0288 99.5005 43.1649 99.9839 43.327C100.47 43.4905 100.936 43.6989 101.397 43.9305C101.852 44.1824 102.258 44.5051 102.634 44.8525C103.01 45.2042 103.358 45.5791 103.662 45.9901Z" fill="#18A45A"/>
<path d="M45.7251 65.1099C45.7251 65.1099 59.6314 69.4896 72.5405 83.8692C73.3915 85.0083 64.5438 98.4153 59.8659 99.4284C55.188 100.443 46.0536 86.0272 46.0536 86.0272L45.7251 65.1099Z" fill="#18A45A"/>
<path d="M239.448 56.0522H70.0396L70.1307 286.766H78.1289L74.9707 351.891H88.3951L91.5532 286.766H204.913L201.754 351.891H215.179L218.335 286.766H233.342L239.448 56.0522Z" fill="#D6D9EA"/>
<path d="M113.637 357.989H100.071L96.8159 265.248H110.381L113.637 357.989Z" fill="#D6D9EA"/>
<path d="M241.75 357.989H228.185L224.928 265.248H238.494L241.75 357.989Z" fill="#D6D9EA"/>
<path d="M254.554 290.826H78.2361L69.8833 52.8854H246.202L254.554 290.826Z" fill="#C0C6DD"/>
<path opacity="0.1" d="M227.678 67.0797H92.4827C87.7512 67.0797 84.0517 70.9138 84.2167 75.6452L90.7589 262.006C90.9253 266.737 94.8954 270.572 99.6254 270.572H234.823C239.554 270.572 243.255 266.737 243.089 262.006L236.546 75.6452C236.38 70.9138 232.41 67.0797 227.678 67.0797Z" fill="#0F47B7"/>
<path d="M214.238 83.0311L215.733 127.179C202.753 114.501 182.435 114.539 170.315 127.263L153.68 144.745L153.114 145.34C140.457 137.484 123.96 139.043 113.539 149.966L107.651 156.148L105.182 83.2338L214.238 83.0311Z" fill="white"/>
<path d="M153.114 145.342L120.016 180.055L108.461 180.077L107.651 156.149L113.539 149.968C123.958 139.044 140.457 137.484 153.114 145.342Z" fill="#EAEEF4"/>
<path d="M215.733 127.18L217.518 179.875L120.016 180.055L153.114 145.342L153.68 144.747L170.315 127.264C182.435 114.539 202.753 114.501 215.733 127.18ZM158.212 112.963C158.375 117.781 154.647 121.696 149.885 121.705C145.123 121.714 141.131 117.814 140.968 112.995C140.804 108.176 144.533 104.261 149.294 104.252C154.056 104.244 158.048 108.143 158.212 112.963Z" fill="#D6D9EA"/>
<path d="M23.0837 345.918C23.0837 345.918 25.9393 335.264 24.45 334.491C22.9606 333.718 17.6502 331.41 16.8166 332.107C15.98 332.805 17.7516 346.148 19.0918 347.662C20.4321 349.175 22.2225 348.729 23.0837 345.918Z" fill="#FE947C"/>
<path opacity="0.2" d="M20.0877 343.477C21.1066 342.005 22.0445 340.478 22.9549 338.935C23.3949 338.189 23.8262 337.441 24.314 336.723C24.5022 336.445 24.6918 336.169 24.877 335.891C24.945 338.972 23.0837 345.918 23.0837 345.918C22.2225 348.729 20.4322 349.175 19.0919 347.661C18.8487 347.387 18.6519 346.787 18.4927 345.988C19.0036 345.138 19.5218 344.294 20.0877 343.477Z" fill="white"/>
<path d="M42.2658 353.209L43.3745 353.411C43.3745 353.411 43.7552 354.786 43.2529 355.403C42.7507 356.019 38.0931 357.462 29.0644 357.082C20.0357 356.701 15.9136 355.128 16.1307 353.524C16.3492 351.922 38.3319 356.904 42.2658 353.209Z" fill="#D6D9EA"/>
<path d="M16.1323 353.524C28.0311 357.648 46.0233 354.94 43.0895 352.974C42.444 352.543 41.3136 352.162 39.9415 351.795C35.0595 350.499 27.0961 349.399 26.9181 346.927C26.6894 343.763 25.0249 343.277 24.6399 343.387C24.5415 343.416 24.2737 343.519 23.9047 343.636C22.8235 343.98 20.8637 344.458 19.6725 343.616C18.0718 342.485 17.8373 342.355 17.1165 343.07C15.0048 345.169 15.0352 346.97 16.1323 353.524Z" fill="#18A45A"/>
<path opacity="0.2" d="M23.9043 343.637C24.0563 344.38 24.3689 345.223 24.7394 345.917C25.673 347.652 24.3747 348.602 27.1913 351.722C30.0049 354.843 37.1 353.369 39.1581 352.722C40.3667 352.342 40.2465 352.007 39.9411 351.796C35.0592 350.501 27.0957 349.401 26.9177 346.928C26.689 343.764 25.0246 343.278 24.6396 343.388C24.5411 343.417 24.2748 343.52 23.9043 343.637Z" fill="#D6D9EA"/>
<path d="M58.1984 171.07C59.4953 155.563 4.91357 166.992 4.91357 166.992C4.91357 166.992 6.79515 198.457 9.41923 255.097C12.0448 311.739 15.9917 336.937 15.9917 336.937L25.6298 337.338C25.6298 337.337 52.8475 235.035 58.1984 171.07Z" fill="#171C80"/>
<path d="M43.1849 64.7668C79.8323 65.1113 69.6341 169.236 70.2637 173.496C70.8948 177.754 0.814648 199.044 0.0432011 168.403C-0.93522 129.551 14.7441 64.4991 43.1849 64.7668Z" fill="#11C064"/>
<path opacity="0.15" d="M48.0204 64.6772C46.3415 64.3356 44.6235 64.1388 42.9026 64.1301C42.0515 64.1257 41.1643 64.1677 40.306 64.3168C40.4333 64.7944 40.2379 65.33 39.5722 65.466C38.3376 65.7193 37.0754 65.8525 35.8669 66.2056C35.3936 66.3446 34.9087 66.5226 34.5932 66.8164C34.6728 67.0161 32.3136 70.5607 37.8397 77.4922C38.8818 78.7992 41.309 76.8351 39.5027 69.9254C39.0873 68.339 47.1868 75.8928 48.8903 76.2952C51.4232 76.8959 54.3512 72.4119 51.6533 69.3044C50.7748 68.2927 49.902 64.945 48.9554 64.1055C47.8656 63.1415 49.4533 64.9681 48.0204 64.6772Z" fill="#171C80"/>
<path d="M47.5417 57.9815L49.8213 66.2431C49.8213 66.2431 47.2797 74.7435 36.1553 66.233L38.9921 55.5529L47.5417 57.9815Z" fill="#FE947C"/>
<path opacity="0.15" d="M38.9936 55.5543L47.5417 57.9816L48.5071 61.9575C48.303 62.0385 42.2154 64.431 42.7336 65.696C43.0665 66.508 43.2474 67.6008 43.9812 68.1667C44.5138 68.5777 45.2129 68.7239 45.9004 68.7109C44.0101 69.9093 40.9765 69.9224 36.1553 66.2345L38.9936 55.5543Z" fill="#171C80"/>
<path d="M55.2283 33.3503C55.2283 33.3503 60.3549 61.2845 49.9049 61.9416C39.4549 62.5987 32.2889 51.4902 32.2889 51.4902C32.2889 51.4902 27.9512 50.7998 27.6545 45.5748C27.4171 41.363 30.0209 42.1243 30.0209 42.1243C30.0209 42.1243 28.0163 31.3776 35.5079 29.2745C43.0038 27.1715 55.2283 33.3503 55.2283 33.3503Z" fill="#FE947C"/>
<path d="M38.9671 32.9291C41.6201 41.5916 31.791 44.6919 31.791 44.6919C29.2176 42.198 28.0351 36.0931 29.1061 30.9158C29.1061 30.884 29.1061 30.8521 29.1221 30.8203C29.2017 30.58 29.2827 30.3571 29.3782 30.1169C30.7851 26.552 33.9331 23.7398 38.0726 22.5095C49.611 19.0416 54.0067 23.2129 52.8082 23.8353C54.438 23.1637 60.5763 26.2973 61.7429 31.9709C63.995 42.9348 42.723 34.5429 38.9671 32.9291Z" fill="#1A1D55"/>
<path d="M29.1222 30.8203C29.1062 30.8521 29.1063 30.884 29.1063 30.9158H29.0903C29.1063 30.884 29.1062 30.8521 29.1222 30.8203ZM29.3769 30.1169C29.2814 30.3571 29.2003 30.58 29.1207 30.8203C29.1685 30.58 29.2162 30.3412 29.2814 30.101C29.3132 30.101 29.3451 30.1169 29.3769 30.1169Z" fill="#171C80"/>
<path opacity="0.05" d="M39.8603 47.7922C39.7459 48.4724 40.4856 49.1628 41.5132 49.3365C42.5408 49.5087 43.4671 49.0991 43.5815 48.4203C43.6958 47.7415 42.9562 47.0497 41.9271 46.876C40.901 46.7023 39.9746 47.1133 39.8603 47.7922ZM51.5058 47.8558C51.3915 48.5347 52.1311 49.2265 53.1587 49.4002C54.1863 49.5739 55.1127 49.1628 55.227 48.484C55.3413 47.8052 54.6003 47.1133 53.5741 46.9397C52.545 46.766 51.6202 47.177 51.5058 47.8558Z" fill="#171C80"/>
<path d="M51.0122 41.4686C51.1121 41.4686 51.2091 41.4179 51.2612 41.3253C51.3089 41.2457 52.4205 39.409 55.1459 40.6161C55.2935 40.6812 55.4614 40.6146 55.5251 40.4699C55.5888 40.3251 55.5236 40.1544 55.3789 40.0907C52.1658 38.665 50.7777 41.0155 50.7633 41.0387C50.6837 41.1762 50.7329 41.3528 50.8704 41.4309C50.9138 41.4555 50.9644 41.4686 51.0122 41.4686ZM45.4369 41.5192C45.4731 41.5192 45.5079 41.512 45.5426 41.499C45.6902 41.4411 45.7626 41.2732 45.7033 41.1255C45.6931 41.0995 44.6481 38.5926 40.869 39.4017C40.7142 39.435 40.6158 39.587 40.649 39.7433C40.6823 39.8982 40.8329 39.998 40.9906 39.9647C44.3008 39.2541 45.1619 41.318 45.1706 41.3397C45.2155 41.4512 45.3226 41.5192 45.4369 41.5192ZM48.7094 48.7112C48.8093 48.7112 48.9063 48.6982 49.0033 48.6707C49.6126 48.4941 49.8702 47.8066 49.8804 47.7791C49.9108 47.6937 49.9006 47.5996 49.8514 47.5229C48.8194 45.9409 49.0944 43.8032 49.0959 43.7815C49.1176 43.6237 49.0076 43.479 48.8498 43.4587C48.6892 43.4355 48.5473 43.5484 48.5271 43.7047C48.514 43.7988 48.2376 45.9626 49.284 47.7009C49.2015 47.8515 49.0467 48.0613 48.8397 48.1207C48.6458 48.1757 48.4084 48.099 48.1377 47.892C48.0118 47.7965 47.8309 47.8196 47.7354 47.9455C47.6384 48.0715 47.663 48.2524 47.7889 48.3479C48.1073 48.5896 48.4156 48.7112 48.7094 48.7112Z" fill="#171C80"/>
<path d="M52.3991 52.4541C52.3991 52.4541 49.1222 53.9391 45.4488 52.2312C44.6166 53.7582 48.9688 57.7298 52.3991 52.4541Z" fill="#FCFAF7"/>
<path d="M51.8834 43.7844C51.8834 44.6788 52.3798 45.4054 52.9921 45.4054C53.6043 45.4054 54.1008 44.6788 54.1008 43.7844C54.1008 42.8899 53.6043 42.1633 52.9921 42.1633C52.3813 42.1648 51.8834 42.8899 51.8834 43.7844ZM41.9023 43.7844C41.9023 44.6788 42.3988 45.4054 43.011 45.4054C43.6233 45.4054 44.1197 44.6788 44.1197 43.7844C44.1197 42.8899 43.6233 42.1633 43.011 42.1633C42.3988 42.1648 41.9023 42.8899 41.9023 43.7844Z" fill="#171C80"/>
<path opacity="0.05" d="M48.1478 56.5256C48.4517 56.5256 48.6485 56.4807 48.6688 56.4764C48.747 56.4576 48.7933 56.3809 48.7759 56.3042C48.7571 56.226 48.6804 56.1797 48.6037 56.1971C48.5921 56.2 47.3314 56.4807 46.1866 55.4893C46.1243 55.4386 46.0346 55.4444 45.9839 55.5038C45.9318 55.5646 45.9391 55.6557 45.9984 55.7078C46.793 56.3939 47.6267 56.5256 48.1478 56.5256ZM30.5145 43.8336C30.5145 43.8336 28.8384 43.0448 28.5099 44.2273C28.1813 45.4098 29.2321 48.4015 30.843 49.0919C30.843 49.0919 27.9179 46.2652 28.8717 44.5559C29.8241 42.848 30.416 44.6543 30.5145 43.8336Z" fill="#171C80"/>
<path d="M45.4212 70.4709C45.4212 70.4709 43.2371 78.2085 39.9603 75.8783C36.6835 73.548 28.5811 70.2857 36.4837 65.1764C36.4837 65.1764 36.8615 65.8741 37.7444 66.9451C40.4741 70.261 45.165 67.4532 45.165 67.4532C45.165 67.4532 49.5564 68.6053 49.5564 65.1099C49.5564 65.1099 55.7337 71.8749 51.5899 73.4872C47.4446 75.101 45.4212 70.4709 45.4212 70.4709Z" fill="#18A45A"/>
<path d="M104.555 139.453C104.614 138.264 99.6627 136.381 99.6627 136.381C99.6627 136.381 108.014 138.125 107.985 136.804C107.956 135.484 100.737 133.795 100.737 133.795C100.737 133.795 109.943 135.413 110.654 134.178C111.365 132.944 101.307 131.447 101.307 131.447C101.307 131.447 110.149 131.279 110.2 129.974C110.25 128.67 101.323 128.872 99.476 128.512C98.2776 128.279 97.7464 127.261 98.8884 126.682C100.03 126.103 100.881 123.711 100.14 123.11C99.3993 122.51 96.9938 125.986 95.4538 125.972C93.9123 125.959 92.1248 126.374 91.5878 127.034C89.8611 128.156 78.424 125.342 78.424 125.342C78.2069 125.872 77.1344 129.037 77.2357 131.457L89.618 133.349C89.618 133.349 91.0813 135.235 93.3536 136.19C95.626 137.147 104.494 140.642 104.555 139.453Z" fill="#FE947C"/>
<g opacity="0.2">
<path d="M99.9597 123.151C99.6601 123.109 99.2809 123.501 99.1304 123.665C99.1304 123.665 99.2606 124.097 99.4908 123.96C99.7209 123.822 100.259 123.193 99.9597 123.151ZM110.071 129.958C110.003 129.654 109.026 129.505 108.932 129.566C108.932 129.566 108.958 130.367 109.025 130.502C109.093 130.637 110.139 130.262 110.071 129.958ZM110.378 134.099C110.394 133.786 109.494 133.381 109.388 133.414C109.388 133.414 109.197 134.194 109.226 134.34C109.253 134.488 110.362 134.41 110.378 134.099ZM107.618 136.789C107.648 136.478 106.767 136.032 106.66 136.06C106.66 136.06 106.434 136.831 106.456 136.979C106.477 137.127 107.589 137.101 107.618 136.789ZM104.321 139.382C104.37 139.127 103.674 138.688 103.581 138.703C103.581 138.703 103.335 139.325 103.341 139.45C103.348 139.574 104.271 139.638 104.321 139.382Z" fill="white"/>
</g>
<path d="M36.1567 101.175C39.0558 108.706 38.3698 112.889 39.849 119.954L90.1566 127.289L88.4386 133.168C88.4386 133.168 40.6436 139.131 31.5686 133.912C23.0552 129.017 19.8029 113.794 19.4556 105.023C22.0608 104.429 30.3716 101.982 36.1567 101.175Z" fill="#FE947C"/>
<path d="M41.9027 108.136C41.9027 108.136 17.1483 118.606 15.8109 115.5C14.4736 112.392 13.6283 82.3365 28.9255 70.8472C35.3128 66.0507 41.9027 108.136 41.9027 108.136Z" fill="#18A45A"/>
<path d="M115.722 211.268H180.023C181.346 211.268 182.314 209.948 182.186 208.321C182.057 206.693 180.879 205.373 179.556 205.373H115.255C113.932 205.373 112.964 206.693 113.093 208.321C113.221 209.95 114.398 211.268 115.722 211.268ZM219.287 205.373H189.802C188.479 205.373 187.51 206.693 187.639 208.321C187.768 209.95 188.945 211.268 190.269 211.268H219.755C221.079 211.268 222.046 209.948 221.917 208.321C221.788 206.693 220.612 205.373 219.287 205.373ZM163.305 222.078H116.579C115.256 222.078 114.288 223.397 114.417 225.025C114.546 226.654 115.722 227.974 117.045 227.974H163.771C165.095 227.974 166.062 226.654 165.933 225.025C165.804 223.397 164.628 222.078 163.305 222.078ZM213.223 222.078H172.223C170.9 222.078 169.931 223.397 170.06 225.025C170.188 226.654 171.367 227.974 172.691 227.974H213.69C215.013 227.974 215.983 226.654 215.853 225.025C215.725 223.397 214.547 222.078 213.223 222.078ZM117.239 245.901H137.607C138.93 245.901 139.898 244.581 139.769 242.951C139.64 241.323 138.462 240.003 137.139 240.003H116.772C115.449 240.003 114.481 241.323 114.609 242.951C114.74 244.581 115.916 245.901 117.239 245.901ZM145.43 245.901H184.306C185.629 245.901 186.597 244.581 186.468 242.951C186.34 241.323 185.161 240.003 183.838 240.003H144.962C143.639 240.003 142.671 241.323 142.8 242.951C142.929 244.581 144.105 245.901 145.43 245.901Z" fill="#C0C6DD"/>
<path d="M162.042 0L161.193 9.72921L75.8623 22.4849L77.204 15.9992C77.204 15.9992 102.411 16.9082 111.327 14.9788C133.688 10.1388 156.34 4.13658 162.042 0Z" fill="#C0C6DD"/>
<path d="M159.522 5.89948L74.2122 20.282C74.2122 20.282 65.7104 27.9313 74.0038 35.1783L157.41 21.7699C157.41 21.7699 152.277 16.2076 159.522 5.89948Z" fill="#EAEEF4"/>
<path opacity="0.25" d="M156.788 10.8422C153.789 12.9351 128.73 32.6917 70.782 25.6821C69.9382 28.4075 70.1727 31.832 74.0039 35.1797L157.411 21.7713C157.41 21.7699 153.929 17.9676 156.788 10.8422Z" fill="#C0C6DD"/>
<path d="M154.253 11.8308C152.916 16.5347 153.917 20.9391 156.489 21.67C159.061 22.4009 162.229 19.182 163.567 14.478C164.904 9.77553 163.324 6.81421 160.752 6.08329C158.181 5.35092 155.59 7.12684 154.253 11.8308Z" fill="#D6D9EA"/>
<path d="M153.76 14.4795L160.232 13.8065C160.232 13.8065 160.009 20.7784 157.167 21.6454C154.324 22.5109 152.922 16.2511 153.76 14.4795Z" fill="#C0C6DD"/>
<path opacity="0.1" d="M121.36 196.871V224.546C121.36 226.824 119.506 228.678 117.229 228.678H70.0625C69.5704 227.454 69.2954 226.127 69.2954 224.742V192.75H117.229C119.506 192.75 121.36 194.593 121.36 196.871Z" fill="#0F47B7"/>
<path d="M59.9628 223.893C57.6861 223.893 55.8335 222.041 55.8335 219.764V192.09C55.8335 189.814 57.6861 187.961 59.9628 187.961H114.173C116.449 187.961 118.302 189.814 118.302 192.09V219.764C118.302 222.041 116.449 223.893 114.173 223.893H59.9628Z" fill="#F6F9FF"/>
<path d="M71.5589 204.577C74.8259 204.577 77.4743 201.928 77.4743 198.661C77.4743 195.395 74.8259 192.746 71.5589 192.746C68.292 192.746 65.6436 195.395 65.6436 198.661C65.6436 201.928 68.292 204.577 71.5589 204.577Z" fill="#F6F9FF"/>
<path d="M87.0677 204.577C90.3347 204.577 92.9831 201.928 92.9831 198.661C92.9831 195.395 90.3347 192.746 87.0677 192.746C83.8008 192.746 81.1523 195.395 81.1523 198.661C81.1523 201.928 83.8008 204.577 87.0677 204.577Z" fill="#D6D9EA"/>
<path d="M108.491 198.661C108.491 201.928 105.843 204.577 102.576 204.577C99.3093 204.577 96.6606 201.928 96.6606 198.661C96.6606 195.395 99.3093 192.746 102.576 192.746C105.843 192.746 108.491 195.395 108.491 198.661Z" fill="#C0C6DD"/>
<path opacity="0.1" d="M108.491 198.661C108.491 201.928 105.843 204.577 102.576 204.577C99.3093 204.577 96.6606 201.928 96.6606 198.661C96.6606 195.395 99.3093 192.746 102.576 192.746C105.843 192.746 108.491 195.395 108.491 198.661Z" fill="#0F47B7"/>
<path d="M71.5589 219.111C74.8259 219.111 77.4743 216.463 77.4743 213.196C77.4743 209.929 74.8259 207.281 71.5589 207.281C68.292 207.281 65.6436 209.929 65.6436 213.196C65.6436 216.463 68.292 219.111 71.5589 219.111Z" fill="#C0C6DD"/>
<path opacity="0.1" d="M71.5589 219.111C74.8259 219.111 77.4743 216.463 77.4743 213.196C77.4743 209.929 74.8259 207.281 71.5589 207.281C68.292 207.281 65.6436 209.929 65.6436 213.196C65.6436 216.463 68.292 219.111 71.5589 219.111Z" fill="#0F47B7"/>
<path d="M87.0677 219.111C90.3347 219.111 92.9831 216.463 92.9831 213.196C92.9831 209.929 90.3347 207.281 87.0677 207.281C83.8008 207.281 81.1523 209.929 81.1523 213.196C81.1523 216.463 83.8008 219.111 87.0677 219.111Z" fill="#C0C6DD"/>
<path d="M108.491 213.196C108.491 216.463 105.843 219.111 102.576 219.111C99.3093 219.111 96.6606 216.463 96.6606 213.196C96.6606 209.929 99.3093 207.281 102.576 207.281C105.843 207.281 108.491 209.929 108.491 213.196Z" fill="#D6D9EA"/>
<path d="M59.3144 322.342L56.5948 356.893C56.5948 358.433 50.6505 359.681 43.3181 359.681C35.9857 359.681 30.0414 358.433 30.0414 356.893L27.3218 322.342H59.3144Z" fill="#D6D9EA"/>
<path d="M27.3232 322.342C27.3232 324.195 34.4834 325.706 43.321 325.706C48.4751 325.706 53.0589 325.184 55.9782 324.386C57.883 323.878 59.0886 323.244 59.2913 322.558C59.3043 322.482 59.3173 322.419 59.3173 322.342C59.3173 320.488 52.1572 318.99 43.321 318.99C34.4834 318.99 27.3232 320.488 27.3232 322.342Z" fill="#D6D9EA"/>
<path d="M43.3183 324.955C52.8912 324.955 58.4144 323.226 58.5678 322.339C58.4115 321.456 52.8883 319.729 43.3183 319.729C33.7483 319.729 28.2237 321.456 28.0688 322.345C28.2223 323.226 33.7454 324.955 43.3183 324.955Z" fill="#EAEEF4"/>
<path d="M28.6924 311.931L25.6312 308.643L24.126 307.026L24.2982 309.142L24.6687 313.705C27.9919 314.001 28.6924 311.931 28.6924 311.931Z" fill="white"/>
<path d="M25.6312 308.643L24.126 307.026L24.2982 309.142C24.8569 309.039 25.2926 308.854 25.6312 308.643Z" fill="#D6D9EA"/>
<path d="M28.6927 311.932L42.2444 342.667C42.2444 342.67 42.2458 342.672 42.2473 342.673L45.006 348.929C45.2563 349.496 44.5602 350.353 43.4486 350.843C42.3385 351.333 41.2341 351.269 40.9837 350.702L38.2236 344.439L24.6719 313.704C24.669 313.705 27.5102 313.708 28.6927 311.932Z" fill="#C0C6DD"/>
<path d="M47.6906 310.679L46.3692 306.385L45.7193 304.274L44.9522 306.254L43.2979 310.523C46.1593 312.238 47.6906 310.679 47.6906 310.679Z" fill="white"/>
<path d="M46.3691 306.385L45.7193 304.274L44.9521 306.254C45.4993 306.405 45.9725 306.428 46.3691 306.385Z" fill="#D6D9EA"/>
<path d="M47.6906 310.68L46.4908 344.249C46.4908 344.252 46.4908 344.254 46.4908 344.257L46.2461 351.09C46.2244 351.709 45.2229 352.177 44.01 352.133C42.7971 352.09 41.8317 351.551 41.8534 350.932L42.098 344.093L43.2979 310.524C43.2964 310.523 45.8525 311.763 47.6906 310.68Z" fill="#C0C6DD"/>
<path d="M40.8068 311.177L39.4854 306.883L38.8355 304.772L38.0684 306.752L36.4126 311.021C39.274 312.734 40.8068 311.177 40.8068 311.177Z" fill="white"/>
<path d="M39.4853 306.883L38.8355 304.772L38.0684 306.752C38.6155 306.903 39.0888 306.926 39.4853 306.883Z" fill="#D6D9EA"/>
<path d="M40.8054 311.178L39.6055 344.747C39.6055 344.75 39.6055 344.752 39.6055 344.754L39.3609 351.587C39.3392 352.207 38.3376 352.674 37.1247 352.631C35.9118 352.588 34.9464 352.049 34.9681 351.43L35.2127 344.591L36.4126 311.022C36.4126 311.021 38.9687 312.261 40.8054 311.178Z" fill="#C0C6DD"/>
<path d="M59.317 315.635L58.8756 311.164L58.6585 308.965L57.5136 310.753L55.043 314.607C57.5064 316.856 59.317 315.635 59.317 315.635Z" fill="white"/>
<path d="M58.8757 311.164L58.6585 308.965L57.5137 310.753C58.0203 311.01 58.4791 311.126 58.8757 311.164Z" fill="#D6D9EA"/>
<path d="M59.3158 315.635L51.4639 348.295C51.4624 348.298 51.4624 348.299 51.4624 348.302L49.8645 354.95C49.7198 355.553 48.6458 355.812 47.4648 355.529C46.2852 355.245 45.4457 354.526 45.5904 353.922L47.1912 347.269L55.0432 314.609C55.0432 314.607 57.2997 316.331 59.3158 315.635Z" fill="#C0C6DD"/>
<path d="M38.6097 315.917L37.4402 315.138C37.2145 314.988 36.9496 314.908 36.6789 314.908H33.9058C33.1473 314.908 32.5308 315.523 32.5308 316.282V326.596C32.5308 326.986 32.6972 327.358 32.9881 327.619L33.8044 328.351C34.5527 329.022 35.7439 328.69 36.0377 327.729L40.2105 317.283C40.3842 316.703 39.1148 316.253 38.6097 315.917Z" fill="white"/>
<path d="M35.5066 329.789H40.2685C40.3235 329.789 40.3683 329.744 40.3683 329.689V316.395C40.3683 316.34 40.3235 316.295 40.2685 316.295H35.5066C35.4516 316.295 35.4067 316.34 35.4067 316.395V329.689C35.4067 329.745 35.4516 329.789 35.5066 329.789Z" fill="#D6D9EA"/>
<path d="M51.2279 319.275L50.0584 318.496C49.8326 318.346 49.5677 318.266 49.2971 318.266H46.5239C45.7655 318.266 45.1489 318.881 45.1489 319.64V329.954C45.1489 330.344 45.3154 330.716 45.6063 330.977L46.4226 331.709C47.1709 332.379 48.3621 332.048 48.6545 331.087L52.8272 320.641C53.0038 320.061 51.7345 319.611 51.2279 319.275Z" fill="white"/>
<path d="M48.1248 333.148H52.8866C52.9416 333.148 52.9865 333.103 52.9865 333.048V319.754C52.9865 319.699 52.9416 319.654 52.8866 319.654H48.1248C48.0698 319.654 48.0249 319.699 48.0249 319.754V333.048C48.0249 333.103 48.0698 333.148 48.1248 333.148Z" fill="#D6D9EA"/>
<path d="M27.3232 322.342L30.04 356.888C30.04 358.423 35.9814 359.681 43.3196 359.681C46.278 359.681 49.0193 359.478 51.2164 359.135C54.4802 358.627 56.5876 357.815 56.5876 356.889L59.2913 322.559C59.0886 323.245 57.883 323.879 55.9782 324.387C53.0574 325.186 48.4751 325.707 43.321 325.707C34.4834 325.706 27.3232 324.195 27.3232 322.342Z" fill="#C0C6DD"/>
<path opacity="0.1" d="M36.8601 341.398C40.6797 344.361 44.7903 347.022 49.1222 349.176C51.6566 350.435 54.2662 351.48 56.9511 352.284L56.5878 356.886C56.5878 357.813 54.4804 358.626 51.2166 359.134C49.0209 359.476 46.2782 359.68 43.3197 359.68C35.9816 359.68 30.0401 358.423 30.0401 356.886L28.1875 333.335C30.7407 336.36 33.7411 338.979 36.8601 341.398Z" fill="#0F47B7"/>
<path d="M27.3232 322.342C27.3232 324.195 34.4834 325.706 43.321 325.706C48.4751 325.706 53.0589 325.185 55.9782 324.386C57.883 323.878 59.0886 323.244 59.2913 322.558L59.3043 322.342H58.5676C58.4909 322.698 57.5139 323.205 55.7365 323.688C53.1718 324.361 48.944 324.957 43.3196 324.957C33.7467 324.957 28.2235 323.231 28.0715 322.342H27.3232Z" fill="#D6D9EA"/>
<path d="M104.927 17.862L72.1468 10.7887C72.1439 10.7873 72.1425 10.7873 72.1396 10.7873L65.4918 9.18936C64.8883 9.04462 64.6292 7.97067 64.9129 6.78962C65.1966 5.61002 65.9159 4.77054 66.5195 4.91528L73.173 6.51607L105.258 15.6953C105.261 15.6953 104.183 16.7171 104.927 17.862Z" fill="#C0C6DD"/>
<path opacity="0.25" d="M105.261 15.6953L104.496 15.4767C103.775 16.4161 102.481 16.4754 101.391 16.3958C100.02 16.2974 98.6656 15.9442 97.347 15.5722C89.8945 13.4736 82.2857 11.8597 74.7087 10.2705C71.2958 9.55554 67.6007 8.3933 65.2024 5.9762C65.0851 6.21935 64.9867 6.49435 64.9158 6.78962C64.6321 7.97067 64.8912 9.04461 65.4948 9.18935L72.1425 10.7872C72.1454 10.7872 72.1469 10.7872 72.1497 10.7887L104.93 17.862C104.183 16.7171 105.261 15.6953 105.261 15.6953Z" fill="#C0C6DD"/>
<path d="M105.999 15.6953C105.999 15.6953 105.09 16.3205 105.601 18.1659C106.112 20.0113 108.043 21.3458 112.984 20.324C117.925 19.3021 118.493 20.8349 118.493 20.8349C118.493 20.8349 117.527 15.468 114.148 16.3205C114.148 16.3205 113.75 15.7242 114.744 15.6953C114.744 15.6953 111.877 13.5083 110.003 14.7009C108.13 15.8936 106.823 14.6155 105.999 15.6953Z" fill="#C0C6DD"/>
<path opacity="0.25" d="M117.212 20.0938C116.432 19.5916 115.617 19.1487 114.749 18.8071C114.314 18.6363 113.783 18.3686 113.303 18.4873C113.013 18.5596 112.779 18.7869 112.541 18.9533C109.683 20.9623 107.085 18.2021 106.293 15.4246C106.19 15.4926 106.09 15.5737 105.999 15.6938C105.999 15.6938 105.09 16.3191 105.601 18.1645C106.112 20.0099 108.043 21.3444 112.984 20.3225C115.093 19.8869 116.4 19.9173 117.212 20.0938Z" fill="#C0C6DD"/>
<path d="M318.823 355.131C318.823 355.131 320.557 352.171 319.553 349.29C318.548 346.41 315.819 343.544 315.819 343.544L309.695 344.663C309.695 344.663 307.712 345.404 308.75 348.79C308.75 348.79 295.894 351.066 294.626 354.911C293.075 359.613 299.245 358.668 299.245 358.668C299.245 358.668 313.085 358.968 318.823 355.131Z" fill="#171C80"/>
<path d="M316.092 336.551L317.154 348.853L310.172 349.777L309.017 336.904L316.092 336.551Z" fill="#FE947C"/>
<path d="M317.345 346.865C317.345 346.865 319.537 350.654 318.544 352.858C317.551 355.064 303.329 356.166 303.329 356.166L299.573 351.314C299.573 351.314 303.439 350.175 308.291 347.897C308.291 347.897 306.453 342.678 309.835 343.543C312.711 344.28 312.409 347.529 312.409 347.529C312.409 347.529 315.47 348.384 317.345 346.865Z" fill="#0F47B7"/>
<path d="M336.743 154.51C336.743 154.51 298.843 143.994 280.541 153.627C280.541 153.627 301.179 339.173 308.745 339.605C315.066 339.967 317.153 339.655 317.153 339.655C317.153 339.655 337.707 170.885 336.743 154.51Z" fill="#18A45A"/>
<path opacity="0.18" d="M293.882 185.757C296.643 188.427 299.517 190.976 302.478 193.422C305.324 195.773 308.434 197.852 311.174 200.323C316.147 204.807 318.983 210.835 321.869 216.751C324.189 221.508 327.088 225.934 329.861 230.437C333.854 194.201 337.144 161.29 336.745 154.509C336.745 154.509 298.844 143.996 280.542 153.628C280.542 153.628 281.396 161.296 282.817 173.516C286.191 177.864 289.931 181.934 293.882 185.757Z" fill="#18A45A"/>
<path d="M407.573 342.088C407.573 342.088 408.074 338.93 406.226 336.771C404.376 334.613 401.032 333.05 401.032 333.05L396.097 336.098C396.097 336.098 394.626 337.413 396.676 340.001C396.676 340.001 386.29 346.339 386.492 350.107C386.741 354.715 391.777 351.802 391.777 351.802C391.777 351.802 403.891 347.365 407.573 342.088Z" fill="#171C80"/>
<path d="M398.878 326.824L403.975 337.143L398.228 340.315L392.856 329.532L398.878 326.824Z" fill="#FE947C"/>
<path d="M403.484 335.415C403.484 335.415 406.673 337.959 406.559 340.211C406.446 342.462 394.473 348.246 394.473 348.246L389.566 345.309C389.566 345.309 392.535 343.008 395.974 339.385C395.974 339.385 392.607 335.478 395.836 335.082C398.582 334.745 399.422 337.668 399.422 337.668C399.422 337.668 402.371 337.369 403.484 335.415Z" fill="#0F47B7"/>
<path d="M350.327 149.564C350.327 149.564 316.183 142.195 302.645 157.831C302.645 157.831 386.111 334.167 393.318 331.814C399.336 329.848 400.712 328.489 400.712 328.489C400.712 328.489 357.186 164.464 350.327 149.564Z" fill="#0A994D"/>
<path opacity="0.18" d="M324.326 183.089C326.166 180.811 328.775 179.147 331.783 179.2C334.594 179.249 337.079 180.909 338.82 183.018C339.767 184.166 340.657 185.534 341.92 186.362C343.282 187.253 343.874 186.147 344.909 185.337C347.141 183.59 350.356 184.049 352.942 184.612C355.624 185.197 358.236 186.119 359.836 188.479C361.649 191.157 361.971 194.522 364.114 197.01C364.425 197.372 364.79 197.677 365.145 197.993C358.247 173.615 352.479 154.242 350.327 149.564C350.327 149.564 316.183 142.197 302.645 157.831C302.645 157.831 310.771 175.001 322.172 198.553C321.01 193.167 320.725 187.549 324.326 183.089Z" fill="#13884A"/>
<path d="M304.478 36.0076C303.532 35.0654 298.253 32.1533 300.766 26.2119C301.886 23.5617 303.742 29.4265 308.156 27.1107C308.656 26.8487 309.262 27.2033 309.771 27.3698C310.3 23.8671 308.26 19.8478 311.909 19.8478C314.591 19.8478 321.983 22.6325 323.248 24.792C324.386 24.1088 324.791 20.887 326.214 20.887C330.392 20.887 334.699 27.0962 334.699 31.2747C334.699 31.6265 334.668 31.9709 334.62 32.3096C336.467 33.1549 337.752 35.0148 337.752 37.1786C337.752 39.9083 335.71 42.1561 333.07 42.489C333.089 42.6569 333.099 42.8247 333.099 42.9984C333.099 45.5096 331.064 47.5432 328.554 47.5432C326.548 47.5432 324.849 46.242 324.247 44.44C322.359 46.2651 319.793 47.3926 316.961 47.3926C314.305 47.3926 311.886 46.3983 310.038 44.77C309.059 45.815 307.671 46.4721 306.127 46.4721C303.166 46.4721 300.764 44.0724 300.764 41.1096C300.766 38.7229 302.325 36.7038 304.478 36.0076ZM303.652 70.9732C294.138 71.4175 259.459 107.256 259.459 107.256C259.459 107.256 259.459 131.457 278.485 115.451C290.694 105.18 316.707 70.3638 303.652 70.9732ZM330.894 69.7704C349.109 76.9132 370.138 101.136 370.138 101.136C370.138 101.136 386.051 133.731 361.285 127.001C336.519 120.271 317.621 64.5657 330.894 69.7704Z" fill="#292C6C"/>
<path d="M317.691 67.5256C334.012 67.4966 359.616 79.6053 355.168 159.014C355.168 159.014 299.026 179.537 279.696 164.466C279.696 164.466 276.826 67.5994 317.691 67.5256Z" fill="#171C80"/>
<path d="M323.365 68.695C323.365 68.695 321.479 70.5158 318.072 70.536C314.665 70.5577 312.55 68.8643 312.55 68.8643C312.55 68.8643 313.021 65.5165 313.364 63.043C313.565 61.5435 313.731 60.3147 313.752 60.115L322.284 60.0629L322.761 63.8738L323.365 68.695Z" fill="#FE947C"/>
<path d="M312.549 68.0481C312.549 68.0481 313.837 70.3581 317.665 70.1005C321.494 69.8414 323.364 68.0481 323.364 68.0481C323.364 68.0481 325.361 70.6881 322.523 73.0357C319.683 75.3834 318.062 71.8995 318.062 71.8995C318.062 71.8995 317.222 74.7364 314.61 73.8477C311.997 72.959 311.397 70.0252 312.549 68.0481Z" fill="#171C80"/>
<path opacity="0.1" d="M322.762 63.8738C321.404 65.2676 319.806 66.2243 318.516 66.233C316.949 66.2431 314.911 64.8797 313.364 63.043C313.565 61.5435 313.731 60.3147 313.752 60.115L322.284 60.0629L322.762 63.8738Z" fill="#171C80"/>
<path d="M304.079 44.9669C305.04 43.0925 306.787 43.6281 307.775 44.1404C307.819 40.1254 308.295 37.0613 308.295 37.0613C308.328 36.8457 308.398 36.6416 308.499 36.4491C310.495 32.8423 325.085 32.7048 328.044 36.0294C328.328 36.3362 328.499 36.6879 328.555 37.0613C328.555 37.0613 329 40.1399 329.01 44.1708C329.988 43.6498 331.783 43.0549 332.763 44.9669C334.131 47.6344 331.055 51.6059 328.458 51.4959C327.452 57.3896 324.798 62.8477 318.424 62.8477C311.927 62.8477 309.262 57.394 308.281 51.5017C305.707 51.5046 302.728 47.5996 304.079 44.9669Z" fill="#FE947C"/>
<path opacity="0.1" d="M311.146 50.6768C311.038 51.3237 311.743 51.9823 312.721 52.1473C313.699 52.3123 314.581 51.9215 314.689 51.2745C314.798 50.6275 314.095 49.9704 313.116 49.8054C312.138 49.639 311.256 50.0298 311.146 50.6768ZM325.746 50.6768C325.854 51.3237 325.15 51.9823 324.173 52.1473C323.194 52.3123 322.313 51.9215 322.204 51.2745C322.096 50.6275 322.799 49.9704 323.779 49.8054C324.756 49.639 325.637 50.0298 325.746 50.6768Z" fill="#171C80"/>
<path d="M321.387 56.1233L314.74 55.7672C314.74 55.7672 314.74 58.7719 318.171 58.9123C320.76 59.0166 321.387 56.1233 321.387 56.1233Z" fill="#EAEFEE"/>
<path opacity="0.1" d="M324.212 37.3624C313.482 42.4455 308.301 38.0209 308.17 37.9906C308.241 37.4 308.293 37.0613 308.293 37.0613C308.327 36.8457 308.396 36.6416 308.498 36.4491C310.493 32.8423 325.083 32.7048 328.043 36.0294C328.326 36.3362 328.497 36.6879 328.554 37.0613C328.554 37.0613 328.688 38.1888 328.788 39.2353C327.863 39.3916 325.487 39.1629 324.212 37.3624Z" fill="#171C80"/>
<path d="M325.183 35.3477C325.183 35.3477 316.563 39.8056 307.631 38.0109C298.699 36.2147 320.414 28.3714 325.656 30.9738C330.899 33.5747 330.032 39.6044 330.032 39.6044C330.032 39.6044 325.735 38.8388 325.183 35.3477ZM318.92 51.1935C319.275 50.3931 318.754 49.4856 318.731 49.4465C318.627 49.2685 318.399 49.2091 318.22 49.3119C318.04 49.4147 317.981 49.6434 318.084 49.8228C318.185 49.9994 318.395 50.5349 318.227 50.9112C318.095 51.1834 317.752 51.3599 317.21 51.4395C317.005 51.4699 316.862 51.6581 316.893 51.8636C316.923 52.0677 317.113 52.2095 317.317 52.1806C318.121 52.0634 318.654 51.7449 318.9 51.234C318.907 51.2195 318.915 51.2065 318.92 51.1935ZM311.909 46.3578C311.909 47.012 312.359 47.5403 312.911 47.5403C313.464 47.5403 313.914 47.012 313.914 46.3578C313.914 45.7036 313.464 45.1724 312.911 45.1724C312.756 45.1724 312.61 45.213 312.48 45.2926C312.675 45.3505 312.821 45.5618 312.821 45.8122C312.821 46.1074 312.617 46.3491 312.365 46.3491C312.181 46.3491 312.021 46.2174 311.95 46.0307C311.924 46.1364 311.909 46.2449 311.909 46.3578ZM322.209 46.2087C322.209 46.863 322.659 47.3913 323.21 47.3913C323.762 47.3913 324.212 46.863 324.212 46.2087C324.212 45.5545 323.762 45.0234 323.21 45.0234C323.055 45.0234 322.909 45.0639 322.778 45.142C322.973 45.1999 323.119 45.4113 323.119 45.6631C323.119 45.9584 322.915 46.2001 322.663 46.2001C322.479 46.2001 322.319 46.0684 322.248 45.8816C322.223 45.9859 322.209 46.0944 322.209 46.2087ZM304.877 47.287C304.804 47.287 304.735 47.2436 304.706 47.1713C304.083 45.5806 305.675 44.6398 305.691 44.6311C305.78 44.5805 305.89 44.6109 305.94 44.6977C305.991 44.7845 305.961 44.896 305.874 44.9466C305.82 44.9785 304.538 45.7427 305.044 47.0381C305.082 47.1322 305.034 47.2378 304.942 47.2755C304.92 47.2827 304.898 47.287 304.877 47.287ZM332.2 47.303C332.272 47.303 332.342 47.2595 332.369 47.1872C332.992 45.5965 331.4 44.6557 331.384 44.647C331.297 44.5964 331.185 44.6268 331.135 44.7136C331.084 44.8005 331.114 44.9119 331.201 44.9626C331.256 44.9944 332.537 45.7586 332.031 47.054C331.994 47.1481 332.041 47.2538 332.133 47.2899C332.154 47.2986 332.177 47.303 332.2 47.303ZM320.897 43.9653C320.897 43.9653 324.707 43.7743 325.09 43.398C325.474 43.0231 324.281 42.2314 322.602 42.6569C320.922 43.081 320.462 43.9523 320.897 43.9653ZM314.966 43.9653C314.966 43.9653 311.157 43.7743 310.773 43.398C310.39 43.0231 311.582 42.2314 313.261 42.6569C314.942 43.081 315.402 43.9523 314.966 43.9653Z" fill="#292C6C"/>
<path d="M274.792 14.2493V139.557H359.903V14.2493H274.792ZM351.629 85.0416H282.179V19.2674H351.629V85.0416Z" fill="#D6D9EA"/>
<path d="M272.37 118.909C271.863 119.441 271.267 119.862 270.614 120.192L270.606 120.191C269.462 120.781 268.145 121.064 266.853 121.074C264.101 121.094 261.357 119.945 259.436 117.966C256.672 115.102 255.824 110.921 255.411 106.959C254.088 94.2585 255.984 81.2321 260.884 69.4404C261.373 69.6373 261.853 69.824 262.343 70.0194C265.339 71.2091 268.335 72.3916 271.322 73.5799C271.326 73.6508 271.332 73.7131 271.337 73.7825C271.639 77.3952 274.804 90.7732 274.804 94.3989C274.804 102.504 274.804 105.379 274.804 109.013C274.803 112.463 274.761 116.416 272.37 118.909Z" fill="#171C80"/>
<path d="M271.322 73.5828C268.335 72.393 265.339 71.212 262.343 70.0222L262.395 69.8934C263.255 66.262 264.165 62.6522 265.11 59.0425C265.543 57.3983 266.023 55.6875 267.163 54.4283C268.5 52.9433 270.577 52.3122 272.564 52.2905C274.56 52.2775 276.514 52.8087 278.435 53.337C279.109 53.5179 279.81 53.7176 280.345 54.1634C280.881 54.6179 281.212 55.3937 280.927 56.0349C280.694 56.5487 279.976 56.7947 279.507 56.5472L279.426 56.7267C280.975 57.4258 282.453 58.2971 283.825 59.3016C284.195 59.5693 284.573 59.8646 284.786 60.2814C284.998 60.6896 284.991 61.2512 284.664 61.5667C284.366 61.8562 283.916 61.8822 283.512 61.875C282.176 61.8735 280.829 61.7679 279.514 61.5479C280.157 62.1138 282.18 61.9734 283.046 63.5785C283.444 66.4385 279.649 65.1605 279.296 65.0505C280.037 65.7279 280.721 66.4892 281.332 67.2997C281.56 67.6037 281.771 68.0379 281.526 68.3216C281.357 68.5141 281.057 68.5126 280.795 68.4981C278.529 68.3274 276.278 68.0524 274.042 67.6717C274.294 69.9195 273.268 72.2483 271.505 73.6551C271.442 73.6247 271.382 73.603 271.322 73.5828Z" fill="#FE947C"/>
<path opacity="0.1" d="M278.274 64.858C276.041 63.7204 273.689 62.8505 271.247 62.2831C270.701 62.1572 270.413 62.9866 270.963 63.1139C273.327 63.6625 275.624 64.486 277.786 65.5875C278.286 65.8422 278.776 65.1142 278.274 64.858ZM279.481 61.3409C277.424 60.5463 275.324 59.8704 273.189 59.316C272.645 59.1742 272.359 60.005 272.906 60.1468C275.041 60.7012 277.139 61.3771 279.197 62.1717C279.726 62.3758 280.008 61.5435 279.481 61.3409ZM280.128 56.8685C277.973 56.4734 275.819 56.0783 273.664 55.6831C273.43 55.6397 273.215 55.8785 273.199 56.0942C273.181 56.3547 273.379 56.5154 273.611 56.5588C275.766 56.9539 277.921 57.3491 280.074 57.7442C280.309 57.7876 280.523 57.5488 280.539 57.3331C280.558 57.0726 280.36 56.912 280.128 56.8685Z" fill="#171C80"/>
<path d="M374.676 77.4023C371.603 78.4097 368.545 79.4156 365.498 80.423C365.435 80.436 365.384 80.4606 365.32 80.4736C363.637 78.9698 362.746 76.586 363.128 74.3556C360.871 74.6104 358.616 74.7377 356.347 74.7768C356.092 74.7768 355.787 74.7638 355.62 74.5597C355.39 74.2659 355.633 73.8331 355.875 73.5523C356.538 72.7881 357.251 72.0746 358.029 71.4363C357.671 71.526 354.448 72.1397 353.956 70.6243C353.485 69.1755 357.366 68.4402 358.042 67.9177C356.716 68.0581 355.365 68.0827 354.04 68.0075C353.618 67.9814 353.173 67.9308 352.905 67.6254C352.586 67.2939 352.624 66.7338 352.854 66.3386C353.084 65.9435 353.478 65.6627 353.875 65.408C355.302 64.4904 356.819 63.7131 358.412 63.1009L358.348 62.9344C357.864 63.1515 357.163 62.8577 356.959 62.3222C356.716 61.6723 357.086 60.9067 357.646 60.5C358.208 60.0788 358.922 59.9268 359.609 59.7734C360.489 59.5823 361.381 59.4043 362.274 59.2639C363.356 59.0975 364.44 59.0222 365.524 59.0975C367.526 59.2248 369.553 59.989 370.789 61.545C371.86 62.8708 372.229 64.6032 372.56 66.2735C373.3 69.931 373.987 73.603 374.626 77.2735L374.676 77.4023Z" fill="#FE947C"/>
<path d="M379.382 114.692C378.732 118.615 377.636 122.737 374.705 125.43C374.31 125.791 373.889 126.124 373.442 126.413C371.591 127.632 369.336 128.247 367.125 128.089C366.318 128.037 365.503 127.879 364.73 127.59C363.65 126.888 362.537 126.063 361.405 125.168C359.554 122.563 359.903 119.017 359.903 119.017V101.783C359.903 101.783 364.756 85.5105 365.467 80.6068L365.493 80.423C368.545 79.4142 371.608 78.4053 374.671 77.4052C375.171 77.2388 375.662 77.081 376.161 76.9146C380.347 88.9769 381.46 102.093 379.382 114.692Z" fill="#171C80"/>
<path opacity="0.1" d="M366.413 68.7818C363.877 69.1176 361.389 69.6995 358.975 70.5462C358.445 70.7314 358.674 71.5796 359.208 71.3914C361.544 70.5737 363.958 69.9846 366.413 69.6589C366.649 69.6271 366.849 69.4795 366.852 69.2204C366.853 69.0076 366.648 68.75 366.413 68.7818ZM365.315 65.4862C362.915 65.6787 360.587 66.2735 358.386 67.2476C357.871 67.4763 358.317 68.2318 358.829 68.0046C360.878 67.0971 363.081 66.5413 365.315 66.3633C365.873 66.3184 365.878 65.4413 365.315 65.4862ZM363.85 61.2628C362.062 61.6521 360.273 62.04 358.486 62.4293C357.934 62.5495 358.167 63.3947 358.719 63.276C360.506 62.8867 362.295 62.4988 364.083 62.1095C364.636 61.9879 364.401 61.1426 363.85 61.2628Z" fill="#171C80"/>
<path d="M290.83 112H288.273L291.153 103.273H294.392L297.273 112H294.716L292.807 105.676H292.739L290.83 112ZM290.352 108.557H295.159V110.33H290.352V108.557ZM298.113 112V103.273H301.897C302.562 103.273 303.12 103.362 303.572 103.541C304.027 103.72 304.369 103.973 304.599 104.3C304.832 104.626 304.949 105.011 304.949 105.455C304.949 105.776 304.877 106.068 304.735 106.332C304.596 106.597 304.4 106.818 304.147 106.997C303.895 107.173 303.599 107.295 303.261 107.364V107.449C303.636 107.463 303.977 107.558 304.284 107.734C304.591 107.908 304.835 108.148 305.017 108.455C305.199 108.759 305.289 109.116 305.289 109.528C305.289 110.006 305.164 110.43 304.914 110.803C304.667 111.175 304.315 111.467 303.858 111.68C303.4 111.893 302.855 112 302.221 112H298.113ZM300.483 110.108H301.591C301.988 110.108 302.287 110.034 302.485 109.886C302.684 109.736 302.784 109.514 302.784 109.222C302.784 109.017 302.737 108.844 302.643 108.702C302.549 108.56 302.416 108.452 302.243 108.378C302.072 108.304 301.866 108.267 301.625 108.267H300.483V110.108ZM300.483 106.801H301.454C301.662 106.801 301.845 106.768 302.004 106.703C302.163 106.638 302.287 106.544 302.375 106.422C302.466 106.297 302.511 106.145 302.511 105.966C302.511 105.696 302.414 105.49 302.221 105.348C302.028 105.203 301.784 105.131 301.488 105.131H300.483V106.801ZM314.583 107.636C314.583 108.608 314.395 109.428 314.017 110.095C313.639 110.76 313.129 111.264 312.487 111.608C311.845 111.949 311.129 112.119 310.339 112.119C309.544 112.119 308.825 111.947 308.183 111.604C307.544 111.257 307.035 110.751 306.657 110.087C306.282 109.419 306.095 108.602 306.095 107.636C306.095 106.665 306.282 105.847 306.657 105.182C307.035 104.514 307.544 104.01 308.183 103.669C308.825 103.325 309.544 103.153 310.339 103.153C311.129 103.153 311.845 103.325 312.487 103.669C313.129 104.01 313.639 104.514 314.017 105.182C314.395 105.847 314.583 106.665 314.583 107.636ZM312.146 107.636C312.146 107.114 312.076 106.673 311.937 106.315C311.801 105.955 311.598 105.682 311.328 105.497C311.061 105.31 310.731 105.216 310.339 105.216C309.947 105.216 309.616 105.31 309.346 105.497C309.079 105.682 308.876 105.955 308.737 106.315C308.6 106.673 308.532 107.114 308.532 107.636C308.532 108.159 308.6 108.601 308.737 108.962C308.876 109.32 309.079 109.592 309.346 109.78C309.616 109.964 309.947 110.057 310.339 110.057C310.731 110.057 311.061 109.964 311.328 109.78C311.598 109.592 311.801 109.32 311.937 108.962C312.076 108.601 312.146 108.159 312.146 107.636ZM320.844 103.273H323.214V108.864C323.214 109.528 323.055 110.104 322.737 110.589C322.421 111.072 321.981 111.446 321.415 111.71C320.85 111.972 320.194 112.102 319.447 112.102C318.694 112.102 318.035 111.972 317.469 111.71C316.904 111.446 316.464 111.072 316.148 110.589C315.836 110.104 315.68 109.528 315.68 108.864V103.273H318.049V108.659C318.049 108.929 318.109 109.17 318.228 109.384C318.347 109.594 318.512 109.759 318.722 109.878C318.935 109.997 319.177 110.057 319.447 110.057C319.719 110.057 319.961 109.997 320.171 109.878C320.381 109.759 320.546 109.594 320.665 109.384C320.785 109.17 320.844 108.929 320.844 108.659V103.273ZM324.101 105.182V103.273H331.686V105.182H329.061V112H326.726V105.182H324.101ZM340.134 103.273H342.503V108.864C342.503 109.528 342.344 110.104 342.026 110.589C341.71 111.072 341.27 111.446 340.705 111.71C340.139 111.972 339.483 112.102 338.736 112.102C337.983 112.102 337.324 111.972 336.759 111.71C336.193 111.446 335.753 111.072 335.438 110.589C335.125 110.104 334.969 109.528 334.969 108.864V103.273H337.338V108.659C337.338 108.929 337.398 109.17 337.517 109.384C337.636 109.594 337.801 109.759 338.011 109.878C338.224 109.997 338.466 110.057 338.736 110.057C339.009 110.057 339.25 109.997 339.46 109.878C339.67 109.759 339.835 109.594 339.955 109.384C340.074 109.17 340.134 108.929 340.134 108.659V103.273ZM348.333 106C348.311 105.716 348.204 105.494 348.014 105.335C347.826 105.176 347.541 105.097 347.157 105.097C346.913 105.097 346.713 105.126 346.556 105.186C346.403 105.243 346.289 105.321 346.216 105.42C346.142 105.52 346.103 105.634 346.1 105.761C346.095 105.866 346.113 105.962 346.156 106.047C346.201 106.129 346.272 106.205 346.369 106.273C346.466 106.338 346.589 106.398 346.74 106.452C346.89 106.506 347.069 106.554 347.277 106.597L347.993 106.75C348.475 106.852 348.889 106.987 349.233 107.155C349.576 107.322 349.858 107.52 350.076 107.747C350.295 107.972 350.456 108.224 350.558 108.506C350.663 108.787 350.717 109.094 350.72 109.426C350.717 110 350.574 110.486 350.289 110.884C350.005 111.281 349.599 111.584 349.071 111.791C348.545 111.999 347.913 112.102 347.174 112.102C346.416 112.102 345.754 111.99 345.189 111.766C344.626 111.541 344.189 111.196 343.876 110.73C343.566 110.261 343.41 109.662 343.407 108.932H345.657C345.672 109.199 345.738 109.423 345.858 109.605C345.977 109.787 346.145 109.925 346.36 110.018C346.579 110.112 346.839 110.159 347.14 110.159C347.393 110.159 347.605 110.128 347.775 110.065C347.946 110.003 348.075 109.916 348.163 109.805C348.251 109.695 348.297 109.568 348.299 109.426C348.297 109.293 348.252 109.176 348.167 109.077C348.085 108.974 347.949 108.884 347.758 108.804C347.568 108.722 347.311 108.645 346.987 108.574L346.118 108.386C345.345 108.219 344.735 107.939 344.289 107.547C343.846 107.152 343.626 106.614 343.629 105.932C343.626 105.378 343.774 104.893 344.072 104.479C344.373 104.061 344.789 103.736 345.321 103.503C345.855 103.27 346.467 103.153 347.157 103.153C347.862 103.153 348.471 103.271 348.985 103.507C349.5 103.743 349.896 104.075 350.174 104.504C350.456 104.93 350.598 105.429 350.6 106H348.333Z" fill="black" fill-opacity="0.14"/>
</svg>
