<svg width="500" height="500" viewBox="0 0 500 500" fill="none" xmlns="http://www.w3.org/2000/svg">
<path d="M244.006 493.951C244.006 497.29 246.711 500 250.055 500C253.393 500 256.098 497.29 256.098 493.951C256.098 490.612 253.393 487.908 250.055 487.908C246.711 487.908 244.006 490.612 244.006 493.951Z" fill="#424242"/>
<path d="M244.006 493.951C244.006 497.29 246.711 500 250.055 500C253.393 500 256.098 497.29 256.098 493.951C256.098 490.612 253.393 487.908 250.055 487.908C246.711 487.908 244.006 490.612 244.006 493.951Z" fill="#424242"/>
<path d="M195.227 493.951C195.227 497.29 197.937 500 201.27 500C204.614 500 207.319 497.29 207.319 493.951C207.319 490.612 204.614 487.908 201.27 487.908C197.937 487.908 195.227 490.612 195.227 493.951Z" fill="#424242"/>
<path d="M195.227 493.951C195.227 497.29 197.937 500 201.27 500C204.614 500 207.319 497.29 207.319 493.951C207.319 490.612 204.614 487.908 201.27 487.908C197.937 487.908 195.227 490.612 195.227 493.951Z" fill="#424242"/>
<path d="M146.444 493.951C146.444 497.29 149.149 500 152.493 500C155.832 500 158.536 497.29 158.536 493.951C158.536 490.612 155.832 487.908 152.493 487.908C149.149 487.908 146.444 490.612 146.444 493.951Z" fill="#424242"/>
<path d="M146.444 493.951C146.444 497.29 149.149 500 152.493 500C155.832 500 158.536 497.29 158.536 493.951C158.536 490.612 155.832 487.908 152.493 487.908C149.149 487.908 146.444 490.612 146.444 493.951Z" fill="#424242"/>
<path d="M97.665 493.951C97.665 497.29 100.375 500 103.708 500C107.047 500 109.757 497.29 109.757 493.951C109.757 490.612 107.047 487.908 103.708 487.908C100.375 487.908 97.665 490.612 97.665 493.951Z" fill="#424242"/>
<path d="M97.665 493.951C97.665 497.29 100.375 500 103.708 500C107.047 500 109.757 497.29 109.757 493.951C109.757 490.612 107.047 487.908 103.708 487.908C100.375 487.908 97.665 490.612 97.665 493.951Z" fill="#424242"/>
<path d="M48.8838 493.951C48.8838 497.29 51.5884 500 54.9272 500C58.2714 500 60.9759 497.29 60.9759 493.951C60.9759 490.612 58.2714 487.908 54.9272 487.908C51.5884 487.908 48.8838 490.612 48.8838 493.951Z" fill="#424242"/>
<path d="M48.7812 493.951C48.7812 497.29 51.4859 500 54.8246 500C58.1688 500 60.8734 497.29 60.8734 493.951C60.8734 490.612 58.1688 487.908 54.8246 487.908C51.4859 487.908 48.7812 490.612 48.7812 493.951Z" fill="#424242"/>
<path d="M0.104492 493.951C0.104492 497.29 2.80913 500 6.14788 500C9.48664 500 12.1966 497.29 12.1966 493.951C12.1966 490.612 9.48664 487.908 6.14788 487.908C2.80913 487.908 0.104492 490.612 0.104492 493.951Z" fill="#424242"/>
<path d="M0.104492 493.951C0.104492 497.29 2.80913 500 6.14788 500C9.48664 500 12.1966 497.29 12.1966 493.951C12.1966 490.612 9.48664 487.908 6.14788 487.908C2.80913 487.908 0.104492 490.612 0.104492 493.951Z" fill="#424242"/>
<path d="M487.909 493.957C487.909 497.295 490.614 500 493.958 500C497.297 500 500.001 497.295 500.001 493.957C500.001 490.618 497.297 487.913 493.958 487.913C490.614 487.913 487.909 490.618 487.909 493.957Z" fill="#424242"/>
<path d="M487.909 493.957C487.909 497.295 490.614 500 493.958 500C497.297 500 500.001 497.295 500.001 493.957C500.001 490.618 497.297 487.913 493.958 487.913C490.614 487.913 487.909 490.618 487.909 493.957Z" fill="#424242"/>
<path d="M439.128 493.957C439.128 497.295 441.838 500 445.171 500C448.515 500 451.22 497.295 451.22 493.957C451.22 490.618 448.515 487.913 445.171 487.913C441.838 487.913 439.128 490.618 439.128 493.957Z" fill="#424242"/>
<path d="M439.128 493.957C439.128 497.295 441.838 500 445.171 500C448.515 500 451.22 497.295 451.22 493.957C451.22 490.618 448.515 487.913 445.171 487.913C441.838 487.913 439.128 490.618 439.128 493.957Z" fill="#424242"/>
<path d="M390.347 493.957C390.347 497.295 393.051 500 396.395 500C399.734 500 402.439 497.295 402.439 493.957C402.439 490.618 399.734 487.913 396.395 487.913C393.051 487.913 390.347 490.618 390.347 493.957Z" fill="#424242"/>
<path d="M390.347 493.957C390.347 497.295 393.051 500 396.395 500C399.734 500 402.439 497.295 402.439 493.957C402.439 490.618 399.734 487.913 396.395 487.913C393.051 487.913 390.347 490.618 390.347 493.957Z" fill="#424242"/>
<path d="M341.566 493.957C341.566 497.295 344.276 500 347.61 500C350.948 500 353.658 497.295 353.658 493.957C353.658 490.618 350.948 487.913 347.61 487.913C344.276 487.913 341.566 490.618 341.566 493.957Z" fill="#424242"/>
<path d="M341.566 493.957C341.566 497.295 344.276 500 347.61 500C350.948 500 353.658 497.295 353.658 493.957C353.658 490.618 350.948 487.913 347.61 487.913C344.276 487.913 341.566 490.618 341.566 493.957Z" fill="#424242"/>
<path d="M292.787 493.957C292.787 497.295 295.492 500 298.83 500C302.175 500 304.879 497.295 304.879 493.957C304.879 490.618 302.175 487.913 298.83 487.913C295.492 487.913 292.787 490.618 292.787 493.957Z" fill="#424242"/>
<path d="M292.787 493.957C292.787 497.295 295.492 500 298.83 500C302.175 500 304.879 497.295 304.879 493.957C304.879 490.618 302.175 487.913 298.83 487.913C295.492 487.913 292.787 490.618 292.787 493.957Z" fill="#424242"/>
<path d="M244.006 445.172C244.006 448.511 246.711 451.221 250.055 451.221C253.393 451.221 256.098 448.511 256.098 445.172C256.098 441.833 253.393 439.129 250.055 439.129C246.711 439.129 244.006 441.833 244.006 445.172Z" fill="#424242"/>
<path d="M244.006 445.172C244.006 448.511 246.711 451.221 250.055 451.221C253.393 451.221 256.098 448.511 256.098 445.172C256.098 441.833 253.393 439.129 250.055 439.129C246.711 439.129 244.006 441.833 244.006 445.172Z" fill="#424242"/>
<path d="M195.225 445.172C195.225 448.511 197.935 451.221 201.268 451.221C204.612 451.221 207.317 448.511 207.317 445.172C207.317 441.833 204.612 439.129 201.268 439.129C197.935 439.129 195.225 441.833 195.225 445.172Z" fill="#424242"/>
<path d="M195.225 445.172C195.225 448.511 197.935 451.221 201.268 451.221C204.612 451.221 207.317 448.511 207.317 445.172C207.317 441.833 204.612 439.129 201.268 439.129C197.935 439.129 195.225 441.833 195.225 445.172Z" fill="#424242"/>
<path d="M146.444 445.172C146.444 448.511 149.149 451.221 152.493 451.221C155.832 451.221 158.536 448.511 158.536 445.172C158.536 441.833 155.832 439.129 152.493 439.129C149.149 439.129 146.444 441.833 146.444 445.172Z" fill="#424242"/>
<path d="M146.444 445.172C146.444 448.511 149.149 451.221 152.493 451.221C155.832 451.221 158.536 448.511 158.536 445.172C158.536 441.833 155.832 439.129 152.493 439.129C149.149 439.129 146.444 441.833 146.444 445.172Z" fill="#424242"/>
<path d="M97.665 445.172C97.665 448.511 100.375 451.221 103.708 451.221C107.047 451.221 109.757 448.511 109.757 445.172C109.757 441.833 107.047 439.129 103.708 439.129C100.375 439.129 97.665 441.833 97.665 445.172Z" fill="#424242"/>
<path d="M97.665 445.172C97.665 448.511 100.375 451.221 103.708 451.221C107.047 451.221 109.757 448.511 109.757 445.172C109.757 441.833 107.047 439.129 103.708 439.129C100.375 439.129 97.665 441.833 97.665 445.172Z" fill="#424242"/>
<path d="M48.8838 445.172C48.8838 448.511 51.5884 451.221 54.9272 451.221C58.2714 451.221 60.9759 448.511 60.9759 445.172C60.9759 441.833 58.2714 439.129 54.9272 439.129C51.5884 439.129 48.8838 441.833 48.8838 445.172Z" fill="#424242"/>
<path d="M48.7812 445.172C48.7812 448.511 51.4859 451.221 54.8246 451.221C58.1688 451.221 60.8734 448.511 60.8734 445.172C60.8734 441.833 58.1688 439.129 54.8246 439.129C51.4859 439.129 48.7812 441.833 48.7812 445.172Z" fill="#424242"/>
<path d="M0.102539 445.172C0.102539 448.511 2.80718 451.221 6.14593 451.221C9.48468 451.221 12.1947 448.511 12.1947 445.172C12.1947 441.833 9.48468 439.129 6.14593 439.129C2.80718 439.129 0.102539 441.833 0.102539 445.172Z" fill="#424242"/>
<path d="M0.102539 445.172C0.102539 448.511 2.80718 451.221 6.14593 451.221C9.48468 451.221 12.1947 448.511 12.1947 445.172C12.1947 441.833 9.48468 439.129 6.14593 439.129C2.80718 439.129 0.102539 441.833 0.102539 445.172Z" fill="#424242"/>
<path d="M487.909 445.177C487.909 448.516 490.614 451.221 493.958 451.221C497.297 451.221 500.001 448.516 500.001 445.177C500.001 441.838 497.297 439.134 493.958 439.134C490.614 439.134 487.909 441.838 487.909 445.177Z" fill="#424242"/>
<path d="M487.909 445.177C487.909 448.516 490.614 451.221 493.958 451.221C497.297 451.221 500.001 448.516 500.001 445.177C500.001 441.838 497.297 439.134 493.958 439.134C490.614 439.134 487.909 441.838 487.909 445.177Z" fill="#424242"/>
<path d="M439.128 445.177C439.128 448.516 441.838 451.221 445.171 451.221C448.515 451.221 451.22 448.516 451.22 445.177C451.22 441.838 448.515 439.134 445.171 439.134C441.838 439.134 439.128 441.838 439.128 445.177Z" fill="#424242"/>
<path d="M439.128 445.177C439.128 448.516 441.838 451.221 445.171 451.221C448.515 451.221 451.22 448.516 451.22 445.177C451.22 441.838 448.515 439.134 445.171 439.134C441.838 439.134 439.128 441.838 439.128 445.177Z" fill="#424242"/>
<path d="M390.347 445.177C390.347 448.516 393.051 451.221 396.395 451.221C399.734 451.221 402.439 448.516 402.439 445.177C402.439 441.838 399.734 439.134 396.395 439.134C393.051 439.134 390.347 441.838 390.347 445.177Z" fill="#424242"/>
<path d="M390.347 445.177C390.347 448.516 393.051 451.221 396.395 451.221C399.734 451.221 402.439 448.516 402.439 445.177C402.439 441.838 399.734 439.134 396.395 439.134C393.051 439.134 390.347 441.838 390.347 445.177Z" fill="#424242"/>
<path d="M341.566 445.177C341.566 448.516 344.276 451.221 347.61 451.221C350.948 451.221 353.658 448.516 353.658 445.177C353.658 441.838 350.948 439.134 347.61 439.134C344.276 439.134 341.566 441.838 341.566 445.177Z" fill="#424242"/>
<path d="M341.566 445.177C341.566 448.516 344.276 451.221 347.61 451.221C350.948 451.221 353.658 448.516 353.658 445.177C353.658 441.838 350.948 439.134 347.61 439.134C344.276 439.134 341.566 441.838 341.566 445.177Z" fill="#424242"/>
<path d="M292.787 445.177C292.787 448.516 295.492 451.221 298.83 451.221C302.175 451.221 304.879 448.516 304.879 445.177C304.879 441.838 302.175 439.134 298.83 439.134C295.492 439.134 292.787 441.838 292.787 445.177Z" fill="#424242"/>
<path d="M292.787 445.177C292.787 448.516 295.492 451.221 298.83 451.221C302.175 451.221 304.879 448.516 304.879 445.177C304.879 441.838 302.175 439.134 298.83 439.134C295.492 439.134 292.787 441.838 292.787 445.177Z" fill="#424242"/>
<path d="M6.04877 244.005C2.71001 244.005 0 246.71 0 250.054C0 253.393 2.71001 256.098 6.04877 256.098C9.38752 256.098 12.0921 253.393 12.0921 250.054C12.0921 246.71 9.38752 244.005 6.04877 244.005Z" fill="#424242"/>
<path d="M6.04877 244.005C2.71001 244.005 0 246.71 0 250.054C0 253.393 2.71001 256.098 6.04877 256.098C9.38752 256.098 12.0921 253.393 12.0921 250.054C12.0921 246.71 9.38752 244.005 6.04877 244.005Z" fill="#424242"/>
<path d="M6.04877 195.225C2.71001 195.225 0 197.935 0 201.268C0 204.612 2.71001 207.317 6.04877 207.317C9.38752 207.317 12.0921 204.612 12.0921 201.268C12.0921 197.935 9.38752 195.225 6.04877 195.225Z" fill="#424242"/>
<path d="M6.04877 195.225C2.71001 195.225 0 197.935 0 201.268C0 204.612 2.71001 207.317 6.04877 207.317C9.38752 207.317 12.0921 204.612 12.0921 201.268C12.0921 197.935 9.38752 195.225 6.04877 195.225Z" fill="#424242"/>
<path d="M6.04877 146.445C2.71001 146.445 0 149.15 0 152.494C0 155.833 2.71001 158.537 6.04877 158.537C9.38752 158.537 12.0921 155.833 12.0921 152.494C12.0921 149.15 9.38752 146.445 6.04877 146.445Z" fill="#424242"/>
<path d="M6.04877 146.445C2.71001 146.445 0 149.15 0 152.494C0 155.833 2.71001 158.537 6.04877 158.537C9.38752 158.537 12.0921 155.833 12.0921 152.494C12.0921 149.15 9.38752 146.445 6.04877 146.445Z" fill="#424242"/>
<path d="M6.04877 97.6641C2.71001 97.6641 0 100.374 0 103.707C0 107.046 2.71001 109.756 6.04877 109.756C9.38752 109.756 12.0921 107.046 12.0921 103.707C12.0921 100.374 9.38752 97.6641 6.04877 97.6641Z" fill="#424242"/>
<path d="M6.04877 97.6641C2.71001 97.6641 0 100.374 0 103.707C0 107.046 2.71001 109.756 6.04877 109.756C9.38752 109.756 12.0921 107.046 12.0921 103.707C12.0921 100.374 9.38752 97.6641 6.04877 97.6641Z" fill="#424242"/>
<path d="M6.04877 48.8823C2.71001 48.8823 0 51.587 0 54.9257C0 58.2699 2.71001 60.9745 6.04877 60.9745C9.38752 60.9745 12.0921 58.2699 12.0921 54.9257C12.0921 51.587 9.38752 48.8823 6.04877 48.8823Z" fill="#424242"/>
<path d="M6.04877 48.8823C2.71001 48.8823 0 51.587 0 54.9257C0 58.2699 2.71001 60.9745 6.04877 60.9745C9.38752 60.9745 12.0921 58.2699 12.0921 54.9257C12.0921 51.587 9.38752 48.8823 6.04877 48.8823Z" fill="#424242"/>
<path d="M6.04877 0.103027C2.71001 0.103027 0 2.80766 0 6.14642C0 9.48517 2.71001 12.1952 6.04877 12.1952C9.38752 12.1952 12.0921 9.48517 12.0921 6.14642C12.0921 2.80766 9.38752 0.103027 6.04877 0.103027Z" fill="#424242"/>
<path d="M6.04877 0.103027C2.71001 0.103027 0 2.80766 0 6.14642C0 9.48517 2.71001 12.1952 6.04877 12.1952C9.38752 12.1952 12.0921 9.48517 12.0921 6.14642C12.0921 2.80766 9.38752 0.103027 6.04877 0.103027Z" fill="#424242"/>
<path d="M6.04347 487.908C2.70472 487.908 0 490.613 0 493.957C0 497.296 2.70472 500 6.04347 500C9.38223 500 12.0868 497.296 12.0868 493.957C12.0868 490.613 9.38223 487.908 6.04347 487.908Z" fill="#424242"/>
<path d="M6.04347 487.908C2.70472 487.908 0 490.613 0 493.957C0 497.296 2.70472 500 6.04347 500C9.38223 500 12.0868 497.296 12.0868 493.957C12.0868 490.613 9.38223 487.908 6.04347 487.908Z" fill="#424242"/>
<path d="M6.04347 439.126C2.70472 439.126 0 441.837 0 445.17C0 448.514 2.70472 451.219 6.04347 451.219C9.38223 451.219 12.0868 448.514 12.0868 445.17C12.0868 441.837 9.38223 439.126 6.04347 439.126Z" fill="#424242"/>
<path d="M6.04347 439.126C2.70472 439.126 0 441.837 0 445.17C0 448.514 2.70472 451.219 6.04347 451.219C9.38223 451.219 12.0868 448.514 12.0868 445.17C12.0868 441.837 9.38223 439.126 6.04347 439.126Z" fill="#424242"/>
<path d="M6.04347 390.347C2.70472 390.347 0 393.052 0 396.396C0 399.735 2.70472 402.439 6.04347 402.439C9.38223 402.439 12.0868 399.735 12.0868 396.396C12.0868 393.052 9.38223 390.347 6.04347 390.347Z" fill="#424242"/>
<path d="M6.04347 390.347C2.70472 390.347 0 393.052 0 396.396C0 399.735 2.70472 402.439 6.04347 402.439C9.38223 402.439 12.0868 399.735 12.0868 396.396C12.0868 393.052 9.38223 390.347 6.04347 390.347Z" fill="#424242"/>
<path d="M6.04347 341.566C2.70472 341.566 0 344.276 0 347.61C0 350.948 2.70472 353.658 6.04347 353.658C9.38223 353.658 12.0868 350.948 12.0868 347.61C12.0868 344.276 9.38223 341.566 6.04347 341.566Z" fill="#424242"/>
<path d="M6.04347 341.566C2.70472 341.566 0 344.276 0 347.61C0 350.948 2.70472 353.658 6.04347 353.658C9.38223 353.658 12.0868 350.948 12.0868 347.61C12.0868 344.276 9.38223 341.566 6.04347 341.566Z" fill="#424242"/>
<path d="M6.04347 292.787C2.70472 292.787 0 295.492 0 298.831C0 302.175 2.70472 304.879 6.04347 304.879C9.38223 304.879 12.0868 302.175 12.0868 298.831C12.0868 295.492 9.38223 292.787 6.04347 292.787Z" fill="#424242"/>
<path d="M6.04347 292.787C2.70472 292.787 0 295.492 0 298.831C0 302.175 2.70472 304.879 6.04347 304.879C9.38223 304.879 12.0868 302.175 12.0868 298.831C12.0868 295.492 9.38223 292.787 6.04347 292.787Z" fill="#424242"/>
<path d="M54.83 244.005C51.4913 244.005 48.7812 246.71 48.7812 250.054C48.7812 253.393 51.4913 256.098 54.83 256.098C58.1688 256.098 60.8733 253.393 60.8733 250.054C60.8733 246.71 58.1688 244.005 54.83 244.005Z" fill="#424242"/>
<path d="M54.83 244.005C51.4913 244.005 48.7812 246.71 48.7812 250.054C48.7812 253.393 51.4913 256.098 54.83 256.098C58.1688 256.098 60.8733 253.393 60.8733 250.054C60.8733 246.71 58.1688 244.005 54.83 244.005Z" fill="#424242"/>
<path d="M54.83 195.225C51.4913 195.225 48.7812 197.935 48.7812 201.268C48.7812 204.612 51.4913 207.317 54.83 207.317C58.1688 207.317 60.8733 204.612 60.8733 201.268C60.8733 197.935 58.1688 195.225 54.83 195.225Z" fill="#424242"/>
<path d="M54.83 195.225C51.4913 195.225 48.7812 197.935 48.7812 201.268C48.7812 204.612 51.4913 207.317 54.83 207.317C58.1688 207.317 60.8733 204.612 60.8733 201.268C60.8733 197.935 58.1688 195.225 54.83 195.225Z" fill="#424242"/>
<path d="M54.83 146.445C51.4913 146.445 48.7812 149.15 48.7812 152.494C48.7812 155.833 51.4913 158.537 54.83 158.537C58.1688 158.537 60.8733 155.833 60.8733 152.494C60.8733 149.15 58.1688 146.445 54.83 146.445Z" fill="#424242"/>
<path d="M54.83 146.445C51.4913 146.445 48.7812 149.15 48.7812 152.494C48.7812 155.833 51.4913 158.537 54.83 158.537C58.1688 158.537 60.8733 155.833 60.8733 152.494C60.8733 149.15 58.1688 146.445 54.83 146.445Z" fill="#424242"/>
<path d="M54.83 97.6641C51.4913 97.6641 48.7812 100.374 48.7812 103.707C48.7812 107.046 51.4913 109.756 54.83 109.756C58.1688 109.756 60.8733 107.046 60.8733 103.707C60.8733 100.374 58.1688 97.6641 54.83 97.6641Z" fill="#424242"/>
<path d="M54.83 97.6641C51.4913 97.6641 48.7812 100.374 48.7812 103.707C48.7812 107.046 51.4913 109.756 54.83 109.756C58.1688 109.756 60.8733 107.046 60.8733 103.707C60.8733 100.374 58.1688 97.6641 54.83 97.6641Z" fill="#424242"/>
<path d="M54.83 48.8823C51.4913 48.8823 48.7812 51.587 48.7812 54.9257C48.7812 58.2699 51.4913 60.9745 54.83 60.9745C58.1688 60.9745 60.8733 58.2699 60.8733 54.9257C60.8733 51.587 58.1688 48.8823 54.83 48.8823Z" fill="#424242"/>
<path d="M54.83 48.8823C51.4913 48.8823 48.7812 51.587 48.7812 54.9257C48.7812 58.2699 51.4913 60.9745 54.83 60.9745C58.1688 60.9745 60.8733 58.2699 60.8733 54.9257C60.8733 51.587 58.1688 48.8823 54.83 48.8823Z" fill="#424242"/>
<path d="M54.83 0.103027C51.4913 0.103027 48.7812 2.80766 48.7812 6.14642C48.7812 9.48517 51.4913 12.1952 54.83 12.1952C58.1688 12.1952 60.8733 9.48517 60.8733 6.14642C60.8733 2.80766 58.1688 0.103027 54.83 0.103027Z" fill="#424242"/>
<path d="M54.83 0.103027C51.4913 0.103027 48.7812 2.80766 48.7812 6.14642C48.7812 9.48517 51.4913 12.1952 54.83 12.1952C58.1688 12.1952 60.8733 9.48517 60.8733 6.14642C60.8733 2.80766 58.1688 0.103027 54.83 0.103027Z" fill="#424242"/>
<path d="M54.8247 487.908C51.486 487.908 48.7812 490.613 48.7812 493.957C48.7812 497.296 51.486 500 54.8247 500C58.1635 500 60.868 497.296 60.868 493.957C60.868 490.613 58.1635 487.908 54.8247 487.908Z" fill="#424242"/>
<path d="M54.8247 487.908C51.486 487.908 48.7812 490.613 48.7812 493.957C48.7812 497.296 51.486 500 54.8247 500C58.1635 500 60.868 497.296 60.868 493.957C60.868 490.613 58.1635 487.908 54.8247 487.908Z" fill="#424242"/>
<path d="M54.8247 439.126C51.486 439.126 48.7812 441.837 48.7812 445.17C48.7812 448.514 51.486 451.219 54.8247 451.219C58.1635 451.219 60.868 448.514 60.868 445.17C60.868 441.837 58.1635 439.126 54.8247 439.126Z" fill="#424242"/>
<path d="M54.8247 439.023C51.486 439.023 48.7812 441.733 48.7812 445.067C48.7812 448.411 51.486 451.116 54.8247 451.116C58.1635 451.116 60.868 448.411 60.868 445.067C60.868 441.733 58.1635 439.023 54.8247 439.023Z" fill="#424242"/>
<path d="M54.8247 390.347C51.486 390.347 48.7812 393.052 48.7812 396.396C48.7812 399.735 51.486 402.439 54.8247 402.439C58.1635 402.439 60.868 399.735 60.868 396.396C60.868 393.052 58.1635 390.347 54.8247 390.347Z" fill="#424242"/>
<path d="M54.8247 390.347C51.486 390.347 48.7812 393.052 48.7812 396.396C48.7812 399.735 51.486 402.439 54.8247 402.439C58.1635 402.439 60.868 399.735 60.868 396.396C60.868 393.052 58.1635 390.347 54.8247 390.347Z" fill="#424242"/>
<path d="M54.8247 341.566C51.486 341.566 48.7812 344.276 48.7812 347.61C48.7812 350.948 51.486 353.658 54.8247 353.658C58.1635 353.658 60.868 350.948 60.868 347.61C60.868 344.276 58.1635 341.566 54.8247 341.566Z" fill="#424242"/>
<path d="M54.8247 341.566C51.486 341.566 48.7812 344.276 48.7812 347.61C48.7812 350.948 51.486 353.658 54.8247 353.658C58.1635 353.658 60.868 350.948 60.868 347.61C60.868 344.276 58.1635 341.566 54.8247 341.566Z" fill="#424242"/>
<path d="M54.8247 292.787C51.486 292.787 48.7812 295.492 48.7812 298.831C48.7812 302.175 51.486 304.879 54.8247 304.879C58.1635 304.879 60.868 302.175 60.868 298.831C60.868 295.492 58.1635 292.787 54.8247 292.787Z" fill="#424242"/>
<path d="M54.8247 292.787C51.486 292.787 48.7812 295.492 48.7812 298.831C48.7812 302.175 51.486 304.879 54.8247 304.879C58.1635 304.879 60.868 302.175 60.868 298.831C60.868 295.492 58.1635 292.787 54.8247 292.787Z" fill="#424242"/>
</svg>
