<svg width="2538" height="2441" viewBox="0 0 2538 2441" fill="none" xmlns="http://www.w3.org/2000/svg">
<path d="M925.608 4.80432L2477.93 0.670852C2512.67 0.670852 2539.92 25.1641 2536.84 53.6041L2445.93 1506.4C2443.23 1531.48 2417.67 1550.71 2387.04 1550.71L2318.93 1550.7L2304.8 1543.38L354.968 1550.44C320.243 1550.44 292.642 1523.42 295.719 1494.98L386.646 49.111C389.36 24.031 413.936 2.08426 444.56 2.08426L925.608 4.80432Z" fill="#10C469"/>
<path d="M860.508 5.76794H2408.71C2443.35 5.76794 2470.54 30.2479 2467.46 58.6746L2377.34 1505.94C2374.63 1531.01 2349.14 1550.23 2318.58 1550.23H291.504C256.864 1550.23 229.683 1525.75 232.752 1497.33L322.882 50.0613C325.59 24.9946 351.083 5.76794 381.634 5.76794H860.508Z" fill="white"/>
<path d="M381.635 8.81473C352.909 8.81473 328.434 27.0813 325.915 50.388L235.799 1497.51C234.602 1508.63 238.345 1519.57 246.327 1528.47C257.003 1540.36 273.471 1547.17 291.506 1547.17H2318.58C2347.32 1547.17 2371.78 1528.92 2374.3 1505.6L2464.42 58.4814C2465.62 47.3614 2461.88 36.4144 2453.89 27.5211C2443.22 15.6278 2426.76 8.81473 2408.72 8.81473H381.635ZM2318.58 1553.28H291.506C271.742 1553.28 253.619 1545.72 241.787 1532.53C232.633 1522.33 228.346 1509.72 229.721 1496.99L319.838 49.8678C322.745 22.9211 349.307 2.70796 381.635 2.70796H2408.72C2428.48 2.70796 2446.6 10.268 2458.44 23.4547C2467.6 33.6547 2471.88 46.2679 2470.5 59.0013L2380.38 1506.12C2377.48 1533.07 2350.92 1553.28 2318.58 1553.28Z" fill="black"/>
<path d="M1628.35 934.312H384.338C371.597 934.312 359.9 929.433 352.25 920.913C346.277 914.259 343.485 906.006 344.384 897.686L394.849 96.7527C396.742 79.1927 413.92 66.0593 434.817 66.0593H735.777C737.461 66.0593 738.828 67.4193 738.828 69.0993C738.828 70.7927 737.461 72.1527 735.777 72.1527H434.817C417.333 72.1527 402.448 83.1925 400.926 97.2725L350.461 898.206C349.738 904.926 351.99 911.486 356.79 916.833C363.189 923.966 373.489 928.219 384.338 928.219H1628.35C1630.03 928.219 1631.4 929.579 1631.4 931.272C1631.4 932.952 1630.03 934.312 1628.35 934.312Z" fill="black"/>
<path d="M1712.76 628.195C1712.71 628.195 1712.64 628.195 1712.57 628.195C1710.89 628.089 1709.61 626.635 1709.72 624.955L1742.65 102.169C1743.39 95.4488 1741.13 88.8885 1736.33 83.5418C1729.93 76.4218 1719.63 72.1554 1708.79 72.1554H735.777C734.092 72.1554 732.727 70.7954 732.727 69.102C732.727 67.422 734.092 66.062 735.777 66.062H1708.79C1721.52 66.062 1733.21 70.9421 1740.87 79.4621C1746.84 86.1154 1749.64 94.3686 1748.73 102.689L1715.81 625.342C1715.71 626.955 1714.36 628.195 1712.76 628.195Z" fill="black"/>
<path d="M503.065 636.92C500.266 638.493 498.655 641.387 498.861 644.48C499.825 658.853 494.777 692.493 483.642 704.293C472.81 715.773 468.813 731.2 472.386 747.707C476.057 764.667 487.399 780.52 499.359 785.413C502.502 786.707 505.375 787.813 508.001 788.827C524.405 795.187 532.639 798.373 534.643 816.64C535.149 821.24 535.759 828.76 536.533 838.267C538.827 866.493 542.67 913.76 547.895 927.84C555.373 947.987 569.825 977.36 576.555 983.6C580.177 986.96 585.718 988.88 587.733 987.44C589.383 986.293 589.753 981.253 585.366 970.88L582.891 965.053C572.823 941.493 567.278 928.507 579.553 912.907C592.198 896.84 610.999 862.28 612.189 850.253C613.698 835.013 622.047 826.213 629.651 824.253C637.046 822.36 649.483 817.52 652.625 813.747C654.046 812.027 651.254 804.88 649.215 799.653C647.502 795.267 645.731 790.72 644.685 786.2C641.778 773.64 641.541 764.587 663.87 753.827C670.237 750.747 673.379 745.693 672.719 739.587C671.799 731.053 663.079 720.04 646.109 715.987C615.701 708.733 597.481 692.507 600.773 675.627C602.097 668.84 597.198 666.893 584.845 663.773C579.635 662.453 574.25 661.093 569.622 658.693C562.881 655.187 559.205 650.587 555.963 646.547C552.281 641.947 549.098 637.973 541.917 635.48C523.407 629.067 510.575 632.733 503.065 636.92ZM585.918 994C581.057 994 575.619 991.053 572.405 988.067C564.218 980.48 549.281 949.107 542.175 929.96C536.657 915.093 532.922 869.16 530.45 838.76C529.711 829.667 529.073 821.813 528.578 817.307C526.979 802.733 521.642 800.667 505.795 794.52C503.139 793.493 500.231 792.373 497.05 791.067C483.146 785.373 470.553 768.08 466.423 749C462.41 730.453 466.95 713.093 479.203 700.107C488.677 690.067 493.67 658.28 492.775 644.88C492.409 639.413 495.21 634.333 500.086 631.6C508.683 626.8 523.274 622.573 543.913 629.72C552.761 632.773 556.81 637.84 560.727 642.733C563.87 646.653 566.838 650.36 572.438 653.28C576.434 655.36 581.469 656.627 586.339 657.853C597.111 660.573 609.323 663.667 606.761 676.8C604.181 690.027 620.943 703.707 647.525 710.053C664.533 714.107 677.389 725.987 678.786 738.933C679.73 747.667 675.259 755.107 666.522 759.32C646.915 768.773 648.313 774.827 650.629 784.827C651.577 788.92 653.265 793.253 654.899 797.44C658.193 805.88 661.039 813.16 657.317 817.64C652.303 823.667 636.361 828.84 631.171 830.173C625.803 831.547 619.474 838.613 618.261 850.853C616.841 865.213 596.723 900.96 584.345 916.68C574.31 929.44 578.758 939.853 588.503 962.667L590.986 968.493C596.205 980.853 596.289 988.907 591.237 992.44C589.667 993.547 587.838 994 585.918 994Z" fill="#34B75C"/>
<path d="M531.003 288.893C535.389 288.893 538.89 289.867 541.595 291.813C547.141 295.813 547.823 302.653 548.37 308.147C548.607 310.52 548.851 312.973 549.471 314.2C550.441 316.107 551.841 317.653 553.461 319.44C557.191 323.573 561.834 328.707 562.539 340.44C563.405 354.84 563.13 365.707 551.635 374.44C542.109 381.68 538.081 391.72 539.665 404.28C550.154 487.56 606.299 531.813 621.249 536.907C623.899 537.813 626.206 538.56 628.253 539.213C638.106 542.387 642.602 543.84 649.535 551.813C649.879 552.04 650.143 552.293 650.373 552.64C663.021 571.493 674.058 583.947 678.426 586.507C680.77 587.893 682.555 588.227 683.727 587.547C685.253 586.653 688.751 582.453 688.301 562.867C687.997 549.653 683.239 533.04 674.157 513.467C667.027 498.12 664.889 485.36 667.801 475.56C669.13 471.08 672.585 467.813 677.039 466.813C681.835 465.747 686.91 467.587 690.611 471.733C696.262 478.08 709.546 483.333 714.877 479.853C719.067 477.093 719.427 467.533 719.717 459.84C719.917 454.547 720.087 449.987 721.33 446.893C722.851 443.12 726.769 440.253 731.306 436.92C737.293 432.533 744.078 427.56 747.614 419.347C752.871 407.133 768.471 405.547 782.235 404.133C788.045 403.547 793.533 402.987 797.815 401.72C815.69 396.44 825.873 386.987 827.122 383.32C829.563 376.16 826.694 371.52 823.37 366.16C820.347 361.28 816.921 355.747 818.925 348.52C822.47 335.72 821.503 319.36 818.341 314.347C817.175 312.493 813.807 308.093 807.747 307.013C801.497 305.893 794.141 308.547 785.897 314.893C771.394 326.04 764.513 329.387 758.642 328.133C753.715 327.093 750.713 322.627 748.423 318.4C744.671 311.467 746.153 299.987 752.106 289.827C759.23 277.653 770.806 270.573 783.862 270.373C802.751 270.093 812.726 265.24 813.509 255.947C813.955 250.627 806.527 243.96 798.79 242.747C794.695 242.093 792.773 243.013 784.391 247.467C778.001 250.867 768.342 255.987 751.786 263.173C730.961 272.213 711.967 272.52 699.706 271.173C692.939 270.44 686.925 266.28 683.613 260.053C680.907 254.973 677.051 248.92 671.19 247.28C667.141 246.147 662.307 247.227 656.813 250.493C646.85 256.4 639.315 263.787 633.262 269.72C625.238 277.573 618.891 283.8 611.867 280.733C604.173 277.4 600.543 269.133 597.627 262.507C596.502 259.947 595.441 257.533 594.327 255.8C590.546 249.907 554.921 229.173 531.354 241.626C492.961 261.906 472.421 276.24 470.302 284.253C470.015 285.347 470.25 285.907 470.487 286.28C476.346 295.467 492.471 296.693 521.229 290.147C524.882 289.307 528.133 288.893 531.003 288.893ZM682.391 594C680.23 594 677.871 593.267 675.337 591.773C669.411 588.293 657.489 574.133 645.597 556.467C645.358 556.267 645.141 556.053 644.934 555.813C639.114 549.12 635.905 548.093 626.382 545.027C624.307 544.36 621.966 543.6 619.278 542.68C600.979 536.44 544.367 490.44 533.611 405.04C531.762 390.373 536.718 378.12 547.943 369.587C556.253 363.267 557.395 356.56 556.449 340.813C555.871 331.213 552.502 327.48 548.934 323.533C547.181 321.6 545.37 319.587 544.033 316.96C542.894 314.72 542.605 311.827 542.298 308.747C541.829 304.027 541.343 299.147 538.031 296.76C535.097 294.653 529.897 294.427 522.585 296.093C490.531 303.4 472.882 301.373 465.342 289.56C464.069 287.56 463.743 285.187 464.403 282.693C467.085 272.56 486.853 258.227 528.502 236.227C555.657 221.88 594.474 244.733 599.461 252.493C600.833 254.627 601.989 257.267 603.213 260.053C605.83 266 608.797 272.747 614.297 275.147C617.557 276.533 622.606 271.613 628.991 265.36C635.278 259.2 643.105 251.533 653.699 245.24C660.683 241.093 667.123 239.8 672.835 241.4C680.927 243.68 685.723 251.027 688.999 257.187C691.362 261.627 695.611 264.587 700.37 265.107C711.89 266.36 729.754 266.08 749.358 257.587C765.693 250.493 775.223 245.427 781.529 242.08C789.983 237.587 793.481 235.733 799.738 236.707C809.758 238.293 820.375 247.067 819.589 256.453C818.499 269.4 806.51 276.133 783.954 276.48C768.511 276.707 760.219 288.04 757.371 292.907C751.977 302.12 751.486 311.24 753.789 315.493C756.093 319.747 757.923 321.747 759.91 322.173C764.415 323.12 773.262 316.907 782.179 310.053C791.839 302.627 800.798 299.56 808.815 301C817.27 302.507 821.901 308.56 823.499 311.08C827.987 318.2 828.598 336.453 824.806 350.147C823.514 354.813 825.739 358.4 828.557 362.947C831.993 368.493 836.27 375.4 832.895 385.293C830.577 392.08 817.466 402.28 799.543 407.573C794.715 409 788.955 409.587 782.857 410.213C770.173 411.507 757.057 412.84 753.218 421.76C749.026 431.493 741.201 437.227 734.914 441.84C731.286 444.507 727.861 447.013 726.99 449.173C726.145 451.28 725.975 455.747 725.814 460.067C725.453 469.627 725.045 480.48 718.223 484.947C709.429 490.72 692.907 483.48 686.057 475.8C683.815 473.28 681.015 472.187 678.369 472.773C676.105 473.28 674.339 474.96 673.649 477.293C671.174 485.627 673.206 496.933 679.693 510.907C689.129 531.227 694.078 548.667 694.399 562.733C694.797 579.973 692.389 589.533 686.821 592.8C685.455 593.613 683.977 594 682.391 594Z" fill="#34B75C"/>
<path d="M831.337 360.533C828.651 360.533 825.711 361.2 822.573 362.547C822.573 362.547 822.573 362.547 822.572 362.547C819.469 363.867 817.1 366.387 815.903 369.627C814.657 373 814.868 376.8 816.483 380.067C818.208 383.533 819.593 385.04 820.453 385.68C822.148 386.96 826.691 388.307 831.083 389.613C840.601 392.44 851.389 395.64 854.72 402.76C856.561 406.693 856.159 414.547 855.649 424.493C854.856 440 853.769 461.227 862.495 465.667C870.785 469.893 931.005 445.293 957.739 418.6C985.939 390.453 987.192 382.76 986.432 380.747C986.139 379.987 984.619 379.453 982.352 379.333C975.979 378.987 965.619 379.88 954.659 380.827C938.752 382.2 920.712 383.76 906.968 382.4C893.196 381.053 874.721 374.413 858.42 368.56C847.628 364.693 837.436 361.027 832.743 360.6C832.281 360.547 831.815 360.533 831.337 360.533ZM864.676 472C862.6 472 860.924 471.707 859.727 471.107C847.473 464.867 848.629 442.307 849.556 424.187C849.967 416.173 850.389 407.893 849.193 405.347C847.025 400.707 836.807 397.68 829.344 395.453C823.987 393.867 819.359 392.493 816.785 390.56C814.741 389.013 812.855 386.467 811.017 382.773C808.66 378.027 808.353 372.467 810.177 367.52C811.964 362.68 815.515 358.92 820.177 356.933C824.812 354.96 829.231 354.133 833.304 354.52C838.768 355.027 848.351 358.467 860.481 362.827C875.66 368.267 894.548 375.053 907.567 376.333C920.752 377.627 938.485 376.093 954.139 374.747C965.805 373.733 975.899 372.853 982.685 373.24C987.712 373.52 990.885 375.307 992.139 378.573C994.939 385.933 986.232 398.787 962.045 422.92C937.885 447.04 883.992 472 864.676 472Z" fill="#34B75C"/>
<path d="M1655.13 701.817C1651.27 704.364 1639.71 719.524 1636.68 730.777C1634.52 738.75 1634.11 742.484 1634.12 744.19C1635.13 743.737 1636.25 743.297 1637.41 742.844C1642.4 740.924 1648.6 738.524 1654.48 731.404C1656.47 728.99 1657.99 719.23 1657.04 709.764C1656.57 705.07 1655.67 702.71 1655.13 701.817ZM1632.99 750.844C1631.61 750.844 1630.65 750.284 1630.09 749.83C1627.15 747.43 1627.32 742.03 1630.79 729.19C1634 717.257 1648.59 695.79 1655.09 695.457C1656.45 695.43 1658.96 695.817 1660.77 699.43C1664.61 707.07 1664.32 729.057 1659.17 735.284C1652.28 743.63 1644.67 746.59 1639.61 748.537C1638.27 749.07 1637.04 749.524 1636.03 750.044C1634.85 750.63 1633.84 750.844 1632.99 750.844Z" fill="#34B75C"/>
<path d="M1059.88 472.667C1066.59 472.667 1071.98 474.08 1075.03 478.88C1081.67 489.28 1082.1 497.36 1082.7 508.52C1082.98 513.88 1083.3 519.96 1084.36 527.533C1094.96 603.253 1117.24 666.92 1136.19 675.64C1147.8 681 1177.52 669.773 1189.46 646.88C1193.1 639.893 1196.7 633.84 1200.16 627.987C1208.79 613.467 1215.6 601.987 1216.68 586.68C1217.07 581.253 1215.24 575.907 1213.31 570.24C1209.52 559.16 1205.23 546.6 1218.54 532.36C1226.83 523.48 1236.44 517.36 1244.94 511.96C1254.82 505.667 1262.63 500.693 1262.5 494.813C1262.24 483.667 1255.38 480.733 1244.12 477.227C1231.83 473.4 1202.14 447.4 1204.15 427C1205 418.387 1207.51 403.587 1214.78 401.093C1216.28 400.587 1219.26 400.187 1222.3 403.387C1225.87 407.16 1226.88 413.907 1227.95 421.053C1228.74 426.333 1229.55 431.787 1231.38 434.84C1232.11 436.053 1232.92 437.64 1233.84 439.413C1237.12 445.733 1242.07 455.28 1248.2 457.013C1250.39 457.64 1252.67 457.2 1255.16 455.707C1260.88 452.253 1265.1 449.213 1268.48 446.773C1274.04 442.747 1278.07 439.84 1284.03 438.44C1285.43 438.107 1287.64 435.787 1289.28 430.307C1291.86 421.667 1291.22 411.027 1287.9 407.533C1284.7 404.16 1281.67 403.533 1278.47 402.867C1275.3 402.213 1271.71 401.467 1268.88 397.893C1265.15 393.187 1259.36 384.533 1262.62 379.52C1265.3 375.4 1271.44 376.987 1273.46 377.507C1280.44 379.307 1283.11 382.8 1285.47 385.893C1288.47 389.827 1291.31 393.533 1304.55 395.413C1330.19 399.027 1355.63 417.427 1363.75 438.213C1365.51 442.72 1367.26 447.773 1368.95 452.653C1373.51 465.88 1379.78 483.973 1385.31 484.44C1385.32 484.44 1385.34 484.44 1385.35 484.44C1387.18 484.44 1389.31 473.947 1390.34 468.88C1392.76 456.853 1395.8 441.893 1405 434.333C1408.71 431.307 1412.02 428.133 1415.22 425.08C1425.2 415.533 1434.64 406.507 1444.99 416.507C1449.5 420.853 1455.08 427.907 1461.02 435.36C1469.39 445.893 1478.87 457.84 1485.47 462.12C1494.67 468.08 1509.03 472.92 1513.08 470C1514.56 468.933 1514.19 466.147 1513.62 464C1511.95 457.653 1508.04 450.813 1504.26 444.213C1497.44 432.267 1490.38 419.933 1500.54 413.333C1506.47 409.48 1515.11 410.467 1524.24 411.507C1537.71 413.04 1546.74 413.44 1549.64 405.387C1555.62 388.747 1546.9 366.147 1535.67 353.333C1527.4 343.907 1526.8 331.387 1531.43 326.04C1534.56 322.4 1539.42 322.173 1544.4 325.4C1549.55 328.733 1555.19 334.68 1560.66 340.413C1565.91 345.947 1573.74 354.173 1577.14 354.507C1576.95 353.44 1576.35 351.613 1575.84 350.08C1573.64 343.44 1569.95 332.32 1575.2 319.493C1576.54 316.24 1577.88 313.227 1579.14 310.4C1585.7 295.627 1589.31 287.493 1579.12 276.053C1574.42 270.773 1568.28 265.88 1562.88 261.573C1554.27 254.72 1548.06 249.76 1548.47 244.453C1548.59 242.867 1549.4 240.587 1552.56 238.787C1560.62 234.2 1569.87 235.187 1578.82 236.12C1582.66 236.52 1586.6 236.92 1590.34 236.88C1594.82 236.813 1597.18 233.147 1600.03 227.973C1601.91 224.56 1603.54 221.613 1606.6 221.093C1608.32 220.8 1609.99 221.4 1611.59 222.827C1614.64 225.6 1615.96 231.76 1617.78 240.28C1620.31 252.173 1623.46 266.987 1631.84 269.387C1633.48 269.867 1634.24 269.72 1634.42 269.587C1635.68 268.52 1635.06 261.947 1634.63 257.6C1633.72 248.187 1632.6 236.467 1639.38 229.32C1651.3 216.733 1658.54 204.56 1657.84 198.28C1657.67 196.773 1657.04 195.707 1655.84 194.893C1652 192.32 1642.34 192.467 1632.98 192.627C1620.88 192.827 1608.38 193.027 1602.22 187.693C1590.26 177.373 1571.82 174.08 1545.87 177.64C1541.72 178.2 1537.3 178.853 1532.66 179.533C1500.63 184.24 1460.79 190.107 1440.43 179.827C1429.76 174.453 1426.03 169.507 1422.74 165.133C1418.99 160.187 1416.04 156.28 1402.24 152.48C1375.43 145.093 1320.16 149.093 1307.95 155.587C1305.18 157.067 1302.87 158.733 1300.44 160.48C1291.58 166.88 1280.54 174.853 1236.79 183.133C1199.1 190.253 1184.62 177.173 1172.96 166.653C1167.23 161.48 1162.27 157 1155.48 156.213C1134.34 153.747 1121.07 153.4 1094.36 174.92L1088.63 179.533C1075.64 189.96 1062.23 200.733 1061.71 204.2C1061.94 204.36 1062.51 204.653 1063.78 204.933C1066.6 205.547 1068.91 206.227 1070.95 206.827C1077.86 208.853 1081.66 209.96 1095.9 205.48C1105.6 202.413 1110.8 198.12 1114.62 194.987C1118.38 191.88 1121.64 189.2 1126.48 190.453C1130.56 191.493 1135.27 194.52 1136.24 199.853C1137.36 206.013 1133.11 212.547 1123.58 219.253C1111.19 227.96 1104.2 225.987 1098.58 224.387C1095.34 223.48 1092.78 222.76 1089.26 224C1084.56 225.667 1083.72 228.44 1082.46 232.64C1081.28 236.533 1079.83 241.373 1074.56 245.173C1069.24 249.027 1065.42 247.853 1062.62 247.013C1059.68 246.12 1057.36 245.413 1051.23 251.933C1043.42 260.227 1040.63 267.787 1038.39 273.853C1036.95 277.733 1035.72 281.093 1033.56 283.96C1029.92 288.813 1024.64 286.653 1020.8 285.067C1015.32 282.813 1013.19 282.427 1010.84 286.813C1007.38 293.307 1007.5 301.987 1011.12 307.013C1013.11 309.773 1015.72 310.893 1018.91 310.347C1023.59 309.533 1028.62 305.12 1033.92 300.44C1041.2 294.04 1049.44 286.787 1060.15 285.453C1065.9 284.747 1071.28 282.813 1076.03 281.12C1082.87 278.68 1088.27 276.733 1092.32 279.347C1094.68 280.88 1096 283.627 1096.35 287.747C1096.48 289.347 1096.6 290.96 1096.72 292.573C1097.32 300.453 1098.24 312.36 1100.71 314.067C1100.75 314.107 1100.82 314.133 1101.1 314.053C1102.75 313.573 1103.86 304.813 1104.28 301.507C1105.1 294.987 1105.75 289.84 1108.64 287.627C1109.74 286.8 1111.03 286.453 1112.39 286.653C1116.44 287.227 1119.75 291.667 1123.94 297.293C1128.12 302.92 1133.32 309.92 1139.51 312.707C1144.98 315.16 1151 315.827 1157.38 316.52C1164.68 317.32 1172.26 318.147 1178.96 321.947C1179.92 322.493 1180.92 323.04 1181.94 323.573C1188.47 327.107 1195.87 331.093 1196.67 338.613C1197.39 345.413 1192.39 353.147 1180.9 362.96C1180.54 363.267 1180.11 363.48 1179.64 363.6C1177.64 364.093 1130.44 375.44 1110.31 361.693C1101.14 355.44 1099.15 347.427 1097.55 340.987C1095.5 332.707 1094.26 327.72 1079.96 327.333C1051.38 326.547 998.617 325.107 983.804 374.187C968.084 426.24 970.844 447.08 996.11 467.08C1010.3 478.32 1029.44 475.907 1044.83 473.987C1050.24 473.307 1055.36 472.667 1059.88 472.667ZM1143.24 683C1139.55 683 1136.27 682.4 1133.63 681.187C1109.84 670.227 1087.79 596.013 1078.32 528.373C1077.22 520.547 1076.88 514.333 1076.6 508.853C1076.03 498.227 1075.66 491.213 1069.88 482.16C1066.83 477.373 1056.99 478.6 1045.59 480.04C1029.07 482.107 1008.52 484.68 992.324 471.867C964.857 450.133 961.51 426.893 977.964 372.427C994.137 318.88 1049.92 320.4 1079.9 321.213C1099.06 321.747 1101.3 330.787 1103.47 339.52C1104.96 345.507 1106.5 351.707 1113.75 356.653C1130.46 368.067 1171.64 359.187 1177.5 357.84C1188.9 347.973 1190.92 342.307 1190.6 339.253C1190.15 334.947 1184.5 331.893 1179.04 328.947C1177.99 328.387 1176.95 327.827 1175.96 327.267C1170.34 324.08 1163.72 323.347 1156.71 322.587C1150.15 321.867 1143.36 321.12 1137 318.267C1129.38 314.84 1123.64 307.12 1119.04 300.933C1116.79 297.907 1113.82 293.907 1112.1 292.907C1111.3 294.627 1110.7 299.333 1110.34 302.267C1109.34 310.16 1108.31 318.32 1102.8 319.92C1100.79 320.507 1098.86 320.213 1097.24 319.08C1092.38 315.72 1091.58 305.2 1090.64 293.04C1090.52 291.44 1090.4 289.84 1090.27 288.253C1090.1 286.267 1089.64 284.88 1089.02 284.48C1087.48 283.493 1082.5 285.293 1078.08 286.867C1073.28 288.573 1067.31 290.72 1060.9 291.52C1052.06 292.613 1044.9 298.92 1037.96 305.027C1031.98 310.293 1026.32 315.267 1019.94 316.36C1014.51 317.293 1009.48 315.187 1006.18 310.587C1001.19 303.68 1000.9 292.48 1005.46 283.933C1010.63 274.293 1018.44 277.507 1023.12 279.427C1027.22 281.107 1028.07 281.12 1028.68 280.293C1030.31 278.133 1031.4 275.173 1032.66 271.747C1035.1 265.147 1038.12 256.933 1046.79 247.747C1054.86 239.187 1059.54 239.707 1064.39 241.173C1066.79 241.907 1068.12 242.307 1070.99 240.227C1074.58 237.627 1075.52 234.507 1076.62 230.88C1078.02 226.227 1079.6 220.947 1087.22 218.253C1092.58 216.347 1096.64 217.507 1100.24 218.52C1105.28 219.947 1110.04 221.307 1120.07 214.253C1127.16 209.267 1130.87 204.413 1130.24 200.947C1129.78 198.44 1127.11 196.907 1124.96 196.36C1123.24 195.907 1121.99 196.813 1118.5 199.693C1114.54 202.947 1108.56 207.88 1097.72 211.293C1081.74 216.333 1076.75 214.88 1069.23 212.68C1067.2 212.08 1065.1 211.467 1062.47 210.893C1058.62 210.053 1056.35 208.307 1055.74 205.707C1054.24 199.32 1063.82 191.627 1084.8 174.773L1090.54 170.173C1118.51 147.627 1134 147.573 1156.18 150.146C1164.91 151.16 1170.8 156.493 1177.06 162.12C1188.26 172.24 1200.95 183.707 1235.66 177.133C1278.07 169.107 1288.5 161.587 1296.87 155.533C1299.47 153.653 1301.94 151.88 1305.08 150.2C1319.59 142.493 1377.11 139.227 1403.87 146.6C1419.66 150.947 1423.52 156.053 1427.6 161.467C1430.64 165.48 1433.78 169.64 1443.18 174.387C1461.8 183.787 1502.24 177.84 1531.76 173.493C1536.43 172.813 1540.88 172.16 1545.04 171.587C1572.83 167.787 1592.83 171.547 1606.19 183.08C1610.6 186.88 1622.43 186.667 1632.88 186.52C1643.64 186.333 1653.82 186.187 1659.24 189.84C1661.94 191.64 1663.55 194.32 1663.91 197.613C1665.27 209.8 1648.87 228.173 1643.8 233.507C1638.94 238.653 1639.88 248.4 1640.71 257.013C1641.47 264.907 1642.07 271.147 1638.31 274.28C1636.34 275.907 1633.6 276.24 1630.16 275.253C1618.24 271.84 1614.68 255.04 1611.8 241.56C1610.6 235.907 1609.11 228.893 1607.52 227.387C1606.9 228.147 1606 229.773 1605.38 230.92C1602.75 235.68 1598.8 242.853 1590.42 242.973C1586.32 243.027 1582.19 242.6 1578.19 242.187C1569.82 241.307 1561.92 240.48 1555.58 244.093C1554.7 244.587 1554.55 244.92 1554.55 244.933C1554.2 246.867 1562.02 253.08 1566.68 256.8C1572.28 261.267 1578.63 266.32 1583.68 272C1596.48 286.373 1591.55 297.493 1584.71 312.88C1583.48 315.653 1582.16 318.613 1580.86 321.8C1576.46 332.547 1579.44 341.573 1581.63 348.173C1583.06 352.467 1584.08 355.56 1582.5 358.12C1581.91 359.053 1580.74 360.227 1578.4 360.547C1572.2 361.373 1564.79 353.627 1556.23 344.627C1551.02 339.133 1545.62 333.467 1541.08 330.52C1538.76 329.013 1537.07 328.84 1536.04 330.027C1533.54 332.933 1533.92 342.107 1540.26 349.307C1552.64 363.44 1562.15 388.613 1555.38 407.453C1550.63 420.653 1536.24 419.013 1523.56 417.56C1515.88 416.693 1507.96 415.787 1503.86 418.453C1498.9 421.667 1502.7 429.187 1509.56 441.187C1513.54 448.133 1517.64 455.32 1519.52 462.453C1521.43 469.68 1519.02 473.24 1516.67 474.947C1508.58 480.8 1489.92 472.28 1482.15 467.24C1474.71 462.413 1465.32 450.587 1456.23 439.16C1450.44 431.853 1444.96 424.96 1440.75 420.893C1435.12 415.453 1430.68 418.733 1419.43 429.493C1416.31 432.48 1412.76 435.867 1408.87 439.053C1401.35 445.227 1398.55 459.013 1396.31 470.08C1393.94 481.84 1392.03 491.147 1384.79 490.52C1375.3 489.72 1369.68 473.467 1363.18 454.653C1361.51 449.827 1359.79 444.827 1358.07 440.427C1350.82 421.853 1326.94 404.733 1303.71 401.453C1287.98 399.227 1283.9 393.88 1280.62 389.587C1278.44 386.733 1276.87 384.68 1271.94 383.413C1269.3 382.733 1268.14 382.853 1267.75 382.96C1267.62 384.373 1269.52 388.88 1273.67 394.107C1275.06 395.853 1276.7 396.267 1279.71 396.893C1283.31 397.64 1287.8 398.573 1292.32 403.333C1297.95 409.253 1297.96 422.56 1295.12 432.053C1293.04 439.027 1289.59 443.4 1285.42 444.387C1280.66 445.493 1277.23 447.973 1272.06 451.72C1268.58 454.227 1264.26 457.347 1258.32 460.933C1254.35 463.32 1250.39 463.973 1246.55 462.893C1237.86 460.44 1232.4 449.907 1228.43 442.213C1227.58 440.573 1226.82 439.107 1226.15 437.973C1223.7 433.88 1222.79 427.813 1221.91 421.96C1221.07 416.333 1220.12 409.96 1217.87 407.587C1217.4 407.093 1216.94 406.787 1216.76 406.853C1215.24 407.373 1211.64 413.133 1210.22 427.6C1208.6 443.893 1235.35 468.107 1245.94 471.4C1255.87 474.493 1268.23 478.347 1268.59 494.68C1268.8 503.987 1259.72 509.773 1248.2 517.107C1240.03 522.307 1230.76 528.213 1222.99 536.52C1212.19 548.093 1215.38 557.44 1219.08 568.253C1221.12 574.253 1223.24 580.453 1222.78 587.12C1221.59 603.853 1214.1 616.48 1205.42 631.107C1201.98 636.88 1198.43 642.867 1194.87 649.707C1183.58 671.36 1159.5 682.987 1143.24 683Z" fill="#34B75C"/>
<path d="M1541.35 683.473C1542.99 683.473 1544.5 683.513 1545.82 683.606C1554.91 684.206 1561.43 693.793 1567.75 703.086C1572.66 710.299 1577.74 717.753 1582.26 717.753C1582.28 717.753 1582.3 717.753 1582.32 717.753C1592.78 717.606 1643.36 662.233 1649.15 644.619C1653.15 632.446 1638.62 615.659 1624.55 599.419C1619.99 594.153 1615.28 588.713 1611.15 583.379C1605.78 576.446 1599.22 572.859 1591.67 572.686C1578.79 572.419 1565.98 582.006 1558.92 590.313C1548.22 602.913 1522.71 611.873 1500.19 619.793C1493.03 622.299 1486.27 624.673 1480.27 627.059C1458.38 635.713 1472.31 684.713 1472.94 686.846C1473.34 687.953 1475.48 692.646 1481.96 690.673C1491.15 687.873 1524.2 683.473 1541.35 683.473ZM1582.26 723.859C1574.51 723.859 1568.78 715.433 1562.71 706.513C1557.22 698.446 1551.54 690.099 1545.42 689.686C1531.2 688.739 1493.2 693.619 1483.75 696.513C1473.67 699.566 1468.47 692.779 1467.14 688.753C1467.12 688.726 1467.12 688.699 1467.11 688.673C1466.42 686.366 1450.58 632.246 1478.03 621.379C1484.14 618.953 1490.95 616.566 1498.16 614.033C1519.95 606.379 1544.64 597.699 1554.27 586.366C1562.44 576.739 1576.35 566.579 1591.1 566.579C1591.34 566.579 1591.56 566.579 1591.8 566.593C1601.28 566.793 1609.42 571.193 1615.96 579.633C1620 584.846 1624.66 590.219 1629.16 595.419C1645.04 613.753 1660.03 631.059 1654.95 646.526C1649.16 664.113 1597.9 723.633 1582.42 723.859C1582.36 723.859 1582.31 723.859 1582.26 723.859Z" fill="#34B75C"/>
<path d="M1395.4 1001.91C1386.33 1001.91 1378.82 1009 1378.3 1018.06C1378.04 1022.82 1379.69 1027.34 1382.96 1030.79C1386.22 1034.26 1390.64 1036.15 1395.4 1036.15H1668.24C1677.3 1036.15 1684.82 1029.06 1685.33 1020C1685.6 1015.26 1683.96 1010.74 1680.68 1007.27C1677.41 1003.82 1673 1001.91 1668.24 1001.91H1395.4ZM1668.24 1042.26H1395.4C1388.94 1042.26 1382.96 1039.67 1378.52 1034.98C1374.09 1030.3 1371.85 1024.16 1372.21 1017.71C1372.92 1005.43 1383.1 995.805 1395.4 995.805H1668.24C1674.69 995.805 1680.69 998.391 1685.12 1003.08C1689.56 1007.78 1691.78 1013.91 1691.42 1020.35C1690.73 1032.63 1680.54 1042.26 1668.24 1042.26Z" fill="black"/>
<path d="M760.863 1001.91C751.794 1001.91 744.286 1009 743.773 1018.06C743.501 1022.82 745.152 1027.34 748.42 1030.79C751.688 1034.26 756.106 1036.15 760.863 1036.15H878.809C887.88 1036.15 895.388 1029.06 895.902 1020C896.172 1015.26 894.521 1010.74 891.253 1007.27C887.986 1003.82 883.566 1001.91 878.809 1001.91H760.863ZM878.809 1042.26H760.863C754.411 1042.26 748.417 1039.67 743.983 1034.98C739.553 1030.28 737.313 1024.16 737.679 1017.71C738.378 1005.43 748.561 995.805 760.863 995.805H878.809C885.262 995.805 891.256 998.391 895.688 1003.08C900.121 1007.78 902.359 1013.91 901.994 1020.35C901.294 1032.63 891.112 1042.26 878.809 1042.26Z" fill="black"/>
<path d="M1532.79 1251.51C1523.72 1251.51 1516.21 1258.61 1515.69 1267.66C1515.43 1272.42 1517.08 1276.94 1520.35 1280.39C1523.61 1283.85 1528.03 1285.75 1532.79 1285.75H1650.73C1659.8 1285.75 1667.31 1278.66 1667.83 1269.61C1668.09 1264.86 1666.44 1260.34 1663.17 1256.87C1659.91 1253.42 1655.49 1251.51 1650.73 1251.51H1532.79ZM1650.73 1291.86H1532.79C1526.33 1291.86 1520.35 1289.27 1515.91 1284.58C1511.48 1279.9 1509.24 1273.77 1509.6 1267.31C1510.31 1255.03 1520.49 1245.41 1532.79 1245.41H1650.73C1657.19 1245.41 1663.19 1247.99 1667.61 1252.69C1672.05 1257.38 1674.28 1263.51 1673.92 1269.95C1673.23 1282.23 1663.04 1291.86 1650.73 1291.86Z" fill="black"/>
<path d="M1304.48 1083.79C1295.42 1083.79 1287.91 1090.89 1287.39 1099.94C1287.12 1104.69 1288.78 1109.21 1292.04 1112.67C1295.31 1116.13 1299.74 1118.03 1304.48 1118.03H1662.54C1671.6 1118.03 1679.11 1110.94 1679.63 1101.89C1679.9 1097.14 1678.24 1092.62 1674.98 1089.15C1671.71 1085.7 1667.3 1083.79 1662.54 1083.79H1304.48ZM1662.54 1124.14H1304.48C1298.03 1124.14 1292.04 1121.55 1287.62 1116.86C1283.18 1112.17 1280.94 1106.03 1281.3 1099.59C1282 1087.31 1292.19 1077.69 1304.48 1077.69H1662.54C1668.99 1077.69 1674.98 1080.27 1679.42 1084.97C1683.84 1089.66 1686.08 1095.78 1685.72 1102.23C1685.02 1114.51 1674.83 1124.14 1662.54 1124.14Z" fill="black"/>
<path d="M1299.13 1165.8C1290.06 1165.8 1282.56 1172.9 1282.04 1181.95C1281.77 1186.71 1283.42 1191.23 1286.69 1194.68C1289.96 1198.15 1294.37 1200.04 1299.13 1200.04H1657.18C1666.25 1200.04 1673.76 1192.95 1674.26 1183.9C1674.54 1179.15 1672.89 1174.63 1669.62 1171.18C1666.36 1167.71 1661.93 1165.8 1657.18 1165.8H1299.13ZM1657.18 1206.15H1299.13C1292.68 1206.15 1286.69 1203.56 1282.25 1198.87C1277.82 1194.19 1275.58 1188.06 1275.94 1181.6C1276.65 1169.32 1286.84 1159.71 1299.13 1159.71H1657.18C1663.64 1159.71 1669.62 1162.28 1674.06 1166.98C1678.49 1171.67 1680.73 1177.8 1680.36 1184.24C1679.66 1196.52 1669.48 1206.15 1657.18 1206.15Z" fill="black"/>
<path d="M2169.36 83.4886C2065.46 83.4886 1980.94 168.009 1980.94 271.902C1980.94 375.795 2065.46 460.315 2169.36 460.315C2273.25 460.315 2357.77 375.795 2357.77 271.902C2357.77 168.009 2273.25 83.4886 2169.36 83.4886ZM2169.36 466.422C2062.1 466.422 1974.84 379.155 1974.84 271.902C1974.84 164.635 2062.1 77.3818 2169.36 77.3818C2276.61 77.3818 2363.88 164.635 2363.88 271.902C2363.88 379.155 2276.61 466.422 2169.36 466.422Z" fill="#34B75C"/>
<path d="M2169.36 83.2484C2100.13 83.2484 2043.81 167.875 2043.81 271.902C2043.81 375.915 2100.13 460.555 2169.36 460.555C2238.58 460.555 2294.9 375.915 2294.9 271.902C2294.9 167.875 2238.58 83.2484 2169.36 83.2484ZM2169.36 466.648C2096.76 466.648 2037.7 379.289 2037.7 271.902C2037.7 164.515 2096.76 77.142 2169.36 77.142C2241.94 77.142 2301.01 164.515 2301.01 271.902C2301.01 379.289 2241.94 466.648 2169.36 466.648Z" fill="#34B75C"/>
<path d="M2169.36 84.3823C2144.22 84.3823 2117.3 159.729 2117.3 271.902C2117.3 384.062 2144.22 459.422 2169.36 459.422C2194.49 459.422 2221.41 384.062 2221.41 271.902C2221.41 159.729 2194.49 84.3823 2169.36 84.3823ZM2169.36 465.516C2136.74 465.516 2111.21 380.476 2111.21 271.902C2111.21 163.329 2136.74 78.2756 2169.36 78.2756C2201.96 78.2756 2227.5 163.329 2227.5 271.902C2227.5 380.476 2201.96 465.516 2169.36 465.516Z" fill="#34B75C"/>
<path d="M2361.35 274.141H1980.01C1978.32 274.141 1976.96 272.781 1976.96 271.087C1976.96 269.407 1978.32 268.047 1980.01 268.047H2361.35C2363.04 268.047 2364.4 269.407 2364.4 271.087C2364.4 272.781 2363.04 274.141 2361.35 274.141Z" fill="#34B75C"/>
<path d="M2336.95 185.672H1998.32C1996.63 185.672 1995.27 184.312 1995.27 182.618C1995.27 180.938 1996.63 179.565 1998.32 179.565H2336.95C2338.63 179.565 2340 180.938 2340 182.618C2340 184.312 2338.63 185.672 2336.95 185.672Z" fill="#34B75C"/>
<path d="M2336.95 362.617H1998.32C1996.63 362.617 1995.27 361.244 1995.27 359.564C1995.27 357.871 1996.63 356.511 1998.32 356.511H2336.95C2338.63 356.511 2340 357.871 2340 359.564C2340 361.244 2338.63 362.617 2336.95 362.617Z" fill="#34B75C"/>
<path d="M1874.15 343.062C1845.32 341.569 1815 369.342 1821.92 411.635C1827.59 446.195 1864.73 453.569 1883.12 470.702C1942.57 526.089 1962.24 707.382 2049.17 754.729C2118.53 792.489 2241.27 778.235 2303.88 692.422C2363.41 610.822 2368.73 495.568 2296.21 446.448C2231.03 402.275 2193.03 463.649 2124.07 422.875C2056.07 382.689 2069.83 336.849 2028.19 321.209C1971.24 299.809 1955.88 347.315 1874.15 343.062Z" fill="black"/>
<path d="M1769.43 794.057C1738.91 980.963 1735.36 983.71 1731.24 1003.3C1731.24 1003.3 1719.13 1058.34 1715.77 1111.35C1712.87 1157.36 1721.52 1433.68 1864.33 1494.52C1915.91 1516.5 1930.85 1476.11 2040.68 1480.5C2153.23 1484.99 2176.04 1525.03 2225.15 1511C2331.41 1480.63 2366.12 1252.62 2360.27 1111.72C2355.51 996.963 2298.4 888.603 2184.17 671.897C2166.77 638.883 2138.93 588.47 2094.07 582.057C2073.51 579.11 2065.28 582.27 1982.72 604.937C1892.91 629.59 1870.11 603.363 1831.56 627.657C1791.73 652.75 1784.71 700.51 1769.43 794.057Z" fill="white"/>
<path d="M2024.42 1477.11C2029.65 1477.11 2035.09 1477.22 2040.8 1477.44C2098.86 1479.76 2133.93 1491.71 2159.53 1500.43C2184.65 1509 2201.25 1514.66 2224.3 1508.07C2326.12 1478.98 2363.32 1258.86 2357.22 1111.84C2352.48 997.778 2295.33 889.338 2181.46 673.311C2166.4 644.711 2138.33 591.471 2093.64 585.085C2075.62 582.485 2067.57 584.711 2004.88 602.005L1983.52 607.885C1937.58 620.485 1909.52 619.911 1886.97 619.471C1865.57 619.031 1851.42 618.751 1833.18 630.245C1795.34 654.085 1788.01 699.085 1773.38 788.725L1772.44 794.551C1747 950.338 1740.33 978.085 1736.36 994.658C1735.57 997.898 1734.9 1000.68 1734.22 1003.92C1734.1 1004.5 1722.13 1059.38 1718.82 1111.55C1717.13 1138.12 1719.7 1218.35 1738.37 1296.67C1755.42 1368.2 1791.33 1460.11 1865.53 1491.72C1890.5 1502.36 1906.36 1497.86 1930.33 1491.03C1951.3 1485.06 1979.24 1477.11 2024.42 1477.11ZM2204.69 1517.03C2189.32 1517.03 2175.13 1512.2 2157.56 1506.22C2130.9 1497.12 2097.73 1485.83 2040.56 1483.54C1986.53 1481.4 1956.29 1489.99 1932 1496.9C1907.68 1503.82 1890.1 1508.82 1863.14 1497.34C1802.56 1471.52 1757.36 1402.62 1732.44 1298.08C1713.61 1219.1 1711.02 1138.04 1712.73 1111.16C1716.06 1058.51 1728.14 1003.19 1728.26 1002.63C1728.94 999.365 1729.62 996.538 1730.42 993.231C1734.38 976.738 1741.01 949.125 1766.41 793.565L1767.37 787.751C1782.28 696.285 1789.77 650.378 1829.93 625.085C1849.72 612.605 1865.4 612.925 1887.09 613.365C1909.24 613.818 1936.82 614.365 1981.9 601.991L2003.26 596.111C2067.04 578.538 2075.24 576.271 2094.49 579.031C2142.28 585.871 2171.29 640.898 2186.86 670.471C2301.16 887.311 2358.52 996.151 2363.32 1111.59C2366.64 1191.6 2357.06 1282.08 2337.69 1353.6C2320.5 1417.1 2287.17 1496.44 2225.97 1513.94C2218.4 1516.1 2211.42 1517.03 2204.69 1517.03Z" fill="black"/>
<path d="M1933.36 1876.3V1966.69L1976.84 1964.03L1985.4 1876.3H1933.36Z" fill="white"/>
<path d="M1936.4 1879.34V1963.45L1974.06 1961.16L1982.04 1879.34H1936.4ZM1933.36 1969.74C1932.58 1969.74 1931.82 1969.45 1931.26 1968.92C1930.65 1968.33 1930.3 1967.53 1930.3 1966.69V1876.3C1930.3 1874.61 1931.66 1873.25 1933.36 1873.25H1985.4C1986.26 1873.25 1987.08 1873.61 1987.66 1874.25C1988.24 1874.89 1988.52 1875.74 1988.44 1876.6L1979.88 1964.33C1979.73 1965.82 1978.52 1967 1977.02 1967.09L1933.54 1969.73C1933.48 1969.73 1933.41 1969.74 1933.36 1969.74Z" fill="black"/>
<path d="M1983.37 2079.39C1965.67 2081.28 1936.68 2082.51 1902.91 2076.7C1891.84 2074.79 1884.83 2063.76 1887.87 2052.95C1896.33 2022.82 1913.07 1966.68 1926.39 1939.79L1934.41 1954.46L1940.84 1938.98C1941.93 1937.14 1943.84 1935.94 1945.97 1935.74L1969.05 1935.87C1975.89 1935.86 1976.41 1939.59 1977.32 1942.42L1981.89 1954.46L1988.23 1938.15L2000.09 2058.74C2001.11 2069.04 1993.67 2078.28 1983.37 2079.39Z" fill="white"/>
<path d="M1926.59 1946.51C1913.19 1976.2 1897.3 2030.7 1890.8 2053.78C1889.58 2058.14 1890.23 2062.66 1892.66 2066.5C1895.06 2070.3 1898.99 2072.92 1903.43 2073.68C1936.55 2079.39 1965 2078.28 1983.04 2076.35C1991.63 2075.43 1997.91 2067.67 1997.06 2059.04L1986.44 1951.16L1984.74 1955.56C1984.28 1956.74 1983.15 1957.5 1981.9 1957.5H1981.88C1980.62 1957.5 1979.5 1956.72 1979.04 1955.54L1974.18 1942.59C1973.43 1940.06 1973.02 1938.79 1969.07 1938.92L1945.95 1938.79C1945.15 1938.88 1944.16 1939.47 1943.55 1940.38L1937.23 1955.62C1936.79 1956.71 1935.75 1957.43 1934.58 1957.5C1933.39 1957.56 1932.31 1956.95 1931.74 1955.92L1926.59 1946.51ZM1953.14 2084.02C1938.34 2084.02 1921.1 2082.92 1902.39 2079.7C1896.24 2078.64 1890.82 2075.02 1887.5 2069.76C1884.19 2064.51 1883.26 2058.08 1884.94 2052.12C1891.88 2027.4 1909.56 1966.87 1923.66 1938.43C1924.16 1937.42 1925.19 1936.76 1926.32 1936.74C1927.48 1936.78 1928.52 1937.32 1929.07 1938.32L1934.04 1947.4L1938.02 1937.8C1938.07 1937.67 1938.15 1937.52 1938.22 1937.4C1939.82 1934.75 1942.6 1932.99 1945.68 1932.7L1969.07 1932.82C1969.1 1932.82 1969.12 1932.82 1969.15 1932.82C1977.63 1932.82 1979.19 1938.04 1980.03 1940.84L1980.23 1941.5L1981.92 1945.95L1985.39 1937.04C1985.9 1935.72 1987.23 1934.94 1988.64 1935.12C1990.04 1935.32 1991.12 1936.44 1991.27 1937.86L2003.14 2058.44C2004.31 2070.39 1995.59 2081.15 1983.7 2082.42C1975.46 2083.3 1965.1 2084.02 1953.14 2084.02Z" fill="black"/>
<path d="M1948.09 2063.54C1936.4 2063.54 1922.8 2062.26 1908.34 2058.46C1906.72 2058.03 1905.74 2056.37 1906.17 2054.74C1906.6 2053.11 1908.25 2052.13 1909.89 2052.57C1950.8 2063.31 1985.26 2052.71 1985.61 2052.61C1987.21 2052.1 1988.93 2052.99 1989.44 2054.59C1989.94 2056.21 1989.05 2057.91 1987.45 2058.42C1986.48 2058.73 1970.86 2063.54 1948.09 2063.54Z" fill="black"/>
<path d="M1966.07 2016.58H1926.38C1924.7 2016.58 1923.33 2015.22 1923.33 2013.52C1923.33 2011.84 1924.7 2010.48 1926.38 2010.48H1966.07C1967.75 2010.48 1969.13 2011.84 1969.13 2013.52C1969.13 2015.22 1967.75 2016.58 1966.07 2016.58Z" fill="black"/>
<path d="M2253.27 1828.47L2266.12 1937.45L2306.88 1936.03V1828.47H2253.27Z" fill="white"/>
<path d="M2256.69 1831.53L2268.81 1934.3L2303.82 1933.09V1831.53H2256.69ZM2266.11 1940.5C2264.57 1940.5 2263.26 1939.35 2263.09 1937.81L2250.22 1828.83C2250.13 1827.97 2250.39 1827.1 2250.98 1826.45C2251.55 1825.79 2252.38 1825.42 2253.26 1825.42H2306.87C2308.55 1825.42 2309.93 1826.78 2309.93 1828.47V1936.03C2309.93 1937.67 2308.62 1939.02 2306.98 1939.07L2266.22 1940.5C2266.18 1940.5 2266.14 1940.5 2266.11 1940.5Z" fill="black"/>
<path d="M2256.42 1911.45C2256.42 1911.45 2251.17 1959.85 2252.8 1979.31C2253.96 1993.25 2273.06 2035.31 2283.85 2058.13C2288.28 2067.5 2296.73 2073.51 2306.12 2073.93C2317.54 2074.42 2333.45 2074.99 2346.28 2075.01C2363.93 2075.02 2376.06 2054.97 2369.76 2036.26C2363.94 2019.01 2354.72 1997.37 2340.2 1974.34C2329.25 1956.99 2313.29 1909.86 2313.29 1909.86H2280.06L2273.54 1937.43L2256.42 1911.45Z" fill="white"/>
<path d="M2258.6 1920.28C2257.2 1935.01 2254.67 1964.99 2255.84 1979.05C2256.65 1988.81 2267.87 2017.16 2286.61 2056.81C2290.55 2065.12 2298.07 2070.51 2306.25 2070.87C2317.4 2071.36 2333.41 2071.93 2346.28 2071.95C2346.29 2071.95 2346.31 2071.95 2346.31 2071.95C2352.89 2071.95 2359.08 2068.6 2363.27 2062.77C2368.48 2055.53 2369.83 2045.99 2366.88 2037.23C2359.73 2016.04 2349.89 1995.43 2337.61 1975.96C2327.8 1960.39 2314.36 1922.32 2311.11 1912.91H2282.48L2276.52 1938.13C2276.24 1939.32 2275.28 1940.23 2274.08 1940.44C2272.88 1940.65 2271.67 1940.12 2271 1939.11L2258.6 1920.28ZM2346.31 2078.05C2346.29 2078.05 2346.29 2078.05 2346.28 2078.05C2333.29 2078.04 2317.2 2077.45 2305.99 2076.96C2295.53 2076.51 2286 2069.79 2281.09 2059.41C2269.91 2035.75 2250.95 1993.89 2249.76 1979.56C2248.13 1960.03 2253.17 1913.09 2253.39 1911.11C2253.53 1909.83 2254.45 1908.77 2255.71 1908.47C2256.96 1908.16 2258.27 1908.68 2258.97 1909.76L2272.21 1929.85L2277.11 1909.15C2277.43 1907.77 2278.65 1906.8 2280.07 1906.8H2313.29C2314.6 1906.8 2315.76 1907.63 2316.17 1908.87C2316.33 1909.33 2332.16 1955.87 2342.77 1972.71C2355.31 1992.57 2365.36 2013.64 2372.65 2035.28C2376.23 2045.89 2374.57 2057.51 2368.23 2066.33C2362.87 2073.79 2354.88 2078.05 2346.31 2078.05Z" fill="black"/>
<path d="M2320.97 2057.31C2306.27 2057.31 2293.68 2036.73 2293.15 2035.85L2274.24 1999.26C2273.45 1997.77 2274.04 1995.93 2275.55 1995.15C2277.04 1994.38 2278.88 1994.97 2279.65 1996.46L2298.47 2032.87C2301.48 2037.85 2311.63 2051.21 2320.96 2051.21C2320.97 2051.21 2320.97 2051.21 2320.97 2051.21L2349.65 2051.18C2351.33 2051.18 2352.71 2052.54 2352.71 2054.22C2352.71 2055.9 2351.35 2057.27 2349.65 2057.27L2320.99 2057.31C2320.97 2057.31 2320.97 2057.31 2320.97 2057.31Z" fill="black"/>
<path d="M2341.34 2017.94H2304.98C2303.28 2017.94 2301.92 2016.56 2301.92 2014.88C2301.92 2013.19 2303.28 2011.83 2304.98 2011.83H2341.34C2343.02 2011.83 2344.39 2013.19 2344.39 2014.88C2344.39 2016.56 2343.02 2017.94 2341.34 2017.94Z" fill="black"/>
<path d="M1863.49 972.662C1863.49 972.662 1867.83 1305.25 1881.8 1521.77C1895.77 1738.29 1923.33 1903.84 1923.33 1903.84C1923.33 1903.84 1970.77 1920.88 2001.92 1911.96C2001.92 1911.96 2027.69 1722.02 2033.55 1657.82C2039.41 1593.62 2023.85 1561.77 2022.55 1509.22C2021.24 1456.69 2045.19 1224.7 2045.19 1224.7C2045.19 1224.7 2224 1749.16 2244.45 1864.98C2244.45 1864.98 2287.76 1872.33 2318.28 1855.64C2318.28 1855.64 2319.23 1649.4 2314.91 1617.53C2306.88 1558.49 2260.77 1500.37 2252.49 1437.66C2244.2 1374.96 2239.4 1217.57 2216.59 1123.17C2193.77 1028.77 2149.03 922.715 2149.03 922.715L1863.49 972.662Z" fill="#34B75C"/>
<path d="M2158.96 1095.91C2158.59 1095.91 2158.19 1095.85 2157.82 1095.69C2133.94 1085.9 2113.91 1069.87 2098.27 1048.05C2097.28 1046.69 2097.6 1044.78 2098.98 1043.79C2100.34 1042.81 2102.24 1043.13 2103.23 1044.5C2118.19 1065.38 2137.32 1080.7 2160.12 1090.03C2161.68 1090.67 2162.43 1092.46 2161.79 1094.02C2161.31 1095.19 2160.16 1095.91 2158.96 1095.91Z" fill="black"/>
<path d="M1889.24 1094.62C1888.42 1094.62 1887.61 1094.3 1887.01 1093.66C1885.85 1092.43 1885.92 1090.5 1887.14 1089.35C1906.52 1071.1 1909.32 1060.06 1913.57 1043.34L1914.77 1038.63C1915.2 1037 1916.86 1036.03 1918.49 1036.44C1920.12 1036.87 1921.1 1038.54 1920.68 1040.18L1919.48 1044.84C1915.13 1061.95 1911.98 1074.32 1891.32 1093.79C1890.73 1094.34 1889.98 1094.62 1889.24 1094.62Z" fill="black"/>
<path d="M1375.44 734.128C1387.9 736.595 1411.46 748.902 1414.5 752.075C1438.49 777.049 1452.68 738.128 1452.68 738.128C1452.68 738.128 1409.49 712.009 1385.06 708.235C1337.93 700.969 1349.33 728.968 1375.44 734.128Z" fill="white"/>
<path d="M1371.23 710.098C1361.39 710.098 1356.44 712.524 1355.89 715.604C1355.11 720.044 1362.75 728.511 1376.03 731.138C1388.73 733.644 1413.11 746.191 1416.71 749.951C1422.28 755.751 1427.57 758.164 1432.43 757.151C1440.2 755.511 1446.23 745.311 1448.87 739.418C1439.75 734.084 1405.03 714.404 1384.6 711.244C1379.43 710.444 1374.97 710.098 1371.23 710.098ZM1430.16 763.484C1424.24 763.484 1418.25 760.364 1412.31 754.178C1409.96 751.724 1387.32 739.591 1374.85 737.124C1359.69 734.124 1348.25 723.791 1349.88 714.551C1350.64 710.204 1355.64 700.618 1385.53 705.218C1410.28 709.031 1452.48 734.444 1454.25 735.524C1455.51 736.271 1456.04 737.804 1455.55 739.178C1455.24 740.031 1447.75 760.151 1433.68 763.111C1432.52 763.364 1431.33 763.484 1430.16 763.484Z" fill="black"/>
<path d="M1456.24 753.977C1455.64 753.977 1455.02 753.79 1454.49 753.417L1118.58 517.843C1117.21 516.87 1116.86 514.963 1117.84 513.59C1118.81 512.217 1120.7 511.87 1122.09 512.843L1458 748.417C1459.37 749.39 1459.7 751.297 1458.74 752.67C1458.14 753.523 1457.2 753.977 1456.24 753.977Z" fill="black"/>
<path d="M1415.04 698.016C1421.99 705.23 1435.19 711.776 1444.99 713.816C1449.24 714.696 1453.8 715.257 1458.24 715.083C1493.33 713.777 1485.03 763.39 1559.91 775.123C1562.53 775.536 1566.32 820.683 1566.2 832.43C1535.57 819.403 1495.05 790.683 1475.95 795.99C1440.69 805.776 1429.05 787.59 1421.68 779.203C1402.29 757.176 1428.48 735.656 1428.48 735.656C1428.48 735.656 1424.01 734.883 1410.09 727.336C1388.81 715.803 1384.04 665.896 1415.04 698.016Z" fill="white"/>
<path d="M1481.13 792.298C1495.4 792.298 1515.53 803.018 1536.68 814.284C1545.55 819.018 1554.67 823.871 1563.07 827.711C1562.59 812.978 1559.83 784.138 1557.99 777.898C1514.97 770.791 1498.77 750.844 1486.92 736.231C1478.15 725.431 1471.81 717.658 1458.36 718.138C1454.11 718.298 1449.4 717.858 1444.37 716.804C1433.36 714.511 1419.8 707.351 1412.84 700.138C1404.96 691.964 1399.89 689.884 1397.99 690.564C1396.96 690.938 1396.24 692.618 1396.07 695.058C1395.44 703.364 1401.16 719.018 1411.55 724.644C1424.51 731.684 1429.01 732.658 1429.05 732.671C1430.21 732.898 1431.13 733.791 1431.43 734.924C1431.71 736.058 1431.33 737.271 1430.43 738.018C1430.31 738.111 1418.63 747.898 1417.64 760.231C1417.17 766.178 1419.29 771.884 1423.97 777.178C1424.56 777.858 1425.17 778.591 1425.83 779.364C1433.27 788.191 1444.52 801.564 1475.13 793.044C1476.99 792.538 1479 792.298 1481.13 792.298ZM1566.2 835.484C1565.79 835.484 1565.39 835.404 1565 835.244C1555.21 831.084 1544.33 825.284 1533.81 819.671C1511.61 807.844 1488.67 795.604 1476.76 798.938C1442.39 808.471 1428.59 792.098 1421.16 783.298C1420.53 782.551 1419.95 781.858 1419.39 781.218C1413.57 774.618 1410.95 767.378 1411.57 759.711C1412.39 749.671 1418.61 741.404 1422.79 736.924C1419.76 735.684 1415.21 733.578 1408.64 730.018C1395.95 723.124 1389.21 704.751 1389.97 694.591C1390.49 687.778 1393.92 685.551 1395.92 684.831C1401.23 682.911 1408.2 686.538 1417.24 695.898C1423.35 702.231 1435.81 708.791 1445.61 710.831C1450.15 711.778 1454.36 712.178 1458.13 712.044C1474.61 711.338 1482.52 721.138 1491.65 732.391C1503.65 747.164 1518.6 765.564 1560.37 772.111C1562.87 772.498 1564.51 772.764 1567.12 799.231C1568.39 812.191 1569.31 826.484 1569.24 832.471C1569.24 833.484 1568.72 834.431 1567.87 834.991C1567.36 835.311 1566.77 835.484 1566.2 835.484Z" fill="black"/>
<path d="M1455.53 775.242C1454.2 775.242 1452.97 774.349 1452.6 773.002C1452.15 771.375 1453.11 769.695 1454.73 769.255C1458.73 768.149 1461.29 765.896 1462.35 762.562C1464.16 756.842 1461.49 748.082 1455.88 741.255C1451.47 735.895 1446.68 733.295 1441.73 733.295C1432.05 733.442 1424.07 743.642 1423.99 743.749C1422.95 745.082 1421.04 745.335 1419.71 744.309C1418.37 743.282 1418.12 741.362 1419.15 740.029C1419.55 739.522 1428.97 727.415 1441.61 727.202C1448.6 726.949 1454.93 730.495 1460.59 737.375C1466.39 744.429 1470.97 755.522 1468.16 764.416C1466.99 768.149 1463.97 773.029 1456.35 775.135C1456.08 775.202 1455.81 775.242 1455.53 775.242Z" fill="black"/>
<path d="M1830.96 605.128C1830.96 605.128 1937.67 589.848 2042.71 586.795C2042.71 586.795 2180.84 955.688 2180.83 978.888C2180.81 1002.08 2114.67 1054.7 2049.08 1012.82C1939.68 942.968 1871.33 966.795 1817.4 979.395C1736.6 998.262 1830.96 605.128 1830.96 605.128Z" fill="white"/>
<path d="M1905.97 961.928C1945.25 961.928 1992.04 972.781 2050.72 1010.25C2093.05 1037.26 2131.57 1021.59 2146.17 1013.59C2165.94 1002.77 2177.77 987.448 2177.77 978.875C2177.78 961.075 2088.52 717.888 2040.62 589.915C1945.58 592.835 1848.66 605.768 1833.44 607.861C1827 635.288 1759.06 929.928 1801.33 972.448C1805.44 976.581 1810.46 977.875 1816.7 976.421C1820.44 975.555 1824.24 974.621 1828.1 973.688C1851.02 968.101 1876.37 961.928 1905.97 961.928ZM2100.61 1031.55C2084.66 1031.55 2066.41 1027.5 2047.44 1015.39C1946.72 951.088 1881.76 966.901 1829.54 979.608C1825.65 980.555 1821.84 981.488 1818.09 982.368C1809.73 984.315 1802.65 982.435 1797.01 976.755C1750.52 929.968 1824.8 617.688 1827.98 604.408C1828.28 603.195 1829.28 602.288 1830.52 602.101C1831.58 601.955 1938.61 586.768 2042.62 583.755C2043.96 583.821 2045.1 584.515 2045.57 585.728C2051.21 600.808 2183.88 955.408 2183.88 978.888C2183.86 991.075 2169.24 1007.91 2149.1 1018.95C2140.1 1023.89 2122.54 1031.55 2100.61 1031.55Z" fill="black"/>
<path d="M1494.49 811.126C1507.77 827.259 1532.12 860.179 1588.56 878.499C1701.44 915.139 1771.12 840.752 1771.12 840.752L1761.41 1063.41C1761.41 1063.41 1815.95 1095.73 1815.95 1092.86C1815.95 1090.01 1839.79 596.179 1839.79 596.179C1839.79 596.179 1795.76 596.886 1776.13 624.832C1756.51 652.779 1682.21 768.232 1596.8 769.632C1557.95 770.259 1539.15 754.192 1526.87 749.792L1494.49 811.126Z" fill="white"/>
<path d="M1766.55 948.953C1766.49 948.953 1766.45 948.953 1766.4 948.953C1764.72 948.873 1763.41 947.446 1763.49 945.766L1767.75 848.047C1748.81 864.5 1682.99 912.367 1587.61 881.407C1533.48 863.833 1508.09 832.66 1494.47 815.913L1492.13 813.073C1491.36 812.127 1491.23 810.793 1491.8 809.7L1524.16 748.367C1524.88 747.033 1526.47 746.406 1527.89 746.926C1530.97 748.02 1534.31 749.753 1538.16 751.74C1550.67 758.207 1567.77 766.993 1596.75 766.58C1675.47 765.287 1746.25 662.727 1769.51 629.033C1771.08 626.767 1772.45 624.767 1773.64 623.087C1793.92 594.193 1837.88 593.166 1839.73 593.126C1840.6 593.086 1841.39 593.46 1841.99 594.06C1842.56 594.66 1842.88 595.486 1842.84 596.326C1842.84 596.326 1833.67 786.313 1826.69 931.286C1826.61 932.98 1825.12 934.327 1823.51 934.193C1821.81 934.113 1820.52 932.687 1820.6 931.007C1827.03 797.393 1835.32 625.54 1836.57 599.42C1826.25 600.247 1794.11 604.566 1778.63 626.593C1777.45 628.26 1776.09 630.246 1774.53 632.5C1750.83 666.833 1678.71 771.34 1596.85 772.687C1566.43 773.167 1547.69 763.54 1535.36 757.166C1532.75 755.806 1530.39 754.593 1528.28 753.66L1498.13 810.766L1499.2 812.06C1512.44 828.327 1537.08 858.58 1589.51 875.593C1699.13 911.18 1768.21 839.393 1768.89 838.66C1769.77 837.726 1771.13 837.446 1772.31 837.94C1773.48 838.433 1774.23 839.607 1774.17 840.887L1769.59 946.033C1769.51 947.673 1768.16 948.953 1766.55 948.953Z" fill="black"/>
<path d="M1697.65 677.595H1904.01C1910.52 677.595 1916.68 683.062 1917.77 689.795L1964.61 978.902C1965.71 985.648 1961.31 991.102 1954.8 991.102H1748.44C1741.93 991.102 1735.77 985.648 1734.68 978.902L1687.84 689.795C1686.75 683.062 1691.15 677.595 1697.65 677.595Z" fill="white"/>
<path d="M1697.65 680.642C1695.52 680.642 1693.65 681.455 1692.39 682.935C1691 684.562 1690.45 686.828 1690.85 689.295L1737.69 978.415C1738.53 983.642 1743.47 988.042 1748.44 988.042H1954.8C1956.93 988.042 1958.8 987.229 1960.07 985.749C1961.45 984.122 1962 981.855 1961.6 979.389L1914.76 690.268C1913.92 685.055 1908.99 680.642 1904.01 680.642H1697.65ZM1954.8 994.148H1748.44C1740.37 994.148 1733.01 987.669 1731.67 979.389L1684.83 690.268C1684.15 686.068 1685.21 681.948 1687.75 678.975C1690.19 676.122 1693.71 674.535 1697.65 674.535H1904.01C1912.08 674.535 1919.44 681.015 1920.79 689.295L1967.63 978.415C1968.31 982.615 1967.24 986.735 1964.71 989.708C1962.27 992.575 1958.75 994.148 1954.8 994.148Z" fill="black"/>
<path d="M1934.62 794.59L1938.05 816.43C1938.31 826.364 1929.36 834.017 1919.58 832.244L1865.8 822.47C1857.5 820.964 1849.84 827.537 1850.32 835.95C1850.6 840.737 1852.75 846.297 1858.71 852.084C1861.48 854.79 1909.21 891.137 1945.88 884.537C1947.46 884.257 1981.82 903.577 1983.14 902.63C1988.9 898.51 1992.92 885.337 1994.2 874.23C1994.3 873.284 1965.73 857.177 1962.85 848.337C1959.88 839.204 1962.29 832.55 1958.68 816.964C1954.42 798.657 1934.62 794.59 1934.62 794.59Z" fill="white"/>
<path d="M1946 881.458C1947.28 881.458 1949.61 882.551 1963.5 889.818C1969.82 893.125 1979 897.925 1982.36 899.298C1986.08 895.551 1989.52 886.071 1990.96 875.498C1990 874.831 1988.5 873.858 1987.14 872.965C1974.61 864.725 1962.18 856.125 1959.96 849.285C1958.38 844.471 1958.2 840.378 1957.97 835.658C1957.76 830.858 1957.5 825.418 1955.7 817.645C1953.12 806.538 1943.97 801.245 1938.41 799.005L1941.06 815.965C1941.09 816.098 1941.1 816.231 1941.1 816.365C1941.25 822.018 1938.86 827.365 1934.56 831.045C1930.26 834.725 1924.6 836.245 1919.04 835.258L1865.25 825.471C1862.16 824.911 1859.04 825.778 1856.69 827.871C1854.4 829.885 1853.2 832.765 1853.37 835.765C1853.65 840.605 1856.16 845.351 1860.82 849.898C1864.97 853.925 1911.02 887.711 1945.33 881.538C1945.56 881.498 1945.76 881.458 1946 881.458ZM1983.2 905.805C1981.18 905.805 1976.73 903.618 1960.68 895.218C1954.9 892.205 1947.82 888.498 1945.73 887.658C1942.69 888.165 1939.58 888.405 1936.46 888.405C1898.85 888.405 1856.97 854.658 1856.57 854.271C1850.77 848.631 1847.65 842.525 1847.28 836.125C1847 831.245 1848.94 826.565 1852.64 823.298C1856.41 819.965 1861.4 818.578 1866.33 819.471L1920.13 829.245C1923.88 829.925 1927.69 828.898 1930.6 826.418C1933.45 823.978 1935.05 820.445 1935.01 816.698L1931.61 795.058C1931.46 794.071 1931.8 793.071 1932.52 792.378C1933.25 791.698 1934.26 791.405 1935.24 791.605C1936.13 791.778 1957.01 796.298 1961.64 816.271C1963.57 824.578 1963.85 830.565 1964.06 835.378C1964.28 839.831 1964.44 843.365 1965.76 847.391C1967.5 852.765 1983.61 863.351 1990.49 867.871C1996.81 872.018 1997.48 872.445 1997.22 874.578C1995.97 885.498 1991.98 900.045 1984.92 905.111C1984.36 905.511 1983.94 905.805 1983.2 905.805Z" fill="black"/>
<path d="M2223.97 794.616C2228.66 868.256 2203.16 947.536 2112.88 967.536C2040.14 983.642 1982.32 924.096 1961.5 898.442C1956.74 892.589 1975.82 857.749 1982.6 858.842C2006.29 862.696 2009.57 874.362 2038.98 861.442C2081.68 842.682 2091.66 793.776 2090.34 747.816L2223.97 794.616Z" fill="white"/>
<path d="M2090.34 747.817C2089.62 722.444 2085.45 697.977 2081.44 679.977C2079.12 669.564 2076.22 659.417 2073.09 649.884C2067.32 632.311 2138.46 616.057 2151.06 629.59C2166.3 645.95 2182.37 666.684 2196.24 692.084C2210.52 718.257 2221.48 755.644 2223.97 794.617L2090.34 747.817Z" fill="white"/>
<path d="M2087.89 973.352C2025.75 973.352 1978.17 923.832 1959.13 900.378C1954.21 894.312 1963.56 877.058 1966.55 871.912C1973.13 860.525 1978.72 855.112 1983.08 855.832C1990.67 857.072 1996.21 859.058 2001.09 860.832C2011.6 864.605 2018.53 867.098 2037.76 858.658C2072.3 843.472 2088.97 806.218 2087.29 747.898C2087.25 746.218 2088.57 744.818 2090.26 744.765C2091.92 744.791 2093.35 746.045 2093.4 747.725C2095.12 807.912 2076.73 848.192 2040.21 864.245C2018.76 873.672 2010.05 870.538 1999.03 866.565C1994.39 864.898 1989.13 863.005 1982.1 861.858C1980.32 862.312 1974.11 869.752 1968.67 880.885C1963.97 890.472 1963.45 895.618 1963.93 896.605C1982.3 919.245 2028.33 967.232 2087.94 967.232C2095.81 967.232 2103.91 966.405 2112.23 964.565C2231.93 938.045 2224.13 812.658 2218.91 774.858C2218.67 773.178 2219.84 771.645 2221.51 771.418C2223.15 771.165 2224.72 772.352 2224.94 774.018C2236.12 854.605 2212.72 948.552 2113.55 970.512C2104.76 972.458 2096.19 973.338 2087.89 973.352Z" fill="black"/>
<path d="M2090.34 750.875C2088.7 750.875 2087.34 749.555 2087.29 747.902C2086.54 721.728 2082.08 696.875 2078.46 680.648C2076.34 671.088 2073.56 661.062 2070.2 650.835C2069.66 649.235 2070.54 647.515 2072.13 646.982C2073.74 646.448 2075.46 647.328 2075.98 648.928C2079.41 659.342 2082.25 669.568 2084.42 679.315C2088.09 695.808 2092.64 721.062 2093.4 747.728C2093.44 749.422 2092.12 750.822 2090.44 750.875C2090.41 750.875 2090.37 750.875 2090.34 750.875Z" fill="black"/>
<path d="M1928.67 459.808C1926.63 461.021 1924.01 460.168 1923.11 457.941C1918.81 447.421 1911.95 427.034 1897.91 423.794C1879.89 419.634 1850.75 414.275 1848.24 428.501C1846.04 440.981 1848.63 462.514 1835.49 478.128C1834.24 479.621 1835.32 482.008 1836.88 483.195L1845.15 490.168C1846.89 491.488 1848.39 495.928 1848.6 498.128C1849.25 504.901 1856.21 528.448 1858.55 530.314C1863.11 533.941 1885.88 532.528 1885.88 532.528L1898.04 586.168C1898.73 588.554 1897.33 591.048 1894.95 591.648L1873.21 599.035C1873.21 599.035 1890.65 623.501 1945.17 619.808C1980.03 617.448 2005.52 592.888 2005.52 592.888C2005.52 592.888 1937.77 583.275 1928.63 503.181C1928.43 501.421 1929.19 499.688 1930.6 498.621C1936 494.568 1950.56 482.594 1948.01 470.474C1945.31 457.594 1935.68 455.634 1928.67 459.808Z" fill="white"/>
<path d="M1878.7 600.394C1885.58 606.554 1904.98 619.488 1944.97 616.754C1969.98 615.074 1990.26 601.328 1998.9 594.501C1981.56 589.728 1933.25 570.514 1925.59 503.528C1925.27 500.714 1926.49 497.901 1928.75 496.194C1934.35 491.994 1947.13 481.141 1945.02 471.101C1944 466.194 1941.82 462.901 1938.75 461.554C1936.17 460.421 1933.06 460.728 1930.22 462.434C1928.48 463.461 1926.38 463.688 1924.48 463.048C1922.57 462.421 1921.04 460.968 1920.28 459.101L1919.09 456.128C1914.86 445.474 1908.48 429.368 1897.21 426.768C1874.56 421.541 1860.02 420.914 1854.02 424.888C1852.44 425.928 1851.56 427.248 1851.24 429.034C1850.72 432.008 1850.46 435.688 1850.21 439.568C1849.37 451.994 1848.32 467.421 1838.02 479.848C1838.12 480.088 1838.36 480.488 1838.72 480.754L1847.1 487.834C1849.78 489.848 1851.38 495.354 1851.62 497.834C1852.28 504.488 1858.65 525.194 1860.58 528.034C1863.14 529.674 1875.48 530.114 1885.69 529.488C1887.18 529.434 1888.53 530.394 1888.85 531.861L1901.02 585.501C1901.54 587.288 1901.3 589.341 1900.29 591.114C1899.28 592.874 1897.65 594.114 1895.69 594.608L1878.7 600.394ZM1934.17 623.234C1887.3 623.234 1871.42 601.794 1870.72 600.808C1870.16 600.021 1870.01 599.021 1870.3 598.101C1870.6 597.194 1871.32 596.461 1872.22 596.154L1893.96 588.768C1894.65 588.581 1894.89 588.261 1894.98 588.088C1895.09 587.901 1895.25 587.514 1895.12 587.021L1883.48 535.714C1876.08 536.048 1861.1 536.248 1856.65 532.701C1852.84 529.674 1846.08 503.808 1845.56 498.421C1845.36 496.421 1844.02 493.194 1843.29 492.581L1834.9 485.528C1833.33 484.341 1832.14 482.328 1831.93 480.368C1831.76 478.808 1832.18 477.314 1833.16 476.154C1842.36 465.234 1843.33 450.781 1844.12 439.154C1844.4 435.101 1844.65 431.274 1845.24 427.981C1845.84 424.528 1847.66 421.781 1850.65 419.794C1860.72 413.128 1882.83 417.181 1898.58 420.821C1912.97 424.141 1920.06 442.034 1924.75 453.874L1925.93 456.794C1926.05 457.088 1926.26 457.221 1926.42 457.274C1926.58 457.328 1926.82 457.354 1927.1 457.181C1931.66 454.474 1936.8 454.034 1941.21 455.968C1944.65 457.474 1949.16 461.114 1951 469.848C1953.72 482.821 1940.53 494.981 1932.42 501.061C1931.87 501.488 1931.58 502.168 1931.65 502.848C1940.44 579.688 2005.29 589.781 2005.94 589.874C2007.1 590.034 2008.06 590.848 2008.42 591.954C2008.78 593.061 2008.48 594.288 2007.64 595.088C2006.57 596.128 1980.93 620.448 1945.38 622.848C1941.46 623.114 1937.72 623.234 1934.17 623.234Z" fill="black"/>
<path d="M1301.83 2263.07L1319.07 2348.91C1319.65 2351.82 1322.35 2353.78 1324.88 2353.14L1375.27 2340.32C1377.44 2339.78 1378.72 2337.47 1378.24 2334.98L1363.73 2258.26L1301.83 2263.07Z" fill="white"/>
<path d="M1305.51 2265.85L1322.06 2348.31C1322.2 2349.01 1322.62 2349.63 1323.15 2349.97C1323.35 2350.09 1323.74 2350.27 1324.14 2350.19L1374.51 2337.38C1375.1 2337.22 1375.42 2336.42 1375.26 2335.54L1361.24 2261.51L1305.51 2265.85ZM1323.9 2356.31C1322.52 2356.31 1321.15 2355.91 1319.91 2355.14C1317.94 2353.9 1316.55 2351.85 1316.08 2349.51L1298.84 2263.69C1298.67 2262.82 1298.87 2261.94 1299.4 2261.23C1299.92 2260.54 1300.72 2260.1 1301.6 2260.03L1363.5 2255.22C1365.02 2255.13 1366.44 2256.17 1366.74 2257.7L1381.24 2334.41C1382.02 2338.51 1379.78 2342.33 1376.02 2343.29L1325.64 2356.1C1325.07 2356.25 1324.48 2356.31 1323.9 2356.31Z" fill="black"/>
<path d="M1138.21 2165.75L1095.33 2272.92L1145.47 2284.94L1189.13 2222.5L1138.21 2165.75Z" fill="white"/>
<path d="M1099.48 2270.78L1144.17 2281.48L1185.25 2222.74L1139.23 2171.44L1099.48 2270.78ZM1145.48 2287.98C1145.24 2287.98 1145 2287.95 1144.76 2287.9L1094.61 2275.9C1093.76 2275.68 1093.03 2275.11 1092.63 2274.32C1092.21 2273.54 1092.17 2272.62 1092.49 2271.79L1135.39 2164.62C1135.77 2163.63 1136.64 2162.92 1137.68 2162.75C1138.72 2162.55 1139.77 2162.92 1140.48 2163.71L1191.41 2220.46C1192.36 2221.51 1192.45 2223.08 1191.64 2224.24L1147.97 2286.68C1147.4 2287.51 1146.45 2287.98 1145.48 2287.98Z" fill="black"/>
<path d="M1301.12 2311.19C1297.68 2323.54 1290.41 2358.33 1287.37 2379.25C1285.47 2392.38 1293.77 2404.79 1306.47 2408.23C1342.37 2417.94 1428.19 2417.53 1499.64 2420.67C1504.53 2420.9 1513.55 2418.51 1517.56 2406.65C1531.16 2366.45 1456.07 2353.98 1381.83 2313.1C1380.37 2312.3 1378.6 2312.38 1377.24 2313.34C1376.39 2313.95 1375.29 2314.7 1374.01 2315.51C1361.11 2323.73 1339.64 2323.74 1326.53 2315.86L1311.72 2306.95C1307.65 2304.51 1302.41 2306.61 1301.12 2311.19Z" fill="white"/>
<path d="M1304.07 2312.01C1300.57 2324.53 1293.32 2359.6 1290.4 2379.69C1288.72 2391.22 1295.97 2402.24 1307.27 2405.29C1333.61 2412.42 1386.77 2414.01 1443.05 2415.68C1461.93 2416.25 1481.44 2416.82 1499.77 2417.64C1501.57 2417.72 1510.68 2417.5 1514.67 2405.68C1523.24 2380.33 1490.8 2366.28 1445.89 2346.82C1425.79 2338.12 1403 2328.25 1380.36 2315.78C1379.91 2315.54 1379.4 2315.56 1379.01 2315.84C1378.12 2316.46 1376.99 2317.25 1375.65 2318.09C1361.91 2326.84 1339.16 2327.01 1324.96 2318.48L1310.15 2309.57C1309.04 2308.9 1307.72 2308.78 1306.52 2309.26C1305.32 2309.74 1304.41 2310.74 1304.07 2312.01ZM1500.25 2423.74C1500 2423.74 1499.76 2423.74 1499.51 2423.73C1481.21 2422.93 1461.72 2422.34 1442.88 2421.78C1386.23 2420.09 1332.72 2418.5 1305.67 2411.18C1291.4 2407.32 1282.24 2393.41 1284.36 2378.81C1287.39 2357.97 1294.61 2323.18 1298.19 2310.38C1299.05 2307.26 1301.28 2304.78 1304.27 2303.6C1307.24 2302.41 1310.53 2302.68 1313.29 2304.33L1328.11 2313.25C1340.31 2320.58 1360.59 2320.45 1372.39 2312.94C1373.61 2312.16 1374.65 2311.45 1375.47 2310.86C1377.79 2309.21 1380.79 2309.05 1383.31 2310.44C1405.69 2322.77 1428.33 2332.57 1448.32 2341.24C1496.21 2361.97 1530.83 2376.96 1520.45 2407.64C1516.41 2419.57 1507.23 2423.74 1500.25 2423.74Z" fill="black"/>
<path d="M1285.21 2388.72C1285.14 2389.08 1285.09 2389.33 1285.08 2389.44C1283.17 2402.57 1295.64 2410.64 1307.56 2416.24C1342.93 2432.84 1485.77 2429.36 1491.29 2429.05C1521.46 2427.4 1518.22 2400.4 1517.56 2397.44C1517.01 2395.01 1514.62 2393.51 1512.25 2394.11C1485.73 2400.89 1423.54 2405.32 1361.96 2396.33C1339.25 2393.01 1302.96 2382.83 1293.42 2377.13C1290.82 2375.57 1287.5 2377.08 1286.92 2380.08C1286.42 2382.57 1285.82 2385.61 1285.21 2388.72Z" fill="white"/>
<path d="M1288.21 2389.3L1288.09 2389.9C1286.8 2398.86 1293.2 2406.14 1308.85 2413.49C1341.94 2429.02 1477.57 2426.75 1491.12 2426.02C1500.02 2425.53 1506.54 2422.65 1510.48 2417.45C1515.88 2410.3 1515.09 2400.38 1514.57 2398.1C1514.46 2397.59 1514.14 2397.33 1513.96 2397.22C1513.76 2397.1 1513.44 2396.97 1513 2397.07C1483.57 2404.61 1420.46 2407.97 1361.52 2399.35C1338.26 2395.97 1301.81 2385.7 1291.86 2379.75C1291.37 2379.46 1290.92 2379.58 1290.69 2379.67C1290.45 2379.78 1290.02 2380.06 1289.9 2380.67L1288.21 2389.3ZM1452.14 2432.59C1405.54 2432.59 1331.06 2430.65 1306.26 2419.01C1294.78 2413.62 1279.78 2404.65 1282.05 2389.01C1282.08 2388.87 1282.13 2388.58 1282.21 2388.14H1282.22L1283.92 2379.49C1284.4 2377.1 1286 2375.09 1288.21 2374.1C1290.4 2373.14 1292.93 2373.29 1295 2374.51C1304.25 2380.06 1340.16 2390.07 1362.4 2393.31C1427.64 2402.83 1488.46 2397.05 1511.49 2391.17C1513.42 2390.67 1515.44 2390.97 1517.14 2392.02C1518.88 2393.09 1520.08 2394.77 1520.53 2396.77C1520.56 2396.91 1523.33 2410.57 1515.34 2421.13C1510.28 2427.82 1502.24 2431.51 1491.45 2432.1C1491 2432.13 1474.89 2432.59 1452.14 2432.59Z" fill="black"/>
<path d="M1386.92 2348.65C1386 2348.65 1385.09 2348.24 1384.49 2347.45C1383.47 2346.12 1383.73 2344.2 1385.07 2343.17L1406.75 2326.68C1408.08 2325.65 1410 2325.92 1411.01 2327.25C1412.04 2328.6 1411.77 2330.5 1410.44 2331.53L1388.77 2348.04C1388.21 2348.45 1387.56 2348.65 1386.92 2348.65Z" fill="black"/>
<path d="M1415.72 2360.45C1414.79 2360.45 1413.87 2360.03 1413.27 2359.23C1412.27 2357.89 1412.53 2355.97 1413.88 2354.97L1432.84 2340.74C1434.19 2339.73 1436.11 2339.99 1437.11 2341.34C1438.12 2342.69 1437.85 2344.61 1436.49 2345.62L1417.55 2359.85C1416.99 2360.25 1416.35 2360.45 1415.72 2360.45Z" fill="black"/>
<path d="M1148.65 2270.05L1104.03 2263.58C1097.39 2262.62 1090.91 2266.11 1088.05 2272.17L1059.92 2331.86C1055.07 2342.34 1058.92 2355.93 1068.73 2362.13C1081.51 2370.22 1100.59 2380.75 1122.52 2387.79C1163.87 2401.09 1205.13 2439.21 1240.69 2420.47C1276.24 2401.73 1273.89 2400.34 1275.67 2387.5C1277.44 2374.66 1242.2 2349.39 1218.37 2332.77C1198.91 2319.18 1148.65 2270.05 1148.65 2270.05Z" fill="white"/>
<path d="M1101.8 2266.47C1097.13 2266.47 1092.85 2269.14 1090.81 2273.47L1062.68 2333.15C1058.43 2342.34 1061.88 2354.18 1070.36 2359.55C1082.48 2367.23 1101.53 2377.84 1123.45 2384.9C1136.73 2389.16 1150 2395.95 1162.84 2402.51C1190.35 2416.58 1216.33 2429.86 1239.27 2417.76C1270.91 2401.1 1271.15 2399.12 1272.31 2389.68C1272.41 2388.87 1272.52 2388 1272.64 2387.08C1274.25 2375.47 1232.39 2346.26 1216.63 2335.26C1198.21 2322.42 1153.67 2279.19 1147.23 2272.92L1103.59 2266.6C1102.99 2266.51 1102.39 2266.47 1101.8 2266.47ZM1219.85 2428.56C1200.39 2428.56 1179.99 2418.12 1160.07 2407.95C1147.44 2401.5 1134.39 2394.82 1121.59 2390.7C1099.05 2383.46 1079.52 2372.56 1067.09 2364.71C1056.12 2357.76 1051.65 2342.44 1057.15 2330.58L1085.29 2270.87C1088.75 2263.55 1096.45 2259.39 1104.45 2260.56L1149.09 2267.02C1149.73 2267.11 1150.32 2267.4 1150.79 2267.86C1151.28 2268.35 1201.08 2316.98 1220.12 2330.26C1256.55 2355.67 1280.45 2375.22 1278.69 2387.92C1278.57 2388.8 1278.47 2389.64 1278.37 2390.43C1276.88 2402.46 1275.4 2405.62 1242.11 2423.16C1234.89 2426.98 1227.44 2428.56 1219.85 2428.56Z" fill="black"/>
<path d="M1166.97 2330.18C1165.97 2330.18 1165 2329.69 1164.41 2328.79C1163.49 2327.38 1163.89 2325.49 1165.3 2324.57L1190.46 2308.21C1191.88 2307.29 1193.77 2307.69 1194.69 2309.1C1195.61 2310.51 1195.21 2312.41 1193.8 2313.33L1168.62 2329.69C1168.12 2330.02 1167.54 2330.18 1166.97 2330.18Z" fill="black"/>
<path d="M1184.87 2348.94C1183.87 2348.94 1182.89 2348.44 1182.31 2347.55C1181.39 2346.14 1181.79 2344.24 1183.2 2343.32L1208.36 2326.96C1209.77 2326.03 1211.67 2326.44 1212.59 2327.86C1213.51 2329.27 1213.11 2331.16 1211.69 2332.07L1186.52 2348.44C1186.01 2348.78 1185.44 2348.94 1184.87 2348.94Z" fill="black"/>
<path d="M1273.24 2397.11C1273.24 2397.11 1245.26 2417.5 1214.46 2406.84C1183.68 2396.2 1059.92 2331.03 1059.92 2331.03L1053.53 2345.03C1050.29 2352.14 1053.06 2360.58 1059.89 2364.42C1090.72 2381.79 1173.01 2426.04 1215.84 2428.96C1269.18 2432.6 1273.24 2397.11 1273.24 2397.11Z" fill="white"/>
<path d="M1061.36 2335.23L1056.31 2346.3C1053.75 2351.93 1055.97 2358.71 1061.39 2361.77C1093.95 2380.1 1174.2 2423.07 1216.04 2425.93C1250.89 2428.29 1263.47 2413.27 1267.89 2403.9C1257.31 2409.5 1236.28 2417.62 1213.48 2409.74C1185.05 2399.91 1080.51 2345.29 1061.36 2335.23ZM1223.21 2432.27C1220.8 2432.27 1218.27 2432.19 1215.63 2432.01C1172.53 2429.07 1091.32 2385.62 1058.4 2367.09C1050.24 2362.49 1046.88 2352.25 1050.76 2343.78L1057.15 2329.77C1057.49 2329.01 1058.15 2328.42 1058.93 2328.14C1059.73 2327.87 1060.6 2327.94 1061.35 2328.33C1062.57 2328.98 1185.25 2393.53 1215.47 2403.97C1244.41 2413.97 1271.17 2394.85 1271.44 2394.65C1272.43 2393.94 1273.73 2393.87 1274.77 2394.47C1275.83 2395.09 1276.41 2396.26 1276.27 2397.46C1276.23 2397.82 1271.71 2432.27 1223.21 2432.27Z" fill="black"/>
<path d="M1185.89 1715.07C1185.89 1715.07 1448.77 1814.27 1448.97 1879.11C1449.38 2004.75 1211.57 2259.23 1211.57 2259.23C1211.18 2260.65 1107.88 2202.26 1107.88 2200.46L1187.01 2027.86C1218.24 1960.53 1280.7 1922.06 1255.24 1898.39C1232.05 1876.87 1103.18 1887.99 1037.04 1885.69C919.537 1881.59 920.657 1710.3 920.657 1710.3L1185.89 1715.07Z" fill="#34B75C"/>
<path d="M1349.61 1927.85C1366.2 1989.9 1381.97 2176.59 1385.61 2280.99C1385.65 2282.43 1279.85 2283.45 1279.64 2281.57C1278.59 2272.38 1200.37 1989.66 1156.69 1914.9C1133.49 1875.19 983.812 1886.57 950.425 1879.94C861.28 1862.23 867.125 1682.27 867.125 1682.27L1284.47 1848.95C1320.15 1854.38 1340.2 1892.69 1349.61 1927.85Z" fill="#10C469"/>
<path d="M1256.64 2219.12C1255.99 2219.12 1255.32 2218.91 1254.76 2218.47C1253.44 2217.43 1253.2 2215.51 1254.24 2214.19L1343.33 2100.34C1344.37 2099.02 1346.29 2098.78 1347.61 2099.82C1348.95 2100.86 1349.19 2102.78 1348.15 2104.1L1259.04 2217.95C1258.44 2218.72 1257.55 2219.12 1256.64 2219.12Z" fill="black"/>
<path d="M1176.27 1457.12L1382 1456.58C1391.11 1456.57 1399.04 1450.34 1401.23 1441.49L1465.48 1178.02C1468.56 1165.51 1459.08 1153.42 1446.19 1153.44L1240.47 1153.99C1231.35 1154.01 1223.42 1160.23 1221.24 1169.09L1156.98 1432.55C1153.9 1445.06 1163.38 1457.14 1176.27 1457.12Z" fill="white"/>
<path d="M1446.22 1156.5C1446.21 1156.5 1446.2 1156.5 1446.2 1156.5L1240.46 1157.05C1232.73 1157.06 1226.05 1162.31 1224.2 1169.81L1159.94 1433.27C1158.69 1438.33 1159.82 1443.57 1163.04 1447.66C1166.24 1451.74 1171.05 1454.07 1176.24 1454.07H1176.25L1381.98 1453.53C1389.72 1453.51 1396.41 1448.26 1398.26 1440.75L1462.52 1177.3C1463.76 1172.25 1462.62 1167.01 1459.42 1162.91C1456.21 1158.83 1451.41 1156.5 1446.22 1156.5ZM1176.24 1460.18C1169.16 1460.18 1162.6 1456.98 1158.24 1451.42C1153.85 1445.85 1152.32 1438.7 1154.01 1431.82L1218.26 1168.35C1220.8 1158.11 1229.92 1150.95 1240.45 1150.94L1446.18 1150.39C1446.2 1150.39 1446.21 1150.39 1446.21 1150.39C1453.29 1150.39 1459.85 1153.58 1464.22 1159.14C1468.6 1164.73 1470.13 1171.87 1468.44 1178.75L1404.18 1442.21C1401.66 1452.45 1392.53 1459.61 1382 1459.62L1176.28 1460.18C1176.26 1460.17 1176.25 1460.18 1176.24 1460.18Z" fill="black"/>
<path d="M1373.77 1403.28L1387.33 1354.61C1387.33 1354.61 1398.19 1317.53 1407.77 1313.32C1414.83 1310.21 1418.05 1324.63 1415.07 1342.19C1414.56 1345.09 1418.45 1346.51 1419.91 1343.95C1425.63 1333.84 1431.71 1321.93 1432.71 1315.55C1434.65 1303.04 1439.48 1277.27 1450.88 1280.81C1462.29 1284.37 1479.47 1326.49 1460.6 1359.47C1441.75 1392.44 1402.33 1421.05 1402.33 1421.05L1373.77 1403.28Z" fill="white"/>
<path d="M1377.32 1401.9L1402.18 1417.37C1409.76 1411.59 1441.8 1386.21 1457.96 1357.97C1469.35 1338.06 1466.94 1314.51 1460.88 1299.11C1457.2 1289.74 1452.64 1284.57 1449.98 1283.74C1448.86 1283.38 1447.91 1283.5 1446.92 1284.13C1443.78 1286.07 1439.3 1293.19 1435.72 1316.02C1434.84 1321.66 1430.42 1331.57 1422.56 1345.45C1421.19 1347.89 1418.39 1348.94 1415.75 1348.01C1413.1 1347.06 1411.58 1344.46 1412.06 1341.67C1414.52 1327.23 1412.32 1317.9 1410.07 1316.14C1409.86 1315.98 1409.67 1315.82 1409 1316.11C1403.3 1318.63 1394.6 1340.65 1390.27 1355.47L1377.32 1401.9ZM1402.34 1424.1C1401.78 1424.1 1401.22 1423.95 1400.72 1423.65L1372.16 1405.88C1371.02 1405.16 1370.47 1403.77 1370.83 1402.46L1384.4 1353.79C1386.28 1347.34 1396.19 1315.09 1406.55 1310.54C1409.12 1309.4 1411.71 1309.69 1413.82 1311.33C1419.66 1315.89 1420 1329.29 1418.44 1340.34C1426.8 1325.3 1429.19 1318.32 1429.7 1315.09C1432.94 1294.36 1437.38 1282.87 1443.7 1278.94C1446.18 1277.39 1448.98 1277.04 1451.79 1277.92C1457.02 1279.54 1462.54 1286.62 1466.56 1296.88C1473.14 1313.6 1475.71 1339.21 1463.26 1360.99C1444.28 1394.15 1405.76 1422.34 1404.12 1423.53C1403.6 1423.91 1402.96 1424.1 1402.34 1424.1Z" fill="black"/>
<path d="M840.398 1397.28C840.398 1397.28 836.816 1278.83 922.605 1255.46C954.535 1246.76 1036.61 1243.47 1083.41 1256.55C1103.69 1262.22 1125.2 1277.27 1138.05 1288.95C1194.71 1340.42 1201.08 1489.67 1250.08 1485.59C1266.53 1484.22 1365.51 1386.58 1365.51 1386.58L1431 1419.63C1431 1419.63 1379.65 1556.02 1292.67 1630.31C1276.28 1644.48 1253.11 1647.39 1233.75 1637.74C1202.35 1622.08 1155.29 1596.87 1126.07 1573.06C1115.31 1610.22 1124.89 1650.75 1151.39 1679.39C1159.33 1687.99 1167.95 1695.88 1177.01 1702.32C1185.95 1708.67 1188.05 1721.19 1181.93 1730.31C1172.05 1744.99 1152.33 1761.88 1114.69 1757.92C1065.25 1752.72 924.454 1753.28 862.284 1753.82C845.788 1753.96 832.468 1740.3 832.852 1723.64L840.398 1397.28Z" fill="white"/>
<path d="M936.65 1750.44C1001.78 1750.44 1080.62 1751.27 1115.01 1754.88C1151.05 1758.68 1169.92 1742.68 1179.4 1728.6C1184.62 1720.83 1182.77 1710.15 1175.25 1704.82C1166.52 1698.6 1157.73 1690.75 1149.14 1681.46C1122.06 1652.19 1112.09 1610.32 1123.13 1572.2C1123.41 1571.22 1124.17 1570.44 1125.14 1570.14C1126.12 1569.83 1127.18 1570.04 1127.98 1570.68C1156.49 1593.92 1201.98 1618.48 1235.12 1635.02C1253.4 1644.12 1275.21 1641.38 1290.66 1628C1369.58 1560.6 1419.58 1440.12 1427.14 1421.1L1366.09 1390.28C1350.48 1405.63 1266.73 1487.26 1250.33 1488.63C1221.88 1491 1207.69 1449.2 1191.24 1400.83C1177.52 1360.5 1161.96 1314.79 1136 1291.2C1123.68 1280.02 1102.3 1264.99 1082.58 1259.48C1035.86 1246.44 955.077 1249.78 923.402 1258.4C840.887 1280.88 843.409 1396.03 843.442 1397.19C843.445 1397.24 843.445 1397.3 843.442 1397.35L835.897 1723.72C835.73 1731 838.435 1737.84 843.515 1743C848.514 1748.07 855.155 1750.82 862.251 1750.76C880.702 1750.62 907.289 1750.44 936.65 1750.44ZM1125.58 1761.56C1122.02 1761.56 1118.29 1761.36 1114.37 1760.95C1064.78 1755.75 921.57 1756.36 862.306 1756.87C853.577 1756.96 845.339 1753.54 839.17 1747.28C832.919 1740.95 829.591 1732.52 829.798 1723.58L837.341 1397.28C837.258 1393.32 835.733 1275.96 921.799 1252.52C954.117 1243.72 1036.56 1240.3 1084.22 1253.62C1104.94 1259.39 1126.68 1274.5 1140.1 1286.68C1167.22 1311.34 1183.05 1357.83 1197.01 1398.86C1212.65 1444.82 1226.13 1484.43 1249.82 1482.55C1261.01 1481.62 1325.4 1421.86 1363.36 1384.4C1364.29 1383.48 1365.7 1383.27 1366.88 1383.86L1432.37 1416.91C1433.76 1417.6 1434.4 1419.24 1433.85 1420.71C1433.33 1422.07 1381.22 1558.68 1294.64 1632.63C1277.33 1647.6 1252.89 1650.7 1232.38 1640.47C1200.36 1624.5 1156.85 1601.04 1127.81 1578.35C1119.34 1613.2 1129.04 1650.74 1153.62 1677.32C1161.93 1686.3 1170.4 1693.88 1178.78 1699.83C1188.97 1707.08 1191.52 1721.51 1184.45 1732C1175.09 1745.94 1157.46 1761.56 1125.58 1761.56Z" fill="black"/>
<path d="M1127.01 1576.86C1126.36 1576.86 1125.69 1576.65 1125.13 1576.22C1116.48 1569.43 1090.13 1544.98 1076.28 1524.67C1075.33 1523.27 1075.69 1521.38 1077.08 1520.43C1078.48 1519.49 1080.37 1519.83 1081.32 1521.23C1094.8 1540.98 1120.47 1564.81 1128.91 1571.41C1130.23 1572.45 1130.47 1574.37 1129.43 1575.69C1128.81 1576.46 1127.92 1576.86 1127.01 1576.86Z" fill="black"/>
<path d="M1090 1069.45C1090 1069.45 1103.58 1090.3 1104.24 1107.43C1104.41 1111.95 1106.13 1126.45 1117.09 1142.39C1118.16 1143.93 1117.89 1146.01 1116.46 1147.25L1105.72 1156.62C1104.97 1157.26 1104.54 1158.18 1104.52 1159.14C1104.42 1165.18 1101.21 1195.82 1100.44 1199.97C1099.54 1204.78 1095.62 1208.99 1093.68 1210.02C1088.57 1212.7 1066.58 1209.66 1066.58 1209.66C1066.58 1209.66 1063.44 1201.83 1051.5 1233.05C1038.62 1266.75 1064.42 1279.83 1064.42 1279.83C1074.1 1285.03 1072.56 1294.69 1061.98 1297.93C1025.5 1309.1 954.678 1321.19 913.55 1290.11C905.835 1284.29 909.014 1277.63 915.721 1276.62C1003.86 1263.25 968.345 1151.94 970.398 1151.43C975.625 1150.1 1005.92 1118.9 1023.56 1110.11C1035.58 1104.13 1050 1113.14 1059.82 1103.99L1090 1069.45Z" fill="white"/>
<path d="M973.584 1153.25C973.744 1154.14 973.971 1155.31 974.198 1156.46C977.264 1172.35 986.638 1220.7 964.411 1252.19C953.864 1267.15 937.638 1276.38 916.179 1279.63C914.084 1279.95 912.51 1281.03 912.168 1282.37C911.786 1283.89 912.99 1285.87 915.387 1287.69C961.971 1322.87 1044.93 1299.97 1061.09 1295.01C1064.98 1293.82 1067.56 1291.51 1067.8 1288.99C1068.02 1286.66 1066.28 1284.3 1062.97 1282.53C1062.76 1282.42 1034.96 1267.82 1048.66 1231.95C1057.45 1208.95 1061.84 1205.77 1065.28 1205.73C1065.29 1205.73 1065.3 1205.73 1065.32 1205.73C1066.46 1205.73 1067.42 1206.17 1068.16 1206.79C1078.05 1208.09 1089.74 1208.65 1092.26 1207.31C1093.49 1206.67 1096.73 1203.21 1097.44 1199.41C1098.13 1195.67 1101.37 1165.09 1101.46 1159.09C1101.5 1157.26 1102.32 1155.53 1103.7 1154.31L1114.46 1144.94C1114.72 1144.73 1114.77 1144.38 1114.58 1144.13C1102.49 1126.53 1101.3 1110.57 1101.18 1107.54C1100.73 1095.46 1093.28 1081.09 1089.54 1074.61L1062.13 1106.01C1062.06 1106.09 1061.98 1106.15 1061.9 1106.23C1055.58 1112.11 1047.94 1111.65 1040.56 1111.18C1034.96 1110.82 1029.65 1110.49 1024.92 1112.85C1014.89 1117.83 999.891 1130.98 988.944 1140.57C980.744 1147.75 976.371 1151.51 973.584 1153.25ZM985.104 1312.95C959.398 1312.95 932.311 1308.11 911.71 1292.55C907.223 1289.15 905.232 1284.9 906.255 1280.87C907.212 1277.09 910.666 1274.3 915.263 1273.61C935.015 1270.61 949.878 1262.22 959.424 1248.69C980.158 1219.3 971.158 1172.87 968.198 1157.62C967.024 1151.53 966.584 1149.25 969.638 1148.47C971.384 1147.85 978.571 1141.54 984.918 1135.98C996.744 1125.62 1011.46 1112.73 1022.2 1107.38C1028.4 1104.3 1035.06 1104.71 1040.94 1105.09C1047.54 1105.5 1053.24 1105.86 1057.64 1101.86L1087.7 1067.43C1088.33 1066.71 1089.26 1066.33 1090.21 1066.41C1091.17 1066.47 1092.04 1066.98 1092.56 1067.78C1093.13 1068.66 1106.61 1089.55 1107.29 1107.31C1107.38 1110.03 1108.48 1124.46 1119.61 1140.66C1121.54 1143.47 1121.05 1147.29 1118.48 1149.54L1107.72 1158.91C1107.65 1158.98 1107.57 1159.07 1107.57 1159.19C1107.46 1165.07 1104.29 1195.99 1103.44 1200.54C1102.38 1206.18 1097.92 1211.25 1095.1 1212.71C1089.56 1215.63 1071.54 1213.42 1066.16 1212.67C1065.78 1212.62 1065.42 1212.5 1065.1 1212.33C1063.73 1213.74 1060.34 1218.49 1054.36 1234.14C1042.6 1264.93 1064.85 1276.63 1065.8 1277.11C1071.36 1280.1 1074.34 1284.75 1073.88 1289.59C1073.37 1294.69 1069.26 1298.89 1062.88 1300.85C1053.22 1303.79 1020.48 1312.95 985.104 1312.95Z" fill="black"/>
<path d="M1047.2 1152.65C1039.68 1152.65 1029.66 1149.18 1024.5 1136.09C1021.08 1127.41 1022.41 1119.68 1028.06 1115.42C1033.89 1111.05 1042.68 1111.62 1049.45 1116.82C1051.96 1118.76 1054.97 1123.61 1055.54 1124.57C1056.42 1126.01 1055.96 1127.89 1054.52 1128.76C1053.08 1129.62 1051.2 1129.17 1050.32 1127.73C1049.13 1125.76 1046.92 1122.57 1045.74 1121.66C1041.2 1118.17 1035.32 1117.61 1031.74 1120.29C1028.36 1122.84 1027.78 1127.78 1030.18 1133.85C1036.5 1149.92 1050.82 1146.17 1051.44 1146C1053.04 1145.56 1054.73 1146.5 1055.18 1148.12C1055.64 1149.73 1054.72 1151.41 1053.09 1151.88C1051.49 1152.33 1049.45 1152.65 1047.2 1152.65Z" fill="black"/>
<path d="M1113.4 1023.27C1106.65 1011.66 1099.35 1001.67 1076.79 996.977C1061.34 993.751 1035.98 1004.9 1023.41 1017.94C1022.36 1019.03 1020.7 1019.04 1019.85 1017.94C1017.22 1014.55 1010.97 1006.86 1005.35 1006.12C989.115 1004 972.235 1024.88 966.195 1035.64C961.782 1043.51 954.288 1061.31 950.382 1082.06C950.142 1083.36 948.942 1084.31 947.662 1084.18C942.768 1083.66 932.954 1083.56 924.162 1089.92C908.486 1101.24 909.982 1118.12 910.139 1120.18C911.983 1144.22 936.182 1162.22 954.582 1172.04C967.062 1178.72 971.768 1179.71 979.128 1181.5C979.555 1181.6 980.008 1181.58 980.422 1181.44C986.955 1182.47 998.048 1183.1 1010.46 1178.94C1030.18 1172.34 1029.06 1139.72 1029.06 1139.72L1026.66 1133.55C1025.21 1129.82 1025.03 1125.6 1026.59 1121.91C1031.35 1110.63 1048.38 1119.34 1049.01 1119.22C1081.29 1112.88 1092.77 1103.59 1098.69 1097.23C1119.9 1074.47 1129.73 1051.39 1113.4 1023.27Z" fill="black"/>
<path d="M1170.49 2352.82H1045.12V1892.88H979.627V2352.82H854.251C814.27 2352.82 781.859 2385.23 781.859 2425.2V2436.03H1242.89V2425.2C1242.89 2385.23 1210.48 2352.82 1170.49 2352.82Z" fill="white"/>
<path d="M784.907 2432.98H1239.84V2425.21C1239.84 2386.98 1208.73 2355.87 1170.49 2355.87H1045.12C1043.44 2355.87 1042.06 2354.5 1042.06 2352.82V1895.94H982.678V2352.82C982.678 2354.5 981.305 2355.87 979.625 2355.87H854.249C816.013 2355.87 784.907 2386.98 784.907 2425.21V2432.98ZM1242.89 2439.09H781.857C780.171 2439.09 778.805 2437.73 778.805 2436.03V2425.21C778.805 2383.61 812.649 2349.77 854.249 2349.77H976.571V1892.89C976.571 1891.21 977.945 1889.83 979.625 1889.83H1045.12C1046.8 1889.83 1048.17 1891.21 1048.17 1892.89V2349.77H1170.49C1212.09 2349.77 1245.93 2383.61 1245.93 2425.21V2436.03C1245.93 2437.73 1244.57 2439.09 1242.89 2439.09Z" fill="black"/>
<path d="M816.836 1407.5H849.784C937.629 1407.5 1013.63 1469.23 1032.4 1555.86L1070.75 1732.79C1079.71 1774.19 1116.04 1803.7 1158.03 1803.7H1227.28C1263.48 1803.7 1292.83 1833.32 1292.83 1869.87C1292.83 1906.42 1263.48 1936.03 1227.28 1936.03H1114.79L1114.86 1936.34H916.948C847.686 1936.34 787.769 1887.66 772.968 1819.36L712.158 1538.76C697.54 1471.31 748.43 1407.5 816.836 1407.5Z" fill="white"/>
<path d="M816.831 1410.55C785.385 1410.55 755.963 1424.67 736.11 1449.28C715.961 1474.27 708.314 1506.64 715.137 1538.12L775.945 1818.71C790.331 1885.11 849.63 1933.3 916.945 1933.3H1113.46C1113.86 1933.1 1114.32 1932.99 1114.78 1932.99H1227.28C1261.73 1932.99 1289.77 1904.67 1289.77 1869.87C1289.77 1835.07 1261.73 1806.75 1227.28 1806.75H1158.02C1114.92 1806.75 1076.96 1775.91 1067.76 1733.43L1029.41 1556.51C1011.09 1471.94 935.531 1410.55 849.779 1410.55H816.831ZM1114.85 1939.39H916.945C846.779 1939.39 784.973 1889.18 769.981 1820L709.171 1539.42C701.959 1506.12 710.046 1471.88 731.361 1445.44C752.378 1419.39 783.531 1404.44 816.831 1404.44H849.779C892.965 1404.44 935.275 1419.5 968.918 1446.83C1002.54 1474.15 1026.16 1512.64 1035.38 1555.22L1073.72 1732.14C1082.32 1771.84 1117.77 1800.64 1158.02 1800.64H1227.28C1265.1 1800.64 1295.88 1831.7 1295.88 1869.87C1295.88 1908.03 1265.1 1939.08 1227.28 1939.08H1116.18C1115.77 1939.28 1115.32 1939.39 1114.85 1939.39Z" fill="black"/>
<path d="M384.107 2289.11L378.422 2353.69L439.834 2353.99L450.689 2289.57L384.107 2289.11Z" fill="white"/>
<path d="M381.747 2350.66L437.253 2350.92L447.081 2292.59L386.895 2292.18L381.747 2350.66ZM439.83 2357.03C439.826 2357.03 439.819 2357.03 439.814 2357.03L378.402 2356.74C377.549 2356.74 376.737 2356.36 376.162 2355.74C375.589 2355.11 375.303 2354.27 375.379 2353.42L381.065 2288.84C381.203 2287.27 382.523 2286.06 384.103 2286.06C384.109 2286.06 384.117 2286.06 384.125 2286.06L450.706 2286.51C451.599 2286.51 452.445 2286.91 453.021 2287.59C453.595 2288.28 453.841 2289.18 453.693 2290.07L442.838 2354.5C442.59 2355.96 441.318 2357.03 439.83 2357.03Z" fill="black"/>
<path d="M558.206 2289.11L552.125 2364.63L613.032 2364.92L628.892 2289.56L558.206 2289.11Z" fill="white"/>
<path d="M555.425 2361.59L610.555 2361.87L625.132 2292.59L561.015 2292.18L555.425 2361.59ZM613.027 2367.98C613.023 2367.98 613.017 2367.98 613.012 2367.98L552.105 2367.68C551.256 2367.67 550.447 2367.31 549.872 2366.7C549.299 2366.07 549.012 2365.23 549.08 2364.39L555.16 2288.87C555.287 2287.28 556.611 2286.06 558.201 2286.06C558.207 2286.06 558.213 2286.06 558.22 2286.06L628.906 2286.51C629.822 2286.51 630.685 2286.94 631.26 2287.64C631.835 2288.36 632.06 2289.28 631.871 2290.19L616.012 2365.55C615.716 2366.96 614.469 2367.98 613.027 2367.98Z" fill="black"/>
<path d="M619.072 2345.91H554.171C549.568 2345.91 545.421 2348.3 543.671 2351.99C537.915 2364.14 526.193 2392.51 527.769 2419.43C528.2 2426.79 535.245 2432.55 543.735 2432.55H734.172C742.929 2432.55 749.583 2425.61 747.829 2418.17C745.727 2409.25 738.487 2397.53 717.604 2386.98C683.797 2369.91 641.307 2352.86 627.908 2347.57C625.131 2346.47 622.123 2345.91 619.072 2345.91Z" fill="white"/>
<path d="M554.172 2348.96C550.772 2348.96 547.66 2350.71 546.429 2353.29C541.217 2364.29 529.264 2392.72 530.816 2419.25C531.152 2425 536.828 2429.49 543.735 2429.49H734.172C737.852 2429.49 741.265 2427.96 743.3 2425.39C744.84 2423.44 745.393 2421.12 744.86 2418.85C742.285 2407.93 732.385 2397.85 716.231 2389.71C682.357 2372.6 639.209 2355.29 626.791 2350.4C624.353 2349.44 621.756 2348.96 619.072 2348.96H554.172ZM734.172 2435.6H543.735C533.6 2435.6 525.251 2428.57 524.725 2419.61C523.089 2391.67 535.503 2362.11 540.916 2350.68C543.169 2345.93 548.373 2342.85 554.172 2342.85H619.072C622.527 2342.85 625.876 2343.48 629.029 2344.72C641.507 2349.65 684.872 2367.04 718.98 2384.25C741.487 2395.61 748.705 2408.59 750.799 2417.45C751.769 2421.57 750.806 2425.73 748.084 2429.17C744.902 2433.2 739.7 2435.6 734.172 2435.6Z" fill="black"/>
<path d="M440.993 2345.74H376.093C371.489 2345.74 367.343 2348.14 365.593 2351.83C359.837 2363.98 348.115 2392.35 349.691 2419.27C350.121 2426.62 357.167 2432.39 365.655 2432.39H556.094C564.85 2432.39 571.505 2425.44 569.75 2418C567.649 2409.08 560.409 2397.36 539.526 2386.82C505.719 2369.75 463.229 2352.68 449.83 2347.4C447.053 2346.31 444.045 2345.74 440.993 2345.74Z" fill="white"/>
<path d="M376.087 2348.79C372.687 2348.79 369.575 2350.54 368.344 2353.14C363.132 2364.12 351.178 2392.56 352.732 2419.08C353.067 2424.83 358.743 2429.34 365.65 2429.34H556.087C559.768 2429.34 563.182 2427.79 565.216 2425.23C566.755 2423.28 567.308 2420.96 566.775 2418.7C564.202 2407.78 554.302 2397.7 538.146 2389.54C504.171 2372.39 461.098 2355.12 448.706 2350.24C446.268 2349.28 443.671 2348.79 440.987 2348.79H376.087ZM556.087 2435.43H365.65C355.515 2435.43 347.166 2428.42 346.639 2419.44C345.006 2391.51 357.418 2361.94 362.83 2350.52C365.083 2345.76 370.288 2342.7 376.087 2342.7H440.987C444.44 2342.7 447.791 2343.32 450.944 2344.56C463.396 2349.47 506.69 2366.83 540.895 2384.1C563.403 2395.46 570.622 2408.42 572.714 2417.3C573.684 2421.42 572.72 2425.58 569.999 2429.02C566.818 2433.03 561.616 2435.43 556.087 2435.43Z" fill="black"/>
<path d="M534.941 1894.71C553.478 1983.54 479.974 2226.5 464.565 2285.71C462.546 2293.47 455.766 2298.86 448.027 2298.86H379.546C370.022 2298.86 362.325 2290.82 362.414 2280.93C363.046 2210.67 375.25 1954.53 333.382 1880.79C309.142 1838.1 243.199 1818.85 213.513 1798.53C142.257 1749.77 169.082 1641.79 169.082 1641.79L441.795 1786.41C493.933 1812.49 526.953 1856.45 534.941 1894.71Z" fill="#34B75C"/>
<path d="M411.32 1669.73C411.32 1669.73 646.264 1671.93 720.346 1764.26C786.927 1847.26 674.632 2212.62 653.964 2285.76C651.822 2293.33 645.134 2298.52 637.528 2298.52H549.263C547.403 2298.52 545.896 2296.96 545.896 2295.02L559.483 1907.89C559.483 1883.5 547.768 1860.58 528.031 1847.36C500.37 1828.84 453.666 1804.09 384.524 1804.62C164.951 1806.33 203.991 1666.56 203.991 1666.56L411.32 1669.73Z" fill="#10C469"/>
<path d="M407.256 1379.43L607.081 1378.9C615.934 1378.88 623.637 1372.84 625.756 1364.24L688.166 1108.34C691.162 1096.19 681.95 1084.46 669.433 1084.47L469.609 1085C460.756 1085.02 453.052 1091.07 450.933 1099.66L388.522 1355.56C385.526 1367.71 394.738 1379.46 407.256 1379.43Z" fill="white"/>
<path d="M669.465 1087.52C669.457 1087.52 669.448 1087.52 669.441 1087.52L469.62 1088.06C462.149 1088.07 455.686 1093.14 453.9 1100.39L391.49 1356.28C390.286 1361.16 391.376 1366.23 394.474 1370.18C397.57 1374.12 402.22 1376.39 407.232 1376.39C407.24 1376.39 407.246 1376.39 407.252 1376.39L607.077 1375.84C614.548 1375.84 621.01 1370.76 622.797 1363.51L685.206 1107.62C686.41 1102.74 685.321 1097.67 682.222 1093.72C679.126 1089.78 674.477 1087.52 669.465 1087.52ZM407.232 1382.48C400.333 1382.48 393.936 1379.38 389.676 1373.95C385.409 1368.51 383.912 1361.54 385.562 1354.83L447.973 1098.94C450.436 1088.95 459.332 1081.96 469.609 1081.95L669.429 1081.42C669.44 1081.42 669.45 1081.42 669.46 1081.42C676.365 1081.42 682.761 1084.52 687.021 1089.96C691.288 1095.39 692.786 1102.36 691.134 1109.07L628.724 1364.96C626.264 1374.95 617.366 1381.94 607.089 1381.95L407.268 1382.48C407.269 1382.48 407.244 1382.48 407.232 1382.48Z" fill="black"/>
<path d="M615.168 1249.59C622.658 1244.25 633.072 1246.03 638.342 1253.58C642.669 1260.61 650.242 1261.42 653.11 1249.34L668.796 1186.06C670.765 1177.61 710.144 1201.46 687.194 1279.34C685.365 1285.55 665.476 1331.42 664.689 1332.43C656.11 1343.47 643.928 1341.17 633.097 1333.99C632.662 1333.7 636.289 1319.65 638.952 1309.58C640.658 1303.13 639.72 1296.27 636.348 1290.51L612.68 1251.37L615.168 1249.59Z" fill="white"/>
<path d="M671.764 1186.75L671.758 1186.76C671.761 1186.76 671.762 1186.75 671.764 1186.75ZM636.358 1332.44C644.244 1337.24 654.578 1340.28 662.149 1330.72C664.072 1327.03 682.565 1284.24 684.264 1278.47C700.549 1223.2 684.217 1198.96 678.824 1192.86C675.558 1189.15 672.8 1187.82 671.566 1187.55L656.068 1250.07C653.906 1259.18 649.326 1261.23 646.789 1261.63C642.761 1262.26 638.628 1259.87 635.741 1255.18C633.76 1252.35 630.645 1250.36 627.068 1249.75C623.482 1249.15 619.893 1249.96 616.938 1252.07L616.748 1252.2L638.956 1288.94C642.785 1295.48 643.824 1303.08 641.897 1310.36C638.17 1324.46 636.833 1330.15 636.358 1332.44ZM650.05 1343.07C644.321 1343.07 637.997 1340.9 631.409 1336.54C629.113 1335.03 629.069 1334.99 635.998 1308.8C637.506 1303.1 636.694 1297.15 633.712 1292.06L610.064 1252.95C609.241 1251.58 609.606 1249.8 610.901 1248.88L613.39 1247.11C613.392 1247.11 613.392 1247.11 613.392 1247.1C617.684 1244.04 622.908 1242.84 628.104 1243.74C633.297 1244.63 637.821 1247.51 640.84 1251.83C642.438 1254.42 644.34 1255.82 645.822 1255.6C647.161 1255.39 648.996 1253.44 650.138 1248.63L665.83 1185.32C666.254 1183.51 667.556 1182.14 669.396 1181.62C672.796 1180.67 677.53 1182.8 682.041 1187.36C688.445 1193.84 707.953 1219.67 690.116 1280.2C688.596 1285.36 668.584 1332.39 667.092 1334.31C662.56 1340.14 656.705 1343.07 650.05 1343.07Z" fill="black"/>
<path d="M628.142 1308.23C628.142 1308.23 587.268 1389.7 559.792 1420.69C554.316 1426.86 544.253 1424.94 541.485 1417.17C527.909 1379.02 496.049 1299.06 457.182 1265.61C399.609 1216.05 337.1 1224.7 337.1 1224.7L242.744 1230.03C242.664 1230.03 242.602 1230.09 242.524 1230.1C147.104 1240.95 151.866 1379.77 151.866 1379.77L146.461 1702.35C146.461 1702.35 198 1715.21 267.83 1719.18C318.96 1722.07 387.716 1719.59 413.749 1718.45C477.774 1715.59 486.565 1674.05 486.565 1674.05C472.76 1667.38 459.716 1656.27 448.166 1643.89C420.654 1614.39 413.796 1571.81 428.157 1534.22C435.277 1515.58 436.392 1498.85 436.202 1488.74C451.801 1505.07 465.929 1519.59 477.405 1531.41C483.957 1538.15 505.662 1548.73 525.31 1557.29C544.518 1565.66 566.769 1562.77 583.265 1549.85C662.733 1481.13 690.826 1308.23 690.826 1308.23H628.142Z" fill="white"/>
<path d="M149.548 1699.95C160.395 1702.46 207.575 1712.7 267.999 1716.13C319.103 1719.02 386.853 1716.58 413.609 1715.39C466.061 1713.06 479.989 1683.95 482.908 1675.62C470.885 1669.37 458.46 1659.39 445.932 1645.97C418.043 1616.06 410.137 1572.82 425.304 1533.13C432.139 1515.23 433.341 1499.14 433.148 1488.79C433.127 1487.54 433.875 1486.39 435.039 1485.91C436.197 1485.43 437.535 1485.71 438.407 1486.63C452.631 1501.54 465.875 1515.17 476.519 1526.13L479.589 1529.27C484.684 1534.53 501.791 1543.71 526.525 1554.49C544.699 1562.42 565.717 1559.71 581.38 1547.45C652.768 1485.7 682.636 1336.22 687.188 1311.29H630.016C623.861 1323.41 587.636 1393.87 562.069 1422.7C558.765 1426.43 553.875 1428.09 549.009 1427.14C544.156 1426.21 540.268 1422.86 538.608 1418.19C526.5 1384.17 494.135 1301.43 455.189 1267.91C399.409 1219.91 338.121 1227.65 337.512 1227.71L243.243 1233.06C243.147 1233.07 243.055 1233.1 242.976 1233.11C151.363 1243.54 154.867 1378.3 154.912 1379.66L149.548 1699.95ZM324.383 1723.59C305.076 1723.59 285.379 1723.22 267.655 1722.22C198.339 1718.29 146.237 1705.45 145.719 1705.31C144.343 1704.97 143.383 1703.73 143.407 1702.3L148.812 1379.71C148.767 1378.46 145.076 1238.35 241.917 1227.09C242.124 1227.03 242.337 1226.99 242.516 1226.98L336.925 1221.65C339.287 1221.31 401.217 1213.41 459.168 1263.29C497.779 1296.53 529.115 1373.33 544.356 1416.14C545.284 1418.75 547.46 1420.63 550.171 1421.15C552.896 1421.69 555.647 1420.75 557.505 1418.66C584.4 1388.33 625.004 1307.67 625.411 1306.86C625.929 1305.83 626.984 1305.18 628.139 1305.18H690.823C691.717 1305.18 692.567 1305.57 693.147 1306.26C693.725 1306.94 693.977 1307.83 693.835 1308.71C692.68 1315.82 664.651 1483.5 585.257 1552.15C567.711 1565.9 544.317 1568.9 524.089 1560.09C505.831 1552.13 482.531 1541.06 475.213 1533.53L472.143 1530.37C462.787 1520.74 451.423 1509.05 439.145 1496.23C438.668 1506.7 436.691 1520.41 431.003 1535.3C416.676 1572.81 424.105 1613.62 450.395 1641.81C463.213 1655.55 475.828 1665.47 487.888 1671.3C489.152 1671.91 489.837 1673.3 489.547 1674.67C489.452 1675.11 479.508 1718.58 413.88 1721.49C396.292 1722.27 361.045 1723.59 324.383 1723.59Z" fill="black"/>
<path d="M440.441 1503.09C439.623 1503.09 438.807 1502.75 438.207 1502.11C412.16 1474.07 391.973 1441.75 378.205 1406.05C377.599 1404.47 378.383 1402.7 379.953 1402.1C381.523 1401.5 383.292 1402.27 383.897 1403.85C397.387 1438.83 417.161 1470.49 442.675 1497.95C443.823 1499.19 443.752 1501.11 442.517 1502.26C441.931 1502.81 441.184 1503.09 440.441 1503.09Z" fill="black"/>
<path d="M383.608 1054.99C383.608 1054.99 387.569 1090.36 405.296 1110C406.652 1111.51 406.96 1113.68 405.92 1115.42L398.612 1127.62C397.977 1128.68 397.457 1129.8 397.06 1130.98L384.932 1166.64C383.824 1169.9 380.888 1172.23 377.434 1172.51C369.846 1173.14 350.29 1170.11 349.044 1175.26C341.577 1206.1 350.152 1214.87 350.689 1241.7C351.078 1261.14 331.662 1265.23 331.662 1265.23C299.548 1272.71 273.2 1264.56 273.2 1264.56C260.464 1260.27 253.845 1245.98 257.377 1234.58C266.529 1205.03 274.405 1195.7 272.81 1147.07L248.461 1096.03C248.916 1071.56 269.342 1052.15 293.977 1052.76L383.608 1054.99Z" fill="white"/>
<path d="M251.527 1095.38L275.559 1145.76C275.742 1146.14 275.842 1146.55 275.856 1146.98C277.151 1186.47 272.268 1200.47 265.511 1219.84C263.831 1224.66 262.096 1229.64 260.285 1235.48C257.075 1245.86 263.562 1258.1 274.172 1261.67C274.351 1261.72 300.102 1269.46 330.967 1262.26C331.715 1262.08 347.968 1258.38 347.636 1241.75C347.447 1232.34 346.255 1225.26 345.103 1218.42C343.067 1206.32 341.143 1194.91 346.075 1174.54C347.539 1168.5 357.651 1168.91 368.366 1169.36C371.83 1169.51 375.103 1169.66 377.18 1169.47C379.405 1169.28 381.314 1167.79 382.039 1165.66L394.169 1129.99C394.632 1128.63 395.247 1127.3 395.991 1126.06L403.299 1113.84C403.627 1113.3 403.52 1112.59 403.027 1112.04C387.504 1094.84 382.238 1066.74 380.928 1057.98L293.898 1055.82C282.736 1055.55 272.175 1059.62 264.144 1067.3C256.371 1074.75 251.907 1084.7 251.527 1095.38ZM303.595 1271.47C285.495 1271.47 273.049 1267.71 272.295 1267.47C258.368 1262.78 250.234 1247.31 254.459 1233.67C256.3 1227.74 258.052 1222.71 259.749 1217.84C266.253 1199.19 270.964 1185.68 269.778 1147.8L245.704 1097.34C245.5 1096.91 245.398 1096.44 245.407 1095.98C245.642 1083.38 250.798 1071.63 259.924 1062.9C269.139 1054.07 281.266 1049.43 294.05 1049.71L383.679 1051.95C385.203 1051.98 386.465 1053.14 386.635 1054.66C386.673 1055 390.711 1089.28 407.558 1107.96C409.85 1110.5 410.243 1114.12 408.535 1116.98L401.225 1129.19C400.703 1130.06 400.272 1130.99 399.946 1131.95L387.816 1167.62C386.308 1172.06 382.332 1175.16 377.683 1175.55C375.227 1175.75 371.769 1175.6 368.111 1175.46C363.465 1175.27 353.919 1174.87 351.939 1176.24C347.384 1195.23 349.116 1205.51 351.119 1217.4C352.254 1224.14 353.539 1231.78 353.736 1241.63C354.083 1259.02 339.857 1266.62 332.288 1268.2C321.892 1270.63 312.115 1271.47 303.595 1271.47Z" fill="black"/>
<path d="M391.898 1042.49C395.542 1048.05 393.346 1055.55 387.274 1058.34L383.603 1060.02L313.193 1094.71C311.41 1095.59 309.258 1095.47 307.649 1094.31C304.734 1092.21 299.489 1089.59 294.243 1092.95C286.927 1097.62 285.442 1122.55 304.246 1129.17C306.725 1130.03 308.094 1132.66 307.091 1135.07C306.007 1137.69 304.397 1141.17 302.194 1144.95C285.598 1173.49 244.574 1175.19 224.802 1148.73C210.233 1129.23 196.885 1097.17 213.313 1053.33C239.078 984.566 344.306 969.779 391.898 1042.49Z" fill="black"/>
<path d="M220.43 1026.54C220.43 1026.54 189.707 990.085 144.746 1004.22C99.7848 1018.35 97.5047 1094.43 92.2914 1141.87C73.9327 1308.91 33.1474 1369.71 19.9794 1384.8C5.36606 1401.54 120.27 1390.18 158.983 1376.99C270.571 1338.95 211.813 1231.52 206.567 1212.18C201.322 1192.83 159.733 1084.58 211.439 1071.92L237.665 1049.6L220.43 1026.54Z" fill="black"/>
<path d="M206.301 1078.68L206.853 1078.88C211.749 1080.67 217.18 1078.18 218.979 1073.31L232.685 1036.28C234.485 1031.42 231.973 1026.03 227.076 1024.24L226.524 1024.04C221.627 1022.26 216.197 1024.75 214.397 1029.6L200.692 1066.64C198.892 1071.51 201.403 1076.9 206.301 1078.68Z" fill="white"/>
<path d="M223.27 1026.52C220.658 1026.52 218.206 1028.12 217.26 1030.68L203.553 1067.7C202.969 1069.29 203.036 1071 203.742 1072.52C204.457 1074.06 205.737 1075.24 207.346 1075.82H207.35L207.902 1076.02C211.205 1077.22 214.901 1075.54 216.117 1072.26L229.822 1035.24C230.406 1033.65 230.34 1031.94 229.633 1030.42C228.92 1028.88 227.64 1027.7 226.03 1027.12L225.486 1026.92C224.754 1026.65 224.005 1026.52 223.27 1026.52ZM210.094 1082.52C208.668 1082.52 207.222 1082.28 205.808 1081.76L205.25 1081.56C202.108 1080.41 199.606 1078.1 198.205 1075.08C196.813 1072.08 196.68 1068.7 197.83 1065.6L211.536 1028.56C213.914 1022.13 221.098 1018.82 227.57 1021.18L228.114 1021.38C231.268 1022.53 233.772 1024.84 235.172 1027.86C236.565 1030.88 236.697 1034.24 235.544 1037.34L221.84 1074.38C219.982 1079.4 215.186 1082.52 210.094 1082.52Z" fill="black"/>
<path d="M469.157 2368.06H342.419V1903.14H276.219V2368.06H149.482C109.067 2368.06 76.3047 2386.27 76.3047 2426.68V2437.62H542.333V2426.68C542.333 2386.27 509.571 2368.06 469.157 2368.06Z" fill="white"/>
<path d="M79.3513 2434.57H539.278V2426.69C539.278 2391.89 513.062 2371.11 469.153 2371.11H342.415C340.73 2371.11 339.365 2369.75 339.365 2368.06V1906.19H279.266V2368.06C279.266 2369.75 277.901 2371.11 276.215 2371.11H149.478C105.567 2371.11 79.3513 2391.89 79.3513 2426.69V2434.57ZM542.329 2440.67H76.3007C74.6153 2440.67 73.25 2439.31 73.25 2437.62V2426.69C73.25 2388.65 102.458 2365.01 149.478 2365.01H273.165V1903.15C273.165 1901.46 274.53 1900.1 276.215 1900.1H342.415C344.099 1900.1 345.466 1901.46 345.466 1903.15V2365.01H469.153C516.17 2365.01 545.379 2388.65 545.379 2426.69V2437.62C545.379 2439.31 544.013 2440.67 542.329 2440.67Z" fill="black"/>
<path d="M111.655 1412.5H144.959C233.759 1412.5 310.58 1474.91 329.556 1562.47L368.314 1741.31C377.383 1783.16 414.098 1812.99 456.539 1812.99H526.544C563.138 1812.99 592.804 1842.94 592.804 1879.88C592.804 1916.82 563.138 1946.76 526.544 1946.76H412.838L412.904 1947.07H212.851C142.839 1947.07 82.2709 1897.86 67.3096 1828.83L5.84164 1545.19C-8.93436 1477 42.5069 1412.5 111.655 1412.5Z" fill="white"/>
<path d="M111.659 1415.54C79.8612 1415.54 50.1119 1429.82 30.0359 1454.71C9.65993 1479.98 1.92926 1512.73 8.82792 1544.54L70.2959 1828.18C84.8426 1895.3 144.796 1944.02 212.855 1944.02H411.501C411.913 1943.82 412.371 1943.71 412.841 1943.71H526.548C561.401 1943.71 589.757 1915.07 589.757 1879.87C589.757 1844.69 561.401 1816.05 526.548 1816.05H456.543C412.999 1816.05 374.639 1784.88 365.335 1741.96L326.579 1563.11C308.048 1477.61 231.667 1415.54 144.961 1415.54H111.659ZM412.908 1950.12H212.855C141.945 1950.12 79.4826 1899.38 64.3319 1829.47L2.86259 1545.83C-4.42541 1512.19 3.74659 1477.59 25.2879 1450.89C46.5266 1424.55 78.0066 1409.44 111.659 1409.44H144.961C188.608 1409.44 231.369 1424.66 265.369 1452.27C299.363 1479.9 323.217 1518.8 332.543 1561.83L371.299 1740.67C379.999 1780.8 415.849 1809.94 456.543 1809.94H526.548C564.767 1809.94 595.86 1841.31 595.86 1879.87C595.86 1918.44 564.767 1949.82 526.548 1949.82H414.248C413.836 1950.02 413.379 1950.12 412.908 1950.12Z" fill="black"/>
</svg>
