<svg width="29" height="9" viewBox="0 0 29 9" fill="none" xmlns="http://www.w3.org/2000/svg">
<path d="M10.036 2.83405H11.42C11.7577 2.83405 12.0577 2.90038 12.32 3.03305C12.5823 3.1627 12.7858 3.34814 12.9306 3.58935C13.0753 3.82755 13.1477 4.10344 13.1477 4.41702C13.1477 4.7306 13.0753 5.008 12.9306 5.24922C12.7858 5.48742 12.5823 5.67285 12.32 5.80552C12.0577 5.93517 11.7577 6 11.42 6H10.036V2.83405ZM11.3928 5.50249C11.625 5.50249 11.8285 5.45877 12.0034 5.37133C12.1813 5.28088 12.317 5.15424 12.4104 4.99142C12.5069 4.82558 12.5552 4.63412 12.5552 4.41702C12.5552 4.19993 12.5069 4.00997 12.4104 3.84715C12.317 3.68132 12.1813 3.55468 12.0034 3.46724C11.8285 3.37678 11.625 3.33155 11.3928 3.33155H10.6239V5.50249H11.3928ZM15.9888 4.80598C15.9888 4.84518 15.9857 4.90096 15.9797 4.97333H14.0847C14.1178 5.15122 14.2038 5.29294 14.3425 5.39847C14.4842 5.50099 14.6591 5.55224 14.8671 5.55224C15.1324 5.55224 15.351 5.4648 15.5229 5.28992L15.8259 5.63818C15.7174 5.76783 15.5802 5.86582 15.4144 5.93216C15.2485 5.99849 15.0616 6.03166 14.8535 6.03166C14.5882 6.03166 14.3545 5.97889 14.1525 5.87336C13.9505 5.76783 13.7937 5.62159 13.6821 5.43465C13.5736 5.24469 13.5193 5.03062 13.5193 4.79241C13.5193 4.55723 13.5721 4.34617 13.6776 4.15922C13.7862 3.96927 13.9354 3.82152 14.1254 3.71599C14.3153 3.61046 14.5294 3.55769 14.7676 3.55769C15.0028 3.55769 15.2123 3.61046 15.3963 3.71599C15.5832 3.81851 15.7279 3.96474 15.8305 4.1547C15.936 4.34164 15.9888 4.55874 15.9888 4.80598ZM14.7676 4.00997C14.5867 4.00997 14.4329 4.06425 14.3063 4.17279C14.1827 4.27832 14.1073 4.42004 14.0801 4.59794H15.4505C15.4264 4.42305 15.3525 4.28134 15.2289 4.17279C15.1053 4.06425 14.9515 4.00997 14.7676 4.00997ZM17.2781 6.03166C17.0821 6.03166 16.8906 6.00603 16.7037 5.95477C16.5167 5.90351 16.3675 5.83869 16.2559 5.76029L16.473 5.33063C16.5816 5.40299 16.7112 5.46179 16.862 5.50702C17.0157 5.54923 17.1665 5.57033 17.3142 5.57033C17.6519 5.57033 17.8208 5.48139 17.8208 5.30349C17.8208 5.21906 17.7771 5.16027 17.6896 5.1271C17.6052 5.09393 17.468 5.06227 17.2781 5.03212C17.0791 5.00197 16.9162 4.9673 16.7896 4.9281C16.666 4.8889 16.5574 4.82106 16.464 4.72457C16.3735 4.62507 16.3283 4.48788 16.3283 4.313C16.3283 4.08384 16.4233 3.90143 16.6132 3.76574C16.8062 3.62704 17.0655 3.55769 17.3911 3.55769C17.557 3.55769 17.7228 3.57729 17.8886 3.61649C18.0545 3.65267 18.1902 3.70242 18.2957 3.76574L18.0786 4.19541C17.8736 4.0748 17.6429 4.0145 17.3866 4.0145C17.2208 4.0145 17.0941 4.04012 17.0067 4.09138C16.9223 4.13963 16.8801 4.20445 16.8801 4.28586C16.8801 4.37632 16.9253 4.44115 17.0157 4.48034C17.1092 4.51652 17.2524 4.5512 17.4454 4.58437C17.6384 4.61452 17.7967 4.64919 17.9203 4.68839C18.0439 4.72759 18.1495 4.79392 18.2369 4.88739C18.3274 4.98086 18.3726 5.11353 18.3726 5.2854C18.3726 5.51154 18.2746 5.69245 18.0786 5.82813C17.8826 5.96382 17.6158 6.03166 17.2781 6.03166ZM19.8454 4.96428L19.4248 5.36229V6H18.8595V2.64409H19.4248V4.6703L20.5962 3.58483H21.2746L20.266 4.59794L21.3696 6H20.6821L19.8454 4.96428ZM23.0514 3.55769C23.2866 3.55769 23.4962 3.60895 23.6801 3.71147C23.8671 3.81398 24.0133 3.95871 24.1188 4.14566C24.2244 4.3326 24.2771 4.54818 24.2771 4.79241C24.2771 5.03665 24.2244 5.25374 24.1188 5.4437C24.0133 5.63064 23.8671 5.77537 23.6801 5.87788C23.4962 5.9804 23.2866 6.03166 23.0514 6.03166C22.7258 6.03166 22.468 5.92311 22.278 5.70602V6.87742H21.7127V3.58483H22.2509V3.90143C22.3444 3.78685 22.459 3.70091 22.5946 3.64363C22.7333 3.58634 22.8856 3.55769 23.0514 3.55769ZM22.9881 5.54772C23.1962 5.54772 23.3665 5.47837 23.4992 5.33967C23.6349 5.20097 23.7027 5.01855 23.7027 4.79241C23.7027 4.56628 23.6349 4.38386 23.4992 4.24516C23.3665 4.10646 23.1962 4.03711 22.9881 4.03711C22.8524 4.03711 22.7303 4.06877 22.6218 4.13209C22.5132 4.19239 22.4273 4.27983 22.364 4.39441C22.3007 4.50899 22.269 4.64166 22.269 4.79241C22.269 4.94317 22.3007 5.07584 22.364 5.19042C22.4273 5.305 22.5132 5.39395 22.6218 5.45727C22.7303 5.51757 22.8524 5.54772 22.9881 5.54772ZM25.705 3.55769C26.0608 3.55769 26.3322 3.64363 26.5191 3.81549C26.7091 3.98434 26.804 4.24063 26.804 4.58437V6H26.2704V5.70602C26.201 5.81155 26.1015 5.89296 25.9719 5.95025C25.8452 6.00452 25.6914 6.03166 25.5105 6.03166C25.3296 6.03166 25.1713 6.00151 25.0356 5.9412C24.9 5.87788 24.7944 5.79195 24.719 5.6834C24.6467 5.57184 24.6105 5.44671 24.6105 5.30801C24.6105 5.09092 24.6904 4.91755 24.8502 4.78789C25.013 4.65522 25.2678 4.58889 25.6146 4.58889H26.2387V4.55271C26.2387 4.38386 26.1874 4.2542 26.0849 4.16375C25.9854 4.07329 25.8362 4.02806 25.6372 4.02806C25.5015 4.02806 25.3673 4.04917 25.2346 4.09138C25.105 4.1336 24.9949 4.19239 24.9045 4.26777L24.6829 3.8562C24.8095 3.75971 24.9618 3.68584 25.1397 3.63458C25.3176 3.58332 25.506 3.55769 25.705 3.55769ZM25.6281 5.62009C25.7698 5.62009 25.895 5.58843 26.0035 5.52511C26.1151 5.45877 26.1935 5.3653 26.2387 5.24469V4.96428H25.6553C25.3296 4.96428 25.1668 5.07132 25.1668 5.2854C25.1668 5.38792 25.2075 5.46933 25.2889 5.52963C25.3703 5.58993 25.4834 5.62009 25.6281 5.62009ZM27.5296 2.64409H28.095V6H27.5296V2.64409Z" fill="#333333"/>
<path d="M2.61646 8.46669C1.65626 8.46669 1.10415 8.46669 0.552034 7.9147C3.57628e-07 7.36262 0 6.81046 0 5.85024V2.61641C0 1.65622 3.57628e-07 1.1041 0.552034 0.552025C1.10415 -1.13249e-06 1.65626 0 2.61646 0H5.85022C6.81049 0 7.36252 -1.13249e-06 7.91456 0.552025C8.46667 1.1041 8.46667 1.65622 8.46667 2.61641V5.85024C8.46667 6.81046 8.46667 7.36262 7.91456 7.9147C7.36252 8.46669 6.81049 8.46669 5.85022 8.46669H2.61646Z" fill="#10C469"/>
<path d="M4.23333 2.11685C4.18337 2.11682 4.13342 2.11856 4.08358 2.12206C4.0132 2.12704 3.94311 2.13554 3.87358 2.14753C3.80405 2.15955 3.73517 2.17503 3.66718 2.19393C3.59917 2.21281 3.53215 2.23507 3.46636 2.26064C3.40061 2.28621 3.33618 2.31505 3.27331 2.34705C3.21041 2.37904 3.14915 2.41414 3.08976 2.45225C3.03035 2.4904 2.97289 2.5315 2.91759 2.5754C2.86233 2.61925 2.80928 2.66583 2.75867 2.71497C2.70806 2.76413 2.65995 2.81578 2.6145 2.86974C2.56902 2.92371 2.52627 2.97992 2.48641 3.03817C2.44657 3.09641 2.40967 3.15661 2.37584 3.21854C2.34202 3.28048 2.31132 3.34407 2.28385 3.40908C2.25634 3.47408 2.2321 3.5404 2.21122 3.60782C2.19038 3.67523 2.17293 3.74364 2.15893 3.81279C2.14491 3.88197 2.13436 3.9518 2.12732 4.02203C2.12026 4.09225 2.11671 4.16278 2.1167 4.23335L2.1167 6.34993H4.23328C4.28324 6.34996 4.33318 6.34823 4.38302 6.34473C4.4534 6.3397 4.52349 6.33116 4.59302 6.31913C4.66259 6.30716 4.73151 6.29171 4.79953 6.27286C4.8675 6.25398 4.93449 6.23171 5.00024 6.20614C5.06603 6.18058 5.1305 6.15174 5.19341 6.11974C5.2563 6.08771 5.31756 6.05256 5.37694 6.01441C5.43631 5.97629 5.49373 5.93522 5.54899 5.89136C5.60426 5.84751 5.6573 5.80094 5.70792 5.75179C5.75856 5.7026 5.80671 5.65091 5.85219 5.59691C5.89762 5.54293 5.94034 5.48671 5.98016 5.42847C6.02 5.37023 6.0569 5.31003 6.09073 5.2481C6.12458 5.1862 6.15532 5.12265 6.18283 5.05768C6.2103 4.99268 6.2345 4.92635 6.25535 4.85893C6.27622 4.79149 6.29371 4.72304 6.30774 4.65385C6.32175 4.58471 6.3323 4.51491 6.33935 4.44472C6.34637 4.3745 6.34987 4.30396 6.34985 4.23339C6.34988 4.18343 6.34815 4.13349 6.34465 4.08365C6.33966 4.01327 6.33116 3.94318 6.31917 3.87364C6.30716 3.80408 6.29168 3.73516 6.27279 3.66714C6.25391 3.59917 6.23165 3.53218 6.20608 3.46643C6.18052 3.40064 6.15168 3.33617 6.11968 3.27326C6.0877 3.21036 6.05259 3.14911 6.01448 3.08971C5.97633 3.03035 5.93522 2.97292 5.89133 2.91766C5.84748 2.86239 5.8009 2.80935 5.75175 2.75874C5.7026 2.7081 5.65094 2.65994 5.59698 2.61446C5.543 2.56902 5.48678 2.52632 5.42854 2.4865C5.37029 2.44665 5.3101 2.40975 5.24817 2.37592C5.18623 2.34207 5.12264 2.31132 5.05763 2.28382C4.99263 2.25635 4.9263 2.23215 4.85889 2.2113C4.79149 2.19042 4.72308 2.17292 4.65393 2.15887C4.58475 2.14485 4.51492 2.1343 4.44468 2.12726C4.37446 2.12024 4.30394 2.11674 4.23336 2.11676L4.23333 2.11685Z" fill="white"/>
<path d="M6.34995 4.23338C6.34996 4.18343 6.34825 4.13348 6.34475 4.08364C6.33975 4.01326 6.33125 3.94317 6.31927 3.87363C6.30728 3.8041 6.29177 3.73522 6.27287 3.66724C6.254 3.59923 6.23171 3.53221 6.20614 3.46642C6.18057 3.40068 6.15176 3.33623 6.11974 3.27337C6.08774 3.21047 6.05262 3.14922 6.01454 3.08981C5.9764 3.03039 5.93528 2.97295 5.89139 2.91765C5.84755 2.86238 5.80096 2.80934 5.75182 2.75872C5.70269 2.70809 5.65101 2.66001 5.59705 2.61456C5.54308 2.56908 5.48686 2.52633 5.42861 2.48647C5.37036 2.44665 5.31017 2.40972 5.24824 2.3759C5.18629 2.34209 5.1227 2.3114 5.0577 2.28391C4.99271 2.2564 4.92638 2.23216 4.85896 2.21128C4.79155 2.19044 4.72315 2.173 4.65399 2.159C4.58481 2.14499 4.51498 2.13442 4.44475 2.12738C4.37453 2.12028 4.30401 2.11677 4.23343 2.11676H2.1167L2.11685 4.23334C2.11684 4.28329 2.11855 4.33325 2.12205 4.38308C2.12705 4.45346 2.13563 4.52356 2.14765 4.59309C2.15965 4.66265 2.17506 4.73157 2.19391 4.7996C2.21279 4.86758 2.23504 4.93456 2.26063 5.00031C2.28619 5.0661 2.31503 5.13057 2.34703 5.19347C2.37903 5.25638 2.41422 5.31762 2.45236 5.37701C2.49046 5.43639 2.53155 5.4938 2.57541 5.54906C2.61925 5.60434 2.66583 5.65737 2.71497 5.70799C2.76414 5.75866 2.81586 5.80678 2.86985 5.85226C2.92385 5.89768 2.98004 5.94041 3.03829 5.98023C3.09654 6.02005 3.15673 6.05699 3.21866 6.09081C3.28056 6.12467 3.34411 6.1554 3.40908 6.1829C3.47407 6.21037 3.54041 6.23457 3.60783 6.25541C3.67529 6.27626 3.74371 6.29379 3.81291 6.3078C3.88206 6.3218 3.95185 6.33237 4.02205 6.3394C4.09227 6.3464 4.16279 6.34993 4.23336 6.3499C4.28331 6.34991 4.33326 6.3482 4.3831 6.3447C4.45348 6.3397 4.52358 6.3312 4.59311 6.31922C4.66268 6.30723 4.7316 6.29174 4.79962 6.27283C4.86758 6.25396 4.93458 6.23171 5.00033 6.20612C5.06612 6.18056 5.13058 6.15172 5.19349 6.11971C5.25639 6.08771 5.31764 6.05259 5.37705 6.01451C5.4364 5.97633 5.49384 5.93525 5.5491 5.89136C5.60436 5.84751 5.65742 5.80093 5.70803 5.75179C5.75868 5.70264 5.80683 5.65098 5.8523 5.59702C5.89772 5.54302 5.94045 5.48681 5.98027 5.42857C6.02009 5.37032 6.05702 5.31013 6.09084 5.2482C6.12472 5.18627 6.15542 5.12266 6.18294 5.05766C6.21041 4.99266 6.23461 4.92633 6.25546 4.85892C6.27637 4.79153 6.29382 4.72311 6.3079 4.65396C6.32191 4.58478 6.33247 4.51495 6.33951 4.44472C6.34651 4.37451 6.35004 4.30397 6.35001 4.2334L6.34995 4.23338Z" fill="white"/>
<path d="M4.2333 3.17593H3.17505V6.34994H4.2333V3.17593Z" fill="#10C469"/>
<path d="M4.23328 3.17598C4.20831 3.17596 4.18334 3.17683 4.15842 3.17858C4.12323 3.18107 4.08819 3.18532 4.05342 3.19132C4.01866 3.19733 3.98422 3.20507 3.95023 3.21452C3.91623 3.22395 3.88272 3.23509 3.84983 3.24787C3.81696 3.26065 3.78474 3.27507 3.75331 3.29107C3.72186 3.30706 3.69124 3.32462 3.66154 3.34367C3.63184 3.36274 3.60311 3.38329 3.57547 3.40524C3.54783 3.42716 3.52132 3.45045 3.49601 3.47502C3.47071 3.49959 3.44665 3.52542 3.42393 3.55239C3.40119 3.57938 3.37982 3.60748 3.35989 3.6366C3.33997 3.66572 3.32152 3.69582 3.30461 3.72678C3.2877 3.75775 3.27235 3.78955 3.25862 3.82205C3.24486 3.85454 3.23275 3.8877 3.22231 3.92141C3.21189 3.95511 3.20316 3.98931 3.19616 4.02389C3.18915 4.05847 3.18388 4.09339 3.18036 4.1285C3.17683 4.16361 3.17506 4.19887 3.17505 4.23415L3.17505 5.29236H4.23326C4.25824 5.29238 4.28321 5.29151 4.30812 5.28976C4.34331 5.28725 4.37836 5.28298 4.41312 5.27696C4.4479 5.27098 4.48236 5.26326 4.51637 5.25383C4.55035 5.24439 4.58384 5.23326 4.61671 5.22047C4.64961 5.20769 4.68184 5.19327 4.71329 5.17727C4.74474 5.16126 4.77536 5.14369 4.80505 5.12462C4.83473 5.10556 4.86344 5.08502 4.89107 5.06309C4.9187 5.04117 4.94522 5.01789 4.97053 4.99332C4.99584 4.96872 5.01992 4.94288 5.04265 4.91588C5.06537 4.88889 5.08673 4.86079 5.10664 4.83167C5.12655 4.80255 5.145 4.77245 5.16192 4.74149C5.17884 4.71054 5.19421 4.67877 5.20796 4.64628C5.2217 4.61379 5.2338 4.58062 5.24422 4.54692C5.25466 4.5132 5.2634 4.47898 5.27041 4.44438C5.27742 4.40982 5.2827 4.37492 5.28622 4.33983C5.28973 4.30472 5.29148 4.26945 5.29147 4.23417C5.29148 4.20919 5.29062 4.18422 5.28887 4.15931C5.28637 4.12412 5.28212 4.08907 5.27613 4.05431C5.27013 4.01953 5.26239 3.98508 5.25294 3.95107C5.2435 3.91708 5.23237 3.88359 5.21959 3.85072C5.20681 3.81783 5.19239 3.78559 5.17639 3.75414C5.1604 3.7227 5.14285 3.69207 5.1238 3.66237C5.10472 3.63269 5.08417 3.60398 5.06222 3.57635C5.0403 3.54872 5.01701 3.5222 4.99244 3.4969C4.96787 3.47158 4.94204 3.4475 4.91506 3.42477C4.88807 3.40205 4.85997 3.3807 4.83084 3.36079C4.80173 3.34087 4.77163 3.32242 4.74067 3.30551C4.7097 3.28858 4.67791 3.27321 4.64541 3.25946C4.61291 3.24572 4.57975 3.23362 4.54604 3.2232C4.51234 3.21276 4.47814 3.20401 4.44357 3.19699C4.40898 3.18998 4.37407 3.1847 4.33896 3.18118C4.30385 3.17767 4.26859 3.17592 4.2333 3.17593L4.23328 3.17598Z" fill="#10C469"/>
<path d="M5.29152 4.23417C5.29152 4.20919 5.29067 4.18422 5.28892 4.1593C5.28642 4.12411 5.28217 4.08907 5.27618 4.05431C5.27018 4.01954 5.26243 3.98511 5.25298 3.95112C5.24354 3.91712 5.2324 3.88361 5.21962 3.85072C5.20684 3.81785 5.19243 3.78563 5.17642 3.7542C5.16042 3.72275 5.14287 3.69213 5.12383 3.66242C5.10476 3.63272 5.0842 3.604 5.06225 3.57635C5.04034 3.54872 5.01704 3.5222 4.99248 3.49689C4.96791 3.47158 4.94207 3.44754 4.9151 3.42482C4.88811 3.40208 4.86 3.3807 4.83088 3.36078C4.80176 3.34087 4.77167 3.3224 4.7407 3.30549C4.70973 3.28859 4.67794 3.27325 4.64544 3.2595C4.61295 3.24575 4.57978 3.23363 4.54608 3.22319C4.51238 3.21277 4.47818 3.20405 4.4436 3.19705C4.40901 3.19005 4.3741 3.18476 4.33899 3.18124C4.30388 3.17769 4.26862 3.17594 4.23334 3.17593H3.17505L3.17513 4.23414C3.17512 4.25912 3.17598 4.2841 3.17773 4.30901C3.18023 4.3442 3.18452 4.37924 3.19052 4.41401C3.19652 4.44878 3.20423 4.48324 3.21365 4.51725C3.22309 4.55124 3.23422 4.58473 3.24701 4.6176C3.25979 4.6505 3.27421 4.68273 3.29021 4.71418C3.30621 4.74563 3.3238 4.77625 3.34287 4.80594C3.36191 4.83562 3.38246 4.86433 3.40439 4.89196C3.42631 4.91959 3.44959 4.94611 3.47416 4.97142C3.49875 4.99675 3.5246 5.02081 3.5516 5.04354C3.5786 5.06625 3.60669 5.08762 3.63581 5.10753C3.66493 5.12744 3.69502 5.14591 3.72599 5.16281C3.75694 5.17974 3.78871 5.1951 3.82119 5.20885C3.85368 5.22259 3.88685 5.23469 3.92056 5.24511C3.95428 5.25553 3.98849 5.26429 4.02309 5.2713C4.05767 5.2783 4.09256 5.28358 4.12765 5.2871C4.16276 5.2906 4.19802 5.29236 4.2333 5.29235C4.25828 5.29235 4.28325 5.2915 4.30817 5.28975C4.34336 5.28725 4.3784 5.283 4.41317 5.27701C4.44795 5.27101 4.4824 5.26327 4.51641 5.25382C4.55039 5.24438 4.58389 5.23325 4.61676 5.22046C4.64965 5.20768 4.68188 5.19326 4.71333 5.17726C4.74478 5.16126 4.7754 5.1437 4.8051 5.12467C4.83478 5.10558 4.8635 5.08504 4.89112 5.06309C4.91875 5.04117 4.94528 5.01788 4.97058 4.99331C4.9959 4.96874 5.01998 4.94292 5.04271 4.91593C5.06542 4.88893 5.08678 4.86084 5.10669 4.83171C5.1266 4.80259 5.14506 4.7725 5.16197 4.74154C5.17891 4.71058 5.19426 4.67877 5.20802 4.64628C5.22175 4.61378 5.23385 4.58062 5.24428 4.54691C5.25473 4.51322 5.26346 4.47901 5.2705 4.44444C5.2775 4.40985 5.28278 4.37494 5.2863 4.33983C5.2898 4.30472 5.29156 4.26946 5.29155 4.23417L5.29152 4.23417Z" fill="#10C469"/>
<path d="M4.2333 3.17593H3.17505V6.34994H4.2333V3.17593Z" fill="#10C469"/>
<path d="M2.61646 8.46669C1.65626 8.46669 1.10415 8.46669 0.552034 7.9147C3.57628e-07 7.36263 0 6.81047 0 5.85024V2.61641C0 1.65622 3.57628e-07 1.1041 0.552034 0.552032C1.10415 2.44379e-06 1.65626 0 2.61646 0H5.85022C6.81049 0 7.36252 2.44379e-06 7.91456 0.552032C8.46667 1.1041 8.46667 1.65622 8.46667 2.61641V5.85024C8.46667 6.81047 8.46667 7.36263 7.91456 7.9147C7.36252 8.46669 6.81049 8.46669 5.85022 8.46669H2.61646Z" fill="#10C469"/>
<path d="M4.23305 5.76666C4.44541 5.76666 4.64741 5.72416 4.83097 5.6468C5.01454 5.5694 5.18004 5.45724 5.31861 5.31867C5.45718 5.18011 5.56891 5.01505 5.64629 4.83149C5.72367 4.64793 5.7666 4.44592 5.7666 4.23356C5.7666 4.0212 5.72366 3.8192 5.64629 3.63564C5.56891 3.45208 5.45718 3.28702 5.31861 3.14845C5.18004 3.00989 5.01454 2.89766 4.83097 2.82032C4.64741 2.74292 4.44541 2.70001 4.23305 2.70001H2.69995V4.23356V5.76666" stroke="white" stroke-width="0.79375" stroke-miterlimit="5.8" stroke-linecap="round" stroke-linejoin="round"/>
</svg>
