<svg width="100" height="90" viewBox="0 0 100 90" fill="none" xmlns="http://www.w3.org/2000/svg">
<g clip-path="url(#clip0_110_4)">
<path d="M7.56014 76.575L11.9702 84.1925C12.8866 85.7961 14.2039 87.0561 15.7503 87.9725L31.5006 60.7102H0C0 62.4857 0.45819 64.2612 1.37457 65.8648L7.56014 76.575Z" fill="#0066DA"/>
<path d="M50 28.6368L34.2497 1.37451C32.7033 2.29089 31.386 3.55092 30.4696 5.15458L1.37457 55.5555C0.475044 57.1246 0.00119767 58.9015 0 60.7101H31.5006L50 28.6368Z" fill="#00AC47"/>
<path d="M84.2497 87.9725C85.7961 87.0561 87.1134 85.7961 88.0298 84.1925L89.8625 81.0424L98.6254 65.8648C99.5418 64.2612 100 62.4857 100 60.7102H68.4971L75.2005 73.8832L84.2497 87.9725Z" fill="#EA4335"/>
<path d="M50 28.6369L65.7503 1.37457C64.2039 0.45819 62.4284 0 60.5956 0H39.4043C37.5716 0 35.7961 0.515464 34.2497 1.37457L50 28.6369Z" fill="#00832D"/>
<path d="M68.4995 60.7102H31.5006L15.7503 87.9725C17.2967 88.8889 19.0722 89.3471 20.9049 89.3471H79.0951C80.9279 89.3471 82.7034 88.8316 84.2497 87.9725L68.4995 60.7102Z" fill="#2684FC"/>
<path d="M84.0779 30.355L69.5304 5.15458C68.614 3.55092 67.2967 2.29089 65.7503 1.37451L50 28.6368L68.4994 60.7101H99.9427C99.9427 58.9347 99.4845 57.1592 98.5682 55.5555L84.0779 30.355Z" fill="#FFBA00"/>
</g>
<defs>
<clipPath id="clip0_110_4">
<rect width="100" height="89.3471" fill="white"/>
</clipPath>
</defs>
</svg>
