<svg width="98" height="100" viewBox="0 0 98 100" fill="none" xmlns="http://www.w3.org/2000/svg">
<path d="M97.9375 51.1251C97.9375 47.8334 97.6458 44.7084 97.1458 41.6667H50.0625V60.4584H77.0208C75.8125 66.6251 72.2708 71.8334 67.0208 75.3751V87.8751H83.1042C92.5208 79.1668 97.9375 66.3334 97.9375 51.1251Z" fill="#4285F4"/>
<path d="M50.0625 100C63.5625 100 74.8542 95.5001 83.1042 87.8751L67.0208 75.3751C62.5208 78.3751 56.8125 80.2084 50.0625 80.2084C37.0208 80.2084 25.9792 71.4167 22.0208 59.5417H5.4375V72.4167C13.6458 88.7501 30.5208 100 50.0625 100Z" fill="#34A853"/>
<path d="M22.0208 59.5416C20.9792 56.5416 20.4375 53.3332 20.4375 49.9999C20.4375 46.6666 21.0208 43.4583 22.0208 40.4583V27.5833H5.4375C2.02083 34.3333 0.0625 41.9166 0.0625 49.9999C0.0625 58.0832 2.02083 65.6666 5.4375 72.4166L22.0208 59.5416Z" fill="#FBBC05"/>
<path d="M50.0625 19.7917C57.4375 19.7917 64.0208 22.3333 69.2292 27.2917L83.4792 13.0417C74.8542 4.95834 63.5625 0 50.0625 0C30.5208 0 13.6458 11.25 5.4375 27.5833L22.0208 40.4583C25.9792 28.5833 37.0208 19.7917 50.0625 19.7917Z" fill="#EA4335"/>
</svg>
