<svg width="100" height="100" viewBox="0 0 100 100" fill="none" xmlns="http://www.w3.org/2000/svg">
<g clip-path="url(#clip0_110_7)">
<path d="M49.562 0.010498C49.668 0.010498 49.774 0.142993 49.933 0.381488C50.0655 0.593482 61.2217 13.9757 74.7363 30.1138C88.251 46.2519 99.2747 59.5281 99.2217 59.6076C99.1952 59.6871 88.4365 68.5114 75.3193 79.1906C62.2022 89.8698 51.0459 98.9591 50.5424 99.3831C49.668 100.099 49.615 100.125 49.297 99.8071C49.1115 99.6216 37.9288 90.4793 24.4406 79.4821C10.9524 68.4849 -0.0447818 59.4221 0.00821688 59.2896C0.0612155 59.1571 11.1379 45.9339 24.6791 29.8753C38.2203 13.8167 49.297 0.540484 49.35 0.32849C49.403 0.116495 49.4825 0.010498 49.562 0.010498Z" fill="#00BEF2"/>
<path d="M47.7336 84.0928C46.1966 83.5363 44.3416 81.9463 43.5731 80.4624C42.6192 78.6339 42.6987 75.772 43.7586 73.493C44.5801 71.7971 44.5801 71.7441 44.0501 71.3466C43.7586 71.1346 40.2342 69.1736 36.2593 67.0272C32.2844 64.8808 28.813 62.9993 28.5745 62.8668C28.2565 62.6813 27.7265 62.8668 26.7726 63.4763C23.6721 65.4372 20.4392 65.2252 17.8953 62.8668C16.0668 61.1708 15.5368 59.9784 15.5368 57.5404C15.5368 55.182 16.0138 53.963 17.5243 52.4526C19.5647 50.4121 22.2942 49.7231 24.9176 50.5976C26.3486 51.0746 26.3751 51.0746 27.276 50.3856C28.336 49.5906 36.8423 41.8263 40.9497 37.9309L43.7851 35.228L42.9372 33.4525C41.2147 29.8751 42.0892 25.9002 45.1101 23.5153C46.7531 22.2168 47.972 21.8193 50.3305 21.8193C55.8424 21.8193 59.6848 27.5962 57.6178 32.7636C57.0613 34.1945 57.0613 34.221 57.5913 35.0955C58.0418 35.864 65.7001 45.1122 69.7545 49.8291C70.47 50.6506 71.265 51.3131 71.53 51.3131C71.795 51.3131 72.6959 51.0481 73.5439 50.7301C77.4923 49.1667 81.6527 50.9156 83.2957 54.8375C84.3557 57.3549 83.4282 60.7469 81.1757 62.7873C79.5858 64.2183 78.4198 64.6688 76.2999 64.6688C74.8159 64.6688 74.2594 64.5098 72.6959 63.6618C71.53 63.0258 70.629 62.7078 70.258 62.8138C69.622 62.9728 59.8438 69.6771 57.6708 71.4261C56.3458 72.5126 56.2398 72.91 56.9288 74.5265C57.5913 76.1165 57.5118 78.6074 56.7698 80.1709C55.9484 81.8933 53.9079 83.6158 52.1324 84.1458C50.3305 84.6493 49.244 84.6493 47.7336 84.0928ZM48.184 54.8905V39.7859L47.3361 38.6199C46.8591 37.9839 46.4086 37.4539 46.3291 37.4539C45.9846 37.4539 28.866 53.0091 28.866 53.327C28.866 53.4065 29.131 54.2015 29.449 55.0495C29.767 55.924 30.0055 57.1694 29.979 57.8849C29.9525 58.6004 29.9525 59.3954 29.9525 59.6604C29.979 60.2699 35.7028 63.9268 44.2886 68.8822C46.6471 70.2601 47.4686 70.6046 47.7601 70.3661C48.1045 70.0746 48.184 67.1332 48.184 54.8905ZM55.4449 68.2462C66.7866 61.1178 68.9065 59.6869 69.039 59.1569C69.1185 58.8389 69.2245 57.5934 69.251 56.348L69.3305 54.122L63.5537 47.2587C57.3528 39.9184 55.0739 37.4274 54.5439 37.4274C54.3584 37.4274 53.4309 37.9574 52.4769 38.5934L50.728 39.7594L50.8075 54.8375C50.887 68.3522 50.993 70.6311 51.4965 70.6311C51.5495 70.6576 53.3514 69.5711 55.4449 68.2462Z" fill="white" stroke="white" stroke-width="8.18631" stroke-linecap="round" stroke-linejoin="round"/>
</g>
<defs>
<clipPath id="clip0_110_7">
<rect width="99.24" height="100" fill="white"/>
</clipPath>
</defs>
</svg>
