<svg xmlns="http://www.w3.org/2000/svg" width="1058" height="758" fill="none" viewBox="0 0 1058 758">
  <path stroke="#A4A6A9" d="M768.884 418.197c-7.768-4.497-11.051-10.589-10.272-16.766.784-6.216 5.703-12.706 14.764-17.913l97.444-56.042c9.036-5.201 20.407-8.083 31.485-8.523 11.083-.44 21.816 1.568 29.595 6.086v.001l115.22 66.798c7.76 4.498 11.05 10.59 10.27 16.767-.79 6.215-5.7 12.705-14.77 17.912l.25.434-.25-.434-97.44 56.043c-9.021 5.186-20.385 8.061-31.459 8.501-11.08.439-21.813-1.561-29.592-6.065l-115.245-66.799Z"/>
  <path fill="#C3C5CE" d="m1009.31 411.385-.08-23.191-13.413-.058-70.54-31.437c-10.53-6.098-28.94-5.362-41.116 1.626L819.1 386.278c-.542.309-1.045.619-1.529.948l-8.556-.039v22.184c.077 3.775 2.419 7.395 7.085 10.105l76.947 44.6c10.53 6.098 28.939 5.363 41.115-1.626l65.062-37.418c6.756-3.91 10.186-8.924 10.086-13.647Z"/>
  <path fill="#F8F4FE" d="m893.047 441.873-76.948-44.6c-10.53-6.098-9.194-16.725 3.001-23.733l65.061-37.418c12.176-7.008 30.586-7.743 41.116-1.626l76.923 44.6c10.54 6.098 9.2 16.725-2.995 23.732l-65.062 37.419c-12.157 6.988-30.566 7.724-41.096 1.626Z"/>
  <path fill="url(#a)" d="M975.336 391.756V269.164l-101.202-1.994v121.741c-.368 1.123.116 2.245 1.471 3.058l45.917 27.159c2.381 1.413 6.562 1.278 9.33-.29l42.181-23.771c1.665-.93 2.439-2.168 2.303-3.311Z"/>
  <path fill="#C3C5CE" d="m921.522 295.974-45.917-27.159c-2.381-1.413-2.052-3.813.736-5.381l42.18-23.771c2.788-1.568 6.95-1.704 9.331-.291l45.916 27.159c2.381 1.413 2.052 3.814-.735 5.382l-42.181 23.771c-2.768 1.549-6.949 1.684-9.33.29Z"/>
  <path fill="url(#b)" d="m905.242 386.452-13.918-8.052c-2.149-1.239-3.911-4.588-3.891-7.473l.019-71.507c0-2.884 1.762-4.201 3.91-2.942l13.919 8.052c2.148 1.239 3.91 4.588 3.89 7.472l-.019 71.508c-.019 2.865-1.761 4.201-3.91 2.942Z"/>
  <path fill="url(#c)" d="m902.435 388.195-13.918-8.053c-2.149-1.239-3.911-4.588-3.891-7.472l.019-71.508c0-2.884 1.761-4.201 3.91-2.942l13.918 8.053c2.149 1.238 3.891 4.587 3.891 7.472l-.019 71.507c-.019 2.884-1.761 4.201-3.91 2.943Z"/>
  <path fill="url(#d)" d="M845.93 377.509a4.126 4.126 0 0 1-4.123-4.123v-21.197a4.126 4.126 0 0 1 4.123-4.123 4.126 4.126 0 0 1 4.123 4.123v21.197a4.126 4.126 0 0 1-4.123 4.123Z"/>
  <path fill="url(#e)" d="M857.467 353.718h.039l-6.814-36.683h-.02a5 5 0 0 0-4.936-4.239 4.987 4.987 0 0 0-4.936 4.278h-.077l-6.35 36.644h.039a11.357 11.357 0 0 0-.407 2.943c0 6.601 5.343 11.944 11.944 11.944 6.601 0 11.944-5.343 11.944-11.944-.019-1.026-.194-1.994-.426-2.943Z"/>
  <path fill="url(#f)" d="M773.531 495.745H759.4v-84.168c0-28.939-33.005-46.381-33.353-46.555l-.368-.213-70.153-41.697 7.221-12.156 69.997 41.6c3.543 1.877 40.807 22.397 40.807 59.002v84.187h-.02Z"/>
  <path fill="url(#g)" d="M255.073 375.03h-17.422v-87.071c0-52.615 29.404-70.501 32.134-72.069l80.818-46.343 8.673 15.119-81.013 46.458c-.871.504-23.19 13.783-23.19 56.835v87.071Z"/>
  <path stroke="#8F9295" d="M402.898 740.351 95.596 562.223c-20.907-12.114-29.922-28.643-27.79-45.539 2.136-16.935 15.488-34.426 39.737-48.377l259.844-149.43-.249-.433.249.433c24.239-13.944 54.698-21.649 84.349-22.825 29.656-1.175 58.446 4.183 79.366 16.303l307.302 178.128c20.908 12.114 29.922 28.643 27.791 45.539-2.136 16.935-15.489 34.426-39.738 48.376l-259.844 149.43c-24.239 13.945-54.698 21.65-84.349 22.826-29.655 1.175-58.446-4.183-79.366-16.303Z"/>
  <path fill="#C3C5CE" d="m814.28 523.678-.252-41.6-46.478-6.194L523.352 334.34c-36.451-21.119-100.176-18.603-142.338 5.652L155.787 469.515a107.21 107.21 0 0 0-5.304 3.272l-29.637 5.807v38.115h.02c.29 13.086 8.343 25.572 24.545 34.96l266.363 154.398c36.451 21.119 100.176 18.603 142.337-5.653l225.228-129.522c23.461-13.493 35.289-30.837 34.941-47.214Z"/>
  <path fill="url(#h)" d="M411.793 671.901 145.431 517.503c-36.451-21.119-31.805-57.899 10.356-82.154l225.227-129.523c42.162-24.255 105.887-26.772 142.338-5.652l266.363 154.397c36.45 21.119 31.804 57.899-10.357 82.154L554.131 666.248c-42.161 24.255-105.887 26.772-142.338 5.653Z"/>
  <path fill="#C3C5CE" d="M583.418 393.943v-6.582l-76.114-1.49v5.942c-.271.833.077 1.685 1.103 2.285l34.534 20.422c1.781 1.065 4.936.968 7.027-.213l31.727-17.886c1.239-.697 1.82-1.626 1.723-2.478Z"/>
  <path fill="#EFEFF2" d="m542.941 407.512-34.534-20.422c-1.781-1.065-1.548-2.865.542-4.046l31.728-17.886c2.09-1.181 5.226-1.278 7.026-.213l34.535 20.422c1.781 1.065 1.548 2.865-.542 4.046l-31.728 17.886c-2.09 1.181-5.246 1.278-7.027.213Z"/>
  <path fill="#FAF5FE" d="m543.794 399.866-22.146-13.086c-1.142-.677-.987-1.839.349-2.594l20.345-11.459c1.335-.755 3.349-.813 4.51-.136l22.145 13.086c1.142.677.988 1.839-.348 2.594l-20.345 11.46c-1.336.755-3.349.813-4.51.135Z"/>
  <path fill="#C3C5CE" d="m521.668 386.78 4.762 2.826 15.931-8.982c1.336-.754 3.349-.813 4.51-.135l17.364 10.279 4.414-2.497c1.336-.755 1.49-1.917.348-2.594l-22.145-13.086c-1.142-.677-3.155-.619-4.51.136l-20.345 11.459c-1.317.755-1.471 1.917-.329 2.594Z"/>
  <path fill="url(#i)" d="M545.323 391.174a8.65 8.65 0 0 1-8.653-8.653v-49.923a8.65 8.65 0 0 1 8.653-8.653 8.65 8.65 0 0 1 8.653 8.653v49.923c0 4.762-3.872 8.653-8.653 8.653Z"/>
  <path fill="url(#j)" d="M545.42 357.55c23.252 0 42.103-18.85 42.103-42.103s-18.851-42.103-42.103-42.103c-23.253 0-42.104 18.85-42.104 42.103s18.851 42.103 42.104 42.103Z"/>
  <path fill="url(#k)" d="M545.322 249.514c-16.299 0-29.501 13.202-29.501 29.502 0 6.078 1.839 11.73 4.995 16.415 0 .194.367.387.425.581a29.11 29.11 0 0 0 2.052 2.555c3.465 3.078 9.06 8.73 22.049 8.73 13.976 0 18.525-5.052 21.719-8.382a28.654 28.654 0 0 0 2.633-3.271c0-.077.039-.136.039-.213h.116a29.294 29.294 0 0 0 4.994-16.415c-.019-16.3-13.241-29.502-29.521-29.502Z"/>
  <path fill="url(#l)" d="M274.663 482.078V374.023l-102.558-1.742v107.01c-.232 1.258.388 2.497 1.936 3.388l46.285 26.791c2.961 1.703 8.13 1.51 11.537-.465l39.974-23.016c1.955-1.104 2.923-2.556 2.826-3.911Z"/>
  <path fill="#C3C5CE" d="M224.875 347.6c-1.994-1.142-5.459-1.007-7.763.31l-26.849 15.467c-2.303 1.316-2.555 3.329-.561 4.471l31.108 18.003c1.993 1.142 5.459 1.007 7.762-.31l26.849-15.467c2.304-1.316 2.556-3.329.562-4.471L224.875 347.6Z"/>
  <path fill="url(#m)" d="M217.228 348.006c2.304-1.316 5.769-1.471 7.763-.309l25.359 14.673 15.35-9.756-44.116-26.985-40.516 23.481 16.183 10.395 19.977-11.499Z"/>
  <path fill="url(#n)" d="M274.663 374.333v-22.784l-38.329 17.558-19.125 3.871-45.104-23.171v21.758c-.232 1.258.388 2.497 1.936 3.388l46.285 26.791c2.961 1.703 8.13 1.51 11.537-.465l39.974-23.016c1.955-1.104 2.923-2.555 2.826-3.93Z"/>
  <path fill="#F8F3FF" d="m272.688 348.82-46.284-26.791c-2.962-1.704-8.13-1.51-11.537.464l-39.974 23.017c-3.426 1.974-3.794 4.955-.832 6.659l46.284 26.791c2.962 1.703 8.13 1.51 11.537-.465l39.974-23.016c3.407-1.955 3.775-4.936.832-6.659Zm-16.744 5.033-26.849 15.467c-2.304 1.316-5.769 1.471-7.763.309l-31.108-18.002c-1.994-1.143-1.742-3.156.562-4.472l26.849-15.467c2.303-1.316 5.768-1.471 7.762-.31l31.108 18.003c1.975 1.142 1.723 3.155-.561 4.472Z"/>
  <path fill="url(#o)" d="m271.856 358.537-39.974 23.017c-3.426 1.974-8.575 2.168-11.537.464l-46.284-26.791c-1.123-.639-1.762-1.471-1.936-2.362v21.759c-.232 1.258.387 2.497 1.936 3.387l46.284 26.791c2.962 1.704 8.13 1.51 11.537-.464l39.974-23.017c1.955-1.122 2.904-2.574 2.826-3.929V354.84c-.038 1.278-.987 2.633-2.826 3.697Z"/>
  <path fill="#21AD63" d="m209.814 477.316-23.849-13.802c-1.645-.948-2.981-3.503-2.981-5.71 0-2.188 1.336-3.194 2.981-2.246l23.849 13.802c1.646.949 2.981 3.504 2.981 5.711 0 2.187-1.335 3.194-2.981 2.245Z"/>
  <path fill="url(#p)" d="m206.794 478.362-23.848-13.802c-1.646-.949-2.981-3.504-2.981-5.692 0-2.187 1.335-3.194 2.981-2.245l23.848 13.802c1.646.949 2.982 3.504 2.982 5.711 0 2.168-1.336 3.174-2.982 2.226Z"/>
  <path fill="#21AD63" d="m209.814 458.462-23.849-13.802c-1.645-.949-2.981-3.504-2.981-5.711 0-2.187 1.336-3.194 2.981-2.245l23.849 13.802c1.646.948 2.981 3.504 2.981 5.71 0 2.207-1.335 3.214-2.981 2.246Z"/>
  <path fill="url(#q)" d="m206.794 459.526-23.848-13.802c-1.646-.948-2.981-3.504-2.981-5.71 0-2.188 1.335-3.194 2.981-2.246l23.848 13.802c1.646.949 2.982 3.504 2.982 5.711 0 2.187-1.336 3.194-2.982 2.245Z"/>
  <path fill="#21AD63" d="m209.814 439.956-23.849-13.802c-1.645-.949-2.981-3.504-2.981-5.711 0-2.187 1.336-3.194 2.981-2.245L209.814 432c1.646.949 2.981 3.504 2.981 5.691 0 2.207-1.335 3.214-2.981 2.265Z"/>
  <path fill="url(#r)" d="m206.794 441.001-23.848-13.802c-1.646-.948-2.981-3.503-2.981-5.71 0-2.188 1.335-3.194 2.981-2.246l23.848 13.802c1.646.949 2.982 3.504 2.982 5.711 0 2.187-1.336 3.194-2.982 2.245Z"/>
  <path fill="#21AD63" d="m209.814 421.101-23.849-13.802c-1.645-.948-2.981-3.503-2.981-5.691 0-2.187 1.336-3.194 2.981-2.245l23.849 13.802c1.646.948 2.981 3.504 2.981 5.691 0 2.207-1.335 3.213-2.981 2.245Z"/>
  <path fill="url(#s)" d="m206.794 422.166-23.848-13.802c-1.646-.948-2.981-3.504-2.981-5.691 0-2.188 1.335-3.194 2.981-2.246l23.848 13.802c1.646.949 2.982 3.504 2.982 5.711 0 2.168-1.336 3.175-2.982 2.226Z"/>
  <path fill="#27CD76" d="m206.794 478.362-23.848-13.802c-1.646-.949-2.981-3.504-2.981-5.692 0-2.187 1.335-3.194 2.981-2.245l23.848 13.802c1.646.949 2.982 3.504 2.982 5.711 0 2.168-1.336 3.174-2.982 2.226ZM206.794 459.527l-23.848-13.802c-1.646-.949-2.981-3.504-2.981-5.711 0-2.187 1.335-3.194 2.981-2.246l23.848 13.803c1.646.948 2.982 3.503 2.982 5.71 0 2.188-1.336 3.194-2.982 2.246ZM206.794 441.001l-23.848-13.802c-1.646-.948-2.981-3.503-2.981-5.71 0-2.188 1.335-3.194 2.981-2.246l23.848 13.802c1.646.949 2.982 3.504 2.982 5.711 0 2.187-1.336 3.194-2.982 2.245ZM206.794 422.166l-23.848-13.802c-1.646-.948-2.981-3.504-2.981-5.691 0-2.188 1.335-3.194 2.981-2.246l23.848 13.802c1.646.949 2.982 3.504 2.982 5.711 0 2.168-1.336 3.175-2.982 2.226Z"/>
  <path fill="#C3C5CE" d="M306.603 522.071v-4.549l-52.595-1.045v4.104c-.193.581.058 1.161.755 1.587l23.868 14.112c1.239.736 3.407.658 4.859-.155l21.932-12.35c.852-.484 1.259-1.123 1.181-1.704Z"/>
  <path fill="#EFEFF2" d="m278.631 531.441-23.868-14.112c-1.239-.736-1.064-1.975.387-2.788l21.933-12.35c1.451-.813 3.62-.871 4.858-.155l23.869 14.112c1.239.736 1.064 1.974-.388 2.788l-21.932 12.35c-1.452.813-3.62.89-4.859.155Z"/>
  <path fill="#FFF6FF" d="m279.212 526.156-15.293-9.04c-.793-.465-.677-1.278.252-1.801l14.054-7.917c.929-.523 2.323-.561 3.116-.097l15.293 9.04c.794.465.677 1.278-.252 1.801l-14.053 7.917c-.93.523-2.323.581-3.117.097Z"/>
  <path fill="#C3C5CE" d="m263.919 517.116 3.291 1.955 11.015-6.194c.929-.523 2.323-.562 3.116-.097l12.002 7.104 3.059-1.723c.929-.522 1.026-1.316.251-1.8l-15.292-9.04c-.794-.465-2.188-.426-3.117.097l-14.054 7.917c-.948.503-1.064 1.316-.271 1.781Z"/>
  <path fill="url(#t)" d="M280.277 520.155a5.973 5.973 0 0 1-5.982-5.982v-34.495a5.974 5.974 0 0 1 5.982-5.982 5.973 5.973 0 0 1 5.981 5.982v34.495c0 3.291-2.69 5.982-5.981 5.982Z"/>
  <path fill="url(#u)" d="M280.335 496.926c16.068 0 29.094-13.026 29.094-29.095s-13.026-29.095-29.094-29.095c-16.069 0-29.095 13.026-29.095 29.095s13.026 29.095 29.095 29.095Z"/>
  <path fill="url(#v)" d="M280.277 422.263c-11.266 0-20.384 9.117-20.384 20.384 0 4.2 1.278 8.111 3.446 11.343 0 .136.251.271.29.387.445.62.91 1.201 1.413 1.781 2.401 2.13 6.272 6.04 15.235 6.04 9.659 0 12.795-3.484 15.021-5.788.659-.716 1.278-1.452 1.82-2.265 0-.039.019-.097.019-.135h.078a20.37 20.37 0 0 0 3.445-11.344c0-11.286-9.136-20.403-20.383-20.403Z"/>
  <path fill="#C3C5CE" d="m263.396 561.755 95.454-55.654 93.575 53.66-63.919 37.302 23.887 13.512-32.056 18.971-116.941-67.791Z"/>
  <path fill="url(#w)" d="M371.432 599.677v-24.12l-28.011-.561v23.887c-.096.31.039.62.407.852l12.698 7.511c.659.387 1.82.348 2.575-.078l11.673-6.581c.484-.252.697-.601.658-.91Z"/>
  <path fill="url(#x)" d="m356.546 582.971-12.699-7.511c-.658-.387-.561-1.064.194-1.49l11.672-6.582c.775-.426 1.917-.464 2.575-.077l12.699 7.511c.658.387.561 1.064-.194 1.49l-11.673 6.582c-.755.426-1.916.464-2.574.077Z"/>
  <path fill="url(#y)" d="M393.229 612.376v-48.627l-28.011-.561v48.394c-.097.31.039.619.407.852l12.698 7.51c.659.388 1.82.349 2.575-.077l11.673-6.582c.484-.251.697-.6.658-.909Z"/>
  <path fill="url(#z)" d="m378.323 571.182-12.698-7.511c-.658-.387-.562-1.064.193-1.49l11.673-6.582c.774-.426 1.916-.464 2.575-.077l12.698 7.511c.658.387.562 1.064-.193 1.49l-11.673 6.582c-.755.426-1.916.464-2.575.077Z"/>
  <path fill="url(#A)" d="M314.675 391.368v-48.626l-28.01-.562v48.395c-.097.309.038.619.406.851l12.699 7.511c.658.387 1.819.349 2.574-.077l11.673-6.582c.484-.252.697-.6.658-.91Z"/>
  <path fill="#C3C5CE" d="m299.77 350.175-12.699-7.511c-.658-.387-.561-1.065.194-1.491l11.672-6.581c.775-.426 1.917-.465 2.575-.078l12.699 7.511c.658.387.561 1.065-.194 1.491l-11.673 6.581c-.755.426-1.916.465-2.574.078Z"/>
  <path stroke="#8F9295" d="m84.178 726.316-76.84-44.538C2.204 678.796.066 674.79.573 670.761c.511-4.069 3.736-8.351 9.75-11.802h.001l64.95-37.366c6.006-3.445 13.56-5.363 20.92-5.659 7.367-.296 14.482 1.033 19.628 4.022l76.84 44.538c5.134 2.982 7.272 6.987 6.765 11.017-.511 4.069-3.736 8.351-9.751 11.801v.001l-64.951 37.366h-.001c-6.004 3.46-13.557 5.378-20.918 5.67-7.366.293-14.482-1.044-19.628-4.033Z"/>
  <path fill="#C3C5CE" d="m160.102 673.814-.039-14.247-8.246-.039-43.342-19.319c-6.466-3.755-17.79-3.31-25.262 1.007l-39.974 17.19c-.329.193-.639.387-.948.58l-5.266-.019v13.628c.059 2.323 1.49 4.53 4.356 6.214l47.29 27.41c6.466 3.756 17.791 3.291 25.263-1.006l39.973-22.997c4.143-2.42 6.253-5.498 6.195-8.402Z"/>
  <path fill="url(#B)" d="M88.653 692.553 41.36 665.142c-6.465-3.755-5.652-10.279 1.84-14.576l39.973-22.997c7.492-4.298 18.797-4.762 25.262-1.007l47.291 27.411c6.466 3.755 5.653 10.279-1.839 14.576l-39.974 22.997c-7.491 4.317-18.796 4.762-25.261 1.007Z"/>
  <path fill="#C3C5CE" d="M135.414 661.29v-5.691l-65.817-1.297v5.149c-.232.716.078 1.452.949 1.975l29.85 17.654c1.548.91 4.258.832 6.078-.194l27.43-15.467c1.084-.6 1.587-1.393 1.51-2.129Z"/>
  <path fill="#EFEFF2" d="m100.415 673.021-29.85-17.655c-1.549-.909-1.335-2.477.465-3.503l27.43-15.467c1.8-1.026 4.529-1.104 6.078-.194l29.85 17.655c1.548.909 1.335 2.477-.465 3.503l-27.43 15.467c-1.819 1.026-4.549 1.104-6.078.194Z"/>
  <path fill="#FFF6FF" d="m101.151 666.42-19.145-11.324c-.987-.581-.852-1.588.31-2.246l17.596-9.911c1.161-.658 2.904-.716 3.891-.116l19.145 11.324c.987.581.851 1.587-.31 2.246l-17.596 9.911c-1.162.639-2.904.697-3.891.116Z"/>
  <path fill="#C3C5CE" d="m82.006 655.096 4.123 2.439 13.764-7.763c1.161-.658 2.903-.716 3.89-.116l15.022 8.885 3.814-2.148c1.161-.659 1.297-1.665.309-2.246l-19.145-11.324c-.987-.581-2.729-.523-3.89.116l-17.597 9.911c-1.142.658-1.277 1.665-.29 2.246Z"/>
  <path fill="url(#C)" d="M103.958 658.89h-3.001a5.973 5.973 0 0 1-5.981-5.982V606.74a5.973 5.973 0 0 1 5.981-5.982h3.001a5.973 5.973 0 0 1 5.981 5.982v46.168a5.985 5.985 0 0 1-5.981 5.982Z"/>
  <path fill="url(#D)" d="M102.544 629.814c20.1 0 36.393-16.293 36.393-36.392 0-20.099-16.293-36.393-36.393-36.393-20.099 0-36.392 16.294-36.392 36.393s16.293 36.392 36.392 36.392Z"/>
  <path fill="url(#E)" d="M102.467 536.394c-14.092 0-25.513 11.421-25.513 25.513a25.316 25.316 0 0 0 4.316 14.19c0 .174.33.329.368.503a24.51 24.51 0 0 0 1.762 2.207c3 2.652 7.84 7.549 19.067 7.549 12.079 0 16.028-4.355 18.796-7.259.814-.89 1.588-1.82 2.285-2.826 0-.058.019-.116.019-.174h.097a25.369 25.369 0 0 0 4.317-14.19c-.02-14.092-11.441-25.513-25.514-25.513Z"/>
  <path stroke="#8F9295" d="m84.178 726.316-76.84-44.538C2.204 678.796.066 674.79.573 670.761c.511-4.069 3.736-8.351 9.75-11.802h.001l64.95-37.366c6.006-3.445 13.56-5.363 20.92-5.659 7.367-.296 14.482 1.033 19.628 4.022l76.84 44.538c5.134 2.982 7.272 6.987 6.765 11.017-.511 4.069-3.736 8.351-9.751 11.801v.001l-64.951 37.366h-.001c-6.004 3.46-13.557 5.378-20.918 5.67-7.366.293-14.482-1.044-19.628-4.033Z"/>
  <path fill="#C3C5CE" d="m160.102 673.814-.039-14.247-8.246-.039-43.342-19.319c-6.466-3.755-17.79-3.31-25.262 1.007l-39.974 17.19c-.329.193-.639.387-.948.58l-5.266-.019v13.628c.059 2.323 1.49 4.53 4.356 6.214l47.29 27.41c6.466 3.756 17.791 3.291 25.263-1.006l39.973-22.997c4.143-2.42 6.253-5.498 6.195-8.402Z"/>
  <path fill="#FDF6FF" d="M88.653 692.553 41.36 665.142c-6.465-3.755-5.652-10.279 1.84-14.576l39.973-22.997c7.492-4.298 18.797-4.762 25.262-1.007l47.291 27.411c6.466 3.755 5.653 10.279-1.839 14.576l-39.974 22.997c-7.491 4.317-18.796 4.762-25.261 1.007Z"/>
  <path fill="#C3C5CE" d="M135.414 661.29v-5.691l-65.817-1.297v5.149c-.232.716.078 1.452.949 1.975l29.85 17.654c1.548.91 4.258.832 6.078-.194l27.43-15.467c1.084-.6 1.587-1.393 1.51-2.129Z"/>
  <path fill="#EFEFF2" d="m100.415 673.021-29.85-17.655c-1.549-.909-1.335-2.477.465-3.503l27.43-15.467c1.8-1.026 4.529-1.104 6.078-.194l29.85 17.655c1.548.909 1.335 2.477-.465 3.503l-27.43 15.467c-1.819 1.026-4.549 1.104-6.078.194Z"/>
  <path fill="#FFF6FF" d="m101.151 666.42-19.145-11.324c-.987-.581-.852-1.588.31-2.246l17.596-9.911c1.161-.658 2.904-.716 3.891-.116l19.145 11.324c.987.581.851 1.587-.31 2.246l-17.596 9.911c-1.162.639-2.904.697-3.891.116Z"/>
  <path fill="#C3C5CE" d="m82.006 655.096 4.123 2.439 13.764-7.763c1.161-.658 2.903-.716 3.89-.116l15.022 8.885 3.814-2.148c1.161-.659 1.297-1.665.309-2.246l-19.145-11.324c-.987-.581-2.729-.523-3.89.116l-17.597 9.911c-1.142.658-1.277 1.665-.29 2.246Z"/>
  <path fill="url(#F)" d="M103.958 658.89h-3.001a5.973 5.973 0 0 1-5.981-5.982V606.74a5.973 5.973 0 0 1 5.981-5.982h3.001a5.973 5.973 0 0 1 5.981 5.982v46.168a5.985 5.985 0 0 1-5.981 5.982Z"/>
  <path fill="url(#G)" d="M102.544 629.814c20.1 0 36.393-16.293 36.393-36.392 0-20.099-16.293-36.393-36.393-36.393-20.099 0-36.392 16.294-36.392 36.393s16.293 36.392 36.392 36.392Z"/>
  <path fill="url(#H)" d="M102.467 536.394c-14.092 0-25.513 11.421-25.513 25.513a25.316 25.316 0 0 0 4.316 14.19c0 .174.33.329.368.503a24.51 24.51 0 0 0 1.762 2.207c3 2.652 7.84 7.549 19.067 7.549 12.079 0 16.028-4.355 18.796-7.259.814-.89 1.588-1.82 2.285-2.826 0-.058.019-.116.019-.174h.097a25.369 25.369 0 0 0 4.317-14.19c-.02-14.092-11.441-25.513-25.514-25.513Z"/>
  <path fill="#E2D7FF" d="M446.327 623.003c-1.529-.891-4.22-.774-6.001.232l-20.809 11.983c-1.781 1.026-1.975 2.574-.426 3.465l24.081 13.937c1.529.891 4.22.775 6.001-.232l20.809-11.982c1.781-1.026 1.975-2.575.426-3.466l-24.081-13.937Z"/>
  <path fill="url(#I)" d="M440.424 623.313c1.78-1.026 4.471-1.123 6-.233l19.629 11.363 11.905-7.549-34.166-20.906-31.398 18.196 12.543 8.053 15.487-8.924Z"/>
  <path fill="url(#J)" d="M484.907 643.735v-17.654l-29.675 13.589-14.809 3-34.94-17.944v16.841c-.175.968.309 1.936 1.51 2.632l35.85 20.752c2.284 1.316 6.291 1.161 8.943-.368l30.953-17.828c1.491-.852 2.227-1.975 2.168-3.02Z"/>
  <path fill="#F8F3FF" d="m483.378 623.971-35.851-20.752c-2.284-1.316-6.291-1.161-8.943.368l-30.953 17.828c-2.652 1.53-2.942 3.833-.639 5.169l35.851 20.751c2.284 1.317 6.291 1.162 8.943-.367l30.953-17.829c2.633-1.548 2.923-3.852.639-5.168Zm-12.97 3.891-20.809 11.982c-1.781 1.026-4.472 1.123-6.001.232l-24.081-13.937c-1.529-.891-1.336-2.439.426-3.465l20.809-11.983c1.781-1.026 4.472-1.123 6.001-.232l24.081 13.937c1.549.891 1.355 2.44-.426 3.466Z"/>
  <path fill="url(#K)" d="m482.72 631.482-30.953 17.828c-2.652 1.529-6.64 1.684-8.943.368l-35.851-20.752c-.871-.503-1.355-1.142-1.51-1.839v16.842c-.174.967.31 1.935 1.51 2.632l35.851 20.752c2.284 1.316 6.291 1.161 8.943-.368l30.953-17.828c1.51-.872 2.245-1.994 2.187-3.04v-17.48c-.019 1.026-.755 2.072-2.187 2.885Z"/>
  <path fill="url(#L)" d="M444.295 635.411a5.709 5.709 0 0 1-5.711-5.71v-29.405a5.709 5.709 0 0 1 5.711-5.71 5.709 5.709 0 0 1 5.711 5.71v29.405a5.709 5.709 0 0 1-5.711 5.71Z"/>
  <path fill="url(#M)" d="M460.304 602.387h.038l-9.465-50.892h-.02c-.523-3.329-3.368-5.904-6.853-5.904-3.484 0-6.349 2.575-6.852 5.943h-.097l-8.808 50.853h.039c-.329 1.316-.561 2.671-.561 4.084 0 9.156 7.414 16.57 16.57 16.57s16.57-7.414 16.57-16.57c0-1.413-.232-2.768-.561-4.084Z"/>
  <path fill="url(#N)" d="M499.232 417.636V117.378l-162.489-3.194v298.903c-.581 1.781.174 3.601 2.362 4.898l73.714 43.594c3.813 2.264 10.531 2.051 14.983-.465l67.752-38.174c2.652-1.49 3.891-3.465 3.678-5.304Z"/>
  <path fill="#C3C5CE" d="m412.8 160.411-73.715-43.594c-3.813-2.265-3.29-6.117 1.162-8.634l67.752-38.173c4.452-2.517 11.169-2.73 14.983-.465l73.714 43.594c3.814 2.265 3.291 6.117-1.161 8.634l-67.752 38.173c-4.453 2.517-11.15 2.729-14.983.465Z"/>
  <path fill="url(#O)" d="M489.495 95.853V59.015l-143.054-2.827v35.638c-.503 1.568.155 3.175 2.072 4.317l64.906 38.386c3.368 1.994 9.273 1.801 13.202-.406l59.641-33.605c2.343-1.317 3.427-3.059 3.233-4.665Z"/>
  <path fill="#C3C5CE" d="M413.419 96.898 348.513 58.51c-3.369-1.994-2.904-5.4 1.026-7.607l59.641-33.605c3.929-2.207 9.834-2.4 13.202-.407l64.906 38.387c3.369 1.993 2.904 5.4-1.026 7.607l-59.641 33.605c-3.929 2.207-9.853 2.4-13.202.407Z"/>
  <path fill="#21AD63" d="m382.95 398.84-18.835-10.898c-2.923-1.685-5.285-6.214-5.265-10.105l.019-211.638c0-3.891 2.381-5.672 5.285-3.988l18.835 10.898c2.923 1.684 5.285 6.214 5.265 10.105l-.019 211.638c0 3.891-2.362 5.691-5.285 3.988Z"/>
  <path fill="url(#P)" d="m379.156 401.202-18.835-10.899c-2.923-1.684-5.285-6.214-5.265-10.105l.019-211.638c0-3.891 2.381-5.672 5.285-3.988l18.835 10.899c2.923 1.684 5.284 6.214 5.265 10.105l-.019 211.638c0 3.891-2.362 5.672-5.285 3.988Z"/>
  <path fill="url(#Q)" d="M457.535 55.104V14.395l-47.271-.93v40.323c-.175.523.058 1.045.677 1.433L432.39 67.9c1.103.658 3.058.6 4.355-.136l19.706-11.111c.775-.445 1.142-1.026 1.084-1.549Z"/>
  <path fill="#C3C5CE" d="m432.39 26.9-21.449-12.68c-1.103-.657-.967-1.78.349-2.516L430.996.593c1.297-.736 3.252-.794 4.356-.136l21.448 12.68c1.103.658.948 1.78-.349 2.516l-19.706 11.112c-1.297.735-3.232.793-4.355.135Z"/>
  <path fill="url(#R)" d="m368.684 406.815-18.836-10.898c-2.923-1.684-5.284-6.214-5.265-10.105l.02-211.638c0-3.891 2.38-5.672 5.284-3.988l18.835 10.899c2.923 1.684 5.285 6.213 5.266 10.104l-.02 211.639c-.019 3.891-2.381 5.671-5.284 3.987Z"/>
  <path fill="url(#S)" d="M714.529 493.577V299.651l-134.459-2.284v192.571c-.31 1.645.522 3.29 2.536 4.452l60.686 35.134c3.872 2.246 10.647 1.975 15.138-.6l52.401-30.179c2.556-1.471 3.794-3.387 3.698-5.168Z"/>
  <path fill="#C3C5CE" d="M649.235 265c-2.594-1.509-7.162-1.316-10.163.407l-35.212 20.267c-3.019 1.743-3.349 4.356-.735 5.866l40.767 23.597c2.614 1.51 7.163 1.316 10.163-.407l35.212-20.267c3.02-1.742 3.349-4.356.735-5.865L649.235 265Z"/>
  <path fill="url(#T)" d="M639.208 265.523c3.02-1.742 7.569-1.916 10.163-.406l33.237 19.241 20.132-12.795-57.822-35.386-53.137 30.798 21.216 13.628 26.211-15.08Z"/>
  <path fill="url(#U)" d="M714.529 300.058v-29.87l-50.234 23.017-25.068 5.072-59.138-30.373v28.514c-.309 1.646.523 3.272 2.536 4.453l60.687 35.134c3.871 2.245 10.646 1.974 15.137-.6l52.402-30.179c2.536-1.471 3.775-3.388 3.678-5.168Z"/>
  <path fill="#F8F3FF" d="m711.916 266.607-60.687-35.134c-3.871-2.246-10.647-1.975-15.138.6l-52.401 30.179c-4.472 2.574-4.975 6.485-1.104 8.73l60.687 35.134c3.871 2.246 10.647 1.975 15.138-.6l52.401-30.178c4.491-2.575 4.994-6.485 1.104-8.731Zm-21.933 6.601-35.212 20.268c-3.019 1.742-7.568 1.916-10.162.406l-40.768-23.597c-2.613-1.51-2.265-4.142.736-5.865l35.212-20.268c3.019-1.742 7.568-1.916 10.162-.406l40.768 23.597c2.594 1.49 2.265 4.123-.736 5.865Z"/>
  <path fill="url(#V)" d="m710.831 279.345-52.401 30.178c-4.472 2.575-11.247 2.846-15.138.6l-60.686-35.134c-1.472-.852-2.304-1.936-2.536-3.097v28.514c-.31 1.645.522 3.291 2.536 4.452l60.686 35.134c3.872 2.246 10.647 1.975 15.138-.6l52.401-30.178c2.556-1.472 3.814-3.369 3.698-5.169v-29.579c-.039 1.723-1.297 3.485-3.698 4.879Z"/>
  <path fill="#21AD63" d="m629.49 484.053-31.263-18.1c-2.149-1.258-3.91-4.588-3.91-7.472 0-2.884 1.761-4.2 3.91-2.942l31.263 18.099c2.149 1.259 3.91 4.588 3.91 7.472 0 2.865-1.742 4.182-3.91 2.943Z"/>
  <path fill="url(#W)" d="m625.541 485.427-31.263-18.099c-2.148-1.259-3.91-4.588-3.91-7.473 0-2.884 1.762-4.2 3.91-2.942l31.263 18.1c2.149 1.258 3.91 4.587 3.91 7.472 0 2.865-1.742 4.2-3.91 2.942Z"/>
  <path fill="#21AD63" d="m629.49 459.352-31.263-18.099c-2.149-1.258-3.91-4.588-3.91-7.472 0-2.885 1.761-4.201 3.91-2.943l31.263 18.1c2.149 1.258 3.91 4.588 3.91 7.472 0 2.865-1.742 4.181-3.91 2.942Z"/>
  <path fill="url(#X)" d="m625.541 460.727-31.263-18.1c-2.148-1.258-3.91-4.588-3.91-7.472 0-2.884 1.762-4.201 3.91-2.942l31.263 18.099c2.149 1.258 3.91 4.588 3.91 7.472 0 2.865-1.742 4.201-3.91 2.943Z"/>
  <path fill="#21AD63" d="m629.49 435.058-31.263-18.099c-2.149-1.258-3.91-4.588-3.91-7.472 0-2.884 1.761-4.201 3.91-2.943l31.263 18.1c2.149 1.258 3.91 4.588 3.91 7.472 0 2.865-1.742 4.201-3.91 2.942Z"/>
  <path fill="url(#Y)" d="m625.541 436.452-31.263-18.1c-2.148-1.258-3.91-4.587-3.91-7.472 0-2.884 1.762-4.2 3.91-2.942l31.263 18.099c2.149 1.259 3.91 4.588 3.91 7.473 0 2.865-1.742 4.181-3.91 2.942Z"/>
  <path fill="#21AD63" d="m629.49 410.358-31.263-18.1c-2.149-1.258-3.91-4.588-3.91-7.472 0-2.884 1.761-4.2 3.91-2.942l31.263 18.099c2.149 1.258 3.91 4.588 3.91 7.472 0 2.885-1.742 4.201-3.91 2.943Z"/>
  <path fill="url(#Z)" d="m625.541 411.751-31.263-18.099c-2.148-1.258-3.91-4.588-3.91-7.472 0-2.885 1.762-4.201 3.91-2.943l31.263 18.1c2.149 1.258 3.91 4.588 3.91 7.472 0 2.865-1.742 4.181-3.91 2.942Z"/>
  <path fill="#21AD63" d="m629.49 386.083-31.263-18.099c-2.149-1.258-3.91-4.588-3.91-7.472 0-2.885 1.761-4.201 3.91-2.943l31.263 18.1c2.149 1.258 3.91 4.588 3.91 7.472 0 2.865-1.742 4.181-3.91 2.942Z"/>
  <path fill="url(#aa)" d="m625.541 387.458-31.263-18.1c-2.148-1.258-3.91-4.587-3.91-7.472 0-2.884 1.762-4.2 3.91-2.942l31.263 18.099c2.149 1.259 3.91 4.588 3.91 7.472 0 2.885-1.742 4.201-3.91 2.943Z"/>
  <path fill="#21AD63" d="m629.49 361.383-31.263-18.1c-2.149-1.258-3.91-4.588-3.91-7.472 0-2.884 1.761-4.201 3.91-2.942l31.263 18.099c2.149 1.258 3.91 4.588 3.91 7.472 0 2.865-1.742 4.182-3.91 2.943Z"/>
  <path fill="url(#ab)" d="m625.541 362.757-31.263-18.099c-2.148-1.259-3.91-4.588-3.91-7.472 0-2.885 1.762-4.201 3.91-2.943l31.263 18.1c2.149 1.258 3.91 4.587 3.91 7.472 0 2.884-1.742 4.2-3.91 2.942Z"/>
  <path fill="#28D57A" d="m625.541 485.427-31.263-18.099c-2.148-1.258-3.91-4.588-3.91-7.472 0-2.885 1.762-4.201 3.91-2.943l31.263 18.1c2.149 1.258 3.91 4.588 3.91 7.472 0 2.865-1.742 4.201-3.91 2.942ZM625.541 460.727l-31.263-18.1c-2.148-1.258-3.91-4.587-3.91-7.472 0-2.884 1.762-4.2 3.91-2.942l31.263 18.099c2.149 1.259 3.91 4.588 3.91 7.472 0 2.865-1.742 4.201-3.91 2.943ZM625.541 436.452l-31.263-18.099c-2.148-1.259-3.91-4.588-3.91-7.472 0-2.885 1.762-4.201 3.91-2.943l31.263 18.1c2.149 1.258 3.91 4.588 3.91 7.472 0 2.865-1.742 4.181-3.91 2.942ZM625.541 411.752l-31.263-18.1c-2.148-1.258-3.91-4.588-3.91-7.472 0-2.884 1.762-4.2 3.91-2.942l31.263 18.099c2.149 1.259 3.91 4.588 3.91 7.472 0 2.865-1.742 4.182-3.91 2.943ZM625.541 387.458l-31.263-18.1c-2.148-1.258-3.91-4.587-3.91-7.472 0-2.884 1.762-4.2 3.91-2.942l31.263 18.099c2.149 1.259 3.91 4.588 3.91 7.472 0 2.885-1.742 4.201-3.91 2.943ZM625.541 362.757l-31.263-18.099c-2.148-1.259-3.91-4.588-3.91-7.472 0-2.885 1.762-4.201 3.91-2.943l31.263 18.1c2.149 1.258 3.91 4.587 3.91 7.472 0 2.884-1.742 4.2-3.91 2.942Z"/>
  <path fill="#C3C5CE" d="M738.145 533.705v-5.4l-62.467-1.239v4.878c-.232.697.077 1.394.91 1.878l28.34 16.763c1.471.871 4.045.794 5.768-.174l26.036-14.673c1.026-.581 1.491-1.336 1.413-2.033Z"/>
  <path fill="#EFEFF2" d="m704.928 544.836-28.34-16.764c-1.471-.871-1.258-2.361.445-3.329l26.036-14.673c1.723-.968 4.298-1.046 5.769-.175l28.34 16.764c1.471.871 1.258 2.362-.445 3.33l-26.037 14.673c-1.722.968-4.297 1.045-5.768.174Z"/>
  <path fill="#FAF5FE" d="m705.624 538.564-18.177-10.744c-.949-.561-.813-1.51.29-2.129l16.687-9.408c1.103-.619 2.749-.677 3.697-.116l18.177 10.744c.949.561.813 1.509-.29 2.129l-16.687 9.408c-1.103.619-2.749.677-3.697.116Z"/>
  <path fill="#C3C5CE" d="m687.466 527.82 3.911 2.304 13.066-7.356c1.104-.619 2.749-.677 3.697-.116l14.248 8.44 3.62-2.033c1.103-.619 1.219-1.568.29-2.129l-18.177-10.744c-.949-.561-2.594-.503-3.697.117l-16.687 9.408c-1.084.6-1.219 1.548-.271 2.109Z"/>
  <path fill="url(#ac)" d="M706.883 531.421a7.097 7.097 0 0 1-7.105-7.104v-40.961a7.097 7.097 0 0 1 7.105-7.105 7.097 7.097 0 0 1 7.104 7.105v40.961c0 3.929-3.194 7.104-7.104 7.104Z"/>
  <path fill="url(#ad)" d="M706.96 503.836c19.083 0 34.553-15.47 34.553-34.553 0-19.084-15.47-34.554-34.553-34.554-19.084 0-34.554 15.47-34.554 34.554 0 19.083 15.47 34.553 34.554 34.553Z"/>
  <path fill="url(#ae)" d="M706.883 415.178c-13.377 0-24.217 10.84-24.217 24.216 0 4.995 1.51 9.621 4.104 13.473 0 .155.31.31.348.465a25.392 25.392 0 0 0 1.684 2.11c2.846 2.516 7.434 7.162 18.1 7.162 11.479 0 15.196-4.142 17.828-6.891a26.222 26.222 0 0 0 2.168-2.691c0-.058.02-.116.02-.174h.097a24.015 24.015 0 0 0 4.103-13.473c-.038-13.357-10.879-24.197-24.235-24.197Z"/>
  <path fill="#C3C5CE" d="m602.777 555.754 23.152 13.454-24.275 13.705 23.868 13.396 46.884-27.101-46.071-27.101-23.558 13.647Z"/>
  <path fill="url(#af)" d="M662.514 568.143v-48.627l-28.01-.561v48.394c-.097.31.039.62.406.852l12.699 7.511c.658.387 1.82.348 2.575-.078l11.672-6.581c.484-.252.697-.581.658-.91Z"/>
  <path fill="#C3C5CE" d="m647.629 526.95-12.699-7.511c-.658-.387-.561-1.065.194-1.491l11.672-6.581c.775-.426 1.917-.465 2.575-.078l12.698 7.511c.659.387.562 1.065-.193 1.491l-11.673 6.581c-.774.426-1.916.465-2.574.078Z"/>
  <path fill="url(#ag)" d="M589.691 620.06V488.718l-64.907-1.278v130.801c-.232.716.078 1.432.949 1.955l29.443 17.422c1.529.91 4.201.813 5.982-.194l27.062-15.254c1.064-.58 1.568-1.374 1.471-2.11Z"/>
  <path fill="url(#ah)" d="m555.176 505.908-29.443-17.422c-1.529-.91-1.316-2.439.465-3.446l27.062-15.254c1.781-1.006 4.471-1.084 5.981-.193l29.443 17.422c1.53.909 1.317 2.439-.464 3.445l-27.062 15.254c-1.781 1.007-4.453 1.084-5.982.194Z"/>
  <path fill="#21AD63" d="m542.961 554.554-7.549-4.375c-1.162-.678-2.11-2.497-2.11-4.046V507.34c0-1.568.948-2.284 2.129-1.607l7.55 4.375c1.161.678 2.11 2.497 2.11 4.046v38.793c0 1.568-.949 2.284-2.13 1.607Z"/>
  <path fill="#27D077" d="m541.451 555.502-7.549-4.375c-1.162-.677-2.11-2.497-2.11-4.045v-38.793c0-1.568.948-2.285 2.129-1.607l7.55 4.375c1.161.677 2.11 2.497 2.11 4.046v38.793c-.02 1.567-.968 2.284-2.13 1.606Z"/>
  <path fill="#C3C5CE" d="M558.157 471.954c-1.258-.735-3.465-.639-4.917.194l-17.015 9.795c-1.452.832-1.607 2.11-.349 2.826l19.687 11.402c1.258.735 3.465.639 4.917-.194l17.015-9.795c1.452-.832 1.607-2.11.349-2.826l-19.687-11.402Z"/>
  <path fill="url(#ai)" d="M553.318 472.206c1.452-.832 3.659-.929 4.917-.194l16.048 9.292 9.717-6.175-27.933-17.093-25.669 14.867 10.26 6.582 12.66-7.279Z"/>
  <path fill="url(#aj)" d="M589.691 488.892v-14.44l-24.275 11.111-12.118 2.458-28.572-14.673v13.783c-.154.794.252 1.587 1.22 2.149l29.308 16.976c1.877 1.084 5.149.949 7.317-.29l25.32-14.576c1.258-.717 1.858-1.626 1.8-2.498Z"/>
  <path fill="#F8F3FF" d="m588.452 472.729-29.307-16.977c-1.878-1.084-5.15-.949-7.318.29l-25.32 14.577c-2.168 1.238-2.4 3.136-.522 4.22l29.307 16.976c1.878 1.084 5.15.949 7.318-.29l25.32-14.576c2.148-1.239 2.381-3.136.522-4.22Zm-10.608 3.194-17.015 9.795c-1.452.832-3.659.929-4.917.193l-19.687-11.402c-1.258-.735-1.103-1.993.349-2.826l17.015-9.795c1.452-.832 3.659-.929 4.917-.193l19.687 11.401c1.258.717 1.103 1.975-.349 2.827Z"/>
  <path fill="url(#ak)" d="m587.91 478.884-25.32 14.577c-2.168 1.239-5.439 1.374-7.317.29l-29.308-16.977c-.716-.406-1.103-.929-1.219-1.49v13.782c-.155.794.252 1.588 1.219 2.149l29.308 16.977c1.878 1.084 5.149.948 7.317-.29l25.32-14.577c1.239-.716 1.839-1.626 1.781-2.497v-14.286c0 .813-.6 1.665-1.781 2.342Z"/>
  <path fill="#27D077" d="m537.076 557.98-7.549-4.375c-1.162-.677-2.11-2.497-2.11-4.045v-38.793c0-1.568.948-2.285 2.129-1.607l7.55 4.375c1.161.677 2.11 2.497 2.11 4.046v38.793c-.02 1.568-.968 2.284-2.13 1.606Z"/>
  <path fill="url(#al)" d="M548.285 642.07v-57.047l-47.078-.929v56.66c-.175.522.058 1.045.677 1.413l21.371 12.64c1.103.659 3.058.601 4.336-.135l19.629-11.053c.755-.446 1.123-1.026 1.065-1.549Z"/>
  <path fill="#C3C5CE" d="m523.236 597.489-21.371-12.641c-1.103-.658-.949-1.78.329-2.497l19.629-11.053c1.297-.736 3.233-.794 4.336-.136l21.371 12.641c1.103.658.948 1.781-.329 2.497l-19.629 11.054c-1.277.735-3.233.793-4.336.135Z"/>
  <path fill="url(#am)" d="M544.762 576.312v-10.241l-39.742-.774v9.911c-.135.446.039.891.581 1.201l18.042 10.666c.929.561 2.574.503 3.658-.117l16.57-9.33c.639-.387.949-.871.891-1.316Z"/>
  <path fill="#C3C5CE" d="m523.623 576.602-18.041-10.666c-.93-.561-.813-1.491.29-2.11l16.57-9.33c1.084-.62 2.73-.659 3.659-.117l18.041 10.666c.93.562.813 1.491-.29 2.11l-16.57 9.331c-1.084.619-2.73.658-3.659.116Z"/>
  <path fill="#21AD63" d="m515.222 641.044-6.989-4.046c-1.084-.619-1.955-2.303-1.955-3.755v-35.87c0-1.452.871-2.11 1.955-1.471l6.989 4.046c1.084.619 1.955 2.303 1.955 3.755v35.87c0 1.432-.891 2.091-1.955 1.471Z"/>
  <path fill="#27D077" d="m513.809 641.915-6.989-4.045c-1.084-.62-1.955-2.304-1.955-3.756v-35.87c0-1.451.871-2.11 1.955-1.471l6.989 4.046c1.084.619 1.955 2.303 1.955 3.755v35.87c0 1.433-.871 2.091-1.955 1.471Z"/>
  <path fill="url(#an)" d="M510.595 467.463V221.949l-84.593-1.665v244.798c-.31.929.097 1.878 1.219 2.555l38.387 22.707c1.994 1.181 5.478 1.065 7.801-.232l35.27-19.881c1.394-.793 2.032-1.819 1.916-2.768Z"/>
  <path fill="#C3C5CE" d="m465.608 244.346-38.387-22.707c-1.993-1.181-1.722-3.194.601-4.491l35.269-19.88c2.323-1.317 5.808-1.414 7.802-.233l38.386 22.707c1.994 1.181 1.723 3.194-.6 4.491l-35.27 19.88c-2.323 1.297-5.807 1.413-7.801.233Z"/>
  <path fill="url(#ao)" d="M505.369 208.108v-19.087l-74.14-1.452v18.468c-.271.813.077 1.645 1.084 2.226l33.643 19.9c1.743 1.026 4.801.929 6.834-.213l30.914-17.422c1.2-.678 1.762-1.588 1.665-2.42Z"/>
  <path fill="#C3C5CE" d="m465.937 208.65-33.644-19.9c-1.742-1.026-1.51-2.787.523-3.949l30.914-17.422c2.033-1.142 5.091-1.239 6.834-.213l33.643 19.9c1.743 1.026 1.51 2.788-.522 3.949l-30.915 17.422c-2.032 1.161-5.091 1.258-6.833.213Z"/>
  <path fill="#21AD63" d="m453.045 335.908-14.131-8.169c-2.188-1.258-3.949-4.665-3.949-7.569l.019-72.553c0-2.923 1.781-4.258 3.969-3l14.131 8.169c2.187 1.258 3.949 4.665 3.949 7.569l-.02 72.553c0 2.923-1.781 4.258-3.968 3Z"/>
  <path fill="url(#ap)" d="m450.199 337.669-14.131-8.169c-2.187-1.258-3.949-4.665-3.949-7.568l.019-72.553c0-2.923 1.781-4.259 3.969-3.001l14.131 8.169c2.187 1.258 3.949 4.665 3.949 7.569l-.019 72.553c0 2.923-1.781 4.259-3.969 3Z"/>
  <path fill="url(#aq)" d="M446.211 490.228V348.336l-70.113-1.375v141.312c-.252.774.077 1.548 1.025 2.11l31.805 18.816c1.646.967 4.549.89 6.466-.194l29.23-16.474c1.161-.658 1.684-1.509 1.587-2.303Z"/>
  <path fill="#C3C5CE" d="m408.928 366.9-31.805-18.816c-1.645-.968-1.413-2.652.504-3.736l29.23-16.474c1.916-1.084 4.82-1.18 6.465-.193l31.805 18.816c1.646.967 1.413 2.652-.503 3.736l-29.23 16.473c-1.917 1.084-4.82 1.162-6.466.194Z"/>
  <path fill="#21AD63" d="m398.049 479.174-9.64-5.575c-1.491-.871-2.71-3.174-2.71-5.168v-92.917c0-1.994 1.219-2.904 2.71-2.052l9.64 5.575c1.491.871 2.71 3.174 2.71 5.168v92.918c0 2.013-1.219 2.923-2.71 2.051Z"/>
  <path fill="url(#ar)" d="m396.094 480.394-9.64-5.575c-1.491-.871-2.71-3.175-2.71-5.168v-92.918c0-1.993 1.219-2.903 2.71-2.052l9.64 5.576c1.49.871 2.71 3.174 2.71 5.168v92.917c0 1.994-1.22 2.904-2.71 2.052Z"/>
  <path fill="url(#as)" d="m390.519 483.704-9.64-5.575c-1.491-.871-2.71-3.174-2.71-5.168v-92.918c0-1.993 1.219-2.903 2.71-2.051l9.64 5.575c1.491.871 2.71 3.174 2.71 5.168v92.917c0 1.994-1.219 2.923-2.71 2.052Z"/>
  <path fill="url(#at)" d="M489.205 516.825v-84.941l-70.114-1.375v84.361c-.251.775.078 1.549 1.026 2.11l31.805 18.816c1.645.968 4.549.891 6.465-.193l29.231-16.474c1.142-.658 1.684-1.51 1.587-2.304Z"/>
  <path fill="#C3C5CE" d="m451.922 450.448-31.805-18.816c-1.645-.968-1.413-2.652.504-3.736l29.23-16.473c1.916-1.084 4.82-1.181 6.465-.194l31.805 18.816c1.645.968 1.413 2.652-.503 3.736l-29.231 16.473c-1.916 1.084-4.82 1.162-6.465.194Z"/>
  <path fill="#21AD63" d="m440.636 513.148-9.64-5.576c-1.49-.871-2.71-3.174-2.71-5.168l.02-49.556c0-1.994 1.219-2.904 2.71-2.052l9.64 5.575c1.49.871 2.71 3.175 2.71 5.169l-.019 49.556c0 1.993-1.22 2.923-2.711 2.052Z"/>
  <path fill="#27D077" d="m438.681 514.348-9.64-5.575c-1.49-.871-2.71-3.175-2.71-5.169l.019-49.556c0-1.994 1.22-2.903 2.711-2.052l9.64 5.575c1.49.872 2.71 3.175 2.71 5.169l-.02 49.556c0 2.013-1.219 2.923-2.71 2.052Z"/>
  <defs>
    <linearGradient id="a" x1="931.849" x2="917.849" y1="343.636" y2="343.636" gradientUnits="userSpaceOnUse">
      <stop stop-color="#CFCFCF"/>
      <stop offset="1" stop-color="#EFEFF2"/>
    </linearGradient>
    <linearGradient id="b" x1="837.291" x2="971.286" y1="256.927" y2="442.638" gradientUnits="userSpaceOnUse">
      <stop offset=".005" stop-color="#19E6A4"/>
      <stop offset="1" stop-color="#21AD63"/>
    </linearGradient>
    <linearGradient id="c" x1="871.339" x2="1005.33" y1="309.752" y2="495.462" gradientUnits="userSpaceOnUse">
      <stop offset=".005" stop-color="#28D57A"/>
      <stop offset="1" stop-color="#28D57A"/>
    </linearGradient>
    <linearGradient id="d" x1="851.013" x2="838.425" y1="362.799" y2="362.799" gradientUnits="userSpaceOnUse">
      <stop stop-color="#9C9FA2"/>
      <stop offset="1" stop-color="#ECE9F0"/>
    </linearGradient>
    <linearGradient id="f" x1="690.49" x2="780.806" y1="311.825" y2="497.167" gradientUnits="userSpaceOnUse">
      <stop stop-color="#28D57A"/>
      <stop offset="1" stop-color="#21AD63"/>
    </linearGradient>
    <linearGradient id="g" x1="359.277" x2="237.656" y1="272.288" y2="272.288" gradientUnits="userSpaceOnUse">
      <stop stop-color="#27D178"/>
      <stop offset="1" stop-color="#21AD63"/>
    </linearGradient>
    <linearGradient id="h" x1="1820.62" x2="137.24" y1="1275.04" y2="293.407" gradientUnits="userSpaceOnUse">
      <stop stop-color="#EBF0FC"/>
      <stop offset="1" stop-color="#FFF6FF"/>
    </linearGradient>
    <linearGradient id="i" x1="555.524" x2="528.882" y1="357.553" y2="357.553" gradientUnits="userSpaceOnUse">
      <stop stop-color="#8F9295"/>
      <stop offset="1" stop-color="#EFEFF2"/>
    </linearGradient>
    <linearGradient id="l" x1="233.311" x2="218.169" y1="441.466" y2="441.466" gradientUnits="userSpaceOnUse">
      <stop stop-color="#CFCFCF"/>
      <stop offset="1" stop-color="#EFEFF2"/>
    </linearGradient>
    <linearGradient id="m" x1="190.196" x2="251.236" y1="343.992" y2="343.992" gradientUnits="userSpaceOnUse">
      <stop stop-color="#2BAC6D"/>
      <stop offset="1" stop-color="#27CF77"/>
    </linearGradient>
    <linearGradient id="n" x1="273.882" x2="180.141" y1="376.358" y2="376.358" gradientUnits="userSpaceOnUse">
      <stop stop-color="#21AD63"/>
      <stop offset="1" stop-color="#27D178"/>
    </linearGradient>
    <linearGradient id="o" x1="273.884" x2="180.143" y1="379.407" y2="379.407" gradientUnits="userSpaceOnUse">
      <stop stop-color="#27D178"/>
      <stop offset="1" stop-color="#21AD63"/>
    </linearGradient>
    <linearGradient id="p" x1="203.84" x2="185.919" y1="481.634" y2="453.336" gradientUnits="userSpaceOnUse">
      <stop stop-color="#0E9CFF"/>
      <stop offset="1" stop-color="#FFF6FF"/>
    </linearGradient>
    <linearGradient id="q" x1="203.84" x2="185.918" y1="462.795" y2="434.498" gradientUnits="userSpaceOnUse">
      <stop stop-color="#0E9CFF"/>
      <stop offset="1" stop-color="#FFF6FF"/>
    </linearGradient>
    <linearGradient id="r" x1="203.84" x2="185.918" y1="444.273" y2="415.975" gradientUnits="userSpaceOnUse">
      <stop stop-color="#0E9CFF"/>
      <stop offset="1" stop-color="#FFF6FF"/>
    </linearGradient>
    <linearGradient id="s" x1="203.84" x2="185.919" y1="425.434" y2="397.137" gradientUnits="userSpaceOnUse">
      <stop stop-color="#0E9CFF"/>
      <stop offset="1" stop-color="#FFF6FF"/>
    </linearGradient>
    <linearGradient id="t" x1="287.323" x2="268.912" y1="496.918" y2="496.918" gradientUnits="userSpaceOnUse">
      <stop stop-color="#989B9E"/>
      <stop offset="1" stop-color="#D1D2D5"/>
    </linearGradient>
    <linearGradient id="w" x1="359.404" x2="355.53" y1="591.254" y2="591.254" gradientUnits="userSpaceOnUse">
      <stop stop-color="#CFCFCF"/>
      <stop offset="1" stop-color="#EFEFF2"/>
    </linearGradient>
    <linearGradient id="x" x1="442.673" x2="349.457" y1="637.058" y2="569.346" gradientUnits="userSpaceOnUse">
      <stop stop-color="#6318FF"/>
      <stop offset="1" stop-color="#fff"/>
    </linearGradient>
    <linearGradient id="y" x1="381.187" x2="377.312" y1="591.712" y2="591.712" gradientUnits="userSpaceOnUse">
      <stop stop-color="#CFCFCF"/>
      <stop offset="1" stop-color="#EFEFF2"/>
    </linearGradient>
    <linearGradient id="z" x1="464.455" x2="371.24" y1="625.269" y2="557.557" gradientUnits="userSpaceOnUse">
      <stop stop-color="#6318FF"/>
      <stop offset="1" stop-color="#fff"/>
    </linearGradient>
    <linearGradient id="A" x1="302.635" x2="298.761" y1="370.707" y2="370.707" gradientUnits="userSpaceOnUse">
      <stop stop-color="#CFCFCF"/>
      <stop offset="1" stop-color="#EFEFF2"/>
    </linearGradient>
    <linearGradient id="B" x1="375.282" x2="76.472" y1="820.931" y2="646.685" gradientUnits="userSpaceOnUse">
      <stop stop-color="#9C74FF"/>
      <stop offset="1" stop-color="#FFF6FF"/>
    </linearGradient>
    <linearGradient id="C" x1="111.284" x2="88.247" y1="629.818" y2="629.818" gradientUnits="userSpaceOnUse">
      <stop stop-color="#9B9EA1"/>
      <stop offset="1" stop-color="#D1D2D5"/>
    </linearGradient>
    <linearGradient id="F" x1="111.284" x2="88.247" y1="629.818" y2="629.818" gradientUnits="userSpaceOnUse">
      <stop stop-color="#9B9EA1"/>
      <stop offset="1" stop-color="#D1D2D5"/>
    </linearGradient>
    <linearGradient id="I" x1="419.481" x2="466.761" y1="620.219" y2="620.219" gradientUnits="userSpaceOnUse">
      <stop stop-color="#27D077"/>
      <stop offset="1" stop-color="#21AD63"/>
    </linearGradient>
    <linearGradient id="J" x1="484.302" x2="411.692" y1="645.289" y2="645.289" gradientUnits="userSpaceOnUse">
      <stop stop-color="#21AD63"/>
      <stop offset="1" stop-color="#27D077"/>
    </linearGradient>
    <linearGradient id="K" x1="484.304" x2="411.693" y1="647.65" y2="647.65" gradientUnits="userSpaceOnUse">
      <stop stop-color="#22AF64"/>
      <stop offset="1" stop-color="#22AF64"/>
    </linearGradient>
    <linearGradient id="L" x1="451.351" x2="433.887" y1="614.995" y2="614.995" gradientUnits="userSpaceOnUse">
      <stop stop-color="#A2A5A8"/>
      <stop offset="1" stop-color="#BEC0C3"/>
    </linearGradient>
    <linearGradient id="N" x1="429.389" x2="406.908" y1="288.661" y2="288.661" gradientUnits="userSpaceOnUse">
      <stop stop-color="#CFCFCF"/>
      <stop offset="1" stop-color="#EFEFF2"/>
    </linearGradient>
    <linearGradient id="O" x1="417.898" x2="417.898" y1="56.188" y2="135.909" gradientUnits="userSpaceOnUse">
      <stop stop-color="#28D57A"/>
      <stop offset="1" stop-color="#28D57A"/>
    </linearGradient>
    <linearGradient id="P" x1="310.453" x2="639.576" y1="200.702" y2="656.852" gradientUnits="userSpaceOnUse">
      <stop offset=".005" stop-color="#28D57A"/>
      <stop offset="1" stop-color="#21AD63"/>
    </linearGradient>
    <linearGradient id="Q" x1="433.874" x2="433.874" y1="13.466" y2="68.357" gradientUnits="userSpaceOnUse">
      <stop stop-color="#21AD63"/>
      <stop offset="1" stop-color="#28D57A"/>
    </linearGradient>
    <linearGradient id="R" x1="299.98" x2="629.102" y1="206.315" y2="662.467" gradientUnits="userSpaceOnUse">
      <stop offset=".005" stop-color="#28D57A"/>
      <stop offset="1" stop-color="#21AD63"/>
    </linearGradient>
    <linearGradient id="S" x1="660.304" x2="640.453" y1="414.203" y2="414.203" gradientUnits="userSpaceOnUse">
      <stop stop-color="#CFCFCF"/>
      <stop offset="1" stop-color="#EFEFF2"/>
    </linearGradient>
    <linearGradient id="T" x1="603.78" x2="683.805" y1="260.278" y2="260.278" gradientUnits="userSpaceOnUse">
      <stop stop-color="#28D57A"/>
      <stop offset="1" stop-color="#21AD63"/>
    </linearGradient>
    <linearGradient id="U" x1="713.495" x2="590.596" y1="302.712" y2="302.712" gradientUnits="userSpaceOnUse">
      <stop stop-color="#28D57A"/>
      <stop offset=".635" stop-color="#21AD63"/>
    </linearGradient>
    <linearGradient id="V" x1="713.497" x2="590.599" y1="306.708" y2="306.708" gradientUnits="userSpaceOnUse">
      <stop stop-color="#28D57A"/>
      <stop offset="1" stop-color="#21AD63"/>
    </linearGradient>
    <linearGradient id="W" x1="621.666" x2="598.171" y1="489.714" y2="452.615" gradientUnits="userSpaceOnUse">
      <stop stop-color="#0E9CFF"/>
      <stop offset="1" stop-color="#FFF6FF"/>
    </linearGradient>
    <linearGradient id="X" x1="621.667" x2="598.171" y1="465.017" y2="427.917" gradientUnits="userSpaceOnUse">
      <stop stop-color="#0E9CFF"/>
      <stop offset="1" stop-color="#FFF6FF"/>
    </linearGradient>
    <linearGradient id="Y" x1="621.667" x2="598.171" y1="440.732" y2="403.632" gradientUnits="userSpaceOnUse">
      <stop stop-color="#0E9CFF"/>
      <stop offset="1" stop-color="#FFF6FF"/>
    </linearGradient>
    <linearGradient id="Z" x1="621.667" x2="598.171" y1="416.034" y2="378.935" gradientUnits="userSpaceOnUse">
      <stop stop-color="#0E9CFF"/>
      <stop offset="1" stop-color="#FFF6FF"/>
    </linearGradient>
    <linearGradient id="aa" x1="621.666" x2="598.171" y1="391.75" y2="354.651" gradientUnits="userSpaceOnUse">
      <stop stop-color="#0E9CFF"/>
      <stop offset="1" stop-color="#FFF6FF"/>
    </linearGradient>
    <linearGradient id="ab" x1="621.667" x2="598.171" y1="367.052" y2="329.953" gradientUnits="userSpaceOnUse">
      <stop stop-color="#0E9CFF"/>
      <stop offset="1" stop-color="#FFF6FF"/>
    </linearGradient>
    <linearGradient id="ac" x1="715.253" x2="693.388" y1="503.836" y2="503.836" gradientUnits="userSpaceOnUse">
      <stop stop-color="#9A9DA0"/>
      <stop offset="1" stop-color="#D1D2D5"/>
    </linearGradient>
    <linearGradient id="af" x1="650.479" x2="646.604" y1="547.484" y2="547.484" gradientUnits="userSpaceOnUse">
      <stop stop-color="#CFCFCF"/>
      <stop offset="1" stop-color="#EFEFF2"/>
    </linearGradient>
    <linearGradient id="ag" x1="561.804" x2="552.825" y1="562.838" y2="562.838" gradientUnits="userSpaceOnUse">
      <stop stop-color="#CFCFCF"/>
      <stop offset="1" stop-color="#EFEFF2"/>
    </linearGradient>
    <linearGradient id="ah" x1="754.78" x2="538.752" y1="631.269" y2="474.344" gradientUnits="userSpaceOnUse">
      <stop stop-color="#6318FF"/>
      <stop offset="1" stop-color="#FFF6E2"/>
    </linearGradient>
    <linearGradient id="ai" x1="536.207" x2="574.863" y1="469.674" y2="469.674" gradientUnits="userSpaceOnUse">
      <stop stop-color="#21AD63"/>
      <stop offset="1" stop-color="#27D077"/>
    </linearGradient>
    <linearGradient id="aj" x1="589.205" x2="529.839" y1="490.172" y2="490.172" gradientUnits="userSpaceOnUse">
      <stop stop-color="#21AD63"/>
      <stop offset="1" stop-color="#28D57A"/>
    </linearGradient>
    <linearGradient id="ak" x1="589.206" x2="529.84" y1="492.102" y2="492.102" gradientUnits="userSpaceOnUse">
      <stop stop-color="#27D077"/>
      <stop offset="1" stop-color="#21AD63"/>
    </linearGradient>
    <linearGradient id="al" x1="528.046" x2="521.532" y1="619.676" y2="619.676" gradientUnits="userSpaceOnUse">
      <stop stop-color="#CFCFCF"/>
      <stop offset="1" stop-color="#EFEFF2"/>
    </linearGradient>
    <linearGradient id="am" x1="543.737" x2="503.939" y1="576.36" y2="576.36" gradientUnits="userSpaceOnUse">
      <stop stop-color="#27D077"/>
      <stop offset="1" stop-color="#21AD63"/>
    </linearGradient>
    <linearGradient id="an" x1="474.243" x2="462.539" y1="355.714" y2="355.714" gradientUnits="userSpaceOnUse">
      <stop stop-color="#CFCFCF"/>
      <stop offset="1" stop-color="#EFEFF2"/>
    </linearGradient>
    <linearGradient id="ao" x1="503.458" x2="429.223" y1="208.219" y2="208.219" gradientUnits="userSpaceOnUse">
      <stop stop-color="#28D57A"/>
      <stop offset="1" stop-color="#21AD63"/>
    </linearGradient>
    <linearGradient id="ap" x1="418.66" x2="554.613" y1="258.076" y2="446.501" gradientUnits="userSpaceOnUse">
      <stop offset=".005" stop-color="#28D57A"/>
      <stop offset="1" stop-color="#21AD63"/>
    </linearGradient>
    <linearGradient id="aq" x1="416.085" x2="406.385" y1="428.411" y2="428.411" gradientUnits="userSpaceOnUse">
      <stop stop-color="#CFCFCF"/>
      <stop offset="1" stop-color="#EFEFF2"/>
    </linearGradient>
    <linearGradient id="ar" x1="364.499" x2="513.162" y1="390.406" y2="596.449" gradientUnits="userSpaceOnUse">
      <stop offset=".005" stop-color="#28D57A"/>
      <stop offset="1" stop-color="#26C873"/>
    </linearGradient>
    <linearGradient id="as" x1="358.915" x2="507.579" y1="393.719" y2="599.762" gradientUnits="userSpaceOnUse">
      <stop offset=".005" stop-color="#28D57A"/>
      <stop offset="1" stop-color="#21AD63"/>
    </linearGradient>
    <linearGradient id="at" x1="459.074" x2="449.374" y1="483.478" y2="483.478" gradientUnits="userSpaceOnUse">
      <stop stop-color="#CFCFCF"/>
      <stop offset="1" stop-color="#EFEFF2"/>
    </linearGradient>
    <radialGradient id="e" cx="0" cy="0" r="1" gradientTransform="matrix(53.3234 0 0 53.3233 836.722 317.273)" gradientUnits="userSpaceOnUse">
      <stop stop-color="#28D57A"/>
      <stop offset="1" stop-color="#21AD63"/>
    </radialGradient>
    <radialGradient id="j" cx="0" cy="0" r="1" gradientTransform="translate(515.13 310.139) scale(78.4969)" gradientUnits="userSpaceOnUse">
      <stop stop-color="#28D57A"/>
      <stop offset="1" stop-color="#21AD63"/>
    </radialGradient>
    <radialGradient id="k" cx="0" cy="0" r="1" gradientTransform="translate(531.553 266.539) scale(54.4609)" gradientUnits="userSpaceOnUse">
      <stop stop-color="#27CE76"/>
      <stop offset="1" stop-color="#21AD63"/>
    </radialGradient>
    <radialGradient id="u" cx="0" cy="0" r="1" gradientTransform="translate(259.408 464.152) scale(54.2467)" gradientUnits="userSpaceOnUse">
      <stop stop-color="#28D178"/>
      <stop offset="1" stop-color="#21AD63"/>
    </radialGradient>
    <radialGradient id="v" cx="0" cy="0" r="1" gradientTransform="translate(270.758 434.021) scale(37.6359)" gradientUnits="userSpaceOnUse">
      <stop stop-color="#28D57A"/>
      <stop offset="1" stop-color="#21AD63"/>
    </radialGradient>
    <radialGradient id="D" cx="0" cy="0" r="1" gradientTransform="translate(76.355 588.82) scale(67.8753)" gradientUnits="userSpaceOnUse">
      <stop stop-color="#27D077"/>
      <stop offset="1" stop-color="#21AD63"/>
    </radialGradient>
    <radialGradient id="E" cx="0" cy="0" r="1" gradientTransform="translate(90.557 551.119) scale(47.0916)" gradientUnits="userSpaceOnUse">
      <stop stop-color="#27CE76"/>
      <stop offset="1" stop-color="#21AD63"/>
    </radialGradient>
    <radialGradient id="G" cx="0" cy="0" r="1" gradientTransform="translate(76.355 588.82) scale(67.8753)" gradientUnits="userSpaceOnUse">
      <stop stop-color="#27D077"/>
      <stop offset="1" stop-color="#21AD63"/>
    </radialGradient>
    <radialGradient id="H" cx="0" cy="0" r="1" gradientTransform="translate(90.557 551.119) scale(47.0916)" gradientUnits="userSpaceOnUse">
      <stop stop-color="#27CE76"/>
      <stop offset="1" stop-color="#21AD63"/>
    </radialGradient>
    <radialGradient id="M" cx="0" cy="0" r="1" gradientTransform="translate(431.524 551.833) scale(73.9791)" gradientUnits="userSpaceOnUse">
      <stop stop-color="#27D077"/>
      <stop offset="1" stop-color="#21AD63"/>
    </radialGradient>
    <radialGradient id="ad" cx="0" cy="0" r="1" gradientTransform="translate(682.102 464.925) scale(64.4203)" gradientUnits="userSpaceOnUse">
      <stop stop-color="#27CF76"/>
      <stop offset="1" stop-color="#22B166"/>
    </radialGradient>
    <radialGradient id="ae" cx="0" cy="0" r="1" gradientTransform="translate(695.581 429.143) scale(44.6945)" gradientUnits="userSpaceOnUse">
      <stop stop-color="#28D57A"/>
      <stop offset="1" stop-color="#21AD63"/>
    </radialGradient>
  </defs>
</svg>
