<svg width="2054" height="1187" viewBox="0 0 2054 1187" fill="none" xmlns="http://www.w3.org/2000/svg">
<g filter="url(#filter0_d_129_73)">
<path d="M735.053 822.589L735.968 822.12L735.053 822.589ZM739.585 386.25L698.449 410L700.181 411L741.317 387.25L739.585 386.25ZM698.449 436L754.308 468.25L756.04 467.25L700.181 435L698.449 436ZM754.308 492.25L713.605 515.75L715.337 516.75L756.04 493.25L754.308 492.25ZM811.465 561.25L973.412 467.75L971.68 466.75L809.733 560.25L811.465 561.25ZM1014.98 467.75L1172.6 558.75L1174.33 557.75L1016.71 466.75L1014.98 467.75ZM1172.6 582.75L1105.48 621.5L1107.21 622.5L1174.33 583.75L1172.6 582.75ZM1105.48 647.5L1201.61 703L1203.34 702L1107.21 646.5L1105.48 647.5ZM1234.52 909L1131.03 849.25L1129.3 850.25L1232.79 910L1234.52 909ZM1086 849.25L1064.78 861.5L1066.51 862.5L1087.73 850.25L1086 849.25ZM1023.21 861.5L779.856 721L778.123 722L1021.48 862.5L1023.21 861.5ZM573.308 696.75L475.448 753.25L477.18 754.25L575.041 697.75L573.308 696.75ZM475.448 779.25L586.732 843.5L588.464 842.5L477.18 778.25L475.448 779.25ZM586.732 867.5L552.957 887L554.689 888L588.464 868.5L586.732 867.5ZM552.957 913L841.343 1079.5L843.075 1078.5L554.689 912L552.957 913ZM886.377 1079.5L930.977 1053.75L929.245 1052.75L884.645 1078.5L886.377 1079.5ZM236.425 538.25L327.357 485.75L325.625 484.75L234.693 537.25L236.425 538.25ZM368.926 485.75L539.533 584.25L541.266 583.25L370.659 484.75L368.926 485.75ZM446.436 415L414.826 433.25L416.558 434.25L448.168 416L446.436 415ZM414.826 459.25L585.433 557.75L587.165 556.75L416.558 458.25L414.826 459.25ZM649.86 808.875L630.049 797.437L628.317 798.437L648.128 809.875L649.86 808.875ZM630.049 773.437L647.802 763.188L646.07 762.188L628.317 772.437L630.049 773.437ZM675.406 823.624L649.86 808.875L648.128 809.875L673.674 824.624L675.406 823.624ZM748.915 830.53L735.968 822.12L734.138 823.059L747.084 831.47L748.915 830.53ZM327.357 485.75C338.836 479.123 357.447 479.123 368.926 485.75L370.659 484.75C358.223 477.57 338.061 477.57 325.625 484.75L327.357 485.75ZM841.343 1079.5C853.779 1086.68 873.941 1086.68 886.377 1079.5L884.645 1078.5C873.166 1085.13 854.554 1085.13 843.075 1078.5L841.343 1079.5ZM1064.78 861.5C1053.3 868.127 1034.69 868.127 1023.21 861.5L1021.48 862.5C1033.91 869.68 1054.07 869.68 1066.51 862.5L1064.78 861.5ZM1131.03 849.25C1118.59 842.07 1098.43 842.07 1086 849.25L1087.73 850.25C1099.21 843.623 1117.82 843.623 1129.3 850.25L1131.03 849.25ZM475.448 753.25C463.012 760.43 463.012 772.07 475.448 779.25L477.18 778.25C465.701 771.623 465.701 760.877 477.18 754.25L475.448 753.25ZM630.049 797.437C618.57 790.81 618.57 780.065 630.049 773.437L628.317 772.437C615.882 779.617 615.882 791.258 628.317 798.437L630.049 797.437ZM973.412 467.75C984.891 461.123 1003.5 461.123 1014.98 467.75L1016.71 466.75C1004.28 459.57 984.116 459.57 971.68 466.75L973.412 467.75ZM552.957 887C540.521 894.18 540.521 905.82 552.957 913L554.689 912C543.21 905.373 543.21 894.627 554.689 888L552.957 887ZM735.968 822.12C727.189 816.417 711.615 816.681 703.431 822.672L705.354 823.547C712.594 818.248 726.371 818.014 734.138 823.059L735.968 822.12ZM1105.48 621.5C1093.05 628.68 1093.05 640.32 1105.48 647.5L1107.21 646.5C1095.73 639.873 1095.73 629.127 1107.21 622.5L1105.48 621.5ZM414.826 433.25C402.39 440.43 402.39 452.07 414.826 459.25L416.558 458.25C405.079 451.623 405.079 440.877 416.558 434.25L414.826 433.25ZM754.308 468.25C765.787 474.877 765.787 485.623 754.308 492.25L756.04 493.25C768.475 486.07 768.475 474.43 756.04 467.25L754.308 468.25ZM586.732 843.5C598.211 850.127 598.211 860.873 586.732 867.5L588.464 868.5C600.899 861.32 600.899 849.68 588.464 842.5L586.732 843.5ZM673.674 824.624C682.663 829.814 697.482 829.31 705.354 823.547L703.431 822.672C696.467 827.769 683.358 828.215 675.406 823.624L673.674 824.624ZM1172.6 558.75C1184.08 565.377 1184.08 576.123 1172.6 582.75L1174.33 583.75C1186.77 576.57 1186.77 564.93 1174.33 557.75L1172.6 558.75ZM698.449 410C686.014 417.18 686.014 428.82 698.449 436L700.181 435C688.702 428.373 688.702 417.627 700.181 411L698.449 410Z" fill="#8F9295"/>
<g filter="url(#filter1_d_129_73)">
<circle r="80" transform="matrix(0.866025 0.5 -0.866025 0.5 524.378 370)" fill="white"/>
</g>
<path fill-rule="evenodd" clip-rule="evenodd" d="M556.067 338.296C551.286 335.539 543.542 335.545 538.768 338.306C533.986 341.062 533.979 345.535 538.753 348.296L547.398 353.286L556.053 348.289C560.834 345.533 560.841 341.06 556.067 338.296C556.07 338.298 556.07 338.298 556.067 338.296V338.296ZM532.973 351.629L509.928 338.324C505.147 335.568 497.4 335.572 492.625 338.332C487.841 341.087 487.834 345.56 492.604 348.322L515.652 361.629C520.434 364.385 528.181 364.381 532.955 361.621C537.74 358.862 537.747 354.389 532.973 351.629Z" fill="#36C5F0"/>
<path fill-rule="evenodd" clip-rule="evenodd" d="M579.055 388.233C583.836 385.476 583.843 381.003 579.069 378.243C574.288 375.486 566.54 375.49 561.766 378.251L553.104 383.252L561.749 388.243C566.53 390.999 574.277 390.995 579.055 388.233ZM556.007 374.926L579.101 361.592C583.879 358.838 583.889 354.367 579.119 351.605C574.337 348.848 566.59 348.852 561.816 351.613L538.722 364.946C533.937 367.7 533.93 372.173 538.7 374.936C543.482 377.692 551.229 377.688 556.007 374.926Z" fill="#2EB67D"/>
<path fill-rule="evenodd" clip-rule="evenodd" d="M492.512 401.603C497.294 404.359 505.041 404.355 509.815 401.594C514.597 398.838 514.604 394.365 509.829 391.605L501.185 386.614L492.527 391.613C487.749 394.367 487.742 398.84 492.512 401.603ZM515.61 388.267L538.658 401.574C543.439 404.33 551.187 404.326 555.961 401.566C560.746 398.812 560.753 394.339 555.982 391.576L532.934 378.269C528.153 375.513 520.405 375.517 515.631 378.277C510.846 381.036 510.836 385.507 515.61 388.267Z" fill="#ECB22E"/>
<path fill-rule="evenodd" clip-rule="evenodd" d="M469.532 351.665C464.75 354.422 464.743 358.895 469.517 361.655C474.299 364.412 482.046 364.408 486.82 361.647L495.479 356.648L486.834 351.657C482.053 348.901 474.306 348.905 469.532 351.665ZM492.58 364.972L469.486 378.306C464.701 381.06 464.694 385.533 469.464 388.296C474.246 391.052 481.993 391.048 486.767 388.287L509.858 374.956C514.643 372.202 514.65 367.729 509.879 364.966C505.098 362.206 497.354 362.212 492.58 364.972C492.58 364.972 492.576 364.974 492.58 364.972Z" fill="#E01E5A"/>
<g filter="url(#filter2_d_129_73)">
<circle r="80" transform="matrix(0.866025 0.5 -0.866025 0.5 1302.07 948)" fill="white"/>
</g>
<g clip-path="url(#clip0_129_73)">
<path d="M1237.1 943.067L1234.33 949.081C1233.73 950.341 1233.78 951.63 1234.33 952.861L1271.58 947.105L1244.3 931.355C1242.76 932.243 1241.62 933.36 1241.02 934.62L1237.1 943.067Z" fill="#0066DA"/>
<path d="M1315.37 940.319L1325.34 918.812C1323.21 918.497 1320.98 918.469 1318.8 918.812L1249.95 929.465C1247.81 929.8 1245.86 930.452 1244.3 931.355L1271.58 947.106L1315.37 940.319Z" fill="#00AC47"/>
<path d="M1293.65 987.111C1295.78 987.426 1298.01 987.455 1300.2 987.111L1304.51 986.452L1325.24 983.245C1327.43 982.901 1329.36 982.243 1330.9 981.355L1303.62 965.604L1298.01 975.542L1293.65 987.111Z" fill="#EA4335"/>
<path d="M1315.37 940.319L1352.62 934.563C1352.08 933.331 1350.94 932.214 1349.35 931.298L1331 920.702C1329.41 919.786 1327.43 919.156 1325.34 918.812L1315.37 940.319Z" fill="#00832D"/>
<path d="M1303.62 965.605L1271.58 947.106L1234.33 952.862C1234.87 954.093 1236.01 955.21 1237.6 956.126L1287.99 985.221C1289.58 986.138 1291.57 986.768 1293.65 987.111L1303.62 965.605Z" fill="#2684FC"/>
<path d="M1343.4 958.217L1352.62 938.343C1353.22 937.083 1353.17 935.794 1352.62 934.563L1315.37 940.319L1303.62 965.605L1330.85 981.327C1332.39 980.439 1333.53 979.322 1334.12 978.062L1343.4 958.217Z" fill="#FFBA00"/>
</g>
<g filter="url(#filter3_d_129_73)">
<circle r="80" transform="matrix(0.866025 0.5 -0.866025 0.5 982.505 1024.5)" fill="white"/>
</g>
<path fill-rule="evenodd" clip-rule="evenodd" d="M1025.37 1049.75C1031.53 1046.19 1033.41 1041.67 1027.71 1038.37C1021.98 1035.07 1013.66 1035.87 1007.55 1039.4C1000.31 1043.58 1000.74 1048.06 1006.61 1051.44C1009.47 1053.1 1012.29 1053.97 1014.84 1054.39L1019.65 1051.61C1017.19 1051.14 1014.81 1050.35 1012.43 1048.97C1010.1 1047.62 1008.85 1045.96 1011.42 1044.17L1023.18 1050.96C1023.5 1050.78 1024.8 1050.08 1025.37 1049.75ZM1015.78 1041.57C1018.49 1040 1021.28 1040.31 1022.8 1041.18C1024.27 1042.03 1024.7 1043.58 1021.98 1045.15L1015.78 1041.57Z" fill="#635BFF"/>
<path fill-rule="evenodd" clip-rule="evenodd" d="M1009.23 1027.71C1006.87 1026.35 1004.25 1026.11 1002.64 1026.07L1003.82 1025.03L998.527 1021.97L970.477 1038.17L977.766 1040.9L984.598 1036.99C984.839 1037.85 985.224 1039.1 987.341 1040.32C991.647 1042.81 999.032 1043.07 1006.66 1038.67C1013.61 1034.63 1013.44 1030.14 1009.23 1027.71ZM991.214 1036.44C989.794 1035.63 989.458 1034.85 989.506 1034.15L998.407 1028.99C999.73 1028.94 1001.08 1029.17 1002.45 1029.96C1004.64 1031.22 1003.7 1033.51 1000.55 1035.33C997.324 1037.19 993.427 1037.72 991.214 1036.44Z" fill="#635BFF"/>
<path fill-rule="evenodd" clip-rule="evenodd" d="M992.056 1016.15L999.393 1018.89L1004.28 1016.07L996.963 1013.32L992.056 1016.15Z" fill="#635BFF"/>
<path d="M996.266 1020.69L990.227 1017.21L969.178 1029.36L975.216 1032.85L996.266 1020.69Z" fill="#635BFF"/>
<path fill-rule="evenodd" clip-rule="evenodd" d="M981.976 1014.5L983.371 1013.25L978.175 1010.25L957.126 1022.4L963.14 1025.88L977.405 1017.64C980.677 1017.39 982.746 1018.97 983.227 1019.56L988.76 1016.36C988.279 1015.75 985.993 1013.82 981.976 1014.5Z" fill="#635BFF"/>
<path fill-rule="evenodd" clip-rule="evenodd" d="M976.948 1003.51L969.828 1000.85L950.535 1011.96C946.974 1014.01 947.022 1017.07 950.583 1019.12C952.555 1020.26 954.36 1020.89 955.586 1021.1L960.47 1018.28C959.387 1018.01 954.48 1016.46 958.04 1014.4L966.58 1009.47L971.151 1012.11L976.275 1009.15L971.704 1006.51L976.948 1003.51Z" fill="#635BFF"/>
<path fill-rule="evenodd" clip-rule="evenodd" d="M949.356 1000.67C950.294 1000.12 951.425 1000.36 952.7 1001.1C954.528 1002.15 956.284 1003.81 957.126 1005.43L962.779 1002.17C961.576 1000.56 959.917 999.236 957.92 998.083C953.036 995.264 947.239 994.861 942.981 997.319C936.341 1001.15 946.541 1005.82 943.679 1007.47C942.572 1008.11 941.249 1007.76 939.902 1006.99C937.905 1005.83 936.173 1003.89 935.259 1002.08L929.534 1005.39C930.808 1007.24 932.661 1008.78 934.73 1009.97C939.733 1012.86 945.651 1013.42 949.957 1010.93C957.102 1006.78 946.662 1002.22 949.356 1000.67Z" fill="#635BFF"/>
<g filter="url(#filter4_d_129_73)">
<circle r="80" transform="matrix(0.866025 0.5 -0.866025 0.5 808.434 870)" fill="white"/>
</g>
<g clip-path="url(#clip1_129_73)">
<path d="M851.347 844.786C851.439 844.839 851.416 844.958 851.347 845.157C851.278 845.329 849.35 857.599 847.078 872.425C844.806 887.251 842.856 899.401 842.741 899.415C842.649 899.441 825.69 898.474 805.082 897.255C784.473 896.036 766.94 895.003 766.137 894.963C764.76 894.883 764.691 894.87 764.691 894.552C764.691 894.367 762.924 884.204 760.767 871.961C758.61 859.719 756.934 849.689 757.095 849.649C757.256 849.609 778.3 848.536 803.934 847.277C829.568 846.018 850.659 844.919 850.888 844.839C851.117 844.76 851.278 844.746 851.347 844.786Z" fill="#00BEF2"/>
<path d="M776.946 885.913C776.097 884.867 775.867 883.144 776.487 882.018C777.244 880.627 779.792 879.235 782.683 878.626C784.864 878.189 784.909 878.162 784.795 877.699C784.726 877.447 783.372 874.704 781.788 871.643C780.205 868.583 778.828 865.906 778.736 865.721C778.621 865.469 778.002 865.297 776.648 865.125C772.264 864.555 769.648 862.832 769.488 860.381C769.373 858.619 769.947 857.758 772.058 856.539C774.1 855.36 775.569 854.989 778.185 854.989C781.719 854.989 784.68 856.009 786.195 857.758C787.021 858.712 787.044 858.725 788.421 858.831C790.027 858.963 804.118 859.334 811.048 859.44L815.845 859.507L816.648 858.195C818.254 855.545 822.454 853.995 827.136 854.313C829.683 854.485 831.083 854.896 833.125 856.075C837.899 858.831 836.224 863.641 829.959 865.191C828.237 865.628 828.214 865.641 827.916 866.344C827.641 866.953 826.264 875.406 825.69 879.792C825.598 880.56 825.713 881.289 825.942 881.422C826.172 881.554 827.182 881.872 828.191 882.137C832.965 883.33 835.053 886.284 833.08 889.067C831.817 890.855 828.077 892.088 824.359 891.982C821.743 891.902 820.343 891.544 818.507 890.484C817.222 889.742 816.878 889.385 816.258 888.179C815.799 887.278 815.294 886.669 814.881 886.536C814.192 886.298 799.918 884.761 796.522 884.549C794.433 884.429 793.997 884.575 793.194 885.728C792.391 886.854 790.165 888.06 788.168 888.47C785.965 888.921 782.706 888.762 780.71 888.139C778.713 887.49 777.772 886.947 776.946 885.913ZM802.626 871.537L815.707 863.985L815.982 862.978C816.12 862.422 816.189 861.931 816.12 861.892C815.822 861.719 787.526 860.938 787.25 861.097C787.181 861.136 786.722 861.666 786.263 862.249C785.781 862.846 784.909 863.588 784.267 863.932C783.624 864.277 782.936 864.674 782.706 864.807C782.201 865.125 783.991 869.815 787.135 876.586C787.985 878.454 788.398 879.037 788.857 879.063C789.407 879.09 792.024 877.659 802.626 871.537ZM797.348 881.846C813.343 883.952 816.419 884.297 816.992 884.098C817.337 883.979 818.507 883.409 819.608 882.8L821.605 881.726L822.546 875.406C823.533 868.636 823.716 866.251 823.257 865.986C823.097 865.893 821.835 865.694 820.458 865.535L817.933 865.244L804.944 872.823C793.309 879.62 791.427 880.812 791.863 881.064C791.886 881.104 794.387 881.461 797.348 881.846Z" fill="white" stroke="white" stroke-width="8.18631" stroke-linecap="round" stroke-linejoin="round"/>
</g>
<g filter="url(#filter5_d_129_73)">
<circle r="80" transform="matrix(0.866025 0.5 -0.866025 0.5 164.977 578.5)" fill="white"/>
</g>
<g clip-path="url(#clip2_129_73)">
<path d="M178.016 578.879L121.057 598.141L92.232 581.499L120.294 572.047L178.016 578.879Z" fill="#072654"/>
<path d="M236.971 575.065L138.554 608.244L124.504 600.133L191.12 577.643L155.943 573.472L173.622 567.625L236.971 575.065Z" fill="#3395FF"/>
</g>
<circle r="50" transform="matrix(0.866025 0.5 -0.866025 0.5 359.833 653)" fill="#28D57A"/>
<circle r="30" transform="matrix(0.866025 0.5 -0.866025 0.5 1490.86 825)" fill="#28D57A"/>
<g filter="url(#filter6_d_129_73)">
<circle r="80" transform="matrix(0.866025 0.5 -0.866025 0.5 810.166 351)" fill="white"/>
</g>
<path d="M851.519 376C854.37 374.354 856.823 372.646 859.025 370.875L818.249 347.333L801.975 356.729L825.322 370.209C818.935 372.688 811.357 373.521 803.743 372.667L792.918 378.917L806.847 386.959C822.543 387.313 838.348 383.604 851.519 376Z" fill="#4285F4"/>
<path d="M767.731 376.5C779.422 383.25 793.098 386.646 806.847 386.958L803.743 372.667C797.248 371.917 790.717 369.979 784.871 366.604C773.577 360.083 771.628 350.167 778.484 342.25L764.123 333.958L752.973 340.396C745.936 352.667 750.808 366.729 767.731 376.5Z" fill="#34A853"/>
<path d="M778.484 342.25C780.18 340.229 782.49 338.354 785.376 336.687C788.263 335.021 791.547 333.708 795.011 332.708L806.161 326.271L791.799 317.979C782.995 319.646 774.732 322.458 767.731 326.5C760.731 330.542 755.859 335.312 752.973 340.396L778.484 342.25Z" fill="#FBBC05"/>
<path d="M837.194 336.396C843.581 340.083 847.081 344.646 847.297 349.729L871.979 349.729C871.51 341.375 866.025 333.25 854.334 326.5C837.41 316.729 813.053 313.917 791.799 317.979L795.011 332.708C808.723 328.75 825.899 329.875 837.194 336.396Z" fill="#EA4335"/>
<g filter="url(#filter7_d_129_73)">
<circle r="80" transform="matrix(0.866025 0.5 -0.866025 0.5 1266.56 745.5)" fill="white"/>
</g>
<g clip-path="url(#clip3_129_73)">
<path d="M1293.29 749.817L1315.66 762.732C1317.78 763.953 1317.78 765.931 1315.66 767.151L1295.29 778.915C1287.52 783.399 1274.93 783.399 1267.16 778.915L1267.09 778.877C1259.33 774.393 1259.32 767.122 1267.09 762.637C1267.09 762.637 1267.09 762.636 1267.09 762.636L1289.29 749.817C1290.4 749.18 1292.19 749.18 1293.29 749.817Z" fill="#5059C9"/>
<path d="M1312.44 756.221C1317.45 759.111 1325.56 759.111 1330.57 756.221C1335.57 753.331 1335.57 748.646 1330.57 745.756C1325.56 742.866 1317.45 742.866 1312.44 745.756C1307.44 748.646 1307.44 753.331 1312.44 756.221Z" fill="#5059C9"/>
<path d="M1284.24 739.942C1291.47 744.116 1303.2 744.116 1310.43 739.942C1317.66 735.768 1317.66 729 1310.43 724.826C1303.2 720.651 1291.47 720.651 1284.24 724.826C1277.01 729 1277.01 735.768 1284.24 739.942Z" fill="#7B83EB"/>
<path d="M1297.67 752.345L1260.75 731.027C1258.61 729.851 1255.22 729.898 1253.18 731.131L1229.94 744.549C1217.12 751.616 1216.63 763.344 1228.86 770.756C1241.7 777.814 1262.01 777.534 1274.25 770.13L1297.49 756.713C1299.63 755.535 1299.71 753.581 1297.67 752.345Z" fill="#7B83EB"/>
<path opacity="0.1" d="M1281.22 742.849L1248.66 761.651C1247.15 762.507 1244.91 762.76 1242.96 762.29C1242.33 762.144 1241.76 761.927 1241.29 761.651L1222.58 750.849C1222.98 750.314 1223.4 749.791 1223.88 749.279C1225.49 747.538 1227.53 745.943 1229.95 744.546L1253.19 731.128C1255.23 729.896 1258.6 729.849 1260.74 731.023L1281.22 742.849Z" fill="black"/>
<path opacity="0.2" d="M1279.21 741.686L1244.63 761.651C1244.15 761.927 1243.58 762.144 1242.96 762.291C1241.01 762.76 1238.76 762.507 1237.26 761.651L1221.51 752.558C1221.83 751.977 1222.17 751.407 1222.58 750.849C1222.98 750.291 1223.4 749.791 1223.88 749.279C1225.49 747.538 1227.53 745.943 1229.95 744.546L1253.19 731.128C1255.23 729.896 1258.6 729.849 1260.74 731.023L1279.21 741.686Z" fill="black"/>
<path opacity="0.2" d="M1279.21 741.686L1248.66 759.325C1246.61 760.488 1243.33 760.488 1241.29 759.325L1223.88 749.279C1225.49 747.538 1227.53 745.943 1229.95 744.546L1253.19 731.128C1255.23 729.896 1258.6 729.849 1260.74 731.023L1279.21 741.686Z" fill="black"/>
<path opacity="0.2" d="M1277.2 740.523L1246.64 758.163C1244.6 759.325 1241.32 759.325 1239.27 758.163L1223.88 749.279C1225.49 747.538 1227.53 745.943 1229.95 744.546L1253.19 731.128C1255.23 729.896 1258.6 729.849 1260.74 731.023L1277.2 740.523Z" fill="black"/>
<path opacity="0.1" d="M1291.64 736.837L1285.29 740.5C1284.93 740.314 1284.59 740.14 1284.24 739.942C1283.9 739.744 1283.6 739.547 1283.28 739.337C1282.64 738.919 1282.08 738.467 1281.59 737.989C1278.47 735.076 1277.96 731.48 1280.22 728.314C1280.59 727.779 1281.05 727.265 1281.59 726.779L1291.64 732.582C1293.66 733.759 1293.66 735.66 1291.64 736.837Z" fill="black"/>
<path opacity="0.2" d="M1287.61 736.837L1283.28 739.337C1282.64 738.919 1282.08 738.467 1281.59 737.988C1278.47 735.076 1277.96 731.479 1280.22 728.314L1287.61 732.581C1289.63 733.759 1289.63 735.659 1287.61 736.837Z" fill="black"/>
<path opacity="0.2" d="M1287.61 736.837L1283.28 739.337C1282.64 738.919 1282.08 738.467 1281.59 737.988C1278.47 735.076 1277.96 731.479 1280.22 728.314L1287.61 732.581C1289.63 733.759 1289.63 735.659 1287.61 736.837Z" fill="black"/>
<path opacity="0.2" d="M1285.59 735.674L1281.59 737.988C1278.47 735.076 1277.96 731.479 1280.22 728.314L1285.59 731.419C1287.62 732.596 1287.62 734.497 1285.59 735.674Z" fill="black"/>
<path d="M1248.66 710.097L1285.59 731.415C1287.63 732.592 1287.63 734.501 1285.59 735.678L1248.66 756.997C1246.62 758.174 1243.32 758.174 1241.28 756.997L1204.35 735.678C1202.32 734.501 1202.32 732.592 1204.35 731.415L1241.28 710.097C1243.32 708.92 1246.62 708.92 1248.66 710.097Z" fill="url(#paint0_linear_129_73)"/>
<path d="M1262.79 734.479L1255.41 730.217L1235.31 741.822L1230.6 739.107L1250.7 727.502L1243.36 723.26L1247.26 721.009L1266.69 732.228L1262.79 734.479Z" fill="white"/>
</g>
<path d="M663.381 501.113C684.426 488.962 718.546 488.962 739.591 501.113L923.188 607.113C935.385 614.155 940.513 623.732 938.572 632.907L938.572 652.319C940.513 661.493 935.385 671.071 923.188 678.113L739.591 784.113C718.546 796.263 684.426 796.263 663.381 784.113L479.783 678.113C467.257 670.88 462.186 660.974 464.572 651.576L464.572 633.649C462.186 624.252 467.257 614.345 479.783 607.113L663.381 501.113Z" fill="#21AD63"/>
<rect width="300" height="300" rx="44" transform="matrix(0.866025 0.5 -0.866025 0.5 702 480)" fill="#28D57A"/>
<path d="M717.468 583.646C716.352 583.003 714.989 582.511 713.458 582.199C711.927 581.886 710.259 581.76 708.547 581.826C706.836 581.892 705.117 582.15 703.487 582.584C701.856 583.019 700.348 583.621 699.048 584.358L660.753 605.911L622.458 627.464C619.835 628.943 618.21 630.875 617.941 632.837C617.672 634.798 618.781 636.629 621.023 637.926C623.271 639.221 626.468 639.876 629.912 639.748C633.356 639.62 636.767 638.719 639.395 637.242L677.69 615.689L706.082 599.71L730.36 613.727C733.754 615.687 736.163 617.949 737.635 620.43C739.105 622.905 739.625 625.61 739.254 628.318C738.883 631.024 737.575 633.764 735.402 636.384C733.232 638.989 730.198 641.5 726.247 643.724C722.279 645.957 717.873 647.644 713.254 648.849C708.632 650.054 703.808 650.764 699.056 650.941C694.304 651.118 689.62 650.76 685.29 649.89C680.97 649.022 677.029 647.624 673.625 645.659C672.508 645.015 671.145 644.524 669.614 644.211C668.084 643.899 666.415 643.772 664.704 643.838C662.993 643.904 661.273 644.162 659.642 644.597C658.012 645.031 656.504 645.634 655.204 646.371C652.581 647.85 650.956 649.782 650.687 651.743C650.419 653.705 651.527 655.535 653.77 656.833C659.436 660.105 666.202 662.507 673.587 663.992C680.963 665.474 688.98 666.059 697.069 665.758C705.158 665.457 713.337 664.266 721.189 662.218C729.045 660.17 736.543 657.24 743.183 653.502C749.824 649.765 755.06 645.528 758.753 641.077C762.444 636.627 764.686 631.954 765.318 627.347C765.949 622.741 764.979 618.193 762.471 613.967C759.967 609.745 755.893 605.831 750.215 602.553L717.468 583.646Z" fill="#21AD63"/>
<path d="M717.468 578.889C716.352 578.246 714.989 577.754 713.458 577.442C711.927 577.13 710.259 577.003 708.548 577.069C706.837 577.135 705.117 577.393 703.487 577.827C701.856 578.262 700.348 578.864 699.048 579.601L660.753 601.154L622.458 622.707C619.835 624.186 618.21 626.118 617.941 628.08C617.672 630.041 618.781 631.872 621.023 633.169C623.271 634.464 626.468 635.12 629.912 634.991C633.356 634.863 636.767 633.962 639.395 632.485L677.69 610.932L706.082 594.953L730.361 608.97C733.754 610.93 736.163 613.192 737.635 615.673C739.105 618.148 739.625 620.853 739.254 623.561C738.883 626.267 737.575 629.007 735.402 631.627C733.232 634.232 730.198 636.743 726.247 638.967C722.279 641.2 717.873 642.887 713.254 644.092C708.632 645.297 703.808 646.008 699.056 646.184C694.304 646.362 689.62 646.003 685.29 645.133C680.97 644.265 677.03 642.867 673.625 640.902C672.508 640.259 671.146 639.767 669.615 639.454C668.084 639.142 666.415 639.015 664.704 639.081C662.993 639.147 661.273 639.405 659.642 639.84C658.012 640.274 656.504 640.877 655.204 641.614C652.581 643.093 650.957 645.025 650.688 646.987C650.419 648.948 651.527 650.779 653.77 652.076C659.437 655.348 666.202 657.75 673.587 659.235C680.963 660.717 688.98 661.302 697.069 661.001C705.158 660.7 713.337 659.509 721.189 657.462C729.045 655.414 736.543 652.483 743.183 648.746C749.824 645.008 755.06 640.772 758.753 636.32C762.444 631.871 764.686 627.197 765.318 622.59C765.949 617.984 764.979 613.436 762.471 609.21C759.967 604.988 755.893 601.074 750.215 597.796L717.468 578.889Z" fill="white"/>
<path d="M821.275 527.515L821.291 527.515L821.291 527.907L821.275 527.515Z" fill="#21AD63"/>
<path d="M821.275 527.515L821.291 527.515L821.291 527.907L821.275 527.515Z" fill="#21AD63"/>
<path d="M857.89 571.372L888.257 553.839C896.647 548.995 895.595 540.536 885.908 534.943L860.619 520.343C850.932 514.75 836.279 514.143 827.891 518.985L797.521 536.519C789.133 541.363 790.185 549.822 799.872 555.415L825.162 570.015C834.848 575.608 849.5 576.215 857.89 571.372Z" fill="#28D57A"/>
<path d="M893.881 545.112L893.896 545.112L893.896 545.503L893.881 545.112Z" fill="#21AD63"/>
<path d="M799.872 555.415L825.161 570.015C834.848 575.608 849.5 576.215 857.889 571.373L888.257 553.839C891.866 551.756 893.717 549.002 893.896 546.095L893.896 555.736C894.127 559.008 892.282 562.163 888.257 564.486L857.889 582.019C849.5 586.863 834.848 586.255 825.161 580.663L799.872 566.062C794.865 563.171 792.171 559.516 791.889 555.988L791.884 555.988L791.884 555.915C791.859 555.553 791.859 555.193 791.884 554.836L791.884 545.112L791.894 545.112C792.075 548.709 794.756 552.46 799.872 555.415" fill="#21AD63"/>
<path d="M893.881 545.112L893.896 545.112L893.896 545.503L893.881 545.112Z" fill="#21AD63"/>
<path d="M857.889 571.372L888.257 553.838C891.866 551.755 893.717 549.001 893.896 546.095L893.896 555.735C894.127 559.007 892.282 562.162 888.257 564.485L857.889 582.018L857.889 571.372Z" fill="#21AD63"/>
<path d="M799.872 554.085L825.162 568.686C834.848 574.279 849.5 574.885 857.889 570.043L888.257 552.51C891.79 550.469 893.629 547.786 893.873 544.949C894.168 548.271 892.339 551.484 888.257 553.841L857.889 571.374C849.5 576.216 834.848 575.609 825.162 570.016L799.872 555.416C794.263 552.178 791.571 547.983 791.907 544.081C792.219 547.587 794.898 551.213 799.872 554.085Z" fill="white"/>
<path d="M789.888 559.077C790.377 559.077 790.775 558.681 790.775 558.189L790.775 543.277L843.564 493.479C843.921 493.143 843.937 492.583 843.6 492.226C843.268 491.87 842.704 491.852 842.347 492.191L789 542.511L789 558.19C789 558.681 789.396 559.077 789.887 559.077" fill="#386FB2"/>
<path d="M836.239 474.3C836.239 470.474 838.942 465.811 842.278 463.885C843.994 462.894 845.541 462.828 846.639 463.513L848.439 464.542L847.259 466.545L847.274 466.882C847.274 470.708 844.571 475.371 841.237 477.297L840.777 477.536L839.803 479.184L838.526 478.402C837.134 477.937 836.24 476.498 836.24 474.299" fill="#7FB7E7"/>
<path d="M837.943 475.286C837.943 479.111 840.647 480.653 843.981 478.728C847.315 476.803 850.02 472.14 850.02 468.314C850.02 464.486 847.315 462.946 843.981 464.871C840.647 466.797 837.943 471.458 837.943 475.286Z" fill="#AED2F0"/>
<path d="M832.595 410.419C832.595 404.935 836.47 398.25 841.25 395.489C843.713 394.068 845.928 393.974 847.505 394.955L850.085 396.431L848.391 399.302C848.396 399.464 848.416 399.618 848.416 399.785C848.416 405.27 844.54 411.954 839.76 414.715C839.536 414.843 839.318 414.95 839.1 415.058L837.705 417.422L835.874 416.302C833.88 415.633 832.597 413.571 832.597 410.42" fill="#7FB7E7"/>
<path d="M835.038 411.831C835.038 417.316 838.914 419.525 843.694 416.766C848.474 414.007 852.35 407.323 852.35 401.836C852.35 396.351 848.474 394.142 843.694 396.901C838.914 399.661 835.038 406.345 835.038 411.831Z" fill="#AED2F0"/>
<path d="M849.578 397.512C852.271 397.512 853.943 399.751 853.943 403.353C853.943 403.689 853.928 404.024 853.908 404.324L850.74 466.77C850.71 470.438 848.025 475.043 844.874 476.863C844.033 477.35 843.21 477.605 842.495 477.605C840.885 477.605 839.913 476.308 839.897 474.132L836.733 415.327C836.703 414.99 836.693 414.671 836.693 414.341C836.693 408.602 840.762 401.586 845.764 398.695C847.105 397.923 848.425 397.512 849.582 397.512L849.578 397.512ZM842.493 479.379C843.534 479.379 844.632 479.051 845.759 478.398C849.45 476.269 852.479 471.073 852.511 466.822L855.675 404.441C855.7 404.125 855.715 403.737 855.715 403.353C855.715 398.727 853.305 395.737 849.576 395.737C848.087 395.737 846.504 396.217 844.87 397.16C839.378 400.331 834.911 408.04 834.911 414.341C834.911 414.727 834.927 415.098 834.962 415.455L838.122 474.187C838.147 477.324 839.861 479.379 842.493 479.379Z" fill="#386FB2"/>
<path d="M840.07 497.295C843.133 495.528 845.616 492.625 845.616 489.2C845.616 484.523 841.066 486.416 841.066 484.113L841.066 479.21L844.478 477.24L844.478 482.48C847.362 481.987 849.36 484.159 848.982 488.176C848.629 491.934 846.104 496.291 843.005 498.486C840.644 500.159 838.493 500.324 837.082 499.293C836.74 499.043 837.189 498.088 837.657 498.072C838.387 498.047 839.206 497.796 840.07 497.295Z" fill="#17203E"/>
<path d="M840.945 497.653C844.008 495.884 846.49 492.981 846.49 489.556C846.49 484.881 841.941 486.772 841.941 484.471L841.941 479.566L845.353 477.597L845.353 482.838C848.236 482.345 850.234 484.515 849.856 488.533C849.503 492.291 846.978 496.647 843.88 498.842C841.518 500.515 839.368 500.68 837.957 499.649C837.614 499.401 838.064 498.446 838.532 498.429C839.261 498.403 840.079 498.152 840.945 497.653Z" fill="#23366A"/>
<path d="M836.94 412.799C836.94 407.314 840.816 400.63 845.596 397.869C848.057 396.447 850.273 396.353 851.851 397.336L854.431 398.811L852.736 401.682C852.741 401.844 852.762 401.998 852.762 402.164C852.762 407.649 848.886 414.334 844.106 417.095C843.882 417.222 843.664 417.329 843.446 417.437L842.051 419.801L840.22 418.681C838.225 418.012 836.942 415.95 836.942 412.799" fill="#7FB7E7"/>
<path d="M839.384 414.209C839.384 419.694 843.259 421.903 848.039 419.144C852.82 416.384 856.695 409.7 856.695 404.213C856.695 398.729 852.82 396.519 848.039 399.279C843.259 402.038 839.384 408.722 839.384 414.209Z" fill="#AED2F0"/>
<path d="M843.231 411.986C843.231 415.035 845.383 416.261 848.04 414.728C850.694 413.195 852.848 409.481 852.848 406.434C852.848 403.385 850.694 402.159 848.04 403.692C845.383 405.225 843.231 408.939 843.231 411.986Z" fill="#23366A"/>
<path d="M839.27 475.96C839.27 472.134 841.974 467.471 845.308 465.546C847.026 464.554 848.572 464.488 849.67 465.173L851.471 466.202L850.289 468.206L850.304 468.542C850.304 472.368 847.6 477.031 844.266 478.957L843.806 479.195L842.834 480.845L841.556 480.062C840.165 479.598 839.269 478.158 839.269 475.96" fill="#7FB7E7"/>
<path d="M840.973 476.943C840.973 480.771 843.678 482.311 847.012 480.386C850.346 478.46 853.05 473.799 853.05 469.971C853.05 466.146 850.346 464.604 847.012 466.529C843.678 468.454 840.973 473.117 840.973 476.943Z" fill="#AED2F0"/>
<path d="M843.658 475.394C843.658 477.52 845.159 478.377 847.012 477.307C848.864 476.237 850.367 473.646 850.367 471.52C850.367 469.394 848.864 468.539 847.012 469.609C845.159 470.677 843.658 473.268 843.658 475.394Z" fill="#23366A"/>
<path d="M842.956 587.53C843.446 587.53 843.843 587.134 843.843 586.642L843.843 492.835C843.843 492.345 843.446 491.947 842.956 491.947C842.464 491.947 842.068 492.345 842.068 492.835L842.068 586.642C842.068 587.134 842.464 587.53 842.956 587.53Z" fill="#386FB2"/>
<path d="M895.884 559.077C896.374 559.077 896.771 558.681 896.771 558.19L896.771 542.511L896.492 542.25L843.421 492.191C843.064 491.852 842.501 491.869 842.168 492.226C841.832 492.583 841.848 493.143 842.203 493.479L894.994 543.277L894.994 558.189C894.994 558.681 895.392 559.077 895.882 559.077" fill="#386FB2"/>
<path d="M1069.5 323.821L1032.14 302.337L1032.14 295.092L1069.5 316.579L1069.5 323.821Z" fill="#386FB2"/>
<path d="M1091.45 310.898L1069.48 323.82L1069.48 316.578L1091.45 303.684L1091.45 310.898Z" fill="#5191D4"/>
<path d="M1091.45 303.684L1069.48 316.579L1032.14 295.092L1054.14 282.174L1091.45 303.684Z" fill="#7FB7E7"/>
<path d="M1069.5 314.659L1032.14 293.174L1032.14 285.929L1069.5 307.416L1069.5 314.659Z" fill="#386FB2"/>
<path d="M1091.45 301.737L1069.48 314.658L1069.48 307.415L1091.45 294.52L1091.45 301.737Z" fill="#5191D4"/>
<path d="M1091.45 294.52L1069.48 307.415L1032.14 285.928L1054.14 273.01L1091.45 294.52Z" fill="#7FB7E7"/>
<path d="M1069.5 305.724L1032.14 284.239L1032.14 276.994L1069.5 298.481L1069.5 305.724Z" fill="#386FB2"/>
<path d="M1091.45 292.802L1069.48 305.723L1069.48 298.48L1091.45 285.585L1091.45 292.802Z" fill="#5191D4"/>
<path d="M1091.45 285.585L1069.48 298.48L1032.14 276.993L1054.14 264.075L1091.45 285.585Z" fill="#7FB7E7"/>
<path d="M1069.5 296.385L1032.14 274.901L1032.14 267.656L1069.5 289.141L1069.5 296.385Z" fill="#386FB2"/>
<path d="M1091.45 283.462L1069.48 296.383L1069.48 289.14L1091.45 276.245L1091.45 283.462Z" fill="#5191D4"/>
<path d="M1091.45 276.245L1069.48 289.14L1032.14 267.653L1054.14 254.737L1091.45 276.245Z" fill="#7FB7E7"/>
<path d="M1013.24 592.471L951.506 556.975L951.506 551.302L1013.24 586.799L1013.24 592.471Z" fill="#386FB2"/>
<path d="M1074.08 556.975L1013.21 592.472L1013.21 586.8L1074.08 551.351L1074.08 556.975Z" fill="#5191D4"/>
<path d="M1074.08 551.347L1013.21 586.799L951.505 551.301L1012.45 515.812L1074.08 551.347Z" fill="#D6EEFB"/>
<path d="M1074.08 551.348L1013.21 586.799L951.505 551.302L1013.01 585.589L1074.08 551.348Z" fill="white"/>
<path d="M1013.06 574.121L975.697 552.638L975.697 545.393L1013.06 566.879L1013.06 574.121Z" fill="#7FB7E7"/>
<path d="M1049.89 552.636L1013.05 574.119L1013.05 566.878L1049.89 545.419L1049.89 552.636Z" fill="#AED2F0"/>
<path d="M1049.89 545.419L1013.05 566.878L975.697 545.391L1012.58 523.91L1049.89 545.419Z" fill="#D6EEFB"/>
<path d="M1049.89 545.421L1013.05 566.879L975.697 545.393L1012.92 565.458L1049.89 545.421Z" fill="white"/>
<path d="M990.345 343.383L990.345 347.751L986.533 345.558L986.533 341.189L990.345 343.383Z" fill="#7FB7E7"/>
<path d="M990.334 343.383L990.334 347.752L1013.16 334.564L1013.16 330.206L990.334 343.383Z" fill="#AED2F0"/>
<path d="M1013.16 330.206L990.334 343.383L986.533 341.19L1009.38 328L1013.16 330.206Z" fill="#D6EEFB"/>
<path d="M990.345 378.574L990.345 382.943L986.533 380.75L986.533 376.379L990.345 378.574Z" fill="#7FB7E7"/>
<path d="M990.334 378.575L990.334 382.944L1013.16 369.755L1013.16 365.398L990.334 378.575Z" fill="#AED2F0"/>
<path d="M1013.16 365.396L990.334 378.573L986.533 376.378L1009.38 363.19L1013.16 365.396Z" fill="#D6EEFB"/>
<path d="M990.345 413.627L990.345 417.998L986.533 415.803L986.533 411.434L990.345 413.627Z" fill="#7FB7E7"/>
<path d="M990.334 413.628L990.334 417.998L1013.16 404.809L1013.16 400.451L990.334 413.628Z" fill="#AED2F0"/>
<path d="M1013.16 400.451L990.334 413.628L986.533 411.435L1009.38 398.245L1013.16 400.451Z" fill="#D6EEFB"/>
<path d="M990.345 448.559L990.345 452.928L986.533 450.735L986.533 446.366L990.345 448.559Z" fill="#7FB7E7"/>
<path d="M990.334 448.559L990.334 452.928L1013.16 439.74L1013.16 435.382L990.334 448.559Z" fill="#AED2F0"/>
<path d="M1013.16 435.383L990.334 448.56L986.533 446.367L1009.38 433.177L1013.16 435.383Z" fill="#D6EEFB"/>
<path d="M990.345 483.751L990.345 488.12L986.533 485.927L986.533 481.558L990.345 483.751Z" fill="#7FB7E7"/>
<path d="M990.334 483.752L990.334 488.12L1013.16 474.931L1013.16 470.575L990.334 483.752Z" fill="#AED2F0"/>
<path d="M1013.16 470.575L990.334 483.752L986.533 481.559L1009.38 468.369L1013.16 470.575Z" fill="#D6EEFB"/>
<path d="M990.345 518.803L990.345 523.174L986.533 520.979L986.533 516.61L990.345 518.803Z" fill="#7FB7E7"/>
<path d="M990.334 518.804L990.334 523.174L1013.16 509.985L1013.16 505.627L990.334 518.804Z" fill="#AED2F0"/>
<path d="M1013.16 505.627L990.334 518.804L986.533 516.611L1009.38 503.421L1013.16 505.627Z" fill="#D6EEFB"/>
<path d="M1035.84 308.451L1035.84 312.819L1039.65 310.626L1039.65 306.257L1035.84 308.451Z" fill="#7FB7E7"/>
<path d="M1035.85 308.451L1035.85 312.82L1013.03 299.632L1013.03 295.274L1035.85 308.451Z" fill="#7FB7E7"/>
<path d="M1013.03 295.272L1035.85 308.449L1039.65 306.255L1016.81 293.066L1013.03 295.272Z" fill="#D6EEFB"/>
<path d="M990.345 308.451L990.345 312.819L986.533 310.626L986.533 306.257L990.345 308.451Z" fill="#7FB7E7"/>
<path d="M990.334 308.451L990.334 312.82L1013.16 299.632L1013.16 295.274L990.334 308.451Z" fill="#AED2F0"/>
<path d="M1013.16 295.272L990.334 308.449L986.533 306.255L1009.38 293.066L1013.16 295.272Z" fill="#D6EEFB"/>
<path d="M986.528 262.963L986.528 547.779L982.716 545.586L982.716 260.77L986.528 262.963Z" fill="#7FB7E7"/>
<path d="M986.517 262.962L986.517 547.778L990.297 545.585L990.297 260.779L986.517 262.962Z" fill="#AED2F0"/>
<path d="M990.297 260.78L986.517 262.963L982.716 260.769L986.517 258.576L990.297 260.78Z" fill="#D6EEFB"/>
<path d="M1009.34 324.024L1009.34 328.393L1013.16 326.2L1013.16 321.831L1009.34 324.024Z" fill="#7FB7E7"/>
<path d="M1009.35 324.025L1009.35 328.393L986.533 315.206L986.533 310.848L1009.35 324.025Z" fill="#7FB7E7"/>
<path d="M986.533 310.848L1009.35 324.025L1013.16 321.831L990.313 308.642L986.533 310.848Z" fill="#D6EEFB"/>
<path d="M1080.48 266.025L1080.48 270.394L1084.29 268.201L1084.29 263.832L1080.48 266.025Z" fill="#7FB7E7"/>
<path d="M1080.5 266.027L1080.5 270.395L1068.06 262.919L1068.06 258.562L1080.5 266.027Z" fill="#7FB7E7"/>
<path d="M1068.06 258.562L1080.5 266.027L1084.29 263.834L1071.84 256.358L1068.06 258.562Z" fill="#D6EEFB"/>
<path d="M1068.07 243.978L1068.07 258.542L1064.26 256.347L1064.26 241.785L1068.07 243.978Z" fill="#7FB7E7"/>
<path d="M1068.06 243.977L1068.06 258.542L1071.84 256.347L1071.84 241.794L1068.06 243.977Z" fill="#AED2F0"/>
<path d="M1071.84 241.795L1068.06 243.977L1064.26 241.784L1068.06 239.589L1071.84 241.795Z" fill="#D6EEFB"/>
<path d="M818.946 402.984L818.946 407.353L815.136 405.158L815.136 400.79L818.946 402.984Z" fill="#7FB7E7"/>
<path d="M818.935 402.984L818.935 407.353L1072.2 260.413L1072.2 256.057L818.935 402.984Z" fill="#AED2F0"/>
<path d="M1072.2 256.057L818.935 402.984L815.136 400.789L1068.42 253.851L1072.2 256.057Z" fill="#D6EEFB"/>
<path d="M1036.63 291.271L1036.63 295.641L1040.44 293.446L1040.44 289.078L1036.63 291.271Z" fill="#7FB7E7"/>
<path d="M1036.64 291.273L1036.64 295.643L1024.2 288.166L1024.2 283.81L1036.64 291.273Z" fill="#7FB7E7"/>
<path d="M1024.2 283.807L1036.64 291.271L1040.44 289.077L1027.98 281.602L1024.2 283.807Z" fill="#D6EEFB"/>
<path d="M1024.21 269.384L1024.21 283.949L1020.4 281.754L1020.4 267.189L1024.21 269.384Z" fill="#7FB7E7"/>
<path d="M1024.2 269.384L1024.2 283.949L1027.98 281.754L1027.98 267.202L1024.2 269.384Z" fill="#AED2F0"/>
<path d="M1027.98 267.202L1024.2 269.384L1020.4 267.189L1024.2 264.996L1027.98 267.202Z" fill="#D6EEFB"/>
<path d="M1058.49 278.752L1058.49 283.12L1062.3 280.927L1062.3 276.557L1058.49 278.752Z" fill="#7FB7E7"/>
<path d="M1058.5 278.752L1058.5 283.121L1046.06 275.645L1046.06 271.289L1058.5 278.752Z" fill="#7FB7E7"/>
<path d="M1046.06 271.289L1058.5 278.752L1062.3 276.557L1049.84 269.083L1046.06 271.289Z" fill="#D6EEFB"/>
<path d="M1046.07 256.702L1046.07 271.265L1042.26 269.071L1042.26 254.507L1046.07 256.702Z" fill="#7FB7E7"/>
<path d="M1046.06 256.702L1046.06 271.264L1049.84 269.071L1049.84 254.519L1046.06 256.702Z" fill="#AED2F0"/>
<path d="M1049.84 254.519L1046.06 256.702L1042.26 254.507L1046.06 252.313L1049.84 254.519Z" fill="#D6EEFB"/>
<path d="M883.324 380.276L883.324 384.645L887.136 382.45L887.136 378.081L883.324 380.276Z" fill="#7FB7E7"/>
<path d="M883.335 380.276L883.335 384.644L870.898 377.169L870.898 372.811L883.335 380.276Z" fill="#7FB7E7"/>
<path d="M870.898 372.811L883.335 380.276L887.136 378.081L874.677 370.605L870.898 372.811Z" fill="#D6EEFB"/>
<path d="M870.907 358.388L870.907 372.951L867.097 370.758L867.097 356.193L870.907 358.388Z" fill="#7FB7E7"/>
<path d="M870.896 358.388L870.896 372.951L874.676 370.758L874.676 356.206L870.896 358.388Z" fill="#AED2F0"/>
<path d="M874.676 356.206L870.896 358.388L867.097 356.193L870.896 354L874.676 356.206Z" fill="#D6EEFB"/>
<path d="M905.187 367.754L905.187 372.122L908.997 369.929L908.997 365.561L905.187 367.754Z" fill="#7FB7E7"/>
<path d="M905.196 367.753L905.196 372.122L892.759 364.646L892.759 360.29L905.196 367.753Z" fill="#7FB7E7"/>
<path d="M892.759 360.29L905.196 367.753L908.997 365.56L896.539 358.084L892.759 360.29Z" fill="#D6EEFB"/>
<path d="M892.768 345.866L892.768 360.43L888.958 358.237L888.958 343.672L892.768 345.866Z" fill="#7FB7E7"/>
<path d="M892.757 345.865L892.757 360.43L896.539 358.237L896.539 343.685L892.757 345.865Z" fill="#AED2F0"/>
<path d="M896.539 343.685L892.757 345.865L888.958 343.672L892.757 341.479L896.539 343.685Z" fill="#D6EEFB"/>
<path d="M927.183 355.029L927.183 359.398L930.993 357.205L930.993 352.836L927.183 355.029Z" fill="#7FB7E7"/>
<path d="M927.194 355.028L927.194 359.397L914.757 351.921L914.757 347.565L927.194 355.028Z" fill="#7FB7E7"/>
<path d="M914.757 347.565L927.194 355.029L930.993 352.836L918.536 345.36L914.757 347.565Z" fill="#D6EEFB"/>
<path d="M914.766 333.143L914.766 347.706L910.954 345.512L910.954 330.948L914.766 333.143Z" fill="#7FB7E7"/>
<path d="M914.755 333.142L914.755 347.705L918.534 345.512L918.534 330.96L914.755 333.142Z" fill="#AED2F0"/>
<path d="M918.534 330.96L914.755 333.143L910.954 330.948L914.755 328.754L918.534 330.96Z" fill="#D6EEFB"/>
<path d="M949.045 342.169L949.045 346.538L952.856 344.345L952.856 339.976L949.045 342.169Z" fill="#7FB7E7"/>
<path d="M949.055 342.171L949.055 346.539L936.618 339.064L936.618 334.706L949.055 342.171Z" fill="#7FB7E7"/>
<path d="M936.618 334.706L949.055 342.171L952.856 339.977L940.398 332.5L936.618 334.706Z" fill="#D6EEFB"/>
<path d="M936.627 320.281L936.627 334.846L932.817 332.653L932.817 318.088L936.627 320.281Z" fill="#7FB7E7"/>
<path d="M936.616 320.281L936.616 334.846L940.396 332.652L940.396 318.1L936.616 320.281Z" fill="#AED2F0"/>
<path d="M940.396 318.101L936.616 320.281L932.817 318.088L936.616 315.895L940.396 318.101Z" fill="#D6EEFB"/>
<path d="M971.042 329.445L971.042 333.813L974.852 331.62L974.852 327.251L971.042 329.445Z" fill="#7FB7E7"/>
<path d="M971.051 329.444L971.051 333.813L958.614 326.337L958.614 321.981L971.051 329.444Z" fill="#7FB7E7"/>
<path d="M958.614 321.981L971.051 329.444L974.852 327.251L962.393 319.775L958.614 321.981Z" fill="#D6EEFB"/>
<path d="M958.623 307.558L958.623 322.121L954.813 319.928L954.813 305.363L958.623 307.558Z" fill="#7FB7E7"/>
<path d="M958.614 307.558L958.614 322.121L962.393 319.928L962.393 305.375L958.614 307.558Z" fill="#AED2F0"/>
<path d="M962.393 305.376L958.614 307.559L954.813 305.364L958.614 303.17L962.393 305.376Z" fill="#D6EEFB"/>
<path d="M992.904 316.925L992.904 321.294L996.713 319.099L996.713 314.73L992.904 316.925Z" fill="#7FB7E7"/>
<path d="M992.914 316.925L992.914 321.294L980.475 313.818L980.475 309.46L992.914 316.925Z" fill="#7FB7E7"/>
<path d="M980.475 309.46L992.914 316.925L996.713 314.73L984.257 307.254L980.475 309.46Z" fill="#D6EEFB"/>
<path d="M980.486 295.036L980.486 309.601L976.674 307.406L976.674 292.843L980.486 295.036Z" fill="#7FB7E7"/>
<path d="M980.475 295.038L980.475 309.602L984.255 307.407L984.255 292.855L980.475 295.038Z" fill="#AED2F0"/>
<path d="M984.255 292.855L980.475 295.038L976.674 292.844L980.475 290.649L984.255 292.855Z" fill="#D6EEFB"/>
<path d="M1014.9 304.201L1014.9 308.569L1018.71 306.375L1018.71 302.006L1014.9 304.201Z" fill="#7FB7E7"/>
<path d="M1014.91 304.2L1014.91 308.569L1002.47 301.093L1002.47 296.735L1014.91 304.2Z" fill="#7FB7E7"/>
<path d="M1002.47 296.735L1014.91 304.201L1018.71 302.006L1006.25 294.53L1002.47 296.735Z" fill="#D6EEFB"/>
<path d="M1002.48 282.311L1002.48 296.876L998.672 294.681L998.672 280.118L1002.48 282.311Z" fill="#7FB7E7"/>
<path d="M1002.47 282.313L1002.47 296.878L1006.25 294.683L1006.25 280.13L1002.47 282.313Z" fill="#AED2F0"/>
<path d="M1006.25 280.13L1002.47 282.313L998.672 280.12L1002.47 277.925L1006.25 280.13Z" fill="#D6EEFB"/>
<path d="M861.328 392.999L861.328 397.369L865.138 395.174L865.138 390.806L861.328 392.999Z" fill="#7FB7E7"/>
<path d="M861.339 392.998L861.339 397.369L848.9 389.891L848.9 385.535L861.339 392.998Z" fill="#7FB7E7"/>
<path d="M848.9 385.535L861.339 392.998L865.138 390.805L852.682 383.33L848.9 385.535Z" fill="#D6EEFB"/>
<path d="M834.987 412.526L834.987 416.895L831.175 414.7L831.175 410.331L834.987 412.526Z" fill="#7FB7E7"/>
<path d="M834.976 412.526L834.976 416.895L1087.97 270.226L1087.97 265.868L834.976 412.526Z" fill="#AED2F0"/>
<path d="M1087.97 265.868L834.976 412.526L831.175 410.331L1084.19 263.663L1087.97 265.868Z" fill="#D6EEFB"/>
<path d="M848.911 371.113L848.911 385.676L845.099 383.483L845.099 368.918L848.911 371.113Z" fill="#7FB7E7"/>
<path d="M848.9 371.113L848.9 385.676L852.679 383.482L852.679 368.93L848.9 371.113Z" fill="#AED2F0"/>
<path d="M852.679 368.93L848.9 371.113L845.099 368.918L848.9 366.725L852.679 368.93Z" fill="#D6EEFB"/>
<path d="M836.204 374.151L836.204 378.52L832.394 376.325L832.394 371.956L836.204 374.151Z" fill="#7FB7E7"/>
<path d="M836.195 374.149L836.195 378.518L1071.93 241.596L1071.93 237.238L836.195 374.149Z" fill="#AED2F0"/>
<path d="M1071.93 237.238L836.195 374.149L832.394 371.954L1068.15 235.033L1071.93 237.238Z" fill="#D6EEFB"/>
<path d="M831.379 410.361L831.379 414.729L835.189 412.536L835.189 408.167L831.379 410.361Z" fill="#7FB7E7"/>
<path d="M831.388 410.36L831.388 414.729L818.951 407.253L818.951 402.897L831.388 410.36Z" fill="#7FB7E7"/>
<path d="M818.951 402.897L831.388 410.36L835.189 408.167L822.731 400.691L818.951 402.897Z" fill="#D6EEFB"/>
<path d="M836.255 374.203L818.944 402.968L815.132 400.773L832.446 372.01L836.255 374.203Z" fill="#7FB7E7"/>
<path d="M836.245 374.204L818.933 402.97L822.713 400.775L840.024 372.022L836.245 374.204Z" fill="#AED2F0"/>
<path d="M847.587 396.406L1062.89 271.308L1061.99 269.771L846.696 394.869L847.587 396.406Z" fill="#386FB2"/>
<path d="M865.001 380.603L865.001 395.168L861.192 392.973L861.192 378.41L865.001 380.603Z" fill="#7FB7E7"/>
<path d="M864.991 380.605L864.991 395.17L868.772 392.975L868.772 378.422L864.991 380.605Z" fill="#AED2F0"/>
<path d="M868.772 378.423L864.991 380.606L861.192 378.412L864.991 376.217L868.772 378.423Z" fill="#D6EEFB"/>
<path d="M861.328 374.217L861.328 378.586L865.138 376.391L865.138 372.022L861.328 374.217Z" fill="#7FB7E7"/>
<path d="M861.339 374.219L861.339 378.588L848.9 371.112L848.9 366.754L861.339 374.219Z" fill="#7FB7E7"/>
<path d="M848.9 366.752L861.339 374.217L865.138 372.022L852.682 364.546L848.9 366.752Z" fill="#D6EEFB"/>
<path d="M886.999 367.879L886.999 382.443L883.188 380.25L883.188 365.686L886.999 367.879Z" fill="#7FB7E7"/>
<path d="M886.988 367.879L886.988 382.443L890.768 380.25L890.768 365.698L886.988 367.879Z" fill="#AED2F0"/>
<path d="M890.768 365.698L886.988 367.879L883.188 365.686L886.988 363.493L890.768 365.698Z" fill="#D6EEFB"/>
<path d="M883.324 361.492L883.324 365.861L887.136 363.668L887.136 359.297L883.324 361.492Z" fill="#7FB7E7"/>
<path d="M883.335 361.494L883.335 365.863L870.898 358.387L870.898 354.029L883.335 361.494Z" fill="#7FB7E7"/>
<path d="M870.898 354.027L883.335 361.492L887.136 359.297L874.677 351.821L870.898 354.027Z" fill="#D6EEFB"/>
<path d="M908.86 355.358L908.86 369.923L905.049 367.728L905.049 353.165L908.86 355.358Z" fill="#7FB7E7"/>
<path d="M908.85 355.36L908.85 369.925L912.629 367.73L912.629 353.177L908.85 355.36Z" fill="#AED2F0"/>
<path d="M912.629 353.177L908.85 355.36L905.049 353.167L908.85 350.972L912.629 353.177Z" fill="#D6EEFB"/>
<path d="M905.187 348.97L905.187 353.341L908.997 351.145L908.997 346.777L905.187 348.97Z" fill="#7FB7E7"/>
<path d="M905.196 348.972L905.196 353.343L892.759 345.865L892.759 341.509L905.196 348.972Z" fill="#7FB7E7"/>
<path d="M892.759 341.509L905.196 348.972L908.997 346.779L896.539 339.303L892.759 341.509Z" fill="#D6EEFB"/>
<path d="M930.856 342.634L930.856 357.198L927.047 355.003L927.047 340.44L930.856 342.634Z" fill="#7FB7E7"/>
<path d="M930.846 342.635L930.846 357.2L934.627 355.005L934.627 340.453L930.846 342.635Z" fill="#AED2F0"/>
<path d="M934.627 340.453L930.846 342.635L927.047 340.442L930.846 338.247L934.627 340.453Z" fill="#D6EEFB"/>
<path d="M927.183 336.247L927.183 340.616L930.993 338.421L930.993 334.052L927.183 336.247Z" fill="#7FB7E7"/>
<path d="M927.194 336.249L927.194 340.618L914.757 333.142L914.757 328.784L927.194 336.249Z" fill="#7FB7E7"/>
<path d="M914.757 328.784L927.194 336.249L930.993 334.054L918.536 326.579L914.757 328.784Z" fill="#D6EEFB"/>
<path d="M952.718 329.776L952.718 344.341L948.908 342.146L948.908 327.583L952.718 329.776Z" fill="#7FB7E7"/>
<path d="M952.709 329.775L952.709 344.34L956.488 342.145L956.488 327.593L952.709 329.775Z" fill="#AED2F0"/>
<path d="M956.488 327.593L952.709 329.775L948.908 327.582L952.709 325.387L956.488 327.593Z" fill="#D6EEFB"/>
<path d="M949.045 323.388L949.045 327.758L952.856 325.564L952.856 321.195L949.045 323.388Z" fill="#7FB7E7"/>
<path d="M949.055 323.388L949.055 327.758L936.618 320.281L936.618 315.924L949.055 323.388Z" fill="#7FB7E7"/>
<path d="M936.618 315.924L949.055 323.388L952.856 321.195L940.398 313.719L936.618 315.924Z" fill="#D6EEFB"/>
<path d="M974.715 317.052L974.715 331.616L970.904 329.421L970.904 314.858L974.715 317.052Z" fill="#7FB7E7"/>
<path d="M974.705 317.051L974.705 331.615L978.484 329.42L978.484 314.868L974.705 317.051Z" fill="#AED2F0"/>
<path d="M978.484 314.868L974.705 317.051L970.904 314.858L974.705 312.663L978.484 314.868Z" fill="#D6EEFB"/>
<path d="M971.042 310.665L971.042 315.034L974.852 312.839L974.852 308.47L971.042 310.665Z" fill="#7FB7E7"/>
<path d="M971.051 310.665L971.051 315.033L958.614 307.556L958.614 303.2L971.051 310.665Z" fill="#7FB7E7"/>
<path d="M958.614 303.2L971.051 310.665L974.852 308.47L962.393 300.994L958.614 303.2Z" fill="#D6EEFB"/>
<path d="M996.577 304.53L996.577 319.093L992.767 316.9L992.767 302.335L996.577 304.53Z" fill="#7FB7E7"/>
<path d="M996.566 304.53L996.566 319.093L1000.35 316.9L1000.35 302.348L996.566 304.53Z" fill="#AED2F0"/>
<path d="M1000.35 302.348L996.566 304.53L992.767 302.335L996.566 300.142L1000.35 302.348Z" fill="#D6EEFB"/>
<path d="M992.904 298.143L992.904 302.512L996.713 300.318L996.713 295.95L992.904 298.143Z" fill="#7FB7E7"/>
<path d="M992.914 298.141L992.914 302.51L980.475 295.034L980.475 290.676L992.914 298.141Z" fill="#7FB7E7"/>
<path d="M980.475 290.676L992.914 298.141L996.713 295.948L984.257 288.471L980.475 290.676Z" fill="#D6EEFB"/>
<path d="M1018.57 291.805L1018.57 306.368L1014.76 304.175L1014.76 289.61L1018.57 291.805Z" fill="#7FB7E7"/>
<path d="M1018.56 291.806L1018.56 306.368L1022.34 304.175L1022.34 289.623L1018.56 291.806Z" fill="#AED2F0"/>
<path d="M1022.34 289.623L1018.56 291.806L1014.76 289.611L1018.56 287.417L1022.34 289.623Z" fill="#D6EEFB"/>
<path d="M1014.9 285.418L1014.9 289.787L1018.71 287.594L1018.71 283.225L1014.9 285.418Z" fill="#7FB7E7"/>
<path d="M1014.91 285.417L1014.91 289.786L1002.47 282.31L1002.47 277.954L1014.91 285.417Z" fill="#7FB7E7"/>
<path d="M1002.47 277.954L1014.91 285.417L1018.71 283.224L1006.25 275.749L1002.47 277.954Z" fill="#D6EEFB"/>
<path d="M1040.3 278.878L1040.3 293.442L1036.49 291.247L1036.49 276.685L1040.3 278.878Z" fill="#7FB7E7"/>
<path d="M1040.29 278.878L1040.29 293.442L1044.07 291.247L1044.07 276.697L1040.29 278.878Z" fill="#AED2F0"/>
<path d="M1044.07 276.697L1040.29 278.878L1036.49 276.684L1040.29 274.491L1044.07 276.697Z" fill="#D6EEFB"/>
<path d="M1036.63 272.491L1036.63 276.86L1040.44 274.665L1040.44 270.296L1036.63 272.491Z" fill="#7FB7E7"/>
<path d="M1036.64 272.491L1036.64 276.86L1024.2 269.384L1024.2 265.026L1036.64 272.491Z" fill="#7FB7E7"/>
<path d="M1024.2 265.026L1036.64 272.491L1040.44 270.296L1027.98 262.82L1024.2 265.026Z" fill="#D6EEFB"/>
<path d="M1062.16 266.192L1062.16 280.757L1058.35 278.564L1058.35 263.999L1062.16 266.192Z" fill="#7FB7E7"/>
<path d="M1062.15 266.192L1062.15 280.757L1065.93 278.563L1065.93 264.011L1062.15 266.192Z" fill="#AED2F0"/>
<path d="M1065.93 264.012L1062.15 266.193L1058.35 263.999L1062.15 261.806L1065.93 264.012Z" fill="#D6EEFB"/>
<path d="M1058.49 259.969L1058.49 264.339L1062.3 262.144L1062.3 257.775L1058.49 259.969Z" fill="#7FB7E7"/>
<path d="M1058.5 259.968L1058.5 264.339L1046.06 256.861L1046.06 252.505L1058.5 259.968Z" fill="#7FB7E7"/>
<path d="M1046.06 252.505L1058.5 259.968L1062.3 257.775L1049.84 250.299L1046.06 252.505Z" fill="#D6EEFB"/>
<path d="M1084.16 253.469L1084.16 268.032L1080.35 265.839L1080.35 251.274L1084.16 253.469Z" fill="#7FB7E7"/>
<path d="M1084.15 253.469L1084.15 268.032L1087.93 265.839L1087.93 251.287L1084.15 253.469Z" fill="#AED2F0"/>
<path d="M1087.93 251.287L1084.15 253.47L1080.35 251.275L1084.15 249.082L1087.93 251.287Z" fill="#D6EEFB"/>
<path d="M1080.48 246.922L1080.48 251.291L1084.29 249.096L1084.29 244.727L1080.48 246.922Z" fill="#7FB7E7"/>
<path d="M1080.5 246.921L1080.5 251.29L1068.06 243.812L1068.06 239.456L1080.5 246.921Z" fill="#7FB7E7"/>
<path d="M1068.06 239.456L1080.5 246.921L1084.29 244.726L1071.84 237.25L1068.06 239.456Z" fill="#D6EEFB"/>
<path d="M852.245 383.693L852.245 388.061L848.435 385.866L848.435 381.498L852.245 383.693Z" fill="#7FB7E7"/>
<path d="M852.234 383.694L852.234 388.062L1087.97 251.141L1087.97 246.783L852.234 383.694Z" fill="#AED2F0"/>
<path d="M1087.97 246.783L852.234 383.694L848.435 381.499L1084.19 244.577L1087.97 246.783Z" fill="#D6EEFB"/>
<path d="M852.263 383.732L834.884 412.666L831.072 410.471L848.451 381.537L852.263 383.732Z" fill="#7FB7E7"/>
<path d="M852.252 383.732L834.873 412.666L838.653 410.471L856.032 381.549L852.252 383.732Z" fill="#AED2F0"/>
<path d="M1013.02 233.053L1013.02 532.439L1009.21 530.244L1009.21 230.858L1013.02 233.053Z" fill="#7FB7E7"/>
<path d="M1013.01 233.053L1013.01 532.439L1016.79 530.244L1016.79 230.87L1013.01 233.053Z" fill="#AED2F0"/>
<path d="M1016.79 230.87L1013.01 233.053L1009.21 230.858L1013.01 228.665L1016.79 230.87Z" fill="#D6EEFB"/>
<path d="M1035.84 343.383L1035.84 347.751L1039.65 345.558L1039.65 341.189L1035.84 343.383Z" fill="#7FB7E7"/>
<path d="M1035.85 343.383L1035.85 347.752L1013.03 334.564L1013.03 330.206L1035.85 343.383Z" fill="#7FB7E7"/>
<path d="M1013.03 330.206L1035.85 343.383L1039.65 341.19L1016.81 328L1013.03 330.206Z" fill="#D6EEFB"/>
<path d="M1035.84 378.574L1035.84 382.943L1039.65 380.75L1039.65 376.379L1035.84 378.574Z" fill="#7FB7E7"/>
<path d="M1035.85 378.575L1035.85 382.944L1013.03 369.755L1013.03 365.398L1035.85 378.575Z" fill="#7FB7E7"/>
<path d="M1013.03 365.396L1035.85 378.573L1039.65 376.378L1016.81 363.19L1013.03 365.396Z" fill="#D6EEFB"/>
<path d="M1035.84 413.627L1035.84 417.998L1039.65 415.803L1039.65 411.434L1035.84 413.627Z" fill="#7FB7E7"/>
<path d="M1035.85 413.628L1035.85 417.998L1013.03 404.809L1013.03 400.451L1035.85 413.628Z" fill="#7FB7E7"/>
<path d="M1013.03 400.451L1035.85 413.628L1039.65 411.435L1016.81 398.245L1013.03 400.451Z" fill="#D6EEFB"/>
<path d="M1035.84 448.559L1035.84 452.928L1039.65 450.735L1039.65 446.366L1035.84 448.559Z" fill="#7FB7E7"/>
<path d="M1035.85 448.559L1035.85 452.928L1013.03 439.74L1013.03 435.382L1035.85 448.559Z" fill="#7FB7E7"/>
<path d="M1013.03 435.383L1035.85 448.56L1039.65 446.367L1016.81 433.177L1013.03 435.383Z" fill="#D6EEFB"/>
<path d="M1035.84 483.751L1035.84 488.12L1039.65 485.927L1039.65 481.558L1035.84 483.751Z" fill="#7FB7E7"/>
<path d="M1035.85 483.752L1035.85 488.12L1013.03 474.931L1013.03 470.575L1035.85 483.752Z" fill="#7FB7E7"/>
<path d="M1013.03 470.575L1035.85 483.752L1039.65 481.559L1016.81 468.369L1013.03 470.575Z" fill="#D6EEFB"/>
<path d="M1035.84 518.803L1035.84 523.174L1039.65 520.979L1039.65 516.61L1035.84 518.803Z" fill="#7FB7E7"/>
<path d="M1035.85 518.804L1035.85 523.174L1013.03 509.985L1013.03 505.627L1035.85 518.804Z" fill="#7FB7E7"/>
<path d="M1013.03 505.627L1035.85 518.804L1039.65 516.611L1016.81 503.421L1013.03 505.627Z" fill="#D6EEFB"/>
<path d="M1039.64 248.062L1039.64 547.817L1035.83 545.624L1035.83 245.869L1039.64 248.062Z" fill="#7FB7E7"/>
<path d="M1039.63 248.061L1039.63 547.817L1043.41 545.624L1043.41 245.879L1039.63 248.061Z" fill="#AED2F0"/>
<path d="M1043.41 245.879L1039.63 248.061L1035.83 245.868L1039.63 243.673L1043.41 245.879Z" fill="#D6EEFB"/>
<path d="M1016.84 534.377L1016.84 538.746L1013.03 536.553L1013.03 532.184L1016.84 534.377Z" fill="#7FB7E7"/>
<path d="M1016.83 534.378L1016.83 538.746L1039.65 525.559L1039.65 521.201L1016.83 534.378Z" fill="#AED2F0"/>
<path d="M1039.65 521.201L1016.83 534.378L1013.03 532.185L1035.87 518.995L1039.65 521.201Z" fill="#D6EEFB"/>
<path d="M1016.84 529.942L1016.84 534.31L1013.03 532.117L1013.03 527.749L1016.84 529.942Z" fill="#7FB7E7"/>
<path d="M1016.83 529.942L1016.83 534.311L1039.65 495.154L1039.65 490.798L1016.83 529.942Z" fill="#AED2F0"/>
<path d="M1039.65 490.798L1016.83 529.942L1013.03 527.749L1035.87 488.592L1039.65 490.798Z" fill="#D6EEFB"/>
<path d="M1016.84 499.324L1016.84 503.693L1013.03 501.5L1013.03 497.129L1016.84 499.324Z" fill="#7FB7E7"/>
<path d="M1016.83 499.325L1016.83 503.694L1039.65 490.505L1039.65 486.148L1016.83 499.325Z" fill="#AED2F0"/>
<path d="M1039.65 486.149L1016.83 499.326L1013.03 497.131L1035.87 483.943L1039.65 486.149Z" fill="#D6EEFB"/>
<path d="M1009.34 534.377L1009.34 538.746L1013.16 536.553L1013.16 532.184L1009.34 534.377Z" fill="#7FB7E7"/>
<path d="M1009.35 534.378L1009.35 538.746L986.533 525.559L986.533 521.201L1009.35 534.378Z" fill="#7FB7E7"/>
<path d="M986.533 521.201L1009.35 534.378L1013.16 532.185L990.313 518.995L986.533 521.201Z" fill="#D6EEFB"/>
<path d="M1009.34 534.377L1009.34 538.746L1013.16 536.553L1013.16 532.184L1009.34 534.377Z" fill="#7FB7E7"/>
<path d="M1009.35 534.377L1009.35 538.746L986.533 495.006L986.533 490.648L1009.35 534.377Z" fill="#7FB7E7"/>
<path d="M986.533 490.648L1009.35 534.377L1013.16 532.184L990.313 488.442L986.533 490.648Z" fill="#D6EEFB"/>
<path d="M1009.34 499.324L1009.34 503.693L1013.16 501.5L1013.16 497.129L1009.34 499.324Z" fill="#7FB7E7"/>
<path d="M1009.35 499.325L1009.35 503.694L986.533 490.505L986.533 486.148L1009.35 499.325Z" fill="#7FB7E7"/>
<path d="M986.533 486.149L1009.35 499.326L1013.16 497.131L990.313 483.943L986.533 486.149Z" fill="#D6EEFB"/>
<path d="M1009.34 495.118L1009.34 499.487L1013.16 497.293L1013.16 492.925L1009.34 495.118Z" fill="#7FB7E7"/>
<path d="M1009.35 495.118L1009.35 499.486L986.533 455.746L986.533 451.388L1009.35 495.118Z" fill="#7FB7E7"/>
<path d="M986.533 451.389L1009.35 495.118L1013.16 492.925L990.313 449.183L986.533 451.389Z" fill="#D6EEFB"/>
<path d="M1009.34 464.135L1009.34 468.504L1013.16 466.311L1013.16 461.942L1009.34 464.135Z" fill="#7FB7E7"/>
<path d="M1009.35 464.135L1009.35 468.504L986.533 455.317L986.533 450.958L1009.35 464.135Z" fill="#7FB7E7"/>
<path d="M986.533 450.956L1009.35 464.133L1013.16 461.94L990.313 448.75L986.533 450.956Z" fill="#D6EEFB"/>
<path d="M1016.84 358.959L1016.84 363.327L1013.03 361.134L1013.03 356.766L1016.84 358.959Z" fill="#7FB7E7"/>
<path d="M1016.83 358.957L1016.83 363.326L1039.65 350.138L1039.65 345.78L1016.83 358.957Z" fill="#AED2F0"/>
<path d="M1039.65 345.78L1016.83 358.957L1013.03 356.764L1035.87 343.574L1039.65 345.78Z" fill="#D6EEFB"/>
<path d="M1009.34 358.959L1009.34 363.327L1013.16 361.134L1013.16 356.766L1009.34 358.959Z" fill="#7FB7E7"/>
<path d="M1009.35 358.957L1009.35 363.326L986.533 350.138L986.533 345.78L1009.35 358.957Z" fill="#7FB7E7"/>
<path d="M986.533 345.78L1009.35 358.957L1013.16 356.764L990.313 343.574L986.533 345.78Z" fill="#D6EEFB"/>
<path d="M1016.84 324.024L1016.84 328.393L1013.03 326.2L1013.03 321.831L1016.84 324.024Z" fill="#7FB7E7"/>
<path d="M1016.83 324.025L1016.83 328.393L1039.65 315.206L1039.65 310.848L1016.83 324.025Z" fill="#AED2F0"/>
<path d="M1039.65 310.848L1016.83 324.025L1013.03 321.831L1035.87 308.642L1039.65 310.848Z" fill="#D6EEFB"/>
<path d="M1003.74 234.117L1003.74 238.486L999.932 236.292L999.932 231.924L1003.74 234.117Z" fill="#7FB7E7"/>
<path d="M1003.73 234.117L1003.73 238.485L1016.97 230.564L1016.97 226.206L1003.73 234.117Z" fill="#AED2F0"/>
<path d="M1016.97 226.206L1003.73 234.117L999.932 231.923L1013.19 224L1016.97 226.206Z" fill="#D6EEFB"/>
<path d="M1003.79 234.171L986.482 262.936L982.67 260.743L999.982 231.978L1003.79 234.171Z" fill="#7FB7E7"/>
<path d="M1003.78 234.171L986.471 262.936L990.25 260.743L1007.56 231.99L1003.78 234.171Z" fill="#AED2F0"/>
<path d="M1035.84 241.735L1035.84 246.104L1039.65 243.911L1039.65 239.542L1035.84 241.735Z" fill="#7FB7E7"/>
<path d="M1035.85 241.736L1035.85 246.105L1013.03 232.917L1013.03 228.559L1035.85 241.736Z" fill="#7FB7E7"/>
<path d="M1013.03 228.559L1035.85 241.736L1039.65 239.543L1016.81 226.354L1013.03 228.559Z" fill="#D6EEFB"/>
<path d="M1009.45 276.117L1009.45 280.486L1013.26 278.292L1013.26 273.924L1009.45 276.117Z" fill="#7FB7E7"/>
<path d="M1009.46 276.115L1009.46 280.484L986.636 267.296L986.636 262.938L1009.46 276.115Z" fill="#7FB7E7"/>
<path d="M986.636 262.939L1009.46 276.116L1013.26 273.922L990.416 260.733L986.636 262.939Z" fill="#D6EEFB"/>
<path d="M1009.34 459.852L1009.34 464.221L1013.16 462.027L1013.16 457.659L1009.34 459.852Z" fill="#7FB7E7"/>
<path d="M1009.35 459.852L1009.35 464.221L986.533 420.481L986.533 416.123L1009.35 459.852Z" fill="#7FB7E7"/>
<path d="M986.533 416.123L1009.35 459.852L1013.16 457.659L990.313 413.917L986.533 416.123Z" fill="#D6EEFB"/>
<path d="M1009.34 429.201L1009.34 433.569L1013.16 431.376L1013.16 427.007L1009.34 429.201Z" fill="#7FB7E7"/>
<path d="M1009.35 429.202L1009.35 433.57L986.533 420.382L986.533 416.024L1009.35 429.202Z" fill="#7FB7E7"/>
<path d="M986.533 416.024L1009.35 429.201L1013.16 427.008L990.313 413.819L986.533 416.024Z" fill="#D6EEFB"/>
<path d="M1009.34 424.881L1009.34 429.249L1013.16 427.056L1013.16 422.688L1009.34 424.881Z" fill="#7FB7E7"/>
<path d="M1009.35 424.881L1009.35 429.25L986.533 385.509L986.533 381.151L1009.35 424.881Z" fill="#7FB7E7"/>
<path d="M986.533 381.151L1009.35 424.881L1013.16 422.688L990.313 378.946L986.533 381.151Z" fill="#D6EEFB"/>
<path d="M1009.34 394.148L1009.34 398.516L1013.16 396.321L1013.16 391.953L1009.34 394.148Z" fill="#7FB7E7"/>
<path d="M1009.35 394.149L1009.35 398.518L986.533 385.328L986.533 380.972L1009.35 394.149Z" fill="#7FB7E7"/>
<path d="M986.533 380.972L1009.35 394.149L1013.16 391.954L990.313 378.767L986.533 380.972Z" fill="#D6EEFB"/>
<path d="M1009.34 390.132L1009.34 394.501L1013.16 392.306L1013.16 387.937L1009.34 390.132Z" fill="#7FB7E7"/>
<path d="M1009.35 390.13L1009.35 394.499L986.533 350.757L986.533 346.401L1009.35 390.13Z" fill="#7FB7E7"/>
<path d="M986.533 346.401L1009.35 390.13L1013.16 387.935L990.313 344.195L986.533 346.401Z" fill="#D6EEFB"/>
<path d="M1016.84 494.897L1016.84 499.265L1013.03 497.072L1013.03 492.704L1016.84 494.897Z" fill="#7FB7E7"/>
<path d="M1016.83 494.897L1016.83 499.266L1039.65 460.109L1039.65 455.753L1016.83 494.897Z" fill="#AED2F0"/>
<path d="M1039.65 455.753L1016.83 494.897L1013.03 492.704L1035.87 453.547L1039.65 455.753Z" fill="#D6EEFB"/>
<path d="M1016.84 464.135L1016.84 468.504L1013.03 466.311L1013.03 461.942L1016.84 464.135Z" fill="#7FB7E7"/>
<path d="M1016.83 464.135L1016.83 468.504L1039.65 455.317L1039.65 450.958L1016.83 464.135Z" fill="#AED2F0"/>
<path d="M1039.65 450.956L1016.83 464.133L1013.03 461.94L1035.87 448.75L1039.65 450.956Z" fill="#D6EEFB"/>
<path d="M1016.84 459.852L1016.84 464.221L1013.03 462.027L1013.03 457.659L1016.84 459.852Z" fill="#7FB7E7"/>
<path d="M1016.83 459.852L1016.83 464.221L1039.65 425.064L1039.65 420.708L1016.83 459.852Z" fill="#AED2F0"/>
<path d="M1039.65 420.706L1016.83 459.85L1013.03 457.657L1035.87 418.5L1039.65 420.706Z" fill="#D6EEFB"/>
<path d="M1016.84 429.201L1016.84 433.569L1013.03 431.376L1013.03 427.007L1016.84 429.201Z" fill="#7FB7E7"/>
<path d="M1016.83 429.202L1016.83 433.57L1039.65 420.382L1039.65 416.024L1016.83 429.202Z" fill="#AED2F0"/>
<path d="M1039.65 416.024L1016.83 429.201L1013.03 427.008L1035.87 413.819L1039.65 416.024Z" fill="#D6EEFB"/>
<path d="M1016.84 424.805L1016.84 429.173L1013.03 426.98L1013.03 422.611L1016.84 424.805Z" fill="#7FB7E7"/>
<path d="M1016.83 424.805L1016.83 429.174L1039.65 390.017L1039.65 385.661L1016.83 424.805Z" fill="#AED2F0"/>
<path d="M1039.65 385.661L1016.83 424.805L1013.03 422.612L1035.87 383.455L1039.65 385.661Z" fill="#D6EEFB"/>
<path d="M1016.84 394.148L1016.84 398.516L1013.03 396.321L1013.03 391.953L1016.84 394.148Z" fill="#7FB7E7"/>
<path d="M1016.83 394.149L1016.83 398.518L1039.65 385.328L1039.65 380.972L1016.83 394.149Z" fill="#AED2F0"/>
<path d="M1039.65 380.972L1016.83 394.149L1013.03 391.954L1035.87 378.767L1039.65 380.972Z" fill="#D6EEFB"/>
<path d="M1016.84 389.909L1016.84 394.278L1013.03 392.083L1013.03 387.714L1016.84 389.909Z" fill="#7FB7E7"/>
<path d="M1016.83 389.909L1016.83 394.277L1039.65 355.121L1039.65 350.763L1016.83 389.909Z" fill="#AED2F0"/>
<path d="M1039.65 350.763L1016.83 389.909L1013.03 387.714L1035.87 348.558L1039.65 350.763Z" fill="#D6EEFB"/>
<path d="M1013.02 278.384L1013.02 563.191L1009.21 560.997L1009.21 276.191L1013.02 278.384Z" fill="#7FB7E7"/>
<path d="M1013.01 278.383L1013.01 563.191L1016.79 560.996L1016.79 276.201L1013.01 278.383Z" fill="#AED2F0"/>
<path d="M1016.79 276.201L1013.01 278.383L1009.21 276.19L1013.01 273.995L1016.79 276.201Z" fill="#D6EEFB"/>
<path d="M1009.08 370.347L1057.1 342.624L1057.1 294.555L1025.31 312.908L1009.08 355.551L1009.08 370.347Z" fill="#AED2F0"/>
<path d="M1009.08 355.55L1009.08 370.345L978.995 353.178L978.995 338.382L1009.08 355.55Z" fill="#7FB7E7"/>
<path d="M995.223 295.741L1025.31 312.909L1009.08 355.552L978.995 338.384L995.223 295.741Z" fill="#7FB7E7"/>
<path d="M1023.3 318.19L1009.08 355.552L978.995 338.384L993.281 300.842L1023.3 318.19Z" fill="#17203E"/>
<path d="M978.995 338.384L1003.85 306.948L1014.09 312.867L978.995 338.384Z" fill="#23366A"/>
<path d="M1027.01 277.387L1057.1 294.554L1025.31 312.908L995.222 295.74L1027.01 277.387Z" fill="#D6EEFB"/>
<path d="M1025.32 311.71L1057.1 294.555L1025.31 312.908L995.222 295.74L1025.32 311.71Z" fill="white"/>
<path d="M1045.22 305.511L1045.22 334.777L1009.08 355.641L1009.08 355.552L1023.31 318.157L1045.22 305.511" fill="#23366A"/>
<path d="M1044.11 334.445L1044.11 306.15L1045.22 305.511L1045.22 334.777L1009.08 355.639L1009.08 355.552L1009.51 354.418L1044.11 334.445" fill="#17203E"/>
<path d="M1026.53 247.281L1026.53 251.65L1030.34 249.457L1030.34 245.088L1026.53 247.281Z" fill="#7FB7E7"/>
<path d="M1026.54 247.282L1026.54 251.65L1003.72 238.463L1003.72 234.104L1026.54 247.282Z" fill="#7FB7E7"/>
<path d="M1003.72 234.105L1026.54 247.282L1030.34 245.088L1007.49 231.899L1003.72 234.105Z" fill="#D6EEFB"/>
<path d="M1030.13 249.428L1030.13 253.796L1026.32 251.603L1026.32 247.234L1030.13 249.428Z" fill="#7FB7E7"/>
<path d="M1030.12 249.427L1030.12 253.796L1043.37 245.875L1043.37 241.517L1030.12 249.427Z" fill="#AED2F0"/>
<path d="M1043.37 241.517L1030.12 249.428L1026.32 247.234L1039.59 239.312L1043.37 241.517Z" fill="#D6EEFB"/>
<path d="M1030.15 249.464L1012.77 278.398L1008.96 276.204L1026.34 247.269L1030.15 249.464Z" fill="#7FB7E7"/>
<path d="M1030.14 249.464L1012.76 278.398L1016.54 276.205L1033.92 247.281L1030.14 249.464Z" fill="#AED2F0"/>
<path d="M1346.67 609.363C1345.74 606.436 1343.18 603.528 1339.05 601.141L1313.76 586.541C1310.39 584.591 1306.41 583.248 1302.3 582.529C1303.23 585.457 1305.79 588.365 1309.92 590.752L1335.21 605.352C1338.59 607.3 1342.56 608.644 1346.67 609.363Z" fill="#DCE7F2"/>
<path d="M1367.94 591.479L1398.31 573.946C1406.69 569.103 1405.64 560.643 1395.96 555.052L1370.67 540.45C1360.98 534.857 1346.33 534.25 1337.94 539.094L1307.57 556.627C1299.18 561.47 1300.23 569.93 1309.92 575.522L1335.21 590.124C1344.9 595.715 1359.55 596.323 1367.94 591.479Z" fill="#7FB7E7"/>
<path d="M1403.93 565.219L1403.94 565.219L1403.94 565.612L1403.93 565.219Z" fill="#21AD63"/>
<path d="M1309.92 575.522L1335.21 590.124C1344.9 595.715 1359.55 596.323 1367.94 591.479L1398.31 573.946C1401.92 571.863 1403.77 569.109 1403.94 566.202L1403.94 575.845C1404.18 579.115 1402.33 582.27 1398.31 584.594L1367.94 602.128C1359.55 606.97 1344.9 606.363 1335.21 600.77L1309.92 586.168C1304.91 583.28 1302.22 579.622 1301.94 576.096L1301.93 576.096L1301.93 576.022C1301.91 575.662 1301.91 575.302 1301.93 574.943L1301.93 565.219L1301.94 565.219C1302.12 568.818 1304.8 572.569 1309.92 575.522" fill="#386FB2"/>
<path d="M1403.93 565.219L1403.94 565.219L1403.94 565.612L1403.93 565.219Z" fill="#21AD63"/>
<path d="M1367.94 591.479L1398.31 573.945C1401.92 571.862 1403.77 569.108 1403.94 566.202L1403.94 575.844C1404.18 579.114 1402.33 582.269 1398.31 584.594L1367.94 602.127L1367.94 591.479Z" fill="#5191D4"/>
<path d="M1309.92 574.189L1335.21 588.791C1344.9 594.383 1359.55 594.991 1367.94 590.147L1398.31 572.614C1401.84 570.575 1403.68 567.892 1403.92 565.054C1404.22 568.374 1402.39 571.588 1398.31 573.944L1367.94 591.478C1359.55 596.322 1344.9 595.713 1335.21 590.122L1309.92 575.52C1304.31 572.284 1301.62 568.087 1301.96 564.185C1302.27 567.691 1304.95 571.318 1309.92 574.189Z" fill="#D6EEFB"/>
<path d="M1367.94 576.485L1398.31 558.952C1406.69 554.109 1405.64 545.649 1395.96 540.057L1370.67 525.455C1360.98 519.862 1346.33 519.256 1337.94 524.1L1307.57 541.633C1299.18 546.475 1300.23 554.936 1309.92 560.527L1335.21 575.129C1344.9 580.721 1359.55 581.329 1367.94 576.485Z" fill="#7FB7E7"/>
<path d="M1403.93 550.225L1403.94 550.225L1403.94 550.617L1403.93 550.225Z" fill="#21AD63"/>
<path d="M1309.92 560.527L1335.21 575.129C1344.9 580.721 1359.55 581.329 1367.94 576.485L1398.31 558.952C1401.92 556.868 1403.77 554.115 1403.94 551.208L1403.94 560.85C1404.18 564.121 1402.33 567.276 1398.31 569.6L1367.94 587.133C1359.55 591.976 1344.9 591.369 1335.21 585.776L1309.92 571.174C1304.91 568.285 1302.22 564.628 1301.94 561.102L1301.93 561.102L1301.93 561.028C1301.91 560.668 1301.91 560.307 1301.93 559.949L1301.93 550.225L1301.94 550.225C1302.12 553.824 1304.8 557.575 1309.92 560.527" fill="#386FB2"/>
<path d="M1403.93 550.225L1403.94 550.225L1403.94 550.617L1403.93 550.225Z" fill="#21AD63"/>
<path d="M1367.94 576.485L1398.31 558.951C1401.92 556.868 1403.77 554.114 1403.94 551.208L1403.94 560.85C1404.18 564.12 1402.33 567.275 1398.31 569.6L1367.94 587.133L1367.94 576.485Z" fill="#5191D4"/>
<path d="M1309.92 559.195L1335.21 573.797C1344.9 579.388 1359.55 579.997 1367.94 575.153L1398.31 557.62C1401.84 555.581 1403.68 552.898 1403.92 550.06C1404.22 553.38 1402.39 556.594 1398.31 558.95L1367.94 576.484C1359.55 581.328 1344.9 580.719 1335.21 575.128L1309.92 560.526C1304.31 557.289 1301.62 553.093 1301.96 549.191C1302.27 552.697 1304.95 556.324 1309.92 559.195Z" fill="#D6EEFB"/>
<path d="M1367.94 561.402L1398.31 543.869C1406.69 539.027 1405.64 530.566 1395.96 524.975L1370.67 510.373C1360.98 504.78 1346.33 504.173 1337.94 509.017L1307.57 526.551C1299.18 531.393 1300.23 539.854 1309.92 545.445L1335.21 560.047C1344.9 565.638 1359.55 566.247 1367.94 561.402Z" fill="#7FB7E7"/>
<path d="M1403.93 535.143L1403.94 535.143L1403.94 535.535L1403.93 535.143Z" fill="#21AD63"/>
<path d="M1309.92 545.445L1335.21 560.047C1344.9 565.638 1359.55 566.247 1367.94 561.402L1398.31 543.869C1401.92 541.786 1403.77 539.032 1403.94 536.126L1403.94 545.768C1404.18 549.038 1402.33 552.193 1398.31 554.518L1367.94 572.051C1359.55 576.893 1344.9 576.287 1335.21 570.693L1309.92 556.092C1304.91 553.203 1302.22 549.546 1301.94 546.02L1301.93 546.02L1301.93 545.945C1301.91 545.585 1301.91 545.225 1301.93 544.867L1301.93 535.143L1301.94 535.143C1302.12 538.741 1304.8 542.492 1309.92 545.445" fill="#386FB2"/>
<path d="M1403.93 535.143L1403.94 535.143L1403.94 535.535L1403.93 535.143Z" fill="#21AD63"/>
<path d="M1367.94 561.402L1398.31 543.869C1401.92 541.785 1403.77 539.032 1403.94 536.125L1403.94 545.767C1404.18 549.038 1402.33 552.193 1398.31 554.517L1367.94 572.05L1367.94 561.402Z" fill="#5191D4"/>
<path d="M1309.92 544.113L1335.21 558.715C1344.9 564.307 1359.55 564.915 1367.94 560.071L1398.31 542.538C1401.84 540.499 1403.68 537.816 1403.92 534.978C1404.22 538.298 1402.39 541.512 1398.31 543.868L1367.94 561.402C1359.55 566.246 1344.9 565.637 1335.21 560.046L1309.92 545.444C1304.31 542.208 1301.62 538.011 1301.96 534.109C1302.27 537.615 1304.95 541.242 1309.92 544.113Z" fill="#D6EEFB"/>
<path d="M1367.94 546.762L1398.31 529.229C1406.69 524.387 1405.64 515.926 1395.96 510.335L1370.67 495.733C1360.98 490.14 1346.33 489.533 1337.94 494.377L1307.57 511.91C1299.18 516.753 1300.23 525.214 1309.92 530.805L1335.21 545.407C1344.9 550.998 1359.55 551.607 1367.94 546.762Z" fill="#7FB7E7"/>
<path d="M1403.93 520.502L1403.94 520.502L1403.94 520.895L1403.93 520.502Z" fill="#21AD63"/>
<path d="M1309.92 530.805L1335.21 545.407C1344.9 550.998 1359.55 551.607 1367.94 546.762L1398.31 529.229C1401.92 527.146 1403.77 524.392 1403.94 521.485L1403.94 531.128C1404.18 534.398 1402.33 537.553 1398.31 539.878L1367.94 557.411C1359.55 562.253 1344.9 561.646 1335.21 556.053L1309.92 541.452C1304.91 538.563 1302.22 534.906 1301.94 531.38L1301.93 531.38L1301.93 531.305C1301.91 530.945 1301.91 530.585 1301.93 530.226L1301.93 520.502L1301.94 520.502C1302.12 524.101 1304.8 527.852 1309.92 530.805" fill="#386FB2"/>
<path d="M1403.93 520.502L1403.94 520.502L1403.94 520.895L1403.93 520.502Z" fill="#21AD63"/>
<path d="M1367.94 546.762L1398.31 529.229C1401.92 527.145 1403.77 524.391 1403.94 521.485L1403.94 531.127C1404.18 534.397 1402.33 537.552 1398.31 539.877L1367.94 557.41L1367.94 546.762Z" fill="#5191D4"/>
<path d="M1309.92 529.475L1335.21 544.077C1344.9 549.668 1359.55 550.277 1367.94 545.433L1398.31 527.899C1401.84 525.86 1403.68 523.177 1403.92 520.34C1404.22 523.66 1402.39 526.874 1398.31 529.23L1367.94 546.764C1359.55 551.608 1344.9 550.999 1335.21 545.408L1309.92 530.806C1304.31 527.569 1301.62 523.373 1301.96 519.471C1302.27 522.977 1304.95 526.604 1309.92 529.475Z" fill="#D6EEFB"/>
<path d="M1367.94 531.68L1398.31 514.146C1406.69 509.304 1405.64 500.843 1395.96 495.252L1370.67 480.65C1360.98 475.057 1346.33 474.45 1337.94 479.295L1307.57 496.828C1299.18 501.67 1300.23 510.131 1309.92 515.722L1335.21 530.324C1344.9 535.915 1359.55 536.524 1367.94 531.68Z" fill="#7FB7E7"/>
<path d="M1403.93 505.42L1403.94 505.42L1403.94 505.812L1403.93 505.42Z" fill="#21AD63"/>
<path d="M1309.92 515.722L1335.21 530.324C1344.9 535.916 1359.55 536.524 1367.94 531.68L1398.31 514.146C1401.92 512.063 1403.77 509.309 1403.94 506.403L1403.94 516.045C1404.18 519.315 1402.33 522.47 1398.31 524.795L1367.94 542.328C1359.55 547.171 1344.9 546.564 1335.21 540.971L1309.92 526.369C1304.91 523.48 1302.22 519.823 1301.94 516.297L1301.93 516.297L1301.93 516.223C1301.91 515.863 1301.91 515.502 1301.93 515.144L1301.93 505.42L1301.94 505.42C1302.12 509.018 1304.8 512.77 1309.92 515.722" fill="#386FB2"/>
<path d="M1403.93 505.42L1403.94 505.42L1403.94 505.812L1403.93 505.42Z" fill="#21AD63"/>
<path d="M1367.94 531.679L1398.31 514.146C1401.92 512.063 1403.77 509.309 1403.94 506.402L1403.94 516.045C1404.18 519.315 1402.33 522.47 1398.31 524.794L1367.94 542.328L1367.94 531.679Z" fill="#5191D4"/>
<path d="M1309.92 514.391L1335.21 528.992C1344.9 534.584 1359.55 535.192 1367.94 530.348L1398.31 512.815C1401.84 510.776 1403.68 508.093 1403.92 505.256C1404.22 508.576 1402.39 511.789 1398.31 514.146L1367.94 531.679C1359.55 536.523 1344.9 535.915 1335.21 530.323L1309.92 515.722C1304.31 512.485 1301.62 508.288 1301.96 504.386C1302.27 507.893 1304.95 511.52 1309.92 514.391Z" fill="#D6EEFB"/>
<path d="M1367.97 516.658L1398.34 499.124C1406.72 494.28 1405.67 485.821 1395.99 480.228L1370.7 465.626C1361.01 460.035 1346.36 459.426 1337.97 464.271L1307.6 481.804C1299.21 486.646 1300.26 495.107 1309.95 500.7L1335.24 515.3C1344.93 520.893 1359.58 521.5 1367.97 516.658Z" fill="#7FB7E7"/>
<path d="M1358.83 476.22C1358.45 476.005 1358 475.841 1357.49 475.737C1356.98 475.632 1356.42 475.59 1355.85 475.612C1355.28 475.634 1354.7 475.72 1354.16 475.865C1353.62 476.01 1353.11 476.211 1352.68 476.457L1339.9 483.65L1327.12 490.843C1326.24 491.337 1325.7 491.982 1325.61 492.636C1325.52 493.291 1325.89 493.902 1326.64 494.335C1327.39 494.767 1328.46 494.986 1329.61 494.943C1330.76 494.9 1331.89 494.599 1332.77 494.106L1345.55 486.913L1355.03 481.581L1363.13 486.259C1364.26 486.913 1365.07 487.668 1365.56 488.496C1366.05 489.322 1366.22 490.224 1366.1 491.128C1365.97 492.031 1365.54 492.946 1364.81 493.82C1364.09 494.689 1363.07 495.527 1361.76 496.27C1360.43 497.015 1358.96 497.578 1357.42 497.98C1355.88 498.382 1354.27 498.619 1352.68 498.678C1351.1 498.737 1349.53 498.618 1348.09 498.327C1346.65 498.038 1345.33 497.571 1344.19 496.915C1343.82 496.701 1343.37 496.536 1342.86 496.432C1342.34 496.328 1341.79 496.286 1341.22 496.308C1340.65 496.33 1340.07 496.416 1339.53 496.561C1338.98 496.706 1338.48 496.907 1338.05 497.153C1337.17 497.646 1336.63 498.291 1336.54 498.946C1336.45 499.601 1336.82 500.211 1337.57 500.645C1339.46 501.736 1341.72 502.538 1344.18 503.034C1346.64 503.528 1349.32 503.724 1352.02 503.623C1354.72 503.523 1357.45 503.125 1360.07 502.442C1362.69 501.758 1365.19 500.78 1367.41 499.533C1369.62 498.286 1371.37 496.872 1372.6 495.386C1373.84 493.901 1374.58 492.341 1374.8 490.804C1375.01 489.267 1374.68 487.749 1373.84 486.339C1373.01 484.93 1371.65 483.623 1369.75 482.529L1358.83 476.22Z" fill="#386FB2"/>
<path d="M1358.83 474.632C1358.45 474.418 1358 474.253 1357.49 474.149C1356.98 474.045 1356.42 474.003 1355.85 474.025C1355.28 474.047 1354.7 474.133 1354.16 474.278C1353.62 474.423 1353.11 474.624 1352.68 474.87L1339.9 482.063L1327.12 489.256C1326.24 489.749 1325.7 490.394 1325.61 491.049C1325.52 491.703 1325.89 492.314 1326.64 492.747C1327.39 493.179 1328.46 493.398 1329.61 493.355C1330.76 493.313 1331.89 493.012 1332.77 492.519L1345.55 485.326L1355.03 479.993L1363.13 484.671C1364.26 485.325 1365.07 486.08 1365.56 486.908C1366.05 487.734 1366.22 488.637 1366.1 489.541C1365.97 490.444 1365.54 491.358 1364.81 492.232C1364.09 493.102 1363.07 493.94 1361.76 494.682C1360.43 495.427 1358.96 495.991 1357.42 496.392C1355.88 496.795 1354.27 497.032 1352.68 497.091C1351.1 497.15 1349.53 497.03 1348.09 496.74C1346.65 496.45 1345.33 495.984 1344.19 495.328C1343.82 495.113 1343.37 494.949 1342.86 494.845C1342.34 494.741 1341.79 494.698 1341.22 494.72C1340.65 494.742 1340.07 494.828 1339.53 494.973C1338.98 495.118 1338.48 495.32 1338.05 495.565C1337.17 496.059 1336.63 496.704 1336.54 497.359C1336.45 498.013 1336.82 498.624 1337.57 499.057C1339.46 500.149 1341.72 500.951 1344.18 501.446C1346.64 501.941 1349.32 502.136 1352.02 502.036C1354.72 501.935 1357.45 501.538 1360.07 500.854C1362.69 500.171 1365.19 499.193 1367.41 497.946C1369.62 496.698 1371.37 495.284 1372.6 493.799C1373.84 492.314 1374.58 490.754 1374.8 489.217C1375.01 487.68 1374.68 486.162 1373.84 484.751C1373.01 483.342 1371.65 482.036 1369.75 480.942L1358.83 474.632Z" fill="white"/>
<path d="M1403.93 490.396L1403.94 490.396L1403.94 490.789L1403.93 490.396Z" fill="#21AD63"/>
<path d="M1309.92 500.699L1335.21 515.301C1344.9 520.894 1359.55 521.501 1367.94 516.659L1398.31 499.125C1401.92 497.04 1403.77 494.286 1403.94 491.382L1403.94 501.022C1404.18 504.294 1402.33 507.449 1398.31 509.772L1367.94 527.305C1359.55 532.148 1344.9 531.541 1335.21 525.948L1309.92 511.348C1304.91 508.457 1302.22 504.802 1301.94 501.274L1301.93 501.274L1301.93 501.201C1301.91 500.839 1301.91 500.479 1301.93 500.12L1301.93 490.396L1301.94 490.396C1302.12 493.995 1304.8 497.746 1309.92 500.699" fill="#386FB2"/>
<path d="M1403.93 490.396L1403.94 490.396L1403.94 490.789L1403.93 490.396Z" fill="#21AD63"/>
<path d="M1367.94 516.658L1398.31 499.125C1401.92 497.04 1403.77 494.286 1403.94 491.381L1403.94 501.022C1404.18 504.294 1402.33 507.449 1398.31 509.772L1367.94 527.305L1367.94 516.658Z" fill="#5191D4"/>
<path d="M1309.92 499.367L1335.21 513.969C1344.9 519.562 1359.55 520.169 1367.94 515.327L1398.31 497.793C1401.84 495.753 1403.68 493.07 1403.92 490.232C1404.22 493.554 1402.39 496.768 1398.31 499.124L1367.94 516.658C1359.55 521.5 1344.9 520.893 1335.21 515.3L1309.92 500.698C1304.31 497.462 1301.62 493.265 1301.96 489.365C1302.27 492.869 1304.95 496.496 1309.92 499.367Z" fill="#D6EEFB"/>
<path d="M1311.03 622.343L1341.4 604.809C1349.79 599.965 1348.74 591.506 1339.05 585.913L1313.76 571.311C1304.07 565.72 1289.42 565.111 1281.03 569.956L1250.66 587.489C1242.27 592.331 1243.33 600.792 1253.01 606.383L1278.3 620.985C1287.99 626.578 1302.64 627.185 1311.03 622.343Z" fill="#61CAC2"/>
<path d="M1347.02 596.079L1347.04 596.079L1347.04 596.471L1347.02 596.079Z" fill="#3AA59F"/>
<path d="M1253.01 606.382L1278.3 620.984C1287.99 626.577 1302.64 627.184 1311.03 622.341L1341.4 604.806C1345.01 602.723 1346.86 599.969 1347.04 597.064L1347.04 606.705C1347.27 609.977 1345.42 613.132 1341.4 615.454L1311.03 632.988C1302.64 637.83 1287.99 637.223 1278.3 631.63L1253.01 617.03C1248.01 614.14 1245.31 610.484 1245.03 606.957L1245.03 606.957L1245.03 606.884C1245 606.522 1245 606.162 1245.03 605.803L1245.03 596.079L1245.04 596.079C1245.22 599.678 1247.9 603.429 1253.02 606.382" fill="#3AA59F"/>
<path d="M1347.02 596.079L1347.04 596.079L1347.04 596.471L1347.02 596.079Z" fill="#21AD63"/>
<path d="M1311.03 622.341L1341.4 604.806C1345.01 602.723 1346.86 599.969 1347.04 597.064L1347.04 606.704C1347.27 609.977 1345.42 613.131 1341.4 615.454L1311.03 632.988L1311.03 622.341Z" fill="#45C0B5"/>
<path d="M1253.01 605.052L1278.3 619.654C1287.99 625.247 1302.64 625.854 1311.03 621.012L1341.4 603.477C1344.93 601.438 1346.77 598.755 1347.01 595.917C1347.31 599.239 1345.48 602.453 1341.4 604.807L1311.03 622.342C1302.64 627.185 1287.99 626.578 1278.3 620.985L1253.01 606.383C1247.4 603.147 1244.71 598.95 1245.05 595.05C1245.36 598.554 1248.04 602.181 1253.01 605.052Z" fill="white"/>
<path d="M1311.03 606.962L1341.4 589.429C1349.79 584.584 1348.74 576.125 1339.05 570.532L1313.76 555.932C1304.07 550.339 1289.42 549.732 1281.03 554.575L1250.66 572.108C1242.27 576.952 1243.33 585.411 1253.01 591.004L1278.3 605.604C1287.99 611.197 1302.64 611.804 1311.03 606.962Z" fill="#61CAC2"/>
<path d="M1347.02 580.702L1347.04 580.702L1347.04 581.092L1347.02 580.702Z" fill="#21AD63"/>
<path d="M1253.01 591.004L1278.3 605.604C1287.99 611.197 1302.64 611.804 1311.03 606.962L1341.4 589.429C1345.01 587.345 1346.86 584.592 1347.04 581.685L1347.04 591.325C1347.27 594.598 1345.42 597.753 1341.4 600.075L1311.03 617.609C1302.64 622.453 1287.99 621.844 1278.3 616.253L1253.01 601.651C1248.01 598.76 1245.31 595.105 1245.03 591.578L1245.03 591.578L1245.03 591.505C1245 591.142 1245 590.782 1245.03 590.426L1245.03 580.702L1245.04 580.702C1245.22 584.298 1247.9 588.05 1253.02 591.004" fill="#3AA59F"/>
<path d="M1347.02 580.702L1347.04 580.702L1347.04 581.092L1347.02 580.702Z" fill="#21AD63"/>
<path d="M1311.03 606.963L1341.4 589.43C1345.01 587.347 1346.86 584.593 1347.04 581.687L1347.04 591.327C1347.27 594.599 1345.42 597.754 1341.4 600.077L1311.03 617.61L1311.03 606.963Z" fill="#45C0B5"/>
<path d="M1253.01 589.675L1278.3 604.275C1287.99 609.868 1302.64 610.475 1311.03 605.632L1341.4 588.099C1344.93 586.058 1346.77 583.375 1347.01 580.538C1347.31 583.86 1345.48 587.073 1341.4 589.43L1311.03 606.963C1302.64 611.806 1287.99 611.199 1278.3 605.606L1253.01 591.006C1247.4 587.767 1244.71 583.572 1245.05 579.67C1245.36 583.177 1248.04 586.802 1253.01 589.675Z" fill="white"/>
<path d="M1311.03 591.657L1341.4 574.123C1349.79 569.281 1348.74 560.82 1339.05 555.229L1313.76 540.627C1304.07 535.034 1289.42 534.427 1281.03 539.27L1250.66 556.803C1242.27 561.647 1243.33 570.106 1253.01 575.699L1278.3 590.301C1287.99 595.892 1302.64 596.501 1311.03 591.657Z" fill="#61CAC2"/>
<path d="M1301.83 551.22C1301.45 551.005 1301 550.841 1300.49 550.737C1299.98 550.632 1299.42 550.59 1298.85 550.612C1298.28 550.634 1297.7 550.72 1297.16 550.865C1296.62 551.01 1296.11 551.211 1295.68 551.457L1282.9 558.65L1270.12 565.843C1269.24 566.337 1268.7 566.982 1268.61 567.636C1268.52 568.291 1268.89 568.902 1269.64 569.335C1270.39 569.767 1271.46 569.986 1272.61 569.943C1273.76 569.9 1274.89 569.599 1275.77 569.106L1288.55 561.913L1298.03 556.581L1306.13 561.259C1307.26 561.913 1308.07 562.668 1308.56 563.496C1309.05 564.322 1309.22 565.224 1309.1 566.128C1308.97 567.031 1308.54 567.946 1307.81 568.82C1307.09 569.689 1306.07 570.527 1304.76 571.27C1303.43 572.015 1301.96 572.578 1300.42 572.98C1298.88 573.382 1297.27 573.619 1295.68 573.678C1294.1 573.737 1292.53 573.618 1291.09 573.327C1289.65 573.038 1288.33 572.571 1287.19 571.915C1286.82 571.701 1286.37 571.536 1285.86 571.432C1285.34 571.328 1284.79 571.286 1284.22 571.308C1283.65 571.33 1283.07 571.416 1282.53 571.561C1281.98 571.706 1281.48 571.907 1281.05 572.153C1280.17 572.646 1279.63 573.291 1279.54 573.946C1279.45 574.601 1279.82 575.211 1280.57 575.645C1282.46 576.736 1284.72 577.538 1287.18 578.034C1289.64 578.528 1292.32 578.724 1295.02 578.623C1297.72 578.523 1300.45 578.125 1303.07 577.442C1305.69 576.758 1308.19 575.78 1310.41 574.533C1312.62 573.286 1314.37 571.872 1315.6 570.386C1316.84 568.901 1317.58 567.341 1317.8 565.804C1318.01 564.267 1317.68 562.749 1316.84 561.339C1316.01 559.93 1314.65 558.623 1312.75 557.529L1301.83 551.22Z" fill="#3AA59F"/>
<path d="M1301.83 549.632C1301.45 549.418 1301 549.253 1300.49 549.149C1299.98 549.045 1299.42 549.003 1298.85 549.025C1298.28 549.047 1297.7 549.133 1297.16 549.278C1296.62 549.423 1296.11 549.624 1295.68 549.87L1282.9 557.063L1270.12 564.256C1269.24 564.749 1268.7 565.394 1268.61 566.049C1268.52 566.703 1268.89 567.314 1269.64 567.747C1270.39 568.179 1271.46 568.398 1272.61 568.355C1273.76 568.313 1274.89 568.012 1275.77 567.519L1288.55 560.326L1298.03 554.993L1306.13 559.671C1307.26 560.325 1308.07 561.08 1308.56 561.908C1309.05 562.734 1309.22 563.637 1309.1 564.541C1308.97 565.444 1308.54 566.358 1307.81 567.232C1307.09 568.102 1306.07 568.94 1304.76 569.682C1303.43 570.427 1301.96 570.991 1300.42 571.392C1298.88 571.795 1297.27 572.032 1295.68 572.091C1294.1 572.15 1292.53 572.03 1291.09 571.74C1289.65 571.45 1288.33 570.984 1287.19 570.328C1286.82 570.113 1286.37 569.949 1285.86 569.845C1285.34 569.741 1284.79 569.698 1284.22 569.72C1283.65 569.742 1283.07 569.828 1282.53 569.973C1281.98 570.118 1281.48 570.32 1281.05 570.565C1280.17 571.059 1279.63 571.704 1279.54 572.359C1279.45 573.013 1279.82 573.624 1280.57 574.057C1282.46 575.149 1284.72 575.951 1287.18 576.446C1289.64 576.941 1292.32 577.136 1295.02 577.036C1297.72 576.935 1300.45 576.538 1303.07 575.854C1305.69 575.171 1308.19 574.193 1310.41 572.946C1312.62 571.698 1314.37 570.284 1315.6 568.799C1316.84 567.314 1317.58 565.754 1317.8 564.217C1318.01 562.68 1317.68 561.162 1316.84 559.751C1316.01 558.342 1314.65 557.036 1312.75 555.942L1301.83 549.632Z" fill="white"/>
<path d="M1347.02 565.322L1347.04 565.322L1347.04 565.714L1347.02 565.322Z" fill="#21AD63"/>
<path d="M1253.01 575.625L1278.3 590.227C1287.99 595.818 1302.64 596.427 1311.03 591.582L1341.4 574.049C1345.01 571.966 1346.86 569.212 1347.04 566.306L1347.04 575.948C1347.27 579.218 1345.42 582.373 1341.4 584.696L1311.03 602.231C1302.64 607.073 1287.99 606.466 1278.3 600.873L1253.01 586.272C1248.01 583.383 1245.31 579.726 1245.03 576.198L1245.03 576.198L1245.03 576.125C1245 575.763 1245 575.405 1245.03 575.046L1245.03 565.322L1245.04 565.322C1245.22 568.921 1247.9 572.672 1253.02 575.625" fill="#3AA59F"/>
<path d="M1347.02 565.322L1347.04 565.322L1347.04 565.714L1347.02 565.322Z" fill="#21AD63"/>
<path d="M1311.03 591.584L1341.4 574.051C1345.01 571.968 1346.86 569.214 1347.04 566.307L1347.04 575.949C1347.27 579.22 1345.42 582.375 1341.4 584.697L1311.03 602.233L1311.03 591.584Z" fill="#45C0B5"/>
<path d="M1253.01 574.295L1278.3 588.897C1287.99 594.488 1302.64 595.097 1311.03 590.252L1341.4 572.719C1344.93 570.68 1346.77 567.997 1347.01 565.158C1347.31 568.48 1345.48 571.694 1341.4 574.05L1311.03 591.583C1302.64 596.427 1287.99 595.819 1278.3 590.227L1253.01 575.626C1247.4 572.389 1244.71 568.193 1245.05 564.291C1245.36 567.797 1248.04 571.424 1253.01 574.295Z" fill="white"/>
<path d="M1376.69 656.41L1407.05 638.877C1415.44 634.032 1414.39 625.574 1404.7 619.981L1379.41 605.379C1369.73 599.787 1355.07 599.179 1346.69 604.023L1316.32 621.556C1307.93 626.399 1308.98 634.859 1318.67 640.451L1343.96 655.052C1353.64 660.646 1368.3 661.252 1376.69 656.41Z" fill="#7FB7E7"/>
<path d="M1412.68 630.149L1412.69 630.149L1412.69 630.541L1412.68 630.149Z" fill="#21AD63"/>
<path d="M1318.67 640.451L1343.96 655.053C1353.64 660.646 1368.3 661.253 1376.69 656.411L1407.05 638.877C1410.66 636.793 1412.51 634.039 1412.69 631.134L1412.69 640.774C1412.92 644.046 1411.08 647.201 1407.05 649.524L1376.69 667.058C1368.3 671.9 1353.64 671.293 1343.96 665.7L1318.67 651.1C1313.66 648.209 1310.97 644.554 1310.69 641.026L1310.68 641.026L1310.68 640.953C1310.66 640.591 1310.66 640.231 1310.68 639.873L1310.68 630.149L1310.69 630.149C1310.87 633.747 1313.55 637.499 1318.67 640.451" fill="#386FB2"/>
<path d="M1412.68 630.149L1412.69 630.149L1412.69 630.541L1412.68 630.149Z" fill="#21AD63"/>
<path d="M1376.69 656.411L1407.05 638.877C1410.66 636.793 1412.51 634.039 1412.69 631.134L1412.69 640.774C1412.92 644.046 1411.08 647.201 1407.05 649.524L1376.69 667.058L1376.69 656.411Z" fill="#5191D4"/>
<path d="M1318.67 639.12L1343.96 653.722C1353.64 659.315 1368.3 659.922 1376.69 655.079L1407.05 637.546C1410.59 635.505 1412.42 632.822 1412.67 629.985C1412.96 633.307 1411.13 636.52 1407.05 638.877L1376.69 656.41C1368.3 661.252 1353.64 660.645 1343.96 655.052L1318.67 640.451C1313.06 637.214 1310.37 633.017 1310.7 629.117C1311.01 632.622 1313.69 636.249 1318.67 639.12Z" fill="#D6EEFB"/>
<path d="M1376.97 641.657L1407.34 624.124C1415.73 619.28 1414.67 610.821 1404.99 605.228L1379.7 590.626C1370.01 585.035 1355.36 584.426 1346.97 589.271L1316.6 606.804C1308.21 611.646 1309.26 620.107 1318.95 625.698L1344.24 640.3C1353.93 645.893 1368.58 646.5 1376.97 641.657Z" fill="#7FB7E7"/>
<path d="M1366.83 601.22C1366.45 601.005 1366 600.841 1365.49 600.737C1364.98 600.632 1364.42 600.59 1363.85 600.612C1363.28 600.634 1362.7 600.72 1362.16 600.865C1361.62 601.01 1361.11 601.211 1360.68 601.457L1347.9 608.65L1335.12 615.843C1334.24 616.337 1333.7 616.982 1333.61 617.636C1333.52 618.291 1333.89 618.902 1334.64 619.335C1335.39 619.767 1336.46 619.986 1337.61 619.943C1338.76 619.9 1339.89 619.599 1340.77 619.106L1353.55 611.913L1363.03 606.581L1371.13 611.259C1372.26 611.913 1373.07 612.668 1373.56 613.496C1374.05 614.322 1374.22 615.224 1374.1 616.128C1373.97 617.031 1373.54 617.946 1372.81 618.82C1372.09 619.689 1371.07 620.527 1369.76 621.27C1368.43 622.015 1366.96 622.578 1365.42 622.98C1363.88 623.382 1362.27 623.619 1360.68 623.678C1359.1 623.737 1357.53 623.618 1356.09 623.327C1354.65 623.038 1353.33 622.571 1352.19 621.915C1351.82 621.701 1351.37 621.536 1350.86 621.432C1350.34 621.328 1349.79 621.286 1349.22 621.308C1348.65 621.33 1348.07 621.416 1347.53 621.561C1346.98 621.706 1346.48 621.907 1346.05 622.153C1345.17 622.646 1344.63 623.291 1344.54 623.946C1344.45 624.601 1344.82 625.211 1345.57 625.645C1347.46 626.736 1349.72 627.538 1352.18 628.034C1354.64 628.528 1357.32 628.724 1360.02 628.623C1362.72 628.523 1365.45 628.125 1368.07 627.442C1370.69 626.758 1373.19 625.78 1375.41 624.533C1377.62 623.286 1379.37 621.872 1380.6 620.386C1381.84 618.901 1382.58 617.341 1382.8 615.804C1383.01 614.267 1382.68 612.749 1381.84 611.339C1381.01 609.93 1379.65 608.623 1377.75 607.529L1366.83 601.22Z" fill="#386FB2"/>
<path d="M1366.83 599.632C1366.45 599.418 1366 599.253 1365.49 599.149C1364.98 599.045 1364.42 599.003 1363.85 599.025C1363.28 599.047 1362.7 599.133 1362.16 599.278C1361.62 599.423 1361.11 599.624 1360.68 599.87L1347.9 607.063L1335.12 614.256C1334.24 614.749 1333.7 615.394 1333.61 616.049C1333.52 616.703 1333.89 617.314 1334.64 617.747C1335.39 618.179 1336.46 618.398 1337.61 618.355C1338.76 618.313 1339.89 618.012 1340.77 617.519L1353.55 610.326L1363.03 604.993L1371.13 609.671C1372.26 610.325 1373.07 611.08 1373.56 611.908C1374.05 612.734 1374.22 613.637 1374.1 614.541C1373.97 615.444 1373.54 616.358 1372.81 617.232C1372.09 618.102 1371.07 618.94 1369.76 619.682C1368.43 620.427 1366.96 620.991 1365.42 621.392C1363.88 621.795 1362.27 622.032 1360.68 622.091C1359.1 622.15 1357.53 622.03 1356.09 621.74C1354.65 621.45 1353.33 620.984 1352.19 620.328C1351.82 620.113 1351.37 619.949 1350.86 619.845C1350.34 619.741 1349.79 619.698 1349.22 619.72C1348.65 619.742 1348.07 619.828 1347.53 619.973C1346.98 620.118 1346.48 620.32 1346.05 620.565C1345.17 621.059 1344.63 621.704 1344.54 622.359C1344.45 623.013 1344.82 623.624 1345.57 624.057C1347.46 625.149 1349.72 625.951 1352.18 626.446C1354.64 626.941 1357.32 627.136 1360.02 627.036C1362.72 626.935 1365.45 626.538 1368.07 625.854C1370.69 625.171 1373.19 624.193 1375.41 622.946C1377.62 621.698 1379.37 620.284 1380.6 618.799C1381.84 617.314 1382.58 615.754 1382.8 614.217C1383.01 612.68 1382.68 611.162 1381.84 609.751C1381.01 608.342 1379.65 607.036 1377.75 605.942L1366.83 599.632Z" fill="white"/>
<path d="M1412.68 615.511L1412.69 615.511L1412.69 615.904L1412.68 615.511Z" fill="#21AD63"/>
<path d="M1318.67 625.814L1343.96 640.416C1353.64 646.009 1368.3 646.616 1376.69 641.773L1407.05 624.24C1410.66 622.155 1412.51 619.401 1412.69 616.496L1412.69 626.137C1412.92 629.409 1411.08 632.564 1407.05 634.887L1376.69 652.42C1368.3 657.262 1353.64 656.655 1343.96 651.062L1318.67 636.462C1313.66 633.572 1310.97 629.916 1310.69 626.389L1310.68 626.389L1310.68 626.316C1310.66 625.954 1310.66 625.593 1310.68 625.235L1310.68 615.511L1310.69 615.511C1310.87 619.11 1313.55 622.861 1318.67 625.814" fill="#386FB2"/>
<path d="M1412.68 615.511L1412.69 615.511L1412.69 615.904L1412.68 615.511Z" fill="#21AD63"/>
<path d="M1376.69 641.772L1407.05 624.239C1410.66 622.154 1412.51 619.4 1412.69 616.496L1412.69 626.136C1412.92 629.408 1411.08 632.563 1407.05 634.886L1376.69 652.419L1376.69 641.772Z" fill="#5191D4"/>
<path d="M1318.67 624.482L1343.96 639.084C1353.64 644.677 1368.3 645.284 1376.69 640.441L1407.05 622.908C1410.59 620.867 1412.42 618.185 1412.67 615.347C1412.96 618.669 1411.13 621.882 1407.05 624.239L1376.69 641.772C1368.3 646.615 1353.64 646.008 1343.96 640.415L1318.67 625.813C1313.06 622.576 1310.37 618.38 1310.7 614.479C1311.01 617.984 1313.69 621.611 1318.67 624.482Z" fill="#D6EEFB"/>
</g>
<defs>
<filter id="filter0_d_129_73" x="62.9978" y="224" width="1468.61" height="868.884" filterUnits="userSpaceOnUse" color-interpolation-filters="sRGB">
<feFlood flood-opacity="0" result="BackgroundImageFix"/>
<feColorMatrix in="SourceAlpha" type="matrix" values="0 0 0 0 0 0 0 0 0 0 0 0 0 0 0 0 0 0 127 0" result="hardAlpha"/>
<feOffset dy="4"/>
<feGaussianBlur stdDeviation="2"/>
<feComposite in2="hardAlpha" operator="out"/>
<feColorMatrix type="matrix" values="0 0 0 0 0 0 0 0 0 0 0 0 0 0 0 0 0 0 0.25 0"/>
<feBlend mode="normal" in2="BackgroundImageFix" result="effect1_dropShadow_129_73"/>
<feBlend mode="normal" in="SourceGraphic" in2="effect1_dropShadow_129_73" result="shape"/>
</filter>
<filter id="filter1_d_129_73" x="400.398" y="291.432" width="247.959" height="165.137" filterUnits="userSpaceOnUse" color-interpolation-filters="sRGB">
<feFlood flood-opacity="0" result="BackgroundImageFix"/>
<feColorMatrix in="SourceAlpha" type="matrix" values="0 0 0 0 0 0 0 0 0 0 0 0 0 0 0 0 0 0 127 0" result="hardAlpha"/>
<feOffset dy="4"/>
<feGaussianBlur stdDeviation="13"/>
<feComposite in2="hardAlpha" operator="out"/>
<feColorMatrix type="matrix" values="0 0 0 0 0 0 0 0 0 0 0 0 0 0 0 0 0 0 0.25 0"/>
<feBlend mode="normal" in2="BackgroundImageFix" result="effect1_dropShadow_129_73"/>
<feBlend mode="normal" in="SourceGraphic" in2="effect1_dropShadow_129_73" result="shape"/>
</filter>
<filter id="filter2_d_129_73" x="1178.09" y="869.432" width="247.959" height="165.137" filterUnits="userSpaceOnUse" color-interpolation-filters="sRGB">
<feFlood flood-opacity="0" result="BackgroundImageFix"/>
<feColorMatrix in="SourceAlpha" type="matrix" values="0 0 0 0 0 0 0 0 0 0 0 0 0 0 0 0 0 0 127 0" result="hardAlpha"/>
<feOffset dy="4"/>
<feGaussianBlur stdDeviation="13"/>
<feComposite in2="hardAlpha" operator="out"/>
<feColorMatrix type="matrix" values="0 0 0 0 0 0 0 0 0 0 0 0 0 0 0 0 0 0 0.25 0"/>
<feBlend mode="normal" in2="BackgroundImageFix" result="effect1_dropShadow_129_73"/>
<feBlend mode="normal" in="SourceGraphic" in2="effect1_dropShadow_129_73" result="shape"/>
</filter>
<filter id="filter3_d_129_73" x="858.526" y="945.932" width="247.959" height="165.137" filterUnits="userSpaceOnUse" color-interpolation-filters="sRGB">
<feFlood flood-opacity="0" result="BackgroundImageFix"/>
<feColorMatrix in="SourceAlpha" type="matrix" values="0 0 0 0 0 0 0 0 0 0 0 0 0 0 0 0 0 0 127 0" result="hardAlpha"/>
<feOffset dy="4"/>
<feGaussianBlur stdDeviation="13"/>
<feComposite in2="hardAlpha" operator="out"/>
<feColorMatrix type="matrix" values="0 0 0 0 0 0 0 0 0 0 0 0 0 0 0 0 0 0 0.25 0"/>
<feBlend mode="normal" in2="BackgroundImageFix" result="effect1_dropShadow_129_73"/>
<feBlend mode="normal" in="SourceGraphic" in2="effect1_dropShadow_129_73" result="shape"/>
</filter>
<filter id="filter4_d_129_73" x="684.455" y="791.432" width="247.959" height="165.137" filterUnits="userSpaceOnUse" color-interpolation-filters="sRGB">
<feFlood flood-opacity="0" result="BackgroundImageFix"/>
<feColorMatrix in="SourceAlpha" type="matrix" values="0 0 0 0 0 0 0 0 0 0 0 0 0 0 0 0 0 0 127 0" result="hardAlpha"/>
<feOffset dy="4"/>
<feGaussianBlur stdDeviation="13"/>
<feComposite in2="hardAlpha" operator="out"/>
<feColorMatrix type="matrix" values="0 0 0 0 0 0 0 0 0 0 0 0 0 0 0 0 0 0 0.25 0"/>
<feBlend mode="normal" in2="BackgroundImageFix" result="effect1_dropShadow_129_73"/>
<feBlend mode="normal" in="SourceGraphic" in2="effect1_dropShadow_129_73" result="shape"/>
</filter>
<filter id="filter5_d_129_73" x="40.9978" y="499.932" width="247.959" height="165.137" filterUnits="userSpaceOnUse" color-interpolation-filters="sRGB">
<feFlood flood-opacity="0" result="BackgroundImageFix"/>
<feColorMatrix in="SourceAlpha" type="matrix" values="0 0 0 0 0 0 0 0 0 0 0 0 0 0 0 0 0 0 127 0" result="hardAlpha"/>
<feOffset dy="4"/>
<feGaussianBlur stdDeviation="13"/>
<feComposite in2="hardAlpha" operator="out"/>
<feColorMatrix type="matrix" values="0 0 0 0 0 0 0 0 0 0 0 0 0 0 0 0 0 0 0.25 0"/>
<feBlend mode="normal" in2="BackgroundImageFix" result="effect1_dropShadow_129_73"/>
<feBlend mode="normal" in="SourceGraphic" in2="effect1_dropShadow_129_73" result="shape"/>
</filter>
<filter id="filter6_d_129_73" x="686.187" y="272.432" width="247.959" height="165.137" filterUnits="userSpaceOnUse" color-interpolation-filters="sRGB">
<feFlood flood-opacity="0" result="BackgroundImageFix"/>
<feColorMatrix in="SourceAlpha" type="matrix" values="0 0 0 0 0 0 0 0 0 0 0 0 0 0 0 0 0 0 127 0" result="hardAlpha"/>
<feOffset dy="4"/>
<feGaussianBlur stdDeviation="13"/>
<feComposite in2="hardAlpha" operator="out"/>
<feColorMatrix type="matrix" values="0 0 0 0 0 0 0 0 0 0 0 0 0 0 0 0 0 0 0.25 0"/>
<feBlend mode="normal" in2="BackgroundImageFix" result="effect1_dropShadow_129_73"/>
<feBlend mode="normal" in="SourceGraphic" in2="effect1_dropShadow_129_73" result="shape"/>
</filter>
<filter id="filter7_d_129_73" x="1142.58" y="666.932" width="247.959" height="165.137" filterUnits="userSpaceOnUse" color-interpolation-filters="sRGB">
<feFlood flood-opacity="0" result="BackgroundImageFix"/>
<feColorMatrix in="SourceAlpha" type="matrix" values="0 0 0 0 0 0 0 0 0 0 0 0 0 0 0 0 0 0 127 0" result="hardAlpha"/>
<feOffset dy="4"/>
<feGaussianBlur stdDeviation="13"/>
<feComposite in2="hardAlpha" operator="out"/>
<feColorMatrix type="matrix" values="0 0 0 0 0 0 0 0 0 0 0 0 0 0 0 0 0 0 0.25 0"/>
<feBlend mode="normal" in2="BackgroundImageFix" result="effect1_dropShadow_129_73"/>
<feBlend mode="normal" in="SourceGraphic" in2="effect1_dropShadow_129_73" result="shape"/>
</filter>
<linearGradient id="paint0_linear_129_73" x1="1255.55" y1="710.744" x2="1248.17" y2="758.481" gradientUnits="userSpaceOnUse">
<stop stop-color="#5A62C3"/>
<stop offset="0.5" stop-color="#4D55BD"/>
<stop offset="1" stop-color="#3940AB"/>
</linearGradient>
<clipPath id="clip0_129_73">
<rect width="100" height="89.3471" fill="white" transform="matrix(0.866025 0.5 -0.866025 0.5 1296.87 901)"/>
</clipPath>
<clipPath id="clip1_129_73">
<rect width="99.24" height="100" fill="white" transform="matrix(0.866025 0.5 -0.866025 0.5 808.434 820)"/>
</clipPath>
<clipPath id="clip2_129_73">
<rect width="100" height="100" fill="white" transform="matrix(0.866025 0.5 -0.866025 0.5 164.977 528.5)"/>
</clipPath>
<clipPath id="clip3_129_73">
<rect width="100" height="93.0233" fill="white" transform="matrix(0.866025 0.5 -0.866025 0.5 1263.1 697.5)"/>
</clipPath>
</defs>
</svg>
