<svg width="635" height="462" viewBox="0 0 635 462" fill="none" xmlns="http://www.w3.org/2000/svg">
<rect width="635" height="462" fill="white"/>
<path d="M301.695 129.964L296.91 132.726C286.99 138.454 286.99 147.74 296.91 153.468V153.468C306.831 159.196 306.831 168.482 296.91 174.21L292.282 176.882M327.11 193.004L371.976 167.1C383.933 160.197 403.32 160.197 415.277 167.1L446.417 185.079C457.464 191.456 457.464 201.797 446.417 208.175V208.175C435.37 214.553 435.37 224.894 446.417 231.272L469.086 244.36M480.381 319.355L446.73 299.927C440.276 296.2 429.81 296.2 423.355 299.927V299.927C416.901 303.654 406.435 303.654 399.98 299.927L315.657 251.243M304.43 290.915L299.739 287.868C296.742 285.921 291.425 286.011 288.631 288.056V288.056C285.944 290.024 280.884 290.196 277.815 288.424L268.56 283.08L267.815 282.65C259.93 278.098 259.93 270.718 267.815 266.165V266.165M241.453 242.458L219.805 254.956C207.848 261.86 207.848 273.053 219.805 279.956L240.198 291.73C247.909 296.182 247.909 303.4 240.198 307.852V307.852C232.487 312.305 232.487 319.523 240.198 323.975L324.755 372.794C336.712 379.697 356.099 379.697 368.056 372.794L370.408 371.436M118.773 184.671L137.911 173.622C149.869 166.718 169.255 166.718 181.213 173.622L229.217 201.337M195.487 140.38V140.38C184.83 146.533 184.83 156.509 195.487 162.661L245.846 191.736" stroke="#8F9295" stroke-width="0.5" stroke-linejoin="round"/>
<g filter="url(#filter0_d_406_4579)">
<circle cx="28.9839" cy="28.9839" r="28.9839" transform="matrix(0.866025 0.5 -0.866025 0.5 223.412 94.9115)" fill="white"/>
</g>
<path fill-rule="evenodd" clip-rule="evenodd" d="M234.893 112.409C233.161 111.41 230.355 111.413 228.625 112.413C226.893 113.411 226.891 115.032 228.62 116.032L231.752 117.84L234.888 116.03C236.62 115.031 236.623 113.411 234.893 112.409C234.894 112.41 234.894 112.41 234.893 112.409V112.409ZM226.526 117.24L218.177 112.419C216.445 111.421 213.638 111.422 211.908 112.422C210.175 113.42 210.172 115.041 211.9 116.042L220.251 120.863C221.983 121.861 224.79 121.86 226.52 120.86C228.253 119.86 228.256 118.24 226.526 117.24V117.24Z" fill="#36C5F0"/>
<path fill-rule="evenodd" clip-rule="evenodd" d="M243.222 130.501C244.954 129.502 244.956 127.882 243.227 126.882C241.494 125.883 238.688 125.884 236.958 126.885L233.82 128.696L236.951 130.505C238.684 131.503 241.491 131.502 243.222 130.501ZM234.871 125.68L243.238 120.849C244.969 119.851 244.973 118.232 243.245 117.231C241.512 116.232 238.705 116.234 236.976 117.234L228.609 122.064C226.875 123.062 226.873 124.683 228.601 125.684C230.333 126.682 233.14 126.681 234.871 125.68Z" fill="#2EB67D"/>
<path fill-rule="evenodd" clip-rule="evenodd" d="M211.867 135.345C213.6 136.344 216.406 136.342 218.136 135.342C219.868 134.343 219.871 132.723 218.141 131.723L215.009 129.915L211.872 131.726C210.141 132.724 210.139 134.344 211.867 135.345ZM220.235 130.514L228.586 135.335C230.318 136.333 233.125 136.332 234.855 135.332C236.588 134.334 236.591 132.713 234.862 131.712L226.512 126.891C224.78 125.893 221.973 125.894 220.243 126.894C218.51 127.894 218.506 129.513 220.235 130.514V130.514Z" fill="#ECB22E"/>
<path fill-rule="evenodd" clip-rule="evenodd" d="M203.541 117.253C201.809 118.251 201.807 119.872 203.536 120.872C205.268 121.871 208.075 121.869 209.805 120.869L212.942 119.058L209.81 117.25C208.078 116.251 205.271 116.253 203.541 117.253ZM211.892 122.074L203.525 126.904C201.791 127.902 201.789 129.523 203.517 130.524C205.249 131.522 208.056 131.521 209.786 130.521L218.151 125.691C219.885 124.693 219.888 123.072 218.159 122.072C216.427 121.072 213.621 121.074 211.892 122.074C211.89 122.075 211.892 122.074 211.892 122.074Z" fill="#E01E5A"/>
<g filter="url(#filter1_d_406_4579)">
<circle cx="28.9839" cy="28.9839" r="28.9839" transform="matrix(0.866025 0.5 -0.866025 0.5 505.168 304.32)" fill="white"/>
</g>
<g clip-path="url(#clip0_406_4579)">
<path d="M481.632 331.517L480.625 333.696C480.41 334.152 480.427 334.619 480.625 335.065L494.121 332.98L484.237 327.274C483.68 327.595 483.267 328 483.051 328.456L481.632 331.517Z" fill="#0066DA"/>
<path d="M509.989 330.521L513.601 322.729C512.828 322.615 512.019 322.605 511.228 322.729L486.286 326.589C485.511 326.71 484.805 326.946 484.237 327.274L494.121 332.98L509.989 330.521Z" fill="#00AC47"/>
<path d="M502.118 347.474C502.89 347.588 503.699 347.598 504.49 347.474L506.053 347.235L513.565 346.073C514.355 345.949 515.056 345.71 515.613 345.388L505.729 339.682L503.699 343.282L502.118 347.474Z" fill="#EA4335"/>
<path d="M509.989 330.521L523.484 328.436C523.287 327.99 522.873 327.585 522.298 327.253L515.649 323.414C515.074 323.082 514.355 322.854 513.601 322.729L509.989 330.521Z" fill="#00832D"/>
<path d="M505.73 339.682L494.121 332.98L480.625 335.065C480.823 335.511 481.236 335.916 481.811 336.248L500.069 346.789C500.644 347.121 501.363 347.349 502.118 347.474L505.73 339.682Z" fill="#2684FC"/>
<path d="M520.142 337.006L523.484 329.805C523.7 329.349 523.682 328.882 523.484 328.436L509.989 330.521L505.73 339.682L515.595 345.378C516.152 345.057 516.566 344.652 516.781 344.195L520.142 337.006Z" fill="#FFBA00"/>
</g>
<g filter="url(#filter2_d_406_4579)">
<circle cx="28.9839" cy="28.9839" r="28.9839" transform="matrix(0.866025 0.5 -0.866025 0.5 389.391 332.036)" fill="white"/>
</g>
<path fill-rule="evenodd" clip-rule="evenodd" d="M404.922 370.168C407.153 368.88 407.833 367.239 405.767 366.047C403.693 364.849 400.677 365.141 398.464 366.419C395.84 367.934 395.997 369.554 398.124 370.782C399.161 371.38 400.181 371.697 401.105 371.848L402.848 370.842C401.959 370.671 401.096 370.384 400.233 369.886C399.388 369.398 398.934 368.794 399.867 368.145L404.129 370.606C404.242 370.54 404.713 370.288 404.922 370.168ZM401.444 367.204C402.429 366.635 403.44 366.746 403.989 367.063C404.521 367.37 404.678 367.934 403.693 368.502L401.444 367.204Z" fill="#635BFF"/>
<path fill-rule="evenodd" clip-rule="evenodd" d="M399.074 362.182C398.22 361.689 397.27 361.604 396.686 361.588L397.113 361.211L395.195 360.104L385.033 365.971L387.674 366.963L390.149 365.544C390.236 365.856 390.376 366.308 391.143 366.751C392.703 367.652 395.378 367.748 398.141 366.152C400.66 364.688 400.599 363.063 399.074 362.182ZM392.546 365.347C392.032 365.05 391.91 364.769 391.927 364.517L395.152 362.645C395.631 362.63 396.119 362.711 396.616 362.997C397.409 363.455 397.069 364.286 395.927 364.945C394.76 365.619 393.348 365.81 392.546 365.347Z" fill="#635BFF"/>
<path fill-rule="evenodd" clip-rule="evenodd" d="M392.851 357.996L395.509 358.987L397.278 357.966L394.629 356.969L392.851 357.996Z" fill="#635BFF"/>
<path d="M394.376 359.641L392.188 358.378L384.562 362.781L386.75 364.044L394.376 359.641Z" fill="#635BFF"/>
<path fill-rule="evenodd" clip-rule="evenodd" d="M389.199 357.397L389.705 356.944L387.822 355.857L380.196 360.26L382.375 361.518L387.543 358.534C388.728 358.444 389.478 359.017 389.652 359.229L391.657 358.071C391.483 357.85 390.655 357.15 389.199 357.397Z" fill="#635BFF"/>
<path fill-rule="evenodd" clip-rule="evenodd" d="M387.377 353.417L384.798 352.45L377.808 356.476C376.518 357.221 376.535 358.328 377.825 359.072C378.54 359.485 379.194 359.711 379.638 359.787L381.407 358.765C381.015 358.67 379.237 358.106 380.527 357.362L383.621 355.575L385.277 356.531L387.133 355.459L385.478 354.503L387.377 353.417Z" fill="#635BFF"/>
<path fill-rule="evenodd" clip-rule="evenodd" d="M377.381 352.385C377.721 352.189 378.13 352.274 378.592 352.541C379.255 352.923 379.891 353.522 380.196 354.111L382.244 352.928C381.808 352.345 381.207 351.867 380.484 351.449C378.714 350.428 376.614 350.282 375.071 351.172C372.666 352.561 376.361 354.252 375.324 354.851C374.923 355.082 374.444 354.956 373.956 354.675C373.232 354.257 372.605 353.552 372.274 352.898L370.199 354.096C370.661 354.765 371.332 355.324 372.082 355.756C373.895 356.803 376.039 357.004 377.599 356.104C380.187 354.599 376.405 352.949 377.381 352.385Z" fill="#635BFF"/>
<g filter="url(#filter3_d_406_4579)">
<circle cx="28.9839" cy="28.9839" r="28.9839" transform="matrix(0.866025 0.5 -0.866025 0.5 326.325 276.061)" fill="white"/>
</g>
<g clip-path="url(#clip1_406_4579)">
<path d="M341.872 295.91C341.905 295.929 341.897 295.973 341.872 296.045C341.847 296.107 341.149 300.552 340.326 305.924C339.503 311.295 338.796 315.697 338.754 315.702C338.721 315.712 332.577 315.361 325.11 314.92C317.644 314.478 311.292 314.104 311.001 314.089C310.502 314.06 310.477 314.056 310.477 313.94C310.477 313.873 309.837 310.191 309.055 305.756C308.274 301.32 307.667 297.686 307.725 297.672C307.783 297.658 315.407 297.269 324.695 296.813C333.982 296.357 341.623 295.958 341.706 295.929C341.789 295.901 341.847 295.896 341.872 295.91Z" fill="#00BEF2"/>
<path d="M314.917 310.81C314.609 310.431 314.526 309.807 314.751 309.399C315.025 308.895 315.948 308.391 316.996 308.17C317.785 308.011 317.802 308.002 317.76 307.834C317.736 307.743 317.245 306.749 316.671 305.64C316.098 304.531 315.599 303.561 315.565 303.494C315.524 303.403 315.299 303.341 314.809 303.278C313.221 303.072 312.273 302.448 312.215 301.56C312.173 300.921 312.381 300.609 313.146 300.168C313.886 299.74 314.418 299.606 315.366 299.606C316.646 299.606 317.719 299.976 318.268 300.609C318.567 300.955 318.575 300.96 319.074 300.998C319.656 301.046 324.761 301.181 327.272 301.219L329.01 301.243L329.301 300.768C329.883 299.808 331.404 299.246 333.101 299.361C334.024 299.424 334.531 299.572 335.271 300C337 300.998 336.393 302.741 334.123 303.302C333.5 303.461 333.491 303.465 333.383 303.72C333.284 303.941 332.785 307.003 332.577 308.592C332.544 308.871 332.585 309.135 332.668 309.183C332.751 309.231 333.117 309.346 333.483 309.442C335.212 309.874 335.969 310.944 335.254 311.952C334.797 312.601 333.441 313.047 332.095 313.009C331.147 312.98 330.64 312.85 329.974 312.466C329.509 312.197 329.384 312.068 329.16 311.631C328.993 311.304 328.81 311.084 328.661 311.036C328.411 310.949 323.24 310.392 322.009 310.316C321.253 310.272 321.095 310.325 320.804 310.743C320.513 311.151 319.706 311.588 318.983 311.736C318.185 311.9 317.004 311.842 316.281 311.616C315.557 311.381 315.216 311.184 314.917 310.81V310.81ZM324.221 305.602L328.96 302.865L329.06 302.501C329.11 302.299 329.135 302.121 329.11 302.107C329.002 302.045 318.75 301.761 318.65 301.819C318.625 301.833 318.459 302.025 318.293 302.237C318.118 302.453 317.802 302.721 317.569 302.846C317.336 302.971 317.087 303.115 317.004 303.163C316.821 303.278 317.469 304.978 318.609 307.431C318.916 308.107 319.066 308.319 319.232 308.328C319.432 308.338 320.38 307.819 324.221 305.602V305.602ZM322.308 309.336C328.104 310.1 329.218 310.224 329.426 310.152C329.55 310.109 329.974 309.903 330.373 309.682L331.097 309.293L331.438 307.003C331.795 304.55 331.862 303.686 331.695 303.59C331.637 303.557 331.18 303.485 330.681 303.427L329.767 303.321L325.061 306.067C320.845 308.53 320.163 308.962 320.321 309.053C320.33 309.067 321.236 309.197 322.308 309.336V309.336Z" fill="#00BEF2" stroke="white" stroke-width="3" stroke-linecap="round" stroke-linejoin="round"/>
</g>
<g filter="url(#filter4_d_406_4579)">
<circle cx="28.9839" cy="28.9839" r="28.9839" transform="matrix(0.866025 0.5 -0.866025 0.5 93.2015 170.451)" fill="white"/>
</g>
<g clip-path="url(#clip2_406_4579)">
<path d="M97.9253 199.572L77.2891 206.551L66.846 200.521L77.0129 197.097L97.9253 199.572Z" fill="#072654"/>
<path d="M119.285 198.19L83.6283 210.211L78.5383 207.272L102.673 199.125L89.9283 197.613L96.3336 195.495L119.285 198.19Z" fill="#3395FF"/>
</g>
<circle cx="18.1149" cy="18.1149" r="18.1149" transform="matrix(0.866025 0.5 -0.866025 0.5 163.798 208.311)" fill="#28D57A"/>
<circle cx="10.869" cy="10.869" r="10.869" transform="matrix(0.866025 0.5 -0.866025 0.5 573.568 277.872)" fill="#28D57A"/>
<g filter="url(#filter5_d_406_4579)">
<circle cx="28.9839" cy="28.9839" r="28.9839" transform="matrix(0.866025 0.5 -0.866025 0.5 326.953 88.0278)" fill="white"/>
</g>
<path d="M341.935 126.069C342.968 125.473 343.857 124.854 344.654 124.212L329.881 115.683L323.985 119.087L332.444 123.971C330.13 124.869 327.384 125.171 324.626 124.862L320.704 127.126L325.75 130.039C331.437 130.168 337.163 128.824 341.935 126.069Z" fill="#4285F4"/>
<path d="M311.579 126.25C315.814 128.696 320.769 129.926 325.75 130.039L324.626 124.862C322.272 124.59 319.906 123.888 317.788 122.665C313.696 120.303 312.99 116.71 315.474 113.842L310.271 110.838L306.232 113.17C303.682 117.616 305.447 122.71 311.579 126.25Z" fill="#34A853"/>
<path d="M315.474 113.842C316.089 113.109 316.926 112.43 317.971 111.826C319.017 111.222 320.207 110.747 321.462 110.385L325.502 108.052L320.299 105.048C317.109 105.652 314.115 106.671 311.579 108.135C309.042 109.6 307.277 111.328 306.232 113.17L315.474 113.842Z" fill="#FBBC05"/>
<path d="M336.745 111.721C339.059 113.057 340.327 114.71 340.405 116.551L349.347 116.551C349.177 113.525 347.19 110.581 342.955 108.135C336.823 104.595 327.999 103.577 320.298 105.048L321.462 110.385C326.43 108.951 332.653 109.358 336.745 111.721Z" fill="#EA4335"/>
<g filter="url(#filter6_d_406_4579)">
<circle cx="28.9839" cy="28.9839" r="28.9839" transform="matrix(0.866025 0.5 -0.866025 0.5 492.304 230.955)" fill="white"/>
</g>
<g clip-path="url(#clip3_406_4579)">
<path d="M501.989 261.503L510.093 266.182C510.859 266.624 510.859 267.341 510.093 267.783L502.711 272.045C499.897 273.67 495.335 273.67 492.521 272.045L492.497 272.031C489.682 270.406 489.682 267.772 492.495 266.147C492.495 266.147 492.496 266.147 492.496 266.147L500.54 261.503C500.94 261.272 501.589 261.272 501.989 261.503Z" fill="#5059C9"/>
<path d="M508.926 263.823C510.739 264.87 513.68 264.87 515.493 263.823C517.306 262.776 517.306 261.078 515.493 260.031C513.68 258.984 510.739 258.984 508.926 260.031C507.112 261.078 507.112 262.776 508.926 263.823Z" fill="#5059C9"/>
<path d="M498.71 257.925C501.33 259.437 505.577 259.437 508.196 257.925C510.816 256.413 510.816 253.961 508.196 252.448C505.577 250.936 501.33 250.936 498.71 252.448C496.091 253.961 496.091 256.413 498.71 257.925Z" fill="#7B83EB"/>
<path d="M503.575 262.419L490.197 254.695C489.422 254.269 488.196 254.286 487.457 254.733L479.037 259.594C474.391 262.154 474.216 266.403 478.644 269.089C483.296 271.646 490.655 271.544 495.09 268.862L503.51 264.001C504.284 263.574 504.313 262.866 503.575 262.419Z" fill="#7B83EB"/>
<path opacity="0.1" d="M497.616 258.978L485.817 265.79C485.272 266.1 484.459 266.192 483.752 266.022C483.525 265.969 483.32 265.89 483.147 265.79L476.368 261.876C476.514 261.683 476.667 261.493 476.842 261.308C477.424 260.677 478.164 260.099 479.038 259.593L487.459 254.732C488.197 254.285 489.421 254.268 490.195 254.694L497.616 258.978Z" fill="black"/>
<path opacity="0.2" d="M496.886 258.557L484.358 265.79C484.185 265.89 483.979 265.969 483.752 266.022C483.046 266.192 482.232 266.1 481.687 265.79L475.981 262.496C476.098 262.285 476.222 262.079 476.368 261.876C476.514 261.674 476.667 261.493 476.842 261.308C477.424 260.677 478.164 260.099 479.038 259.593L487.459 254.732C488.197 254.285 489.421 254.268 490.195 254.694L496.886 258.557Z" fill="black"/>
<path opacity="0.2" d="M496.886 258.557L485.817 264.948C485.076 265.369 483.887 265.369 483.147 264.948L476.842 261.308C477.424 260.677 478.164 260.099 479.038 259.593L487.459 254.732C488.197 254.285 489.421 254.268 490.195 254.694L496.886 258.557Z" fill="black"/>
<path opacity="0.2" d="M496.157 258.135L485.087 264.526C484.347 264.947 483.158 264.947 482.417 264.526L476.842 261.308C477.424 260.677 478.164 260.099 479.038 259.593L487.459 254.732C488.197 254.285 489.421 254.268 490.195 254.694L496.157 258.135Z" fill="black"/>
<path opacity="0.1" d="M501.388 256.8L499.09 258.127C498.959 258.06 498.835 257.996 498.71 257.925C498.586 257.853 498.477 257.782 498.36 257.706C498.13 257.554 497.925 257.391 497.747 257.217C496.62 256.162 496.435 254.859 497.251 253.712C497.386 253.518 497.552 253.332 497.747 253.156L501.388 255.258C502.122 255.685 502.122 256.373 501.388 256.8Z" fill="black"/>
<path opacity="0.2" d="M499.929 256.8L498.36 257.706C498.13 257.554 497.925 257.391 497.747 257.217C496.62 256.162 496.435 254.859 497.251 253.712L499.929 255.258C500.663 255.685 500.663 256.373 499.929 256.8Z" fill="black"/>
<path opacity="0.2" d="M499.929 256.8L498.36 257.706C498.13 257.554 497.925 257.391 497.747 257.217C496.62 256.162 496.435 254.859 497.251 253.712L499.929 255.258C500.663 255.685 500.663 256.373 499.929 256.8Z" fill="black"/>
<path opacity="0.2" d="M499.199 256.379L497.747 257.217C496.62 256.162 496.435 254.859 497.251 253.712L499.199 254.837C499.933 255.264 499.933 255.952 499.199 256.379Z" fill="black"/>
<path d="M485.819 247.112L499.197 254.836C499.936 255.262 499.936 255.954 499.197 256.38L485.819 264.104C485.081 264.53 483.883 264.53 483.144 264.104L469.767 256.38C469.028 255.954 469.028 255.262 469.767 254.836L483.144 247.112C483.883 246.685 485.081 246.685 485.819 247.112Z" fill="url(#paint0_linear_406_4579)"/>
<path d="M490.937 255.946L488.262 254.402L480.98 258.606L479.276 257.622L486.559 253.418L483.897 251.881L485.309 251.066L492.349 255.13L490.937 255.946Z" fill="white"/>
</g>
<path d="M273.772 171.397C281.397 166.995 293.759 166.995 301.383 171.397L367.9 209.801C372.319 212.352 374.177 215.822 373.474 219.146L373.474 226.179C374.177 229.503 372.319 232.973 367.9 235.524L301.383 273.928C293.759 278.33 281.397 278.33 273.772 273.928L207.255 235.524C202.717 232.904 200.88 229.315 201.744 225.91L201.744 219.415C200.88 216.011 202.717 212.421 207.255 209.801L273.772 171.397Z" fill="#21AD63"/>
<rect width="108.69" height="108.69" rx="16" transform="matrix(0.866025 0.5 -0.866025 0.5 287.764 163.748)" fill="#28D57A"/>
<path d="M293.368 201.299C292.964 201.066 292.47 200.888 291.916 200.775C291.361 200.662 290.756 200.616 290.136 200.64C289.516 200.664 288.893 200.757 288.303 200.914C287.712 201.072 287.166 201.29 286.695 201.557L272.821 209.366L258.946 217.174C257.996 217.71 257.407 218.41 257.31 219.121C257.212 219.832 257.614 220.495 258.426 220.965C259.241 221.434 260.399 221.671 261.647 221.625C262.895 221.578 264.13 221.252 265.082 220.717L278.957 212.908L289.243 207.119L298.039 212.198C299.269 212.907 300.141 213.727 300.675 214.626C301.207 215.523 301.396 216.503 301.261 217.484C301.127 218.464 300.653 219.457 299.866 220.406C299.08 221.35 297.98 222.26 296.549 223.065C295.111 223.874 293.515 224.486 291.842 224.922C290.167 225.359 288.419 225.616 286.698 225.68C284.976 225.744 283.279 225.614 281.71 225.299C280.145 224.985 278.717 224.478 277.484 223.766C277.079 223.533 276.586 223.355 276.031 223.242C275.476 223.129 274.872 223.083 274.252 223.107C273.632 223.131 273.009 223.224 272.418 223.381C271.828 223.539 271.281 223.757 270.81 224.024C269.86 224.56 269.271 225.26 269.174 225.971C269.076 226.681 269.478 227.345 270.291 227.815C272.344 229 274.795 229.87 277.47 230.408C280.143 230.945 283.047 231.157 285.978 231.048C288.909 230.939 291.872 230.508 294.717 229.766C297.563 229.024 300.279 227.962 302.685 226.608C305.091 225.254 306.988 223.719 308.326 222.106C309.663 220.494 310.475 218.801 310.704 217.132C310.933 215.463 310.581 213.815 309.673 212.284C308.766 210.755 307.289 209.337 305.232 208.149L293.368 201.299Z" fill="#21AD63"/>
<path d="M293.368 199.576C292.964 199.343 292.47 199.165 291.916 199.052C291.361 198.938 290.756 198.892 290.136 198.916C289.516 198.94 288.893 199.034 288.303 199.191C287.712 199.349 287.166 199.567 286.695 199.834L272.821 207.642L258.946 215.451C257.996 215.987 257.407 216.687 257.31 217.398C257.212 218.108 257.614 218.771 258.427 219.242C259.241 219.711 260.399 219.948 261.647 219.902C262.895 219.855 264.13 219.529 265.082 218.994L278.957 211.185L289.243 205.396L298.039 210.474C299.269 211.184 300.141 212.004 300.675 212.903C301.207 213.799 301.396 214.779 301.261 215.76C301.127 216.741 300.653 217.734 299.866 218.683C299.079 219.627 297.98 220.536 296.549 221.342C295.111 222.151 293.515 222.762 291.842 223.199C290.167 223.635 288.419 223.893 286.698 223.957C284.976 224.021 283.279 223.891 281.71 223.576C280.145 223.262 278.717 222.755 277.484 222.043C277.079 221.81 276.586 221.632 276.031 221.519C275.476 221.405 274.872 221.359 274.252 221.383C273.632 221.407 273.009 221.501 272.418 221.658C271.828 221.816 271.281 222.034 270.81 222.301C269.86 222.837 269.271 223.537 269.174 224.247C269.076 224.958 269.478 225.621 270.291 226.091C272.344 227.277 274.795 228.147 277.47 228.685C280.143 229.222 283.047 229.434 285.978 229.325C288.908 229.216 291.872 228.784 294.717 228.043C297.563 227.301 300.279 226.239 302.685 224.885C305.091 223.531 306.988 221.996 308.326 220.383C309.663 218.771 310.475 217.078 310.704 215.409C310.933 213.74 310.581 212.092 309.673 210.561C308.766 209.032 307.289 207.613 305.232 206.426L293.368 199.576Z" fill="white"/>
<path d="M330.977 180.963L330.983 180.963L330.983 181.105L330.977 180.963Z" fill="#21AD63"/>
<path d="M330.977 180.963L330.983 180.963L330.983 181.105L330.977 180.963Z" fill="#21AD63"/>
<path d="M344.243 196.852L355.245 190.5C358.284 188.745 357.903 185.68 354.394 183.654L345.231 178.364C341.722 176.338 336.413 176.118 333.374 177.873L322.371 184.225C319.332 185.98 319.714 189.045 323.223 191.071L332.385 196.361C335.895 198.387 341.203 198.607 344.243 196.852Z" fill="#28D57A"/>
<path d="M357.282 187.338L357.288 187.338L357.288 187.48L357.282 187.338Z" fill="#21AD63"/>
<path d="M323.223 191.071L332.385 196.361C335.895 198.387 341.203 198.607 344.243 196.852L355.245 190.5C356.552 189.745 357.223 188.748 357.288 187.695L357.288 191.187C357.371 192.373 356.703 193.516 355.245 194.357L344.243 200.71C341.203 202.465 335.895 202.244 332.385 200.219L323.223 194.928C321.409 193.881 320.433 192.557 320.331 191.279L320.329 191.279L320.329 191.252C320.32 191.121 320.32 190.991 320.329 190.861L320.329 187.338L320.332 187.338C320.398 188.641 321.369 190.001 323.223 191.071" fill="#21AD63"/>
<path d="M357.282 187.338L357.288 187.338L357.288 187.48L357.282 187.338Z" fill="#21AD63"/>
<path d="M344.243 196.852L355.245 190.5C356.552 189.745 357.223 188.747 357.288 187.694L357.288 191.187C357.371 192.372 356.703 193.515 355.245 194.357L344.243 200.709L344.243 196.852Z" fill="#21AD63"/>
<path d="M323.223 190.589L332.385 195.879C335.895 197.905 341.203 198.125 344.243 196.371L355.245 190.018C356.525 189.279 357.191 188.307 357.28 187.279C357.386 188.483 356.723 189.647 355.245 190.501L344.243 196.853C341.203 198.607 335.895 198.387 332.385 196.361L323.223 191.071C321.191 189.898 320.216 188.378 320.337 186.965C320.45 188.235 321.421 189.548 323.223 190.589" fill="white"/>
<path d="M319.606 192.397C319.783 192.397 319.927 192.254 319.927 192.076L319.927 186.673L339.053 168.631C339.182 168.51 339.188 168.307 339.065 168.178C338.945 168.048 338.741 168.042 338.612 168.165L319.284 186.396L319.284 192.076C319.284 192.254 319.427 192.397 319.606 192.397" fill="#386FB2"/>
<path d="M336.399 161.683C336.399 160.297 337.378 158.607 338.587 157.91C339.208 157.551 339.769 157.527 340.167 157.775L340.819 158.148L340.391 158.874L340.397 158.996C340.397 160.382 339.418 162.071 338.21 162.769L338.043 162.856L337.69 163.453L337.227 163.169C336.723 163.001 336.399 162.479 336.399 161.683" fill="#7FB7E7"/>
<path d="M337.016 162.04C337.016 163.426 337.996 163.985 339.204 163.287C340.412 162.59 341.391 160.9 341.391 159.514C341.391 158.128 340.412 157.57 339.204 158.267C337.996 158.965 337.016 160.654 337.016 162.04Z" fill="#AED2F0"/>
<path d="M335.078 138.539C335.078 136.552 336.482 134.13 338.214 133.13C339.107 132.615 339.909 132.581 340.48 132.937L341.415 133.471L340.801 134.512C340.803 134.57 340.81 134.626 340.81 134.687C340.81 136.674 339.406 139.095 337.674 140.096C337.593 140.142 337.514 140.181 337.435 140.22L336.93 141.076L336.266 140.67C335.544 140.428 335.079 139.681 335.079 138.539" fill="#7FB7E7"/>
<path d="M335.964 139.051C335.964 141.038 337.368 141.838 339.1 140.839C340.832 139.839 342.236 137.417 342.236 135.43C342.236 133.442 340.832 132.642 339.1 133.642C337.368 134.641 335.964 137.063 335.964 139.051Z" fill="#AED2F0"/>
<path d="M341.231 133.863C342.207 133.863 342.813 134.674 342.813 135.979C342.813 136.101 342.807 136.222 342.8 136.331L341.652 158.955C341.642 160.284 340.669 161.952 339.527 162.612C339.222 162.788 338.924 162.881 338.665 162.881C338.082 162.881 337.73 162.411 337.724 161.622L336.578 140.318C336.567 140.195 336.563 140.08 336.563 139.96C336.563 137.881 338.037 135.339 339.849 134.292C340.335 134.012 340.814 133.863 341.233 133.863L341.231 133.863ZM338.664 163.523C339.042 163.523 339.44 163.404 339.848 163.168C341.185 162.397 342.282 160.514 342.294 158.974L343.44 136.373C343.449 136.259 343.455 136.118 343.455 135.979C343.455 134.303 342.582 133.22 341.23 133.22C340.691 133.22 340.118 133.394 339.526 133.736C337.536 134.885 335.918 137.677 335.918 139.96C335.918 140.1 335.923 140.235 335.936 140.364L337.081 161.642C337.09 162.779 337.711 163.523 338.664 163.523" fill="#386FB2"/>
<path d="M337.787 170.014C338.896 169.374 339.796 168.322 339.796 167.081C339.796 165.387 338.148 166.073 338.148 165.238L338.148 163.462L339.384 162.748L339.384 164.647C340.428 164.468 341.152 165.255 341.015 166.71C340.887 168.072 339.973 169.65 338.85 170.446C337.995 171.052 337.215 171.112 336.704 170.738C336.58 170.648 336.743 170.302 336.913 170.296C337.177 170.287 337.474 170.196 337.787 170.014Z" fill="#17203E"/>
<path d="M338.104 170.144C339.213 169.503 340.113 168.451 340.113 167.21C340.113 165.516 338.464 166.202 338.464 165.368L338.464 163.591L339.701 162.877L339.701 164.776C340.745 164.598 341.469 165.384 341.332 166.839C341.204 168.201 340.29 169.779 339.167 170.575C338.311 171.181 337.532 171.241 337.021 170.867C336.897 170.777 337.06 170.431 337.229 170.425C337.494 170.416 337.79 170.325 338.104 170.144" fill="#23366A"/>
<path d="M336.653 139.401C336.653 137.414 338.057 134.992 339.789 133.992C340.68 133.477 341.483 133.443 342.055 133.799L342.99 134.334L342.376 135.374C342.377 135.432 342.385 135.488 342.385 135.548C342.385 137.536 340.981 139.957 339.249 140.958C339.168 141.004 339.089 141.043 339.01 141.082L338.504 141.938L337.841 141.532C337.118 141.29 336.653 140.543 336.653 139.401" fill="#7FB7E7"/>
<path d="M337.538 139.912C337.538 141.899 338.942 142.7 340.674 141.7C342.406 140.7 343.81 138.279 343.81 136.291C343.81 134.304 342.406 133.503 340.674 134.503C338.942 135.503 337.538 137.924 337.538 139.912" fill="#AED2F0"/>
<path d="M338.932 139.107C338.932 140.211 339.712 140.656 340.674 140.1C341.636 139.545 342.416 138.199 342.416 137.095C342.416 135.991 341.636 135.547 340.674 136.102C339.712 136.657 338.932 138.003 338.932 139.107Z" fill="#23366A"/>
<path d="M337.497 162.285C337.497 160.898 338.477 159.209 339.685 158.512C340.307 158.152 340.867 158.128 341.265 158.376L341.917 158.749L341.489 159.475L341.495 159.597C341.495 160.983 340.515 162.673 339.307 163.37L339.14 163.457L338.788 164.054L338.325 163.771C337.821 163.603 337.496 163.081 337.496 162.285" fill="#7FB7E7"/>
<path d="M338.114 162.641C338.114 164.027 339.094 164.585 340.302 163.888C341.51 163.19 342.489 161.502 342.489 160.115C342.489 158.729 341.51 158.17 340.302 158.868C339.094 159.565 338.114 161.255 338.114 162.641Z" fill="#AED2F0"/>
<path d="M339.087 162.079C339.087 162.849 339.631 163.16 340.302 162.772C340.973 162.385 341.517 161.446 341.517 160.676C341.517 159.906 340.973 159.596 340.302 159.983C339.631 160.37 339.087 161.309 339.087 162.079Z" fill="#23366A"/>
<path d="M338.832 202.706C339.01 202.706 339.154 202.562 339.154 202.384L339.154 168.398C339.154 168.22 339.01 168.077 338.832 168.077C338.654 168.077 338.511 168.221 338.511 168.398L338.511 202.384C338.511 202.562 338.654 202.706 338.832 202.706Z" fill="#386FB2"/>
<path d="M358.008 192.398C358.185 192.398 358.329 192.254 358.329 192.076L358.329 186.396L358.228 186.301L339.001 168.165C338.871 168.042 338.668 168.048 338.547 168.178C338.425 168.307 338.431 168.51 338.559 168.631L357.686 186.673L357.686 192.076C357.686 192.254 357.83 192.397 358.007 192.397" fill="#386FB2"/>
<path d="M420.91 107.165L407.372 99.3812L407.372 96.7563L420.91 104.541L420.91 107.165Z" fill="#386FB2"/>
<path d="M428.861 102.483L420.903 107.164L420.903 104.541L428.861 99.869L428.861 102.483Z" fill="#5191D4"/>
<path d="M428.861 99.869L420.903 104.541L407.372 96.7562L415.345 92.076L428.861 99.869" fill="#7FB7E7"/>
<path d="M420.91 103.845L407.372 96.0614L407.372 93.4365L420.91 101.221L420.91 103.845Z" fill="#386FB2"/>
<path d="M428.861 99.1638L420.903 103.845L420.903 101.221L428.861 96.5492L428.861 99.1638Z" fill="#5191D4"/>
<path d="M428.861 96.5491L420.903 101.221L407.372 93.4363L415.345 88.7561L428.861 96.5491" fill="#7FB7E7"/>
<path d="M420.91 100.608L407.372 92.8243L407.372 90.1995L420.91 97.9841L420.91 100.608" fill="#386FB2"/>
<path d="M428.861 95.9266L420.903 100.608L420.903 97.9838L428.861 93.312L428.861 95.9266Z" fill="#5191D4"/>
<path d="M428.861 93.3122L420.903 97.9839L407.372 90.1994L415.345 85.5192L428.861 93.3122" fill="#7FB7E7"/>
<path d="M420.91 97.2246L407.372 89.4413L407.372 86.8164L420.91 94.6004L420.91 97.2246Z" fill="#386FB2"/>
<path d="M428.861 92.5427L420.903 97.2241L420.903 94.5999L428.861 89.9281L428.861 92.5427Z" fill="#5191D4"/>
<path d="M428.861 89.9283L420.903 94.6001L407.372 86.8155L415.345 82.136L428.861 89.9283" fill="#7FB7E7"/>
<path d="M400.527 204.496L378.16 191.636L378.16 189.581L400.527 202.441L400.527 204.496Z" fill="#386FB2"/>
<path d="M422.57 191.637L400.514 204.497L400.514 202.442L422.57 189.599L422.57 191.637Z" fill="#5191D4"/>
<path d="M422.57 189.597L400.514 202.441L378.16 189.581L400.239 176.723L422.57 189.597" fill="#D6EEFB"/>
<path d="M422.57 189.597L400.514 202.441L378.16 189.581L400.441 202.003L422.57 189.597" fill="white"/>
<path d="M400.462 197.848L386.924 190.065L386.924 187.44L400.462 195.224L400.462 197.848Z" fill="#7FB7E7"/>
<path d="M413.805 190.064L400.455 197.847L400.455 195.224L413.805 187.45L413.805 190.064Z" fill="#AED2F0"/>
<path d="M413.805 187.45L400.455 195.224L386.924 187.439L400.288 179.657L413.805 187.45" fill="#D6EEFB"/>
<path d="M413.805 187.45L400.455 195.224L386.924 187.44L400.411 194.709L413.805 187.45" fill="white"/>
<path d="M392.231 114.252L392.231 115.835L390.85 115.04L390.85 113.457L392.231 114.252Z" fill="#7FB7E7"/>
<path d="M392.227 114.252L392.227 115.835L400.495 111.057L400.495 109.478L392.227 114.252" fill="#AED2F0"/>
<path d="M400.495 109.478L392.227 114.252L390.85 113.458L399.126 108.679L400.495 109.478" fill="#D6EEFB"/>
<path d="M392.231 127.002L392.231 128.585L390.85 127.79L390.85 126.207L392.231 127.002" fill="#7FB7E7"/>
<path d="M392.227 127.002L392.227 128.585L400.495 123.807L400.495 122.228L392.227 127.002" fill="#AED2F0"/>
<path d="M400.495 122.227L392.227 127.001L390.85 126.206L399.126 121.428L400.495 122.227Z" fill="#D6EEFB"/>
<path d="M392.231 139.701L392.231 141.285L390.85 140.49L390.85 138.907L392.231 139.701Z" fill="#7FB7E7"/>
<path d="M392.227 139.702L392.227 141.285L400.495 136.507L400.495 134.928L392.227 139.702Z" fill="#AED2F0"/>
<path d="M400.495 134.928L392.227 139.702L390.85 138.907L399.126 134.129L400.495 134.928Z" fill="#D6EEFB"/>
<path d="M392.231 152.357L392.231 153.94L390.85 153.145L390.85 151.563L392.231 152.357Z" fill="#7FB7E7"/>
<path d="M392.227 152.357L392.227 153.94L400.495 149.162L400.495 147.583L392.227 152.357Z" fill="#AED2F0"/>
<path d="M400.495 147.583L392.227 152.357L390.85 151.563L399.126 146.784L400.495 147.583" fill="#D6EEFB"/>
<path d="M392.231 165.107L392.231 166.69L390.85 165.895L390.85 164.313L392.231 165.107Z" fill="#7FB7E7"/>
<path d="M392.227 165.108L392.227 166.69L400.495 161.912L400.495 160.333L392.227 165.108Z" fill="#AED2F0"/>
<path d="M400.495 160.333L392.227 165.108L390.85 164.313L399.126 159.534L400.495 160.333" fill="#D6EEFB"/>
<path d="M392.231 177.807L392.231 179.39L390.85 178.595L390.85 177.012L392.231 177.807Z" fill="#7FB7E7"/>
<path d="M392.227 177.807L392.227 179.39L400.495 174.612L400.495 173.033L392.227 177.807" fill="#AED2F0"/>
<path d="M400.495 173.033L392.227 177.807L390.85 177.012L399.126 172.234L400.495 173.033" fill="#D6EEFB"/>
<path d="M408.714 101.596L408.714 103.179L410.095 102.384L410.095 100.802L408.714 101.596Z" fill="#7FB7E7"/>
<path d="M408.718 101.596L408.718 103.179L400.45 98.4012L400.45 96.8223L408.718 101.596Z" fill="#7FB7E7"/>
<path d="M400.45 96.8216L408.718 101.596L410.095 100.801L401.82 96.0225L400.45 96.8216" fill="#D6EEFB"/>
<path d="M392.231 101.596L392.231 103.179L390.85 102.384L390.85 100.802L392.231 101.596Z" fill="#7FB7E7"/>
<path d="M392.227 101.596L392.227 103.179L400.495 98.4012L400.495 96.8223L392.227 101.596Z" fill="#AED2F0"/>
<path d="M400.495 96.8216L392.227 101.596L390.85 100.801L399.126 96.0225L400.495 96.8216" fill="#D6EEFB"/>
<path d="M390.848 85.116L390.848 188.305L389.467 187.51L389.467 84.3214L390.848 85.116" fill="#7FB7E7"/>
<path d="M390.844 85.1157L390.844 188.304L392.214 187.51L392.214 84.325L390.844 85.1157" fill="#AED2F0"/>
<path d="M392.214 84.3252L390.844 85.1159L389.467 84.3213L390.844 83.5267L392.214 84.3252" fill="#D6EEFB"/>
<path d="M399.114 107.238L399.114 108.821L400.495 108.027L400.495 106.444L399.114 107.238" fill="#7FB7E7"/>
<path d="M399.118 107.239L399.118 108.822L390.85 104.044L390.85 102.465L399.118 107.239" fill="#7FB7E7"/>
<path d="M390.85 102.465L399.118 107.239L400.495 106.444L392.219 101.666L390.85 102.465" fill="#D6EEFB"/>
<path d="M424.889 86.2255L424.889 87.8083L426.269 87.0137L426.269 85.4309L424.889 86.2255Z" fill="#7FB7E7"/>
<path d="M424.892 86.2261L424.892 87.8088L420.386 85.1004L420.386 83.5215L424.892 86.2261" fill="#7FB7E7"/>
<path d="M420.386 83.5217L424.892 86.2263L426.269 85.4317L421.756 82.7233L420.386 83.5217" fill="#D6EEFB"/>
<path d="M420.39 78.2377L420.39 83.5144L419.009 82.7192L419.009 77.4431L420.39 78.2377Z" fill="#7FB7E7"/>
<path d="M420.386 78.2374L420.386 83.5141L421.755 82.7189L421.755 77.4467L420.386 78.2374Z" fill="#AED2F0"/>
<path d="M421.755 77.4468L420.386 78.2375L419.009 77.443L420.386 76.6477L421.755 77.4468" fill="#D6EEFB"/>
<path d="M330.133 135.846L330.133 137.428L328.753 136.633L328.753 135.05L330.133 135.846Z" fill="#7FB7E7"/>
<path d="M330.13 135.845L330.13 137.428L421.888 84.192L421.888 82.6138L330.13 135.845Z" fill="#AED2F0"/>
<path d="M421.888 82.6139L330.13 135.846L328.753 135.05L420.519 81.8148L421.888 82.6139Z" fill="#D6EEFB"/>
<path d="M408.999 95.372L408.999 96.9554L410.38 96.1602L410.38 94.5774L408.999 95.372Z" fill="#7FB7E7"/>
<path d="M409.002 95.3725L409.002 96.9559L404.496 94.2469L404.496 92.6686L409.002 95.3725" fill="#7FB7E7"/>
<path d="M404.497 92.6679L409.002 95.3718L410.38 94.5772L405.866 91.8688L404.497 92.6679" fill="#D6EEFB"/>
<path d="M404.5 87.4426L404.5 92.7193L403.119 91.9241L403.119 86.6473L404.5 87.4426Z" fill="#7FB7E7"/>
<path d="M404.496 87.4426L404.496 92.7193L405.865 91.9241L405.865 86.6519L404.496 87.4426" fill="#AED2F0"/>
<path d="M405.865 86.6519L404.496 87.4426L403.119 86.6474L404.496 85.8528L405.865 86.6519Z" fill="#D6EEFB"/>
<path d="M416.919 90.8363L416.919 92.419L418.3 91.6244L418.3 90.041L416.919 90.8363Z" fill="#7FB7E7"/>
<path d="M416.923 90.8363L416.923 92.419L412.417 89.7106L412.417 88.1323L416.923 90.8363" fill="#7FB7E7"/>
<path d="M412.417 88.1325L416.923 90.8364L418.3 90.0412L413.786 87.3334L412.417 88.1325" fill="#D6EEFB"/>
<path d="M412.42 82.8475L412.42 88.1236L411.04 87.329L411.04 82.0522L412.42 82.8475Z" fill="#7FB7E7"/>
<path d="M412.416 82.8475L412.416 88.1236L413.786 87.329L413.786 82.0568L412.416 82.8475Z" fill="#AED2F0"/>
<path d="M413.786 82.0568L412.416 82.8475L411.04 82.0523L412.416 81.2577L413.786 82.0568" fill="#D6EEFB"/>
<path d="M353.458 127.618L353.458 129.201L354.839 128.406L354.839 126.823L353.458 127.618Z" fill="#7FB7E7"/>
<path d="M353.461 127.618L353.461 129.201L348.956 126.493L348.956 124.914L353.461 127.618Z" fill="#7FB7E7"/>
<path d="M348.956 124.914L353.462 127.618L354.839 126.823L350.325 124.115L348.956 124.914Z" fill="#D6EEFB"/>
<path d="M348.959 119.689L348.959 124.965L347.579 124.17L347.579 118.893L348.959 119.689" fill="#7FB7E7"/>
<path d="M348.955 119.688L348.955 124.965L350.324 124.17L350.324 118.898L348.955 119.688Z" fill="#AED2F0"/>
<path d="M350.324 118.898L348.955 119.689L347.579 118.893L348.955 118.099L350.324 118.898" fill="#D6EEFB"/>
<path d="M361.379 123.082L361.379 124.664L362.759 123.87L362.759 122.287L361.379 123.082Z" fill="#7FB7E7"/>
<path d="M361.382 123.081L361.382 124.664L356.876 121.956L356.876 120.377L361.382 123.081" fill="#7FB7E7"/>
<path d="M356.876 120.377L361.382 123.081L362.759 122.287L358.245 119.578L356.876 120.377" fill="#D6EEFB"/>
<path d="M356.879 115.152L356.879 120.428L355.499 119.634L355.499 114.357L356.879 115.152Z" fill="#7FB7E7"/>
<path d="M356.875 115.151L356.875 120.428L358.245 119.634L358.245 114.361L356.875 115.151Z" fill="#AED2F0"/>
<path d="M358.245 114.361L356.875 115.152L355.499 114.357L356.875 113.562L358.245 114.361Z" fill="#D6EEFB"/>
<path d="M369.348 118.471L369.348 120.054L370.728 119.26L370.728 117.677L369.348 118.471Z" fill="#7FB7E7"/>
<path d="M369.352 118.471L369.352 120.054L364.846 117.346L364.846 115.767L369.352 118.471" fill="#7FB7E7"/>
<path d="M364.846 115.767L369.352 118.471L370.728 117.677L366.215 114.968L364.846 115.767" fill="#D6EEFB"/>
<path d="M364.849 110.542L364.849 115.818L363.468 115.024L363.468 109.747L364.849 110.542" fill="#7FB7E7"/>
<path d="M364.845 110.542L364.845 115.818L366.214 115.023L366.214 109.751L364.845 110.542Z" fill="#AED2F0"/>
<path d="M366.214 109.751L364.845 110.542L363.468 109.747L364.845 108.952L366.214 109.751" fill="#D6EEFB"/>
<path d="M377.268 113.812L377.268 115.395L378.649 114.6L378.649 113.018L377.268 113.812Z" fill="#7FB7E7"/>
<path d="M377.272 113.813L377.272 115.396L372.766 112.687L372.766 111.108L377.272 113.813Z" fill="#7FB7E7"/>
<path d="M372.766 111.108L377.272 113.813L378.649 113.018L374.135 110.309L372.766 111.108Z" fill="#D6EEFB"/>
<path d="M372.769 105.882L372.769 111.159L371.389 110.364L371.389 105.088L372.769 105.882" fill="#7FB7E7"/>
<path d="M372.765 105.882L372.765 111.159L374.135 110.364L374.135 105.092L372.765 105.882" fill="#AED2F0"/>
<path d="M374.135 105.092L372.765 105.882L371.389 105.088L372.765 104.293L374.135 105.092" fill="#D6EEFB"/>
<path d="M385.238 109.202L385.238 110.785L386.618 109.99L386.618 108.408L385.238 109.202Z" fill="#7FB7E7"/>
<path d="M385.241 109.202L385.241 110.785L380.735 108.076L380.735 106.498L385.241 109.202Z" fill="#7FB7E7"/>
<path d="M380.735 106.498L385.241 109.202L386.618 108.408L382.104 105.699L380.735 106.498" fill="#D6EEFB"/>
<path d="M380.738 101.273L380.738 106.549L379.358 105.754L379.358 100.478L380.738 101.273" fill="#7FB7E7"/>
<path d="M380.735 101.273L380.735 106.549L382.104 105.754L382.104 100.482L380.735 101.273Z" fill="#AED2F0"/>
<path d="M382.104 100.482L380.735 101.273L379.358 100.478L380.735 99.6831L382.104 100.482Z" fill="#D6EEFB"/>
<path d="M393.158 104.667L393.158 106.249L394.538 105.454L394.538 103.871L393.158 104.667Z" fill="#7FB7E7"/>
<path d="M393.162 104.666L393.162 106.249L388.655 103.541L388.655 101.962L393.162 104.666" fill="#7FB7E7"/>
<path d="M388.655 101.962L393.162 104.667L394.538 103.871L390.025 101.163L388.655 101.962" fill="#D6EEFB"/>
<path d="M388.659 96.736L388.659 102.013L387.278 101.218L387.278 95.9414L388.659 96.736Z" fill="#7FB7E7"/>
<path d="M388.655 96.7367L388.655 102.013L390.025 101.218L390.025 95.9459L388.655 96.7367Z" fill="#AED2F0"/>
<path d="M390.025 95.9458L388.655 96.7366L387.278 95.942L388.655 95.1467L390.025 95.9458" fill="#D6EEFB"/>
<path d="M401.127 100.056L401.127 101.639L402.508 100.844L402.508 99.2612L401.127 100.056Z" fill="#7FB7E7"/>
<path d="M401.131 100.056L401.131 101.639L396.625 98.9307L396.625 97.3518L401.131 100.056" fill="#7FB7E7"/>
<path d="M396.625 97.3518L401.131 100.056L402.508 99.2612L397.994 96.5527L396.625 97.3518" fill="#D6EEFB"/>
<path d="M396.628 92.1259L396.628 97.4026L395.248 96.6074L395.248 91.3313L396.628 92.1259Z" fill="#7FB7E7"/>
<path d="M396.624 92.1264L396.624 97.4032L397.994 96.6079L397.994 91.3357L396.624 92.1264Z" fill="#AED2F0"/>
<path d="M397.994 91.3357L396.624 92.1265L395.248 91.3319L396.624 90.5366L397.994 91.3357" fill="#D6EEFB"/>
<path d="M345.489 132.228L345.489 133.811L346.869 133.016L346.869 131.433L345.489 132.228Z" fill="#7FB7E7"/>
<path d="M345.493 132.228L345.493 133.811L340.986 131.102L340.986 129.524L345.493 132.228" fill="#7FB7E7"/>
<path d="M340.986 129.524L345.492 132.228L346.869 131.433L342.356 128.725L340.986 129.524" fill="#D6EEFB"/>
<path d="M335.945 139.303L335.945 140.885L334.564 140.09L334.564 138.507L335.945 139.303Z" fill="#7FB7E7"/>
<path d="M335.941 139.303L335.941 140.885L427.602 87.7475L427.602 86.1686L335.941 139.303Z" fill="#AED2F0"/>
<path d="M427.602 86.1687L335.941 139.303L334.564 138.507L426.232 85.3696L427.602 86.1687" fill="#D6EEFB"/>
<path d="M340.99 124.299L340.99 129.575L339.609 128.78L339.609 123.503L340.99 124.299" fill="#7FB7E7"/>
<path d="M340.986 124.298L340.986 129.575L342.355 128.78L342.355 123.508L340.986 124.298Z" fill="#AED2F0"/>
<path d="M342.355 123.508L340.986 124.299L339.609 123.503L340.986 122.709L342.355 123.508" fill="#D6EEFB"/>
<path d="M336.386 125.399L336.386 126.982L335.006 126.187L335.006 124.604L336.386 125.399Z" fill="#7FB7E7"/>
<path d="M336.383 125.399L336.383 126.982L421.791 77.3751L421.791 75.7961L336.383 125.399Z" fill="#AED2F0"/>
<path d="M421.791 75.7962L336.383 125.399L335.006 124.604L420.421 74.9971L421.791 75.7962" fill="#D6EEFB"/>
<path d="M334.638 138.518L334.638 140.101L336.018 139.306L336.018 137.723L334.638 138.518Z" fill="#7FB7E7"/>
<path d="M334.641 138.518L334.641 140.101L330.135 137.392L330.135 135.814L334.641 138.518" fill="#7FB7E7"/>
<path d="M330.135 135.814L334.641 138.518L336.018 137.723L331.505 135.015L330.135 135.814Z" fill="#D6EEFB"/>
<path d="M336.405 125.418L330.133 135.84L328.752 135.045L335.024 124.624L336.405 125.418" fill="#7FB7E7"/>
<path d="M336.401 125.419L330.129 135.84L331.498 135.045L337.77 124.628L336.401 125.419Z" fill="#AED2F0"/>
<path d="M340.51 133.462L418.512 88.1394L418.19 87.5826L340.187 132.906L340.51 133.462" fill="#386FB2"/>
<path d="M346.819 127.737L346.819 133.014L345.439 132.219L345.439 126.943L346.819 127.737Z" fill="#7FB7E7"/>
<path d="M346.816 127.738L346.816 133.015L348.186 132.219L348.186 126.947L346.816 127.738Z" fill="#AED2F0"/>
<path d="M348.186 126.947L346.816 127.738L345.439 126.943L346.816 126.148L348.186 126.947" fill="#D6EEFB"/>
<path d="M345.489 125.423L345.489 127.006L346.869 126.211L346.869 124.628L345.489 125.423Z" fill="#7FB7E7"/>
<path d="M345.493 125.424L345.493 127.007L340.986 124.298L340.986 122.719L345.493 125.424Z" fill="#7FB7E7"/>
<path d="M340.986 122.719L345.492 125.423L346.869 124.628L342.356 121.919L340.986 122.719" fill="#D6EEFB"/>
<path d="M354.789 123.127L354.789 128.404L353.408 127.609L353.408 122.332L354.789 123.127Z" fill="#7FB7E7"/>
<path d="M354.785 123.127L354.785 128.404L356.154 127.609L356.154 122.337L354.785 123.127Z" fill="#AED2F0"/>
<path d="M356.154 122.337L354.785 123.127L353.408 122.332L354.785 121.538L356.154 122.337Z" fill="#D6EEFB"/>
<path d="M353.458 120.813L353.458 122.396L354.839 121.601L354.839 120.018L353.458 120.813" fill="#7FB7E7"/>
<path d="M353.461 120.814L353.461 122.397L348.956 119.688L348.956 118.109L353.461 120.814Z" fill="#7FB7E7"/>
<path d="M348.956 118.109L353.462 120.813L354.839 120.018L350.325 117.309L348.956 118.109Z" fill="#D6EEFB"/>
<path d="M362.709 118.591L362.709 123.867L361.328 123.072L361.328 117.796L362.709 118.591" fill="#7FB7E7"/>
<path d="M362.705 118.591L362.705 123.868L364.075 123.073L364.075 117.801L362.705 118.591Z" fill="#AED2F0"/>
<path d="M364.075 117.801L362.705 118.591L361.328 117.797L362.705 117.001L364.075 117.801" fill="#D6EEFB"/>
<path d="M361.379 116.276L361.379 117.86L362.759 117.064L362.759 115.482L361.379 116.276" fill="#7FB7E7"/>
<path d="M361.382 116.277L361.382 117.86L356.876 115.151L356.876 113.573L361.382 116.277" fill="#7FB7E7"/>
<path d="M356.876 113.573L361.382 116.277L362.759 115.482L358.245 112.774L356.876 113.573" fill="#D6EEFB"/>
<path d="M370.678 113.981L370.678 119.257L369.298 118.462L369.298 113.186L370.678 113.981" fill="#7FB7E7"/>
<path d="M370.675 113.981L370.675 119.258L372.045 118.463L372.045 113.19L370.675 113.981Z" fill="#AED2F0"/>
<path d="M372.045 113.19L370.675 113.981L369.298 113.187L370.675 112.391L372.045 113.19" fill="#D6EEFB"/>
<path d="M369.348 111.667L369.348 113.249L370.728 112.454L370.728 110.871L369.348 111.667Z" fill="#7FB7E7"/>
<path d="M369.352 111.667L369.352 113.25L364.846 110.542L364.846 108.963L369.352 111.667Z" fill="#7FB7E7"/>
<path d="M364.846 108.963L369.352 111.668L370.728 110.872L366.215 108.164L364.846 108.963" fill="#D6EEFB"/>
<path d="M378.599 109.322L378.599 114.599L377.219 113.804L377.219 108.528L378.599 109.322Z" fill="#7FB7E7"/>
<path d="M378.596 109.322L378.596 114.599L379.965 113.804L379.965 108.531L378.596 109.322Z" fill="#AED2F0"/>
<path d="M379.965 108.531L378.596 109.322L377.218 108.528L378.596 107.732L379.965 108.531" fill="#D6EEFB"/>
<path d="M377.268 107.008L377.268 108.591L378.649 107.796L378.649 106.213L377.268 107.008" fill="#7FB7E7"/>
<path d="M377.272 107.008L377.272 108.591L372.766 105.882L372.766 104.304L377.272 107.008Z" fill="#7FB7E7"/>
<path d="M372.766 104.304L377.272 107.008L378.649 106.213L374.135 103.505L372.766 104.304" fill="#D6EEFB"/>
<path d="M386.569 104.712L386.569 109.989L385.188 109.194L385.188 103.918L386.569 104.712Z" fill="#7FB7E7"/>
<path d="M386.565 104.712L386.565 109.989L387.934 109.194L387.934 103.921L386.565 104.712" fill="#AED2F0"/>
<path d="M387.934 103.921L386.565 104.712L385.188 103.917L386.565 103.122L387.934 103.921" fill="#D6EEFB"/>
<path d="M385.238 102.398L385.238 103.981L386.618 103.186L386.618 101.603L385.238 102.398Z" fill="#7FB7E7"/>
<path d="M385.241 102.398L385.241 103.981L380.735 101.272L380.735 99.6937L385.241 102.398" fill="#7FB7E7"/>
<path d="M380.735 99.6938L385.241 102.398L386.618 101.603L382.104 98.8947L380.735 99.6938" fill="#D6EEFB"/>
<path d="M394.489 100.176L394.489 105.452L393.109 104.657L393.109 99.3805L394.489 100.176Z" fill="#7FB7E7"/>
<path d="M394.485 100.176L394.485 105.452L395.854 104.657L395.854 99.3849L394.485 100.176" fill="#AED2F0"/>
<path d="M395.854 99.3849L394.485 100.176L393.109 99.3804L394.485 98.5858L395.854 99.3849" fill="#D6EEFB"/>
<path d="M393.158 97.8616L393.158 99.4444L394.538 98.6498L394.538 97.067L393.158 97.8616Z" fill="#7FB7E7"/>
<path d="M393.162 97.8613L393.162 99.4441L388.655 96.7357L388.655 95.1567L393.162 97.8613" fill="#7FB7E7"/>
<path d="M388.655 95.1567L393.162 97.8612L394.538 97.0667L390.025 94.3575L388.655 95.1567" fill="#D6EEFB"/>
<path d="M402.459 95.5657L402.459 100.842L401.078 100.047L401.078 94.7705L402.459 95.5657" fill="#7FB7E7"/>
<path d="M402.455 95.5656L402.455 100.842L403.824 100.047L403.824 94.7749L402.455 95.5656" fill="#AED2F0"/>
<path d="M403.824 94.7749L402.455 95.5657L401.078 94.7704L402.455 93.9758L403.824 94.7749Z" fill="#D6EEFB"/>
<path d="M401.127 93.2516L401.127 94.8344L402.508 94.0398L402.508 92.457L401.127 93.2516Z" fill="#7FB7E7"/>
<path d="M401.131 93.2514L401.131 94.8342L396.625 92.1258L396.625 90.5475L401.131 93.2514" fill="#7FB7E7"/>
<path d="M396.625 90.5474L401.131 93.2513L402.508 92.4567L397.994 89.7483L396.625 90.5474" fill="#D6EEFB"/>
<path d="M410.329 90.882L410.329 96.1587L408.949 95.3635L408.949 90.0874L410.329 90.882" fill="#7FB7E7"/>
<path d="M410.326 90.8819L410.326 96.1586L411.695 95.3634L411.695 90.0918L410.326 90.8819Z" fill="#AED2F0"/>
<path d="M411.695 90.0919L410.326 90.882L408.949 90.0874L410.326 89.2928L411.695 90.0919" fill="#D6EEFB"/>
<path d="M408.999 88.5681L408.999 90.1508L410.38 89.3556L410.38 87.7728L408.999 88.5681" fill="#7FB7E7"/>
<path d="M409.002 88.568L409.002 90.1507L404.496 87.4423L404.496 85.8634L409.002 88.568" fill="#7FB7E7"/>
<path d="M404.497 85.8634L409.002 88.568L410.38 87.7728L405.866 85.0643L404.497 85.8634" fill="#D6EEFB"/>
<path d="M418.25 86.2861L418.25 91.5628L416.869 90.7682L416.869 85.4915L418.25 86.2861Z" fill="#7FB7E7"/>
<path d="M418.246 86.2861L418.246 91.5628L419.616 90.7682L419.616 85.496L418.246 86.2861Z" fill="#AED2F0"/>
<path d="M419.616 85.496L418.246 86.2861L416.869 85.4915L418.246 84.6969L419.616 85.496" fill="#D6EEFB"/>
<path d="M416.919 84.0313L416.919 85.6147L418.3 84.8194L418.3 83.2367L416.919 84.0313" fill="#7FB7E7"/>
<path d="M416.923 84.0311L416.923 85.6145L412.417 82.9054L412.417 81.3271L416.923 84.0311" fill="#7FB7E7"/>
<path d="M412.417 81.3272L416.923 84.0311L418.3 83.2365L413.786 80.5281L412.417 81.3272Z" fill="#D6EEFB"/>
<path d="M426.219 81.6766L426.219 86.9527L424.839 86.1581L424.839 80.8813L426.219 81.6766Z" fill="#7FB7E7"/>
<path d="M426.216 81.6766L426.216 86.9527L427.585 86.1581L427.585 80.8859L426.216 81.6766Z" fill="#AED2F0"/>
<path d="M427.585 80.8858L426.216 81.6765L424.839 80.8813L426.216 80.0867L427.585 80.8858" fill="#D6EEFB"/>
<path d="M424.889 79.3044L424.889 80.8872L426.269 80.0919L426.269 78.5092L424.889 79.3044Z" fill="#7FB7E7"/>
<path d="M424.892 79.3042L424.892 80.887L420.386 78.1779L420.386 76.5996L424.892 79.3042" fill="#7FB7E7"/>
<path d="M420.386 76.5996L424.892 79.3042L426.269 78.509L421.756 75.8005L420.386 76.5996" fill="#D6EEFB"/>
<path d="M342.198 128.856L342.198 130.439L340.817 129.644L340.817 128.061L342.198 128.856Z" fill="#7FB7E7"/>
<path d="M342.194 128.857L342.194 130.439L427.602 80.8328L427.602 79.2539L342.194 128.857Z" fill="#AED2F0"/>
<path d="M427.602 79.2539L342.194 128.857L340.817 128.061L426.232 78.4548L427.602 79.2539" fill="#D6EEFB"/>
<path d="M342.204 128.87L335.908 139.353L334.527 138.558L340.823 128.075L342.204 128.87Z" fill="#7FB7E7"/>
<path d="M342.2 128.87L335.904 139.353L337.273 138.558L343.57 128.08L342.2 128.87Z" fill="#AED2F0"/>
<path d="M400.448 74.2795L400.448 182.747L399.067 181.951L399.067 73.4843L400.448 74.2795" fill="#7FB7E7"/>
<path d="M400.444 74.2795L400.444 182.747L401.813 181.951L401.813 73.4888L400.444 74.2795" fill="#AED2F0"/>
<path d="M401.813 73.4888L400.444 74.2795L399.067 73.4843L400.444 72.6897L401.813 73.4888" fill="#D6EEFB"/>
<path d="M408.714 114.252L408.714 115.835L410.095 115.04L410.095 113.457L408.714 114.252Z" fill="#7FB7E7"/>
<path d="M408.718 114.252L408.718 115.835L400.45 111.057L400.45 109.478L408.718 114.252" fill="#7FB7E7"/>
<path d="M400.45 109.478L408.718 114.252L410.095 113.458L401.82 108.679L400.45 109.478" fill="#D6EEFB"/>
<path d="M408.714 127.002L408.714 128.585L410.095 127.79L410.095 126.207L408.714 127.002" fill="#7FB7E7"/>
<path d="M408.718 127.002L408.718 128.585L400.45 123.807L400.45 122.228L408.718 127.002" fill="#7FB7E7"/>
<path d="M400.45 122.227L408.718 127.001L410.095 126.206L401.82 121.428L400.45 122.227Z" fill="#D6EEFB"/>
<path d="M408.714 139.701L408.714 141.285L410.095 140.49L410.095 138.907L408.714 139.701Z" fill="#7FB7E7"/>
<path d="M408.718 139.702L408.718 141.285L400.45 136.507L400.45 134.928L408.718 139.702Z" fill="#7FB7E7"/>
<path d="M400.45 134.928L408.718 139.702L410.095 138.907L401.82 134.129L400.45 134.928Z" fill="#D6EEFB"/>
<path d="M408.714 152.357L408.714 153.94L410.095 153.145L410.095 151.563L408.714 152.357Z" fill="#7FB7E7"/>
<path d="M408.718 152.357L408.718 153.94L400.45 149.162L400.45 147.583L408.718 152.357Z" fill="#7FB7E7"/>
<path d="M400.45 147.583L408.718 152.357L410.095 151.563L401.82 146.784L400.45 147.583" fill="#D6EEFB"/>
<path d="M408.714 165.107L408.714 166.69L410.095 165.895L410.095 164.313L408.714 165.107Z" fill="#7FB7E7"/>
<path d="M408.718 165.108L408.718 166.69L400.45 161.912L400.45 160.333L408.718 165.108Z" fill="#7FB7E7"/>
<path d="M400.45 160.333L408.718 165.108L410.095 164.313L401.82 159.534L400.45 160.333" fill="#D6EEFB"/>
<path d="M408.714 177.807L408.714 179.39L410.095 178.595L410.095 177.012L408.714 177.807Z" fill="#7FB7E7"/>
<path d="M408.718 177.807L408.718 179.39L400.45 174.612L400.45 173.033L408.718 177.807" fill="#7FB7E7"/>
<path d="M400.45 173.033L408.718 177.807L410.095 177.012L401.82 172.234L400.45 173.033" fill="#D6EEFB"/>
<path d="M410.091 79.7174L410.091 188.318L408.711 187.524L408.711 78.9229L410.091 79.7174" fill="#7FB7E7"/>
<path d="M410.088 79.7171L410.088 188.318L411.457 187.523L411.457 78.9264L410.088 79.7171" fill="#AED2F0"/>
<path d="M411.457 78.9265L410.088 79.7173L408.711 78.9227L410.088 78.1274L411.457 78.9265" fill="#D6EEFB"/>
<path d="M401.83 183.449L401.83 185.032L400.45 184.237L400.45 182.655L401.83 183.449Z" fill="#7FB7E7"/>
<path d="M401.826 183.449L401.826 185.032L410.095 180.254L410.095 178.675L401.826 183.449Z" fill="#AED2F0"/>
<path d="M410.095 178.675L401.826 183.449L400.45 182.655L408.725 177.876L410.095 178.675Z" fill="#D6EEFB"/>
<path d="M401.83 181.842L401.83 183.425L400.45 182.63L400.45 181.047L401.83 181.842Z" fill="#7FB7E7"/>
<path d="M401.827 181.842L401.827 183.425L410.095 169.238L410.095 167.66L401.827 181.842" fill="#AED2F0"/>
<path d="M410.095 167.66L401.827 181.842L400.45 181.048L408.725 166.861L410.095 167.66Z" fill="#D6EEFB"/>
<path d="M401.83 170.749L401.83 172.332L400.45 171.538L400.45 169.954L401.83 170.749" fill="#7FB7E7"/>
<path d="M401.827 170.75L401.827 172.333L410.095 167.554L410.095 165.976L401.827 170.75Z" fill="#AED2F0"/>
<path d="M410.095 165.976L401.827 170.75L400.45 169.955L408.725 165.177L410.095 165.976Z" fill="#D6EEFB"/>
<path d="M399.114 183.449L399.114 185.032L400.495 184.237L400.495 182.655L399.114 183.449Z" fill="#7FB7E7"/>
<path d="M399.118 183.449L399.118 185.032L390.85 180.254L390.85 178.675L399.118 183.449Z" fill="#7FB7E7"/>
<path d="M390.85 178.675L399.118 183.449L400.495 182.655L392.219 177.876L390.85 178.675Z" fill="#D6EEFB"/>
<path d="M399.114 183.449L399.114 185.032L400.495 184.237L400.495 182.655L399.114 183.449Z" fill="#7FB7E7"/>
<path d="M399.118 183.449L399.118 185.032L390.85 169.185L390.85 167.606L399.118 183.449" fill="#7FB7E7"/>
<path d="M390.85 167.606L399.118 183.449L400.495 182.654L392.219 166.807L390.85 167.606Z" fill="#D6EEFB"/>
<path d="M399.114 170.749L399.114 172.332L400.495 171.538L400.495 169.954L399.114 170.749" fill="#7FB7E7"/>
<path d="M399.118 170.75L399.118 172.333L390.85 167.554L390.85 165.976L399.118 170.75Z" fill="#7FB7E7"/>
<path d="M390.85 165.976L399.118 170.75L400.495 169.955L392.219 165.177L390.85 165.976Z" fill="#D6EEFB"/>
<path d="M399.114 169.225L399.114 170.808L400.495 170.014L400.495 168.431L399.114 169.225Z" fill="#7FB7E7"/>
<path d="M399.118 169.225L399.118 170.808L390.85 154.961L390.85 153.382L399.118 169.225" fill="#7FB7E7"/>
<path d="M390.85 153.382L399.118 169.225L400.495 168.431L392.219 152.583L390.85 153.382Z" fill="#D6EEFB"/>
<path d="M399.114 158L399.114 159.583L400.495 158.789L400.495 157.206L399.114 158Z" fill="#7FB7E7"/>
<path d="M399.118 158.001L399.118 159.583L390.85 154.805L390.85 153.227L399.118 158.001" fill="#7FB7E7"/>
<path d="M390.85 153.226L399.118 158L400.495 157.205L392.219 152.427L390.85 153.226" fill="#D6EEFB"/>
<path d="M401.83 119.895L401.83 121.478L400.45 120.683L400.45 119.101L401.83 119.895Z" fill="#7FB7E7"/>
<path d="M401.827 119.894L401.827 121.477L410.095 116.699L410.095 115.12L401.827 119.894" fill="#AED2F0"/>
<path d="M410.095 115.121L401.827 119.895L400.45 119.1L408.725 114.321L410.095 115.121" fill="#D6EEFB"/>
<path d="M399.114 119.895L399.114 121.478L400.495 120.683L400.495 119.101L399.114 119.895Z" fill="#7FB7E7"/>
<path d="M399.118 119.894L399.118 121.477L390.85 116.699L390.85 115.12L399.118 119.894" fill="#7FB7E7"/>
<path d="M390.85 115.12L399.118 119.894L400.495 119.1L392.219 114.321L390.85 115.12" fill="#D6EEFB"/>
<path d="M401.83 107.238L401.83 108.821L400.45 108.027L400.45 106.444L401.83 107.238" fill="#7FB7E7"/>
<path d="M401.827 107.239L401.827 108.822L410.095 104.044L410.095 102.465L401.827 107.239" fill="#AED2F0"/>
<path d="M410.095 102.465L401.827 107.239L400.45 106.444L408.725 101.666L410.095 102.465" fill="#D6EEFB"/>
<path d="M397.085 74.6651L397.085 76.2478L395.704 75.4532L395.704 73.8705L397.085 74.6651Z" fill="#7FB7E7"/>
<path d="M397.081 74.665L397.081 76.2478L401.879 73.378L401.879 71.7991L397.081 74.665" fill="#AED2F0"/>
<path d="M401.879 71.7991L397.081 74.665L395.704 73.8705L400.509 71L401.879 71.7991Z" fill="#D6EEFB"/>
<path d="M397.103 74.6846L390.831 85.1063L389.451 84.3117L395.722 73.89L397.103 74.6846Z" fill="#7FB7E7"/>
<path d="M397.099 74.6846L390.828 85.1063L392.197 84.3117L398.469 73.8945L397.099 74.6846" fill="#AED2F0"/>
<path d="M408.714 77.4252L408.714 79.008L410.095 78.2134L410.095 76.6306L408.714 77.4252Z" fill="#7FB7E7"/>
<path d="M408.718 77.4255L408.718 79.0083L400.45 74.2304L400.45 72.6515L408.718 77.4255Z" fill="#7FB7E7"/>
<path d="M400.45 72.6515L408.718 77.4255L410.095 76.6309L401.82 71.8524L400.45 72.6515" fill="#D6EEFB"/>
<path d="M399.152 89.8817L399.152 91.4645L400.532 90.6699L400.532 89.0872L399.152 89.8817Z" fill="#7FB7E7"/>
<path d="M399.155 89.8811L399.155 91.4638L390.887 86.6859L390.887 85.1071L399.155 89.8811Z" fill="#7FB7E7"/>
<path d="M390.887 85.1072L399.155 89.8812L400.532 89.0866L392.257 84.3081L390.887 85.1072" fill="#D6EEFB"/>
<path d="M399.114 156.449L399.114 158.031L400.495 157.237L400.495 155.654L399.114 156.449Z" fill="#7FB7E7"/>
<path d="M399.118 156.449L399.118 158.031L390.85 142.184L390.85 140.605L399.118 156.449Z" fill="#7FB7E7"/>
<path d="M390.85 140.606L399.118 156.449L400.495 155.654L392.219 139.806L390.85 140.606" fill="#D6EEFB"/>
<path d="M399.114 145.344L399.114 146.927L400.495 146.132L400.495 144.549L399.114 145.344Z" fill="#7FB7E7"/>
<path d="M399.118 145.344L399.118 146.927L390.85 142.149L390.85 140.57L399.118 145.344Z" fill="#7FB7E7"/>
<path d="M390.85 140.57L399.118 145.344L400.495 144.549L392.219 139.771L390.85 140.57Z" fill="#D6EEFB"/>
<path d="M399.114 143.779L399.114 145.361L400.495 144.567L400.495 142.984L399.114 143.779Z" fill="#7FB7E7"/>
<path d="M399.118 143.779L399.118 145.361L390.85 129.514L390.85 127.936L399.118 143.779Z" fill="#7FB7E7"/>
<path d="M390.85 127.936L399.118 143.779L400.495 142.984L392.219 127.136L390.85 127.936Z" fill="#D6EEFB"/>
<path d="M399.114 132.644L399.114 134.227L400.495 133.432L400.495 131.849L399.114 132.644Z" fill="#7FB7E7"/>
<path d="M399.118 132.644L399.118 134.227L390.85 129.449L390.85 127.87L399.118 132.644Z" fill="#7FB7E7"/>
<path d="M390.85 127.871L399.118 132.645L400.495 131.849L392.219 127.071L390.85 127.871Z" fill="#D6EEFB"/>
<path d="M399.114 131.189L399.114 132.772L400.495 131.977L400.495 130.394L399.114 131.189Z" fill="#7FB7E7"/>
<path d="M399.118 131.189L399.118 132.771L390.85 116.924L390.85 115.345L399.118 131.189Z" fill="#7FB7E7"/>
<path d="M390.85 115.346L399.118 131.189L400.495 130.393L392.219 114.547L390.85 115.346Z" fill="#D6EEFB"/>
<path d="M401.83 169.145L401.83 170.728L400.45 169.934L400.45 168.351L401.83 169.145Z" fill="#7FB7E7"/>
<path d="M401.827 169.146L401.827 170.728L410.095 156.542L410.095 154.964L401.827 169.146" fill="#AED2F0"/>
<path d="M410.095 154.964L401.827 169.146L400.45 168.351L408.725 154.165L410.095 154.964Z" fill="#D6EEFB"/>
<path d="M401.83 158L401.83 159.583L400.45 158.789L400.45 157.206L401.83 158Z" fill="#7FB7E7"/>
<path d="M401.827 158.001L401.827 159.583L410.095 154.805L410.095 153.227L401.827 158.001" fill="#AED2F0"/>
<path d="M410.095 153.226L401.827 158L400.45 157.205L408.725 152.427L410.095 153.226" fill="#D6EEFB"/>
<path d="M401.83 156.449L401.83 158.031L400.45 157.237L400.45 155.654L401.83 156.449Z" fill="#7FB7E7"/>
<path d="M401.827 156.449L401.827 158.031L410.095 143.845L410.095 142.267L401.827 156.449" fill="#AED2F0"/>
<path d="M410.095 142.266L401.827 156.448L400.45 155.653L408.725 141.467L410.095 142.266Z" fill="#D6EEFB"/>
<path d="M401.83 145.344L401.83 146.927L400.45 146.132L400.45 144.549L401.83 145.344Z" fill="#7FB7E7"/>
<path d="M401.827 145.344L401.827 146.927L410.095 142.149L410.095 140.57L401.827 145.344Z" fill="#AED2F0"/>
<path d="M410.095 140.57L401.827 145.344L400.45 144.549L408.725 139.771L410.095 140.57Z" fill="#D6EEFB"/>
<path d="M401.83 143.751L401.83 145.334L400.45 144.539L400.45 142.956L401.83 143.751Z" fill="#7FB7E7"/>
<path d="M401.827 143.751L401.827 145.334L410.095 131.147L410.095 129.569L401.827 143.751" fill="#AED2F0"/>
<path d="M410.095 129.569L401.827 143.751L400.45 142.957L408.725 128.77L410.095 129.569" fill="#D6EEFB"/>
<path d="M401.83 132.644L401.83 134.227L400.45 133.432L400.45 131.849L401.83 132.644Z" fill="#7FB7E7"/>
<path d="M401.827 132.644L401.827 134.227L410.095 129.449L410.095 127.87L401.827 132.644Z" fill="#AED2F0"/>
<path d="M410.095 127.871L401.827 132.645L400.45 131.849L408.725 127.071L410.095 127.871Z" fill="#D6EEFB"/>
<path d="M401.83 131.108L401.83 132.691L400.45 131.896L400.45 130.313L401.83 131.108Z" fill="#7FB7E7"/>
<path d="M401.827 131.108L401.827 132.691L410.095 118.505L410.095 116.926L401.827 131.108Z" fill="#AED2F0"/>
<path d="M410.095 116.926L401.827 131.108L400.45 130.313L408.725 116.127L410.095 116.926Z" fill="#D6EEFB"/>
<path d="M400.448 90.703L400.448 193.888L399.067 193.093L399.067 89.9084L400.448 90.703" fill="#7FB7E7"/>
<path d="M400.444 90.7027L400.444 193.888L401.813 193.093L401.813 89.912L400.444 90.7027Z" fill="#AED2F0"/>
<path d="M401.813 89.9121L400.444 90.7029L399.067 89.9083L400.444 89.113L401.813 89.9121" fill="#D6EEFB"/>
<path d="M399.018 124.021L416.415 113.977L416.415 96.5615L404.898 103.211L399.018 118.661L399.018 124.021Z" fill="#AED2F0"/>
<path d="M399.018 118.66L399.018 124.02L388.119 117.801L388.119 112.44L399.018 118.66Z" fill="#7FB7E7"/>
<path d="M393.998 96.9913L404.898 103.211L399.018 118.661L388.119 112.441L393.998 96.9913" fill="#7FB7E7"/>
<path d="M404.17 105.125L399.018 118.661L388.119 112.441L393.295 98.8396L404.17 105.125Z" fill="#17203E"/>
<path d="M388.119 112.441L397.123 101.052L400.833 103.196L388.119 112.441Z" fill="#23366A"/>
<path d="M405.515 90.3418L416.415 96.5616L404.898 103.211L393.998 96.9911L405.515 90.3418Z" fill="#D6EEFB"/>
<path d="M404.902 102.777L416.415 96.5615L404.898 103.211L393.998 96.991L404.902 102.777" fill="white"/>
<path d="M412.111 100.531L412.111 111.134L399.018 118.693L399.018 118.661L404.174 105.113L412.111 100.531" fill="#23366A"/>
<path d="M411.709 111.014L411.709 100.762L412.111 100.531L412.111 111.134L399.018 118.692L399.018 118.661L399.175 118.25L411.709 111.014" fill="#17203E"/>
<path d="M405.339 79.4346L405.339 81.0174L406.72 80.2228L406.72 78.64L405.339 79.4346Z" fill="#7FB7E7"/>
<path d="M405.343 79.4347L405.343 81.0175L397.075 76.2396L397.075 74.6606L405.343 79.4347Z" fill="#7FB7E7"/>
<path d="M397.075 74.6607L405.343 79.4347L406.72 78.6401L398.444 73.8616L397.075 74.6607" fill="#D6EEFB"/>
<path d="M406.646 80.2122L406.646 81.795L405.266 81.0004L405.266 79.4176L406.646 80.2122Z" fill="#7FB7E7"/>
<path d="M406.643 80.2121L406.643 81.7949L411.44 78.9251L411.44 77.3462L406.643 80.2121" fill="#AED2F0"/>
<path d="M411.44 77.3463L406.642 80.2122L405.266 79.4176L410.071 76.5471L411.44 77.3463Z" fill="#D6EEFB"/>
<path d="M406.653 80.2253L400.356 90.7081L398.975 89.9135L405.272 79.4301L406.653 80.2253Z" fill="#7FB7E7"/>
<path d="M406.649 80.2253L400.352 90.7081L401.722 89.9135L408.018 79.4346L406.649 80.2253Z" fill="#AED2F0"/>
<path d="M521.327 210.616C520.992 209.556 520.064 208.502 518.566 207.638L509.404 202.348C508.181 201.642 506.74 201.155 505.252 200.895C505.588 201.955 506.515 203.009 508.013 203.874L517.176 209.163C518.398 209.869 519.84 210.356 521.327 210.616" fill="#DCE7F2"/>
<path d="M529.032 204.137L540.035 197.785C543.074 196.03 542.693 192.965 539.184 190.939L530.021 185.649C526.512 183.623 521.203 183.403 518.164 185.158L507.161 191.51C504.123 193.264 504.503 196.33 508.013 198.355L517.176 203.646C520.684 205.671 525.993 205.892 529.032 204.137" fill="#7FB7E7"/>
<path d="M542.072 194.623L542.077 194.623L542.077 194.765L542.072 194.623Z" fill="#21AD63"/>
<path d="M508.013 198.356L517.176 203.646C520.684 205.672 525.993 205.892 529.032 204.137L540.035 197.785C541.343 197.03 542.013 196.032 542.077 194.979L542.077 198.473C542.162 199.657 541.492 200.8 540.035 201.643L529.032 207.995C525.993 209.749 520.684 209.529 517.176 207.503L508.013 202.213C506.199 201.166 505.223 199.841 505.121 198.564L505.119 198.564L505.119 198.537C505.11 198.406 505.11 198.276 505.119 198.146L505.119 194.623L505.123 194.623C505.188 195.927 506.159 197.286 508.012 198.356" fill="#386FB2"/>
<path d="M542.072 194.623L542.077 194.623L542.077 194.765L542.072 194.623Z" fill="#21AD63"/>
<path d="M529.032 204.137L540.035 197.784C541.343 197.03 542.013 196.032 542.077 194.979L542.077 198.472C542.162 199.657 541.492 200.8 540.035 201.642L529.032 207.995L529.032 204.137" fill="#5191D4"/>
<path d="M508.013 197.873L517.176 203.163C520.684 205.189 525.993 205.409 529.032 203.654L540.035 197.302C541.315 196.563 541.98 195.591 542.069 194.563C542.176 195.766 541.514 196.93 540.035 197.784L529.032 204.136C525.993 205.891 520.684 205.671 517.176 203.645L508.013 198.355C505.981 197.182 505.005 195.662 505.127 194.248C505.24 195.519 506.211 196.833 508.013 197.873Z" fill="#D6EEFB"/>
<path d="M529.032 198.705L540.035 192.352C543.074 190.598 542.693 187.533 539.184 185.507L530.021 180.217C526.512 178.19 521.203 177.97 518.164 179.726L507.161 186.078C504.123 187.832 504.503 190.897 508.013 192.923L517.176 198.213C520.684 200.239 525.993 200.46 529.032 198.705" fill="#7FB7E7"/>
<path d="M542.072 189.191L542.077 189.191L542.077 189.333L542.072 189.191Z" fill="#21AD63"/>
<path d="M508.013 192.923L517.176 198.213C520.684 200.239 525.993 200.46 529.032 198.705L540.035 192.352C541.343 191.598 542.013 190.6 542.077 189.547L542.077 193.04C542.162 194.225 541.492 195.368 540.035 196.21L529.032 202.562C525.993 204.317 520.684 204.097 517.176 202.071L508.013 196.78C506.199 195.734 505.223 194.409 505.121 193.131L505.119 193.131L505.119 193.105C505.11 192.974 505.11 192.843 505.119 192.714L505.119 189.191L505.123 189.191C505.188 190.494 506.159 191.853 508.012 192.923" fill="#386FB2"/>
<path d="M542.072 189.191L542.077 189.191L542.077 189.333L542.072 189.191Z" fill="#21AD63"/>
<path d="M529.032 198.704L540.035 192.352C541.343 191.597 542.013 190.6 542.077 189.547L542.077 193.04C542.162 194.225 541.492 195.368 540.035 196.21L529.032 202.562L529.032 198.704Z" fill="#5191D4"/>
<path d="M508.013 192.44L517.176 197.731C520.684 199.756 525.993 199.977 529.032 198.222L540.035 191.87C541.315 191.131 541.98 190.159 542.069 189.131C542.176 190.334 541.514 191.498 540.035 192.352L529.032 198.704C525.993 200.459 520.684 200.239 517.176 198.213L508.013 192.923C505.981 191.75 505.005 190.23 505.127 188.816C505.24 190.086 506.211 191.4 508.013 192.44Z" fill="#D6EEFB"/>
<path d="M529.032 193.24L540.035 186.888C543.074 185.134 542.693 182.068 539.184 180.043L530.021 174.752C526.512 172.726 521.203 172.506 518.164 174.261L507.161 180.613C504.123 182.368 504.503 185.433 508.013 187.459L517.176 192.749C520.684 194.775 525.993 194.995 529.032 193.24" fill="#7FB7E7"/>
<path d="M542.072 183.726L542.077 183.726L542.077 183.868L542.072 183.726Z" fill="#21AD63"/>
<path d="M508.013 187.459L517.176 192.749C520.684 194.775 525.993 194.995 529.032 193.24L540.035 186.888C541.343 186.133 542.013 185.136 542.077 184.082L542.077 187.576C542.162 188.761 541.492 189.904 540.035 190.746L529.032 197.098C525.993 198.853 520.684 198.633 517.176 196.606L508.013 191.316C506.199 190.27 505.223 188.945 505.121 187.667L505.119 187.667L505.119 187.64C505.11 187.51 505.11 187.379 505.119 187.249L505.119 183.726L505.123 183.726C505.188 185.03 506.159 186.389 508.012 187.459" fill="#386FB2"/>
<path d="M542.072 183.726L542.077 183.726L542.077 183.868L542.072 183.726Z" fill="#21AD63"/>
<path d="M529.032 193.24L540.035 186.888C541.343 186.133 542.013 185.135 542.077 184.082L542.077 187.576C542.162 188.76 541.492 189.903 540.035 190.746L529.032 197.098L529.032 193.24Z" fill="#5191D4"/>
<path d="M508.013 186.976L517.176 192.267C520.684 194.292 525.993 194.513 529.032 192.758L540.035 186.406C541.315 185.667 541.98 184.695 542.069 183.667C542.176 184.87 541.514 186.034 540.035 186.888L529.032 193.24C525.993 194.995 520.684 194.775 517.176 192.749L508.013 187.459C505.981 186.286 505.005 184.765 505.127 183.352C505.24 184.622 506.211 185.936 508.013 186.976Z" fill="#D6EEFB"/>
<path d="M529.032 187.936L540.035 181.584C543.074 179.829 542.693 176.764 539.184 174.738L530.021 169.448C526.512 167.422 521.203 167.202 518.164 168.957L507.161 175.309C504.123 177.064 504.503 180.129 508.013 182.155L517.176 187.445C520.684 189.471 525.993 189.691 529.032 187.936" fill="#7FB7E7"/>
<path d="M542.072 178.422L542.077 178.422L542.077 178.564L542.072 178.422Z" fill="#21AD63"/>
<path d="M508.013 182.155L517.176 187.445C520.684 189.471 525.993 189.691 529.032 187.936L540.035 181.584C541.343 180.829 542.013 179.831 542.077 178.778L542.077 182.272C542.162 183.457 541.492 184.6 540.035 185.442L529.032 191.794C525.993 193.549 520.684 193.329 517.176 191.302L508.013 186.012C506.199 184.965 505.223 183.641 505.121 182.363L505.119 182.363L505.119 182.336C505.11 182.206 505.11 182.075 505.119 181.945L505.119 178.422L505.123 178.422C505.188 179.726 506.159 181.085 508.012 182.155" fill="#386FB2"/>
<path d="M542.072 178.422L542.077 178.422L542.077 178.564L542.072 178.422Z" fill="#21AD63"/>
<path d="M529.032 187.936L540.035 181.584C541.343 180.829 542.013 179.831 542.077 178.778L542.077 182.272C542.162 183.456 541.492 184.599 540.035 185.442L529.032 191.794L529.032 187.936" fill="#5191D4"/>
<path d="M508.013 181.673L517.176 186.963C520.684 188.989 525.993 189.209 529.032 187.454L540.035 181.102C541.315 180.363 541.98 179.391 542.069 178.363C542.176 179.566 541.514 180.731 540.035 181.584L529.032 187.937C525.993 189.692 520.684 189.471 517.176 187.445L508.013 182.155C505.981 180.983 505.005 179.462 505.127 178.048C505.24 179.319 506.211 180.633 508.013 181.673Z" fill="#D6EEFB"/>
<path d="M529.032 182.472L540.035 176.119C543.074 174.365 542.693 171.3 539.184 169.274L530.021 163.984C526.512 161.957 521.203 161.738 518.164 163.493L507.161 169.845C504.123 171.599 504.503 174.665 508.013 176.69L517.176 181.981C520.684 184.006 525.993 184.227 529.032 182.472" fill="#7FB7E7"/>
<path d="M542.072 172.958L542.077 172.958L542.077 173.1L542.072 172.958Z" fill="#21AD63"/>
<path d="M508.013 176.69L517.176 181.981C520.684 184.006 525.993 184.227 529.032 182.472L540.035 176.119C541.343 175.365 542.013 174.367 542.077 173.314L542.077 176.807C542.162 177.992 541.492 179.135 540.035 179.977L529.032 186.33C525.993 188.084 520.684 187.864 517.176 185.838L508.013 180.548C506.199 179.501 505.223 178.176 505.121 176.899L505.119 176.899L505.119 176.872C505.11 176.741 505.11 176.611 505.119 176.481L505.119 172.958L505.123 172.958C505.188 174.262 506.159 175.621 508.012 176.69" fill="#386FB2"/>
<path d="M542.072 172.958L542.077 172.958L542.077 173.1L542.072 172.958Z" fill="#21AD63"/>
<path d="M529.032 182.472L540.035 176.119C541.343 175.365 542.013 174.367 542.077 173.314L542.077 176.807C542.162 177.992 541.492 179.135 540.035 179.977L529.032 186.33L529.032 182.472Z" fill="#5191D4"/>
<path d="M508.013 176.208L517.176 181.498C520.684 183.524 525.993 183.744 529.032 181.989L540.035 175.637C541.315 174.898 541.98 173.926 542.069 172.898C542.176 174.101 541.514 175.265 540.035 176.119L529.032 182.471C525.993 184.226 520.684 184.006 517.176 181.98L508.013 176.69C505.981 175.517 505.005 173.997 505.127 172.583C505.24 173.854 506.211 175.168 508.013 176.208" fill="#D6EEFB"/>
<path d="M529.043 177.029L540.046 170.677C543.085 168.922 542.704 165.857 539.195 163.831L530.032 158.541C526.523 156.515 521.214 156.294 518.175 158.049L507.172 164.402C504.133 166.156 504.514 169.221 508.023 171.248L517.186 176.537C520.695 178.564 526.004 178.784 529.043 177.029" fill="#7FB7E7"/>
<path d="M525.731 162.379C525.596 162.301 525.431 162.241 525.246 162.204C525.061 162.166 524.859 162.151 524.653 162.159C524.446 162.167 524.238 162.198 524.041 162.25C523.844 162.303 523.661 162.376 523.504 162.465L518.874 165.071L514.243 167.677C513.926 167.856 513.73 168.089 513.697 168.326C513.665 168.564 513.799 168.785 514.07 168.942C514.342 169.098 514.728 169.178 515.145 169.162C515.561 169.146 515.973 169.038 516.291 168.859L520.922 166.253L524.354 164.321L527.29 166.016C527.7 166.253 527.992 166.526 528.17 166.826C528.347 167.125 528.41 167.453 528.365 167.78C528.32 168.107 528.162 168.438 527.9 168.755C527.637 169.07 527.27 169.374 526.793 169.643C526.313 169.913 525.78 170.117 525.222 170.262C524.663 170.408 524.08 170.494 523.505 170.515C522.93 170.537 522.364 170.493 521.84 170.388C521.318 170.283 520.842 170.114 520.43 169.877C520.295 169.799 520.13 169.739 519.945 169.702C519.76 169.664 519.558 169.649 519.351 169.657C519.144 169.665 518.936 169.696 518.739 169.748C518.542 169.801 518.36 169.874 518.203 169.963C517.886 170.142 517.689 170.375 517.657 170.612C517.624 170.85 517.758 171.071 518.029 171.228C518.714 171.623 519.532 171.914 520.425 172.093C521.317 172.273 522.287 172.343 523.265 172.307C524.243 172.27 525.232 172.126 526.181 171.879C527.131 171.631 528.038 171.277 528.84 170.825C529.643 170.373 530.276 169.861 530.723 169.323C531.169 168.785 531.44 168.22 531.517 167.663C531.593 167.106 531.476 166.556 531.172 166.045C530.87 165.534 530.377 165.061 529.691 164.665L525.731 162.379Z" fill="#386FB2"/>
<path d="M525.731 161.804C525.596 161.726 525.431 161.666 525.246 161.629C525.061 161.591 524.859 161.575 524.653 161.583C524.446 161.591 524.238 161.623 524.041 161.675C523.844 161.728 523.661 161.801 523.504 161.89L518.874 164.496L514.243 167.102C513.926 167.28 513.73 167.514 513.697 167.751C513.665 167.988 513.799 168.21 514.07 168.367C514.342 168.523 514.728 168.602 515.145 168.587C515.561 168.571 515.973 168.462 516.291 168.284L520.922 165.678L524.354 163.746L527.29 165.441C527.7 165.678 527.992 165.951 528.17 166.251C528.347 166.55 528.41 166.877 528.365 167.205C528.32 167.532 528.162 167.863 527.9 168.18C527.637 168.495 527.27 168.799 526.793 169.068C526.313 169.338 525.78 169.542 525.222 169.687C524.663 169.833 524.08 169.919 523.505 169.94C522.93 169.962 522.364 169.918 521.84 169.813C521.318 169.708 520.842 169.539 520.43 169.302C520.295 169.224 520.13 169.164 519.945 169.127C519.76 169.089 519.558 169.073 519.351 169.081C519.144 169.089 518.936 169.121 518.739 169.173C518.542 169.226 518.36 169.299 518.203 169.388C517.886 169.566 517.689 169.8 517.657 170.037C517.624 170.274 517.758 170.496 518.029 170.653C518.714 171.048 519.532 171.339 520.425 171.518C521.317 171.697 522.287 171.768 523.265 171.732C524.243 171.695 525.232 171.551 526.181 171.304C527.131 171.056 528.038 170.702 528.84 170.25C529.643 169.798 530.276 169.286 530.723 168.748C531.169 168.21 531.44 167.644 531.517 167.087C531.593 166.531 531.476 165.981 531.172 165.47C530.87 164.959 530.377 164.486 529.691 164.09L525.731 161.804Z" fill="white"/>
<path d="M542.072 167.515L542.077 167.515L542.077 167.657L542.072 167.515Z" fill="#21AD63"/>
<path d="M508.013 171.248L517.176 176.538C520.684 178.564 525.993 178.784 529.032 177.03L540.035 170.677C541.343 169.922 542.013 168.924 542.077 167.872L542.077 171.364C542.162 172.55 541.492 173.693 540.035 174.535L529.032 180.887C525.993 182.641 520.684 182.421 517.176 180.395L508.013 175.105C506.199 174.058 505.223 172.734 505.121 171.456L505.119 171.456L505.119 171.429C505.11 171.298 505.11 171.168 505.119 171.038L505.119 167.515L505.123 167.515C505.188 168.819 506.159 170.178 508.012 171.247" fill="#386FB2"/>
<path d="M542.072 167.515L542.077 167.515L542.077 167.657L542.072 167.515Z" fill="#21AD63"/>
<path d="M529.032 177.029L540.035 170.677C541.343 169.922 542.013 168.924 542.077 167.872L542.077 171.364C542.162 172.55 541.492 173.693 540.035 174.534L529.032 180.887L529.032 177.029" fill="#5191D4"/>
<path d="M508.013 170.765L517.176 176.055C520.684 178.082 525.993 178.302 529.032 176.547L540.035 170.195C541.315 169.455 541.98 168.483 542.069 167.455C542.176 168.659 541.514 169.823 540.035 170.677L529.032 177.029C525.993 178.784 520.684 178.564 517.176 176.537L508.013 171.247C505.981 170.075 505.005 168.554 505.127 167.141C505.24 168.411 506.211 169.725 508.013 170.765Z" fill="#D6EEFB"/>
<path d="M508.415 215.319L519.417 208.966C522.457 207.211 522.076 204.147 518.566 202.12L509.404 196.83C505.894 194.804 500.586 194.584 497.547 196.339L486.544 202.691C483.505 204.446 483.886 207.511 487.396 209.537L496.558 214.827C500.067 216.853 505.376 217.073 508.415 215.319Z" fill="#61CAC2"/>
<path d="M521.455 205.803L521.46 205.803L521.46 205.945L521.455 205.803Z" fill="#3AA59F"/>
<path d="M487.395 209.536L496.558 214.826C500.067 216.853 505.375 217.073 508.415 215.318L519.417 208.965C520.725 208.21 521.395 207.213 521.46 206.16L521.46 209.653C521.544 210.839 520.875 211.982 519.417 212.823L508.415 219.175C505.375 220.93 500.067 220.71 496.558 218.684L487.395 213.394C485.581 212.347 484.606 211.022 484.504 209.744L484.502 209.744L484.502 209.718C484.493 209.587 484.493 209.456 484.502 209.326L484.502 205.803L484.506 205.803C484.571 207.107 485.543 208.466 487.396 209.536" fill="#3AA59F"/>
<path d="M521.455 205.803L521.46 205.803L521.46 205.945L521.455 205.803Z" fill="#21AD63"/>
<path d="M508.415 215.318L519.417 208.965C520.725 208.21 521.395 207.213 521.46 206.16L521.46 209.653C521.544 210.838 520.875 211.982 519.417 212.823L508.415 219.175L508.415 215.318" fill="#45C0B5"/>
<path d="M487.395 209.054L496.558 214.345C500.067 216.371 505.375 216.591 508.415 214.836L519.417 208.484C520.697 207.745 521.363 206.773 521.452 205.745C521.559 206.948 520.896 208.113 519.417 208.966L508.415 215.319C505.375 217.073 500.067 216.853 496.558 214.827L487.395 209.537C485.363 208.364 484.388 206.844 484.51 205.431C484.623 206.7 485.593 208.014 487.395 209.054Z" fill="white"/>
<path d="M508.415 209.746L519.417 203.394C522.457 201.639 522.076 198.574 518.566 196.548L509.404 191.258C505.894 189.232 500.586 189.012 497.547 190.766L486.544 197.119C483.505 198.874 483.886 201.938 487.396 203.965L496.558 209.254C500.067 211.281 505.376 211.501 508.415 209.746" fill="#61CAC2"/>
<path d="M521.455 200.232L521.46 200.232L521.46 200.374L521.455 200.232Z" fill="#21AD63"/>
<path d="M487.395 203.965L496.558 209.255C500.067 211.281 505.375 211.501 508.415 209.746L519.417 203.394C520.725 202.639 521.395 201.642 521.46 200.589L521.46 204.081C521.544 205.267 520.875 206.41 519.417 207.251L508.415 213.604C505.375 215.359 500.067 215.138 496.558 213.112L487.395 207.822C485.581 206.775 484.606 205.451 484.504 204.173L484.502 204.173L484.502 204.146C484.493 204.015 484.493 203.885 484.502 203.755L484.502 200.232L484.506 200.232C484.571 201.535 485.543 202.894 487.396 203.965" fill="#3AA59F"/>
<path d="M521.455 200.232L521.46 200.232L521.46 200.374L521.455 200.232Z" fill="#21AD63"/>
<path d="M508.415 209.747L519.417 203.395C520.725 202.64 521.395 201.642 521.46 200.589L521.46 204.082C521.544 205.267 520.875 206.41 519.417 207.252L508.415 213.604L508.415 209.747Z" fill="#45C0B5"/>
<path d="M487.395 203.483L496.558 208.773C500.067 210.799 505.375 211.019 508.415 209.265L519.417 202.912C520.697 202.173 521.363 201.201 521.452 200.173C521.559 201.376 520.896 202.541 519.417 203.394L508.415 209.747C505.375 211.501 500.067 211.281 496.558 209.255L487.395 203.965C485.363 202.792 484.388 201.272 484.51 199.859C484.623 201.129 485.593 202.442 487.395 203.483" fill="white"/>
<path d="M508.415 204.201L519.417 197.849C522.457 196.095 522.076 193.029 518.566 191.004L509.404 185.713C505.894 183.687 500.586 183.467 497.547 185.222L486.544 191.574C483.505 193.329 483.886 196.393 487.396 198.42L496.558 203.71C500.067 205.736 505.376 205.956 508.415 204.201Z" fill="#61CAC2"/>
<path d="M505.08 189.551C504.945 189.473 504.78 189.414 504.595 189.376C504.41 189.338 504.208 189.323 504.002 189.331C503.795 189.339 503.587 189.37 503.39 189.423C503.193 189.475 503.01 189.548 502.853 189.637L498.223 192.243L493.592 194.849C493.275 195.028 493.079 195.262 493.046 195.499C493.014 195.736 493.148 195.957 493.419 196.114C493.691 196.271 494.077 196.35 494.494 196.334C494.91 196.319 495.322 196.21 495.64 196.031L500.27 193.425L503.703 191.493L506.639 193.188C507.049 193.425 507.341 193.699 507.519 193.999C507.696 194.298 507.759 194.625 507.714 194.952C507.669 195.28 507.511 195.611 507.249 195.928C506.986 196.243 506.619 196.546 506.142 196.815C505.662 197.085 505.129 197.289 504.571 197.435C504.012 197.58 503.429 197.666 502.854 197.688C502.279 197.709 501.713 197.666 501.189 197.561C500.667 197.456 500.191 197.287 499.779 197.049C499.644 196.971 499.479 196.912 499.294 196.874C499.109 196.836 498.907 196.821 498.7 196.829C498.493 196.837 498.285 196.868 498.088 196.921C497.891 196.973 497.709 197.046 497.552 197.135C497.235 197.314 497.038 197.548 497.006 197.785C496.973 198.022 497.107 198.243 497.378 198.4C498.063 198.796 498.881 199.086 499.774 199.266C500.666 199.445 501.636 199.516 502.614 199.479C503.592 199.443 504.581 199.299 505.53 199.051C506.48 198.804 507.387 198.449 508.189 197.997C508.992 197.546 509.625 197.033 510.072 196.495C510.518 195.957 510.789 195.392 510.866 194.835C510.942 194.278 510.825 193.728 510.521 193.217C510.219 192.707 509.726 192.233 509.04 191.837L505.08 189.551Z" fill="#3AA59F"/>
<path d="M505.08 188.976C504.945 188.898 504.78 188.839 504.595 188.801C504.41 188.763 504.208 188.748 504.002 188.756C503.795 188.764 503.587 188.795 503.39 188.847C503.193 188.9 503.01 188.973 502.853 189.062L498.223 191.668L493.592 194.274C493.275 194.453 493.079 194.686 493.046 194.923C493.014 195.161 493.148 195.382 493.419 195.539C493.691 195.695 494.077 195.775 494.494 195.759C494.91 195.744 495.322 195.635 495.64 195.456L500.271 192.85L503.703 190.918L506.639 192.613C507.049 192.85 507.341 193.123 507.519 193.423C507.696 193.723 507.759 194.05 507.714 194.377C507.669 194.704 507.511 195.036 507.249 195.352C506.986 195.667 506.619 195.971 506.142 196.24C505.662 196.51 505.129 196.714 504.571 196.86C504.012 197.005 503.429 197.091 502.854 197.113C502.279 197.134 501.713 197.091 501.189 196.985C500.667 196.881 500.191 196.711 499.779 196.474C499.644 196.396 499.479 196.337 499.294 196.299C499.109 196.261 498.907 196.246 498.7 196.254C498.493 196.262 498.285 196.293 498.088 196.345C497.891 196.398 497.709 196.471 497.552 196.56C497.235 196.739 497.038 196.972 497.006 197.21C496.973 197.447 497.107 197.668 497.378 197.825C498.063 198.221 498.881 198.511 499.774 198.69C500.666 198.87 501.636 198.94 502.614 198.904C503.592 198.868 504.581 198.724 505.53 198.476C506.48 198.228 507.387 197.874 508.189 197.422C508.992 196.97 509.625 196.458 510.072 195.92C510.518 195.382 510.789 194.817 510.866 194.26C510.942 193.703 510.825 193.153 510.521 192.642C510.219 192.131 509.726 191.658 509.04 191.262L505.08 188.976Z" fill="white"/>
<path d="M521.455 194.66L521.46 194.66L521.46 194.802L521.455 194.66Z" fill="#21AD63"/>
<path d="M487.395 198.393L496.558 203.683C500.067 205.709 505.375 205.929 508.415 204.174L519.417 197.822C520.725 197.067 521.395 196.07 521.46 195.017L521.46 198.51C521.544 199.695 520.875 200.838 519.417 201.679L508.415 208.032C505.375 209.787 500.067 209.567 496.558 207.54L487.395 202.25C485.581 201.204 484.606 199.879 484.504 198.601L484.502 198.601L484.502 198.574C484.493 198.443 484.493 198.313 484.502 198.183L484.502 194.66L484.506 194.66C484.571 195.964 485.543 197.323 487.396 198.393" fill="#3AA59F"/>
<path d="M521.455 194.66L521.46 194.66L521.46 194.802L521.455 194.66Z" fill="#21AD63"/>
<path d="M508.415 204.175L519.417 197.823C520.725 197.068 521.395 196.07 521.46 195.017L521.46 198.511C521.544 199.695 520.875 200.838 519.417 201.68L508.415 208.033L508.415 204.175" fill="#45C0B5"/>
<path d="M487.395 197.911L496.558 203.201C500.067 205.227 505.375 205.447 508.415 203.692L519.417 197.34C520.697 196.601 521.363 195.629 521.452 194.601C521.559 195.804 520.896 196.969 519.417 197.822L508.415 204.175C505.375 205.93 500.067 205.709 496.558 203.683L487.395 198.393C485.363 197.221 484.388 195.7 484.51 194.286C484.623 195.557 485.593 196.871 487.395 197.911" fill="white"/>
<path d="M532.202 227.661L543.204 221.309C546.243 219.554 545.862 216.489 542.353 214.463L533.19 209.173C529.681 207.147 524.372 206.927 521.333 208.682L510.33 215.034C507.291 216.788 507.673 219.854 511.182 221.879L520.344 227.169C523.854 229.196 529.162 229.416 532.202 227.661" fill="#7FB7E7"/>
<path d="M545.241 218.147L545.247 218.147L545.247 218.289L545.241 218.147Z" fill="#21AD63"/>
<path d="M511.182 221.88L520.344 227.17C523.854 229.196 529.162 229.416 532.202 227.662L543.204 221.309C544.511 220.554 545.182 219.556 545.247 218.504L545.247 221.997C545.331 223.182 544.662 224.325 543.204 225.167L532.202 231.519C529.162 233.273 523.854 233.053 520.344 231.027L511.182 225.737C509.368 224.69 508.393 223.366 508.29 222.088L508.289 222.088L508.289 222.061C508.279 221.93 508.279 221.8 508.289 221.67L508.289 218.147L508.292 218.147C508.358 219.451 509.329 220.81 511.183 221.88" fill="#386FB2"/>
<path d="M545.241 218.147L545.247 218.147L545.247 218.289L545.241 218.147Z" fill="#21AD63"/>
<path d="M532.202 227.662L543.204 221.309C544.511 220.554 545.182 219.556 545.247 218.504L545.247 221.997C545.331 223.182 544.662 224.325 543.204 225.167L532.202 231.519L532.202 227.662" fill="#5191D4"/>
<path d="M511.182 221.397L520.344 226.687C523.854 228.714 529.162 228.933 532.202 227.179L543.204 220.827C544.484 220.087 545.15 219.115 545.239 218.087C545.345 219.291 544.683 220.455 543.204 221.309L532.202 227.661C529.162 229.416 523.854 229.196 520.344 227.169L511.182 221.879C509.15 220.707 508.175 219.186 508.296 217.773C508.409 219.043 509.38 220.357 511.182 221.397" fill="#D6EEFB"/>
<path d="M532.304 222.317L543.306 215.964C546.346 214.209 545.965 211.145 542.455 209.118L533.293 203.828C529.783 201.802 524.474 201.582 521.436 203.337L510.433 209.689C507.394 211.444 507.775 214.509 511.284 216.534L520.447 221.825C523.956 223.851 529.265 224.071 532.304 222.317" fill="#7FB7E7"/>
<path d="M528.63 207.666C528.495 207.588 528.33 207.529 528.145 207.491C527.96 207.453 527.758 207.438 527.551 207.446C527.344 207.454 527.136 207.485 526.939 207.537C526.742 207.59 526.56 207.663 526.402 207.752L521.772 210.358L517.142 212.964C516.825 213.143 516.628 213.376 516.596 213.614C516.563 213.851 516.697 214.072 516.968 214.229C517.24 214.386 517.627 214.465 518.043 214.449C518.46 214.434 518.872 214.325 519.19 214.146L523.82 211.54L527.253 209.608L530.188 211.303C530.599 211.54 530.89 211.813 531.068 212.113C531.246 212.413 531.309 212.74 531.264 213.067C531.219 213.394 531.061 213.726 530.798 214.042C530.536 214.357 530.169 214.661 529.691 214.93C529.211 215.2 528.679 215.404 528.12 215.55C527.561 215.695 526.978 215.781 526.403 215.803C525.829 215.824 525.262 215.781 524.739 215.676C524.217 215.571 523.74 215.402 523.328 215.164C523.193 215.086 523.029 215.027 522.844 214.989C522.658 214.951 522.457 214.936 522.25 214.944C522.043 214.952 521.835 214.983 521.638 215.035C521.441 215.088 521.258 215.161 521.101 215.25C520.784 215.429 520.588 215.662 520.555 215.9C520.523 216.137 520.657 216.358 520.928 216.515C521.613 216.911 522.431 217.201 523.324 217.381C524.216 217.56 525.185 217.631 526.163 217.594C527.141 217.558 528.13 217.414 529.08 217.166C530.029 216.919 530.936 216.564 531.739 216.112C532.542 215.66 533.175 215.148 533.621 214.61C534.068 214.072 534.339 213.507 534.415 212.95C534.491 212.393 534.374 211.843 534.071 211.332C533.768 210.822 533.276 210.348 532.589 209.952L528.63 207.666Z" fill="#386FB2"/>
<path d="M528.63 207.091C528.495 207.013 528.33 206.954 528.145 206.916C527.96 206.878 527.758 206.863 527.551 206.871C527.344 206.879 527.136 206.91 526.939 206.962C526.742 207.015 526.56 207.088 526.402 207.177L521.772 209.783L517.142 212.389C516.825 212.568 516.628 212.801 516.596 213.038C516.563 213.276 516.697 213.497 516.968 213.654C517.24 213.81 517.627 213.89 518.043 213.874C518.46 213.859 518.872 213.75 519.19 213.571L523.82 210.965L527.253 209.033L530.188 210.728C530.599 210.965 530.89 211.238 531.068 211.538C531.246 211.838 531.309 212.165 531.264 212.492C531.219 212.819 531.061 213.151 530.798 213.467C530.536 213.782 530.169 214.086 529.691 214.355C529.211 214.625 528.679 214.829 528.12 214.975C527.561 215.12 526.978 215.206 526.403 215.228C525.829 215.249 525.262 215.206 524.739 215.1C524.217 214.996 523.74 214.826 523.328 214.589C523.193 214.511 523.029 214.452 522.844 214.414C522.658 214.376 522.457 214.361 522.25 214.369C522.043 214.377 521.835 214.408 521.638 214.46C521.441 214.513 521.258 214.586 521.101 214.675C520.784 214.854 520.588 215.087 520.555 215.325C520.523 215.562 520.657 215.783 520.928 215.94C521.613 216.336 522.431 216.626 523.324 216.805C524.216 216.985 525.185 217.055 526.163 217.019C527.141 216.983 528.13 216.839 529.08 216.591C530.029 216.343 530.936 215.989 531.739 215.537C532.542 215.085 533.175 214.573 533.621 214.035C534.068 213.497 534.339 212.932 534.415 212.375C534.491 211.818 534.374 211.268 534.071 210.757C533.768 210.246 533.276 209.773 532.589 209.377L528.63 207.091Z" fill="white"/>
<path d="M545.241 212.844L545.247 212.844L545.247 212.986L545.241 212.844Z" fill="#21AD63"/>
<path d="M511.182 216.576L520.344 221.866C523.854 223.893 529.162 224.113 532.202 222.358L543.204 216.006C544.511 215.251 545.182 214.253 545.247 213.2L545.247 216.693C545.331 217.879 544.662 219.022 543.204 219.863L532.202 226.216C529.162 227.97 523.854 227.75 520.344 225.724L511.182 220.434C509.368 219.387 508.393 218.063 508.29 216.785L508.289 216.785L508.289 216.758C508.279 216.627 508.279 216.496 508.289 216.367L508.289 212.844L508.292 212.844C508.358 214.147 509.329 215.506 511.183 216.576" fill="#386FB2"/>
<path d="M545.241 212.844L545.247 212.844L545.247 212.986L545.241 212.844Z" fill="#21AD63"/>
<path d="M532.202 222.358L543.204 216.006C544.511 215.25 545.182 214.253 545.247 213.2L545.247 216.693C545.331 217.879 544.662 219.022 543.204 219.863L532.202 226.215L532.202 222.358" fill="#5191D4"/>
<path d="M511.182 216.094L520.344 221.384C523.854 223.41 529.162 223.63 532.202 221.876L543.204 215.524C544.484 214.784 545.15 213.812 545.239 212.784C545.345 213.988 544.683 215.152 543.204 216.006L532.202 222.358C529.162 224.112 523.854 223.893 520.344 221.866L511.182 216.576C509.15 215.403 508.175 213.883 508.296 212.47C508.409 213.74 509.38 215.054 511.182 216.094Z" fill="#D6EEFB"/>
<defs>
<filter id="filter0_d_406_4579" x="161.914" y="81.4006" width="122.996" height="92.9895" filterUnits="userSpaceOnUse" color-interpolation-filters="sRGB">
<feFlood flood-opacity="0" result="BackgroundImageFix"/>
<feColorMatrix in="SourceAlpha" type="matrix" values="0 0 0 0 0 0 0 0 0 0 0 0 0 0 0 0 0 0 127 0" result="hardAlpha"/>
<feOffset dy="4"/>
<feGaussianBlur stdDeviation="13"/>
<feComposite in2="hardAlpha" operator="out"/>
<feColorMatrix type="matrix" values="0 0 0 0 0 0 0 0 0 0 0 0 0 0 0 0 0 0 0.25 0"/>
<feBlend mode="normal" in2="BackgroundImageFix" result="effect1_dropShadow_406_4579"/>
<feBlend mode="normal" in="SourceGraphic" in2="effect1_dropShadow_406_4579" result="shape"/>
</filter>
<filter id="filter1_d_406_4579" x="443.67" y="290.809" width="122.996" height="92.9895" filterUnits="userSpaceOnUse" color-interpolation-filters="sRGB">
<feFlood flood-opacity="0" result="BackgroundImageFix"/>
<feColorMatrix in="SourceAlpha" type="matrix" values="0 0 0 0 0 0 0 0 0 0 0 0 0 0 0 0 0 0 127 0" result="hardAlpha"/>
<feOffset dy="4"/>
<feGaussianBlur stdDeviation="13"/>
<feComposite in2="hardAlpha" operator="out"/>
<feColorMatrix type="matrix" values="0 0 0 0 0 0 0 0 0 0 0 0 0 0 0 0 0 0 0.25 0"/>
<feBlend mode="normal" in2="BackgroundImageFix" result="effect1_dropShadow_406_4579"/>
<feBlend mode="normal" in="SourceGraphic" in2="effect1_dropShadow_406_4579" result="shape"/>
</filter>
<filter id="filter2_d_406_4579" x="327.893" y="318.525" width="122.996" height="92.9895" filterUnits="userSpaceOnUse" color-interpolation-filters="sRGB">
<feFlood flood-opacity="0" result="BackgroundImageFix"/>
<feColorMatrix in="SourceAlpha" type="matrix" values="0 0 0 0 0 0 0 0 0 0 0 0 0 0 0 0 0 0 127 0" result="hardAlpha"/>
<feOffset dy="4"/>
<feGaussianBlur stdDeviation="13"/>
<feComposite in2="hardAlpha" operator="out"/>
<feColorMatrix type="matrix" values="0 0 0 0 0 0 0 0 0 0 0 0 0 0 0 0 0 0 0.25 0"/>
<feBlend mode="normal" in2="BackgroundImageFix" result="effect1_dropShadow_406_4579"/>
<feBlend mode="normal" in="SourceGraphic" in2="effect1_dropShadow_406_4579" result="shape"/>
</filter>
<filter id="filter3_d_406_4579" x="264.827" y="262.55" width="122.996" height="92.9895" filterUnits="userSpaceOnUse" color-interpolation-filters="sRGB">
<feFlood flood-opacity="0" result="BackgroundImageFix"/>
<feColorMatrix in="SourceAlpha" type="matrix" values="0 0 0 0 0 0 0 0 0 0 0 0 0 0 0 0 0 0 127 0" result="hardAlpha"/>
<feOffset dy="4"/>
<feGaussianBlur stdDeviation="13"/>
<feComposite in2="hardAlpha" operator="out"/>
<feColorMatrix type="matrix" values="0 0 0 0 0 0 0 0 0 0 0 0 0 0 0 0 0 0 0.25 0"/>
<feBlend mode="normal" in2="BackgroundImageFix" result="effect1_dropShadow_406_4579"/>
<feBlend mode="normal" in="SourceGraphic" in2="effect1_dropShadow_406_4579" result="shape"/>
</filter>
<filter id="filter4_d_406_4579" x="31.7037" y="156.94" width="122.996" height="92.9895" filterUnits="userSpaceOnUse" color-interpolation-filters="sRGB">
<feFlood flood-opacity="0" result="BackgroundImageFix"/>
<feColorMatrix in="SourceAlpha" type="matrix" values="0 0 0 0 0 0 0 0 0 0 0 0 0 0 0 0 0 0 127 0" result="hardAlpha"/>
<feOffset dy="4"/>
<feGaussianBlur stdDeviation="13"/>
<feComposite in2="hardAlpha" operator="out"/>
<feColorMatrix type="matrix" values="0 0 0 0 0 0 0 0 0 0 0 0 0 0 0 0 0 0 0.25 0"/>
<feBlend mode="normal" in2="BackgroundImageFix" result="effect1_dropShadow_406_4579"/>
<feBlend mode="normal" in="SourceGraphic" in2="effect1_dropShadow_406_4579" result="shape"/>
</filter>
<filter id="filter5_d_406_4579" x="265.455" y="74.517" width="122.996" height="92.9895" filterUnits="userSpaceOnUse" color-interpolation-filters="sRGB">
<feFlood flood-opacity="0" result="BackgroundImageFix"/>
<feColorMatrix in="SourceAlpha" type="matrix" values="0 0 0 0 0 0 0 0 0 0 0 0 0 0 0 0 0 0 127 0" result="hardAlpha"/>
<feOffset dy="4"/>
<feGaussianBlur stdDeviation="13"/>
<feComposite in2="hardAlpha" operator="out"/>
<feColorMatrix type="matrix" values="0 0 0 0 0 0 0 0 0 0 0 0 0 0 0 0 0 0 0.25 0"/>
<feBlend mode="normal" in2="BackgroundImageFix" result="effect1_dropShadow_406_4579"/>
<feBlend mode="normal" in="SourceGraphic" in2="effect1_dropShadow_406_4579" result="shape"/>
</filter>
<filter id="filter6_d_406_4579" x="430.806" y="217.444" width="122.996" height="92.9895" filterUnits="userSpaceOnUse" color-interpolation-filters="sRGB">
<feFlood flood-opacity="0" result="BackgroundImageFix"/>
<feColorMatrix in="SourceAlpha" type="matrix" values="0 0 0 0 0 0 0 0 0 0 0 0 0 0 0 0 0 0 127 0" result="hardAlpha"/>
<feOffset dy="4"/>
<feGaussianBlur stdDeviation="13"/>
<feComposite in2="hardAlpha" operator="out"/>
<feColorMatrix type="matrix" values="0 0 0 0 0 0 0 0 0 0 0 0 0 0 0 0 0 0 0.25 0"/>
<feBlend mode="normal" in2="BackgroundImageFix" result="effect1_dropShadow_406_4579"/>
<feBlend mode="normal" in="SourceGraphic" in2="effect1_dropShadow_406_4579" result="shape"/>
</filter>
<linearGradient id="paint0_linear_406_4579" x1="488.316" y1="247.346" x2="485.64" y2="264.641" gradientUnits="userSpaceOnUse">
<stop stop-color="#5A62C3"/>
<stop offset="0.5" stop-color="#4D55BD"/>
<stop offset="1" stop-color="#3940AB"/>
</linearGradient>
<clipPath id="clip0_406_4579">
<rect width="36.2299" height="32.3703" fill="white" transform="matrix(0.866025 0.5 -0.866025 0.5 503.286 316.276)"/>
</clipPath>
<clipPath id="clip1_406_4579">
<rect width="35.9545" height="36.2299" fill="white" transform="matrix(0.866025 0.5 -0.866025 0.5 326.325 286.93)"/>
</clipPath>
<clipPath id="clip2_406_4579">
<rect width="36.2299" height="36.2299" fill="white" transform="matrix(0.866025 0.5 -0.866025 0.5 93.2015 181.32)"/>
</clipPath>
<clipPath id="clip3_406_4579">
<rect width="36.2299" height="33.7022" fill="white" transform="matrix(0.866025 0.5 -0.866025 0.5 491.049 242.548)"/>
</clipPath>
</defs>
</svg>
