<svg id="SvgjsSvg1029" width="256" height="256" xmlns="http://www.w3.org/2000/svg" version="1.1" xmlns:xlink="http://www.w3.org/1999/xlink" xmlns:svgjs="http://svgjs.com/svgjs"><defs id="SvgjsDefs1030"></defs><g id="SvgjsG1031"><svg xmlns="http://www.w3.org/2000/svg" enable-background="new 0 0 512 512" viewBox="0 0 512 512" width="256" height="256"><path d="M254.25,229.125c46.996,0,85.23-38.234,85.23-85.23s-38.234-85.23-85.23-85.23s-85.23,38.234-85.23,85.23
	S207.254,229.125,254.25,229.125z M254.25,78.665c35.968,0,65.23,29.262,65.23,65.23c0,35.968-29.263,65.23-65.23,65.23
	s-65.23-29.262-65.23-65.23C189.02,107.927,218.282,78.665,254.25,78.665z M509.761,498.91l-83.237-256.176
	c-1.339-4.12-5.179-6.91-9.511-6.91h-52.658c17.01-25.572,33.791-56.309,33.791-91.929C398.146,64.551,333.594,0,254.25,0
	S110.354,64.551,110.354,143.895c0,35.617,16.78,66.355,33.791,91.929H94.986c-4.332,0-8.172,2.79-9.511,6.91L2.239,498.91
	c-0.989,3.044-0.461,6.378,1.421,8.968C5.541,510.468,8.549,512,11.75,512h488.5c3.201,0,6.209-1.533,8.09-4.122
	C510.222,505.288,510.75,501.954,509.761,498.91z M254.25,20c68.316,0,123.896,55.579,123.896,123.896
	c0,31.43-15.479,58.7-32.208,83.488L254.25,363.249l-91.688-135.866c-16.729-24.79-32.208-52.062-32.208-83.488
	C130.354,75.579,185.934,20,254.25,20z M25.514,492l76.738-236.176h55.376l88.333,130.895c1.859,2.755,4.966,4.406,8.289,4.406
	s6.43-1.651,8.289-4.406l88.333-130.895h58.875L486.486,492H25.514z" fill="#ffffff" class="color000 svgShape"></path></svg></g></svg>