<svg xmlns="http://www.w3.org/2000/svg" viewBox="0 0 100 100" width="256" height="256"><path d="M73.1 59.9c-2.3-2.3-6.1-2.3-8.5 0l-7.8 7.8-25.4-25.5 7.8-7.8c1.1-1.1 1.8-2.6 1.8-4.2s-.6-3.1-1.8-4.2L25 11.8c-2.3-2.3-6.1-2.3-8.5 0l-6.4 6.4C6.8 21.5 5.2 26 5.8 30.7c1.7 13.4 9.7 28.2 22 40.5s27.1 20.4 40.5 22c.6.1 1.2.1 1.9.1 4 0 7.7-1.6 10.6-4.4l6.4-6.4c2.3-2.3 2.3-6.1 0-8.5L73.1 59.9zm11.3 19.8L78 86.1c-2.4 2.4-5.7 3.6-9.1 3.1-12.5-1.6-26.5-9.2-38.2-20.9S11.3 42.7 9.8 30.2c-.4-3.4.7-6.7 3.1-9.1l6.4-6.4c.4-.4.9-.6 1.4-.6.5 0 1 .2 1.4.6l14.1 14.1c.8.8.8 2 0 2.8L27 40.8c-.4.4-.6.9-.6 1.4s.2 1 .6 1.4l28.3 28.3c.8.8 2 .8 2.8 0l9.2-9.2c.8-.8 2-.8 2.8 0l14.1 14.1c1 .8 1 2.1.2 2.9zM73.7 20.3c.4.4.6.9.6 1.4 0 .5-.2 1-.6 1.4-.1.1-.2.2-.3.2-.1.1-.2.1-.3.2-.1.1-.2.1-.4.1h-.4c-.5 0-1-.2-1.4-.6-.4-.4-.6-.9-.6-1.4 0-.5.2-1 .6-1.4.1-.1.2-.2.3-.2.1-.1.2-.1.3-.2.1-.1.2-.1.4-.1.7-.1 1.4.1 1.8.6zm10 0c.4.4.6.9.6 1.4 0 .5-.2 1-.6 1.4-.1.1-.2.2-.3.2-.1.1-.2.1-.3.2-.1.1-.2.1-.4.1h-.4c-.5 0-1-.2-1.4-.6-.4-.4-.6-.9-.6-1.4 0-.5.2-1 .6-1.4.8-.7 2.1-.7 2.8.1zm-19.4 1v.8c0 .1-.1.2-.1.4 0 .1-.1.2-.2.3-.1.1-.2.2-.2.3-.1.1-.2.2-.3.2-.1.1-.2.1-.3.2-.1.1-.2.1-.4.1H62c-.1 0-.2-.1-.4-.1-.1 0-.2-.1-.3-.2-.1-.1-.2-.1-.3-.2-.1-.1-.2-.2-.2-.3-.1-.1-.1-.2-.2-.3 0-.1-.1-.2-.1-.4v-.8c0-.1.1-.2.1-.4.1-.1.1-.2.2-.4.1-.1.2-.2.2-.3.1-.1.2-.2.3-.2.1-.1.2-.1.3-.2.1-.1.2-.1.4-.1.3-.1.5-.1.8 0 .1 0 .2.1.4.1.1 0 .2.1.3.2.1.1.2.1.3.2.1.1.2.2.2.3.1.1.1.2.2.4 0 .1.1.3.1.4zm24-14.6h-32c-3.3 0-6 2.7-6 6v18c0 3.3 2.7 6 6 6h4v6c0 .8.4 1.5 1.1 1.8.3.1.6.2.9.2.4 0 .9-.1 1.2-.4l9.5-7.6h15.3c3.3 0 6-2.7 6-6v-18c0-3.3-2.7-6-6-6zm2 24c0 1.1-.9 2-2 2h-16c-.5 0-.9.2-1.2.4l-6.8 5.4v-3.8c0-1.1-.9-2-2-2h-6c-1.1 0-2-.9-2-2v-18c0-1.1.9-2 2-2h32c1.1 0 2 .9 2 2v18z" fill="#ffffff" class="color000 svgShape"></path></svg>