<svg width="500" height="158" viewBox="0 0 500 158" fill="none" xmlns="http://www.w3.org/2000/svg">
<path d="M61.4092 140.034L58.9255 154.592C58.7529 155.69 59.1562 156.787 60.0803 157.423C60.5997 157.769 61.1786 158 61.756 158C62.2188 158 62.6801 157.884 63.0849 157.653L76.1417 150.778L89.1985 157.653C90.1806 158.173 91.3354 158.058 92.261 157.423C93.1852 156.787 93.5899 155.689 93.4159 154.592L90.9321 140.034L101.504 129.751C102.313 128.999 102.602 127.844 102.255 126.804C101.909 125.764 100.985 125.014 99.9443 124.84L85.328 122.703L78.7996 109.473C77.8175 107.509 74.5824 107.509 73.6001 109.473L67.0717 122.703L52.4554 124.84C51.3572 125.012 50.4911 125.764 50.1443 126.804C49.7976 127.844 50.0863 128.999 50.8958 129.751L61.4092 140.034Z" fill="#28D57A"/>
<path d="M148.057 140.032L145.573 154.591C145.401 155.689 145.804 156.786 146.728 157.421C147.594 158.057 148.809 158.173 149.791 157.652L162.79 150.778L175.846 157.653C176.251 157.884 176.712 158 177.175 158C177.753 158 178.388 157.827 178.851 157.423C179.717 156.787 180.18 155.689 180.006 154.592L177.522 140.034L188.094 129.751C188.903 128.999 189.192 127.844 188.845 126.804C188.499 125.764 187.632 125.014 186.534 124.84L171.918 122.703L165.39 109.473C164.407 107.509 161.172 107.509 160.19 109.473L153.662 122.703L139.045 124.84C137.947 125.012 137.081 125.764 136.734 126.804C136.387 127.844 136.676 128.999 137.486 129.751L148.057 140.032Z" fill="#28D57A"/>
<path d="M234.999 140.034L232.515 154.592C232.343 155.69 232.746 156.787 233.67 157.423C234.536 158.058 235.751 158.174 236.733 157.653L249.79 150.778L262.846 157.653C263.251 157.884 263.712 158 264.175 158C264.753 158 265.388 157.827 265.851 157.423C266.717 156.787 267.18 155.689 267.006 154.592L264.522 140.034L275.094 129.751C275.903 128.999 276.192 127.844 275.845 126.804C275.499 125.764 274.632 125.014 273.534 124.84L258.918 122.703L252.389 109.473C251.407 107.509 248.172 107.509 247.19 109.473L240.662 122.703L226.045 124.84C224.947 125.012 224.081 125.764 223.734 126.804C223.387 127.844 223.676 128.999 224.486 129.751L234.999 140.034Z" fill="#28D57A"/>
<path d="M321.999 140.034L319.515 154.592C319.343 155.69 319.746 156.787 320.67 157.423C321.536 158.058 322.751 158.174 323.733 157.653L336.79 150.778L349.846 157.653C350.251 157.884 350.712 158 351.175 158C351.753 158 352.388 157.827 352.851 157.423C353.717 156.787 354.18 155.689 354.006 154.592L351.522 140.034L362.094 129.751C362.903 128.999 363.192 127.844 362.845 126.804C362.499 125.764 361.632 125.014 360.534 124.84L345.918 122.703L339.389 109.473C338.407 107.509 335.172 107.509 334.19 109.473L327.662 122.703L313.045 124.84C311.947 125.012 311.081 125.764 310.734 126.804C310.387 127.844 310.676 128.999 311.486 129.751L321.999 140.034Z" fill="#28D57A"/>
<path d="M408.999 140.034L406.515 154.592C406.343 155.69 406.746 156.787 407.67 157.423C408.536 158.058 409.751 158.174 410.733 157.653L423.79 150.778L436.846 157.653C437.251 157.884 437.712 158 438.175 158C438.753 158 439.388 157.827 439.851 157.423C440.717 156.787 441.18 155.689 441.006 154.592L438.522 140.034L449.094 129.751C449.903 128.999 450.192 127.844 449.845 126.804C449.499 125.764 448.632 125.014 447.534 124.84L432.918 122.703L426.389 109.473C425.407 107.509 422.172 107.509 421.19 109.473L414.662 122.703L400.045 124.84C398.947 125.012 398.081 125.764 397.734 126.804C397.387 127.844 397.676 128.999 398.486 129.751L408.999 140.034Z" fill="#28D57A"/>
<path d="M125.484 34.5639L91.7329 0.812534C90.5662 -0.270845 88.8161 -0.270845 87.7327 0.812534L81.0658 7.47948L108.15 34.5639C109.234 35.6473 109.234 37.4807 108.15 38.5641L80.2324 66.4819L86.8994 73.1489C88.0661 74.2323 89.8162 74.2323 90.8995 73.1489L125.401 38.6474C126.568 37.4807 126.568 35.7307 125.484 34.5639Z" fill="#009C9C"/>
<path d="M67.982 3.31255L65.5652 0.895786C64.3985 -0.187593 62.6484 -0.187593 61.5651 0.895786L54.8981 7.56273L59.315 11.9796L67.982 20.6466L76.649 11.9796L67.982 3.31255Z" fill="#40E3E3"/>
<path d="M67.2319 53.4814L58.5648 62.1485L54.148 66.5653L60.8149 73.2323C61.9816 74.3156 63.7317 74.3156 64.8151 73.2323L67.2319 70.8155L75.8989 62.1485L67.2319 53.4814Z" fill="#40E3E3"/>
<path d="M82.0659 34.5638C83.1493 35.7306 83.1493 37.4806 82.0659 38.564L67.232 53.398L75.899 62.065L99.4 38.564C100.483 37.4806 100.483 35.6472 99.4 34.5638L76.7324 11.8962L67.982 20.5633L82.0659 34.5638Z" fill="#1ABAB8"/>
<path d="M26.9803 35.3973L50.4813 11.8963L41.8142 3.2293L39.3141 0.812534C38.1474 -0.270845 36.3974 -0.270845 35.314 0.812534L0.812534 35.3973C-0.270845 36.4807 -0.270845 38.3141 0.812534 39.3975L34.5639 73.1489C35.7307 74.2323 37.4807 74.2323 38.5641 73.1489L41.0642 70.7321L49.7312 62.0651L27.0636 39.3975C25.8969 38.3141 25.8969 36.564 26.9803 35.3973Z" fill="#87F0F0"/>
<path d="M53.1481 35.3971L63.4819 25.0634L54.8148 16.3964L50.398 11.9795L27.0637 35.4805C25.9803 36.5639 25.9803 38.3973 27.0637 39.4806L49.6479 62.0649L54.0648 57.6481L62.7318 48.9811L53.1481 39.3973C52.0647 38.3973 52.0647 36.5639 53.1481 35.3971Z" fill="#40E3E3"/>
<path d="M53.148 39.3974L62.7318 48.9812L73.0655 38.6474C74.1489 37.564 74.1489 35.7306 73.0655 34.6472L63.4818 25.0635L53.148 35.3972C52.148 36.564 52.148 38.314 53.148 39.3974Z" fill="#17CFCF"/>
<path d="M152.569 27.4801C152.652 23.6466 153.402 19.8964 154.819 16.313C156.152 13.0628 158.152 10.0627 160.653 7.64593C163.403 5.14583 166.653 3.22907 170.153 2.06236C174.403 0.645631 178.903 -0.021058 183.32 0.0622788C188.32 -0.104395 193.321 0.645647 197.987 2.31238C201.321 3.56243 204.488 5.39582 207.154 7.81259C209.238 9.646 210.821 11.8961 211.905 14.3962C212.738 16.2296 213.238 18.1464 213.488 20.1465C213.571 20.8965 213.321 21.6465 212.738 22.1465C212.155 22.6466 211.488 22.8966 210.738 22.8966H202.488C201.821 22.8966 201.238 22.7299 200.738 22.3132C200.321 21.9799 199.987 21.5632 199.821 21.1465C199.654 20.8965 199.321 20.3131 198.737 19.3964C197.987 18.313 197.071 17.313 195.987 16.563C194.487 15.4796 192.821 14.5629 191.07 13.8962C188.654 13.0628 185.987 12.6461 183.403 12.7295C178.987 12.4795 174.57 13.9795 171.153 16.813C168.069 19.6464 166.319 23.6466 166.236 27.8968C166.069 30.4802 166.069 33.2303 166.069 36.2304C166.069 39.1472 166.069 41.9807 166.236 44.5641C166.403 50.231 168.069 54.3145 171.153 56.8147C174.653 59.4814 178.987 60.8148 183.32 60.6481C185.654 60.6481 187.987 60.3981 190.237 59.8148C192.237 59.3148 194.071 58.398 195.654 57.148C197.237 55.8979 198.487 54.2312 199.237 52.3145C200.154 49.981 200.571 47.4809 200.488 44.9808V44.1474H188.07C187.32 44.1474 186.654 43.8974 186.154 43.3141C185.654 42.8141 185.32 42.1474 185.32 41.3973V34.147C185.32 32.647 186.57 31.3969 188.07 31.3969H211.571C213.071 31.3969 214.321 32.647 214.321 34.147V45.3142C214.405 49.1476 213.738 52.9811 212.405 56.5646C211.155 59.8981 209.155 62.8982 206.571 65.3983C203.821 67.9818 200.488 69.9819 196.904 71.2319C188.154 73.982 178.737 73.982 169.903 71.2319C166.403 70.0652 163.153 68.1485 160.486 65.6484C157.986 63.1483 155.986 60.1481 154.736 56.8147C153.402 53.2312 152.652 49.3977 152.569 45.5642C152.569 44.3141 152.486 42.8141 152.402 41.314C152.402 39.7306 152.402 38.1472 152.402 36.4805C152.402 34.8137 152.402 33.2303 152.402 31.7303C152.402 30.1469 152.486 28.8135 152.569 27.4801Z" fill="#424A52"/>
<path d="M245.739 30.6473C243.989 30.5639 242.323 30.8973 240.656 31.4806C239.322 31.9807 238.156 32.7307 237.156 33.7307C236.239 34.5641 235.489 35.6475 234.989 36.8142C234.489 37.8142 234.156 38.8976 234.072 39.981H257.073C256.907 38.8976 256.657 37.8142 256.323 36.8142C255.906 35.6475 255.323 34.6474 254.49 33.7307C253.573 32.7307 252.406 31.9807 251.156 31.4806C249.406 30.8139 247.573 30.5639 245.739 30.6473ZM220.822 45.8979C220.822 42.2311 221.405 38.6476 222.572 35.1474C223.655 31.8973 225.322 28.8972 227.572 26.3137C229.739 23.8136 232.489 21.8136 235.489 20.4802C238.739 19.0634 242.239 18.3134 245.739 18.3134C249.24 18.2301 252.74 18.9801 255.99 20.3968C258.99 21.7302 261.74 23.647 263.99 26.0637C266.157 28.4805 267.907 31.2306 269.074 34.3141C270.24 37.4809 270.907 40.8143 270.824 44.2312V48.8147C270.824 50.3147 269.574 51.5648 268.074 51.5648H234.072C234.072 52.9815 234.406 54.3983 234.989 55.6483C235.656 56.815 236.489 57.8151 237.572 58.5651C238.739 59.3985 239.989 59.9818 241.323 60.3985C242.739 60.8152 244.239 60.9819 245.739 60.9819C247.489 61.0652 249.323 60.8152 251.073 60.3151C252.24 59.9818 253.406 59.3984 254.406 58.6484C254.99 58.2317 255.573 57.815 256.24 57.4817C256.823 57.2317 257.49 57.1484 258.157 57.1484H266.324C267.074 57.1484 267.824 57.4817 268.324 57.9817C268.907 58.4817 269.157 59.1484 269.074 59.8985C268.824 61.2318 268.324 62.4819 267.49 63.5653C266.324 65.3154 264.824 66.8154 263.073 67.9821C260.823 69.5655 258.323 70.8156 255.74 71.649C252.49 72.7323 249.073 73.2324 245.739 73.149C242.239 73.149 238.739 72.4823 235.489 71.1489C232.489 69.8989 229.739 67.9821 227.572 65.5654C225.322 62.9819 223.655 60.0652 222.572 56.815C221.322 53.3982 220.738 49.648 220.822 45.8979Z" fill="#424A52"/>
<path d="M295.242 53.2314C295.158 55.0648 295.742 56.8982 296.908 58.2316C297.992 59.4816 300.075 60.1483 303.159 60.1483H309.325C310.825 60.1483 312.076 61.3984 312.076 62.8985V69.6487C312.076 71.1488 310.825 72.3988 309.325 72.3988H301.742C295.325 72.3988 290.491 70.8155 287.074 67.732C283.658 64.6485 281.991 59.8983 281.908 53.5647V31.6471H275.157C274.407 31.6471 273.741 31.3971 273.241 30.8138C272.741 30.3138 272.407 29.6471 272.407 28.897V22.1468C272.407 21.3967 272.657 20.73 273.241 20.23C273.741 19.73 274.407 19.3967 275.157 19.3967H281.908V2.8126C281.908 1.31254 283.158 0.0625 284.658 0.0625H292.408C293.908 0.0625 295.158 1.31254 295.158 2.8126V19.3967H308.325C309.825 19.48 310.909 20.6467 310.992 22.1468V28.897C310.992 30.3971 309.742 31.6471 308.242 31.6471H295.075L295.242 53.2314Z" fill="#424A52"/>
<path d="M362.161 45.8143L350.91 16.8131L339.743 45.8143H362.161ZM356.494 1.06248C357.411 0.97914 358.244 1.31249 358.911 1.89585C359.577 2.64588 360.077 3.56256 360.411 4.47927L385.329 68.8986C385.412 69.1486 385.412 69.3986 385.412 69.5653C385.412 71.0654 384.162 72.3154 382.662 72.3154H375.328C374.328 72.3988 373.245 72.1488 372.495 71.4821C371.995 70.9821 371.661 70.3987 371.411 69.8153L366.994 58.4815H334.826L330.41 69.8153C330.16 70.482 329.743 70.9821 329.326 71.4821C328.493 72.1488 327.493 72.4821 326.493 72.3154H319.159C317.659 72.3154 316.409 71.0654 316.409 69.5653C316.409 69.3153 316.409 69.0653 316.492 68.8986L341.41 4.47927C341.743 3.56256 342.243 2.64588 342.91 1.89585C343.577 1.31249 344.493 0.97914 345.327 1.06248H356.494Z" fill="#424A52"/>
<path d="M429.08 48.7313C429.247 46.8145 429.247 44.8978 429.08 43.0644C428.664 38.6475 427.33 35.4807 424.997 33.564C422.663 31.5639 419.663 30.5638 416.58 30.6472C413.496 30.5638 410.496 31.5639 408.163 33.564C405.746 35.7307 404.413 38.8142 404.246 41.981C404.079 43.231 403.996 44.5644 404.079 45.8145C404.079 47.1479 404.163 48.3979 404.246 49.648C404.413 52.8148 405.829 55.8149 408.163 57.9816C410.496 60.0651 413.496 61.1485 416.58 61.0651C419.663 61.1485 422.663 60.0651 424.997 58.1483C427.33 56.2316 428.664 53.0648 429.08 48.7313ZM419.663 73.399C417.746 73.399 415.83 73.2323 413.996 72.8156C412.496 72.4822 410.996 71.9822 409.579 71.3155C408.496 70.7322 407.413 70.0655 406.413 69.2321C405.663 68.6488 404.913 67.9821 404.246 67.232V88.8996C404.246 90.3997 402.996 91.6497 401.496 91.6497H393.829C392.329 91.6497 391.079 90.3997 391.079 88.8996V22.1468C391.079 20.6468 392.329 19.3967 393.829 19.3967H401.579C403.079 19.3967 404.329 20.6468 404.329 22.1468V24.4802C404.996 23.7302 405.663 23.0635 406.496 22.4802C407.496 21.7301 408.579 21.0634 409.746 20.4801C411.163 19.8134 412.663 19.3134 414.163 18.98C415.996 18.5633 417.913 18.3967 419.83 18.3967C422.997 18.3133 426.163 19.0634 429.08 20.3967C431.747 21.6468 434.164 23.4802 436.081 25.7303C438.081 27.9804 439.581 30.5638 440.664 33.3973C441.747 36.3141 442.414 39.3142 442.581 42.3977C442.664 43.3977 442.664 44.5644 442.664 45.9811C442.664 47.3979 442.664 48.5646 442.581 49.5646C442.414 52.6481 441.831 55.7316 440.664 58.565C439.581 61.3985 438.081 63.9819 436.081 66.232C434.164 68.4821 431.747 70.2321 429.08 71.5655C425.997 72.8156 422.83 73.4823 419.663 73.399Z" fill="#424A52"/>
<path d="M486.666 48.7313C486.833 46.8145 486.833 44.8978 486.666 43.0644C486.249 38.6475 484.916 35.4807 482.583 33.564C480.249 31.5639 477.249 30.5638 474.166 30.6472C471.082 30.5638 468.082 31.5639 465.749 33.564C463.332 35.7307 461.998 38.8142 461.832 41.981C461.665 43.231 461.582 44.5644 461.665 45.8145C461.665 47.1479 461.748 48.3979 461.832 49.648C461.998 52.8148 463.415 55.8149 465.749 57.9816C468.082 60.0651 471.082 61.1485 474.166 61.0651C477.249 61.1485 480.249 60.0651 482.583 58.1483C484.916 56.2316 486.249 53.0648 486.666 48.7313ZM477.166 73.3156C475.249 73.3156 473.332 73.149 471.499 72.7323C469.999 72.3989 468.499 71.8989 467.082 71.2322C465.915 70.6488 464.832 69.9821 463.915 69.2321C463.165 68.6488 462.415 67.9821 461.748 67.232V88.8996C461.748 89.6496 461.415 90.3163 460.915 90.8163C460.415 91.3164 459.748 91.6497 458.998 91.6497H451.248C449.748 91.6497 448.498 90.3997 448.498 88.8996V22.1468C448.498 20.6468 449.748 19.3967 451.248 19.3967H458.998C460.498 19.3967 461.748 20.6468 461.748 22.1468V24.4802C462.415 23.7302 463.165 23.0635 463.915 22.4802C464.915 21.7301 465.999 21.0634 467.082 20.4801C468.499 19.8134 469.999 19.3134 471.499 18.98C473.332 18.5633 475.249 18.3967 477.166 18.3967C480.333 18.3133 483.499 19.0634 486.416 20.3967C489.083 21.6468 491.5 23.4802 493.416 25.7303C495.416 27.9804 496.917 30.5638 498 33.3973C499.083 36.3141 499.75 39.3142 499.917 42.3977C500 43.3977 500 44.5644 500 45.9811C500 47.3979 500 48.5646 499.917 49.5646C499.75 52.6481 499.167 55.7316 498 58.565C496.917 61.3985 495.416 63.9819 493.416 66.232C491.416 68.4821 489.083 70.2321 486.416 71.5655C483.499 72.8989 480.333 73.5656 477.166 73.5656" fill="#424A52"/>
</svg>
