<svg width="453" height="162" viewBox="0 0 453 162" fill="none" xmlns="http://www.w3.org/2000/svg">
<path d="M0 36.7655L41.4746 36.7714L66.6942 36.7772V11.7935L0 36.7655Z" fill="#F3A949"/>
<path d="M66.6942 11.7935V100L98.1906 0L66.6942 11.7935Z" fill="#46C1ED"/>
<path d="M66.6942 36.7771L41.4746 36.7712L66.6942 99.9999V36.7771Z" fill="#006D9A"/>
<path d="M0 36.7654L47.9401 52.9969L41.4746 36.7713L0 36.7654Z" fill="#DE6A64"/>
<path d="M438.634 59.1147H437.343C436.913 59.1147 436.483 59.1442 436.058 59.209C434.526 59.3328 433.005 59.5155 431.508 59.7571C430.005 60.0047 428.673 60.429 427.512 61.042C426.345 61.6549 425.396 62.4565 424.66 63.4349C423.929 64.4132 423.557 65.6686 423.557 67.201C423.557 68.9161 424.053 70.3719 425.031 71.5683C426.009 72.7588 427.665 73.36 429.993 73.36C431.155 73.36 432.257 73.2068 433.3 72.9003C434.343 72.5938 435.263 72.193 436.058 71.7039C436.854 71.2147 437.484 70.6783 437.944 70.0948C438.404 69.5173 438.634 68.9809 438.634 68.4858V59.1147ZM450.392 69.7766C450.392 74.6154 451.099 78.1399 452.508 80.3442C451.406 80.7685 450.38 81.075 449.431 81.2636C448.476 81.4463 447.48 81.5347 446.443 81.5347C444.239 81.5347 442.565 81.1104 441.433 80.2499C440.296 79.3953 439.583 78.1693 439.276 76.5721C437.927 77.9866 436.147 79.1772 433.942 80.1614C431.738 81.1398 429.039 81.629 425.856 81.629C424.2 81.629 422.55 81.3991 420.893 80.9453C419.237 80.4856 417.734 79.7371 416.391 78.6998C415.041 77.6625 413.939 76.2715 413.084 74.5329C412.224 72.7883 411.799 70.6665 411.799 68.1617C411.799 65.0498 412.548 62.5154 414.051 60.5587C415.548 58.6078 417.434 57.0637 419.697 55.9321C421.966 54.8063 424.418 54.0284 427.052 53.5981C429.687 53.1738 432.109 52.8968 434.314 52.773C435.05 52.7141 435.763 52.6846 436.471 52.6846H438.445V51.0107C438.445 48.6532 437.82 46.9794 436.565 45.9892C435.304 44.9991 433.27 44.504 430.453 44.504C427.819 44.504 425.473 44.9342 423.422 45.7888C421.365 46.6493 419.361 47.6277 417.404 48.7298C416.544 47.6866 415.854 46.5432 415.336 45.282C414.817 44.0266 414.552 43.0954 414.552 42.4824C414.552 41.6219 415.029 40.7968 415.978 40.0011C416.927 39.2055 418.229 38.4864 419.886 37.8381C421.536 37.1957 423.44 36.677 425.579 36.2763C427.724 35.8814 429.993 35.681 432.38 35.681C435.693 35.681 438.492 36.0169 440.791 36.6888C443.089 37.3666 444.958 38.4098 446.396 39.8184C447.834 41.227 448.859 42.9893 449.472 45.0993C450.085 47.2151 450.392 49.6787 450.392 52.496V69.7766ZM390.753 41.2447C391.118 40.6966 391.607 40.0895 392.22 39.4177C392.833 38.7517 393.582 38.1446 394.472 37.5965C395.362 37.0483 396.34 36.5945 397.413 36.2291C398.485 35.8637 399.635 35.681 400.86 35.681C401.591 35.681 402.375 35.7399 403.2 35.8637C404.031 35.9875 404.797 36.2114 405.499 36.5474C406.206 36.8833 406.772 37.3371 407.202 37.9147C407.627 38.4923 407.845 39.2055 407.845 40.0542C407.845 41.3921 407.509 42.9245 406.837 44.6572C406.159 46.3959 405.481 47.8752 404.809 49.0953C403.766 48.2407 402.729 47.5806 401.686 47.1208C400.642 46.6611 399.422 46.4313 398.008 46.4313C396.11 46.4313 394.519 46.9853 393.234 48.0933C391.943 49.1955 391.301 50.5157 391.301 52.0539V81.8058H378.806V36.9658C379.112 36.9069 379.478 36.8421 379.908 36.7831C380.273 36.7242 380.704 36.677 381.193 36.6476C381.682 36.6122 382.266 36.6004 382.937 36.6004C384.9 36.6004 386.603 36.9776 388.041 37.7379C389.48 38.4982 390.381 39.6652 390.753 41.2447ZM355.219 41.2447C355.584 40.6966 356.074 40.0895 356.686 39.4177C357.299 38.7517 358.054 38.1446 358.938 37.5965C359.828 37.0483 360.806 36.5945 361.879 36.2291C362.952 35.8637 364.101 35.681 365.327 35.681C366.063 35.681 366.841 35.7399 367.672 35.8637C368.498 35.9875 369.264 36.2114 369.965 36.5474C370.672 36.8833 371.238 37.3371 371.668 37.9147C372.093 38.4923 372.311 39.2055 372.311 40.0542C372.311 41.3921 371.975 42.9245 371.303 44.6572C370.625 46.3959 369.953 47.8752 369.276 49.0953C368.238 48.2407 367.195 47.5806 366.152 47.1208C365.109 46.6611 363.889 46.4313 362.474 46.4313C360.576 46.4313 358.985 46.9853 357.7 48.0933C356.415 49.1955 355.767 50.5157 355.767 52.0539V81.8058H343.272V36.9658C343.579 36.9069 343.944 36.8421 344.374 36.7831C344.74 36.7242 345.17 36.677 345.659 36.6476C346.148 36.6122 346.732 36.6004 347.41 36.6004C349.366 36.6004 351.07 36.9776 352.508 37.7379C353.946 38.4982 354.853 39.6652 355.219 41.2447ZM322.167 53.9694C322.167 51.0284 321.595 48.6355 320.457 46.8026C319.314 44.9637 317.263 44.0443 314.31 44.0443C311.782 44.0443 309.766 44.9166 308.257 46.6611C306.742 48.4057 305.994 50.8457 305.994 53.9694H322.167ZM317.976 72.6233C319.514 72.6233 320.864 72.4583 322.037 72.1164C323.204 71.7805 324.247 71.3679 325.172 70.8787C326.092 70.3895 326.893 69.8532 327.571 69.2697C328.243 68.6862 328.862 68.1499 329.41 67.6607C330.147 68.5801 330.919 69.7589 331.72 71.197C332.516 72.641 332.917 73.8197 332.917 74.7392C332.917 76.0829 332.151 77.3089 330.618 78.411C329.333 79.3953 327.506 80.2381 325.155 80.9394C322.791 81.6467 320.021 81.9944 316.833 81.9944C313.951 81.9944 311.122 81.629 308.334 80.8923C305.546 80.1614 303.065 78.8707 300.89 77.0318C298.715 75.1989 296.953 72.7294 295.609 69.6351C294.259 66.5409 293.582 62.6392 293.582 57.9183C293.582 54.0578 294.183 50.7396 295.379 47.946C296.57 45.1641 298.161 42.8478 300.159 41.009C302.145 39.1701 304.397 37.8263 306.907 36.9658C309.418 36.1112 311.994 35.681 314.628 35.681C318.059 35.681 320.97 36.2173 323.357 37.29C325.75 38.3627 327.695 39.8008 329.198 41.6101C330.695 43.4136 331.779 45.4824 332.457 47.8104C333.129 50.1385 333.471 52.5903 333.471 55.16V56.4507C333.471 56.9399 333.453 57.4586 333.424 58.0126C333.394 58.5607 333.359 59.1029 333.329 59.6216C333.3 60.1402 333.253 60.5528 333.194 60.8593H306.082C306.33 64.2305 307.373 67.0301 309.218 69.2697C311.057 71.5094 313.98 72.6233 317.976 72.6233ZM261.973 73.8197C261.543 72.5938 261.266 71.309 261.142 69.9593C261.018 68.6096 260.959 67.2658 260.959 65.9161V23.2746C261.384 23.2156 261.849 23.1508 262.339 23.0918C262.763 23.0329 263.229 22.9858 263.718 22.9504C264.207 22.9209 264.696 22.9091 265.185 22.9091C266.164 22.9091 267.148 22.9975 268.126 23.1803C269.105 23.3689 269.995 23.7343 270.796 24.2824C271.586 24.8364 272.234 25.5849 272.723 26.5338C273.213 27.4886 273.454 28.7263 273.454 30.2587V36.7831H286.326V46.0659H273.454V65.6627C273.454 69.9357 275.205 72.0693 278.694 72.0693C279.554 72.0693 280.362 71.9337 281.128 71.6567C281.894 71.3797 282.584 71.0791 283.197 70.7373C283.81 70.4013 284.346 70.0477 284.806 69.6823C285.265 69.3169 285.59 69.0399 285.772 68.8572C286.692 70.2068 287.393 71.3738 287.888 72.3581C288.377 73.3423 288.619 74.2677 288.619 75.134C288.619 75.9356 288.301 76.7254 287.652 77.4975C287.01 78.2695 286.108 78.9827 284.947 79.631C283.78 80.2852 282.372 80.8098 280.715 81.2105C279.065 81.6113 277.256 81.8117 275.293 81.8117C271.498 81.8117 268.539 81.0809 266.423 79.6074C264.313 78.1399 262.828 76.2067 261.973 73.8197ZM239.276 58.0126C239.276 56.1737 239.123 54.4586 238.816 52.8673C238.51 51.2701 238.009 49.8968 237.308 48.7298C236.606 47.5688 235.663 46.6611 234.479 46.0187C233.288 45.3763 231.844 45.0521 230.135 45.0521C227.577 45.0521 225.797 45.5472 224.789 46.5256C223.787 47.5039 223.28 48.5766 223.28 49.7436V69.2226C223.77 69.7118 224.636 70.2952 225.885 70.9671C227.135 71.6449 228.579 71.9809 230.229 71.9809C233.335 71.9809 235.616 70.755 237.084 68.3031C238.545 65.8513 239.276 62.4211 239.276 58.0126ZM222.732 41.009C223.711 39.8479 225.237 38.6691 227.312 37.4727C229.386 36.2763 232.015 35.681 235.192 35.681C237.455 35.681 239.606 36.0641 241.651 36.8303C243.697 37.5965 245.512 38.8342 247.103 40.5493C248.689 42.2644 249.956 44.5335 250.905 47.3507C251.854 50.1679 252.325 53.6335 252.325 57.7356C252.325 62.5154 251.771 66.4525 250.675 69.5467C249.573 72.641 248.158 75.0928 246.414 76.8963C244.675 78.7057 242.736 79.9728 240.596 80.7096C238.463 81.4463 236.323 81.8117 234.184 81.8117C232.416 81.8117 230.872 81.6113 229.557 81.2164C228.243 80.8157 227.129 80.3736 226.216 79.8844C225.296 79.3953 224.595 78.9061 224.106 78.411C223.622 77.9218 223.316 77.5859 223.192 77.4032V99.9941H210.697V36.9658C211.004 36.9069 211.375 36.8421 211.805 36.7831C212.177 36.7242 212.607 36.677 213.102 36.6476C213.597 36.6122 214.18 36.6004 214.858 36.6004C216.897 36.6004 218.624 36.9364 220.045 37.6083C221.465 38.286 222.361 39.4177 222.732 41.009ZM188.089 59.1147H186.804C186.373 59.1147 185.943 59.1442 185.513 59.209C183.981 59.3328 182.466 59.5155 180.963 59.7571C179.466 60.0047 178.134 60.429 176.967 61.042C175.806 61.6549 174.857 62.4565 174.12 63.4349C173.384 64.4132 173.018 65.6686 173.018 67.201C173.018 68.9161 173.507 70.3719 174.486 71.5683C175.47 72.7588 177.12 73.36 179.448 73.36C180.609 73.36 181.717 73.2068 182.761 72.9003C183.798 72.5938 184.717 72.193 185.513 71.7039C186.309 71.2147 186.939 70.6783 187.399 70.0948C187.859 69.5173 188.089 68.9809 188.089 68.4858V59.1147ZM199.853 69.7766C199.853 74.6154 200.554 78.1399 201.963 80.3442C200.86 80.7685 199.835 81.075 198.886 81.2636C197.937 81.4463 196.941 81.5347 195.898 81.5347C193.694 81.5347 192.026 81.1104 190.894 80.2499C189.757 79.3953 189.037 78.1693 188.731 76.5721C187.381 77.9866 185.607 79.1772 183.403 80.1614C181.199 81.1398 178.499 81.629 175.317 81.629C173.661 81.629 172.004 81.3991 170.354 80.9453C168.698 80.4856 167.195 79.7371 165.851 78.6998C164.502 77.6625 163.399 76.2715 162.539 74.5329C161.678 72.7883 161.254 70.6665 161.254 68.1617C161.254 65.0498 162.003 62.5154 163.506 60.5587C165.008 58.6078 166.889 57.0637 169.158 55.9321C171.421 54.8063 173.873 54.0284 176.507 53.5981C179.142 53.1738 181.564 52.8968 183.768 52.773C184.505 52.7141 185.224 52.6846 185.931 52.6846H187.906V51.0107C187.906 48.6532 187.275 46.9794 186.02 45.9892C184.764 44.9991 182.725 44.504 179.908 44.504C177.273 44.504 174.928 44.9342 172.877 45.7888C170.826 46.6493 168.822 47.6277 166.859 48.7298C165.999 47.6866 165.309 46.5432 164.79 45.282C164.272 44.0266 164.012 43.0954 164.012 42.4824C164.012 41.6219 164.484 40.7968 165.433 40.0011C166.382 39.2055 167.69 38.4864 169.34 37.8381C170.997 37.1957 172.894 36.677 175.04 36.2763C177.185 35.8814 179.448 35.681 181.841 35.681C185.148 35.681 187.953 36.0169 190.252 36.6888C192.544 37.3666 194.413 38.4098 195.857 39.8184C197.295 41.227 198.32 42.9893 198.933 45.0993C199.546 47.2151 199.853 49.6787 199.853 52.496V69.7766ZM152.779 76.7784C152.413 77.1438 151.8 77.6035 150.952 78.1517C150.097 78.6998 148.983 79.2479 147.616 79.796C146.243 80.3442 144.569 80.8157 142.594 81.2105C140.614 81.6054 138.345 81.8058 135.787 81.8058C130.854 81.8058 126.593 81.0102 122.998 79.4306C119.402 77.8452 116.432 75.635 114.092 72.806C111.746 69.977 110.025 66.6234 108.929 62.7571C107.833 58.8907 107.285 54.6413 107.285 50.0147C107.285 45.3881 107.88 41.1092 109.065 37.1839C110.255 33.2527 112.035 29.8579 114.41 26.9935C116.785 24.135 119.756 21.8954 123.316 20.2805C126.882 18.6715 131.066 17.8582 135.875 17.8582C138.251 17.8582 140.396 18.0762 142.317 18.5006C144.233 18.9249 145.913 19.4318 147.345 20.0094C148.771 20.587 149.962 21.194 150.905 21.8365C151.848 22.473 152.561 23.0093 153.05 23.4337C153.598 23.9229 154.07 24.5005 154.47 25.1665C154.865 25.8384 155.06 26.5692 155.06 27.3589C155.06 28.579 154.606 29.799 153.692 31.0131C152.779 32.2331 151.771 33.3588 150.675 34.3961C149.944 33.6653 149.125 32.9168 148.211 32.1565C147.298 31.3962 146.278 30.7243 145.152 30.1467C144.021 29.5691 142.742 29.0799 141.31 28.6851C139.883 28.2902 138.286 28.0898 136.518 28.0898C133.412 28.0898 130.807 28.7145 128.709 29.964C126.605 31.2135 124.913 32.8402 123.64 34.85C122.355 36.8597 121.442 39.1583 120.899 41.7457C120.351 44.339 120.074 46.9735 120.074 49.6493C120.074 52.5137 120.351 55.2543 120.899 57.8711C121.442 60.488 122.385 62.8042 123.728 64.814C125.066 66.8238 126.817 68.4387 128.98 69.6528C131.143 70.8728 133.836 71.4799 137.066 71.4799C138.769 71.4799 140.337 71.2677 141.769 70.8434C143.196 70.419 144.463 69.9004 145.559 69.2874C146.655 68.6803 147.616 68.0438 148.435 67.3719C149.26 66.7 149.944 66.1224 150.492 65.6332C150.857 66.0635 151.282 66.5821 151.771 67.1892C152.26 67.8022 152.72 68.4446 153.138 69.1047C153.569 69.7766 153.934 70.4485 154.241 71.1145C154.541 71.7864 154.694 72.3934 154.694 72.9416C154.694 73.7372 154.541 74.4032 154.241 74.9513C153.934 75.4995 153.445 76.1124 152.779 76.7784Z" fill="#006D9A"/>
<path d="M37.4092 144.034L34.9255 158.592C34.7529 159.69 35.1562 160.787 36.0803 161.423C36.5997 161.769 37.1786 162 37.756 162C38.2188 162 38.6801 161.884 39.0849 161.653L52.1417 154.778L65.1985 161.653C66.1806 162.173 67.3354 162.058 68.261 161.423C69.1852 160.787 69.5899 159.689 69.4159 158.592L66.9321 144.034L77.5039 133.751C78.3135 132.999 78.6021 131.844 78.2554 130.804C77.9087 129.764 76.9845 129.014 75.9443 128.84L61.328 126.703L54.7996 113.473C53.8175 111.509 50.5824 111.509 49.6001 113.473L43.0717 126.703L28.4554 128.84C27.3572 129.012 26.4911 129.764 26.1443 130.804C25.7976 131.844 26.0863 132.999 26.8958 133.751L37.4092 144.034Z" fill="#28D57A"/>
<path d="M124.057 144.032L121.573 158.591C121.401 159.689 121.804 160.786 122.728 161.421C123.594 162.057 124.809 162.173 125.791 161.652L138.79 154.778L151.846 161.653C152.251 161.884 152.712 162 153.175 162C153.753 162 154.388 161.827 154.851 161.423C155.717 160.787 156.18 159.689 156.006 158.592L153.522 144.034L164.094 133.751C164.903 132.999 165.192 131.844 164.845 130.804C164.499 129.764 163.632 129.014 162.534 128.84L147.918 126.703L141.389 113.473C140.407 111.509 137.172 111.509 136.19 113.473L129.662 126.703L115.045 128.84C113.947 129.012 113.081 129.764 112.734 130.804C112.387 131.844 112.676 132.999 113.486 133.751L124.057 144.032Z" fill="#28D57A"/>
<path d="M210.999 144.034L208.515 158.592C208.343 159.69 208.746 160.787 209.67 161.423C210.536 162.058 211.751 162.174 212.733 161.653L225.79 154.778L238.846 161.653C239.251 161.884 239.712 162 240.175 162C240.753 162 241.388 161.827 241.851 161.423C242.717 160.787 243.18 159.689 243.006 158.592L240.522 144.034L251.094 133.751C251.903 132.999 252.192 131.844 251.845 130.804C251.499 129.764 250.632 129.014 249.534 128.84L234.918 126.703L228.389 113.473C227.407 111.509 224.172 111.509 223.19 113.473L216.662 126.703L202.045 128.84C200.947 129.012 200.081 129.764 199.734 130.804C199.387 131.844 199.676 132.999 200.486 133.751L210.999 144.034Z" fill="#28D57A"/>
<path d="M297.999 144.034L295.515 158.592C295.343 159.69 295.746 160.787 296.67 161.423C297.536 162.058 298.751 162.174 299.733 161.653L312.79 154.778L325.846 161.653C326.251 161.884 326.712 162 327.175 162C327.753 162 328.388 161.827 328.851 161.423C329.717 160.787 330.18 159.689 330.006 158.592L327.522 144.034L338.094 133.751C338.903 132.999 339.192 131.844 338.845 130.804C338.499 129.764 337.632 129.014 336.534 128.84L321.918 126.703L315.389 113.473C314.407 111.509 311.172 111.509 310.19 113.473L303.662 126.703L289.045 128.84C287.947 129.012 287.081 129.764 286.734 130.804C286.387 131.844 286.676 132.999 287.486 133.751L297.999 144.034Z" fill="#28D57A"/>
<path d="M384.999 144.034L382.515 158.592C382.343 159.69 382.746 160.787 383.67 161.423C384.536 162.058 385.751 162.174 386.733 161.653L399.79 154.778L412.846 161.653C413.251 161.884 413.712 162 414.175 162C414.753 162 415.388 161.827 415.851 161.423C416.717 160.787 417.18 159.689 417.006 158.592L414.522 144.034L425.094 133.751C425.903 132.999 426.192 131.844 425.845 130.804C425.499 129.764 424.632 129.014 423.534 128.84L408.918 126.703L402.389 113.473C401.407 111.509 398.172 111.509 397.19 113.473L390.662 126.703L376.045 128.84C374.947 129.012 374.081 129.764 373.734 130.804C373.387 131.844 373.676 132.999 374.486 133.751L384.999 144.034Z" fill="#28D57A"/>
</svg>
