<svg width="400" height="158" viewBox="0 0 400 158" fill="none" xmlns="http://www.w3.org/2000/svg">
<path d="M11.4092 140.034L8.92553 154.592C8.75289 155.69 9.1562 156.787 10.0803 157.423C10.5997 157.769 11.1786 158 11.756 158C12.2188 158 12.6801 157.884 13.0849 157.653L26.1417 150.778L39.1985 157.653C40.1806 158.173 41.3354 158.058 42.261 157.423C43.1852 156.787 43.5899 155.689 43.4159 154.592L40.9321 140.034L51.5039 129.751C52.3135 128.999 52.6021 127.844 52.2554 126.804C51.9087 125.764 50.9845 125.014 49.9443 124.84L35.328 122.703L28.7996 109.473C27.8175 107.509 24.5824 107.509 23.6001 109.473L17.0717 122.703L2.4554 124.84C1.35719 125.012 0.491052 125.764 0.144317 126.804C-0.202415 127.844 0.0862861 128.999 0.895799 129.751L11.4092 140.034Z" fill="#28D57A"/>
<path d="M98.0571 140.032L95.5734 154.591C95.4007 155.689 95.804 156.786 96.7282 157.421C97.5943 158.057 98.8086 158.173 99.7907 157.652L112.79 150.778L125.846 157.653C126.251 157.884 126.712 158 127.175 158C127.753 158 128.388 157.827 128.851 157.423C129.717 156.787 130.18 155.689 130.006 154.592L127.522 140.034L138.094 129.751C138.903 128.999 139.192 127.844 138.845 126.804C138.499 125.764 137.632 125.014 136.534 124.84L121.918 122.703L115.39 109.473C114.407 107.509 111.172 107.509 110.19 109.473L103.662 122.703L89.0453 124.84C87.9471 125.012 87.081 125.764 86.7342 126.804C86.3875 127.844 86.6762 128.999 87.4857 129.751L98.0571 140.032Z" fill="#28D57A"/>
<path d="M184.999 140.034L182.515 154.592C182.343 155.69 182.746 156.787 183.67 157.423C184.536 158.058 185.751 158.174 186.733 157.653L199.79 150.778L212.846 157.653C213.251 157.884 213.712 158 214.175 158C214.753 158 215.388 157.827 215.851 157.423C216.717 156.787 217.18 155.689 217.006 154.592L214.522 140.034L225.094 129.751C225.903 128.999 226.192 127.844 225.845 126.804C225.499 125.764 224.632 125.014 223.534 124.84L208.918 122.703L202.389 109.473C201.407 107.509 198.172 107.509 197.19 109.473L190.662 122.703L176.045 124.84C174.947 125.012 174.081 125.764 173.734 126.804C173.387 127.844 173.676 128.999 174.486 129.751L184.999 140.034Z" fill="#28D57A"/>
<path d="M271.999 140.034L269.515 154.592C269.343 155.69 269.746 156.787 270.67 157.423C271.536 158.058 272.751 158.174 273.733 157.653L286.79 150.778L299.846 157.653C300.251 157.884 300.712 158 301.175 158C301.753 158 302.388 157.827 302.851 157.423C303.717 156.787 304.18 155.689 304.006 154.592L301.522 140.034L312.094 129.751C312.903 128.999 313.192 127.844 312.845 126.804C312.499 125.764 311.632 125.014 310.534 124.84L295.918 122.703L289.389 109.473C288.407 107.509 285.172 107.509 284.19 109.473L277.662 122.703L263.045 124.84C261.947 125.012 261.081 125.764 260.734 126.804C260.387 127.844 260.676 128.999 261.486 129.751L271.999 140.034Z" fill="#28D57A"/>
<path d="M358.999 140.034L356.515 154.592C356.343 155.69 356.746 156.787 357.67 157.423C358.536 158.058 359.751 158.174 360.733 157.653L373.79 150.778L386.846 157.653C387.251 157.884 387.712 158 388.175 158C388.753 158 389.388 157.827 389.851 157.423C390.717 156.787 391.18 155.689 391.006 154.592L388.522 140.034L399.094 129.751C399.903 128.999 400.192 127.844 399.845 126.804C399.499 125.764 398.632 125.014 397.534 124.84L382.918 122.703L376.389 109.473C375.407 107.509 372.172 107.509 371.19 109.473L364.662 122.703L350.045 124.84C348.947 125.012 348.081 125.764 347.734 126.804C347.387 127.844 347.676 128.999 348.486 129.751L358.999 140.034Z" fill="#28D57A"/>
<path d="M218.371 64.8328C221.719 70.6416 225.029 76.3844 228.337 82.121C213.69 93.3342 190.903 94.6894 174.034 81.7764C154.621 66.9047 151.431 41.5291 161.824 23.2627C173.778 2.25244 196.147 -2.39411 210.549 1.01303C210.16 1.85921 201.534 19.7548 201.534 19.7548C201.534 19.7548 200.852 19.7996 200.466 19.807C196.209 19.9875 193.038 20.978 189.64 22.7351C185.911 24.6807 182.716 27.5099 180.333 30.9755C177.951 34.441 176.453 38.4375 175.971 42.6154C175.469 46.8525 176.055 51.1477 177.674 55.0954C179.043 58.4329 180.979 61.397 183.575 63.8995C187.557 67.7421 192.295 70.1214 197.788 70.9091C202.99 71.6557 207.992 70.9166 212.68 68.561C214.438 67.6787 215.934 66.7043 217.682 65.3678C217.905 65.2235 218.103 65.0406 218.371 64.8328Z" fill="#FF492C"/>
<path d="M218.404 13.8887C217.554 13.0524 216.766 12.2809 215.982 11.5044C215.514 11.0415 215.064 10.5599 214.585 10.1082C214.413 9.9452 214.211 9.72245 214.211 9.72245C214.211 9.72245 214.374 9.37651 214.444 9.23465C215.361 7.3942 216.799 6.04901 218.503 4.97884C220.389 3.78645 222.585 3.17976 224.815 3.23545C227.668 3.29145 230.321 4.00199 232.56 5.91587C234.212 7.32825 235.06 9.12017 235.209 11.2593C235.458 14.868 233.965 17.6318 230.999 19.5606C229.257 20.6955 227.378 21.5728 225.494 22.6118C224.455 23.1855 223.567 23.6895 222.551 24.7273C221.658 25.7688 221.614 26.7507 221.614 26.7507L235.112 26.7332V32.7449H214.277C214.277 32.7449 214.277 32.3342 214.277 32.1638C214.198 29.2096 214.542 26.4296 215.895 23.7467C217.139 21.2853 219.073 19.4834 221.397 18.0959C223.186 17.027 225.07 16.1174 226.863 15.0534C227.969 14.3976 228.751 13.4357 228.745 12.0407C228.745 10.8436 227.874 9.77969 226.629 9.44744C223.695 8.65601 220.708 9.91906 219.155 12.6045C218.929 12.9964 218.697 13.3859 218.404 13.8887Z" fill="#FF492C"/>
<path d="M244.512 58.443L233.137 38.7991H210.628L199.179 58.6458H221.855L233.044 78.1964L244.512 58.443Z" fill="#FF492C"/>
</svg>
