<svg width="500" height="140" viewBox="0 0 500 140" fill="none" xmlns="http://www.w3.org/2000/svg">
<path d="M61.4092 122.034L58.9255 136.592C58.7529 137.69 59.1562 138.787 60.0803 139.423C60.5997 139.769 61.1786 140 61.756 140C62.2188 140 62.6801 139.884 63.0849 139.653L76.1417 132.778L89.1985 139.653C90.1806 140.173 91.3354 140.058 92.261 139.423C93.1852 138.787 93.5899 137.689 93.4159 136.592L90.9321 122.034L101.504 111.751C102.313 110.999 102.602 109.844 102.255 108.804C101.909 107.764 100.985 107.014 99.9443 106.84L85.328 104.703L78.7996 91.4733C77.8175 89.5089 74.5824 89.5089 73.6001 91.4733L67.0717 104.703L52.4554 106.84C51.3572 107.012 50.4911 107.764 50.1443 108.804C49.7976 109.844 50.0863 110.999 50.8958 111.751L61.4092 122.034Z" fill="#28D57A"/>
<path d="M148.057 122.032L145.573 136.591C145.401 137.689 145.804 138.786 146.728 139.421C147.594 140.057 148.809 140.173 149.791 139.652L162.79 132.778L175.846 139.653C176.251 139.884 176.712 140 177.175 140C177.753 140 178.388 139.827 178.851 139.423C179.717 138.787 180.18 137.689 180.006 136.592L177.522 122.034L188.094 111.751C188.903 110.999 189.192 109.844 188.845 108.804C188.499 107.764 187.632 107.014 186.534 106.84L171.918 104.703L165.39 91.4733C164.407 89.5089 161.172 89.5089 160.19 91.4733L153.662 104.703L139.045 106.84C137.947 107.012 137.081 107.764 136.734 108.804C136.387 109.844 136.676 110.999 137.486 111.751L148.057 122.032Z" fill="#28D57A"/>
<path d="M234.999 122.034L232.515 136.592C232.343 137.69 232.746 138.787 233.67 139.423C234.536 140.058 235.751 140.174 236.733 139.653L249.79 132.778L262.846 139.653C263.251 139.884 263.712 140 264.175 140C264.753 140 265.388 139.827 265.851 139.423C266.717 138.787 267.18 137.689 267.006 136.592L264.522 122.034L275.094 111.751C275.903 110.999 276.192 109.844 275.845 108.804C275.499 107.764 274.632 107.014 273.534 106.84L258.918 104.703L252.389 91.4733C251.407 89.5089 248.172 89.5089 247.19 91.4733L240.662 104.703L226.045 106.84C224.947 107.012 224.081 107.764 223.734 108.804C223.387 109.844 223.676 110.999 224.486 111.751L234.999 122.034Z" fill="#28D57A"/>
<path d="M321.999 122.034L319.515 136.592C319.343 137.69 319.746 138.787 320.67 139.423C321.536 140.058 322.751 140.174 323.733 139.653L336.79 132.778L349.846 139.653C350.251 139.884 350.712 140 351.175 140C351.753 140 352.388 139.827 352.851 139.423C353.717 138.787 354.18 137.689 354.006 136.592L351.522 122.034L362.094 111.751C362.903 110.999 363.192 109.844 362.845 108.804C362.499 107.764 361.632 107.014 360.534 106.84L345.918 104.703L339.389 91.4733C338.407 89.5089 335.172 89.5089 334.19 91.4733L327.662 104.703L313.045 106.84C311.947 107.012 311.081 107.764 310.734 108.804C310.387 109.844 310.676 110.999 311.486 111.751L321.999 122.034Z" fill="#28D57A"/>
<path d="M408.999 122.034L406.515 136.592C406.343 137.69 406.746 138.787 407.67 139.423C408.536 140.058 409.751 140.174 410.733 139.653L423.79 132.778L436.846 139.653C437.251 139.884 437.712 140 438.175 140C438.753 140 439.388 139.827 439.851 139.423C440.717 138.787 441.18 137.689 441.006 136.592L438.522 122.034L449.094 111.751C449.903 110.999 450.192 109.844 449.845 108.804C449.499 107.764 448.632 107.014 447.534 106.84L432.918 104.703L426.389 91.4733C425.407 89.5089 422.172 89.5089 421.19 91.4733L414.662 104.703L400.045 106.84C398.947 107.012 398.081 107.764 397.734 108.804C397.387 109.844 397.676 110.999 398.486 111.751L408.999 122.034Z" fill="#28D57A"/>
<path d="M455.156 4.75112C455.156 2.08381 457.323 0 459.907 0H495.249C497.916 0 500 2.16717 500 4.75112V22.0886C500 24.7559 497.833 26.8397 495.249 26.8397H491.581C488.914 26.8397 484.913 27.9233 482.579 29.1736L469.743 36.342C467.409 37.5923 466.492 36.6754 467.576 34.3415L469.076 31.0907C470.16 28.6735 468.909 26.7564 466.242 26.7564H459.824C457.157 26.7564 455.073 24.5892 455.073 22.0052V4.75112" fill="url(#paint0_linear_98_83)"/>
<path d="M455.156 49.9284C455.406 49.9284 455.656 49.8451 455.823 49.7617C455.989 49.6784 456.073 49.5117 456.073 49.1783C456.073 49.0116 456.073 48.8449 455.989 48.7615C455.906 48.6781 455.823 48.5948 455.739 48.5114C455.656 48.4281 455.489 48.4281 455.406 48.4281C455.239 48.4281 455.156 48.4281 454.989 48.4281H454.156V49.8451L455.156 49.9284ZM455.156 47.4278C455.906 47.4278 456.49 47.5946 456.823 47.928C457.156 48.2614 457.406 48.6782 457.406 49.2616C457.406 49.7617 457.24 50.1785 456.99 50.4286C456.74 50.6786 456.406 50.8453 455.989 50.9287L457.406 53.3459H455.989L454.572 51.012H454.072V53.3459H452.822V47.5112L455.156 47.4278ZM451.488 51.8456C451.655 52.3457 451.905 52.7624 452.239 53.0958C452.572 53.4293 452.989 53.7627 453.405 53.9294C453.906 54.0961 454.406 54.2628 454.906 54.2628C455.489 54.2628 455.989 54.1794 456.406 53.9294C456.906 53.7627 457.24 53.4293 457.573 53.0958C457.907 52.7624 458.157 52.3457 458.323 51.8456C458.49 51.3454 458.573 50.8453 458.573 50.3452C458.573 49.8451 458.49 49.345 458.323 48.8449C458.157 48.3447 457.907 47.928 457.573 47.5946C457.24 47.2611 456.823 46.9277 456.406 46.761C455.906 46.5943 455.406 46.4276 454.906 46.4276C454.322 46.4276 453.822 46.511 453.405 46.761C452.905 46.9277 452.572 47.2611 452.239 47.5946C451.905 47.928 451.655 48.3447 451.488 48.8449C451.322 49.345 451.238 49.8451 451.238 50.3452C451.238 50.9287 451.322 51.4288 451.488 51.8456ZM449.988 48.2614C450.238 47.5945 450.655 47.0111 451.155 46.511C451.655 46.0108 452.239 45.5941 452.905 45.344C453.572 45.094 454.239 44.9272 454.989 44.9272C455.739 44.9272 456.406 45.094 457.073 45.344C457.74 45.5941 458.323 46.0108 458.823 46.511C459.324 47.0111 459.74 47.5945 459.99 48.2614C460.24 48.9282 460.407 49.595 460.407 50.3452C460.407 51.0954 460.24 51.7622 459.99 52.429C459.74 53.0959 459.324 53.6793 458.823 54.1795C458.323 54.6796 457.74 55.013 457.073 55.3464C456.406 55.5965 455.739 55.7632 454.989 55.7632C454.239 55.7632 453.572 55.5965 452.905 55.3464C452.239 55.0963 451.655 54.6796 451.155 54.1795C450.655 53.6793 450.238 53.0959 449.988 52.429C449.738 51.7622 449.571 51.0954 449.571 50.3452C449.571 49.595 449.738 48.9282 449.988 48.2614Z" fill="#2D2E2C"/>
<path d="M437.235 34.0914H429.4C428.816 34.0914 428.65 33.758 428.65 33.3412L428.733 32.3409C428.9 30.2571 430.817 28.7568 433.401 28.7568C435.901 28.7568 437.902 30.2571 438.069 32.2576L438.152 33.2578C438.152 33.758 437.985 34.0914 437.235 34.0914ZM433.151 20.5881C424.732 20.5881 418.647 26.6729 418.647 33.5912V42.8435C418.647 50.5953 424.399 55.9299 433.151 55.9299C437.902 55.9299 441.319 54.2628 443.737 51.9289C444.904 50.762 445.82 49.4283 446.571 48.0947C446.987 47.3445 446.821 46.5944 446.321 46.3443L439.235 42.7601C438.819 42.51 438.402 42.6767 438.152 43.3436C437.152 45.8442 435.485 47.0111 433.067 47.0111C430.4 47.0111 428.566 45.2607 428.566 42.9268V41.3431C428.566 40.843 428.816 40.5929 429.4 40.5929H446.737C447.154 40.5929 447.487 40.3428 447.487 39.8427V33.5912C447.404 26.7563 441.486 20.5881 433.151 20.5881Z" fill="#2D2E2C"/>
<path d="M402.143 29.3403C404.394 29.3403 405.978 30.7573 407.228 33.6746C407.478 34.1747 407.811 34.3415 408.311 34.0914L415.313 30.924C415.73 30.6739 415.897 30.2572 415.647 29.6737C414.98 28.1733 414.313 26.8397 413.396 25.6727C411.062 22.5053 407.561 20.7549 402.06 20.7549C393.141 20.7549 387.807 26.0895 387.807 33.8413V42.5934C387.807 50.3453 393.141 55.5965 402.06 55.5965C407.061 55.5965 410.395 54.0962 412.729 51.4289C413.979 50.0952 414.896 48.4281 415.647 46.5944C415.897 46.0109 415.73 45.6775 415.313 45.4274L408.311 42.1767C407.811 41.9266 407.478 42.0933 407.228 42.5934C405.978 45.4274 404.394 46.9278 402.143 46.9278C399.476 46.9278 397.809 45.094 397.809 42.7601V33.4246C397.809 31.2574 399.559 29.3403 402.143 29.3403Z" fill="#2D2E2C"/>
<path d="M381.555 21.5884H373.053C372.553 21.5884 372.303 21.8384 372.303 22.3386V54.1795C372.303 54.6796 372.553 54.9297 373.053 54.9297H381.555C381.972 54.9297 382.222 54.6796 382.222 54.1795V22.3386C382.139 21.7551 381.888 21.5884 381.555 21.5884Z" fill="#2D2E2C"/>
<path d="M377.221 7.50171C374.47 7.50171 372.22 9.75225 372.22 12.5029C372.22 15.2536 374.47 17.5041 377.221 17.5041C379.971 17.5041 382.222 15.2536 382.222 12.5029C382.305 9.75225 379.971 7.50171 377.221 7.50171Z" fill="#2D2E2C"/>
<path d="M367.802 21.5884H358.716C358.383 21.5884 358.049 21.8384 357.966 22.1719L352.631 37.5922C352.381 38.3424 351.881 40.2595 351.798 41.1764H351.548C351.381 40.2595 351.048 38.5091 350.714 37.5922L345.13 22.0885C344.963 21.7551 344.796 21.5884 344.38 21.5884H335.294C334.627 21.5884 334.46 22.0052 334.627 22.5886L347.464 54.3462C347.63 54.6796 347.88 54.8463 348.214 54.8463H354.882C355.215 54.8463 355.549 54.6796 355.632 54.3462L368.552 22.5886C368.719 22.0052 368.469 21.5884 367.802 21.5884Z" fill="#2D2E2C"/>
<path d="M320.874 42.51C320.874 44.8439 318.957 46.6777 316.456 46.6777C313.872 46.6777 312.122 44.9273 312.122 42.51V33.9246C312.122 31.5907 313.872 29.9237 316.456 29.9237C319.04 29.9237 320.874 31.6741 320.874 33.9246V42.51ZM330.043 9.7522H321.624C321.291 9.7522 320.874 10.0023 320.874 10.5024V20.4214C320.874 21.505 321.124 23.5888 321.124 23.5888C319.707 22.3385 317.29 21.5884 315.623 21.5884C307.788 21.5884 302.203 26.8396 302.203 34.5915V41.8432C302.203 50.1785 307.037 54.8463 315.789 54.8463C317.79 54.8463 320.124 54.1795 321.624 52.9292C322.041 52.5958 322.541 52.6791 322.541 53.2626V54.3462C322.541 54.5962 322.791 54.8463 323.125 54.8463H330.043C330.46 54.8463 330.793 54.5962 330.793 54.0961V10.419C330.793 10.0023 330.46 9.7522 330.043 9.7522Z" fill="#2D2E2C"/>
<path d="M283.532 39.5093H279.197C278.447 39.5093 278.197 39.0925 278.364 38.6758L279.864 32.841C280.614 30.1737 281.115 27.0063 281.281 25.1725H281.531C281.698 27.0063 282.115 30.1737 282.782 32.841L284.282 38.6758C284.449 39.0092 284.115 39.5093 283.532 39.5093ZM285.199 10.2523C285.032 9.91891 284.865 9.7522 284.449 9.7522H278.03C277.614 9.7522 277.447 9.91891 277.28 10.2523L263.36 53.9294C263.11 54.5129 263.444 54.8463 264.11 54.8463H273.113C273.446 54.8463 273.613 54.6796 273.779 54.3462L275.863 47.8446C276.03 47.5112 276.113 47.4279 276.613 47.4279H286.032C286.533 47.4279 286.699 47.5112 286.783 47.8446L288.783 54.3462C288.95 54.6796 289.033 54.8463 289.533 54.8463H298.619C299.369 54.8463 299.536 54.5129 299.369 53.9294L285.199 10.2523Z" fill="#2D2E2C"/>
<path d="M237.604 34.0914H229.769C229.185 34.0914 229.019 33.758 229.019 33.3412L229.102 32.3409C229.269 30.2571 231.186 28.7568 233.77 28.7568C236.27 28.7568 238.271 30.2571 238.438 32.2576L238.521 33.2578C238.438 33.758 238.354 34.0914 237.604 34.0914ZM233.436 20.5881C225.018 20.5881 218.933 26.6729 218.933 33.5912V42.8435C218.933 50.5953 224.684 55.9299 233.436 55.9299C238.188 55.9299 241.605 54.2628 244.022 51.9289C245.189 50.762 246.106 49.4283 246.856 48.0947C247.273 47.3445 247.106 46.5944 246.606 46.3443L239.521 42.7601C239.104 42.51 238.688 42.6767 238.438 43.3436C237.437 45.8442 235.77 47.0111 233.353 47.0111C230.686 47.0111 228.852 45.2607 228.852 42.9268V41.3431C228.852 40.843 229.102 40.5929 229.686 40.5929H246.94C247.356 40.5929 247.69 40.3428 247.69 39.8427V33.5912C247.773 26.7563 241.855 20.5881 233.436 20.5881Z" fill="#2D2E2C"/>
<path d="M214.682 21.7551C214.182 21.6717 213.598 21.5884 212.848 21.5884C210.098 21.5884 207.514 22.8387 206.43 24.339C206.097 24.6724 205.513 24.5891 205.513 24.0056V22.3386C205.513 21.8384 205.263 21.5884 204.763 21.5884H197.928C197.511 21.5884 197.178 21.8384 197.178 22.3386V54.1795C197.178 54.6796 197.428 54.9297 197.928 54.9297H206.347C206.763 54.9297 207.097 54.6796 207.097 54.1795V35.1749C207.097 32.6743 208.847 30.8406 211.431 30.8406C212.515 30.8406 213.432 31.0073 214.265 31.174C214.932 31.3407 215.349 31.0906 215.349 30.4238V22.3386C215.349 22.0885 215.099 21.7551 214.682 21.7551Z" fill="#2D2E2C"/>
<path d="M176.756 47.1779H174.089C172.589 47.1779 171.755 46.261 171.755 44.2605C171.755 42.8435 172.755 41.8432 174.172 41.8432H180.257C180.674 41.8432 180.841 42.5934 180.841 42.8435C180.674 45.4274 178.673 47.1779 176.756 47.1779ZM176.506 20.7549C172.088 20.7549 168.754 22.1719 166.337 24.4224C165.003 25.6727 163.92 27.0897 163.003 28.6734C162.586 29.4236 162.753 30.1738 163.253 30.4239L170.338 34.008C170.755 34.2581 171.172 34.0914 171.422 33.4246C172.422 30.924 174.089 29.757 176.506 29.757C179.173 29.757 180.841 31.5908 180.841 33.8413V34.1748C180.841 34.6749 180.591 34.9249 180.09 34.9249H173.756C167.421 34.9249 162.336 38.3424 162.336 44.3438V45.094C162.336 51.1788 166.921 54.8463 173.089 54.8463H175.589C177.506 54.8463 179.674 54.1795 181.174 53.0126C181.424 52.7625 181.841 52.8459 181.924 53.0959L182.174 54.3462C182.258 54.6796 182.508 54.9297 182.924 54.9297H189.926C190.343 54.9297 190.676 54.6796 190.676 54.1795V33.9247C190.676 26.1728 185.258 20.7549 176.506 20.7549Z" fill="#2D2E2C"/>
<path d="M159.502 21.5884H150.833C150.417 21.5884 150.083 21.8384 150.083 22.1719L146.832 35.5917C146.499 37.0921 146.166 39.2593 146.082 40.7596H145.832C145.749 39.2593 145.499 37.3421 145.082 35.5917L141.831 22.1719C141.748 21.8384 141.498 21.5884 141.081 21.5884H133.996C133.579 21.5884 133.329 21.8384 133.246 22.1719L130.078 35.5917C129.745 37.0921 129.412 39.0092 129.328 40.4262H129.162C129.078 39.0092 128.828 37.0921 128.411 35.5917L125.077 22.1719C124.994 21.8384 124.827 21.5884 124.327 21.5884H115.492C114.825 21.5884 114.658 21.9218 114.825 22.5053L124.911 54.3462C125.077 54.6796 125.244 54.8463 125.661 54.8463H131.996C132.412 54.8463 132.662 54.6796 132.746 54.3462L136.663 39.5093C137.08 37.8423 137.414 35.0916 137.414 35.0916H137.664C137.664 35.0916 137.997 37.9256 138.414 39.5093L142.248 54.2628C142.331 54.5963 142.498 54.8463 142.998 54.8463H149.25C149.583 54.8463 149.833 54.6796 150 54.3462L160.252 22.5053C160.419 22.0051 160.169 21.5884 159.502 21.5884Z" fill="#2D2E2C"/>
<path d="M111.241 21.5885H106.406C105.739 21.5885 105.573 21.3384 105.573 20.8383V16.3373C105.573 15.8371 105.406 15.6704 104.906 15.6704H100.405C100.155 15.6704 99.7378 15.8371 99.5711 16.0038L90.6523 24.9226V29.7571C90.6523 30.2572 90.9024 30.4239 91.4025 30.4239H94.9867C95.6535 30.4239 95.8202 30.674 95.8202 31.1741V42.3434C95.8202 50.9288 101.155 55.3465 107.99 55.3465H110.99C111.657 55.3465 111.907 55.0965 111.907 54.5964V47.2613C111.907 46.8445 111.657 46.5111 111.157 46.5111H109.99C107.073 46.5111 105.656 44.7607 105.656 41.6766V31.2575C105.656 30.7573 105.906 30.5073 106.489 30.5073H111.324C111.824 30.5073 111.991 30.3406 111.991 29.8405V22.2553C111.907 21.7552 111.741 21.5885 111.241 21.5885Z" fill="#2D2E2C"/>
<path d="M89.8188 9.41883C88.5686 9.16877 86.5681 8.9187 84.7343 8.9187C74.1484 8.9187 70.1475 16.2538 70.1475 22.0885V23.8389C70.1475 24.3391 69.8974 24.5891 69.3973 24.5891H67.7303C67.3135 24.5891 66.9801 24.8392 66.9801 25.3393V32.8411C66.9801 33.3412 67.2301 33.5913 67.7303 33.5913H69.3973C70.0641 33.5913 70.1475 33.8413 70.1475 34.3414V54.2629C70.1475 54.763 70.3976 55.013 70.8977 55.013H79.3163C79.8165 55.013 80.0665 54.763 80.0665 54.2629V34.3414C80.0665 33.8413 80.3166 33.5913 80.8167 33.5913H85.4845C85.9846 33.5913 86.2347 33.3412 86.2347 32.8411V25.3393C86.2347 24.8392 85.9846 24.5891 85.4845 24.5891H80.8167C80.2332 24.5891 80.0665 24.3391 80.0665 23.8389V21.9218C80.0665 19.4212 81.8169 17.8375 84.5676 17.8375C85.4845 17.8375 86.4847 18.0042 87.3183 18.1709C87.8184 18.3376 88.0684 18.1709 88.2351 17.7541L90.4857 10.4191C90.569 9.91895 90.4023 9.50218 89.8188 9.41883Z" fill="#2D2E2C"/>
<path d="M52.8099 42.9268C52.8099 45.2607 50.9762 47.0945 48.4756 47.0945C45.8083 47.0945 43.9745 45.2607 43.9745 42.9268V33.5913C43.9745 31.3407 45.8083 29.4236 48.4756 29.4236C50.9762 29.4236 52.8099 31.2574 52.8099 33.5913V42.9268ZM48.4756 20.7549C39.7235 20.7549 33.9721 26.0895 33.9721 33.8413V42.5934C33.9721 50.3453 39.7235 55.5965 48.4756 55.5965C57.061 55.5965 62.8123 50.3453 62.8123 42.5934V33.8413C62.8123 26.0895 57.061 20.7549 48.4756 20.7549Z" fill="#2D2E2C"/>
<path d="M18.6352 27.9234C14.7176 26.4231 10.4666 25.3395 10.4666 22.0887C10.4666 19.5048 12.3838 17.7543 14.8843 17.7543H15.9679C18.3852 17.7543 20.0522 18.9213 21.0525 21.4219C21.3025 22.0887 21.7193 22.1721 22.1361 22.0054L29.2211 18.4212C29.6379 18.1711 29.8879 17.4209 29.4712 16.6708C28.8877 15.5872 28.2209 14.5036 27.304 13.5867C24.8034 10.836 21.2192 8.7522 15.9679 8.7522H14.8843C5.96556 8.7522 0.380889 14.0868 0.380889 22.1721C0.380889 30.424 5.71549 33.5081 12.3004 36.1754C16.6348 37.9258 20.3023 38.8427 20.3023 42.4269C20.3023 45.3442 18.0518 46.6779 15.4678 46.6779H13.7174C11.3002 46.6779 9.63309 45.511 8.63286 43.0104C8.3828 42.3435 7.96603 42.2602 7.54926 42.4269L0.464243 46.0111C0.0474766 46.2611 -0.202584 47.0113 0.214182 47.7615C0.881008 48.9284 1.63119 50.012 2.54807 51.0956C4.96532 53.8463 8.5495 55.68 13.634 55.68H15.8846C24.9701 55.68 30.3047 50.4288 30.3047 42.3435C30.3047 33.9249 25.3869 30.5907 18.6352 27.9234Z" fill="#2D2E2C"/>
<defs>
<linearGradient id="paint0_linear_98_83" x1="477.603" y1="6.69635" x2="477.603" y2="40.4039" gradientUnits="userSpaceOnUse">
<stop stop-color="#F2C069"/>
<stop offset="1" stop-color="#EB8F3B"/>
</linearGradient>
</defs>
</svg>
