<svg xmlns="http://www.w3.org/2000/svg" width="507" height="386" fill="none" viewBox="0 0 507 386">
  <path fill="#FFCD4C" fill-rule="evenodd" d="M223.85 279.554c-.964-.204-2.047-.438-3.109-.675-2.933-.656-6.167-.484-8.365 1.532-8.264 7.578-10.405 23.071-8.768 27.809 7.617 4.233 17.228 8.368 26.073 11.91l39.147 19.334a5.157 5.157 0 0 0 3.731.331c.033.033.059.027.079-.024a5.115 5.115 0 0 0 3.085-2.604c.551-1.1.665-2.302.409-3.412l-4.887-4.067a.64.64 0 0 1-.094-.877.586.586 0 0 1 .844-.098l7.468 6.214a4.866 4.866 0 0 0 4.195-1.855c.369-.472.635-.991.803-1.53l.587.881-.558-.979a4.8 4.8 0 0 0-.133-3.047l-7.452-6.201a.642.642 0 0 1-.094-.878.586.586 0 0 1 .844-.098l9.442 7.857c2.065 1.115 4.697.603 6.171-1.308a4.798 4.798 0 0 0 .234-5.536l-5.027-4.183-4.234-3.219c.085-.029.169-.06.253-.093l-.042-.035a.642.642 0 0 1-.094-.878.585.585 0 0 1 .844-.097l10.212 8.497a5.167 5.167 0 0 0 5.625-1.77 5.082 5.082 0 0 0-.959-7.158l-3.882-2.949-25.15-26.518c-2.331-2.458-5.655-3.758-9.076-3.837-7.83-.182-18.553-1.174-25.37-1.92a11.925 11.925 0 0 0-5.428.653l-.966.355a11.522 11.522 0 0 1-6.358.473Z" clip-rule="evenodd"/>
  <path fill="#FCFCFC" d="M360.241 217.373c-10.749-3.212-15.815 5.909-17.356 12.218-.195.798.43 1.535 1.252 1.537l161.446.466a1.304 1.304 0 0 0 1.303-1.172c1.567-16.807-13.352-17.821-22.388-15.994-.787.16-1.562-.405-1.676-1.2-7.736-53.872-71.811-45.091-80.754-8.673-.254 1.034-1.563 1.471-2.4.813-15.043-11.839-33.988.595-37.498 10.987-.266.789-1.131 1.256-1.929 1.018ZM50.587 104h129.284c.745 0 1.393-.557 1.501-1.316 2.854-20.124-2.763-25.469-15.913-25.316-.829.01-1.529-.632-1.656-1.477-2.001-13.28-14.211-20.342-20.28-22.251-26.334-7.69-52.942 13.427-54.927 26.703-.177 1.183-1.48 1.855-2.539 1.365-10.061-4.655-18.846 2.589-20.036 9.907-.239 1.469-2.178 2.891-3.568 2.48-6.717-1.983-11.153 3.337-13.22 7.841-.454.991.29 2.064 1.354 2.064ZM26.769 352.425C6.857 346.731.822 359.523.103 368.203.021 369.194.834 370 1.83 370h210.56c1.083 0 1.903-.939 1.667-1.994-1.44-6.444-7.863-26.036-32.17-21.556-1.68.31-3.088-1.666-2.198-3.123 17.371-28.442 3.459-50.891-9.461-56.751-51.837-23.508-86.247 21.486-98.01 48.95-.482 1.126-1.916 1.48-2.9.751-20.264-14.989-34.786 2.747-40.27 15.095a1.92 1.92 0 0 1-2.28 1.053Z"/>
  <path fill="#28D57A" fill-rule="evenodd" d="M87.427 144.701c-12.277 3.097-19.722 15.574-16.63 27.867 20.537 81.62 66.509 118.365 109.091 134.877 11.806 4.578 25.084-1.294 29.656-13.116 4.573-11.822-1.292-25.118-13.099-29.696-29.441-11.416-64.47-36.842-81.187-103.281-3.093-12.293-15.553-19.748-27.83-16.651Z" clip-rule="evenodd"/>
  <path fill="#21AD63" fill-rule="evenodd" d="M73.098 153.247a23.094 23.094 0 0 1 12.906-8.543c12.419-3.109 25.023 4.373 28.152 16.712 16.909 66.681 52.341 92.199 82.121 103.657 11.942 4.595 17.874 17.939 13.25 29.804-2.877 7.381-9.161 12.451-16.375 14.123a22.989 22.989 0 0 0 3.047-5.478c4.625-11.865-1.307-25.209-13.25-29.804-29.78-11.458-65.212-36.976-82.121-103.657-3.094-12.199-15.45-19.651-27.73-16.814Z" clip-rule="evenodd"/>
  <path fill="#000" d="M320.098 142.5c0 34.518-27.759 62.5-62 62.5-34.242 0-62-27.982-62-62.5s27.758-62.5 62-62.5c34.241 0 62 27.982 62 62.5Z" opacity=".2" style="mix-blend-mode:multiply"/>
  <path fill="#000" d="M315.098 140.5c0 31.756-25.52 57.5-57 57.5-31.481 0-57-25.744-57-57.5s25.519-57.5 57-57.5c31.48 0 57 25.744 57 57.5Z" opacity=".2" style="mix-blend-mode:multiply"/>
  <path fill="#28D57A" fill-rule="evenodd" d="M439.903 144.697c12.182 3.078 19.569 15.48 16.5 27.699-20.669 82.295-76.343 122.133-117.338 138.058-11.715 4.551-24.889-1.286-29.426-13.037-4.537-11.751 1.282-24.966 12.997-29.517 30.466-11.835 73.359-41.778 89.653-106.652 3.069-12.22 15.432-19.63 27.614-16.551Z" clip-rule="evenodd"/>
  <path fill="#21AD63" fill-rule="evenodd" d="M445.098 146.838a22.708 22.708 0 0 0-5.423-2.141c-12.161-3.079-24.503 4.331-27.566 16.551-16.266 64.874-59.085 94.817-89.498 106.652-11.695 4.551-17.504 17.766-12.975 29.517a22.713 22.713 0 0 0 22.355 14.552 22.736 22.736 0 0 1-5.114-7.451c-4.937-11.584.405-24.996 11.933-29.958 29.98-12.902 71.725-44.341 85.709-109.749 2.171-10.158 10.76-17.271 20.579-17.973Z" clip-rule="evenodd"/>
  <path fill="#F9AE3E" d="M423.098 274.5c0 11.322-9.626 20.5-21.5 20.5s-21.5-9.178-21.5-20.5 9.626-20.5 21.5-20.5 21.5 9.178 21.5 20.5Z"/>
  <path fill="#FFDB5C" d="M398.598 297c11.321 0 20.5-9.626 20.5-21.5s-9.179-21.5-20.5-21.5c-11.322 0-20.5 9.626-20.5 21.5s9.178 21.5 20.5 21.5Z"/>
  <path fill="#F9AE3E" d="M398.598 294c10.217 0 18.5-8.283 18.5-18.5s-8.283-18.5-18.5-18.5c-10.218 0-18.5 8.283-18.5 18.5s8.282 18.5 18.5 18.5Z"/>
  <path fill="#FFCD4C" d="M398.598 294c9.665 0 17.5-8.283 17.5-18.5s-7.835-18.5-17.5-18.5-17.5 8.283-17.5 18.5 7.835 18.5 17.5 18.5Z"/>
  <path fill="#E1FF2B" fill-rule="evenodd" d="M407.098 256.111a20.698 20.698 0 0 0-9.14-2.111c-9.921 0-18.165 6.904-19.86 16 10.941-2.203 20.864-7.079 29-13.889Z" clip-rule="evenodd" opacity=".3" style="mix-blend-mode:screen"/>
  <path fill="#F9AE3E" d="M403.338 267.449c.26.487.434 1.043.547 1.674.034.22.283.434.487.425l1.638-.057c.238-.012.508.271.492.509l-.15 2.021a.188.188 0 0 1-.19.187l-2.121.075c-.098.008-.169.063-.19.158-.263 1.566-.834 2.888-1.719 3.941a6.512 6.512 0 0 1-2.71 1.963c-.218.082-.109.435.167.608.183.117.358.255.527.416.403.389.774.959 1.101 1.69l3.334 7.049c.093.192.023.364-.152.373l-3.589.128c-.169.004-.369-.14-.454-.324l-3.363-7.244c-.312-.716-.655-1.209-1.046-1.507-.383-.29-.922-.427-1.592-.404l-3.403.122c-.238.012-.508-.271-.492-.509l.208-2.732a.188.188 0 0 1 .19-.187l5.647-.199c1.06-.037 1.915-.331 2.571-.875.527-.431.91-1.018 1.162-1.757.081-.229-.214-.577-.484-.577l-8.315.293c-.238.012-.508-.271-.493-.509l.151-2.021c.006-.11.079-.182.19-.187l8.96-.322c.14-.005.223-.116.185-.271-.163-.701-.501-1.229-1.01-1.588-.571-.402-1.336-.583-2.303-.549l-5.291.189c-.238.012-.508-.271-.493-.509l.151-2.021c.006-.11.079-.182.19-.187l14.713-.521c.238-.012.508.271.493.509l-.151 2.021c-.006.11-.079.182-.19.188l-3.071.106c-.162.041-.237.219-.132.412Z"/>
  <path fill="#F9AE3E" d="m390.983 279.251.202-2.71a.188.188 0 0 1 .19-.188l5.646-.198c1.061-.038 1.915-.332 2.572-.876.526-.431.91-1.018 1.162-1.757.081-.229-.214-.576-.484-.577l-.042-.003c-.002.017.005.024.003.041-.252.739-.635 1.326-1.162 1.757-.656.544-1.518.831-2.571.876l-5.647.198c-.11.005-.183.077-.19.188l-.208 2.732c-.016.238.259.516.493.508l.036.009Zm.494-6.535.151-1.992c.006-.11.079-.182.19-.187l8.961-.322c.14-.005.222-.116.184-.271-.16-.689-.491-1.209-.988-1.566.214.295.371.63.468 1.039.038.156-.044.267-.184.272l-8.961.321a.188.188 0 0 0-.19.188l-.151 2.021c-.015.238.26.516.493.508l.027-.011Zm.394-5.235.15-1.991a.19.19 0 0 1 .19-.188l14.684-.52v-.03c.015-.238-.26-.516-.493-.509l-14.713.521c-.111.005-.184.077-.19.187l-.151 2.021c-.015.238.26.516.493.509h.03Zm8.245 12.005c.108.071.212.146.311.227-.102-.122-.203-.245-.312-.345-.089-.091-.181-.164-.28-.244a.706.706 0 0 0 .281.362Zm-3.64.581c-.015-.015-.032-.013-.047-.028.196.267.388.597.565 1.001l3.363 7.244a.55.55 0 0 0 .43.318l-3.265-7.028c-.313-.716-.658-1.222-1.046-1.507Zm7.908-10.518.023.111c.034.219.283.433.487.425l1.608-.058v-.029c.015-.238-.26-.516-.493-.509l-1.625.06Z" opacity=".28"/>
  <path fill="#F9AE3E" d="M151.098 179c0 12.15-10.298 22-23 22-12.703 0-23-9.85-23-22s10.297-22 23-22c12.702 0 23 9.85 23 22Z"/>
  <path fill="#FFDB5C" d="M125.598 201c11.321 0 20.5-9.85 20.5-22s-9.179-22-20.5-22c-11.322 0-20.5 9.85-20.5 22s9.178 22 20.5 22Z"/>
  <path fill="#F9AE3E" d="M125.598 197c10.217 0 18.5-8.059 18.5-18s-8.283-18-18.5-18c-10.218 0-18.5 8.059-18.5 18s8.282 18 18.5 18Z"/>
  <path fill="#FFCD4C" d="M126.098 197c9.388 0 17-8.059 17-18s-7.612-18-17-18c-9.389 0-17 8.059-17 18s7.611 18 17 18Z"/>
  <path fill="#E1FF2B" fill-rule="evenodd" d="M135.098 159.507c-2.84-1.6-6.051-2.507-9.455-2.507-10.264 0-18.792 8.199-20.545 19 11.318-2.616 21.584-8.406 30-16.493Z" clip-rule="evenodd" opacity=".3" style="mix-blend-mode:screen"/>
  <path fill="#F9AE3E" d="M130.184 171.042c.26.486.434 1.043.547 1.674.034.219.283.433.487.425l1.638-.057c.238-.013.508.27.493.508l-.151 2.021a.188.188 0 0 1-.19.188l-2.121.074c-.098.008-.169.063-.19.158-.262 1.567-.834 2.889-1.719 3.941a6.509 6.509 0 0 1-2.71 1.964c-.218.081-.109.435.167.607.183.117.359.256.527.416.403.389.774.959 1.102 1.691l3.333 7.049c.093.191.023.364-.151.372l-3.59.128c-.169.004-.369-.14-.454-.324l-3.362-7.243c-.313-.717-.656-1.21-1.047-1.508-.383-.29-.922-.426-1.592-.403l-3.402.121c-.239.013-.509-.271-.493-.509l.208-2.731c.007-.111.08-.183.19-.188l5.647-.198c1.06-.038 1.915-.332 2.571-.876.527-.431.91-1.018 1.162-1.757.082-.229-.213-.576-.484-.577l-8.315.293c-.238.012-.508-.271-.493-.509l.151-2.02a.188.188 0 0 1 .19-.188l8.961-.322c.14-.004.222-.116.184-.271-.163-.701-.501-1.229-1.01-1.588-.571-.402-1.336-.582-2.303-.548l-5.291.188c-.238.012-.508-.271-.492-.509l.15-2.02a.188.188 0 0 1 .19-.188l14.713-.52c.238-.013.508.27.493.508l-.151 2.021a.188.188 0 0 1-.19.188l-3.071.106c-.162.041-.236.219-.132.413Z"/>
  <path fill="#F9AE3E" d="m117.829 182.843.201-2.71c.006-.11.079-.182.19-.187l5.646-.199c1.061-.037 1.916-.331 2.572-.875.527-.431.91-1.018 1.162-1.757.081-.229-.214-.577-.484-.577l-.042-.004c-.002.018.005.025.003.042-.252.739-.635 1.326-1.162 1.757-.656.544-1.518.831-2.571.876l-5.647.198c-.11.005-.183.077-.19.188l-.208 2.731c-.015.238.26.517.493.509l.037.008Zm.493-6.535.151-1.991a.188.188 0 0 1 .19-.188l8.96-.321c.14-.005.223-.116.185-.272-.161-.688-.491-1.208-.988-1.565.214.294.371.629.468 1.039.038.155-.045.267-.185.271l-8.96.322c-.111.005-.184.077-.19.187l-.151 2.021c-.015.238.26.516.493.509l.027-.012Zm.395-5.234.15-1.991c.007-.111.08-.183.19-.188l14.684-.521-.001-.029c.016-.238-.259-.517-.492-.509l-14.713.52a.188.188 0 0 0-.19.188l-.151 2.021c-.015.238.26.516.493.508l.03.001Zm8.244 12.004c.109.071.213.147.312.228a3.64 3.64 0 0 0-.313-.346c-.089-.09-.18-.163-.279-.244a.705.705 0 0 0 .28.362Zm-3.64.581c-.014-.015-.032-.013-.047-.028.197.267.388.598.566 1.002l3.362 7.243a.556.556 0 0 0 .43.319l-3.264-7.028c-.313-.717-.659-1.222-1.047-1.508Zm7.909-10.517.023.111c.033.219.283.433.487.425l1.608-.058v-.03c.015-.237-.26-.516-.493-.508l-1.625.06Z" opacity=".28"/>
  <path fill="#FFDF8D" fill-rule="evenodd" d="M220.748 278.875c1.078.236 2.178.468 3.157.671a11.92 11.92 0 0 0 6.457-.47l.981-.354a12.369 12.369 0 0 1 5.512-.65c6.923.743 17.813 1.731 25.765 1.911 2.316.052 4.588.645 6.546 1.759.706 2.135-8.043 2.484-30.321-.054-2.988-.34-6.009.408-8.431 2.125l-1.78 1.261c-3.443 2.441-7.985 2.86-11.919 1.248l-.364-.149c-2.811-1.143-6.096-1.035-8.299.995a17.762 17.762 0 0 0-1.954 2.124c1.484-3.359 3.511-6.517 6.155-8.893 2.233-2.006 5.516-2.177 8.495-1.524ZM302.098 316a6.917 6.917 0 0 0-1.579-2.565l-28.683-29.633a11.785 11.785 0 0 0-2.265-1.82L302.098 316Z" clip-rule="evenodd"/>
  <path fill="#FFCD4C" d="M131.098 350.5c0 2.485-2.239 4.5-5 4.5-2.762 0-5-2.015-5-4.5s2.238-4.5 5-4.5c2.761 0 5 2.015 5 4.5Zm49-135.5c0 1.105-1.12 2-2.5 2-1.381 0-2.5-.895-2.5-2s1.119-2 2.5-2c1.38 0 2.5.895 2.5 2Zm201-55c0 2.761-1.791 5-4 5s-4-2.239-4-5 1.791-5 4-5 4 2.239 4 5Z"/>
  <path fill="#F9AE3E" d="M224.098 141c0 3.314-2.463 6-5.5 6-3.038 0-5.5-2.686-5.5-6s2.462-6 5.5-6c3.037 0 5.5 2.686 5.5 6Zm74 0a6 6 0 1 1-12 0 6 6 0 0 1 12 0Z"/>
  <path fill="#FFBD3B" d="m206.601 226.684 21.974-36.012c.776-1.271 2.298-1.912 3.776-1.59l28.885 6.298c2.099.457 4.493 5.914 3.709 7.87l-18.78 40.573c-1.054 2.629-4.727 2.954-6.247.553l-8.799-13.901c-.752-1.188-2.167-1.811-3.577-1.574l-17.335 2.914c-2.951.496-5.139-2.618-3.606-5.131Z"/>
  <path fill="#FFCD4C" d="m216.45 218.589 11.034-17.401c.304-.479.782-.83 1.338-.984l18.528-5.118c1.144-.316 2.347.263 2.784 1.339l3.802 9.36a2.198 2.198 0 0 1-.019 1.7l-9.982 23.134c-.74 1.717-3.178 1.868-4.136.257l-6.347-10.671a2.34 2.34 0 0 0-2.548-1.061l-11.939 2.818c-2.01.474-3.601-1.66-2.515-3.373Z"/>
  <path fill="#FFBD3B" d="m327.602 226.74-21.692-36.07a3.468 3.468 0 0 0-3.718-1.588l-28.447 6.293c-2.066.457-6.327 4.97-5.555 6.925l20.416 41.525c1.034 2.618 4.635 2.952 6.142.569l8.667-13.71a3.465 3.465 0 0 1 3.475-1.561l17.196 2.749c2.895.463 5.017-2.635 3.516-5.132Z"/>
  <path fill="#FFCD4C" d="m290.443 230.574-12.178-29.031c-.445-1.06.024-2.264 1.092-2.805l18.699-9.468c1.203-.609 2.705-.152 3.298 1.004l6.506 12.663c.314.612.317 1.325.007 1.94l-13.026 25.835c-.898 1.781-3.629 1.696-4.398-.138Z"/>
  <path fill="#FFBD3C" d="M253.955 24.479a11.532 11.532 0 0 1 14.286 0l1.461 1.152a11.53 11.53 0 0 0 11.138 1.764l1.746-.644a11.533 11.533 0 0 1 13.587 4.414l1.033 1.548a11.532 11.532 0 0 0 10.048 5.12l1.86-.074a11.531 11.531 0 0 1 11.557 8.397l.505 1.791a11.532 11.532 0 0 0 7.974 7.975l1.792.504a11.534 11.534 0 0 1 8.397 11.558l-.074 1.859a11.533 11.533 0 0 0 5.12 10.049l1.547 1.033a11.531 11.531 0 0 1 4.415 13.587l-.645 1.745a11.534 11.534 0 0 0 1.764 11.139l1.153 1.461a11.531 11.531 0 0 1 0 14.286l-1.153 1.461a11.534 11.534 0 0 0-1.764 11.139l.645 1.745a11.531 11.531 0 0 1-4.415 13.587l-1.547 1.033a11.533 11.533 0 0 0-5.12 10.049l.074 1.859a11.534 11.534 0 0 1-8.397 11.558l-1.792.504a11.531 11.531 0 0 0-7.974 7.975l-.505 1.791a11.531 11.531 0 0 1-11.557 8.397l-1.86-.074a11.532 11.532 0 0 0-10.048 5.12l-1.033 1.548a11.532 11.532 0 0 1-13.587 4.414l-1.746-.644a11.53 11.53 0 0 0-11.138 1.764l-1.461 1.152a11.531 11.531 0 0 1-14.286 0l-1.461-1.152a11.532 11.532 0 0 0-11.139-1.764l-1.746.644a11.53 11.53 0 0 1-13.586-4.414l-1.034-1.548a11.531 11.531 0 0 0-10.048-5.12l-1.86.074a11.531 11.531 0 0 1-11.557-8.397l-.505-1.791a11.531 11.531 0 0 0-7.974-7.975l-1.791-.504a11.531 11.531 0 0 1-8.397-11.558l.074-1.859a11.535 11.535 0 0 0-5.12-10.049l-1.548-1.033a11.534 11.534 0 0 1-4.415-13.587l.645-1.745a11.534 11.534 0 0 0-1.764-11.139l-1.153-1.461a11.531 11.531 0 0 1 0-14.286l1.153-1.461a11.534 11.534 0 0 0 1.764-11.139l-.645-1.745a11.534 11.534 0 0 1 4.415-13.587l1.548-1.033a11.535 11.535 0 0 0 5.12-10.049l-.074-1.859a11.531 11.531 0 0 1 8.397-11.558l1.791-.504a11.532 11.532 0 0 0 7.974-7.975l.505-1.79a11.531 11.531 0 0 1 11.557-8.398l1.86.074c4.012.16 7.819-1.78 10.048-5.12l1.034-1.548a11.53 11.53 0 0 1 13.586-4.414l1.746.644a11.532 11.532 0 0 0 11.139-1.764l1.461-1.152Z"/>
  <path fill="#FFCD4C" d="M254.551 38.445a11.377 11.377 0 0 1 14.094 0 11.377 11.377 0 0 0 10.989 1.74 11.377 11.377 0 0 1 13.404 4.356 11.378 11.378 0 0 0 9.913 5.051 11.378 11.378 0 0 1 11.403 8.285 11.378 11.378 0 0 0 7.867 7.867 11.376 11.376 0 0 1 8.284 11.402 11.379 11.379 0 0 0 5.052 9.914 11.377 11.377 0 0 1 4.355 13.404 11.378 11.378 0 0 0 1.74 10.989 11.375 11.375 0 0 1 0 14.094 11.378 11.378 0 0 0-1.74 10.989 11.377 11.377 0 0 1-4.355 13.404 11.379 11.379 0 0 0-5.052 9.914 11.376 11.376 0 0 1-8.284 11.402 11.378 11.378 0 0 0-7.867 7.868 11.378 11.378 0 0 1-11.403 8.284 11.377 11.377 0 0 0-9.913 5.051 11.376 11.376 0 0 1-13.404 4.355 11.378 11.378 0 0 0-10.989 1.741 11.378 11.378 0 0 1-14.094 0 11.379 11.379 0 0 0-10.989-1.741 11.377 11.377 0 0 1-13.405-4.355 11.376 11.376 0 0 0-9.913-5.051 11.378 11.378 0 0 1-11.403-8.285 11.376 11.376 0 0 0-7.867-7.867 11.377 11.377 0 0 1-8.284-11.402 11.378 11.378 0 0 0-5.051-9.914 11.377 11.377 0 0 1-4.356-13.404 11.376 11.376 0 0 0-1.74-10.989 11.378 11.378 0 0 1 0-14.094 11.376 11.376 0 0 0 1.74-10.989 11.377 11.377 0 0 1 4.356-13.404 11.378 11.378 0 0 0 5.051-9.914 11.377 11.377 0 0 1 8.284-11.402 11.376 11.376 0 0 0 7.867-7.867 11.378 11.378 0 0 1 11.403-8.285 11.376 11.376 0 0 0 9.913-5.05 11.378 11.378 0 0 1 13.405-4.356 11.378 11.378 0 0 0 10.989-1.74Z"/>
  <path fill="#F9AE3E" d="M330.098 115.5c0 36.175-29.326 65.5-65.5 65.5-36.175 0-65.5-29.325-65.5-65.5s29.325-65.5 65.5-65.5c36.174 0 65.5 29.325 65.5 65.5Z"/>
  <path fill="#FFDB5C" d="M260.098 181c35.346 0 64-29.325 64-65.5s-28.654-65.5-64-65.5c-35.347 0-64 29.325-64 65.5s28.653 65.5 64 65.5Z"/>
  <path fill="#F9AE3E" d="M260.098 171c31.48 0 57-24.848 57-55.5s-25.52-55.5-57-55.5c-31.481 0-57 24.848-57 55.5s25.519 55.5 57 55.5Z"/>
  <path fill="#FFCD4C" d="M261.098 173c28.718 0 52-25.296 52-56.5s-23.282-56.5-52-56.5c-28.719 0-52 25.296-52 56.5s23.281 56.5 52 56.5Z"/>
  <path fill="#FFC121" fill-rule="evenodd" d="M290.098 57.388C281.2 52.674 271.14 50 260.474 50c-32.16 0-58.882 24.164-64.376 56 35.464-7.711 67.629-24.776 94-48.612Z" clip-rule="evenodd" opacity=".6" style="mix-blend-mode:screen"/>
  <path fill="#F9AE3E" d="m236.613 129.542.619-8.332c.02-.339.244-.561.584-.577l17.36-.609c3.261-.114 5.889-1.019 7.906-2.692 1.62-1.326 2.798-3.129 3.573-5.402.25-.704-.657-1.773-1.487-1.775l-.129-.01c-.007.053.016.076.009.129-.774 2.272-1.953 4.075-3.573 5.401-2.017 1.673-4.667 2.555-7.905 2.692l-17.361.61c-.339.015-.564.237-.584.577l-.641 8.399c-.047.732.798 1.587 1.515 1.564l.114.025Zm1.521-20.092.464-6.123c.02-.339.244-.561.584-.577l27.55-.989c.43-.014.684-.356.567-.834-.493-2.117-1.51-3.716-3.037-4.812.657.904 1.141 1.934 1.438 3.193.117.479-.136.821-.567.834l-27.55.989c-.34.016-.564.238-.584.577l-.463 6.213c-.046.732.799 1.588 1.516 1.565l.082-.036Zm1.213-16.089.463-6.123c.02-.339.245-.561.584-.577l45.145-1.601-.001-.091c.047-.731-.798-1.587-1.515-1.564l-45.235 1.6c-.34.015-.565.237-.585.577l-.462 6.213c-.047.731.798 1.587 1.515 1.564l.091.002Zm25.352 36.903c.334.218.653.451.957.699-.312-.376-.625-.753-.96-1.062-.274-.277-.555-.502-.859-.75.116.388.422.817.862 1.113Zm-11.197 1.788c-.045-.046-.098-.04-.144-.086.603.821 1.193 1.837 1.739 3.079l10.338 22.271c.238.541.808.938 1.321.979l-10.037-21.608c-.962-2.202-2.024-3.757-3.217-4.635Zm24.318-32.337.071.341c.104.675.872 1.332 1.498 1.307l4.944-.177-.001-.091c.047-.731-.798-1.587-1.515-1.564l-4.997.184Z" opacity=".28"/>
  <path fill="#FFD85A" fill-rule="evenodd" d="M261.598 72.592c-24.25 0-43.909 19.658-43.909 43.908s19.659 43.908 43.909 43.908 43.908-19.658 43.908-43.908-19.658-43.908-43.908-43.908Zm-48.5 43.908c0-26.786 21.714-48.5 48.5-48.5 26.785 0 48.5 21.714 48.5 48.5s-21.715 48.5-48.5 48.5c-26.786 0-48.5-21.714-48.5-48.5ZM260.786 36a81.12 81.12 0 0 1 .623 0l5.725.022-.044 11.449-5.724-.022a59.854 59.854 0 0 0-.537 0l-5.724.022-.043-11.449 5.724-.021Zm-15.485 13.006-5.451 1.746a61.3 61.3 0 0 0-.507.165l-5.438 1.79-3.578-10.876 5.438-1.789c.196-.065.394-.129.591-.192l5.451-1.747 3.494 10.903Zm35.087-10.903 5.451 1.747c.198.063.395.127.592.192l5.437 1.789-3.578 10.875-5.437-1.789a57.96 57.96 0 0 0-.508-.164l-5.451-1.747 3.494-10.903Zm-55.313 19.114-4.642 3.351-.43.314-4.616 3.386-6.772-9.231 4.615-3.386a82.4 82.4 0 0 1 .502-.366l4.641-3.35 6.702 9.282Zm78.747-9.282 4.641 3.35c.168.122.335.243.502.366l4.615 3.386-6.772 9.231-4.615-3.386-.431-.314-4.641-3.351 6.701-9.282Zm-95.457 23.354-3.386 4.616-.313.431-3.351 4.641-9.283-6.701 3.351-4.642.365-.501 3.386-4.616 9.231 6.772Zm114.696-6.772 3.386 4.616.365.501 3.351 4.642-9.283 6.701-3.35-4.641a67.845 67.845 0 0 0-.314-.431l-3.386-4.616 9.231-6.772Zm-126.257 25.29-1.789 5.438-.165.507-1.747 5.452-10.902-3.494 1.747-5.452.192-.591 1.789-5.438 10.875 3.578Zm139.463-3.578 1.789 5.438.192.591 1.747 5.452-10.903 3.494-1.747-5.452a49.825 49.825 0 0 0-.165-.507l-1.789-5.438 10.876-3.578Zm-144.698 24.778-.022 5.725-.001.268.001.268.022 5.725-11.449.043-.022-5.724v-.624l.022-5.724 11.449.043Zm150.506-.043.022 5.724.001.312-.001.224v.088l-.022 5.724-11.448-.043.021-5.725.001-.268-.001-.268-.021-5.725 11.448-.043Zm-148.972 21.832 1.747 5.452.165.507 1.789 5.438-10.875 3.578-1.789-5.438a67.669 67.669 0 0 1-.192-.591l-1.747-5.452 10.902-3.494Zm146.892 3.494-1.747 5.452-.192.591-1.789 5.438-10.876-3.578 1.789-5.438.165-.507 1.747-5.452 10.903 3.494Zm-138.68 16.733 3.351 4.641.313.431 3.386 4.616-9.231 6.772-3.386-4.616a91.673 91.673 0 0 1-.365-.501l-3.351-4.642 9.283-6.701Zm128.848 6.701-3.351 4.642-.365.501-3.386 4.616-9.231-6.772 3.386-4.616.314-.431 3.35-4.641 9.283 6.701Zm-114.776 10.008 4.616 3.386.43.314 4.642 3.351-6.702 9.282-4.641-3.351a58.218 58.218 0 0 1-.502-.365l-4.615-3.386 6.772-9.231Zm98.193 9.231-4.615 3.386c-.081.06-.161.119-.242.177l-.26.188-4.641 3.351-6.701-9.282 4.641-3.351.431-.314 4.615-3.386 6.772 9.231Zm-79.675 2.331 5.438 1.789.507.164 5.451 1.747-3.494 10.903-5.451-1.747a58.213 58.213 0 0 1-.591-.192l-5.438-1.789 3.578-10.875Zm57.963 10.875-5.437 1.789c-.197.065-.394.129-.592.192l-5.451 1.747-3.494-10.903 5.451-1.747.508-.164 5.437-1.789 3.578 10.875Zm-36.763-5.64 5.724.022h.537l5.724-.022.044 11.449-5.725.021-.217.001h-.094l-.312-.001-5.724-.021.043-11.449Z" clip-rule="evenodd"/>
  <path fill="#F9AE3E" d="M272.237 93.037c.682 1.28 1.14 2.744 1.438 4.404.089.577.746 1.14 1.282 1.118l4.308-.15c.627-.032 1.337.712 1.297 1.338l-.396 5.317a.496.496 0 0 1-.5.494l-5.581.195c-.258.021-.444.166-.5.416-.69 4.122-2.193 7.6-4.522 10.37-1.964 2.37-4.34 4.091-7.129 5.165-.574.214-.288 1.144.439 1.599.481.307.943.672 1.385 1.094 1.062 1.024 2.037 2.524 2.899 4.448l8.771 18.545c.243.503.059.958-.399.981l-3.177-1.679c-.446.01-8.782-10.976-9.479-7.527l-6.829-10.368c-.823-1.884-1.726-3.182-2.753-3.966-1.008-.764-2.425-1.123-4.189-1.062l-8.952.32c-.626.032-1.337-.712-1.297-1.338l.549-7.188a.496.496 0 0 1 .5-.494l14.856-.521c2.79-.098 5.039-.873 6.765-2.304 1.386-1.135 2.394-2.678 3.057-4.622.214-.603-.562-1.517-1.273-1.519l-21.877.771c-.626.033-1.336-.712-1.296-1.338l.396-5.317a.495.495 0 0 1 .499-.493l23.576-.847c.368-.012.585-.304.485-.714-.428-1.844-1.318-3.232-2.657-4.177-1.501-1.058-3.515-1.533-6.059-1.443l-13.92.496c-.626.032-1.337-.713-1.296-1.339l.395-5.316a.496.496 0 0 1 .5-.494l38.71-1.369c.626-.032 1.336.712 1.296 1.338l-.395 5.317a.496.496 0 0 1-.5.494l-8.081.28c-.425.107-.622.575-.346 1.085Z"/>
  <path fill="#F9AE3E" d="m239.721 124.087.53-7.13a.495.495 0 0 1 .499-.493l14.856-.522c2.791-.098 5.039-.872 6.766-2.304 1.386-1.134 2.394-2.677 3.057-4.622.214-.603-.562-1.517-1.273-1.519l-.11-.008c-.006.045.014.064.008.109-.663 1.945-1.671 3.488-3.057 4.623-1.727 1.431-3.995 2.186-6.765 2.303l-14.856.522a.495.495 0 0 0-.5.494l-.549 7.187c-.04.626.683 1.358 1.297 1.339l.097.021Zm1.302-17.192.396-5.239a.495.495 0 0 1 .5-.494l23.576-.847c.368-.011.585-.304.485-.713-.422-1.812-1.293-3.18-2.599-4.118.562.774.976 1.655 1.231 2.733.1.409-.117.701-.485.713l-23.576.847a.495.495 0 0 0-.5.493l-.396 5.317c-.04.626.683 1.358 1.297 1.339l.071-.031Zm1.039-13.771.396-5.239a.495.495 0 0 1 .5-.494l38.632-1.37-.001-.078c.04-.626-.683-1.358-1.296-1.338l-38.71 1.368a.497.497 0 0 0-.5.494l-.396 5.317c-.04.626.684 1.358 1.297 1.338l.078.002Zm21.693 31.581c.285.187.558.387.819.599-.268-.322-.536-.644-.822-.909-.234-.237-.475-.43-.735-.642.099.332.361.699.738.952Zm-9.58 1.53c-.039-.04-.084-.034-.123-.074.516.702 1.02 1.572 1.488 2.635l8.846 19.058c.204.463.691.802 1.131.837l-8.59-18.49c-.823-1.884-1.732-3.215-2.752-3.966Zm20.808-27.671.061.292c.089.577.746 1.139 1.282 1.118l4.231-.152-.001-.078c.04-.626-.683-1.358-1.297-1.338l-4.276.158Z" opacity=".28"/>
  <path fill="#F9AE3E" fill-rule="evenodd" d="M264.218 132.459c1.963-1.002 4.413-.31 5.473 1.546 1.095 1.918 3.429 4.585 6.624 6.119 2.986 1.434 6.918 1.995 11.937-.378 1.995-.943 4.421-.178 5.418 1.708.998 1.886.189 4.179-1.806 5.123-7.407 3.501-14.038 2.838-19.207.356-4.959-2.382-8.373-6.323-10.074-9.3-1.059-1.855-.327-4.172 1.635-5.174Z" clip-rule="evenodd"/>
  <path fill="#F9AE3E" fill-rule="evenodd" d="M262.44 129.259a4.076 4.076 0 0 1 5.099 2.691c.688 2.223 2.446 5.474 5.293 7.707 2.66 2.088 6.438 3.445 11.899 1.942a4.078 4.078 0 0 1 2.163 7.862c-8.062 2.218-14.491.224-19.095-3.388-4.418-3.466-6.983-8.263-8.05-11.715a4.077 4.077 0 0 1 2.691-5.099Z" clip-rule="evenodd"/>
  <path fill="#fff" d="M309.995 29.123c0-.619.491-1.121 1.098-1.123h.009a1.113 1.113 0 0 1 1.099 1.123v1.426c.036 7.722.659 18.627 2.43 27.574.887 4.485 2.048 8.394 3.52 11.156 1.495 2.805 3.123 4.098 4.845 4.098.608 0 1.102.503 1.102 1.123s-.494 1.123-1.102 1.123c-1.722 0-3.35 1.293-4.845 4.098-1.472 2.762-2.633 6.671-3.52 11.156-1.771 8.946-2.394 19.852-2.43 27.574v1.426c0 .619-.492 1.121-1.099 1.123h-.009a1.112 1.112 0 0 1-1.098-1.123v-1.426c-.037-7.722-.66-18.628-2.431-27.574-.887-4.485-2.047-8.394-3.52-11.156-1.495-2.805-3.123-4.098-4.844-4.098a1.113 1.113 0 0 1-1.102-1.123c0-.62.493-1.123 1.102-1.123 1.721 0 3.349-1.293 4.844-4.098 1.473-2.762 2.633-6.671 3.52-11.156 1.771-8.947 2.394-19.852 2.431-27.574v-1.426ZM104.707 159.242c0-.134.397-.242.887-.242h.007c.491 0 .888.108.888.242v.306c.029 1.661.532 4.006 1.962 5.93a7.961 7.961 0 0 0 2.843 2.399c1.208.603 2.523.881 3.914.881.491 0 .89.109.89.242s-.399.242-.89.242c-1.391 0-2.706.278-3.914.881a7.961 7.961 0 0 0-2.843 2.399c-1.43 1.924-1.933 4.269-1.962 5.93v.306c0 .134-.397.242-.888.242h-.007c-.49 0-.887-.108-.887-.242v-.306c-.03-1.661-.533-4.006-1.963-5.93a7.961 7.961 0 0 0-2.843-2.399c-1.208-.603-2.523-.881-3.913-.881-.492 0-.89-.109-.89-.242s.398-.242.89-.242c1.39 0 2.705-.278 3.913-.881a7.961 7.961 0 0 0 2.843-2.399c1.43-1.924 1.933-4.269 1.963-5.93v-.306Z"/>
  <path fill="#21AD63" d="M216.57 279.396a8.609 8.609 0 0 0-4.454-11.329l-11.575-5.041a8.607 8.607 0 0 0-11.329 4.454l-13.513 31.024a8.609 8.609 0 0 0 4.454 11.329l11.574 5.041a8.607 8.607 0 0 0 11.329-4.454l13.514-31.024Z"/>
  <path fill="#F9AE3E" d="m311.505 317.774 8.542-2.572c3.218-.97 4.899-4.496 3.621-7.598l-10.434-25.339c-1.236-3.002-4.742-4.364-7.787-3.224-3.244 1.215-7.064 2.42-10.144 2.821-4.126.537-11.349-2.533-16.41-5.156-2.141-1.11-4.76-.917-6.615.622l-18.189 15.083c-.423.351-.804.755-1.06 1.24-1.161 2.202-1.942 5.983 2.13 7.811 3.777 1.696 8.858-.787 11.999-2.98 1.114-.778 2.414-1.281 3.773-1.281h2.417c1.31 0 2.576.448 3.594 1.27 7.099 5.728 19.612 15.582 23.201 17.478 3.547 1.874 8.001 2.142 10.256 2.029a4.639 4.639 0 0 0 1.106-.204Z"/>
  <path fill="#21AD63" d="M309.895 279.986a8.609 8.609 0 0 1 4.454-11.329l11.574-5.041a8.606 8.606 0 0 1 11.329 4.454l13.507 31.007a8.61 8.61 0 0 1-4.454 11.33l-11.575 5.041a8.608 8.608 0 0 1-11.329-4.454l-13.506-31.008Z"/>
  <path fill="#fff" d="M378.792 250.242c0-.134.359-.242.803-.242h.006c.444 0 .803.108.803.242v.306c.026 1.661.482 4.006 1.776 5.93.648.964 1.496 1.805 2.572 2.399 1.093.603 2.282.881 3.54.881.445 0 .806.109.806.242s-.361.242-.806.242c-1.258 0-2.447.278-3.54.881-1.076.594-1.924 1.435-2.572 2.399-1.294 1.924-1.75 4.269-1.776 5.93v.306c0 .134-.359.242-.803.242h-.006c-.444 0-.803-.108-.803-.242v-.306c-.027-1.661-.482-4.006-1.776-5.93-.649-.964-1.497-1.805-2.573-2.399-1.092-.603-2.282-.881-3.54-.881-.445 0-.805-.109-.805-.242s.36-.242.805-.242c1.258 0 2.448-.278 3.54-.881 1.076-.594 1.924-1.435 2.573-2.399 1.294-1.924 1.749-4.269 1.776-5.93v-.306Z"/>
  <path fill="#85E1B1" fill-rule="evenodd" d="M211.286 268.635c4.054 1.857 5.91 6.819 4.143 11.083l-12.571 30.351a8.496 8.496 0 0 1-1.112 1.931l9.691-23.396c1.767-4.264-.089-9.226-4.143-11.084l-10.768-4.932c-3.38-1.548-7.22-.45-9.428 2.427l2.88-6.955c1.766-4.264 6.485-6.215 10.54-4.357l10.768 4.932Zm114.073-6.025a8.608 8.608 0 0 1 11.318 4.48l13.442 31.055c.314.727.521 1.473.626 2.221l-10.361-23.939a8.609 8.609 0 0 0-11.319-4.481l-11.586 5.015a8.612 8.612 0 0 0-5.107 9.098l-3.08-7.116a8.608 8.608 0 0 1 4.481-11.318l11.586-5.015Z" clip-rule="evenodd"/>
  <path fill="#0C9C50" d="M195.916 293.109c-2.996-2.405-7.169-2.181-9.321.5-2.152 2.68-4.262 5.032 1.529 9.208 2.997 5.344 7.792 3.88 9.587 0 2.151-2.681 1.201-7.303-1.795-9.708Z"/>
  <path fill="#678DFF" d="M194.386 295.526c-2.996-2.405-7.169-2.182-9.321.499s-1.467 6.803 1.529 9.208c2.996 2.405 7.169 2.181 9.321-.499 2.151-2.681 1.467-6.804-1.529-9.208Z"/>
  <path fill="#3C61D1" d="M189.271 298.464c-.633-.508-1.541-.428-2.029.179-.487.607-.369 1.511.264 2.019.633.508 1.541.428 2.028-.179.488-.607.37-1.511-.263-2.019Zm3.661 2.196c-.633-.508-1.541-.427-2.028.18-.487.607-.369 1.511.263 2.019.633.508 1.542.428 2.029-.179.487-.607.369-1.512-.264-2.02Z"/>
  <path fill="#FFCD4C" fill-rule="evenodd" d="M188.635 299c.297 0 .538.239.538.533 0 .326.118.764.42 1.053.27.258.794.495 1.837.237a.534.534 0 1 1 .26 1.035c-1.297.32-2.236.076-2.843-.504-.575-.549-.749-1.303-.749-1.821 0-.294.24-.533.537-.533Z" clip-rule="evenodd"/>
  <path fill="#21AD63" d="M329.478 293.683c2.996-2.405 7.169-2.181 9.321.499 2.152 2.681 4.262 5.033-1.529 9.208-2.997 5.345-7.792 3.881-9.587 0-2.151-2.68-1.201-7.302 1.795-9.707Z"/>
  <path fill="#EAEAEA" fill-opacity=".37" d="M331.009 296.099c2.996-2.405 7.169-2.181 9.321.5 2.152 2.68 1.467 6.803-1.529 9.208-2.996 2.405-7.169 2.181-9.321-.5-2.151-2.68-1.467-6.803 1.529-9.208Z"/>
  <path fill="#000" fill-opacity=".62" d="M336.123 299.037c.633-.508 1.541-.427 2.028.18.488.607.37 1.511-.263 2.019-.633.508-1.541.428-2.029-.179-.487-.608-.369-1.512.264-2.02Z"/>
  <path fill="#000" d="M332.462 301.234c.633-.508 1.541-.428 2.029.179.487.608.369 1.512-.264 2.02s-1.541.427-2.028-.18c-.488-.607-.37-1.511.263-2.019Z"/>
  <path fill="#1AA55B" d="M195.916 293.683c-2.996-2.405-7.169-2.181-9.321.499-2.152 2.681-4.262 5.033 1.529 9.208 2.997 5.345 7.792 3.881 9.587 0 2.151-2.68 1.201-7.302-1.795-9.707Z"/>
  <path fill="#5BCD91" d="M194.386 296.099c-2.996-2.405-7.169-2.181-9.321.5-2.152 2.68-1.467 6.803 1.529 9.208 2.996 2.405 7.169 2.181 9.321-.5 2.151-2.68 1.467-6.803-1.529-9.208Z"/>
  <path fill="#C7D5FF" fill-rule="evenodd" d="M186.189 297.064c1.871-2.554 5.499-2.767 8.104-.476a7.16 7.16 0 0 1 1.805 2.457c-2.589-2.118-6.088-1.855-7.914.638-1.302 1.778-1.409 4.223-.475 6.317a9.626 9.626 0 0 1-.191-.162c-2.605-2.292-3.2-6.22-1.329-8.774Zm143.662 8.454c-2.266-2.584-1.761-6.733 1.127-9.266a7.594 7.594 0 0 1 2.899-1.595c-2.705 2.545-3.132 6.556-.921 9.078 1.578 1.8 4.083 2.367 6.435 1.69a6.123 6.123 0 0 1-.207.187c-2.888 2.533-7.067 2.491-9.333-.094Z" clip-rule="evenodd" style="mix-blend-mode:screen"/>
  <path fill="#000" fill-opacity=".7" d="M189.271 299.037c-.633-.508-1.541-.427-2.029.18-.487.607-.369 1.511.264 2.019.633.508 1.541.428 2.028-.179.488-.608.37-1.512-.263-2.02Z"/>
  <path fill="#000" fill-opacity=".56" d="M192.932 301.234c-.633-.508-1.541-.428-2.028.179-.487.608-.369 1.512.263 2.02.633.508 1.542.427 2.029-.18.487-.607.369-1.511-.264-2.019Z"/>
  <path fill="#FFBD3B" d="M278.098 276c.186.116.394.259.62.424 5.033 3.321 11.764 5.005 14.636 5.581 2.992.6 11.368-1.802 13.162-3.303 1.436-1.201 2.992-.5 3.59 0l2.992 6.906c-3.191 1.001-3.71 1.141-8.975 2.102-6.581 1.201-12.108-1.585-15.555-3.603-3.27-1.915-7.534-5.989-9.85-7.683-.21-.138-.417-.28-.62-.424Zm-53.443 42.998c.096.051.946-.961 0 0l-21.557-9.434c1.044-3.025 3.533-9.586 5.129-11.628 1.995-2.552 11.398 0 9.403 9.075-1.543 7.02 4.221 10.507 7.025 11.987Z"/>
  <path fill="#F5A020" d="M311.354 310.213c-5.21 3.37-15.009.401-19.256-1.505 13.593 14.746 23.221 7.824 27.185 6.621 3.172-.963 4.531-2.809 4.815-3.611L321.549 306c-1.227 0-4.984.843-10.195 4.213Z"/>
  <path fill="#F9AE3E" fill-rule="evenodd" d="M239.415 308.132c2.018 1.607 2.537 4.414 1.348 6.615l4.051-4.784a5.185 5.185 0 0 1 7.344-.588 5.269 5.269 0 0 1 .585 7.394l-4.127 4.874 2.229-2.6a5.185 5.185 0 0 1 7.348-.545 5.27 5.27 0 0 1 .541 7.398l-.426.497a5.181 5.181 0 0 1 4.916.97 5.27 5.27 0 0 1 .665 7.388l-5.268 6.362a5.186 5.186 0 0 1-7.338.67 5.238 5.238 0 0 1-1.868-3.789l3.341-4.251a.586.586 0 0 0-.095-.819.576.576 0 0 0-.813.095l-3.932 5.003a5.186 5.186 0 0 1-5.924-.621 5.246 5.246 0 0 1-1.796-3.632l7.351-9.352a.585.585 0 0 0-.095-.818.576.576 0 0 0-.813.095l-6.04 7.684c.097-.229.211-.454.342-.671l-.221.262a5.187 5.187 0 0 1-7.345.589 5.257 5.257 0 0 1-1.829-4.119l5.582-7.101a.586.586 0 0 0-.094-.819.576.576 0 0 0-.813.096l-4.885 6.214a5.179 5.179 0 0 1-5.26-.719c-2.257-1.797-2.639-5.096-.854-7.368l6.875-8.751a5.185 5.185 0 0 1 7.318-.859Z" clip-rule="evenodd"/>
  <path fill="#fff" d="M216.825 127.616c0-.34.567-.615 1.268-.616h.01c.7.001 1.267.276 1.267.616v.782c.042 4.234.761 10.215 2.804 15.121 1.024 2.459 2.363 4.603 4.062 6.118 1.725 1.538 3.604 2.247 5.59 2.247.702 0 1.272.276 1.272.616 0 .34-.57.616-1.272.616-1.986 0-3.865.709-5.59 2.247-1.699 1.515-3.038 3.659-4.062 6.118-2.043 4.906-2.762 10.886-2.804 15.121v.782c0 .34-.567.615-1.267.616h-.01c-.701-.001-1.268-.276-1.268-.616v-.782c-.042-4.235-.761-10.215-2.804-15.121-1.024-2.459-2.363-4.603-4.062-6.118-1.725-1.538-3.603-2.247-5.59-2.247-.702 0-1.271-.276-1.271-.616 0-.34.569-.616 1.271-.616 1.987 0 3.865-.709 5.59-2.247 1.699-1.515 3.038-3.659 4.062-6.118 2.043-4.906 2.762-10.887 2.804-15.121v-.782Z"/>
  <path fill="#FFCD4C" d="M391.098 4c0-2.21 1.567-4 3.5-4s3.5 1.79 3.5 4-1.567 4-3.5 4-3.5-1.79-3.5-4Zm-31 379c0-1.657 1.791-3 4-3s4 1.343 4 3-1.791 3-4 3-4-1.343-4-3Zm-197-361c0 3.314-2.239 6-5 6-2.762 0-5-2.686-5-6s2.238-6 5-6c2.761 0 5 2.686 5 6Z"/>
  <path fill="#0C1761" fill-rule="evenodd" d="M220.481 239.062a2.001 2.001 0 0 1 .663 2.75l-4.421 7.231a2 2 0 1 1-3.412-2.087l4.421-7.231a2 2 0 0 1 2.749-.663Zm95.817 1.264a2 2 0 0 1 2.768.58l2.614 3.999a2 2 0 0 1-3.348 2.188l-2.614-3.999a2 2 0 0 1 .58-2.768Zm-86.647 2.794a2 2 0 0 1 1.196 2.563l-4.647 12.769a2 2 0 0 1-3.758-1.367l4.646-12.769a2 2 0 0 1 2.563-1.196Zm77.665 1.097a2 2 0 0 1 2.689.875l5.371 10.552a2 2 0 1 1-3.564 1.815l-5.371-10.553a2 2 0 0 1 .875-2.689Z" clip-rule="evenodd"/>
  <path fill="#FFCD4C" d="M405.539 63.226c.491-1.635 2.626-1.635 3.117 0l2.182 7.268c.219.73.848 1.225 1.558 1.225h7.06c1.587 0 2.247 2.199.963 3.208l-5.712 4.492c-.574.452-.814 1.253-.595 1.983l2.182 7.268c.49 1.634-1.237 2.993-2.522 1.983l-5.711-4.492a1.54 1.54 0 0 0-1.926 0l-5.712 4.492c-1.284 1.01-3.012-.349-2.522-1.983l2.182-7.268c.219-.73-.021-1.531-.595-1.983l-5.712-4.492c-1.284-1.009-.624-3.208.963-3.208h7.06c.71 0 1.339-.495 1.559-1.225l2.181-7.268ZM49.872 240.183c.543-1.577 2.908-1.577 3.45 0l2.416 7.018c.243.705.94 1.183 1.726 1.183h7.816c1.757 0 2.488 2.123 1.066 3.098l-6.323 4.337c-.636.436-.902 1.209-.66 1.914l2.416 7.018c.543 1.577-1.37 2.889-2.791 1.914l-6.324-4.337a1.902 1.902 0 0 0-2.133 0l-6.323 4.337c-1.422.975-3.335-.337-2.792-1.914l2.416-7.018c.242-.705-.024-1.478-.66-1.914l-6.323-4.337c-1.422-.975-.691-3.098 1.066-3.098h7.817c.786 0 1.482-.478 1.725-1.183l2.415-7.018Zm405.556 107.043c.526-1.635 2.814-1.635 3.339 0l2.338 7.268c.235.73.909 1.225 1.669 1.225h7.565c1.7 0 2.407 2.199 1.032 3.208l-6.12 4.492a1.785 1.785 0 0 0-.638 1.983l2.338 7.268c.525 1.634-1.326 2.993-2.702 1.983l-6.119-4.492a1.743 1.743 0 0 0-2.064 0l-6.12 4.492c-1.376 1.01-3.227-.349-2.701-1.983l2.337-7.268a1.784 1.784 0 0 0-.638-1.983l-6.119-4.492c-1.376-1.009-.669-3.208 1.032-3.208h7.564c.76 0 1.435-.495 1.67-1.225l2.337-7.268Z"/>
</svg>
