<?xml version="1.0" encoding="UTF-8"?>
<svg width="210mm" height="135mm" fill="none" version="1.1" viewBox="0 0 256 175" xmlns="http://www.w3.org/2000/svg"
   xmlns:cc="http://creativecommons.org/ns#" xmlns:dc="http://purl.org/dc/elements/1.1/"
   xmlns:rdf="http://www.w3.org/1999/02/22-rdf-syntax-ns#" xmlns:xlink="http://www.w3.org/1999/xlink">
   <metadata>
      <rdf:RDF>
         <cc:Work rdf:about="">
            <dc:format>image/svg+xml</dc:format>
            <dc:type rdf:resource="http://purl.org/dc/dcmitype/StillImage" />
            <dc:title />
         </cc:Work>
      </rdf:RDF>
   </metadata>
   <g fill="#28d57a" transform="translate(0 81.197)">
      <circle class="blob" r="1">
         <animateMotion begin="2s" dur="30s" repeatCount="indefinite">
            <mpath xlink:href="#bubble_path_1" />
         </animateMotion>
      </circle>
      <circle class="blob" r="1">
         <animateMotion begin="4s" dur="30s" repeatCount="indefinite">
            <mpath xlink:href="#bubble_path_1" />
         </animateMotion>
      </circle>
      <circle class="blob" r="1">
         <animateMotion begin="6s" dur="30s" repeatCount="indefinite">
            <mpath xlink:href="#bubble_path_1" />
         </animateMotion>
      </circle>
      <circle class="blob" r="1">
         <animateMotion begin="2s" dur="20s" repeatCount="indefinite">
            <mpath xlink:href="#bubble_path_2" />
         </animateMotion>
      </circle>
      <circle class="blob" r="1">
         <animateMotion begin="4s" dur="20s" repeatCount="indefinite">
            <mpath xlink:href="#bubble_path_2" />
         </animateMotion>
      </circle>
      <circle class="blob" r="1">
         <animateMotion begin="6s" dur="20s" repeatCount="indefinite">
            <mpath xlink:href="#bubble_path_2" />
         </animateMotion>
      </circle>
      <circle class="blob" r="1">
         <animateMotion begin="8s" dur="20s" repeatCount="indefinite">
            <mpath xlink:href="#bubble_path_2" />
         </animateMotion>
      </circle>
      <circle class="blob" r="1">
         <animateMotion dur="12s" repeatCount="indefinite">
            <mpath xlink:href="#bubble_path_3" />
         </animateMotion>
      </circle>
      <circle class="blob" r="1">
         <animateMotion dur="12s" repeatCount="indefinite">
            <mpath xlink:href="#bubble_path_4" />
         </animateMotion>
      </circle>
      <circle class="blob" r="1">
         <animateMotion dur="12s" repeatCount="indefinite">
            <mpath xlink:href="#bubble_path_5" />
         </animateMotion>
      </circle>
      <circle class="blob" r="1">
         <animateMotion dur="12s" repeatCount="indefinite">
            <mpath xlink:href="#bubble_path_6" />
         </animateMotion>
      </circle>
   </g>
   <g transform="translate(0 81.197)">
      <g fill="#28D57A">
         <path class="st1" id="bubble_path_1"
            d="m132.13 84.656c2.961 1.709 8.155 1.4916 11.579-0.4847l58.259-33.636c1.784-1.0298 2.806-2.3857 2.806-3.7209 0-1.0954-0.698-2.1017-1.967-2.8336l-59.94-34.607c-2.961-1.7095-8.155-1.4916-11.578 0.48479l-58.259 33.636c-1.7836 1.0297-2.8062 2.3856-2.8062 3.7209 0 1.0949 0.6982 2.1017 1.967 2.8336zm5.02 1.3735c-1.924 0-3.762-0.3877-5.132-1.1789l-59.94-34.606c-1.3411-0.7745-2.0793-1.8496-2.0793-3.0285 0-1.4175 1.0634-2.8449 2.9185-3.9159l58.26-33.636c3.484-2.0128 8.78-2.2293 11.802-0.48475l59.941 34.606c1.34 0.7741 2.079 1.8497 2.079 3.0286 0 1.4174-1.063 2.8443-2.919 3.9159l-58.259 33.635c-1.905 1.1004-4.351 1.6638-6.671 1.6638z" />
         <path class="st1" id="bubble_path_2"
            d="m144.36 90.851c-3.509 2.0255-9.665 1.7679-13.723-0.5744l-69.048-39.865c-2.1139-1.2204-3.3259-2.8275-3.3259-4.41 0-1.2982 0.8281-2.4909 2.3312-3.3583l71.041-41.016c3.509-2.0261 9.665-1.7678 13.722 0.57456l69.048 39.865c2.114 1.2205 3.326 2.8275 3.326 4.41 0 1.2977-0.828 2.4909-2.331 3.3584zm-5.95 1.6279c2.281 0 4.459-0.4595 6.083-1.3972l71.04-41.015c1.589-0.918 2.464-2.1922 2.464-3.5894 0-1.68-1.26-3.3716-3.459-4.641l-69.048-39.864c-4.13-2.3855-10.406-2.6421-13.988-0.57451l-71.041 41.015c-1.5889 0.9174-2.4643 2.1922-2.4643 3.5894 0 1.68 1.2604 3.3711 3.459 4.6411l69.048 39.864c2.258 1.3042 5.157 1.9719 7.906 1.9719z" />
         <path class="st1" id="bubble_path_3"
            d="m165.35 15.743 22.142-13.08 26.925 13.85-0.143 0.2586-26.777-13.772-22 13-2.254 1.2962s-0.278 0.1599-0.651 0.2816c-0.372 0.1217-0.851 0.2172-1.274 0.0415-0.834-0.3469-0.932-1.4311-0.932-1.4311v-0.0092l-0.014-2.7053s-0.025-0.337-0.157-0.7064c-0.132-0.3693-0.367-0.7481-0.766-0.8679-0.458-0.1374-1.024-0.082-1.436 0.1524-0.815 0.4636-2.027 1.1633-2.027 1.1633l-0.148-0.2539s1.211-0.6988 2.027-1.1633c0.494-0.281 1.131-0.3423 1.671-0.1801 0.529 0.1588 0.808 0.6352 0.956 1.048s0.175 0.7894 0.175 0.7894v0.0046l0.014 2.6961s0.121 0.924 0.753 1.1864c0.31 0.1291 0.725 0.0651 1.066-0.0461s0.596-0.2586 0.596-0.2586z" />
         <path class="st1" id="bubble_path_4"
            d="m228.31 9.4516c-0.934 0-1.919 0.22722-2.687 0.67086l-23.996 13.854c-0.725 0.4186-1.141 0.9685-1.141 1.5076 0 0.4403 0.282 0.8464 0.796 1.1424l24.687 14.253c1.212 0.7001 3.339 0.6104 4.741-0.1992l23.995-13.854c0.725-0.4186 1.141-0.9681 1.141-1.5076 0-0.4403-0.283-0.846-0.795-1.142l-24.688-14.253c-0.548-0.31643-1.283-0.47111-2.053-0.47111zm-0.288 32.047c-0.797 0-1.559-0.1609-2.128-0.4891l-24.687-14.253c-0.562-0.3244-0.871-0.7759-0.871-1.2725 0-0.5941 0.443-1.1912 1.216-1.6377l23.996-13.854c1.443-0.83302 3.637-0.92225 4.89-0.19929l24.687 14.253c0.562 0.3248 0.871 0.7764 0.871 1.2725 0 0.5945-0.443 1.1912-1.216 1.6381l-23.996 13.854c-0.788 0.4553-1.801 0.6888-2.762 0.6888z" />
      </g>
      <g filter="url(#filter0_d_49_96)">
         <path
            d="m223.97 22.011c2.496 1.4409 5.57 1.4409 8.065 0l10.968-6.909v9.0089c0 0.9949-0.531 1.9145-1.393 2.4125l-10.199 5.8875c-2.109 1.218-4.708 1.218-6.817 0l-10.198-5.8875c-0.863-0.498-1.393-1.4171-1.393-2.4125v-9.2673z"
            fill="#c3c5ce" />
      </g>
      <path class="bounce"
         d="m223.97 22.011c2.496 1.4409 5.57 1.4409 8.065 0l10.968-6.909v9.0089c0 0.9949-0.531 1.9145-1.393 2.4125l-10.199 5.8875c-2.109 1.218-4.708 1.218-6.817 0l-10.198-5.8875c-0.863-0.498-1.393-1.4171-1.393-2.4125v-9.2673z"
         fill="#c3c5ce" />
      <path class="bounce"
         d="m242.98 15.083c-0.016 0.0769-0.036 0.1539-0.054 0.2313-0.117 0.4621-0.408 0.8948-0.888 1.167l-11.299 6.4763c-1.701 0.9716-3.792 0.9716-5.487 0l-11.305-6.4763c-0.48-0.2722-0.764-0.7049-0.883-1.1731-0.018-0.0713-0.04-0.1482-0.053-0.2252-0.089-0.711 0.219-1.4696 0.936-1.878l2.779-1.5942 5.481-3.1402 3.046-1.7419c1.695-0.97165 3.785-0.97165 5.487 0l11.298 6.4763c0.717 0.4084 1.031 1.167 0.942 1.878"
         fill="#ebf0fc" />
      <g filter="url(#filter1_d_49_96)">
         <path
            d="m191.34 37.617-43.322-24.82c-6.512-3.7307-14.534-3.7299-21.045 0l-43.323 24.822c-2.746 1.5728-3.9441 4.4755-3.5959 7.2098 0.0374 0.2937 0.1356 0.5757 0.2087 0.864 0.4534 1.7901 1.5533 3.4416 3.3872 4.4925l43.322 24.82c6.512 3.7298 14.534 3.7298 21.045-7e-4l43.323-24.821c1.833-1.0509 2.933-2.7024 3.388-4.4926 0.073-0.2875 0.171-0.5702 0.208-0.8639 0.348-2.7344-0.85-5.637-3.596-7.2098z"
            fill="url(#paint0_radial_49_96)" />
      </g>
      <path
         d="m191.34 33.617-43.321-24.819c-6.512-3.7306-14.534-3.7299-21.044 0l-43.323 24.822c-2.4697 1.4146-3.6873 3.9048-3.654 6.3808l-7e-4 5h0.0178c0.0097 0.1393 0.0234 0.2783 0.041 0.4169 0.0263 0.207 0.0829 0.4082 0.1396 0.6099 0.0237 0.0844 0.0475 0.169 0.0691 0.2541 0.4534 1.7902 1.5533 3.4417 3.3872 4.4926l43.322 24.819c6.512 3.7299 14.534 3.7299 21.045-6e-4l43.323-24.821c1.833-1.0508 2.933-2.7024 3.388-4.4926 0.021-0.0834 0.044-0.1665 0.067-0.2495 0.058-0.203 0.115-0.4059 0.141-0.6144 0.018-0.1378 0.031-0.2761 0.041-0.4146h0.018v-0.5053-0.0157-4.479h-2e-3c0.034-2.4768-1.184-4.9681-3.655-6.3832z"
         fill="#c3c5ce" />
      <path
         d="m191.34 33.617-43.321-24.819c-6.512-3.7306-14.534-3.7299-21.044 0l-43.323 24.822c-2.746 1.5728-3.9441 4.4754-3.5959 7.2097 0.0374 0.2937 0.1356 0.5757 0.2087 0.8639 0.4534 1.7902 1.5533 3.4416 3.3871 4.4925l43.322 24.819c6.511 3.7298 14.533 3.7298 21.044-6e-4l43.323-24.821c1.833-1.0509 2.933-2.7024 3.387-4.4925 0.073-0.2875 0.171-0.5703 0.208-0.8639 0.349-2.7344-0.849-5.6369-3.596-7.2098"
         fill="#ebf0fc" />
      <path class="st1" id="bubble_path_5"
         d="m103.7 61.675s-1.074 0.441-2.004 1.1679c-0.93 0.727-1.6985 1.7247-2.126 2.6615-0.4272 0.9363-0.4867 1.7534-0.4916 2.5737-5e-3 0.8203 0.0411 1.6448-0.1639 2.643-0.4026 1.9602-2.3106 3.3101-2.3106 3.3101l-22.778 12.959-37.138-21.322-0.1477 0.2562 37.286 21.405 22.94-13.051 0.0069-0.0047s1.9967-1.3801 2.4306-3.4924c0.2132-1.038 0.1659-1.8929 0.1708-2.7007 0.0049-0.8077 0.0592-1.5666 0.464-2.4537 0.4042-0.8866 1.1522-1.8584 2.0402-2.5529 0.889-0.6945 1.935-1.1265 1.935-1.1265z"
         fill="#28D57A" />
      <path class="st1" id="bubble_path_6"
         d="m27.974 38.096c-0.9335 0-1.9191 0.2272-2.6871 0.6708l-23.995 13.854c-0.72504 0.4186-1.1411 0.9685-1.1411 1.5076 0 0.4402 0.28225 0.8463 0.79549 1.1424l24.688 14.253c1.212 0.7 3.3383 0.6104 4.74-0.1993l23.995-13.854c0.725-0.4186 1.1411-0.9681 1.1411-1.5076 0-0.4403-0.2826-0.846-0.7955-1.142l-24.687-14.254c-0.5479-0.3164-1.2829-0.4711-2.0534-0.4711zm-0.2873 32.047c-0.7975 0-1.5597-0.161-2.128-0.4891l-24.688-14.254c-0.5616-0.3243-0.87053-0.7759-0.87094-1.2724 0-0.5941 0.44361-1.1912 1.2166-1.6377l23.995-13.854c1.4438-0.833 3.6376-0.9222 4.8901-0.1992l24.688 14.253c0.5616 0.3248 0.8705 0.7763 0.8709 1.2725 0 0.5945-0.4432 1.1911-1.2166 1.6381l-23.995 13.854c-0.788 0.4553-1.8007 0.6888-2.7618 0.6888z"
         fill="#28D57A" />
      <g class="bounce-1" filter="url(#filter2_d_49_96)">
         <path
            d="m23.967 50.011c2.4956 1.4409 5.5699 1.4409 8.0654 0l10.967-6.909v9.0089c0 0.9949-0.5306 1.9145-1.3928 2.4125l-10.199 5.8875c-2.1093 1.218-4.7083 1.218-6.8176 0l-10.198-5.8875c-0.8621-0.498-1.3926-1.4171-1.3926-2.4125v-9.2673z"
            fill="#c3c5ce" />
      </g>
      <path class="bounce"
         d="m23.967 50.011c2.4956 1.4409 5.5699 1.4409 8.0654 0l10.967-6.909v9.0089c0 0.9949-0.5306 1.9145-1.3928 2.4125l-10.199 5.8875c-2.1093 1.218-4.7083 1.218-6.8176 0l-10.198-5.8875c-0.8621-0.498-1.3926-1.4171-1.3926-2.4125v-9.2673z"
         fill="#c3c5ce" />
      <path class="bounce"
         d="m42.985 43.083c-0.0157 0.0769-0.0362 0.1539-0.0534 0.2313-0.1177 0.4621-0.4084 0.8948-0.8887 1.167l-11.298 6.4763c-1.7011 0.9716-3.792 0.9716-5.487 0l-11.305-6.4763c-0.4798-0.2722-0.7642-0.7049-0.8827-1.1731-0.0188-0.0713-0.0408-0.1482-0.0534-0.2252-0.0894-0.711 0.2192-1.4696 0.9363-1.878l2.779-1.5942 5.4806-3.1401 3.0457-1.742c1.6949-0.9716 3.7859-0.9716 5.4869 0l11.298 6.4763c0.7172 0.4084 1.0311 1.167 0.9424 1.878"
         fill="#ebf0fc" />
   </g>
   <defs>
      <filter id="filter0_d_49_96" x="201" y="6.844" width="54" height="42.481" color-interpolation-filters="sRGB"
         filterUnits="userSpaceOnUse">
         <feFlood flood-opacity="0" result="BackgroundImageFix" />
         <feColorMatrix in="SourceAlpha" result="hardAlpha" values="0 0 0 0 0 0 0 0 0 0 0 0 0 0 0 0 0 0 127 0" />
         <feOffset dy="4" />
         <feGaussianBlur stdDeviation="6" />
         <feComposite in2="hardAlpha" operator="out" />
         <feColorMatrix values="0 0 0 0 0.560784 0 0 0 0 0.572549 0 0 0 0 0.584314 0 0 0 1 0" />
         <feBlend in2="BackgroundImageFix" result="effect1_dropShadow_49_96" />
         <feBlend in="SourceGraphic" in2="effect1_dropShadow_49_96" result="shape" />
      </filter>
      <filter id="filter1_d_49_96" x="68" y="2" width="139" height="91.803" color-interpolation-filters="sRGB"
         filterUnits="userSpaceOnUse">
         <feFlood flood-opacity="0" result="BackgroundImageFix" />
         <feColorMatrix in="SourceAlpha" result="hardAlpha" values="0 0 0 0 0 0 0 0 0 0 0 0 0 0 0 0 0 0 127 0" />
         <feOffset dy="4" />
         <feGaussianBlur stdDeviation="6" />
         <feComposite in2="hardAlpha" operator="out" />
         <feColorMatrix values="0 0 0 0 0.560784 0 0 0 0 0.572549 0 0 0 0 0.584314 0 0 0 1 0" />
         <feBlend in2="BackgroundImageFix" result="effect1_dropShadow_49_96" />
         <feBlend in="SourceGraphic" in2="effect1_dropShadow_49_96" result="shape" />
      </filter>
      <filter id="filter2_d_49_96" x="1" y="34.844" width="54" height="42.481" color-interpolation-filters="sRGB"
         filterUnits="userSpaceOnUse">
         <feFlood flood-opacity="0" result="BackgroundImageFix" />
         <feColorMatrix in="SourceAlpha" result="hardAlpha" values="0 0 0 0 0 0 0 0 0 0 0 0 0 0 0 0 0 0 127 0" />
         <feOffset dy="4" />
         <feGaussianBlur stdDeviation="6" />
         <feComposite in2="hardAlpha" operator="out" />
         <feColorMatrix values="0 0 0 0 0.560784 0 0 0 0 0.572549 0 0 0 0 0.584314 0 0 0 1 0" />
         <feBlend in2="BackgroundImageFix" result="effect1_dropShadow_49_96" />
         <feBlend in="SourceGraphic" in2="effect1_dropShadow_49_96" result="shape" />
      </filter>
      <radialGradient id="paint0_radial_49_96" cx="0" cy="0" r="1"
         gradientTransform="matrix(0 33.901 -57.5 0 137.5 43.901)" gradientUnits="userSpaceOnUse">
         <stop stop-color="#EFEFF2" offset="0" />
         <stop stop-color="#fff" offset="1" />
      </radialGradient>
   </defs>
   <g class="main_image" transform="translate(80 78.2)">

  <path fill="#EBF0FC" d="M111.343 33.043L68.022 8.224a21.185 21.185 0 00-21.044 0L3.655 33.045C.909 34.618-.29 37.521.059 40.255c.037.294.135.576.208.864.454 1.79 1.554 3.442 3.388 4.493L46.977 70.43a21.186 21.186 0 0021.044-.001l43.323-24.82c1.833-1.052 2.933-2.703 3.387-4.493.073-.288.171-.57.208-.864.349-2.734-.849-5.637-3.596-7.21"/>
  <path fill="#81A0EA" d="M81.474 25.367v-3.23l-.623-.304v4.58c0 .395.212.761.555.959l.435.25a1.104 1.104 0 01-.367-.82V25.367z"/>
  <path fill="#343C6B" d="M68.157 1.621l.504 13.779c0 .947.504 1.823 1.323 2.299l19.608 12.059c.886.515 2.62-.038 2.62-1.458V14.17a2.66 2.66 0 00-1.327-2.301L70.655.169c-1.162-.577-2.498.429-2.498 1.452z"/>
  <path fill="#E2E9FB" d="M69.347.296a1.331 1.331 0 00-1.31 1.332v14.08a2.66 2.66 0 001.324 2.299l20.231 11.75a1.33 1.33 0 001.997-1.15V14.48a2.66 2.66 0 00-1.328-2.302L70.033.477a1.318 1.318 0 00-.686-.18z"/>
  <path fill="#819BEA" d="M69.51 1.76v14.412l20.606 11.969V13.678L69.511 1.76z"/>
  <path fill="#E2E9FB" d="M88.579 18.708v4.81l-3.548-2.06v-4.802l3.548 2.052zM74.237 6.105l4.838 2.798v4.801l-4.838-2.81V6.105z"/>
  <path fill="#3754E0" d="M79.814 9.205l8.765 5.06v.33l-8.765-5.072v-.318z"/>
  <path fill="#E2E9FB" d="M79.814 10.372l8.765 5.06v.33l-8.765-5.072v-.318z"/>
  <path fill="#445393" d="M79.814 11.54l8.765 5.06v.33l-8.765-5.073v-.318z"/>
  <path fill="#E2E9FB" d="M70.833 4.21v.327l2.615 1.51V5.72L70.833 4.21z"/>
  <path fill="#3754E0" d="M70.833 6.61v.325l2.615 1.511v-.328L70.833 6.61z"/>
  <path fill="#FCBAC0" d="M77.12 10.995c-.022-.037-.038-.069-.038-.069.04-.115.367-.41.315-.477-.152-.194-.806.55-.806.55s.07-.2.098-.265c.031-.073.008-.154-.034-.182-.08-.056-.169.041-.186.096l-.242.433a.63.63 0 00-.069.189l-.024.13c-.027.143-.153.406-.186.505l.155.588c.035-.084.438-.58.509-.636.103-.083.213-.168.303-.267 0 0 .22-.233.237-.348a.347.347 0 00-.033-.247"/>
  <path fill="#445393" d="M70.757 28.863s0 .247-.302.469c-.043.031-.1.07-.162.11a4.243 4.243 0 00-.55.447.457.457 0 01-.299.138c-.184.009-.347-.05-.325-.328l.008-.086.005-.045.018-.547c.022.093.152-.27.232-.275.12-.006.104.284.186.207.148-.14.305-.075.709-.282l.078-.012c.313-.037.361.067.393.162l.01.042M73.122 30.136s-.284-.027-.38-.03c-.223-.009-.712-.15-.865-.044-.174.121-.56.221-.565-.103l-.22.071c-.005.07-.024.47-.026.496a.574.574 0 00.08.341c.147.231.602.097.862.044l.777-.104c.282-.057.467-.256.519-.427a.222.222 0 00-.182-.244"/>
  <path fill="#343C6B" d="M69.004 18.986l-.092.337a1.51 1.51 0 00-.047.254c-.039.403-.043.81-.014 1.213l.066.884.2 7.266c-.019.292.955.321.953-.029l.195-7.533.274.108.526 8.506c0 .3.974.328.983-.033 0 0 .287-8.644.321-10 .024-.956-1.712-.7-1.712-.74l.9-.704-2.554.471"/>
  <path fill="#3754E0" d="M71.43 17.534s-3.185.567-3.632-.132c-.2-.313.98-3.515.98-3.515l.283-.35.798.229c.107.03.26-.132.26-.132-.132.429-.817 2.515-.98 3.004-.025.076 2.328.238 2.328.238-.18.05-.206.583-.037.658z"/>
  <path fill="#5278FF" d="M68.987 17.58l-.094 1.623c.043.823 3.356.975 3.62.424.05-.107 0-1.367-.04-2.197-.022-.481.021-.964.132-1.436l.017-.07a1.08 1.08 0 01.559-.717c.407-.211 1.26-.567 1.53-.692.167-.075.313-.194.422-.343l1.347-1.774c.15-.179-.501-.737-.677-.601l-1.56 1.65-.907.3c-.199.065-.412.084-.619.044-.399-.079-.803-.023-.829-.03a1.97 1.97 0 01-.397-.168c-.108-.059-.183-.102-.183-.102l-.017-.007-.555-.296-.044-.023c-.022-.011-.113.03-.205.073-.094.046-.19.093-.223.093a1.306 1.306 0 00-.524-.083c-.53.026-1.059.385-1.034 1.094l.273 2.834c.014.135.016.27.008.405"/>
  <path fill="#FCBAC0" d="M70.023 13.644c0 .26.424.473.949.473.44 0 .815-.153.916-.356a2.063 2.063 0 01-.398-.168l-.183-.102-.017-.007-.554-.296a1.57 1.57 0 00-.25.05 1.019 1.019 0 00-.222.093c-.15.083-.241.192-.241.313M72.043 12.478c-.159.784-.68.86-1.172.622-.546-.263-.881-.906-.914-1.375-.05-.716.402-1.183.995-1.224 1.351-.093 1.146 1.705 1.09 1.977z"/>
  <path fill="#FCBAC0" d="M70.29 12.107l.054 1.56c.003.073.073.141.198.181.216.071.516.041.672-.068.063-.045.092-.096.09-.147l-.052-1.56-.963.034"/>
  <path fill="#343C6B" d="M70.911 11.498a.812.812 0 00.67.33c.078-.002.154-.195.254-.308.064-.074.163-.07.203-.106.175-.155.203-.72-.19-.945a1.52 1.52 0 00-1.04-.174c-.04.007.212.128.18.153-.306.235-.34.705-.077 1.05z"/>
  <path fill="#343C6B" d="M70.753 12.671l.115-.464a.757.757 0 01.5-.537l.467-.15c-.028.393-.196.717-.558 1.1-.175.184-.363.296-.543.336l-.002-.075a.795.795 0 01.021-.21"/>
  <path fill="#343C6B" d="M70.808 10.295c.567-.052 1.031.415 1.032 1.101 0 .042-.003.083-.005.123l-.466.152a.753.753 0 00-.5.536l-.116.464a.76.76 0 00-.022.21l.002.075c-.348.078-.747-.181-.882-.668-.07-.255-.692-1.844.957-1.993"/>
  <path fill="#FCBAC0" d="M71.656 12.313c.13.162.15.36.046.445-.104.084-.295.022-.425-.139-.13-.16-.15-.36-.046-.444.104-.085.295-.023.425.138"/>
  <path fill="#F8AFAC" d="M81.291 25.81l-.213 3.565c-.01.196-.044.39-.098.576l-.846 3.243a.865.865 0 01.344-.132 1.81 1.81 0 01.104-.004h.06a.236.236 0 01.218.161l.01.042s0 .239-.294.454c-.041.031-.098.07-.157.107-.167.105-.32.226-.464.362a.442.442 0 01-.29.134.3.3 0 01-.314-.319l.007-.083.005-.043.006-.042c.01-.074.023-.157.036-.235.029-.176.046-.351.054-.529.038-.767.163-2.704.49-3.775l-.456-3.872 1.798.39"/>
  <path fill="#FEC7C4" d="M82.506 34.478l-.575-.047a.559.559 0 01-.405-.185.216.216 0 01-.048-.194c.319-1.383 1.907-8.744 1.115-10.416-.886-1.866-2.806-.381-2.806-.381s-.577 1.368-.293 2.165c.255.716 1.371 1.014 1.371 1.014l.198 3.235c-.192 1.16-.361 4.71-.423 5.051-.028.155.004.371.069.468.144.215.47.14.723.088l.746-.147c.275-.055.454-.248.504-.415a.215.215 0 00-.176-.236"/>
  <path fill="#535873" d="M80.86 33.22l.01.041s0 .145-.14.311l.032-.476a.23.23 0 01.098.124"/>
  <path fill="#343C6B" d="M80.87 33.261s0 .239-.294.454c-.041.031-.098.07-.157.107a2.99 2.99 0 00-.463.362.442.442 0 01-.29.134c-.18.01-.337-.048-.315-.319l.007-.083.005-.043.006-.042c.021.09.121.114.199.11a.458.458 0 00.3-.107c.144-.136 1.17-.721.535-.76l.074-.012c.305-.036.352.065.383.157l.009.042"/>
  <path fill="#5278FF" d="M79.494 25.42c-.112-.316-.09-.721-.02-1.096.103-.57.313-1.07.313-1.07s1.848-1.447 2.805.382a2.2 2.2 0 01.2.687c.416 2.703-1.27 9.702-1.27 9.702-.026.049-.09.083-.171.105l-.047.01c-.216.04-.525-.004-.64-.142 0 0 .284-3.634.399-4.33l-.005-.087a2.543 2.543 0 01-.078.37l-.769 3.02a.45.45 0 01-.223.11l-.049.01c-.18.034-.398.016-.495-.116 0 0-.028-2.667.506-3.683l-.456-3.872"/>
  <path fill="#3754E0" d="M80.995 28.37l-.15-2.619-.583-.256.733 2.875z"/>
  <path fill="#343C6B" d="M82.506 34.478l-.369-.03c.147.041.196.175.048.278-.169.116-1.54.309-1.545-.006-.006.062-.009.111-.01.136a.556.556 0 00.079.331c.142.224.47.14.723.089l.746-.147c.275-.056.454-.249.504-.415a.215.215 0 00-.176-.236M82.116 22.223s-2.916.59-3.342-.043c-.19-.284.864-3.395.864-3.395l.215-.184.739.193c.098.025.236-.126.236-.126-.112.396-.699 2.328-.837 2.781-.022.07 2.144.17 2.144.17-.164.049-.176.54-.02.605"/>
  <path fill="#FBB2B8" d="M80.866 18.69c.151.17.363.28.596.303.102 0 .2-.013.294-.038.177-.049.48-.147.632-.199-.05-.031-.102-.064-.155-.094l-.182-.106-.665-.383-.417.145c-.155.054-.213.251-.103.373"/>
  <path fill="#FEC7C4" d="M82.704 17.456c-.193.807-.737.865-1.235.602-.557-.293-.88-.97-.897-1.457-.025-.743.46-1.21 1.074-1.231 1.403-.047 1.125 1.807 1.058 2.086z"/>
  <path fill="#FBB2B8" d="M80.902 17.008v1.618c0 .075.07.148.198.195.221.081.532.06.698-.047.067-.043.1-.096.1-.148l.002-1.618h-.998M85.325 21.65l.312.505c.183-.127.295-.21.295-.21.085-.022.273-.066.448-.155a.417.417 0 00.119-.647l-.03-.035s.216-.198.268-.243c.058-.05.082-.107.059-.149-.046-.082-.13-.044-.202.005-.133.091-.535.36-.535.36a.587.587 0 00-.14.134l-.075.103a.774.774 0 01-.328.252s-.073.032-.19.08"/>
  <path fill="#343C6B" d="M79.697 21.311l-.103-.859-.14-1.17c-.006-.824.558-1.157 1.125-1.082.11.014.218.041.324.087.044.018.383-.168.427-.146l.056.032.525.303.14.08.182.106c.052.03.104.062.155.094l.033.019c.257.157.467.301.625.475.155.172.257.373.292.64 0 0 .245 2.061.29 2.296.02.098 1.956-.648 1.956-.648.127.046.282.343.251.474 0 0-2.182 1.594-2.902 1.067-.062-.046-.133-.206-.206-.428-.028.63.114 1.143.091 1.25-.778.58-3.032.436-3.288-.19-.035-.085.154-.68.212-.934.11-.484.014-.972-.046-1.465"/>
  <path fill="#FF4A59" d="M82.724 15.622c-.365-.498-1.774-.809-2.743-.058-.05.038-.091.085-.147.114-.244.13-.462.361-.601.67-.12.27-.162.552-.137.814a.441.441 0 01-.112.334c-.068.078-.127.17-.174.274-.194.431-.115.92.166 1.163a.576.576 0 00.255.135c-.048.334.047.658.26.843.034.03.071.057.11.078.308.169.688.038.932-.288l.034.021c.507.278 1.159-.031 1.456-.69.192-.428.189-.9.02-1.253a1.089 1.089 0 00-.093-.16c.176-.175.313-.388.406-.605a.475.475 0 01.194-.228l.05-.033c.341-.24.402-.752.124-1.131"/>
  <path fill="#FEC7C4" d="M82.31 17.272c.128.172.142.379.031.462-.111.084-.306.013-.435-.159-.129-.171-.143-.378-.031-.462.111-.084.306-.012.435.16z"/>
  <g>
    <path fill="#BCBBB8" fill-rule="evenodd" d="M59.837 35.842l.937-.544-.254.873-.938.545.255-.874z" clip-rule="evenodd"/>
    <path fill="#141E2C" fill-rule="evenodd" d="M69.184 40.574l.937-.544.246 1.945-.937.544-.246-1.945z" clip-rule="evenodd"/>
    <path fill="#CDCAC9" fill-rule="evenodd" d="M59.069 34.617l.937-.544L70.12 40.03l-.937.544-10.115-5.957z" clip-rule="evenodd"/>
    <path fill="#1D3459" fill-rule="evenodd" d="M69.184 40.574l.246 1.945-.77-.445-.249-1.165-8.574-5.067-.255.874-.77-.444.257-1.655 10.115 5.957z" clip-rule="evenodd"/>
    <path fill="#141E2C" fill-rule="evenodd" d="M53.75 39.378l.938-.544-.255.874-.937.544.254-.874zM63.097 44.11l.937-.545.246 1.946-.936.544-.247-1.945" clip-rule="evenodd"/>
    <path fill="#CDCAC9" fill-rule="evenodd" d="M52.983 38.153l.936-.545 10.115 5.957-.937.545-10.114-5.957z" clip-rule="evenodd"/>
    <path fill="#1D3459" fill-rule="evenodd" d="M63.097 44.11l.247 1.945-.771-.445-.249-1.165-8.574-5.067-.254.874-.77-.445.257-1.654 10.114 5.957z" clip-rule="evenodd"/>
    <path fill="#C4E9E2" fill-rule="evenodd" d="M53.989 39.075v.092l-.001.008-.012.079v.009l-.02.07v.012l-.023.06v.007l-.034.061v.007l-.033.043-.013.014-.031.03-.014.012-.048.034 7.607-4.42.048-.035.013-.011.032-.03.012-.014.033-.043v-.01l.032-.058v-.008l.017-.04.01-.02V34.9l.011-.042v-.041l.01-.04v-.023l.001-.008v-.092l-7.606 4.42" clip-rule="evenodd"/>
    <path fill="#DEDDDB" fill-rule="evenodd" d="M54.002 35.531l-.014 3.545 7.607-4.42.013-3.545-7.606 4.42" clip-rule="evenodd"/>
    <path fill="#FCFCFD" fill-rule="evenodd" d="M53.332 34.198l.01.007.072.062.01.008.069.07.01.005.07.08.002.002c.044.054.086.111.127.17l.034.055.028.045.013.022.042.078v.008l.045.097v.006l.04.096v.006l.035.1v.007l.026.096v.009l.02.099v.002l.012.098V35.531l7.607-4.42v-.079l-.002-.018v-.063l-.01-.042v-.003l-.01-.039-.01-.044v-.025l-.01-.018-.012-.045-.01-.032v-.012l-.014-.043-.015-.043v-.015l-.01-.027-.016-.04-.013-.03v-.011l-.019-.04-.022-.045v-.015l-.018-.035-.024-.043-.013-.022v-.009l-.023-.037-.034-.053-.01-.009-.053-.075-.037-.05-.03-.037-.001-.001-.033-.039-.033-.036v-.005l-.01-.006-.023-.024-.036-.036-.01-.01-.01-.008-.018-.016-.037-.032-.016-.014-.01-.007-.013-.01-.037-.028-.027-.02v-.006l-.036-.023-.036-.022-.01-.005-.017-.01-.026-.014-.035-.018-.023-.01-.01-.004-.01-.002-.034-.015-.034-.012-.01-.002-.01-.002-.023-.008-.035-.009-.017-.003-.01-.002-.01-.003-.037-.006-.023-.002h-.01l-.01-.001-.04-.001h-.031l-.013.001-.048.007-.011.004-.047.013v.001l-.064.03-7.607 4.42.064-.029.05-.015.01-.003.064-.008h.013l.064.001h.01l.07.012.01.002.074.02.01.002.079.032.01.002.083.044.017.009.084.053v.003l.076.058" clip-rule="evenodd"/>
    <path fill="#E9E8E7" fill-rule="evenodd" d="M53.167 34.084l-.017-.009c-.463-.268-.84-.053-.841.48l-.013 3.544c0 .531.373 1.179.835 1.447l.017.009c.462.267.84.053.84-.479l.015-3.544c0-.532-.372-1.18-.836-1.447M60.401 28.247l-1.14 6.392-.014.087v.042l-.01.07V34.985l.01.076.01.06.016.07.014.052.024.062.019.045.034.056.023.037.046.052.024.024.082.06 7.407 4.305c.016-.31.042-.572.071-.73l1.14-6.393v-.011l-7.753-4.503" clip-rule="evenodd"/>
    <path fill="#FCFCFD" fill-rule="evenodd" d="M69.759 31.104l-7.612-4.423-.01-.004-.024-.011-.024-.013-.027-.01-.024-.009-.03-.008-.025-.006-.027-.003-.032-.004h-.064l-.019.001-.05.006-.01.001-.017.004-.06.013-.015.003-.032.009-.02.006-.09.032-.019.008-.02.01-.104.053-.087.055-.03.022-.056.04-.033.027-.051.043-.035.032-.047.044v.003l-.01.009-.091.096-.014.015-.016.02-.046.056-.02.024-.013.018-.034.046-.021.029-.014.021-.026.04-.02.028-.018.03-.022.036-.013.02-.025.045-.017.031-.01.01-.044.087v.003l-.04.085v.012l-.013.033-.02.046-.01.023-.014.042-.012.031-.01.032-.014.047-.01.025-.01.031-.016.064-.01.026-.012.06 7.753 4.506c.111-.604.53-1.21.993-1.478.082-.047.163-.083.254-.11.053-.016.178-.037.357-.06" clip-rule="evenodd"/>
    <path fill="#DEDDDB" fill-rule="evenodd" d="M69.401 31.164l-.02.006c-.078.025-.156.06-.233.104-.465.27-.886.88-.994 1.488l-1.141 6.393c-.127.707.218 1.143.77.97l.02-.005c.079-.024.156-.06.233-.103.466-.27.887-.881.995-1.488l1.142-6.393c.126-.708-.22-1.143-.772-.971" clip-rule="evenodd"/>
    <path fill="#F3F3F3" fill-rule="evenodd" d="M66.967 39.507l-7.448-4.328-.01-.003-.052-.025-.01-.004-.017-.006-.026-.009-.03-.007-.018-.004-.01-.002-.062-.008h-.064l-.017.002-.03.003-.029.003-.025.005-.042.009-.023.005-.023.008-.073.025-.025.008-.026.012-.024.01-.094.05 7.612 4.423v-.003l.034-.015v-.001h.001l.045-.018h.001v-.002h.001l.052-.017.01-.004h.001v-.001l.053-.015v-.001l.001-.001.014-.004v-.002h.001v-.001l.044-.012v-.002h.001v-.002l.032-.008.067-.017v-.001l.027-.007.013-.003.036-.009.014-.003.013-.003.041-.01.014-.003" clip-rule="evenodd"/>
    <path fill="#E9E8E7" fill-rule="evenodd" d="M61.424 43.71l-7.616-4.414v.026c0 .12.016.229.046.322a.73.73 0 00.077.165l.051.067.125.103 7.425 4.316c.485-.064.458-.283-.108-.576v-.009" clip-rule="evenodd"/>
    <path fill="#F3F3F3" fill-rule="evenodd" d="M62.872 41.703l-3.164-2.129-4.878-2.047-.098.062-.031.023-.064.048-.035.03-.058.05-.035.032-.022.02-.022.024-.068.073-.022.023-.017.02-.04.05-.026.032-.02.026-.029.04-.02.026-.03.047-.02.029-.011.012-.053.087v.006l-.01.018-.034.063-.016.03-.015.03-.013.027-.034.072-.01.013v.003l-.037.092-.01.017-.012.034-.016.046-.01.036-.014.043-.01.026-.012.047-.013.052v.019l-.01.037-.014.082V39.297l7.616 4.426v-.004c0-.65.456-1.443 1.022-1.77l.425-.246" clip-rule="evenodd"/>
    <path fill="#FCFCFD" fill-rule="evenodd" d="M62.442 41.951l-7.612-4.424 3.959-2.277 7.612 4.424-3.954 2.274v.003" clip-rule="evenodd"/>
    <path fill="#DEDDDB" fill-rule="evenodd" d="M62.866 44.138v.101l-.013.078v.01l-.018.07v.012l-.023.06v.006l-.033.061-.01.008-.032.042-.013.014-.032.031-.013.011-.048.034 7.607-4.42.048-.034.014-.011.03-.031.014-.014.032-.043.01-.007v-.002l.032-.057V40.048l.017-.04.01-.02v-.024l.01-.043v-.04l.01-.04v-.122l-7.606 4.42" clip-rule="evenodd"/>
    <path fill="#DEDDDB" fill-rule="evenodd" d="M62.88 40.594l-.014 3.544 7.607-4.42.013-3.544-7.607 4.42" clip-rule="evenodd"/>
    <path fill="#FCFCFD" fill-rule="evenodd" d="M62.208 39.26l.01.008.072.062.01.008.07.07.01.006.071.08c.046.055.088.112.128.172l.034.054.027.045.013.022.042.079v.008l.046.097v.005l.038.096v.006l.034.1v.007l.026.096v.01l.019.098v.002l.013.098V40.594l7.607-4.42v-.098l-.002-.007v-.055l-.01-.042v-.003l-.01-.039-.01-.044v-.043l-.012-.045-.01-.032v-.012l-.014-.043-.015-.043v-.014l-.01-.027-.016-.04-.013-.03v-.012l-.018-.04-.022-.044v-.015l-.018-.035-.024-.043-.012-.022v-.01l-.023-.036-.034-.054v-.008l-.053-.076-.037-.049-.031-.038v-.001l-.033-.038-.032-.037-.01-.005-.01-.006-.024-.024-.035-.035-.012-.01-.01-.008-.018-.017-.037-.032-.016-.013-.01-.007-.012-.01-.037-.028-.026-.02v-.006l-.035-.023-.036-.023-.01-.005-.016-.008-.026-.015-.034-.018-.022-.01-.01-.004-.01-.002-.034-.014-.034-.013-.01-.002-.01-.002-.023-.008-.035-.009-.016-.003-.01-.002-.01-.003-.037-.006-.022-.002h-.01l-.01-.002h-.07l-.013.001-.048.007-.011.004-.047.013v.002l-.064.03-7.607 4.42.064-.03.051-.014.011-.003.062-.008h.077l.01.001.07.011.01.002.073.02v.002l.08.032.01.002.082.044.016.009.084.053.01.004.075.057" clip-rule="evenodd"/>
    <path fill="#E9E8E7" fill-rule="evenodd" d="M62.043 39.147l-.016-.009c-.462-.268-.84-.053-.84.48l-.015 3.543c0 .533.373 1.18.836 1.447l.016.01c.463.267.84.053.842-.48l.013-3.544c0-.532-.373-1.18-.836-1.447" clip-rule="evenodd"/>
    <path fill="#858789" fill-rule="evenodd" d="M61.087 35.488l.022-.101-.258-.204-.026.118-.01.019-.043.11-.01.01-.063.117v.002l-.08.113v.003l-.088.101-.01.01-.09.08-.02.016-.074.052-.034.023-.108.054.258.204.108-.055.034-.022.05-.033.024-.018.02-.018.023-.017.05-.046.016-.017.01-.009.016-.016.037-.041.033-.04v-.006l.026-.034.029-.041.024-.038v-.005l.026-.044.025-.048.012-.023v-.01l.01-.017.023-.058.012-.035.01-.018.01-.017" clip-rule="evenodd"/>
    <path fill="#858789" fill-rule="evenodd" d="M61.109 35.387l-.259-.204.41-2.93.258.203-.41 2.93z" clip-rule="evenodd"/>
    <path fill="#53AEB3" fill-rule="evenodd" d="M61.518 32.456l-.258-.203.204-.082.258.203-.204.082" clip-rule="evenodd"/>
    <path fill="#251612" fill-rule="evenodd" d="M63.198 28.38c-.426-.089-.743-.072-.913.103-.752.773-.514 2.53-1.124 3.157l.857.217 1.543-2.098-.363-1.378z" clip-rule="evenodd"/>
    <path fill="#202F40" fill-rule="evenodd" d="M62.988 31.94c.602.47.926 1.037.696 1.13-.23.094-.904-.212-1.505-.684-.6-.472-.902-.929-.671-1.023.23-.092.88.104 1.48.576z" clip-rule="evenodd"/>
    <path fill="#EB6" fill-rule="evenodd" d="M58.76 32.795l.077.184v.166l-.254.13-.1-.096c-.252-.265 0-.288.282-.384" clip-rule="evenodd"/>
    <path fill="#CBE3F5" fill-rule="evenodd" d="M59.068 33.822c.127-.17.19-.408.22-.547.6.193 2.128.595 1.671 1.257-.336.485-1.515-.465-1.891-.71z" clip-rule="evenodd"/>
    <path fill="#EB6" fill-rule="evenodd" d="M63.224 30.578c-.083.194-.381.608-.296 1.172l-1.292.446.171-.489c.203-.41.29-.667.303-1.077l1.114-.052" clip-rule="evenodd"/>
    <path fill="#FCD797" fill-rule="evenodd" d="M62.414 28.545c-.499.545-.38.986-.508 1.472-.068.257-.026.48.011.64.052.23.14.35.26.408.23.11 1.312-.178 1.437-.5l.484-1.243-1.684-.777z" clip-rule="evenodd"/>
    <path fill="#CBE3F5" fill-rule="evenodd" d="M62.957 31.603c.022.115-.06.25-.027.344.085.235.324.381.515.572.497.495-.185 1.46-.648 2.097a2.547 2.547 0 00-.428.908c-.043.168-.081.298-.041.474.58 2.55-2.533 3.617-2.77 1.83-.067-.508.108-1.195.722-2.182.223-.358.287-1.681.248-2.073a1.374 1.374 0 01-.053-.891c.098-.338.227-.303.495-.694.157-.228.267-.422.422-.54.107-.082.331-.032.522-.052-.046.154-.097.432-.074.624.147-.069.8-.258 1.117-.417" clip-rule="evenodd"/>
    <path fill="#EB6" fill-rule="evenodd" d="M56.767 38.66c-.168 1.113-.14 2.222-.245 3.377l.455.541c.424-1.712.9-2.62.966-3.62.038-.581.072-.956.11-1.24.101-.998-1.16.101-1.286.942z" clip-rule="evenodd"/>
    <path fill="#FCD797" fill-rule="evenodd" d="M57.88 38.065c-.074.526.032.802-.027 1.193-.166 1.112-.138 2.222-.243 3.377l.454.54c.424-1.71.9-2.619.966-3.62.035-.527.065-.884.1-1.159.312-2.486-1.137-1.438-1.25-.331" clip-rule="evenodd"/>
    <path fill="#202F40" fill-rule="evenodd" d="M61.948 38.498c-.653.524-1.893.374-2.868 1.06l-.031.024-.01.004-.017.013-.01-.002c-.244.09-.914-.115-1.538-.477-.602-.346-.953-.717-.843-.872.114-.282.217-.56.504-.73.503-.3 2.376-1.404 2.849-1.453.095-.138.18-.298.272-.442l1.991-.12c.054.327.183.646.237 1.054.081.618-.056 1.55-.541 1.94" clip-rule="evenodd"/>
    <path fill="#202F40" fill-rule="evenodd" d="M60.322 35.508c.204-.534.148-1.416.102-1.884a1.529 1.529 0 01-.068-.936c.098-.338.296-.322.563-.713.157-.228.372-.456.527-.574.073-.055.188-.043.314-.032-.204.146-.526.817-.621 1.317.592-.141 1.397-.443 1.699-.68.073-.058.079.01.128-.028.24.243.274.336.48.541a.564.564 0 01.121.175c-.075-.126-.207-.192-.44-.143-.46.096-.626.769-.684 1.367-.04.409.043.713.379.778-.222.376-.403.707-.397.943.01.332.09.666.085 1.077-.122.492-2.133-.393-2.188-1.208z" clip-rule="evenodd"/>
    <path fill="#DDF0FB" fill-rule="evenodd" d="M62.944 32.826c-.407.62-.273 2.295-.253 3.1l.574.205.146-.145c.156-.814.435-2.013.407-2.763-.011-.31-.174-.58-.4-.605-.165-.019-.386.073-.474.208zM62.987 31.606c-.4.166-.751.21-1.143.398l-.078.473c.44-.287.755-.326 1.234-.543l-.014-.328" clip-rule="evenodd"/>
    <path fill="#251612" fill-rule="evenodd" d="M63.267 30.333c.063-.282.22-.283.285-.255.103.045.102.152.048.273-.049.112-.104.278-.203.373-.068.065-.089-.042-.148-.017-.359.36-.636 1.14-.82 1.362 1.088.204 1.598-.689 1.856-2.177.14-.814-.17-1.636-1.264-1.63-.239-.013-.587.052-.765.39-.368.694.872 1.053 1.012 1.681" clip-rule="evenodd"/>
    <path fill="#DDF0FB" fill-rule="evenodd" d="M61.976 31.328c-.039.115-.103.349-.122.687-.134.059-.271.153-.41.204.105-.362.145-.505.29-.849l.242-.042" clip-rule="evenodd"/>
    <path fill="#E6EFEE" fill-rule="evenodd" d="M60.351 33.512l-2.178-1.662.774 2.907 2.178 1.662-.774-2.907z" clip-rule="evenodd"/>
    <path fill="#FCD797" fill-rule="evenodd" d="M61.191 34.803c-.115-.039-.154-.23-.243-.298-.089-.069-.312-.142-.387-.174l.044.171.104.077.042.088c-.051.033-.155.027-.207.027-.17 0-.182-.073-.284-.149a2.142 2.142 0 00-.044.287c-.01.09-.014.11.038.182.077.104.154.19.303.294l.469-.07.165.107v-.542" clip-rule="evenodd"/>
    <path fill="#DDF0FB" fill-rule="evenodd" d="M63.084 35.46c-.657-.25-1.228-.438-1.935-.69-.035.189-.061.303-.081.516.571.318 1.065.629 1.692.913.334.151.54.013.626-.16.095-.192.038-.45-.302-.578" clip-rule="evenodd"/>
    <path fill="#FCD797" fill-rule="evenodd" d="M58.396 33.122c-.09.09-.096.122-.01.192.065.05.13.072.202.095.097.031.09.009.195-.029l.098-.045c-.07-.127-.073-.114-.262-.082l-.227-.131" clip-rule="evenodd"/>
    <path fill="#FCD797" fill-rule="evenodd" d="M58.371 33.296c0 .076-.01.108 0 .133l.103.117.134.035h.078c.073-.002.156-.033.227-.055-.073-.183-.095-.134-.303-.115l-.237-.115" clip-rule="evenodd"/>
    <path fill="#FCD797" fill-rule="evenodd" d="M58.452 33.475c-.01.065-.025.124-.02.145l.042.066.112.033.065.003c.062 0 .133-.023.192-.039-.056-.157-.075-.116-.25-.108l-.141-.1M58.329 33.016l.06.1c.059.057.097.094.131.11.082.037.22-.02.3-.044.01-.13-.08-.126-.232-.118-.041-.048-.104-.13-.174-.118-.028.005-.071.018-.085.07M57.701 42.038c-.065.382-.356 1.644-.5 1.934-.067.133-.139.284-.296.494l.37.2.632-.086s.367-.915.373-.97c.066-.618.392-.517.089-1.023-.135-.225-.062-.506-.03-.75l-.638.2" clip-rule="evenodd"/>
    <path fill="#1E335B" fill-rule="evenodd" d="M57.054 44.244c-.127.224-.253.265-.258.399-.01.176.348.226.467.233.173.01.513-.103.668-.26.096-.367.244-.673.378-1.027l-.098.898h.082a7.99 7.99 0 01.243-.96c.035-.108.098-.21.111-.27.059-.261-.123-.458-.252-.668-.153.476-.372 1.579-.879 1.756-.172.06-.39-.018-.462-.101z" clip-rule="evenodd"/>
    <path fill="#EB6" fill-rule="evenodd" d="M56.643 41.391c-.064.382-.355 1.645-.5 1.934-.068.133-.14.285-.297.495l.37.199.633-.086s.367-.915.372-.969c.066-.618.393-.518.09-1.024-.135-.225-.062-.505-.03-.75l-.639.201" clip-rule="evenodd"/>
    <path fill="#162842" fill-rule="evenodd" d="M55.996 43.597c-.127.224-.254.265-.257.4-.01.175.347.225.466.232.173.011.513-.103.668-.26.096-.366.243-.672.379-1.026l-.1.897h.083c.058-.32.155-.691.243-.96.035-.107.097-.209.111-.269.058-.261-.123-.459-.252-.669-.154.476-.372 1.58-.88 1.757-.17.06-.39-.019-.462-.102" clip-rule="evenodd"/>
    <path fill="#BCBBB8" fill-rule="evenodd" d="M37.649 35.81l-.938-.545.256.874.936.545-.254-.874z" clip-rule="evenodd"/>
    <path fill="#CDCAC9" fill-rule="evenodd" d="M38.416 34.584l-.936-.544-10.115 5.957.937.545 10.114-5.958z" clip-rule="evenodd"/>
    <path fill="#141E2C" fill-rule="evenodd" d="M28.302 40.542l-.246 1.944.77-.444.249-1.165 8.574-5.067.254.874.77-.445-.257-1.655-10.114 5.958z" clip-rule="evenodd"/>
    <path fill="#1D3459" fill-rule="evenodd" d="M43.735 39.346l-.937-.545.254.874.938.544-.255-.873zM34.388 44.077l-.936-.544-.246 1.945.936.544.246-1.945z" clip-rule="evenodd"/>
    <path fill="#CDCAC9" fill-rule="evenodd" d="M44.503 38.12l-.937-.544-10.114 5.957.936.544 10.115-5.957z" clip-rule="evenodd"/>
    <path fill="#141E2C" fill-rule="evenodd" d="M34.388 44.077l-.246 1.945.77-.444.249-1.165 8.574-5.067.255.873.77-.444-.257-1.655-10.115 5.957z" clip-rule="evenodd"/>
    <path fill="#C4E9E2" fill-rule="evenodd" d="M43.497 39.044v.1l.012.078v.01l.018.069v.013l.024.06v.007l.033.06.01.008.033.043.013.014.03.03.014.012.049.033-7.607-4.42-.048-.033-.013-.012-.032-.031-.013-.014-.033-.042-.01-.008v-.002l-.031-.057v-.01l-.018-.038-.01-.02v-.024l-.01-.043v-.041l-.01-.04v-.031l-.001-.01v-.082l7.606 4.42" clip-rule="evenodd"/>
    <path fill="#E9E8E7" fill-rule="evenodd" d="M43.483 35.499l.014 3.545-7.606-4.42-.014-3.545 7.606 4.42" clip-rule="evenodd"/>
    <path fill="#FCFCFD" fill-rule="evenodd" d="M44.154 34.166l-.01.007-.071.062-.01.008-.069.07-.01.006-.071.08a2.018 2.018 0 00-.128.173l-.034.054-.027.045-.013.022-.042.078v.009l-.046.096v.006l-.039.096v.007l-.034.1v.006l-.026.096v.01l-.019.097v.003l-.012.099V35.5l-7.607-4.42v-.098l.001-.007v-.015l.01-.04.01-.043v-.003l.01-.04.01-.043v-.043l.013-.045.01-.032v-.011l.014-.044.015-.043v-.015l.01-.027.017-.04.013-.03v-.01l.018-.04.02-.045v-.015l.019-.035.024-.043.013-.023v-.008l.024-.036.034-.054.01-.009.053-.076.038-.048.03-.04.033-.038.032-.036.01-.006.01-.006.023-.025.035-.035.01-.01.01-.008.019-.016.037-.033.016-.013.01-.007.012-.01.037-.028.027-.019v-.007l.036-.024.035-.021.01-.005.017-.01.026-.014.034-.018.022-.01.01-.003.01-.003.034-.014.034-.013.01-.002v-.002l.023-.007.035-.01.016-.004.01-.002.01-.002.038-.005.022-.003h.01l.01-.002h.07l.014.001.048.007.011.003.047.014v.002l.064.029 7.607 4.42-.064-.029-.051-.015-.011-.003-.063-.008h-.077l-.01.001-.07.01-.01.003-.072.02-.01.002-.08.032-.01.003-.083.043-.016.01-.084.053v.004l-.076.057" clip-rule="evenodd"/>
    <path fill="#DEDDDB" fill-rule="evenodd" d="M44.32 34.052l.015-.01c.463-.267.84-.053.841.479l.014 3.545c0 .531-.373 1.18-.835 1.446l-.017.01c-.463.267-.84.053-.841-.478l-.014-3.545c0-.531.373-1.18.836-1.447M37.084 28.214l1.141 6.393.013.086v.042l.01.07V34.954l-.01.076-.01.058-.015.07-.014.053-.024.063-.019.044-.034.058-.023.035-.047.052-.023.025-.081.06-7.407 4.304a6.838 6.838 0 00-.071-.73l-1.141-6.392v-.011l7.754-4.504" clip-rule="evenodd"/>
    <path fill="#FCFCFD" fill-rule="evenodd" d="M27.727 31.071l7.612-4.423v-.003l.023-.012.026-.011v-.002l.028-.01.023-.008V26.6l.03-.007.024-.006.027-.004.034-.003h.064l.019.001.05.005h.01l.017.005.06.013.015.003.032.01.02.006.089.032.019.009.022.009.104.053.087.055.03.022.056.04.034.028.05.042.035.032.047.044v.003l.01.008.092.096.012.015.016.02.047.056.02.025.014.017.033.046.022.03.014.02.026.04.02.028.017.03.022.036.013.02.026.045.017.031.01.011.043.086v.004l.04.084v.012l.013.034.018.045.01.024.014.04.013.033.01.031.014.048.01.025.01.031.015.063.01.026.013.06-7.754 4.507c-.112-.605-.53-1.21-.993-1.478a1.16 1.16 0 00-.254-.11 2.815 2.815 0 00-.357-.06" clip-rule="evenodd"/>
    <path fill="#E9E8E7" fill-rule="evenodd" d="M28.084 31.132l.02.006c.078.025.157.06.233.104.466.268.887.88.995 1.487l1.14 6.393c.127.708-.217 1.143-.77.971l-.02-.007a1.109 1.109 0 01-.233-.103c-.466-.269-.887-.88-.995-1.488l-1.141-6.392c-.127-.708.218-1.143.77-.972" clip-rule="evenodd"/>
    <path fill="#F3F3F3" fill-rule="evenodd" d="M30.518 39.475l7.448-4.328.01-.004.052-.025.01-.003.019-.006.026-.009.03-.007.017-.004.01-.002.063-.007h.063l.017.002.03.003.03.002.025.005.042.009.023.005.022.008.073.024.025.01.026.01.023.012.094.05-7.611 4.423v-.003l-.034-.017h-.001l-.045-.018v-.001h-.001v-.001l-.053-.017-.01-.004v-.002h-.001l-.052-.015v-.001h-.002l-.014-.005v-.001h-.001v-.001l-.043-.012v-.004l-.032-.008-.067-.017v-.001l-.028-.007-.012-.003-.037-.01-.013-.003-.013-.003-.04-.009-.015-.003" clip-rule="evenodd"/>
    <path fill="#DEDDDB" fill-rule="evenodd" d="M36.061 43.677l7.617-4.414v.026c0 .122-.016.229-.046.322a.676.676 0 01-.078.166l-.051.067-.125.102-7.425 4.316c-.485-.064-.457-.282.108-.576v-.009" clip-rule="evenodd"/>
    <path fill="#F3F3F3" fill-rule="evenodd" d="M34.613 41.67l3.165-2.128 4.877-2.048.098.063.031.023.064.048.035.03.058.05.035.032.021.02.023.024.068.072.022.023.017.022.04.048.026.032.02.027.03.038.02.027.03.047.02.03.01.012.053.086v.006l.01.018.035.063.015.03.016.03.013.027.034.073.01.012v.004l.038.092.01.017.013.034.016.046.012.036.013.042.01.026.011.047.013.053v.018l.01.037.014.083v.022l.01.052v.149l-7.616 4.426v-.005c0-.65-.456-1.443-1.022-1.77l-.426-.246" clip-rule="evenodd"/>
    <path fill="#FCFCFD" fill-rule="evenodd" d="M35.044 41.918l7.611-4.424-3.959-2.276-7.612 4.424 3.955 2.274v.002" clip-rule="evenodd"/>
    <path fill="#172742" fill-rule="evenodd" d="M36.754 30.11c.761.81 1.434 2.657 1.827 3.582l-.62.6-.274-.102c-.678-.958-1.737-2.34-2.14-3.324-.168-.407-.115-.848.16-1.013.398-.239.768-.04 1.047.256z" clip-rule="evenodd"/>
    <path fill="#5B5A5A" fill-rule="evenodd" d="M35.164 33.514l-.2-.008-.658.38.2.008.658-.38z" clip-rule="evenodd"/>
    <path fill="#838282" fill-rule="evenodd" d="M34.505 33.894l1.086 3.3.658-.38-1.085-3.3-.659.38z" clip-rule="evenodd"/>
    <path fill="#2E2B2A" fill-rule="evenodd" d="M38.596 38.016v.254l-.655.381v-.255l.655-.38z" clip-rule="evenodd"/>
    <path fill="#5B5A5A" fill-rule="evenodd" d="M38.596 38.016l-.654.38-2.528-1.355.773-.416 2.41 1.391z" clip-rule="evenodd"/>
    <path fill="#484644" fill-rule="evenodd" d="M34.306 33.886l.2.008 1.021 3.108 2.415 1.394v.255l-2.539-1.465-.014-.01-.012-.006-1.07-3.285" clip-rule="evenodd"/>
    <path fill="#100F0D" fill-rule="evenodd" d="M43.038 42.956c.112.492.222.625.422.854.15.171.979.77 1.03.932.04.123.03.324-.165.433-.208.117-.594.09-.857.033-.445-.094-.773-.44-1.116-.717-.166-.134-.879-.198-.914-.677-.01-.1 0-.229.024-.335.052-.287.187-.508.333-.793l.561-.093.682.363" clip-rule="evenodd"/>
    <path fill="#100F0D" fill-rule="evenodd" d="M41.744 43.786c.112.492.222.624.422.853.15.171.978.77 1.03.932.04.123.03.324-.165.434-.209.116-.594.088-.858.032-.444-.094-.772-.439-1.115-.717-.166-.135-.88-.198-.915-.677-.01-.099 0-.23.024-.335.052-.287.188-.507.334-.793l.561-.093.682.364" clip-rule="evenodd"/>
    <path fill="#141D2A" fill-rule="evenodd" d="M42.282 38.167c.147 1.206.732 3.985 1 5.406-.312.344-1.84-.139-1.888-.815l-1.026-4.314c-.015-.658.142-1.167.465-1.02.503.23 1.415.313 1.45.743z" clip-rule="evenodd"/>
    <path fill="#141D2A" fill-rule="evenodd" d="M38.038 35.742c2.008-.014 3.61 1.629 4.144 2.16.086.086.1.214.116.323.123.854-.703 1.178-1.102.977-1.058-.535-2.706-1.157-3.807-2.035l-.338-1.142.986-.283z" clip-rule="evenodd"/>
    <path fill="#172742" fill-rule="evenodd" d="M37.325 36.543c.141.07.143.296.315.312 1.332.127 2.711 1.038 3.222 1.88.063.104 0 .574-.052.71-.322.801-.83.581-1.22.362-1.132-.636-3.064-.156-3.826-.837-.499-.447-.833-1.17-.942-1.761l2.503-.666" clip-rule="evenodd"/>
    <path fill="#C4E9E2" fill-rule="evenodd" d="M34.864 37.304c1.19.392 3.41-.932 3.285-1.606-.324-.894-.607-2.147-.753-3.455-.098-.883-.543-2.537-1.664-2.617-.882-.063-2.013.489-2.527.9-1.062.847-1.296 1.618-1.09 2.41.184.833 1.443 2.267 2.75 4.368z" clip-rule="evenodd"/>
    <path fill="#1E335B" fill-rule="evenodd" d="M35.71 39.205c1.374-.325 1.666-.956 1.801-1.494-.514-1.959-1.647-3.992-2.93-5.877-.824-1.213-1.017-1.529.092-1.856 1.008-.297 1.2.474 1.56 2.195.176.84.472 2.055.963 3.014a5.014 5.014 0 001.411 1.673c.489-.328.447-.746.395-1.018-.419-.072-.722-.32-.774-.426-.443-.903-.657-2.12-.787-3.29-.098-.883-.588-2.42-1.71-2.5-.882-.063-2.013.49-2.526.9-1.062.848-1.296 1.618-1.09 2.41.153.692.626 2.063 1.942 3.468.212.227.387.534.548.864.376.773.775 1.633 1.105 1.937" clip-rule="evenodd"/>
    <path fill="#172742" fill-rule="evenodd" d="M38.967 39.677c.084.953.625 2.52 1.262 4.235.115.506 1.389.724 1.69.273l-1.023-5.32c-.013-.42-1.487-.838-1.962-1.119-.531-.313-.049.994.034 1.931" clip-rule="evenodd"/>
    <path fill="#EB6" fill-rule="evenodd" d="M33.838 29.652c.162.402.167.604.213 1.023l.913.175.135-.21.31.063c-.046-.268-.092-.53-.127-.799l-1.444-.252" clip-rule="evenodd"/>
    <path fill="#DCF3F3" fill-rule="evenodd" d="M33.984 30.058c.086.267.684.515 1.117.579l.061.754c-.44-.122-.947-.304-1.208-.547-.286-.265-.18-.586.03-.786M35.262 29.82c-.025.228-.01.58-.16.827l.43.434c.131-.353.106-1.008-.079-1.309l-.191.048" clip-rule="evenodd"/>
    <path fill="#FCD797" fill-rule="evenodd" d="M35.71 29.59c-.04.215-.123.43-.176.48-.069.066-.363.247-.464.248-.202.005-.616-.14-.764-.225-.223-.128-.371-.223-.51-.605l-.27-.534-.089-1.142c.632-.323 1.197-.564 1.533-.5.379.069.674.557.64 1.063.242.682.157.9.099 1.216" clip-rule="evenodd"/>
    <path fill="#9D9D9C" fill-rule="evenodd" d="M33.48 27.36c-.913.42-.167 1.753.375 2.317-.034-.331-.243-.65-.113-.767.072-.064.322-.106.528.31-.03-.243 0-.413-.033-.568-.115-.814 1.26-.03 1.362-.773-.272-1.157-1.706-1.079-2.12-.518" clip-rule="evenodd"/>
    <path fill="#9D9D9C" fill-rule="evenodd" d="M35.616 29.482a.45.45 0 010 .197c-.012.057-.073.056-.141.104-.102.072-.106.134-.276.14.069-.115.22-.443.414-.441h.003zm-.277-.1c-.175.114-.264.287-.39.547-.351-.025-.53-.416-.752-.779.065.323-.094.792.265 1.034.13.088.813.432 1.06.387.192-.034.21-.65.218-.886.01-.205-.01-.412-.025-.433-.042-.056-.17-.008-.376.13" clip-rule="evenodd"/>
    <path fill="#224279" fill-rule="evenodd" d="M32.087 33.321c.117.64.336 1.313.596 2.05.112.319.209.544.386.613.535.209 1.17-.334 1.083-.834l-.316-2.29c-.293-1.581-1.204-1.648-1.476-1.44-.529.406-.382 1.313-.273 1.901z" clip-rule="evenodd"/>
    <path fill="#D6A14D" fill-rule="evenodd" d="M37.236 34.81l.168-.26c.076-.108.054-.11.193-.115.135-.004.336.007.37.083.027.066 0 .237-.08.396l-.651-.105" clip-rule="evenodd"/>
    <path fill="#EB6" fill-rule="evenodd" d="M36.164 34.74c.188.007.312-.174.483-.308.17-.134.297-.12.45-.116l.612.013c-.062.233-.13.273-.428.255l-.196.057c-.073.052-.041.075.099.092.08.009.21.022.27.018.384-.024.407-.118.51-.245.027.091.06.274.082.487.018.173.03.211-.072.354-.143.202-.264.29-.549.496l-1.24-.122-.02-.982" clip-rule="evenodd"/>
    <path fill="#224279" fill-rule="evenodd" d="M33.221 36.06l3.131-.293c.169-.269.176-.839.01-1.085l-3.014-.12c-.714.106-.978 1.06-.126 1.498" clip-rule="evenodd"/>
    <path fill="#FCD797" fill-rule="evenodd" d="M41.155 33.513l.401-.13c.443-.178.599-.18.89-.042.28.134.7.37 1.032.63l-.241.454c-.299-.054-.595-.244-.886-.327-.288-.081-.563.29-.76.225l-.724-.24.288-.57" clip-rule="evenodd"/>
    <path fill="#172742" fill-rule="evenodd" d="M38.221 33.13c.994-.047 2.24.181 3.253.218.13.14.04.845-.07.983-1.008.015-2.053.111-3.057.09-.233-.004-.403-.047-.523-.114-.05-.03-.19-.933-.155-.983.104-.15.306-.182.553-.193" clip-rule="evenodd"/>
    <path fill="#E9E8E7" fill-rule="evenodd" d="M34.62 44.106v.1l.01.078v.01l.019.07v.012l.023.06v.007l.034.06.01.009.032.042.013.015.032.03.014.012.048.033-7.607-4.42-.048-.034-.014-.012-.03-.03-.014-.014-.032-.042-.01-.008v-.003l-.032-.057V40.015l-.016-.039-.01-.02v-.023l-.01-.043v-.04l-.01-.041v-.122l7.606 4.42" clip-rule="evenodd"/>
    <path fill="#E9E8E7" fill-rule="evenodd" d="M34.607 40.562l.013 3.544-7.607-4.42L27 36.141l7.607 4.42z" clip-rule="evenodd"/>
    <path fill="#FCFCFD" fill-rule="evenodd" d="M35.276 39.229l-.01.006-.07.063-.01.007-.07.07v.005l-.072.08v.001a2.183 2.183 0 00-.127.172l-.034.054-.028.046-.013.022-.042.078-.01.009-.045.097v.004l-.04.097v.007l-.032.1v.005l-.026.096v.009l-.019.098v.002l-.012.1V40.56l-7.607-4.42V36.02l.01-.041.01-.042v-.001l.002-.002.01-.04.01-.044v-.044l.012-.044.01-.032v-.011l.013-.044.015-.043v-.015l.01-.026.017-.041.012-.03V35.513l.018-.04.022-.046v-.015l.018-.034.024-.043.013-.023.01-.008.023-.037.034-.054.01-.009.053-.075.038-.049.03-.04h.001l.032-.038.032-.036v-.006l.01-.006.023-.025.036-.034.011-.011.01-.008.018-.016.037-.032.017-.014.01-.007.013-.01.036-.029.027-.018v-.004l.01-.003.035-.024.035-.022.01-.005.016-.009.027-.014.035-.019.022-.01.01-.003.01-.003.034-.013.034-.014.01-.002.01-.002.022-.007.034-.01.017-.004.01-.002.01-.002.037-.006.022-.002h.02l.039-.003h.017l.013.002h.013l.049.007.012.003.047.014v.002l.064.029 7.606 4.421-.063-.03-.052-.015-.01-.002-.062-.008h-.078l-.01.002-.069.01-.01.001-.074.02-.01.003-.079.032-.01.003-.083.043-.016.01-.084.053-.01.004-.075.057" clip-rule="evenodd"/>
    <path fill="#DEDDDB" fill-rule="evenodd" d="M35.442 39.115l.016-.01c.463-.267.84-.053.842.48l.013 3.543c0 .532-.373 1.18-.835 1.447l-.017.01c-.463.267-.84.053-.841-.479l-.013-3.544c0-.532.372-1.18.835-1.447" clip-rule="evenodd"/>
    <path fill="#1E335B" fill-rule="evenodd" d="M49.817 50.26l-6.09-3.195v3.31l5.626 3.268.462-3.383" clip-rule="evenodd"/>
    <path fill="#172742" fill-rule="evenodd" d="M49.352 50.334v3.31l6.123-3.536V46.8l-6.122 3.534" clip-rule="evenodd"/>
    <path fill="#2A57A4" fill-rule="evenodd" d="M49.767 48.915l-7.781-4.046v1.396l7.41 4.306.367-1.656" clip-rule="evenodd"/>
    <path fill="#3467BA" fill-rule="evenodd" d="M41.986 44.87l7.409 4.305 8.063-4.655-7.407-4.305-8.065 4.654z" clip-rule="evenodd"/>
    <path fill="#22457E" fill-rule="evenodd" d="M49.395 49.175v1.396l8.065-4.657V44.52l-8.063 4.654" clip-rule="evenodd"/>
    <path fill="#FDF9FA" fill-rule="evenodd" d="M46.366 43.672c-.113.268.072.483.274.601.208.123.522.184.824.186.442.005 1.16-.263.997-.75-.117-.346-.625-.486-.993-.502-.396-.017-.936.114-1.102.465z" clip-rule="evenodd"/>
    <path fill="#F9F2F3" fill-rule="evenodd" d="M47.012 43.685c-.261.148-.204.367 0 .477.288.177.985.092.978-.242-.01-.387-.785-.344-.98-.235" clip-rule="evenodd"/>
    <path fill="#F4E9EB" fill-rule="evenodd" d="M47.642 43.824a.515.515 0 00-.466-.005c-.13.073-.134.194-.01.27a.515.515 0 00.466.004c.13-.073.133-.194.01-.27" clip-rule="evenodd"/>
    <path fill="#fff" fill-rule="evenodd" d="M48.492 43.876V43.8l-.001-.004v-.003l-.01-.034-.001-.002v-.004l-.01-.03v-.007l-.015-.034v-.007l-.02-.034v-.002l-.023-.035v-.007l-.028-.035v-.002l-.014-.017v-.002l-.015-.014.016.017.027.034.01.007.024.034v.002l.018.033v.007l.014.035v.006l.01.03v.005l.01.033V43.814l-.001.035v.048l-.01.034v.004l-.014.038v.006l-.02.039-.01.009-.01.011-.01.013-.01.01-.01.011-.01.014-.01.01-.011.014-.01.01-.013.014-.011.009-.014.014-.01.009-.012.01-.013.01-.013.011-.014.01-.04.027-.01.007-.024.015-.021.013-.082.04v.002l-.084.034v.001l-.087.03-.01.001-.085.022-.016.004-.087.016-.01.001-.095.012-.1.009-.1.002-.099-.004-.096-.009h-.01l-.093-.015-.09-.02-.01-.002-.08-.023-.018-.005-.08-.028-.01-.003-.07-.031-.02-.01-.07-.038-.01-.005-.055-.035-.01-.008-.017-.014-.012-.008-.015-.013-.01-.008-.019-.017-.01-.01-.018-.017-.01-.006-.025-.03v-.008l-.02-.027v-.004l-.01-.016-.01-.008-.012-.022v-.002l-.011-.025v-.008l-.01-.017v-.009l-.01-.017V43.843l-.001-.01V43.76l.001-.006.01-.026v-.005l.01-.02v-.01l.01-.016v-.01l.01-.015.01-.01.01-.015.01-.01.01-.015.01-.01.011-.015.01-.01.013-.015.01-.008.021-.023-.015.017-.022.024-.01.008-.014.016-.01.01-.011.014-.01.01-.01.015-.01.01-.01.016v.01l-.01.015v.01l-.01.017v.01l-.01.019v.007l-.01.026V43.828l-.002.01v.017l.001.01v.08l.01.017v.008l.001.002.01.016v.01l.012.024v.002l.012.022.01.01.01.015v.005l.02.028.01.008.025.03v.006l.018.02.01.008.02.017.01.005v.003l.016.013.011.01.018.013.01.007.014.01.016.01.014.01.013.008.01.003.054.03.018.009.021.01.02.01.051.02.01.003.058.022.021.007.018.005.02.007.057.016.01.002.01.002.037.008.05.01v.002l.038.007.042.005.015.002h.01l.015.002.035.003.03.003.017.001.01.002.028.002h.05l.014.001h.078l.023-.002h.016l.022-.002.023-.002.026-.003h.014v-.001l.01-.001.026-.003.04-.005.02-.003.01-.002.013-.002.075-.015.016-.003.022-.005.056-.016.01-.002v-.002l.02-.005.031-.01.026-.01.011-.004.012-.005.026-.01.027-.011.021-.01v-.002l.03-.014.031-.016.02-.011.013-.008.01-.005.024-.015.01-.005v-.002l.041-.029v-.002l.01-.006.013-.01.013-.012.012-.01v-.003l.01-.007.015-.014.01-.01.013-.013v-.005l.01-.006.011-.014.01-.01.01-.014v-.011l.01-.011.01-.012.01-.012v-.01l.02-.04v-.005l.012-.039v-.004l.01-.035.001-.004V43.88l.001-.003" clip-rule="evenodd"/>
    <path fill="#fff" fill-rule="evenodd" d="M47.891 43.333c.18.051.395.192.467.361.093.219-.046.407-.246.527-.386.233-.971.23-1.369.02.378.125.936.107 1.26-.13.134-.1.218-.244.2-.397-.021-.189-.168-.288-.313-.38h.001zm-1.054.775c-.16-.108-.172-.38.049-.504a.813.813 0 01.566-.059v.001c-.198-.13-.541-.134-.747-.017-.295.164-.161.497.129.579" clip-rule="evenodd"/>
    <path fill="#FDF9FA" fill-rule="evenodd" d="M48.14 43.238V43.277l-.01.017h-.002l-.01.019-.01.016v.002l-.012.013v.003l-.01.01v.004l-.015.01.085.05.014-.011v-.004l.01-.005V43.392l.01-.008v-.007l.01-.007V43.326l.001-.002v-.016l.001-.002v-.003l.002-.015-.085-.049M48.026 43.49l-.085-.049.121-.07.086.05-.123.07" clip-rule="evenodd"/>
    <path fill="#D3D2D0" fill-rule="evenodd" d="M48.026 43.49l-.085-.05v.094l.085.05v-.094" clip-rule="evenodd"/>
    <path fill="#F4E9EB" fill-rule="evenodd" d="M48.225 43.287l-.085-.049v-.43l.085.049.001.43" clip-rule="evenodd"/>
    <path fill="#F4E9EB" fill-rule="evenodd" d="M48.201 42.806l-.084-.049.022.05.085.05-.023-.05z" clip-rule="evenodd"/>
    <path fill="#FDF9FA" fill-rule="evenodd" d="M48.26 42.71l-.085-.049v-.002l-.01-.004-.01-.003-.01-.001v-.001l-.01-.001h-.02l-.015.004-.01.002-.01.002-.01.003-.023.01.085.05.03-.014v-.002l.025-.005h.025v.001l.024.008v.003" clip-rule="evenodd"/>
    <path fill="#F9F2F3" fill-rule="evenodd" d="M48.305 42.81c0-.05-.018-.086-.047-.101l-.111.01-.123.07v.094l.123-.07.055-.007.023.051v.43l-.021.075-.055.058-.122.07v.093l.122-.07.112-.118a.322.322 0 00.046-.155v-.43" clip-rule="evenodd"/>
    <path fill="#D3D2D0" fill-rule="evenodd" d="M48.024 42.883l-.085-.05v-.093l.085.05v.093" clip-rule="evenodd"/>
    <path fill="#FDF9FA" fill-rule="evenodd" d="M48.061 42.67l-.122.07.085.05.123-.07-.085-.05" clip-rule="evenodd"/>
    <path fill="#F4E9EB" fill-rule="evenodd" d="M48.169 42.974v-.007c.01-.162-.135-.281-.268-.347l-.018-.009-.026-.011a1.235 1.235 0 00-.9-.003l-.022.008-.06.032c-.1.055-.203.145-.226.263v.139l.01.067v.002l.01.071.01.063v.003-.002.005l.001.002.014.058.015.065.017.056v.007l.01.022.001.002.01.016v.008c.034.085.075.16.129.23l.01.015.012.014.038.046.019.02.015.015.01.006.034.033v.006l.034.029.035.028.01.008.01.004.017.012.014.01.01.005.01.004.023.016v.001l.01.004-.025-.02v-.007h-.001v-.004l-.01-.011v-.013l-.01-.008.03.022.037.026-.024-.019V43.947h-.001l-.001-.002-.011-.011v-.012l-.01-.011v-.025l-.001-.003V43.87l-.001-.004.049-.103v-.002l.01-.005.01-.004.01-.005.014-.008.04-.019v-.005l.01-.002.033-.01.049-.01.023-.002.01-.001h.01l.01-.001h.015l.01-.001h.034l.026.004h.01l.01.002h.01l.01.001.023.005v.004l.01.002.026.01v.005h.001v.001h.001v.001l.04.02.013.008.01.007v.003l.01.005.01.006v.022l.01.02h.001V43.824l.01.015v.055l-.01.014v.01l-.01.013v.01l-.012.013v.008l-.024.018.01-.004.021-.016.01-.004.01-.004.014-.01.012-.01-.01.012v.01l-.012.014v.007l-.024.02.037-.026.041-.03.015-.012.017-.014v-.003l.01-.007.023-.02.011-.01v-.004l.022-.02.01-.009v-.003l.02-.02.019-.02.022-.025.011-.013v-.004l.021-.027.01-.009v-.005a.942.942 0 00.118-.209l.015-.037.01-.018v-.007l.035-.119.012-.057.013-.075.01-.072v-.14l-.035-.005zm0-.01v-.012.012zm-1.525-.016zm.09.528l.002.002-.001-.002z" clip-rule="evenodd"/>
    <path fill="#451D16" fill-rule="evenodd" d="M47.883 42.831c-.256-.153-.678-.157-.942-.009-.264.148-.27.393-.013.546.257.153.679.157.943.01.264-.149.27-.393.013-.547" clip-rule="evenodd"/>
    <path fill="#FDF9FA" fill-rule="evenodd" d="M48.169 42.968c-.033.138-.133.245-.283.317-.443.211-1.165.071-1.243-.317 0 .072.01.147.019.219l.012.074c.017.083.037.161.07.24a.937.937 0 00.116.208l.087.104.02.02v.004l.01.007.104.091.041.031.037.026.014.008a.494.494 0 00.45.005l.02-.012.121-.091.094-.088.02-.02.042-.05c.088-.109.145-.225.183-.353l.011-.037c.035-.128.044-.253.052-.386" clip-rule="evenodd"/>
    <path fill="#fff" fill-rule="evenodd" d="M47.953 42.648c-.293-.176-.777-.18-1.08-.01-.301.168-.308.449-.014.625.294.175.777.18 1.08.01.302-.17.309-.45.014-.625zm-.043.61c-.286.16-.744.155-1.023-.012-.28-.166-.273-.431.014-.593.287-.16.745-.156 1.023.01.28.167.273.433-.014.594" clip-rule="evenodd"/>
    <path fill="#B69386" fill-rule="evenodd" d="M47.331 42.704c.054 0 .098.03.098.053h-.197c0-.023.045-.053.099-.053" clip-rule="evenodd"/>
    <path fill="#5B2E22" fill-rule="evenodd" d="M47.331 42.704c.054 0 .098.03.098.053v.002l-.097-.045-.097.045v-.002c0-.022.044-.052.1-.052" clip-rule="evenodd"/>
    <path fill="#B69386" fill-rule="evenodd" d="M47.192 42.722c.076 0 .137.04.137.073h-.274c0-.032.062-.073.137-.073z" clip-rule="evenodd"/>
    <path fill="#5B2E22" fill-rule="evenodd" d="M47.192 42.722c.076 0 .137.04.137.073v.002c-.012-.03-.068-.062-.136-.062s-.124.033-.135.062v-.003c0-.032.062-.073.138-.073" clip-rule="evenodd"/>
    <path fill="#B69386" fill-rule="evenodd" d="M47.397 42.752c.064 0 .116.034.116.061h-.233c0-.027.052-.061.117-.061z" clip-rule="evenodd"/>
    <path fill="#5B2E22" fill-rule="evenodd" d="M47.397 42.752c.064 0 .116.034.116.061v.002c-.01-.024-.057-.052-.114-.052-.058 0-.107.028-.115.053v-.002c0-.027.052-.062.116-.062" clip-rule="evenodd"/>
    <path fill="#B69386" fill-rule="evenodd" d="M47.261 42.796c.054 0 .099.03.099.053h-.197c0-.023.045-.053.099-.053" clip-rule="evenodd"/>
    <path fill="#5B2E22" fill-rule="evenodd" d="M47.261 42.796c.054 0 .099.03.099.053v.002l-.097-.045-.097.045v-.002c0-.022.045-.052.099-.052" clip-rule="evenodd"/>
    <path fill="#B69386" fill-rule="evenodd" d="M47.035 42.778c.088 0 .157.047.157.083-.046.051-.29.046-.314 0 0-.036.07-.083.157-.083z" clip-rule="evenodd"/>
    <path fill="#5B2E22" fill-rule="evenodd" d="M47.035 42.778c.088 0 .157.047.157.083v.003c-.013-.034-.078-.072-.155-.072s-.143.038-.155.072v-.003c0-.036.07-.083.157-.083" clip-rule="evenodd"/>
    <path fill="#FDF9FA" fill-rule="evenodd" d="M51.904 43.909c-.113.269.073.483.274.602.21.122.522.183.825.186.442.005 1.16-.264.996-.75-.116-.347-.624-.487-.992-.503-.397-.017-.936.115-1.102.465z" clip-rule="evenodd"/>
    <path fill="#F9F2F3" fill-rule="evenodd" d="M52.551 43.923c-.263.147-.204.367 0 .477.288.175.985.09.978-.242-.01-.388-.786-.345-.98-.235" clip-rule="evenodd"/>
    <path fill="#F4E9EB" fill-rule="evenodd" d="M53.18 44.061a.515.515 0 00-.466-.005c-.13.073-.133.194-.01.27a.51.51 0 00.465.005c.131-.073.135-.194.01-.27" clip-rule="evenodd"/>
    <path fill="#fff" fill-rule="evenodd" d="M54.03 44.112V44.03l-.01-.034v-.006l-.01-.031v-.004l-.002-.002-.014-.035v-.007l-.017-.033v-.002l-.024-.036v-.007l-.03-.035v-.003l-.014-.015v-.002l-.014-.015.016.018.028.034v.007l.023.035v.002l.018.033v.007l.014.033v.007l.01.03v.005l.01.034V44.085l-.001.008v.04l-.01.034v.005l-.015.036v.007l-.019.038-.01.01-.01.012-.01.012-.01.01-.01.012-.01.013-.01.011-.012.013-.01.01-.013.014-.01.01-.014.013-.01.01-.013.01-.013.011-.013.01-.013.01-.04.027-.012.007-.024.015-.02.012-.082.042-.084.036-.087.03-.085.023-.016.003-.086.016-.01.002-.094.013-.099.007-.1.002-.1-.003-.096-.01h-.01l-.093-.014-.09-.02-.01-.002-.081-.023-.018-.006-.08-.029-.01-.002-.07-.03-.02-.011-.07-.038-.01-.005-.053-.035-.01-.008-.018-.013-.012-.01-.015-.012-.01-.01-.018-.016-.01-.009-.018-.018-.01-.007-.025-.03-.01-.006-.02-.027v-.006l-.01-.016v-.009l-.011-.022v-.002l-.012-.024v-.008l-.01-.017v-.008l-.01-.017v-.166l.01-.026v-.007l.01-.019v-.01l.01-.015v-.01l.01-.016.01-.01.01-.015.01-.01.01-.015.01-.01.01-.015.01-.009.013-.015.01-.008.02-.024h.001l-.016.016-.02.024-.01.008-.014.017-.01.009-.01.014-.01.011-.01.015-.01.01-.01.015-.01.01-.01.016v.01l-.01.017v.009l-.01.019v.007l-.01.026V44.062l-.001.01v.106l.01.017V44.204l.01.018v.008l.012.025v.002l.012.023.01.008.01.016v.006l.02.027.01.007.025.031v.001l.01.006.018.019.01.009.019.017.01.006v.003l.016.013.01.01.02.013.01.007.014.01.015.012.015.008.014.009.01.004.054.03.018.009.02.01.02.009.05.021.01.003v.001l.06.022.02.007.019.006.02.005.057.016.01.001.01.002.038.01.05.01.04.007.04.007.016.002h.01l.015.003.035.003.03.003h.017l.01.002h.027l.026.002H53.03l.023-.001.016-.001.023-.002.022-.001.027-.002.013-.002.01-.001.026-.003.04-.005.02-.003.01-.001.013-.002.075-.015.016-.004.022-.005.056-.014.01-.003.01-.002.019-.006.033-.01.026-.01.01-.003v-.002l.012-.004.025-.01.028-.011.02-.01v-.001l.03-.014.03-.016.02-.011.016-.009.01-.004.025-.015.01-.005v-.002l.04-.029v-.002l.01-.008.014-.009.013-.011.012-.01v-.003l.01-.008.015-.013.01-.01.014-.014v-.004l.01-.006.012-.013.01-.011.01-.013v-.012l.01-.011.01-.012.01-.012v-.01l.02-.039v-.007l.014-.038v-.004l.01-.034v-.004l.001-.002v-.039" clip-rule="evenodd"/>
    <path fill="#fff" fill-rule="evenodd" d="M53.43 43.57c.18.052.394.192.466.36.093.22-.046.408-.245.528-.387.233-.972.23-1.369.019.379.126.937.108 1.26-.13.135-.098.218-.242.201-.395-.02-.19-.168-.29-.313-.382zm-1.055.774c-.16-.106-.171-.379.05-.503a.812.812 0 01.566-.058c-.199-.13-.542-.133-.748-.017-.294.165-.161.498.129.579" clip-rule="evenodd"/>
    <path fill="#FDF9FA" fill-rule="evenodd" d="M53.679 43.474v.038l-.001.002-.01.018-.01.018-.01.017-.012.015v.003l-.01.01v.003l-.015.01.085.05.015-.01v-.005l.01-.006v-.008l.01-.008V43.55l.002-.003v-.02l-.084-.05M53.565 43.727l-.085-.05.122-.07.085.05-.122.07" clip-rule="evenodd"/>
    <path fill="#D3D2D0" fill-rule="evenodd" d="M53.565 43.727l-.085-.049v.093l.085.05v-.093z" clip-rule="evenodd"/>
    <path fill="#F4E9EB" fill-rule="evenodd" d="M53.764 43.524l-.085-.05v-.43l.086.05v.43" clip-rule="evenodd"/>
    <path fill="#F4E9EB" fill-rule="evenodd" d="M53.74 43.044l-.085-.05.023.05.086.05-.023-.05" clip-rule="evenodd"/>
    <path fill="#FDF9FA" fill-rule="evenodd" d="M53.799 42.948l-.085-.05v-.001l-.002-.001-.01-.004-.01-.003-.01-.001-.01-.002h-.01v.001h-.01l-.014.004-.01.002v.002l-.01.002-.022.01.085.05.03-.013.01-.002.025-.006.025.001.023.008v.003" clip-rule="evenodd"/>
    <path fill="#F9F2F3" fill-rule="evenodd" d="M53.843 43.048c0-.05-.018-.086-.047-.102l-.111.01-.123.071v.093l.123-.07.055-.006.023.05v.43l-.023.076-.055.057-.122.071v.093l.123-.071.111-.118a.316.316 0 00.047-.154v-.43" clip-rule="evenodd"/>
    <path fill="#D3D2D0" fill-rule="evenodd" d="M53.562 43.12l-.085-.05v-.092l.085.05v.092z" clip-rule="evenodd"/>
    <path fill="#FDF9FA" fill-rule="evenodd" d="M53.6 42.907l-.122.07.085.05.122-.07-.085-.05" clip-rule="evenodd"/>
    <path fill="#F4E9EB" fill-rule="evenodd" d="M53.708 43.211v-.007c.01-.163-.135-.282-.269-.348l-.017-.008-.026-.012a1.234 1.234 0 00-.901-.002l-.022.009-.061.03c-.1.057-.202.146-.226.264v.14l.01.067v.002l.01.07.01.063.001.003v-.002.007l.013.058.016.066.018.055v.007l.01.022v.002l.01.017v.008a.91.91 0 00.129.23l.01.015.01.014.04.046.019.02.014.016.01.006.034.033v.005l.034.029.035.028.01.008.01.004.017.012.013.01.01.005.01.004.023.016v.002-.001l.01.004-.025-.02V44.197l-.01-.011v-.02l.03.022.035.026-.024-.02v-.003l-.001-.001v-.005l-.01-.012v-.012l-.01-.01v-.04l-.001-.005.05-.103V44l.01-.004.01-.004.01-.004.014-.009.04-.019v-.004l.01-.002.01-.002.033-.01.049-.01.022-.002h.01l.01-.002h.069l.026.002h.01l.01.002h.01l.01.001.01.001.023.006v.003l.01.002.026.009v.007l.042.02.01.009.01.007V44l.01.004.01.006v.022l.013.018v.103l-.01.013v.01l-.01.012v.008l-.025.018.01-.004v.001l.022-.016.01-.004.01-.004.014-.01.012-.01-.01.012-.01.007v.003l-.01.014v.008l-.025.018.036-.026.042-.03.014-.011.018-.014v-.003l.01-.008.023-.02.011-.008v-.004l.023-.021.01-.008v-.004l.02-.02.02-.02.022-.025.011-.013v-.004l.021-.026.01-.01v-.003a.952.952 0 00.119-.21l.014-.037.01-.018v-.007l.035-.118.013-.057.013-.075.01-.072v-.14l-.058-.006zm0-.011v-.01.01zm-1.525-.015v-.001.001zm.09.529h.001z" clip-rule="evenodd"/>
    <path fill="#451D16" fill-rule="evenodd" d="M53.423 43.069c-.257-.154-.679-.158-.943-.01-.264.148-.27.392-.013.546.256.153.678.157.942.009.264-.148.27-.393.014-.546" clip-rule="evenodd"/>
    <path fill="#FDF9FA" fill-rule="evenodd" d="M53.707 43.206c-.033.138-.132.244-.282.315-.443.213-1.166.072-1.243-.316 0 .073.01.147.018.219l.012.074c.017.083.039.161.07.24.03.075.07.144.117.208l.087.104.019.019v.004l.01.008.105.091.041.03.036.026.014.009a.493.493 0 00.45.004l.02-.012.122-.091.095-.088.019-.02.043-.05a.988.988 0 00.183-.353l.01-.037c.035-.127.045-.253.052-.386" clip-rule="evenodd"/>
    <path fill="#fff" fill-rule="evenodd" d="M53.492 42.885c-.294-.176-.778-.18-1.08-.01-.302.169-.309.449-.015.624.294.176.777.18 1.08.011.302-.17.31-.45.016-.625zm-.043.609c-.286.16-.745.156-1.023-.01-.279-.167-.272-.433.014-.593.287-.161.745-.156 1.024.01s.272.432-.015.593" clip-rule="evenodd"/>
    <path fill="#B69386" fill-rule="evenodd" d="M52.87 42.941c.054 0 .098.03.098.052h-.197c0-.022.044-.052.099-.052" clip-rule="evenodd"/>
    <path fill="#5B2E22" fill-rule="evenodd" d="M52.87 42.941c.054 0 .098.03.098.052v.002l-.097-.044-.097.045v-.002c0-.023.044-.052.099-.052" clip-rule="evenodd"/>
    <path fill="#B69386" fill-rule="evenodd" d="M52.731 42.96c.075 0 .137.04.137.072h-.274c0-.032.062-.073.137-.073z" clip-rule="evenodd"/>
    <path fill="#5B2E22" fill-rule="evenodd" d="M52.731 42.96c.075 0 .137.04.137.072v.002c-.012-.03-.067-.063-.135-.063-.067 0-.124.034-.135.063v-.003c0-.031.062-.072.138-.072" clip-rule="evenodd"/>
    <path fill="#B69386" fill-rule="evenodd" d="M52.935 42.989c.064 0 .116.035.116.061h-.232c0-.026.052-.061.116-.061z" clip-rule="evenodd"/>
    <path fill="#5B2E22" fill-rule="evenodd" d="M52.935 42.989c.064 0 .116.035.116.061v.002c-.01-.025-.058-.053-.114-.053-.058 0-.106.029-.115.054v-.003c0-.026.052-.062.117-.062" clip-rule="evenodd"/>
    <path fill="#B69386" fill-rule="evenodd" d="M52.8 43.033c.054 0 .098.03.098.052h-.197c0-.023.044-.052.099-.052z" clip-rule="evenodd"/>
    <path fill="#5B2E22" fill-rule="evenodd" d="M52.8 43.033c.054 0 .098.03.098.052v.002l-.098-.045-.096.046v-.002c0-.023.044-.052.099-.052" clip-rule="evenodd"/>
    <path fill="#B69386" fill-rule="evenodd" d="M52.574 43.014c.087 0 .157.048.157.084-.046.052-.291.047-.315 0 0-.036.071-.084.158-.084z" clip-rule="evenodd"/>
    <path fill="#5B2E22" fill-rule="evenodd" d="M52.574 43.014c.087 0 .157.048.157.084v.002c-.013-.033-.078-.071-.154-.071-.08 0-.143.038-.156.072V43.1c0-.037.071-.085.158-.085" clip-rule="evenodd"/>
  </g>
  </g>
   <style>
      .st1 {
         fill: none;
         stroke: #dcdcdc;
         stroke-width: 0.264583px;
         stroke-dasharray: 82;
         stroke-dashoffset: 82;
         -webkit-animation: dash1 3s linear alternate infinite;
         animation: dash1 3s linear alternate infinite;
      }


      .st2 {
         fill: none;
         stroke: #dcdcdc;
         stroke-width: 0.264583px;
         stroke-dasharray: 82;
         stroke-dashoffset: 82;
         -webkit-animation: dash1 3s linear alternate infinite;
         animation: dash1 3s linear alternate infinite;
      }

      @-webkit-keyframes dash1 {
         from {
            stroke-dashoffset: 82;
         }

         to {
            stroke-dashoffset: 0;
         }
      }

      @keyframes dash1 {
         from {
            stroke-dashoffset: 82;
         }

         to {
            stroke-dashoffset: 0;
         }
      }


      #platform {
         /* fill: red; */
         fill-opacity: 1;
         transform-origin: 50% 50%;
         animation-duration: 2s;
         animation-name: pulse;
         animation-iteration-count: infinite;
      }

      @keyframes pulse {
         from {
            stroke-width: 3px;
            stroke-opacity: 1;
            /* transform: scale(0.8); */
         }

         to {
            stroke-width: 0.1;
            stroke-opacity: 0;
            /* transform: scale(0.9); */
         }
      }

      .blob {
         background: black;
         border-radius: 50%;
         margin: 10px;
         height: 20px;
         width: 20px;

         box-shadow: 0 0 0 0 rgba(0, 0, 0, 1);
         transform: scale(1);
         animation: c_pulse 2s infinite;
      }

      @keyframes c_pulse {
         0% {
            transform: scale(0.95);
            box-shadow: 0 0 0 0 rgba(0, 0, 0, 0.7);
         }

         70% {
            transform: scale(1.1);
            box-shadow: 0 0 0 10px rgba(0, 0, 0, 0);
         }

         100% {
            transform: scale(0.95);
            box-shadow: 0 0 0 0 rgba(0, 0, 0, 0);
         }
      }


      .bounce-1 {
         animation-name: bounce-1;
         animation-timing-function: linear;
      }

      @keyframes bounce-1 {
         0% {
            transform: translateY(0);
         }

         50% {
            transform: translateY(100px);
         }

         100% {
            transform: translateY(0px);
         }
      }



      .bounce {
         width: 100px;
         height: 100px;
         border-radius: 50%;
         background-color: #FF5722;
         animation: bounce .1s;
         animation-direction: alternate;
         /* 	animation-timing-function: cubic-bezier(2.5, 2.5, 1, 1.5); */
         animation-timing-function: cubic-bezier(0, .99, 1, .99);
         animation-iteration-count: infinite;
      }

      @keyframes bounce {
         from {
            transform: translate3d(0, 0, 0);
         }

         to {
            transform: translate3d(0, 2px, 0);
         }
      }

      /* Prefix Support */

      .bounce {
         -webkit-animation-name: bounce;
         -webkit-animation-duration: 0.5s;
         -webkit-animation-direction: alternate;
         -webkit-animation-timing-function: cubic-bezier(.5, 0.05, 1, .5);
         -webkit-animation-iteration-count: infinite;
      }

      @-webkit-keyframes bounce {
         from {
            -webkit-transform: translate3d(0, 0, 0);
            transform: translate3d(0, 0, 0);
         }

         to {
            -webkit-transform: translate3d(0, 2px, 0);
            transform: translate3d(0, 2px, 0);
         }
      }
   </style>
</svg>