<svg width="100" height="100" viewBox="0 0 100 100" fill="none" xmlns="http://www.w3.org/2000/svg">
<g clip-path="url(#clip0_104_58)">
<path fill-rule="evenodd" clip-rule="evenodd" d="M36.5912 0C31.0744 0.00407747 26.6096 4.48114 26.6137 9.99796C26.6096 15.5148 31.0785 19.9918 36.5953 19.9959H46.5769V10.002C46.581 4.48522 42.1121 0.00815494 36.5912 0C36.5953 0 36.5953 0 36.5912 0V0ZM36.5912 26.6667H9.98166C4.46484 26.6707 -0.00406633 31.1478 1.11432e-05 36.6646C-0.0081438 42.1814 4.46076 46.6585 9.97758 46.6667H36.5912C42.108 46.6626 46.5769 42.1855 46.5729 36.6687C46.5769 31.1478 42.108 26.6707 36.5912 26.6667Z" fill="#36C5F0"/>
<path fill-rule="evenodd" clip-rule="evenodd" d="M99.8003 36.6646C99.8044 31.1478 95.3355 26.6707 89.8186 26.6667C84.3018 26.6707 79.8329 31.1478 79.837 36.6646V46.6667H89.8186C95.3355 46.6626 99.8044 42.1855 99.8003 36.6646ZM73.1866 36.6646V9.99796C73.1907 4.48522 68.7258 0.00815494 63.209 0C57.6921 0.00407747 53.2232 4.48114 53.2273 9.99796V36.6646C53.2192 42.1814 57.6881 46.6585 63.2049 46.6667C68.7217 46.6626 73.1907 42.1855 73.1866 36.6646Z" fill="#2EB67D"/>
<path fill-rule="evenodd" clip-rule="evenodd" d="M63.2049 100C68.7217 99.996 73.1906 95.5189 73.1865 90.0021C73.1906 84.4853 68.7217 80.0082 63.2049 80.0042H53.2232V90.0021C53.2191 95.5149 57.688 99.9919 63.2049 100ZM63.2049 73.3293H89.8185C95.3353 73.3253 99.8043 68.8482 99.8002 63.3314C99.8083 57.8146 95.3394 53.3375 89.8226 53.3293H63.2089C57.6921 53.3334 53.2232 57.8105 53.2273 63.3273C53.2232 68.8482 57.688 73.3253 63.2049 73.3293Z" fill="#ECB22E"/>
<path fill-rule="evenodd" clip-rule="evenodd" d="M2.78802e-06 63.3312C-0.00407469 68.8481 4.46484 73.3251 9.98167 73.3292C15.4985 73.3251 19.9674 68.8481 19.9633 63.3312V53.3333H9.98167C4.46484 53.3373 -0.00407469 57.8144 2.78802e-06 63.3312ZM26.6137 63.3312V89.998C26.6055 95.5148 31.0745 99.9919 36.5913 100C42.1081 99.996 46.577 95.5189 46.5729 90.0021V63.3394C46.5811 57.8226 42.1122 53.3455 36.5954 53.3373C31.0745 53.3373 26.6096 57.8144 26.6137 63.3312C26.6137 63.3312 26.6137 63.3353 26.6137 63.3312Z" fill="#E01E5A"/>
</g>
<defs>
<clipPath id="clip0_104_58">
<rect width="99.8002" height="100" fill="white"/>
</clipPath>
</defs>
</svg>
