<svg width="92" height="153" viewBox="0 0 92 153" fill="none" xmlns="http://www.w3.org/2000/svg">
<path d="M0 0H92V90.8916H0V0Z" fill="white"/>
<path d="M0 90.1226H92V127.361L46 152.082L0 127.361V90.1226Z" fill="white"/>
<path d="M2.81641 2.81641H89.1838V89.2242H2.81641V2.81641Z" fill="#10C469"/>
<path d="M29.5066 89.3007C19.7117 89.3007 14.0797 89.3007 8.44762 83.6624C2.81641 78.0232 2.81641 72.3829 2.81641 62.5746V29.5422C2.81641 19.7342 2.81641 14.0944 8.44762 8.45517C14.0797 2.81641 19.7117 2.81641 29.5066 2.81641H62.4937C72.2893 2.81641 77.9206 2.81641 83.5518 8.45517C89.1838 14.0944 89.1838 19.7342 89.1838 29.5422V62.5746C89.1838 72.3829 89.1838 78.0232 83.5518 83.6624C77.9206 89.3007 72.2893 89.3007 62.4937 89.3007H29.5066Z" fill="#10C469"/>
<path d="M77.6249 67.9102L69.19 60.0152C70.2515 58.2368 71.1371 56.3134 71.8289 54.2805C73.443 49.5364 73.8437 44.7796 73.019 40.1444C72.1921 35.4954 70.2471 31.3419 67.2403 27.8C64.2287 24.254 60.3763 21.662 55.7905 20.0977C51.2026 18.5323 46.5809 18.234 42.0534 19.2098C38.0502 20.073 34.4035 21.8349 31.2123 24.4453C30.8513 24.7403 30.6337 25.1734 30.6118 25.6377C30.5895 26.1027 30.7646 26.5554 31.0949 26.8831L38.4064 34.1392C38.9167 34.6454 39.6969 34.7606 40.3315 34.4229C41.5867 33.7532 42.853 33.3074 44.1999 33.0601C46.5076 32.6367 48.8592 32.8248 51.1898 33.6199C53.5644 34.43 55.5755 35.7312 57.1675 37.4876C58.753 39.2375 59.8056 41.2481 60.295 43.4627C60.7892 45.6938 60.6627 47.8554 59.909 50.07C59.6138 50.938 59.2238 51.7738 58.7488 52.5562C58.2768 53.3302 58.5244 54.341 59.2985 54.8123C60.0723 55.2827 61.0809 55.0371 61.5517 54.2618C62.1495 53.2758 62.6412 52.2225 63.0134 51.1291C63.9529 48.3672 64.1161 45.5487 63.497 42.7528C62.883 39.9726 61.5696 37.4587 59.5954 35.2804C57.626 33.1081 55.1544 31.5033 52.2473 30.5116C49.3798 29.5332 46.4738 29.3042 43.608 29.8305C42.338 30.0633 41.0919 30.4516 39.8893 30.9876L34.7491 25.8853C37.1684 24.2068 39.8505 23.0445 42.7437 22.4202C46.6823 21.5713 50.7161 21.8356 54.733 23.206C58.7506 24.5766 62.1186 26.8384 64.7417 29.9276C67.3678 33.0204 69.067 36.6513 69.7898 40.7202C70.5168 44.8026 70.1579 49.0089 68.7246 53.2216C67.9685 55.444 66.9559 57.514 65.7154 59.3753C65.2699 60.0429 65.3729 60.9368 65.9601 61.4866L75.3856 70.3093C76.0471 70.9287 77.0855 70.8936 77.7032 70.2309C77.867 70.0553 77.9858 69.8537 78.0585 69.6401C78.2599 69.0479 78.1109 68.3658 77.6249 67.9102ZM63.9744 66.0554C63.8804 66.3314 63.7134 66.5805 63.4865 66.7736C60.1425 69.6347 56.3062 71.5469 52.0859 72.4576C47.5575 73.433 42.9142 73.1273 38.2851 71.548C33.697 69.9828 29.8549 67.3937 26.8641 63.8529C23.8788 60.3184 21.9529 56.1833 21.1397 51.5625C20.331 46.9569 20.7456 42.1947 22.3741 37.4085C23.1351 35.1719 24.1268 33.0715 25.3295 31.1453L14.597 21.763C13.9154 21.1671 13.8476 20.1292 14.4404 19.4459C15.0358 18.7626 16.0712 18.6927 16.7536 19.2888L28.5668 29.6165C29.1992 30.1688 29.3152 31.1078 28.8311 31.7951C27.4334 33.7929 26.305 36.0376 25.4783 38.4676C24.0298 42.7246 23.6572 46.9383 24.37 50.9933C25.081 55.0337 26.7627 58.6473 29.368 61.7322C31.97 64.8125 35.3259 67.0692 39.3426 68.4396C43.4014 69.8244 47.4561 70.0958 51.3947 69.2468C54.5038 68.5764 57.3757 67.2812 59.9551 65.3893L54.8376 60.3096C53.4807 60.9854 52.0513 61.4753 50.5744 61.7683C47.6889 62.3425 44.7455 62.1293 41.8284 61.1341C38.9553 60.154 36.5146 58.5449 34.5735 56.3511C32.6299 54.1564 31.3454 51.601 30.7548 48.7543C30.1639 45.9014 30.3398 43.0577 31.2774 40.302C31.702 39.0539 32.2772 37.8676 32.9852 36.7771C33.4794 36.0168 34.4951 35.8013 35.2538 36.2952C36.0131 36.7901 36.2309 37.8046 35.7339 38.5674C35.1746 39.4302 34.7188 40.3703 34.3816 41.3611C33.6355 43.5539 33.4961 45.8169 33.9659 48.0866C34.4387 50.3649 35.4686 52.4118 37.0271 54.1726C38.5867 55.9345 40.5585 57.2316 42.8859 58.0257C45.2498 58.8321 47.6223 59.0074 49.9356 58.547C51.4624 58.2448 52.9276 57.6804 54.2908 56.8713C54.9331 56.4904 55.7509 56.5916 56.2813 57.1178L63.5769 64.3596C63.902 64.6821 64.0771 65.1268 64.0612 65.5863C64.0541 65.7469 64.0253 65.9054 63.9744 66.0554Z" fill="white"/>
<path d="M2.81641 88.5215H89.1838V124.855L46.0001 148.976L2.81641 124.855V88.5215Z" fill="#444444"/>
<path d="M15.6193 104.725C15.2651 104.725 14.9463 104.664 14.6629 104.542C14.3795 104.416 14.1568 104.238 13.9949 104.01C13.8329 103.782 13.752 103.516 13.752 103.212H14.678C14.6983 103.44 14.7868 103.628 14.9437 103.775C15.1057 103.922 15.3309 103.995 15.6193 103.995C15.9179 103.995 16.1507 103.924 16.3177 103.782C16.4847 103.635 16.5682 103.448 16.5682 103.22C16.5682 103.042 16.515 102.898 16.4088 102.786C16.3075 102.675 16.1785 102.589 16.0216 102.528C15.8698 102.467 15.6573 102.401 15.384 102.33C15.0399 102.239 14.759 102.148 14.5414 102.057C14.3289 101.96 14.1467 101.813 13.9949 101.616C13.843 101.418 13.7671 101.155 13.7671 100.825C13.7671 100.521 13.843 100.255 13.9949 100.027C14.1467 99.7992 14.3592 99.6243 14.6325 99.5027C14.9058 99.3811 15.2221 99.3203 15.5814 99.3203C16.0925 99.3203 16.51 99.4495 16.8339 99.708C17.1628 99.9613 17.345 100.311 17.3804 100.757H16.4239C16.4088 100.564 16.3177 100.4 16.1507 100.263C15.9837 100.126 15.7635 100.058 15.4903 100.058C15.2423 100.058 15.0399 100.121 14.883 100.248C14.7261 100.374 14.6477 100.557 14.6477 100.795C14.6477 100.957 14.6958 101.091 14.7919 101.198C14.8931 101.299 15.0196 101.38 15.1714 101.441C15.3233 101.502 15.5307 101.568 15.7939 101.639C16.1431 101.735 16.4265 101.831 16.6441 101.927C16.8667 102.024 17.054 102.173 17.2058 102.376C17.3627 102.574 17.4411 102.84 17.4411 103.174C17.4411 103.443 17.3677 103.696 17.221 103.934C17.0793 104.172 16.8693 104.365 16.5909 104.512C16.3177 104.654 15.9938 104.725 15.6193 104.725ZM22.402 103.592H20.193L19.8135 104.672H18.9101L20.8003 99.3811H21.8023L23.6924 104.672H22.7815L22.402 103.592ZM22.1591 102.885L21.3013 100.43L20.4359 102.885H22.1591ZM28.3778 99.3887V100.096H26.1385V101.654H27.8844V102.361H26.1385V104.672H25.2732V99.3887H28.3778ZM30.8044 100.088V101.639H32.6262V102.346H30.8044V103.965H32.8539V104.672H29.939V99.3811H32.8539V100.088H30.8044ZM41.4861 104.672L40.8333 104.018C40.5803 104.271 40.3045 104.461 40.0059 104.588C39.7073 104.71 39.3733 104.77 39.0039 104.77C38.6294 104.77 38.2979 104.704 38.0095 104.573C37.721 104.441 37.4984 104.253 37.3415 104.01C37.1846 103.762 37.1062 103.476 37.1062 103.151C37.1062 102.786 37.2099 102.462 37.4174 102.178C37.6249 101.889 37.9336 101.661 38.3435 101.494C38.1967 101.317 38.093 101.152 38.0323 101C37.9715 100.843 37.9412 100.671 37.9412 100.483C37.9412 100.25 37.9994 100.042 38.1158 99.86C38.2372 99.6776 38.4093 99.5331 38.6319 99.4267C38.8546 99.3203 39.1127 99.2671 39.4062 99.2671C39.7048 99.2671 39.9578 99.3254 40.1653 99.4419C40.3778 99.5534 40.5347 99.708 40.6359 99.9056C40.7422 100.103 40.7852 100.324 40.765 100.567H39.8996C39.9047 100.379 39.8591 100.235 39.763 100.134C39.6668 100.027 39.5353 99.974 39.3683 99.974C39.2013 99.974 39.0646 100.025 38.9584 100.126C38.8571 100.222 38.8065 100.341 38.8065 100.483C38.8065 100.62 38.8445 100.757 38.9204 100.894C39.0014 101.025 39.1405 101.198 39.3379 101.411L40.7346 102.802L41.2736 101.912H42.2072L41.5241 103.083L41.3343 103.395L42.6172 104.672H41.4861ZM39.0039 104.033C39.4796 104.033 39.8996 103.838 40.264 103.448L38.8673 102.042C38.2701 102.28 37.9715 102.639 37.9715 103.121C37.9715 103.379 38.0677 103.597 38.26 103.775C38.4523 103.947 38.7003 104.033 39.0039 104.033ZM48.4129 104.725C48.0586 104.725 47.7398 104.664 47.4564 104.542C47.173 104.416 46.9504 104.238 46.7884 104.01C46.6265 103.782 46.5455 103.516 46.5455 103.212H47.4716C47.4918 103.44 47.5804 103.628 47.7373 103.775C47.8992 103.922 48.1244 103.995 48.4129 103.995C48.7115 103.995 48.9442 103.924 49.1112 103.782C49.2782 103.635 49.3617 103.448 49.3617 103.22C49.3617 103.042 49.3086 102.898 49.2023 102.786C49.1011 102.675 48.9721 102.589 48.8152 102.528C48.6634 102.467 48.4508 102.401 48.1776 102.33C47.8334 102.239 47.5526 102.148 47.335 102.057C47.1224 101.96 46.9402 101.813 46.7884 101.616C46.6366 101.418 46.5607 101.155 46.5607 100.825C46.5607 100.521 46.6366 100.255 46.7884 100.027C46.9402 99.7992 47.1528 99.6243 47.4261 99.5027C47.6993 99.3811 48.0156 99.3203 48.3749 99.3203C48.886 99.3203 49.3035 99.4495 49.6274 99.708C49.9564 99.9613 50.1385 100.311 50.174 100.757H49.2175C49.2023 100.564 49.1112 100.4 48.9442 100.263C48.7772 100.126 48.5571 100.058 48.2838 100.058C48.0359 100.058 47.8334 100.121 47.6766 100.248C47.5197 100.374 47.4412 100.557 47.4412 100.795C47.4412 100.957 47.4893 101.091 47.5855 101.198C47.6867 101.299 47.8132 101.38 47.965 101.441C48.1168 101.502 48.3243 101.568 48.5875 101.639C48.9366 101.735 49.22 101.831 49.4376 101.927C49.6603 102.024 49.8476 102.173 49.9994 102.376C50.1563 102.574 50.2347 102.84 50.2347 103.174C50.2347 103.443 50.1613 103.696 50.0146 103.934C49.8729 104.172 49.6628 104.365 49.3845 104.512C49.1112 104.654 48.7874 104.725 48.4129 104.725ZM52.8802 100.088V101.639H54.702V102.346H52.8802V103.965H54.9297V104.672H52.0148V99.3811H54.9297V100.088H52.8802ZM56.4661 102.019C56.4661 101.502 56.585 101.038 56.8229 100.628C57.0658 100.217 57.3922 99.898 57.8021 99.67C58.2171 99.4369 58.67 99.3203 59.1609 99.3203C59.7226 99.3203 60.2211 99.4596 60.6563 99.7384C61.0966 100.012 61.4154 100.402 61.6127 100.909H60.5728C60.4362 100.63 60.2464 100.422 60.0035 100.286C59.7606 100.149 59.4797 100.08 59.1609 100.08C58.8117 100.08 58.5005 100.159 58.2272 100.316C57.9539 100.473 57.7389 100.699 57.582 100.993C57.4302 101.286 57.3543 101.629 57.3543 102.019C57.3543 102.409 57.4302 102.751 57.582 103.045C57.7389 103.339 57.9539 103.567 58.2272 103.729C58.5005 103.886 58.8117 103.965 59.1609 103.965C59.4797 103.965 59.7606 103.896 60.0035 103.759C60.2464 103.623 60.4362 103.415 60.5728 103.136H61.6127C61.4154 103.643 61.0966 104.033 60.6563 104.307C60.2211 104.58 59.7226 104.717 59.1609 104.717C58.665 104.717 58.212 104.603 57.8021 104.375C57.3922 104.142 57.0658 103.82 56.8229 103.41C56.585 102.999 56.4661 102.536 56.4661 102.019ZM64.2426 99.3887V102.756C64.2426 103.156 64.3463 103.458 64.5538 103.661C64.7663 103.863 65.0598 103.965 65.4343 103.965C65.8139 103.965 66.1074 103.863 66.3149 103.661C66.5274 103.458 66.6337 103.156 66.6337 102.756V99.3887H67.4991V102.741C67.4991 103.172 67.4054 103.536 67.2182 103.835C67.0309 104.134 66.7804 104.357 66.4667 104.504C66.1529 104.651 65.8063 104.725 65.4267 104.725C65.0472 104.725 64.7005 104.651 64.3868 104.504C64.0781 104.357 63.8327 104.134 63.6505 103.835C63.4683 103.536 63.3772 103.172 63.3772 102.741V99.3887H64.2426ZM72.1251 104.672L70.9106 102.558H70.2502V104.672H69.3848V99.3887H71.2066C71.6115 99.3887 71.953 99.4596 72.2314 99.6015C72.5148 99.7434 72.7248 99.9335 72.8614 100.172C73.0031 100.41 73.074 100.676 73.074 100.97C73.074 101.314 72.9727 101.629 72.7703 101.912C72.573 102.191 72.2668 102.381 71.8518 102.482L73.1575 104.672H72.1251ZM70.2502 101.867H71.2066C71.5305 101.867 71.7734 101.786 71.9353 101.623C72.1023 101.461 72.1858 101.243 72.1858 100.97C72.1858 100.696 72.1049 100.483 71.9429 100.331C71.781 100.174 71.5355 100.096 71.2066 100.096H70.2502V101.867ZM75.8055 100.088V101.639H77.6273V102.346H75.8055V103.965H77.855V104.672H74.9401V99.3811H77.855V100.088H75.8055ZM22.0383 111.47L20.3008 117.34H19.2128L17.9814 112.898L16.6741 117.34L15.5945 117.349L13.9329 111.47H14.9535L16.168 116.251L17.4838 111.47H18.5634L19.7863 116.225L21.0093 111.47H22.0383ZM27.1075 117.399C26.5621 117.399 26.0589 117.273 25.5977 117.019C25.1423 116.76 24.7796 116.403 24.5097 115.947C24.2455 115.485 24.1133 114.967 24.1133 114.393C24.1133 113.818 24.2455 113.303 24.5097 112.847C24.7796 112.391 25.1423 112.036 25.5977 111.783C26.0589 111.524 26.5621 111.394 27.1075 111.394C27.6586 111.394 28.1618 111.524 28.6172 111.783C29.0784 112.036 29.4411 112.391 29.7052 112.847C29.9696 113.303 30.1016 113.818 30.1016 114.393C30.1016 114.967 29.9696 115.485 29.7052 115.947C29.4411 116.403 29.0784 116.76 28.6172 117.019C28.1618 117.273 27.6586 117.399 27.1075 117.399ZM27.1075 116.563C27.4954 116.563 27.8413 116.476 28.1449 116.301C28.4485 116.121 28.6847 115.868 28.8534 115.541C29.0278 115.209 29.1148 114.826 29.1148 114.393C29.1148 113.959 29.0278 113.579 28.8534 113.252C28.6847 112.926 28.4485 112.675 28.1449 112.501C27.8413 112.326 27.4954 112.239 27.1075 112.239C26.7195 112.239 26.3737 112.326 26.07 112.501C25.7664 112.675 25.5276 112.926 25.3531 113.252C25.1844 113.579 25.1001 113.959 25.1001 114.393C25.1001 114.826 25.1844 115.209 25.3531 115.541C25.5276 115.868 25.7664 116.121 26.07 116.301C26.3737 116.476 26.7195 116.563 27.1075 116.563ZM35.6951 117.34L34.3456 114.992H33.6118V117.34H32.6503V111.47H34.6746C35.1244 111.47 35.504 111.549 35.8132 111.707C36.1281 111.864 36.3614 112.076 36.5132 112.34C36.6708 112.605 36.7494 112.901 36.7494 113.227C36.7494 113.61 36.6371 113.959 36.412 114.274C36.1927 114.584 35.8527 114.795 35.3915 114.908L36.8422 117.34H35.6951ZM33.6118 114.224H34.6746C35.0345 114.224 35.3044 114.134 35.4843 113.953C35.6698 113.773 35.7626 113.531 35.7626 113.227C35.7626 112.923 35.6727 112.686 35.4927 112.518C35.3129 112.343 35.0401 112.256 34.6746 112.256H33.6118V114.224ZM42.8123 117.34L40.5435 114.713V117.34H39.582V111.47H40.5435V114.148L42.8208 111.47H44.0269L41.4797 114.409L44.069 117.34H42.8123ZM50.621 113.219C50.621 113.517 50.5506 113.798 50.4101 114.063C50.2694 114.328 50.0446 114.545 49.7354 114.713C49.426 114.877 49.0296 114.958 48.5461 114.958H47.4834V117.34H46.5219V111.47H48.5461C48.9959 111.47 49.3754 111.549 49.6848 111.707C49.9995 111.859 50.233 112.067 50.3848 112.332C50.5422 112.596 50.621 112.892 50.621 113.219ZM48.5461 114.173C48.9115 114.173 49.1843 114.091 49.3643 113.928C49.5441 113.759 49.6342 113.523 49.6342 113.219C49.6342 112.577 49.2715 112.256 48.5461 112.256H47.4834V114.173H48.5461ZM54.102 116.563H56.0841V117.34H53.1405V111.47H54.102V116.563ZM62.0247 116.141H59.5703L59.1486 117.34H58.1449L60.245 111.462H61.3584L63.4585 117.34H62.4464L62.0247 116.141ZM61.7548 115.355L60.8017 112.627L59.8402 115.355H61.7548ZM65.6536 114.393C65.6536 113.818 65.7859 113.303 66.05 112.847C66.3199 112.391 66.6826 112.036 67.1381 111.783C67.5993 111.524 68.1024 111.394 68.6478 111.394C69.2719 111.394 69.8259 111.549 70.3094 111.859C70.7986 112.163 71.1528 112.596 71.3721 113.159H70.2166C70.0648 112.85 69.8539 112.619 69.584 112.467C69.3141 112.315 69.002 112.239 68.6478 112.239C68.2598 112.239 67.914 112.326 67.6104 112.501C67.3067 112.675 67.0679 112.926 66.8935 113.252C66.7248 113.579 66.6404 113.959 66.6404 114.393C66.6404 114.826 66.7248 115.206 66.8935 115.533C67.0679 115.859 67.3067 116.113 67.6104 116.293C67.914 116.467 68.2598 116.555 68.6478 116.555C69.002 116.555 69.3141 116.479 69.584 116.327C69.8539 116.175 70.0648 115.944 70.2166 115.634H71.3721C71.1528 116.197 70.7986 116.631 70.3094 116.935C69.8259 117.239 69.2719 117.391 68.6478 117.391C68.0969 117.391 67.5935 117.264 67.1381 117.011C66.6826 116.752 66.3199 116.394 66.05 115.938C65.7859 115.482 65.6536 114.967 65.6536 114.393ZM75.0616 112.247V113.97H77.0858V114.756H75.0616V116.555H77.3389V117.34H74.1001V111.462H77.3389V112.247H75.0616Z" fill="white"/>
</svg>
