<svg width="211" height="100" viewBox="0 0 211 100" fill="none" xmlns="http://www.w3.org/2000/svg">
<path fill-rule="evenodd" clip-rule="evenodd" d="M186.067 50.9661C186.067 39.4605 180.494 30.3818 169.843 30.3818C159.146 30.3818 152.674 39.4605 152.674 50.8762C152.674 64.4043 160.315 71.2358 171.281 71.2358C176.629 71.2358 180.674 70.0223 183.73 68.3144V59.3257C180.674 60.8537 177.169 61.7976 172.719 61.7976C168.36 61.7976 164.494 60.2695 164 54.9661H185.978C185.978 54.3818 186.067 52.0448 186.067 50.9661ZM163.865 46.6964C163.865 41.6178 166.966 39.5054 169.798 39.5054C172.539 39.5054 175.461 41.6178 175.461 46.6964H163.865Z" fill="#635BFF"/>
<path fill-rule="evenodd" clip-rule="evenodd" d="M135.326 30.3818C130.921 30.3818 128.09 32.4493 126.517 33.8875L125.933 31.1009H116.045V83.5054L127.281 81.1234L127.326 68.4043C128.944 69.5728 131.326 71.2358 135.281 71.2358C143.326 71.2358 150.652 64.7639 150.652 50.5167C150.607 37.483 143.191 30.3818 135.326 30.3818ZM132.629 61.3481C129.978 61.3481 128.404 60.4043 127.326 59.2358L127.281 42.5616C128.449 41.2582 130.067 40.3594 132.629 40.3594C136.719 40.3594 139.551 44.9436 139.551 50.8313C139.551 56.8537 136.764 61.3481 132.629 61.3481Z" fill="#635BFF"/>
<path fill-rule="evenodd" clip-rule="evenodd" d="M100.584 27.7302L111.865 25.3033V16.1797L100.584 18.5617V27.7302Z" fill="#635BFF"/>
<path d="M111.865 31.146H100.584V70.4718H111.865V31.146Z" fill="#635BFF"/>
<path fill-rule="evenodd" clip-rule="evenodd" d="M88.4944 34.4718L87.7753 31.146H78.0674V70.4718H89.3034V43.8201C91.9551 40.3594 96.4494 40.9887 97.8427 41.483V31.146C96.4045 30.6066 91.1461 29.6179 88.4944 34.4718Z" fill="#635BFF"/>
<path fill-rule="evenodd" clip-rule="evenodd" d="M66.0225 21.3931L55.0562 23.7301L55.0112 59.7301C55.0112 66.3818 60 71.2807 66.6517 71.2807C70.3371 71.2807 73.0337 70.6065 74.5168 69.7976V60.674C73.0786 61.2582 65.9775 63.3256 65.9775 56.674V40.7189H74.5168V31.1459H65.9775L66.0225 21.3931Z" fill="#635BFF"/>
<path fill-rule="evenodd" clip-rule="evenodd" d="M35.6404 42.5616C35.6404 40.8088 37.0786 40.1346 39.4607 40.1346C42.8764 40.1346 47.191 41.1684 50.6067 43.011V32.4493C46.8764 30.9661 43.191 30.3818 39.4607 30.3818C30.3371 30.3818 24.2697 35.1459 24.2697 43.1009C24.2697 55.5054 41.3483 53.5279 41.3483 58.8762C41.3483 60.9436 39.5506 61.6178 37.0337 61.6178C33.3034 61.6178 28.5393 60.0897 24.764 58.0223V68.7189C28.9438 70.5167 33.1685 71.2807 37.0337 71.2807C46.382 71.2807 52.809 66.6515 52.809 58.6066C52.764 45.2133 35.6404 47.5953 35.6404 42.5616Z" fill="#635BFF"/>
</svg>
