<svg width="100" height="94" viewBox="0 0 100 94" fill="none" xmlns="http://www.w3.org/2000/svg">
<g clip-path="url(#clip0_110_6)">
<path d="M69.7512 34.8838H95.5814C98.0217 34.8838 100 36.862 100 39.3024V62.8303C100 71.7992 92.7293 79.0698 83.7605 79.0698H83.6837C74.7148 79.0711 67.4431 71.8015 67.4418 62.8326C67.4418 62.8318 67.4418 62.8311 67.4418 62.8303V37.1931C67.4419 35.9177 68.4758 34.8838 69.7512 34.8838Z" fill="#5059C9"/>
<path d="M87.2093 30.2325C92.989 30.2325 97.6744 25.5471 97.6744 19.7674C97.6744 13.9876 92.989 9.30225 87.2093 9.30225C81.4296 9.30225 76.7442 13.9876 76.7442 19.7674C76.7442 25.5471 81.4296 30.2325 87.2093 30.2325Z" fill="#5059C9"/>
<path d="M54.6511 30.2326C62.9996 30.2326 69.7674 23.4648 69.7674 15.1163C69.7674 6.7678 62.9996 0 54.6511 0C46.3026 0 39.5349 6.7678 39.5349 15.1163C39.5349 23.4648 46.3026 30.2326 54.6511 30.2326Z" fill="#7B83EB"/>
<path d="M74.807 34.8838H32.1697C29.7585 34.9435 27.851 36.9446 27.907 39.3559V66.1908C27.5702 80.6611 39.0185 92.6692 53.4884 93.0234C67.9583 92.6692 79.4065 80.6611 79.0698 66.1908V39.3559C79.1256 36.9446 77.2182 34.9435 74.807 34.8838Z" fill="#7B83EB"/>
<path opacity="0.1" d="M55.814 34.8838V72.4884C55.8024 74.2129 54.7574 75.7621 53.1628 76.4187C52.6551 76.6334 52.1094 76.7441 51.5582 76.7442H29.9535C29.6512 75.9768 29.3721 75.2094 29.1395 74.4187C28.3255 71.7502 27.9101 68.9761 27.907 66.1861V39.3489C27.8511 36.9414 29.7554 34.9435 32.1628 34.8838H55.814Z" fill="black"/>
<path opacity="0.2" d="M53.4885 34.8838V74.814C53.4884 75.3653 53.3777 75.911 53.1629 76.4187C52.5064 78.0133 50.9572 79.0583 49.2327 79.0698H31.0466C30.6512 78.3024 30.2791 77.5349 29.9535 76.7443C29.6279 75.9536 29.3721 75.2094 29.1395 74.4187C28.3255 71.7502 27.9101 68.9761 27.907 66.1861V39.3489C27.8511 36.9414 29.7554 34.9435 32.1628 34.8838H53.4885Z" fill="black"/>
<path opacity="0.2" d="M53.4885 34.8838V70.1629C53.4708 72.5059 51.5757 74.401 49.2327 74.4187H29.1395C28.3255 71.7502 27.9101 68.9761 27.907 66.1861V39.3489C27.8511 36.9414 29.7554 34.9435 32.1628 34.8838H53.4885Z" fill="black"/>
<path opacity="0.2" d="M51.1628 34.8838V70.1629C51.145 72.5059 49.25 74.401 46.907 74.4187H29.1395C28.3255 71.7502 27.9101 68.9761 27.907 66.1861V39.3489C27.8511 36.9414 29.7554 34.9435 32.1628 34.8838H51.1628Z" fill="black"/>
<path opacity="0.1" d="M55.814 22.8605V30.1861C55.4186 30.2093 55.0465 30.2326 54.6512 30.2326C54.2558 30.2326 53.8837 30.2094 53.4884 30.1861C52.7034 30.134 51.9249 30.0095 51.1628 29.814C46.4535 28.6988 42.5628 25.396 40.6977 20.9303C40.3768 20.1804 40.1276 19.4017 39.9535 18.6047H51.5581C53.9049 18.6136 55.8051 20.5138 55.814 22.8605Z" fill="black"/>
<path opacity="0.2" d="M53.4885 25.1859V30.186C52.7035 30.1339 51.925 30.0093 51.1629 29.8139C46.4535 28.6986 42.5629 25.3959 40.6977 20.9302H49.2326C51.5794 20.9391 53.4796 22.8392 53.4885 25.1859Z" fill="black"/>
<path opacity="0.2" d="M53.4885 25.1859V30.186C52.7035 30.1339 51.925 30.0093 51.1629 29.8139C46.4535 28.6986 42.5629 25.3959 40.6977 20.9302H49.2326C51.5794 20.9391 53.4796 22.8392 53.4885 25.1859Z" fill="black"/>
<path opacity="0.2" d="M51.1628 25.186V29.8139C46.4535 28.6986 42.5628 25.3959 40.6977 20.9302H46.907C49.2537 20.9391 51.1539 22.8393 51.1628 25.186Z" fill="black"/>
<path d="M4.26277 20.9302H46.9C49.2542 20.9302 51.1627 22.8387 51.1627 25.1929V67.8301C51.1627 70.1844 49.2542 72.0929 46.9 72.0929H4.26277C1.90849 72.0929 0 70.1844 0 67.8301V25.1929C0 22.8387 1.90853 20.9302 4.26277 20.9302Z" fill="url(#paint0_linear_110_6)"/>
<path d="M36.8 37.1581H28.2767V60.3675H22.8465V37.1581H14.3628V32.6558H36.8V37.1581Z" fill="white"/>
</g>
<defs>
<linearGradient id="paint0_linear_110_6" x1="8.88801" y1="17.5993" x2="42.2748" y2="75.4238" gradientUnits="userSpaceOnUse">
<stop stop-color="#5A62C3"/>
<stop offset="0.5" stop-color="#4D55BD"/>
<stop offset="1" stop-color="#3940AB"/>
</linearGradient>
<clipPath id="clip0_110_6">
<rect width="100" height="93.0233" fill="white"/>
</clipPath>
</defs>
</svg>
