<svg width="272" height="250" viewBox="0 0 272 250" fill="none" xmlns="http://www.w3.org/2000/svg">
<path d="M266.046 11.9053C269.333 11.9053 272.001 9.2425 272.001 5.95014C272.001 2.66311 269.333 0.000459671 266.046 0.000459671C262.759 0.000459671 260.096 2.66311 260.096 5.95014C260.096 9.2425 262.759 11.9053 266.046 11.9053Z" fill="#424242"/>
<path d="M201.233 11.9053C204.52 11.9053 207.183 9.2425 207.183 5.95014C207.183 2.66311 204.52 0.000459671 201.233 0.000459671C197.946 0.000459671 195.283 2.66311 195.283 5.95014C195.283 9.2425 197.946 11.9053 201.233 11.9053Z" fill="#424242"/>
<path d="M136.418 11.9053C139.705 11.9053 142.368 9.2425 142.368 5.95014C142.368 2.66311 139.705 0.000459671 136.418 0.000459671C133.131 0.000459671 130.469 2.66311 130.469 5.95014C130.469 9.2425 133.131 11.9053 136.418 11.9053Z" fill="#424242"/>
<path d="M71.6039 11.9053C74.8909 11.9053 77.5537 9.2425 77.5537 5.95014C77.5537 2.66311 74.8909 0.000459671 71.6039 0.000459671C68.3168 0.000459671 65.6542 2.66311 65.6542 5.95014C65.6542 9.2425 68.3168 11.9053 71.6039 11.9053Z" fill="#424242"/>
<path d="M6.78844 11.9053C10.0808 11.9053 12.7383 9.2425 12.7383 5.95014C12.7383 2.66311 10.0808 0.000459671 6.78844 0.000459671C3.50141 0.000459671 0.833386 2.66311 0.833386 5.95014C0.833386 9.2425 3.50141 11.9053 6.78844 11.9053Z" fill="#424242"/>
<path d="M266.046 59.5234C269.333 59.5234 272.001 56.8554 272.001 53.5737C272.001 50.2813 269.333 47.6186 266.046 47.6186C262.759 47.6186 260.096 50.2813 260.096 53.5737C260.096 56.8554 262.759 59.5234 266.046 59.5234Z" fill="#424242"/>
<path d="M201.233 59.5234C204.52 59.5234 207.183 56.8554 207.183 53.5737C207.183 50.2813 204.52 47.6186 201.233 47.6186C197.946 47.6186 195.283 50.2813 195.283 53.5737C195.283 56.8554 197.946 59.5234 201.233 59.5234Z" fill="#424242"/>
<path d="M136.418 59.5234C139.705 59.5234 142.368 56.8554 142.368 53.5737C142.368 50.2813 139.705 47.6186 136.418 47.6186C133.131 47.6186 130.469 50.2813 130.469 53.5737C130.469 56.8554 133.131 59.5234 136.418 59.5234Z" fill="#424242"/>
<path d="M71.6068 59.5234C74.8938 59.5234 77.5566 56.8554 77.5566 53.5737C77.5566 50.2813 74.8938 47.6186 71.6068 47.6186C68.3198 47.6186 65.6571 50.2813 65.6571 53.5737C65.6571 56.8554 68.3198 59.5234 71.6068 59.5234Z" fill="#424242"/>
<path d="M6.78844 59.5234C10.0808 59.5234 12.7383 56.8554 12.7383 53.5737C12.7383 50.2813 10.0808 47.6186 6.78844 47.6186C3.50141 47.6186 0.833386 50.2813 0.833386 53.5737C0.833386 56.8554 3.50141 59.5234 6.78844 59.5234Z" fill="#424242"/>
<path d="M266.046 107.143C269.333 107.143 272.001 104.48 272.001 101.188C272.001 97.901 269.333 95.2383 266.046 95.2383C262.759 95.2383 260.096 97.901 260.096 101.188C260.096 104.48 262.759 107.143 266.046 107.143Z" fill="#424242"/>
<path d="M201.233 107.143C204.52 107.143 207.183 104.48 207.183 101.188C207.183 97.901 204.52 95.2383 201.233 95.2383C197.946 95.2383 195.283 97.901 195.283 101.188C195.283 104.48 197.946 107.143 201.233 107.143Z" fill="#424242"/>
<path d="M136.418 107.143C139.705 107.143 142.368 104.48 142.368 101.188C142.368 97.901 139.705 95.2383 136.418 95.2383C133.131 95.2383 130.469 97.901 130.469 101.188C130.469 104.48 133.131 107.143 136.418 107.143Z" fill="#424242"/>
<path d="M71.6039 107.143C74.8909 107.143 77.5537 104.48 77.5537 101.188C77.5537 97.901 74.8909 95.2383 71.6039 95.2383C68.3168 95.2383 65.6542 97.901 65.6542 101.188C65.6542 104.48 68.3168 107.143 71.6039 107.143Z" fill="#424242"/>
<path d="M6.78844 107.143C10.0808 107.143 12.7383 104.48 12.7383 101.188C12.7383 97.901 10.0808 95.2383 6.78844 95.2383C3.50141 95.2383 0.833386 97.901 0.833386 101.188C0.833386 104.48 3.50141 107.143 6.78844 107.143Z" fill="#424242"/>
<path d="M266.046 154.762C269.333 154.762 272.001 152.094 272.001 148.812C272.001 145.525 269.333 142.857 266.046 142.857C262.759 142.857 260.096 145.525 260.096 148.812C260.096 152.094 262.759 154.762 266.046 154.762Z" fill="#424242"/>
<path d="M201.233 154.762C204.52 154.762 207.183 152.094 207.183 148.812C207.183 145.525 204.52 142.857 201.233 142.857C197.946 142.857 195.283 145.525 195.283 148.812C195.283 152.094 197.946 154.762 201.233 154.762Z" fill="#424242"/>
<path d="M136.418 154.762C139.705 154.762 142.368 152.094 142.368 148.812C142.368 145.525 139.705 142.857 136.418 142.857C133.131 142.857 130.469 145.525 130.469 148.812C130.469 152.094 133.131 154.762 136.418 154.762Z" fill="#424242"/>
<path d="M71.6039 154.762C74.8909 154.762 77.5537 152.094 77.5537 148.812C77.5537 145.525 74.8909 142.857 71.6039 142.857C68.3168 142.857 65.6542 145.525 65.6542 148.812C65.6542 152.094 68.3168 154.762 71.6039 154.762Z" fill="#424242"/>
<path d="M6.78844 154.762C10.0808 154.762 12.7383 152.094 12.7383 148.812C12.7383 145.525 10.0808 142.857 6.78844 142.857C3.50141 142.857 0.833386 145.525 0.833386 148.812C0.833386 152.094 3.50141 154.762 6.78844 154.762Z" fill="#424242"/>
<path d="M266.046 202.382C269.333 202.382 272.001 199.719 272.001 196.432C272.001 193.14 269.333 190.477 266.046 190.477C262.759 190.477 260.096 193.14 260.096 196.432C260.096 199.719 262.759 202.382 266.046 202.382Z" fill="#424242"/>
<path d="M201.233 202.382C204.52 202.382 207.183 199.719 207.183 196.432C207.183 193.14 204.52 190.477 201.233 190.477C197.946 190.477 195.283 193.14 195.283 196.432C195.283 199.719 197.946 202.382 201.233 202.382Z" fill="#424242"/>
<path d="M136.418 202.382C139.705 202.382 142.368 199.719 142.368 196.432C142.368 193.14 139.705 190.477 136.418 190.477C133.131 190.477 130.469 193.14 130.469 196.432C130.469 199.719 133.131 202.382 136.418 202.382Z" fill="#424242"/>
<path d="M71.6039 202.382C74.8909 202.382 77.5537 199.719 77.5537 196.432C77.5537 193.14 74.8909 190.477 71.6039 190.477C68.3168 190.477 65.6542 193.14 65.6542 196.432C65.6542 199.719 68.3168 202.382 71.6039 202.382Z" fill="#424242"/>
<path d="M6.78844 202.382C10.0808 202.382 12.7383 199.719 12.7383 196.432C12.7383 193.14 10.0808 190.477 6.78844 190.477C3.50141 190.477 0.833386 193.14 0.833386 196.432C0.833386 199.719 3.50141 202.382 6.78844 202.382Z" fill="#424242"/>
<path d="M266.046 250C269.333 250 272.001 247.337 272.001 244.05C272.001 240.763 269.333 238.095 266.046 238.095C262.759 238.095 260.096 240.763 260.096 244.05C260.096 247.337 262.759 250 266.046 250Z" fill="#424242"/>
<path d="M201.233 250C204.52 250 207.183 247.337 207.183 244.05C207.183 240.763 204.52 238.095 201.233 238.095C197.946 238.095 195.283 240.763 195.283 244.05C195.283 247.337 197.946 250 201.233 250Z" fill="#424242"/>
<path d="M136.418 250C139.705 250 142.368 247.337 142.368 244.05C142.368 240.763 139.705 238.095 136.418 238.095C133.131 238.095 130.469 240.763 130.469 244.05C130.469 247.337 133.131 250 136.418 250Z" fill="#424242"/>
<path d="M71.6039 250C74.8909 250 77.5537 247.337 77.5537 244.05C77.5537 240.763 74.8909 238.095 71.6039 238.095C68.3168 238.095 65.6542 240.763 65.6542 244.05C65.6542 247.337 68.3168 250 71.6039 250Z" fill="#424242"/>
<path d="M6.78844 250C10.0808 250 12.7383 247.337 12.7383 244.05C12.7383 240.763 10.0808 238.095 6.78844 238.095C3.50141 238.095 0.833386 240.763 0.833386 244.05C0.833386 247.337 3.50141 250 6.78844 250Z" fill="#424242"/>
</svg>
