<?xml version="1.0" encoding="UTF-8"?>
<svg width="210mm " height="135mm" fill="none" version="1.1" viewBox="0 0 256 175" xmlns="http://www.w3.org/2000/svg"
   xmlns:cc="http://creativecommons.org/ns#" xmlns:dc="http://purl.org/dc/elements/1.1/"
   xmlns:rdf="http://www.w3.org/1999/02/22-rdf-syntax-ns#" xmlns:xlink="http://www.w3.org/1999/xlink">
   <metadata>
      <rdf:RDF>
         <cc:Work rdf:about="">
            <dc:format>image/svg+xml</dc:format>
            <dc:type rdf:resource="http://purl.org/dc/dcmitype/StillImage" />
            <dc:title />
         </cc:Work>
      </rdf:RDF>
   </metadata>
   <g fill="#28d57a" transform="translate(0 50.197)">
      <circle class="blob" r="1">
         <animateMotion begin="2s" dur="30s" repeatCount="indefinite">
            <mpath xlink:href="#bubble_path_1" />
         </animateMotion>
      </circle>
      <circle class="blob" r="1">
         <animateMotion begin="4s" dur="30s" repeatCount="indefinite">
            <mpath xlink:href="#bubble_path_1" />
         </animateMotion>
      </circle>
      <circle class="blob" r="1">
         <animateMotion begin="6s" dur="30s" repeatCount="indefinite">
            <mpath xlink:href="#bubble_path_1" />
         </animateMotion>
      </circle>
      <circle class="blob" r="1">
         <animateMotion begin="2s" dur="20s" repeatCount="indefinite">
            <mpath xlink:href="#bubble_path_2" />
         </animateMotion>
      </circle>
      <circle class="blob" r="1">
         <animateMotion begin="4s" dur="20s" repeatCount="indefinite">
            <mpath xlink:href="#bubble_path_2" />
         </animateMotion>
      </circle>
      <circle class="blob" r="1">
         <animateMotion begin="6s" dur="20s" repeatCount="indefinite">
            <mpath xlink:href="#bubble_path_2" />
         </animateMotion>
      </circle>
      <circle class="blob" r="1">
         <animateMotion begin="8s" dur="20s" repeatCount="indefinite">
            <mpath xlink:href="#bubble_path_2" />
         </animateMotion>
      </circle>
      <circle class="blob" r="1">
         <animateMotion dur="12s" repeatCount="indefinite">
            <mpath xlink:href="#bubble_path_3" />
         </animateMotion>
      </circle>
      <circle class="blob" r="1">
         <animateMotion dur="12s" repeatCount="indefinite">
            <mpath xlink:href="#bubble_path_4" />
         </animateMotion>
      </circle>
      <circle class="blob" r="1">
         <animateMotion dur="12s" repeatCount="indefinite">
            <mpath xlink:href="#bubble_path_5" />
         </animateMotion>
      </circle>
      <circle class="blob" r="1">
         <animateMotion dur="12s" repeatCount="indefinite">
            <mpath xlink:href="#bubble_path_6" />
         </animateMotion>
      </circle>
   </g>
   <g transform="translate(0 50.197)">
      <g fill="#28D57A">
         <path class="st1" id="bubble_path_1"
            d="m132.13 84.656c2.961 1.709 8.155 1.4916 11.579-0.4847l58.259-33.636c1.784-1.0298 2.806-2.3857 2.806-3.7209 0-1.0954-0.698-2.1017-1.967-2.8336l-59.94-34.607c-2.961-1.7095-8.155-1.4916-11.578 0.48479l-58.259 33.636c-1.7836 1.0297-2.8062 2.3856-2.8062 3.7209 0 1.0949 0.6982 2.1017 1.967 2.8336zm5.02 1.3735c-1.924 0-3.762-0.3877-5.132-1.1789l-59.94-34.606c-1.3411-0.7745-2.0793-1.8496-2.0793-3.0285 0-1.4175 1.0634-2.8449 2.9185-3.9159l58.26-33.636c3.484-2.0128 8.78-2.2293 11.802-0.48475l59.941 34.606c1.34 0.7741 2.079 1.8497 2.079 3.0286 0 1.4174-1.063 2.8443-2.919 3.9159l-58.259 33.635c-1.905 1.1004-4.351 1.6638-6.671 1.6638z" />
         <path class="st1" id="bubble_path_2"
            d="m144.36 90.851c-3.509 2.0255-9.665 1.7679-13.723-0.5744l-69.048-39.865c-2.1139-1.2204-3.3259-2.8275-3.3259-4.41 0-1.2982 0.8281-2.4909 2.3312-3.3583l71.041-41.016c3.509-2.0261 9.665-1.7678 13.722 0.57456l69.048 39.865c2.114 1.2205 3.326 2.8275 3.326 4.41 0 1.2977-0.828 2.4909-2.331 3.3584zm-5.95 1.6279c2.281 0 4.459-0.4595 6.083-1.3972l71.04-41.015c1.589-0.918 2.464-2.1922 2.464-3.5894 0-1.68-1.26-3.3716-3.459-4.641l-69.048-39.864c-4.13-2.3855-10.406-2.6421-13.988-0.57451l-71.041 41.015c-1.5889 0.9174-2.4643 2.1922-2.4643 3.5894 0 1.68 1.2604 3.3711 3.459 4.6411l69.048 39.864c2.258 1.3042 5.157 1.9719 7.906 1.9719z" />
         <path class="st1" id="bubble_path_3"
            d="m165.35 15.743 22.142-13.08 26.925 13.85-0.143 0.2586-26.777-13.772-22 13-2.254 1.2962s-0.278 0.1599-0.651 0.2816c-0.372 0.1217-0.851 0.2172-1.274 0.0415-0.834-0.3469-0.932-1.4311-0.932-1.4311v-0.0092l-0.014-2.7053s-0.025-0.337-0.157-0.7064c-0.132-0.3693-0.367-0.7481-0.766-0.8679-0.458-0.1374-1.024-0.082-1.436 0.1524-0.815 0.4636-2.027 1.1633-2.027 1.1633l-0.148-0.2539s1.211-0.6988 2.027-1.1633c0.494-0.281 1.131-0.3423 1.671-0.1801 0.529 0.1588 0.808 0.6352 0.956 1.048s0.175 0.7894 0.175 0.7894v0.0046l0.014 2.6961s0.121 0.924 0.753 1.1864c0.31 0.1291 0.725 0.0651 1.066-0.0461s0.596-0.2586 0.596-0.2586z" />
         <path class="st1" id="bubble_path_4"
            d="m228.31 9.4516c-0.934 0-1.919 0.22722-2.687 0.67086l-23.996 13.854c-0.725 0.4186-1.141 0.9685-1.141 1.5076 0 0.4403 0.282 0.8464 0.796 1.1424l24.687 14.253c1.212 0.7001 3.339 0.6104 4.741-0.1992l23.995-13.854c0.725-0.4186 1.141-0.9681 1.141-1.5076 0-0.4403-0.283-0.846-0.795-1.142l-24.688-14.253c-0.548-0.31643-1.283-0.47111-2.053-0.47111zm-0.288 32.047c-0.797 0-1.559-0.1609-2.128-0.4891l-24.687-14.253c-0.562-0.3244-0.871-0.7759-0.871-1.2725 0-0.5941 0.443-1.1912 1.216-1.6377l23.996-13.854c1.443-0.83302 3.637-0.92225 4.89-0.19929l24.687 14.253c0.562 0.3248 0.871 0.7764 0.871 1.2725 0 0.5945-0.443 1.1912-1.216 1.6381l-23.996 13.854c-0.788 0.4553-1.801 0.6888-2.762 0.6888z" />
      </g>
      <g filter="url(#filter0_d_49_96)">
         <path
            d="m223.97 22.011c2.496 1.4409 5.57 1.4409 8.065 0l10.968-6.909v9.0089c0 0.9949-0.531 1.9145-1.393 2.4125l-10.199 5.8875c-2.109 1.218-4.708 1.218-6.817 0l-10.198-5.8875c-0.863-0.498-1.393-1.4171-1.393-2.4125v-9.2673z"
            fill="#c3c5ce" />
      </g>
      <path class="bounce"
         d="m223.97 22.011c2.496 1.4409 5.57 1.4409 8.065 0l10.968-6.909v9.0089c0 0.9949-0.531 1.9145-1.393 2.4125l-10.199 5.8875c-2.109 1.218-4.708 1.218-6.817 0l-10.198-5.8875c-0.863-0.498-1.393-1.4171-1.393-2.4125v-9.2673z"
         fill="#c3c5ce" />
      <path class="bounce"
         d="m242.98 15.083c-0.016 0.0769-0.036 0.1539-0.054 0.2313-0.117 0.4621-0.408 0.8948-0.888 1.167l-11.299 6.4763c-1.701 0.9716-3.792 0.9716-5.487 0l-11.305-6.4763c-0.48-0.2722-0.764-0.7049-0.883-1.1731-0.018-0.0713-0.04-0.1482-0.053-0.2252-0.089-0.711 0.219-1.4696 0.936-1.878l2.779-1.5942 5.481-3.1402 3.046-1.7419c1.695-0.97165 3.785-0.97165 5.487 0l11.298 6.4763c0.717 0.4084 1.031 1.167 0.942 1.878"
         fill="#ebf0fc" />
      <g filter="url(#filter1_d_49_96)">
         <path
            d="m191.34 37.617-43.322-24.82c-6.512-3.7307-14.534-3.7299-21.045 0l-43.323 24.822c-2.746 1.5728-3.9441 4.4755-3.5959 7.2098 0.0374 0.2937 0.1356 0.5757 0.2087 0.864 0.4534 1.7901 1.5533 3.4416 3.3872 4.4925l43.322 24.82c6.512 3.7298 14.534 3.7298 21.045-7e-4l43.323-24.821c1.833-1.0509 2.933-2.7024 3.388-4.4926 0.073-0.2875 0.171-0.5702 0.208-0.8639 0.348-2.7344-0.85-5.637-3.596-7.2098z"
            fill="url(#paint0_radial_49_96)" />
      </g>
      <path
         d="m191.34 33.617-43.321-24.819c-6.512-3.7306-14.534-3.7299-21.044 0l-43.323 24.822c-2.4697 1.4146-3.6873 3.9048-3.654 6.3808l-7e-4 5h0.0178c0.0097 0.1393 0.0234 0.2783 0.041 0.4169 0.0263 0.207 0.0829 0.4082 0.1396 0.6099 0.0237 0.0844 0.0475 0.169 0.0691 0.2541 0.4534 1.7902 1.5533 3.4417 3.3872 4.4926l43.322 24.819c6.512 3.7299 14.534 3.7299 21.045-6e-4l43.323-24.821c1.833-1.0508 2.933-2.7024 3.388-4.4926 0.021-0.0834 0.044-0.1665 0.067-0.2495 0.058-0.203 0.115-0.4059 0.141-0.6144 0.018-0.1378 0.031-0.2761 0.041-0.4146h0.018v-0.5053-0.0157-4.479h-2e-3c0.034-2.4768-1.184-4.9681-3.655-6.3832z"
         fill="#c3c5ce" />
      <path
         d="m191.34 33.617-43.321-24.819c-6.512-3.7306-14.534-3.7299-21.044 0l-43.323 24.822c-2.746 1.5728-3.9441 4.4754-3.5959 7.2097 0.0374 0.2937 0.1356 0.5757 0.2087 0.8639 0.4534 1.7902 1.5533 3.4416 3.3871 4.4925l43.322 24.819c6.511 3.7298 14.533 3.7298 21.044-6e-4l43.323-24.821c1.833-1.0509 2.933-2.7024 3.387-4.4925 0.073-0.2875 0.171-0.5703 0.208-0.8639 0.349-2.7344-0.849-5.6369-3.596-7.2098"
         fill="#ebf0fc" />
      <path class="st1" id="bubble_path_5"
         d="m103.7 61.675s-1.074 0.441-2.004 1.1679c-0.93 0.727-1.6985 1.7247-2.126 2.6615-0.4272 0.9363-0.4867 1.7534-0.4916 2.5737-5e-3 0.8203 0.0411 1.6448-0.1639 2.643-0.4026 1.9602-2.3106 3.3101-2.3106 3.3101l-22.778 12.959-37.138-21.322-0.1477 0.2562 37.286 21.405 22.94-13.051 0.0069-0.0047s1.9967-1.3801 2.4306-3.4924c0.2132-1.038 0.1659-1.8929 0.1708-2.7007 0.0049-0.8077 0.0592-1.5666 0.464-2.4537 0.4042-0.8866 1.1522-1.8584 2.0402-2.5529 0.889-0.6945 1.935-1.1265 1.935-1.1265z"
         fill="#28D57A" />
      <path class="st1" id="bubble_path_6"
         d="m27.974 38.096c-0.9335 0-1.9191 0.2272-2.6871 0.6708l-23.995 13.854c-0.72504 0.4186-1.1411 0.9685-1.1411 1.5076 0 0.4402 0.28225 0.8463 0.79549 1.1424l24.688 14.253c1.212 0.7 3.3383 0.6104 4.74-0.1993l23.995-13.854c0.725-0.4186 1.1411-0.9681 1.1411-1.5076 0-0.4403-0.2826-0.846-0.7955-1.142l-24.687-14.254c-0.5479-0.3164-1.2829-0.4711-2.0534-0.4711zm-0.2873 32.047c-0.7975 0-1.5597-0.161-2.128-0.4891l-24.688-14.254c-0.5616-0.3243-0.87053-0.7759-0.87094-1.2724 0-0.5941 0.44361-1.1912 1.2166-1.6377l23.995-13.854c1.4438-0.833 3.6376-0.9222 4.8901-0.1992l24.688 14.253c0.5616 0.3248 0.8705 0.7763 0.8709 1.2725 0 0.5945-0.4432 1.1911-1.2166 1.6381l-23.995 13.854c-0.788 0.4553-1.8007 0.6888-2.7618 0.6888z"
         fill="#28D57A" />
      <g class="bounce-1" filter="url(#filter2_d_49_96)">
         <path
            d="m23.967 50.011c2.4956 1.4409 5.5699 1.4409 8.0654 0l10.967-6.909v9.0089c0 0.9949-0.5306 1.9145-1.3928 2.4125l-10.199 5.8875c-2.1093 1.218-4.7083 1.218-6.8176 0l-10.198-5.8875c-0.8621-0.498-1.3926-1.4171-1.3926-2.4125v-9.2673z"
            fill="#c3c5ce" />
      </g>
      <path class="bounce"
         d="m23.967 50.011c2.4956 1.4409 5.5699 1.4409 8.0654 0l10.967-6.909v9.0089c0 0.9949-0.5306 1.9145-1.3928 2.4125l-10.199 5.8875c-2.1093 1.218-4.7083 1.218-6.8176 0l-10.198-5.8875c-0.8621-0.498-1.3926-1.4171-1.3926-2.4125v-9.2673z"
         fill="#c3c5ce" />
      <path class="bounce"
         d="m42.985 43.083c-0.0157 0.0769-0.0362 0.1539-0.0534 0.2313-0.1177 0.4621-0.4084 0.8948-0.8887 1.167l-11.298 6.4763c-1.7011 0.9716-3.792 0.9716-5.487 0l-11.305-6.4763c-0.4798-0.2722-0.7642-0.7049-0.8827-1.1731-0.0188-0.0713-0.0408-0.1482-0.0534-0.2252-0.0894-0.711 0.2192-1.4696 0.9363-1.878l2.779-1.5942 5.4806-3.1401 3.0457-1.742c1.6949-0.9716 3.7859-0.9716 5.4869 0l11.298 6.4763c0.7172 0.4084 1.0311 1.167 0.9424 1.878"
         fill="#ebf0fc" />
   </g>
   <defs>
      <filter id="filter0_d_49_96" x="201" y="6.844" width="54" height="42.481" color-interpolation-filters="sRGB"
         filterUnits="userSpaceOnUse">
         <feFlood flood-opacity="0" result="BackgroundImageFix" />
         <feColorMatrix in="SourceAlpha" result="hardAlpha" values="0 0 0 0 0 0 0 0 0 0 0 0 0 0 0 0 0 0 127 0" />
         <feOffset dy="4" />
         <feGaussianBlur stdDeviation="6" />
         <feComposite in2="hardAlpha" operator="out" />
         <feColorMatrix values="0 0 0 0 0.560784 0 0 0 0 0.572549 0 0 0 0 0.584314 0 0 0 1 0" />
         <feBlend in2="BackgroundImageFix" result="effect1_dropShadow_49_96" />
         <feBlend in="SourceGraphic" in2="effect1_dropShadow_49_96" result="shape" />
      </filter>
      <filter id="filter1_d_49_96" x="68" y="2" width="139" height="91.803" color-interpolation-filters="sRGB"
         filterUnits="userSpaceOnUse">
         <feFlood flood-opacity="0" result="BackgroundImageFix" />
         <feColorMatrix in="SourceAlpha" result="hardAlpha" values="0 0 0 0 0 0 0 0 0 0 0 0 0 0 0 0 0 0 127 0" />
         <feOffset dy="4" />
         <feGaussianBlur stdDeviation="6" />
         <feComposite in2="hardAlpha" operator="out" />
         <feColorMatrix values="0 0 0 0 0.560784 0 0 0 0 0.572549 0 0 0 0 0.584314 0 0 0 1 0" />
         <feBlend in2="BackgroundImageFix" result="effect1_dropShadow_49_96" />
         <feBlend in="SourceGraphic" in2="effect1_dropShadow_49_96" result="shape" />
      </filter>
      <filter id="filter2_d_49_96" x="1" y="34.844" width="54" height="42.481" color-interpolation-filters="sRGB"
         filterUnits="userSpaceOnUse">
         <feFlood flood-opacity="0" result="BackgroundImageFix" />
         <feColorMatrix in="SourceAlpha" result="hardAlpha" values="0 0 0 0 0 0 0 0 0 0 0 0 0 0 0 0 0 0 127 0" />
         <feOffset dy="4" />
         <feGaussianBlur stdDeviation="6" />
         <feComposite in2="hardAlpha" operator="out" />
         <feColorMatrix values="0 0 0 0 0.560784 0 0 0 0 0.572549 0 0 0 0 0.584314 0 0 0 1 0" />
         <feBlend in2="BackgroundImageFix" result="effect1_dropShadow_49_96" />
         <feBlend in="SourceGraphic" in2="effect1_dropShadow_49_96" result="shape" />
      </filter>
      <radialGradient id="paint0_radial_49_96" cx="0" cy="0" r="1"
         gradientTransform="matrix(0 33.901 -57.5 0 137.5 43.901)" gradientUnits="userSpaceOnUse">
         <stop stop-color="#EFEFF2" offset="0" />
         <stop stop-color="#fff" offset="1" />
      </radialGradient>
   </defs>
    <g class="main_image" transform="translate(80 43.2)">
<path d="M111.343 39.0431L68.0216 14.224C61.5099 10.4933 53.4885 10.4941 46.9776 14.224L3.65468 39.0455C0.908691 40.6183 -0.289401 43.5209 0.0588069 46.2552C0.0961723 46.5488 0.194378 46.8308 0.267479 47.1191C0.720864 48.9092 1.82082 50.5607 3.6546 51.6116L46.9767 76.4307C53.4884 80.1605 61.5098 80.1605 68.0208 76.43L111.344 51.6093C113.177 50.5584 114.277 48.9069 114.731 47.1167C114.804 46.8293 114.902 46.5465 114.939 46.2528C115.288 43.5185 114.09 40.6159 111.343 39.0431" fill="#EBF0FC"/>
<path fill-rule="evenodd" clip-rule="evenodd" d="M52.9323 14.124L53.6248 17.8541C53.7068 18.1951 53.9717 18.5251 54.4243 18.7868C55.5254 19.4227 57.3032 19.4227 58.3954 18.7874C58.8965 18.4965 59.1671 18.1225 59.2072 17.7418L59.8755 14.1438C59.7935 16.4241 52.9295 15.1366 52.9323 14.1241" fill="#141E2C"/>
<path fill-rule="evenodd" clip-rule="evenodd" d="M58.8508 12.7117C57.4907 11.9268 55.2934 11.9268 53.9415 12.7127C52.5907 13.4969 52.5979 14.7703 53.9575 15.5551C54.6378 15.9478 55.5272 16.1446 56.4155 16.1446C57.3037 16.1446 58.1909 15.9483 58.8662 15.5555C60.2187 14.7703 60.2115 13.4969 58.8512 12.7116" fill="#1D3459"/>
<path fill-rule="evenodd" clip-rule="evenodd" d="M58.2942 13.0343C57.2437 12.4288 55.5463 12.4288 54.5019 13.0353C53.4585 13.6417 53.464 14.6253 54.5139 15.2318C55.5655 15.8385 57.2628 15.8385 58.3061 15.2318C59.3511 14.6247 59.3457 13.6418 58.2942 13.034" fill="#1F1411"/>
<path fill-rule="evenodd" clip-rule="evenodd" d="M56.7581 4.48462V4.49512V4.50412V4.51471V4.52371V4.53461V4.54263L56.7481 4.55521L56.738 4.56683V4.56982L56.723 4.58423L56.712 4.59323L56.702 4.60022L56.6891 4.60822L56.676 4.61722L56.6421 4.63412L56.6311 4.63913L56.6041 4.64911L56.5941 4.65311L56.5761 4.65811L56.5621 4.66211L56.5431 4.66611L56.5291 4.66913L56.489 4.67413L56.4771 4.67511L56.4531 4.67612H56.4381L56.4191 4.67679L56.4031 4.67612L56.3851 4.67511L56.369 4.67413L56.3511 4.67212L56.3351 4.6701L56.316 4.66711L56.301 4.66412L56.2791 4.65912L56.2671 4.65613L56.2291 4.64343L56.2111 4.63541L56.2011 4.63141L56.1751 4.61771C56.1051 4.57751 56.0701 4.52461 56.0706 4.4718V14.0898C56.0706 14.143 56.1056 14.1959 56.1751 14.2361L56.2011 14.2492L56.2111 14.2542L56.2271 14.2612V14.2618L56.2661 14.2745V14.2755L56.2761 14.2775L56.2981 14.2835L56.3081 14.2855L56.3181 14.2875L56.337 14.2905L56.3471 14.2915L56.3571 14.2925L56.3751 14.2945L56.3851 14.2955L56.395 14.2962L56.4131 14.2968H56.4231H56.4331H56.452H56.462H56.4721L56.4961 14.2958L56.5061 14.2949L56.546 14.2888L56.5581 14.2859L56.5781 14.2819L56.592 14.2779L56.6101 14.2729V14.2719L56.6201 14.2689L56.6481 14.2585L56.6581 14.2535L56.692 14.2367V14.2346L56.702 14.2277L56.7151 14.2196L56.7251 14.2116L56.7351 14.2026V14.2007L56.7481 14.1876V14.1845L56.7581 14.1765V14.1725L56.7681 14.1599V14.1548V14.1519V14.1408V14.1349L56.7686 14.1328V14.1219V14.115V14.1129V14.1021V14.0951V14.092V4.47372V4.48462" fill="#3A1D16"/>
<path fill-rule="evenodd" clip-rule="evenodd" d="M56.6547 4.32748C56.5155 4.24818 56.2917 4.24816 56.1542 4.32806C56.0161 4.40816 56.0172 4.53756 56.1542 4.61791C56.2928 4.69761 56.5167 4.69761 56.6548 4.61791C56.7922 4.53751 56.7917 4.40822 56.6548 4.32748" fill="#979A9E"/>
<path fill-rule="evenodd" clip-rule="evenodd" d="M56.4044 0C58.8371 0 60.8087 1.79459 60.8087 4.0079C60.8087 6.2221 58.8371 8.01627 56.4044 8.01627C53.9718 8.01627 52 6.2221 52 4.0079C52 1.79459 53.9718 0 56.4044 0Z" fill="#54A635"/>
<path fill-rule="evenodd" clip-rule="evenodd" d="M60.7878 3.61353C60.8008 3.74328 60.8088 3.87476 60.8088 4.00797C60.8088 6.22217 58.8371 8.01633 56.4045 8.01633C53.9718 8.01633 52.0001 6.22217 52.0001 4.00797C52.0001 3.87476 52.0101 3.74328 52.0221 3.61353C52.8999 4.80654 54.5338 5.60837 56.405 5.60837C58.276 5.60837 59.9102 4.80654 60.7885 3.61353" fill="#3F782F"/>
<path fill-rule="evenodd" clip-rule="evenodd" d="M67.5378 58.3249L68.3033 57.8804L68.0955 58.5943L67.3293 59.0392L67.5378 58.3249Z" fill="#BCBBB8"/>
<path fill-rule="evenodd" clip-rule="evenodd" d="M75.1761 62.1925L75.9418 61.7476L76.1425 63.3366L75.377 63.7815L75.1761 62.1925Z" fill="#141E2C"/>
<path fill-rule="evenodd" clip-rule="evenodd" d="M66.9097 57.324L67.6753 56.879L75.9418 61.7476L75.1761 62.1926L66.9097 57.324Z" fill="#CDCAC9"/>
<path fill-rule="evenodd" clip-rule="evenodd" d="M75.1761 62.1926L75.377 63.7815L74.7477 63.4185L74.5448 62.4665L67.5378 58.3249L67.3293 59.0393L66.7001 58.6765L66.9097 57.324L75.1761 62.1926Z" fill="#1D3459"/>
<path fill-rule="evenodd" clip-rule="evenodd" d="M62.5636 61.2146L63.3292 60.7697L63.1213 61.484L62.3552 61.9289L62.5636 61.2146Z" fill="#141E2C"/>
<path fill-rule="evenodd" clip-rule="evenodd" d="M70.202 65.0815L70.9677 64.6372L71.1683 66.2262L70.4027 66.6711L70.202 65.0815Z" fill="#141E2C"/>
<path fill-rule="evenodd" clip-rule="evenodd" d="M61.9355 60.2136L62.701 59.7687L70.9677 64.6373L70.202 65.0816L61.9355 60.2136Z" fill="#CDCAC9"/>
<path fill-rule="evenodd" clip-rule="evenodd" d="M70.202 65.0816L70.4027 66.6712L69.7736 66.3081L69.5706 65.3555L62.5636 61.2146L62.3552 61.929L61.726 61.5654L61.9355 60.2136L70.202 65.0816Z" fill="#1D3459"/>
<path fill-rule="evenodd" clip-rule="evenodd" d="M62.7583 60.9681V61.0435L62.7578 61.0495L62.7478 61.1126V61.1216L62.7328 61.179V61.188L62.7137 61.237V61.243L62.6868 61.293V61.298L62.6598 61.3333L62.6488 61.3449L62.6228 61.3696L62.6118 61.3796L62.5718 61.4071L68.7878 57.794L68.8279 57.7665L68.8389 57.7575L68.8649 57.7321L68.8749 57.7213L68.9009 57.6859V57.68V57.6779L68.9269 57.6313L68.9274 57.6294V57.6244L68.9414 57.5923L68.9514 57.5753V57.5653V57.5563L68.9614 57.5218V57.5091V57.501V57.4883L68.9714 57.456V57.4373L68.972 57.4302L68.9725 57.4222V57.3899L68.973 57.3564L68.9735 57.3553L62.757 60.9681" fill="#C4E9E2"/>
<path fill-rule="evenodd" clip-rule="evenodd" d="M62.7693 58.0714L62.7583 60.9682L68.9749 57.3554L68.9858 54.459L62.7693 58.0714Z" fill="#DEDDDB"/>
<path fill-rule="evenodd" clip-rule="evenodd" d="M62.2209 56.9818L62.231 56.9877L62.2889 57.0382L62.299 57.0452L62.356 57.1024V57.1075L62.4139 57.173L62.4146 57.1735L62.5179 57.3142L62.5459 57.3583L62.5688 57.3953L62.5789 57.4133L62.6129 57.4771V57.4841L62.6499 57.5634V57.5674L62.6819 57.6467V57.6517L62.7089 57.7331V57.7381L62.7299 57.8163V57.8243L62.7449 57.9051L62.7454 57.9057L62.7554 57.9865L62.7559 57.9935V58.0728L68.9725 54.4604L68.972 54.4291V54.3967V54.3807L68.9714 54.3747V54.3632V54.3297V54.2951L68.9708 54.2941V54.2931L68.9608 54.2612L68.9508 54.2249V54.2122V54.2042V54.1894L68.9408 54.1525L68.9308 54.1256V54.1216V54.1166L68.9188 54.0808L68.9069 54.0462V54.0392V54.0342L68.8969 54.0127L68.8828 53.9797L68.8728 53.9555V53.9515V53.9465L68.8578 53.9135L68.8398 53.8772V53.8722V53.8652L68.8248 53.8366L68.8058 53.8014L68.7958 53.7827V53.7757L68.7769 53.746L68.7498 53.7015V53.6945L68.7068 53.6324L68.6768 53.5928L68.6519 53.5609L68.6512 53.5603L68.6508 53.5598L68.6248 53.5285L68.5988 53.4993V53.4953V53.4903L68.5797 53.4705L68.5507 53.4419L68.5406 53.4339L68.5308 53.4269L68.5167 53.4137L68.4867 53.3873L68.4727 53.3763L68.4626 53.3703L68.4528 53.3623L68.4227 53.3392L68.4008 53.3233V53.3213V53.3183L68.3707 53.2996L68.3417 53.2815L68.3317 53.2775L68.3177 53.2705L68.2957 53.2578L68.2667 53.2435L68.2487 53.2345V53.2325L68.2386 53.2305L68.2117 53.2184L68.1847 53.2084V53.2064V53.2044L68.1656 53.1984L68.1377 53.1904L68.1237 53.1874L68.1136 53.1854L68.1038 53.1844L68.0737 53.1794L68.0557 53.1774L68.0457 53.1768L68.0356 53.1763L68.0037 53.1753L67.9897 53.1758L67.9797 53.1764L67.9688 53.1769L67.9287 53.1829L67.9187 53.1849L67.8798 53.1953V53.1973L67.8267 53.2215L61.61 56.834L61.663 56.8098L61.704 56.7981L61.714 56.7951L61.765 56.7892L61.775 56.7885L61.827 56.7895L61.837 56.7902L61.894 56.7992L61.9041 56.8002L61.964 56.8168V56.8188L62.0291 56.8446V56.8466L62.097 56.8819L62.111 56.8899L62.1801 56.934V56.937L62.2419 56.9836" fill="#FCFCFD"/>
<path fill-rule="evenodd" clip-rule="evenodd" d="M62.0862 56.8882L62.0721 56.8802C61.6942 56.6619 61.3864 56.8374 61.3853 57.2719L61.3732 60.1686C61.3732 60.6032 61.6785 61.1328 62.0564 61.3507L62.0704 61.3587C62.4482 61.5772 62.7562 61.4023 62.7579 60.9677L62.7689 58.0709C62.7689 57.6363 62.4642 57.1061 62.0858 56.8878" fill="#E9E8E7"/>
<path fill-rule="evenodd" clip-rule="evenodd" d="M75.3962 60.3611L69.3099 56.8245L69.2999 56.8215L69.2579 56.8013L69.2479 56.7983L69.2339 56.7933L69.2119 56.7853L69.1879 56.7803L69.1729 56.7773L69.1628 56.7753L69.1119 56.7693H69.0989H69.059L69.0449 56.7703L69.0199 56.7733L68.9958 56.7753L68.9749 56.7803L68.9399 56.7873L68.9219 56.7913L68.903 56.7983L68.8439 56.8187L68.8229 56.8257L68.8019 56.8347L68.7819 56.8437L68.705 56.8839L71.1871 58.6658L74.926 60.4984V60.4964L74.953 60.4837L74.9536 60.4832H74.9541L74.9547 60.4826H74.9553L74.9923 60.4689L74.9928 60.4684V60.4674L74.9933 60.467H74.9938L74.9944 60.4663L75.0364 60.4522H75.0369L75.0469 60.4492H75.0474L75.048 60.4486H75.049H75.0496H75.05L75.0507 60.4482L75.0927 60.4355L75.0933 60.4348L75.0938 60.4344H75.0944H75.0948L75.106 60.4304V60.4297H75.1064V60.4293H75.1071L75.1075 60.4286H75.1082H75.1086L75.1093 60.4282L75.1442 60.4192H75.1448V60.4188V60.4182L75.1453 60.4177V60.4171H75.1459V60.4164H75.1464V60.416L75.1724 60.409L75.2264 60.3949V60.3942L75.2494 60.3882L75.2594 60.3862V60.3856L75.2894 60.3786L75.3004 60.3756L75.3114 60.3726L75.3455 60.3646L75.3564 60.3616" fill="#F3F3F3"/>
<path fill-rule="evenodd" clip-rule="evenodd" d="M70.8669 63.7957L66.6539 61.1514L64.6426 60.1882L64.642 60.2097C64.6426 60.3087 64.6561 60.3966 64.6801 60.4727C64.6961 60.5232 64.717 60.5683 64.743 60.6085L64.785 60.6628L64.8868 60.7466L70.955 64.2737C71.3516 64.2219 71.329 64.0431 70.8669 63.8034V63.7954" fill="#E9E8E7"/>
<path fill-rule="evenodd" clip-rule="evenodd" d="M72.0494 62.1555L69.4633 60.4166L65.4775 58.7434L65.3975 58.7939L65.3726 58.8122L65.3195 58.8524L65.2905 58.876L65.2435 58.9172L65.2145 58.9436L65.1975 58.9601L65.1794 58.9792L65.1235 59.0387L65.1055 59.0574L65.0916 59.0743L65.0594 59.1145L65.0375 59.1409L65.0215 59.1628L64.9985 59.1942L64.9825 59.2157L64.9575 59.2541L64.9406 59.2784L64.9305 59.2884L64.8875 59.3593V59.3643L64.8774 59.3787L64.8485 59.4298L64.8365 59.4541L64.8235 59.4792L64.8115 59.5013L64.7845 59.5606V59.5712V59.5742L64.7535 59.6486L64.7435 59.6628L64.7335 59.6909L64.7195 59.7283L64.7095 59.7575L64.6995 59.7921L64.6895 59.8136L64.6794 59.8521L64.6696 59.8951V59.9099V59.9406L64.6575 60.0077V60.026V60.0677V60.0976V60.1904L70.8824 63.8073V63.8033C70.8824 63.2709 71.2548 62.6236 71.7179 62.3563L72.0649 62.1555" fill="#F3F3F3"/>
<path fill-rule="evenodd" clip-rule="evenodd" d="M71.6986 62.3586L65.4775 58.7435L68.7131 56.8829L74.9342 60.4974L71.7024 62.3565V62.3585" fill="#FCFCFD"/>
<path fill-rule="evenodd" clip-rule="evenodd" d="M61.0258 55.6779L62.2061 60.6579C62.3155 60.9353 62.3805 61.3972 62.9073 61.7124L69.0844 65.4079C68.7819 65.1548 68.6565 64.6648 68.5415 64.3479L67.3607 59.3682V59.3582L61.024 55.6777" fill="#E9E8E7"/>
<path fill-rule="evenodd" clip-rule="evenodd" d="M68.6724 58.0129L62.4519 54.3978V54.3958L62.4319 54.3858L62.4119 54.3758V54.3753L62.3889 54.3673L62.3699 54.3603V54.3597C61.6929 54.1601 60.8157 54.9752 61.0341 55.6782L67.37 59.3604C67.461 58.8669 67.8034 58.3714 68.1818 58.1525C68.2488 58.1134 68.3149 58.0848 68.3886 58.0629C68.4326 58.0491 68.5342 58.0319 68.6805 58.0133" fill="#FCFCFD"/>
<path fill-rule="evenodd" clip-rule="evenodd" d="M67.3608 59.3682L68.5416 64.3479C68.6146 64.6779 68.8495 65.1746 68.9617 65.3132C69.3897 65.8417 70.4975 65.2479 70.1916 63.837L69.0838 58.838C68.9794 58.3778 68.9425 58.0863 68.6845 58.0126C68.0856 57.842 67.2095 58.7819 67.3608 59.3682Z" fill="#DEDDDB"/>
<path fill-rule="evenodd" clip-rule="evenodd" d="M70.0128 65.1052V65.1806V65.1876L70.0028 65.2514V65.2594L69.9888 65.3161V65.3266L69.9698 65.3754V65.3804L69.9418 65.4304V65.4364L69.9158 65.4709L69.9058 65.4832L69.8798 65.5079L69.8688 65.5169L69.8289 65.5444L76.0455 61.932L76.0854 61.9045L76.0966 61.8945L76.1215 61.8698L76.1324 61.8582L76.1584 61.823V61.8181L76.1591 61.817L76.1851 61.7695L76.1855 61.7675V61.7625L76.1995 61.7305L76.2095 61.7137V61.7036V61.6946L76.2195 61.66V61.6469V61.6389V61.6263V61.5938V61.5746L76.2201 61.5685L76.2206 61.5605V61.528L76.2216 61.4956V61.4937L70.005 65.106" fill="#DEDDDB"/>
<path fill-rule="evenodd" clip-rule="evenodd" d="M70.0238 62.2091L70.0128 65.1052L76.2294 61.4928L76.2404 58.5961L70.0238 62.2091Z" fill="#DEDDDB"/>
<path fill-rule="evenodd" clip-rule="evenodd" d="M69.476 61.119L69.486 61.125L69.5439 61.1761L69.554 61.1811L69.611 61.2385V61.2435L69.6689 61.3088L69.6696 61.3094L69.7734 61.4502L69.8014 61.4942L69.8243 61.5312L69.8344 61.5492L69.8694 61.6131V61.6201L69.9064 61.6998V61.7038L69.9384 61.7827V61.7877L69.9655 61.8685V61.8745L69.9865 61.9531V61.9601L70.0013 62.0411V62.0421L70.0114 62.1225L70.0118 62.1295V62.2088L76.2285 58.5957L76.228 58.565V58.5319V58.517L76.2275 58.51V58.4988V58.4653V58.4307L76.2271 58.4297V58.4287L76.217 58.3962L76.207 58.361V58.3476V58.3406V58.3251L76.197 58.2888L76.187 58.2624V58.2564V58.2524L76.175 58.2172L76.163 58.1815V58.1755V58.1705L76.153 58.1486L76.14 58.1151L76.13 58.0914V58.0874V58.0824L76.115 58.0493L76.097 58.013V58.008V58.001L76.083 57.9731L76.063 57.9379L76.053 57.9199V57.9129L76.0341 57.8826L76.007 57.8388V57.8318L75.964 57.7697L75.933 57.7296L75.908 57.6986L75.9075 57.6976L75.9069 57.6972L75.8809 57.6662L75.8549 57.6365V57.6315V57.6275L75.8359 57.6075L75.8069 57.5789L75.7969 57.5699L75.7869 57.5639L75.7729 57.5508L75.7429 57.5237L75.7289 57.5134L75.7189 57.5074L75.7089 57.4994L75.679 57.4764L75.6569 57.461V57.458V57.455L75.6279 57.4359L75.5989 57.4182L75.5889 57.4142L75.575 57.4062L75.5529 57.3939L75.5249 57.3791L75.507 57.3711V57.3691L75.4969 57.3661L75.4698 57.3545L75.4419 57.3442V57.3422V57.3412L75.4229 57.3342L75.3949 57.3272L75.3809 57.3242L75.3708 57.3232L75.3608 57.3212L75.3309 57.3162L75.3129 57.3152L75.3029 57.3142L75.2928 57.3138L75.2609 57.3127L75.2479 57.3132L75.2369 57.3138L75.226 57.3142L75.1859 57.3202H75.1853L75.1753 57.3232L75.1364 57.3338V57.3348L75.0844 57.3591L68.8682 60.9719L68.9202 60.9479L68.9612 60.9356L68.9712 60.9326L69.0222 60.9266H69.0332L69.0852 60.9273L69.0952 60.9283L69.1522 60.9363L69.1622 60.9373L69.2222 60.9543V60.9553L69.2872 60.9818V60.9838L69.3552 61.019L69.3691 61.027L69.4373 61.0704V61.0734L69.4991 61.1202" fill="#FCFCFD"/>
<path fill-rule="evenodd" clip-rule="evenodd" d="M69.3412 61.0259L69.3271 61.0179C68.9487 60.7997 68.6407 60.975 68.6396 61.4096L68.6287 64.3063C68.6287 64.741 68.9329 65.2702 69.3112 65.4889L69.3252 65.4969C69.7036 65.7154 70.0116 65.5398 70.0127 65.1052L70.0237 62.2091C70.0237 61.7744 69.719 61.2443 69.3411 61.026" fill="#E9E8E7"/>
<path fill-rule="evenodd" clip-rule="evenodd" d="M88.0143 45.5413L88.7793 45.0963L88.572 45.8108L87.8058 46.2557L88.0143 45.5413Z" fill="#BCBBB8"/>
<path fill-rule="evenodd" clip-rule="evenodd" d="M95.6527 49.4088L96.4178 48.9639L96.619 50.5528L95.8535 50.9978L95.6527 49.4088Z" fill="#141E2C"/>
<path fill-rule="evenodd" clip-rule="evenodd" d="M87.3862 44.5403L88.1519 44.0953L96.4178 48.9639L95.6527 49.4089L87.3862 44.5403Z" fill="#CDCAC9"/>
<path fill-rule="evenodd" clip-rule="evenodd" d="M95.6527 49.4089L95.8535 50.9978L95.2242 50.6348L95.0208 49.6828L88.0143 45.5413L87.8058 46.2557L87.1766 45.8927L87.3862 44.5403L95.6527 49.4089Z" fill="#1D3459"/>
<path fill-rule="evenodd" clip-rule="evenodd" d="M83.0402 48.4309L83.8051 47.986L83.5978 48.7004L82.8317 49.1454L83.0402 48.4309Z" fill="#141E2C"/>
<path fill-rule="evenodd" clip-rule="evenodd" d="M90.6785 52.298L91.4435 51.8536L91.6448 53.4426L90.8792 53.8875L90.6785 52.298Z" fill="#141E2C"/>
<path fill-rule="evenodd" clip-rule="evenodd" d="M82.4114 47.43L83.1776 46.985L91.4435 51.8536L90.6785 52.298L82.4114 47.43Z" fill="#CDCAC9"/>
<path fill-rule="evenodd" clip-rule="evenodd" d="M90.6785 52.298L90.8792 53.8875L90.2495 53.5245L90.0465 52.5719L83.0402 48.4309L82.8317 49.1454L82.2019 48.7818L82.4114 47.4299L90.6785 52.298Z" fill="#1D3459"/>
<path fill-rule="evenodd" clip-rule="evenodd" d="M83.2343 48.1841V48.2589L83.2336 48.2659L83.2238 48.3297V48.3376L83.2097 48.3943V48.4047L83.1907 48.4536V48.4586L83.1637 48.5081V48.5141L83.1377 48.5493L83.1267 48.5603L83.1017 48.5856L83.0907 48.5956L83.0507 48.6225L89.2673 45.0101L89.3073 44.982L89.3184 44.973L89.3444 44.9477L89.3542 44.9362L89.3802 44.9016V44.8956V44.8936L89.4062 44.8469L89.4069 44.8448V44.8399L89.4208 44.808L89.4308 44.791V44.781V44.772L89.4408 44.7374V44.7242V44.7162V44.703V44.6706V44.6525L89.4413 44.6454L89.4419 44.6375V44.6056V44.5721V44.5701L83.2252 48.1825" fill="#C4E9E2"/>
<path fill-rule="evenodd" clip-rule="evenodd" d="M83.2452 45.2877L83.2343 48.184L89.4509 44.5716L89.4619 41.6753L83.2452 45.2877Z" fill="#DEDDDB"/>
<path fill-rule="evenodd" clip-rule="evenodd" d="M82.6975 44.1982L82.7075 44.2032L82.7655 44.2544L82.7755 44.2614L82.8325 44.3181V44.3231L82.8905 44.3885V44.3891L82.9945 44.5299L83.0225 44.5739L83.0455 44.6108L83.0555 44.6289L83.0905 44.6927V44.6997L83.1274 44.7784V44.7824L83.1595 44.8616V44.8666L83.1875 44.9485V44.9535L83.2075 45.0316V45.0396L83.2235 45.1199V45.1209L83.2335 45.2017L83.234 45.2087V45.2879L89.4507 41.6755V41.6441V41.6106V41.5958V41.5888V41.5773V41.5438V41.5097L89.4501 41.5087V41.5077L89.4401 41.4753L89.4301 41.4395V41.4268V41.4188V41.4034L89.42 41.3671L89.4102 41.3402V41.3352V41.3312L89.399 41.2954L89.3861 41.2608V41.2538V41.2488L89.3761 41.2273L89.3621 41.1943L89.3521 41.1701V41.1661V41.1611L89.3372 41.1281L89.3191 41.0918V41.0858V41.0788L89.3041 41.0502L89.2841 41.015L89.274 40.9969V40.9899L89.2551 40.9596L89.2281 40.9156V40.9086L89.1851 40.8464L89.1541 40.8068L89.1292 40.7749L89.1285 40.7744L89.1281 40.7738L89.1021 40.7424L89.076 40.7133V40.7093L89.066 40.7043L89.047 40.6845L89.0179 40.6559L89.0081 40.6469L88.998 40.6409L88.983 40.6271L88.953 40.6013L88.939 40.5903L88.929 40.5843L88.918 40.5763L88.8881 40.5532L88.866 40.5372V40.5342V40.5322L88.8361 40.513L88.807 40.4954L88.797 40.4914L88.7841 40.4844L88.762 40.4717L88.734 40.4574L88.7159 40.4484V40.4464L88.7061 40.4434L88.679 40.4324L88.652 40.422V40.42V40.418L88.634 40.413L88.605 40.405L88.592 40.402L88.582 40.4L88.572 40.398L88.542 40.394L88.524 40.392L88.514 40.3914L88.504 40.3909L88.472 40.3899L88.458 40.3904L88.448 40.391L88.436 40.3915L88.397 40.3965V40.3971L88.387 40.4001L88.349 40.4105V40.4125L88.296 40.4367L82.08 44.0491L82.132 44.0249L82.1729 44.0128L82.1829 44.0108L82.2339 44.0038L82.2439 44.0032L82.2969 44.0042L82.3069 44.0048L82.3639 44.0138L82.3739 44.0158L82.4349 44.0323V44.0343L82.4999 44.0602V44.0622L82.5679 44.0974L82.5819 44.1054L82.6509 44.1489V44.1519L82.7129 44.1987" fill="#FCFCFD"/>
<path fill-rule="evenodd" clip-rule="evenodd" d="M82.5627 44.1046L82.5487 44.0966C82.1709 43.8782 81.8623 44.0537 81.8612 44.4882L81.8502 47.385C81.8502 47.8195 82.1549 48.3486 82.5334 48.567L82.5464 48.575C82.9248 48.7933 83.2323 48.6185 83.2339 48.1834L83.2449 45.2871C83.2449 44.852 82.9402 44.3224 82.5624 44.104" fill="#E9E8E7"/>
<path fill-rule="evenodd" clip-rule="evenodd" d="M88.4752 39.334L87.5428 44.5584L87.5319 44.6288V44.6634V44.7211V44.7882V44.841L87.5419 44.9037L87.5519 44.9515L87.5649 45.0081L87.5769 45.051L87.5969 45.1022L87.6119 45.139L87.6399 45.1852L87.6589 45.2149L87.6969 45.2567L87.7159 45.2776L87.783 45.3265L93.8367 48.8443C93.8507 48.5913 93.8717 48.3774 93.8947 48.2481L94.8269 43.0237V43.0147L88.4904 39.3341" fill="#E9E8E7"/>
<path fill-rule="evenodd" clip-rule="evenodd" d="M96.1218 41.6687L89.9014 38.0541V38.0511L89.8813 38.0421L89.8615 38.0331V38.0321L89.8384 38.0241L89.8195 38.0171V38.0165L89.7944 38.0115L89.7744 38.0066L89.7513 38.0035L89.7264 38.0005H89.7084L89.6733 38L89.6584 38.002L89.6174 38.006L89.6074 38.0066L89.5934 38.0096L89.5444 38.0201L89.5314 38.023L89.5054 38.031L89.4894 38.036L89.4164 38.0619L89.4014 38.0688L89.3834 38.0768L89.2983 38.1204L89.2264 38.1649L89.2014 38.183L89.1554 38.2161L89.1284 38.2386L89.0864 38.2727L89.0583 38.2992L89.0204 38.3354V38.3375L89.0104 38.3445L88.9364 38.4236L88.9244 38.4352L88.9114 38.451L88.8744 38.4973L88.8584 38.5176L88.8474 38.532L88.8195 38.5688L88.8024 38.593L88.7904 38.6107L88.7684 38.643L88.7534 38.6661L88.7384 38.6898L88.7194 38.7195L88.7094 38.7365L88.6895 38.7727L88.6744 38.798V38.807L88.6384 38.878V38.8785V38.8815L88.6074 38.9502V38.9592L88.5964 38.9867L88.5814 39.0241L88.5714 39.0433L88.5594 39.0768L88.5494 39.1026L88.5394 39.1285L88.5273 39.1675L88.5175 39.1873L88.5074 39.2131L88.4944 39.2653L88.4844 39.2857L88.4744 39.3357L94.8104 43.0179C94.9014 42.524 95.2432 42.0285 95.6222 41.8102C95.6892 41.7717 95.7553 41.7426 95.8295 41.7206C95.8735 41.7068 95.9747 41.6898 96.121 41.6706" fill="#FCFCFD"/>
<path fill-rule="evenodd" clip-rule="evenodd" d="M95.8303 41.7188L95.8143 41.7238C95.7503 41.7436 95.6862 41.7717 95.6235 41.8085C95.2429 42.028 94.8991 42.5274 94.8105 43.024L93.8784 48.2485C93.7744 48.8271 94.0564 49.1829 94.508 49.0421L94.524 49.0371C94.588 49.0173 94.6516 48.9893 94.7143 48.9524C95.0954 48.733 95.4393 48.233 95.5278 47.7369L96.4601 42.5119C96.564 41.9339 96.2813 41.5786 95.8303 41.7188Z" fill="#DEDDDB"/>
<path fill-rule="evenodd" clip-rule="evenodd" d="M93.8409 48.5365L87.7535 44.9995V44.9965L87.7115 44.9761L87.7017 44.9731L87.6876 44.9681L87.6656 44.9601L87.6416 44.9551L87.6276 44.9511L87.6176 44.9491L87.5667 44.9431H87.5536L87.5146 44.9425L87.5006 44.9435L87.4756 44.9465L87.4526 44.9495L87.4305 44.9535L87.3966 44.9605L87.3776 44.9645L87.3586 44.9715L87.2996 44.9919L87.2795 44.9989L87.2585 45.0079L87.2386 45.0169L87.1616 45.0565L89.6443 46.8391L93.3826 48.6717V48.6697L93.4086 48.657L93.4091 48.6564L93.4095 48.6559L93.4467 48.6421V48.6415V48.6405H93.4471V48.64H93.4478L93.4907 48.6257V48.6251H93.4913L93.5013 48.6221L93.5018 48.6216H93.5023H93.5029H93.5035L93.5465 48.6084H93.547L93.5475 48.6078L93.548 48.6073H93.5486H93.5491L93.5612 48.6043V48.6037H93.5616V48.6032H93.5623L93.5627 48.6026L93.5634 48.6021H93.5638H93.5645L93.6003 48.5931L93.601 48.5925V48.592V48.5914H93.6016V48.5909L93.6021 48.5903V48.5898H93.6027V48.5892L93.6287 48.5822L93.6827 48.5685V48.568V48.5674L93.7057 48.5624L93.7167 48.5594V48.5589L93.7457 48.5519L93.7567 48.5499L93.7677 48.5469L93.8018 48.5389L93.8127 48.5359" fill="#F3F3F3"/>
<path fill-rule="evenodd" clip-rule="evenodd" d="M89.3105 51.9708L85.0981 49.3264L83.0868 48.3639V48.3854C83.0868 48.4844 83.0998 48.5724 83.1238 48.6477C83.1398 48.6983 83.1618 48.7434 83.1868 48.7836L83.2288 48.8386L83.33 48.9222L89.3982 52.4488C89.7947 52.3971 89.7722 52.2189 89.3092 51.9785V51.9705" fill="#E9E8E7"/>
<path fill-rule="evenodd" clip-rule="evenodd" d="M90.4941 50.3307L87.9076 48.5916L83.9218 46.9185L83.8417 46.9696L83.8167 46.9878L83.7637 47.0273L83.7347 47.0511L83.6877 47.0923L83.6597 47.1187L83.6417 47.1352L83.6237 47.1549L83.5687 47.2138L83.5507 47.2331L83.5367 47.2501L83.5037 47.2896L83.4827 47.316L83.4667 47.338L83.4427 47.3694L83.4277 47.3914L83.4017 47.4294L83.3857 47.454L83.3757 47.463L83.3326 47.5345V47.5385L83.3228 47.5529L83.2937 47.6046L83.2817 47.6288L83.2687 47.6541L83.2577 47.6754L83.2307 47.7349V47.7452V47.7483L83.1997 47.8231V47.8368L83.1897 47.8648L83.1757 47.9023L83.1656 47.9319L83.1547 47.9666L83.1447 47.9875L83.1346 48.0259L83.1237 48.0695V48.0837L83.1136 48.1151L83.1017 48.1816V48.2003V48.2415V48.2719V48.3643L89.326 51.9816V51.9776C89.326 51.4458 89.6989 50.7984 90.162 50.5305L90.5096 50.3298" fill="#F3F3F3"/>
<path fill-rule="evenodd" clip-rule="evenodd" d="M90.1428 50.5337L83.9218 46.9185L87.1573 45.0579L93.3784 48.673L90.1466 50.5315V50.5334" fill="#FCFCFD"/>
<path fill-rule="evenodd" clip-rule="evenodd" d="M90.4893 52.3216V52.397L90.4888 52.404L90.4788 52.4678V52.4758L90.4637 52.533V52.542L90.4448 52.5915V52.5965L90.4178 52.6465V52.6525L90.3918 52.6871L90.3809 52.6992L90.3549 52.7239L90.3438 52.7329L90.3038 52.7604L96.5199 49.148L96.5599 49.1205L96.5709 49.1105L96.5969 49.0857L96.6069 49.0742L96.6329 49.039V49.034V49.033L96.6589 48.9857L96.6594 48.9837V48.9777L96.6724 48.9458L96.6824 48.9288V48.9198V48.9108L96.6924 48.8756V48.8629V48.8549V48.8422L96.7024 48.8098V48.7911L96.703 48.7841V48.7761V48.7437L96.7035 48.7112V48.7092L90.4874 52.3216" fill="#DEDDDB"/>
<path fill-rule="evenodd" clip-rule="evenodd" d="M90.4998 49.4253L90.4897 52.3216L96.7058 48.7092L96.7168 45.8124L90.5001 49.4253" fill="#DEDDDB"/>
<path fill-rule="evenodd" clip-rule="evenodd" d="M89.952 48.3353L89.962 48.3413L90.02 48.3925L90.03 48.3975L90.087 48.4547V48.4597L90.145 48.5251L90.1456 48.5261L90.249 48.6664L90.276 48.7104L90.299 48.7473L90.309 48.7649L90.343 48.8287V48.8357L90.38 48.9154V48.9194L90.412 48.9986V49.0036L90.4399 49.0844V49.0894L90.4611 49.168V49.176L90.476 49.2568V49.2578L90.486 49.3386L90.4865 49.3446V49.4243L96.7031 45.8113L96.7025 45.7805L96.7015 45.7475V45.7327L96.7009 45.7257L96.7004 45.7142V45.6812V45.646V45.645V45.644L96.6904 45.6121L96.6804 45.5764V45.5637V45.5557V45.5403L96.6704 45.504L96.6604 45.4771L96.6594 45.4721V45.4681L96.6484 45.4323L96.6364 45.3977V45.3907V45.3857L96.6263 45.3637L96.6134 45.3302L96.6024 45.3065V45.3025V45.2985L96.5874 45.2655L96.5704 45.2292V45.2232V45.2162L96.5554 45.1876L96.5354 45.1524L96.5254 45.1348V45.1268L96.5063 45.0971L96.4784 45.0531V45.0461L96.4354 44.9834L96.4054 44.9438L96.3804 44.9124L96.3799 44.9114L96.3793 44.9109L96.3533 44.8806L96.3263 44.851V44.8459L96.3163 44.841L96.2972 44.8212L96.2683 44.7931L96.2583 44.7841L96.2483 44.778L96.2343 44.7649L96.2032 44.7379L96.1903 44.727L96.1803 44.722L96.1693 44.714L96.1393 44.6909L96.1173 44.6754V44.6725V44.6695L96.0883 44.6503L96.0593 44.6327L96.0493 44.6287L96.0353 44.6207L96.0133 44.6086L95.9854 44.5938L95.9663 44.5858V44.5838L95.9563 44.5807L95.9293 44.5687L95.9023 44.5587V44.5567V44.5547L95.8833 44.5487L95.8553 44.5417L95.8413 44.5387L95.8313 44.5377L95.8213 44.5357L95.7913 44.5307L95.7733 44.5287L95.7633 44.5276L95.7533 44.5271L95.7213 44.5261L95.7073 44.5267L95.6963 44.5272L95.6863 44.5278L95.6462 44.5338H95.6458L95.6357 44.5368L95.5968 44.5471V44.5482L95.5448 44.5724L89.3281 48.1853L89.3811 48.1611L89.4221 48.149L89.4321 48.147L89.4832 48.14L89.493 48.1395L89.545 48.14L89.5551 48.1406L89.6121 48.1496L89.6221 48.1506L89.6821 48.1676V48.1685L89.7471 48.1949V48.197L89.8151 48.2321L89.8291 48.2402L89.8981 48.2836V48.2866L89.9601 48.3333" fill="#FCFCFD"/>
<path fill-rule="evenodd" clip-rule="evenodd" d="M89.8173 48.2423L89.8042 48.2343C89.4252 48.0165 89.1178 48.1914 89.1167 48.6259L89.1047 51.5227C89.1047 51.9572 89.4095 52.4869 89.7874 52.7052L89.8013 52.7132C90.1791 52.9321 90.4871 52.7567 90.4888 52.3222L90.4988 49.4259C90.4988 48.9908 90.1947 48.4612 89.8163 48.2428" fill="#E9E8E7"/>
<path fill-rule="evenodd" clip-rule="evenodd" d="M79.3804 56.3756L74.0382 53.5729V56.4764L78.9722 59.3435L79.3776 56.3756" fill="#224279"/>
<path fill-rule="evenodd" clip-rule="evenodd" d="M78.9723 56.4406V59.3435L84.3436 56.2427V53.3414V53.3408L78.9734 56.4406" fill="#1E335B"/>
<path fill-rule="evenodd" clip-rule="evenodd" d="M79.3364 55.196L72.5103 51.6473V52.8711L79.0096 56.6478L79.3325 55.196" fill="#E9E8E7"/>
<path fill-rule="evenodd" clip-rule="evenodd" d="M72.5103 51.6473L79.0103 55.4242L86.0833 51.341L79.5854 47.5647L72.5103 51.6473Z" fill="#FCFCFD"/>
<path fill-rule="evenodd" clip-rule="evenodd" d="M79.0103 55.4243V56.6479L86.0848 52.5637V51.3416V51.3411L79.0118 55.4243" fill="#F3F3F3"/>
<path fill-rule="evenodd" clip-rule="evenodd" d="M78.9349 49.5882C79.4178 49.3099 80.1977 49.3099 80.6778 49.5887C81.1574 49.867 81.1547 50.3191 80.6678 50.598C80.4264 50.7371 80.1107 50.807 79.795 50.807C79.4793 50.8075 79.1647 50.7377 78.9243 50.598C78.4448 50.3191 78.4475 49.867 78.9343 49.5882" fill="#979A9E"/>
<path fill-rule="evenodd" clip-rule="evenodd" d="M81.0359 50.0897L80.7902 51.4141C80.7612 51.5351 80.6669 51.6523 80.5062 51.7452C80.1157 51.9707 79.4843 51.9707 79.0966 51.7458C78.9184 51.6424 78.8226 51.5098 78.8083 51.374L78.5708 50.0969C78.6008 50.9065 81.037 50.4494 81.0359 50.0899" fill="#5A615E"/>
<path fill-rule="evenodd" clip-rule="evenodd" d="M79.1324 49.703C79.5052 49.488 80.1079 49.488 80.4792 49.703C80.8488 49.9186 80.8478 50.2679 80.4693 50.4829C80.0959 50.6985 79.4931 50.6985 79.1235 50.4829C78.7522 50.2679 78.7544 49.9186 79.1235 49.703" fill="#2C1713"/>
<path fill-rule="evenodd" clip-rule="evenodd" d="M80.7802 48.8682C80.7808 48.7884 80.6609 48.7456 80.5058 48.6895C80.3501 48.6329 80.1592 48.5635 79.9794 48.5944C79.9494 48.5994 79.8386 48.6098 79.8073 48.6752C79.7083 48.8836 79.6367 49.5178 79.7262 49.7653C79.7262 49.7653 80.02 49.7801 80.1613 49.7653C80.3742 49.7422 80.7779 49.0536 80.7801 48.8682" fill="#345323"/>
<path fill-rule="evenodd" clip-rule="evenodd" d="M79.4749 49.4787C79.3909 49.2208 79.2901 49.0426 79.1465 48.9425C78.8391 48.728 78.1951 48.8639 78.0356 49.2433C77.8585 49.6668 78.0995 50.3219 78.1642 50.548C78.3342 50.2911 78.5125 49.993 78.639 49.9842C78.9789 49.9611 79.4243 50.2542 79.481 49.9523C79.522 49.7356 79.538 49.6718 79.471 49.4787" fill="#44722C"/>
<path fill-rule="evenodd" clip-rule="evenodd" d="M80.1317 49.4787C80.2157 49.2208 80.3171 49.0426 80.4606 48.9425C80.7675 48.728 81.4122 48.8639 81.5717 49.2433C81.7488 49.6668 81.5066 50.3219 81.4429 50.548C81.2729 50.2911 81.0948 49.993 80.9683 49.9842C80.6279 49.9611 80.1834 50.2542 80.1262 49.9523C80.0852 49.7356 80.0692 49.6718 80.1362 49.4787" fill="#44722C"/>
<path fill-rule="evenodd" clip-rule="evenodd" d="M80.7758 51.2139C80.189 50.6232 80.5173 49.8318 80.0564 49.8362C80.531 49.3362 81.054 49.5265 81.2036 49.9605C81.3213 50.2987 81.1014 50.7574 80.7758 51.2139Z" fill="#56A034"/>
<path fill-rule="evenodd" clip-rule="evenodd" d="M78.9152 51.2349C79.5015 50.6437 79.1737 49.8522 79.6346 49.8566C79.1599 49.3566 78.6373 49.5469 78.4872 49.9809C78.3695 50.3191 78.5891 50.7779 78.9152 51.2349Z" fill="#56A034"/>
<path fill-rule="evenodd" clip-rule="evenodd" d="M79.5002 49.7191C79.5412 49.7719 79.7379 49.7565 79.7891 49.7141C79.9111 49.5216 79.9006 48.8501 79.748 48.6262C79.697 48.5525 79.6404 48.4772 79.3571 48.6158C79.0546 48.7627 78.8741 48.6128 78.4869 48.8936C78.9902 48.8755 78.9698 48.7819 79.5006 49.7191" fill="#2D421C"/>
<path fill-rule="evenodd" clip-rule="evenodd" d="M79.7797 51.2728C79.5784 51.0429 79.1198 50.4918 79.3519 49.9897C79.4129 49.8593 79.4641 49.7939 79.5312 49.768C79.5992 49.7411 79.6824 49.7526 79.8062 49.776C79.9778 49.7457 80.0888 49.7216 80.1641 49.743C80.2111 49.7568 80.3128 49.8629 80.3265 49.9289C80.4486 50.4888 80.4134 50.744 79.7797 51.2731" fill="#63C031"/>
<path fill-rule="evenodd" clip-rule="evenodd" d="M47.7826 37.6959V37.719L47.7837 37.721L47.7947 37.7419V37.7459L47.8116 37.7651L47.8276 37.7766L47.8417 37.7866L49.5934 38.8046V39.0852L47.8412 38.0672V38.0652L47.8302 38.0572L47.8152 38.0458V38.0452L47.8011 38.0304V38.0264V38.0224V38.0164L47.7911 38.0037L47.7906 38.0017L47.79 37.9987V37.9907V37.9773V37.9753V37.6948" fill="#1E335B"/>
<path fill-rule="evenodd" clip-rule="evenodd" d="M49.6675 38.8311L49.6775 38.8341L49.7534 38.8421L49.8345 38.8331V38.8325L49.9065 38.8043L51.9381 37.6312L52.0032 37.5399V37.8204L51.9381 37.9122L49.9065 39.0848L49.8744 39.1003L49.8474 39.1093L49.8345 39.1123V39.1128L49.8245 39.1148L49.8025 39.1188L49.7804 39.1208L49.7584 39.1218H49.7484H49.7374L49.7124 39.1208L49.6835 39.1158L49.6714 39.1138L49.6615 39.1108L49.6415 39.1058L49.5934 39.0843V38.8036L49.6615 38.83" fill="#172742"/>
<path fill-rule="evenodd" clip-rule="evenodd" d="M47.8486 37.6046C47.7606 37.6552 47.7606 37.7372 47.8486 37.7867L49.6003 38.8046C49.6863 38.8546 49.8275 38.8553 49.9144 38.8046L51.9461 37.6316C52.0321 37.5816 52.0331 37.5001 51.9461 37.4501L50.1938 36.432C50.1078 36.382 49.9661 36.382 49.8798 36.432L47.8486 37.6046Z" fill="#224279"/>
<path fill-rule="evenodd" clip-rule="evenodd" d="M49.8918 32.8835L49.8279 34.253L49.8959 37.9061L50.2577 37.6966V32.675L49.8953 32.8835" fill="#141E2C"/>
<path fill-rule="evenodd" clip-rule="evenodd" d="M49.8918 32.8835L49.5376 32.6772V37.6998L49.8918 37.9061V32.8835Z" fill="#1D3459"/>
<path fill-rule="evenodd" clip-rule="evenodd" d="M51.3812 34.5428L51.6689 34.3756L51.6694 34.1534L51.3818 34.3212L51.3812 34.5428Z" fill="#3C7B83"/>
<path fill-rule="evenodd" clip-rule="evenodd" d="M48.0757 31.8973L48.0658 31.7928L48.3534 31.6256L48.3634 31.7477V31.7669L48.3915 31.8835V31.895L48.4385 32.021V32.0229L48.5015 32.1478V32.1508L48.5764 32.2652L48.5864 32.2756L48.6644 32.3696L48.6825 32.3883L48.7494 32.451L48.7804 32.4785L48.8811 32.5484L48.5929 32.7156L48.4928 32.6463L48.4618 32.6188L48.4148 32.5776L48.3949 32.5562L48.3778 32.537L48.3578 32.5155L48.3148 32.4627L48.3008 32.4429L48.2909 32.4325L48.2769 32.4144L48.2458 32.3677L48.2189 32.3226V32.3186V32.3146L48.1989 32.2772L48.1748 32.2316L48.1559 32.1903V32.1873L48.1553 32.1843L48.1353 32.1365L48.1172 32.0853L48.1073 32.0606V32.0502L48.0973 32.0315L48.0823 31.9699L48.0723 31.933V31.9143V31.8961" fill="#141E2C"/>
<path fill-rule="evenodd" clip-rule="evenodd" d="M48.0691 31.7928L48.3568 31.6256L48.3668 28.6276L48.0786 28.7947L48.0686 31.7928" fill="#141E2C"/>
<path fill-rule="evenodd" clip-rule="evenodd" d="M48.0774 28.7947L48.3656 28.6275L48.1725 28.5159L47.8844 28.6836L48.0774 28.7947Z" fill="#53AEB3"/>
<path fill-rule="evenodd" clip-rule="evenodd" d="M48.8904 32.5491L51.6694 34.1534L51.3818 34.3212L48.6022 32.7163L48.8904 32.5491Z" fill="#53AEB3"/>
<path fill-rule="evenodd" clip-rule="evenodd" d="M47.8844 28.6837L48.0774 28.7948L48.0674 31.7929C48.0664 32.1317 48.3057 32.5458 48.6005 32.7163L51.3801 34.3212L51.3795 34.5429L48.6 32.938C48.1979 32.7064 47.8727 32.1432 47.8744 31.6812L47.8844 28.6837Z" fill="#1D3459"/>
<path fill-rule="evenodd" clip-rule="evenodd" d="M46.8762 33.1128L46.8862 33.148V33.152L46.9022 33.1839V33.1899L46.9292 33.2196L46.9532 33.2372L46.9752 33.2521L49.6702 34.8185V35.2502L46.9751 33.6838V33.6819L46.9581 33.6686L46.9341 33.6516V33.6497L46.9131 33.6272V33.6212V33.6161L46.9032 33.6071L46.8932 33.588V33.585L46.8921 33.581V33.5688V33.5485V33.5464V33.1142" fill="#1E335B"/>
<path fill-rule="evenodd" clip-rule="evenodd" d="M49.7748 34.8585L49.7908 34.8625L49.9089 34.8763L50.0333 34.8625V34.8615L50.1444 34.8186L53.2701 33.0141C53.3371 32.9756 53.3702 32.925 53.3702 32.8733V33.305C53.3707 33.3562 53.3372 33.4073 53.2701 33.4458L50.1444 35.2504L50.0955 35.2741L50.0544 35.2884L50.0334 35.2924V35.2934L50.0234 35.2964L49.9894 35.3024L49.9554 35.3064L49.9214 35.3084H49.9084H49.8904L49.8524 35.3054L49.8085 35.2994L49.7894 35.2944L49.7734 35.2904L49.7444 35.2834L49.6694 35.2504V34.8186L49.7734 34.8587" fill="#172742"/>
<path fill-rule="evenodd" clip-rule="evenodd" d="M46.9768 32.9725C46.8427 33.0495 46.8433 33.1755 46.9759 33.2519L49.6708 34.8183C49.8029 34.8953 50.0195 34.8958 50.1537 34.8183L53.2793 33.0138C53.4118 32.9373 53.4129 32.8114 53.2793 32.7344L50.5838 31.168C50.4518 31.0915 50.234 31.0915 50.1009 31.168L46.9751 32.9725" fill="#224279"/>
<path fill-rule="evenodd" clip-rule="evenodd" d="M46.329 29.4625V31.6422V31.6938V31.6949L46.343 31.7378V31.7383L46.3571 31.7603L46.394 31.7971L46.0211 31.5799L45.9832 31.5435V31.5396L45.9731 31.5231L45.9725 31.5221L45.9625 31.5089V31.4962V31.4841V31.4791V31.4771V31.4721V31.4611V31.449V31.438V31.4259V29.2462L46.3361 29.4629" fill="#1E335B"/>
<path fill-rule="evenodd" clip-rule="evenodd" d="M46.4763 29.1204V29.1214L46.4363 29.1703H46.4358L46.4008 29.2237V29.2267L46.3717 29.2828V29.2838L46.3497 29.3427V29.3433L46.3357 29.4032V29.4621L45.9623 29.2454L45.9628 29.2344L45.9634 29.2229L45.9639 29.2114V29.1992V29.1878L45.9644 29.1872V29.1867V29.1752V29.1625V29.1499V29.1367V29.1266V29.1261V29.1241V29.1109V29.0988V29.0867L45.9744 29.0752V29.0662L45.9749 29.0657L45.9755 29.0637L45.9855 29.0516L45.9955 29.0388L46.0055 29.0246L46.0154 29.0092V29.0072V29.0032L46.0334 28.974L46.0485 28.9531V28.9525H46.0491L46.0601 28.9382L46.0701 28.9267L46.0801 28.9163L46.0901 28.9053V28.9033V28.9028L46.1001 28.8948L46.11 28.8848L46.1211 28.8748L46.1321 28.8658V28.8618V28.8607V28.8578L46.1421 28.8498L46.1521 28.8418L46.162 28.8348L46.172 28.8288V28.8268L49.296 27.0233L49.306 27.0193L49.316 27.0143L49.326 27.0103L49.3361 27.0063L49.3461 27.0023V27.0018L49.3561 26.9987L49.3661 26.9958L49.3761 26.9938L49.3871 26.9928L49.3971 26.9918L49.4081 26.9912L49.421 26.9918L49.4351 26.9938H49.4355H49.4362L49.4521 26.9978L49.4722 27.0068L49.8451 27.2234L49.8101 27.2103H49.8096L49.7686 27.2083H49.7681L49.723 27.2183L49.7224 27.2188L49.6735 27.2408L46.5494 29.0448L46.5015 29.0783V29.0789L46.4574 29.1207" fill="#224279"/>
<path fill-rule="evenodd" clip-rule="evenodd" d="M46.5704 29.0445L49.6945 27.2405C49.8287 27.1629 49.9369 27.2256 49.9375 27.3791V29.5587C49.9381 29.7111 49.8304 29.8992 49.6962 29.9762L46.5715 31.7807C46.4374 31.8577 46.329 31.7944 46.329 31.6421V29.4625C46.3285 29.3096 46.4364 29.122 46.5706 29.0445" fill="#172742"/>
<path fill-rule="evenodd" clip-rule="evenodd" d="M47.5484 31.6889C47.5154 31.822 47.4654 32.1333 47.4604 32.2713C47.4404 32.818 47.5203 33.7112 48.0537 34.1402C48.766 34.7133 50.1334 34.5346 51.1861 35.3205C52.1381 34.8871 53.2657 34.605 53.7431 34.2293C53.7091 33.8267 53.6861 33.5985 53.6353 33.505C53.5713 33.3867 53.4697 33.3048 53.3218 33.2173C52.7833 32.8972 50.658 31.5882 50.1509 31.5349C49.8979 31.1636 49.8716 30.8958 49.9084 30.3265C49.6048 30.7165 47.9207 31.4876 47.5484 31.6889Z" fill="#181F26"/>
<path fill-rule="evenodd" clip-rule="evenodd" d="M52.439 34.9554C52.6177 36.1461 52.5868 37.3352 52.6996 38.5716L52.2134 39.1512C51.7591 37.3176 51.2482 36.3452 51.1784 35.2733C51.0602 33.4627 52.3394 33.6414 52.439 34.9554Z" fill="#FCD797"/>
<path fill-rule="evenodd" clip-rule="evenodd" d="M47.5484 31.6889C47.5154 31.822 47.4654 32.1339 47.4604 32.2714C47.4404 32.8181 47.5194 33.7113 48.0538 34.1408C48.7529 34.7018 50.081 34.5418 51.1255 35.2766L51.1576 35.3018L51.1675 35.3069L51.1856 35.3201L51.1956 35.3171C51.4057 35.3947 51.9123 35.2671 52.4507 35.0135C52.4677 34.7533 52.4506 34.4563 52.3351 34.2479C52.0915 33.7958 51.5432 33.5037 50.9074 33.1006C50.331 32.7354 49.3993 32.082 49.2453 32.066C48.9918 31.6942 49.8751 30.8951 49.9119 30.3258C49.6083 30.7158 47.9242 31.4869 47.5519 31.6882" fill="#202F40"/>
<path fill-rule="evenodd" clip-rule="evenodd" d="M48.0334 23.1259C48.4981 23.0913 48.8315 23.154 48.9877 23.3646C49.3232 23.8161 49.2621 24.5724 49.3044 25.3144C49.3494 26.0959 49.4959 26.8648 49.7825 27.3686L48.4224 26.4281L47.4509 24.5366L48.0334 23.1259Z" fill="#100F0D"/>
<path fill-rule="evenodd" clip-rule="evenodd" d="M47.6456 27.0369C46.9372 27.4456 46.5495 27.8861 46.7794 28.0192C47.0093 28.1529 47.7704 27.9301 48.4788 27.5204C49.1872 27.1112 49.5755 26.6717 49.345 26.5375C49.1152 26.4039 48.3546 26.6272 47.6456 27.0369Z" fill="#1E335B"/>
<path fill-rule="evenodd" clip-rule="evenodd" d="M47.6445 25.4453C47.7025 25.6637 47.9564 26.1476 47.7804 26.7334L49.084 27.4017L48.9756 26.8566C48.8233 26.3913 48.7687 26.1048 48.8177 25.6686L47.6445 25.4453Z" fill="#EEBB66"/>
<path fill-rule="evenodd" clip-rule="evenodd" d="M47.7721 26.5728C47.7311 26.6916 47.7982 26.8484 47.7482 26.9419L47.7232 26.9837L47.7052 26.9699C47.4142 27.1915 47.3646 27.2845 47.1155 27.4709L47.0876 27.4924C46.5321 27.9544 47.0975 29.0335 47.4153 29.7991C47.6083 30.2617 47.7702 30.6693 47.7261 30.9338C47.6421 31.4393 47.389 32.1399 47.4148 32.7361C47.6695 33.0161 49.6752 31.8011 50.041 31.3133C49.7913 30.7479 50.017 29.7447 50.11 29.1826C50.2298 28.8251 50.3619 28.4417 50.324 28.1728C50.271 27.7993 50.0935 27.7372 49.8477 27.3109C49.7003 27.0535 49.5506 26.7357 49.4043 26.5877L49.3654 26.558C49.3144 26.5195 49.2437 26.4964 49.0941 26.5074L49.0752 26.5064V26.5094C49.0232 26.5134 48.9624 26.522 48.891 26.5347C48.917 26.7046 48.949 26.9846 48.891 27.1842C48.7453 27.089 48.0819 26.7899 47.77 26.5732" fill="#365478"/>
<path fill-rule="evenodd" clip-rule="evenodd" d="M47.6016 27.8713C47.9387 28.5907 47.5436 30.3463 47.4014 31.1971L47.0676 31.4446C46.616 31.3852 46.6293 31.1465 46.6095 30.8006C46.5615 29.9442 46.4896 28.8519 46.6095 28.16C46.6685 27.8328 46.8816 27.5726 47.1236 27.5792C47.3024 27.5842 47.5229 27.7145 47.5966 27.8713" fill="#41668F"/>
<path fill-rule="evenodd" clip-rule="evenodd" d="M52.6023 37.9319C52.6713 38.341 52.9829 39.6941 53.1386 40.0043C53.2096 40.1461 53.2871 40.3086 53.4554 40.5339L53.0594 40.7462L52.3811 40.6549C52.3811 40.6549 51.9886 39.6747 51.9825 39.6172C51.9115 38.9544 51.5623 39.0623 51.8875 38.5204C52.0322 38.2796 51.9535 37.9792 51.9175 37.7174L52.6028 37.9319" fill="#FCD797"/>
<path fill-rule="evenodd" clip-rule="evenodd" d="M53.2953 40.2948C53.4312 40.5356 53.5664 40.5797 53.5713 40.7221C53.5813 40.9108 53.1991 40.9647 53.0715 40.9722C52.8856 40.9834 52.5221 40.8607 52.3559 40.694C52.2536 40.3008 52.0947 39.9729 51.9506 39.594L52.0562 40.5554L51.9672 40.5547C51.9052 40.2128 51.8004 39.815 51.7063 39.5269C51.6693 39.412 51.6019 39.3031 51.5877 39.2393C51.5257 38.9587 51.7196 38.7475 51.8588 38.5221C52.0227 39.033 52.2563 40.2138 52.7992 40.4035C52.984 40.4684 53.2167 40.3838 53.2948 40.2948" fill="#1E335B"/>
<path fill-rule="evenodd" clip-rule="evenodd" d="M53.6934 37.2394C53.7624 37.6492 54.074 39.0016 54.2297 39.3119C54.3007 39.4536 54.3782 39.6159 54.5465 39.841L54.1505 40.0544L53.4723 39.9631C53.4723 39.9631 53.0796 38.9823 53.0736 38.9241C53.0036 38.262 52.6534 38.3698 52.9786 37.828C53.1232 37.5865 53.0436 37.2868 53.0086 37.0244L53.6933 37.2395" fill="#EEBB66"/>
<path fill-rule="evenodd" clip-rule="evenodd" d="M54.3865 39.6024C54.5224 39.8433 54.6571 39.8873 54.6626 40.0302C54.6726 40.2184 54.2902 40.2723 54.1626 40.2798C53.9767 40.291 53.6132 40.1688 53.4471 40.0016C53.3448 39.6084 53.1864 39.2806 53.0418 38.9016L53.1474 39.863L53.0594 39.8624C52.9964 39.5204 52.8921 39.1222 52.7986 38.8339C52.7616 38.7189 52.6941 38.6111 52.6792 38.5463C52.6172 38.267 52.8113 38.0551 52.9505 37.8302C53.1144 38.34 53.3487 39.5214 53.891 39.7111C54.0758 39.7756 54.309 39.6913 54.3865 39.6024Z" fill="#162842"/>
<path fill-rule="evenodd" clip-rule="evenodd" d="M48.8419 23.4114C49.2934 24.0615 49.0691 24.2408 49.1356 24.7732C49.1716 25.0559 49.0956 25.4898 49.0333 25.6554C48.9443 25.8913 48.8705 26.0761 48.7341 26.1207C48.5944 26.1658 48.2298 26.0107 47.902 25.8143C47.616 25.6422 47.3575 25.4409 47.3102 25.2753L46.9434 23.9966L48.8419 23.4114Z" fill="#FCD797"/>
<path fill-rule="evenodd" clip-rule="evenodd" d="M46.8274 23.7095C46.6106 24.2314 46.4978 24.9283 46.5033 25.514C46.5033 25.9865 46.5783 26.6987 46.7711 27.1156C46.9087 27.4137 46.4665 27.9313 45.9319 27.7734C46.3445 28.6974 47.4861 28.4807 47.5681 27.3054C47.6511 26.1113 46.9527 24.2353 46.8274 23.7095Z" fill="#100F0D"/>
<path fill-rule="evenodd" clip-rule="evenodd" d="M47.6605 28.7535C47.9476 27.472 47.2546 26.9577 47.165 26.8681C46.6287 26.334 46.4583 24.2055 46.923 23.5142C47.1667 23.1517 47.5918 22.935 48.2375 23.0258C48.4932 23.0445 49.0052 23.1391 48.9942 23.5472C48.9672 24.5366 47.3442 24.6851 48.1236 26.3923C48.926 28.1485 47.6588 28.7601 47.6605 28.7535Z" fill="#100F0D"/>
<path fill-rule="evenodd" clip-rule="evenodd" d="M53.7331 34.1699L53.9398 37.9468L53.9198 37.9923C53.8428 38.0469 53.5651 37.993 53.3 37.8703C53.0855 37.7718 52.9452 37.6591 52.9397 37.5909C52.9397 37.5348 52.9297 37.4996 52.9187 37.4369C52.7246 36.3204 52.4545 35.7313 52.3962 35.09C52.3802 34.9168 52.4452 34.5164 52.4532 34.3189C52.4532 34.2353 53.2881 32.6547 53.5752 33.5215C53.6252 33.6733 53.7325 33.8382 53.7331 34.1699" fill="#181F26"/>
<path fill-rule="evenodd" clip-rule="evenodd" d="M52.4384 34.7645L52.7766 38.6348L52.7637 38.6823C52.6947 38.7472 52.4121 38.73 52.1333 38.6443C51.9072 38.5749 51.7532 38.4821 51.7389 38.4148C51.7269 38.3598 51.715 38.3269 51.698 38.2652C51.3553 37.0525 51.1716 36.2655 51.142 35.8893C51.124 35.6605 51.193 35.2436 51.142 34.9103C51.0369 34.1541 52.2392 33.3412 52.4339 34.7646" fill="#202F40"/>
<path fill-rule="evenodd" clip-rule="evenodd" d="M39.6504 52.5834C39.5834 52.557 39.5167 52.5299 39.4513 52.5014L39.4003 52.4778C39.3493 52.4558 39.3002 52.4322 39.2517 52.4079L39.1978 52.3821C39.1348 52.3497 39.0722 52.3159 39.0134 52.2813L38.5751 47.6691L38.9854 42.6923C39.0454 42.7268 39.107 42.7597 39.1697 42.7917L39.2246 42.8192C39.2736 42.8439 39.3227 42.8664 39.3732 42.8889L39.4242 42.9122C39.4902 42.9401 39.5562 42.9672 39.6244 42.9929L39.6604 43.0067C39.7184 43.0275 39.7757 43.0484 39.8341 43.0677L39.9081 43.0912L40.0042 43.1206L40.0881 43.1446L40.1881 43.1717L40.2721 43.1925L40.3744 43.2162L40.4595 43.2349L40.5641 43.2552L40.645 43.2701C40.72 43.2835 40.7957 43.2959 40.8722 43.3065L40.9042 43.3105C40.9692 43.3195 41.0367 43.3274 41.1038 43.3347L41.1808 43.3427L41.3088 43.3531L41.3909 43.3582L41.526 43.3652L41.6021 43.3682L41.7192 43.3701L41.8013 43.3712L41.9249 43.3701L42 43.3682L42.1149 43.3642L42.1938 43.3612L42.3192 43.3522L42.3882 43.3472C42.4392 43.3422 42.4895 43.3372 42.5396 43.332L42.5806 43.3289C42.6456 43.3209 42.7093 43.3124 42.7732 43.3047L42.8042 43.2988C42.8582 43.2908 42.9125 43.2835 42.9658 43.274L43.0348 43.261L43.1575 43.2378L43.2214 43.2236L43.3567 43.1933L43.4297 43.174L43.5519 43.1422L43.6208 43.1228C43.6838 43.1031 43.748 43.0844 43.8096 43.0635L43.8435 43.0529C43.9145 43.0281 43.9854 43.0025 44.0553 42.976L44.1393 42.9412L44.2053 42.9137L44.2983 42.8725L44.3604 42.845L44.4603 42.7945L44.5094 42.7702L44.6541 42.6912L45.3354 47.5471L44.6815 52.2802L44.5369 52.3595L44.4878 52.3842L44.3871 52.4337L44.3271 52.4612L44.2341 52.5034L44.1671 52.5311L44.1041 52.558L44.0841 52.5649C44.0141 52.592 43.9433 52.6178 43.8724 52.642L43.8384 52.6534C43.7754 52.6738 43.7126 52.6932 43.6482 52.7119L43.6172 52.722L43.5802 52.7319L43.4585 52.7643L43.3845 52.782L43.2504 52.8127L43.1993 52.8242L43.1853 52.8262L43.0626 52.8499L42.9937 52.8631C42.9407 52.8721 42.887 52.8807 42.8325 52.8885L42.8015 52.8925C42.7385 52.9025 42.6744 52.9105 42.6106 52.9167L42.5686 52.9207C42.5186 52.9267 42.4681 52.9317 42.4174 52.9356L42.3523 52.9406L42.2263 52.9496L42.1473 52.9526L42.0325 52.9576H42.0225L41.9574 52.9586L41.8314 52.9606L41.7505 52.9586L41.6332 52.9566H41.6112L41.5573 52.9536L41.4225 52.9467L41.3406 52.9417L41.2118 52.9308L41.1669 52.9267L41.1359 52.9227C41.0689 52.9167 41.0028 52.9083 40.9357 52.8995L40.9037 52.8955C40.8267 52.885 40.7518 52.8729 40.6765 52.8596L40.6555 52.8557L40.5956 52.8436L40.4911 52.8232L40.4061 52.8045L40.3038 52.7809L40.2198 52.7601L40.1191 52.733L40.0361 52.7094L39.9391 52.6805L39.8961 52.6667L39.8661 52.6566C39.8071 52.6366 39.7502 52.6164 39.693 52.595L39.6559 52.5829" fill="#1E335B"/>
<path fill-rule="evenodd" clip-rule="evenodd" d="M57.2278 23.7744C58.1761 24.2276 58.9817 24.8881 58.8541 26.0602L58.8811 35.6494V35.5658V35.5295L58.8682 35.4366V35.4239L58.8412 35.3161L58.8312 35.2842L58.8052 35.2094L58.7842 35.1582L58.7582 35.0988L58.7322 35.0476L58.7012 34.9909L58.6482 34.904L58.6282 34.8721L58.5421 34.7555L58.4631 34.6604L58.4402 34.6351L58.3691 34.5592L58.3481 34.5372L58.2532 34.4459L58.1239 34.3332L58.1 34.3145L57.9812 34.2226L57.9292 34.1852L57.8275 34.1137L57.7665 34.073L57.662 34.007L57.5575 33.9443L54.9352 32.4197L54.8932 32.395L54.8462 32.3658L54.7842 32.3267L54.7201 32.2832L54.6631 32.2431L54.6041 32.1975L54.5511 32.1562L54.4961 32.1089L54.4481 32.0666L54.4362 32.0566L54.4142 32.0351L54.3312 31.9515L54.2971 31.9163L54.2181 31.8245L54.2021 31.8058V31.7988L54.1272 31.697V31.692L54.0602 31.5837V31.5787L54.0421 31.5446L54.0082 31.478L53.9872 31.4323L53.9612 31.3691L53.9512 31.3548L53.9402 31.3213L53.9202 31.2586L53.9071 31.2096L53.8921 31.1475L53.8821 31.1266V31.0991L53.8722 31.0325L53.8622 30.9836V30.917V30.8868L53.8616 30.8488L53.8346 21.2595C53.8346 22.9002 56.2748 23.3083 57.2483 23.7741" fill="#224279"/>
<path fill-rule="evenodd" clip-rule="evenodd" d="M28.7356 35.8601V35.9272L28.7455 35.9761L28.7555 36.0428L28.7655 36.0912L28.7805 36.1534L28.7936 36.2029L28.8146 36.2644L28.8306 36.3123L28.8575 36.376L28.8776 36.4207L28.9115 36.4872L28.9325 36.528L28.9995 36.6363V36.6393L29.0746 36.7433L29.0945 36.7686L29.1736 36.8593L29.2075 36.8951L29.2915 36.9787L29.3246 37.0107L29.3726 37.0536L29.4286 37.1003L29.4816 37.142L29.5405 37.1866L29.5975 37.2274L29.6615 37.2702L29.7225 37.3092L29.8115 37.3637L38.9806 42.6921L39.0076 52.2819L29.8379 46.9536L29.7959 46.9288L29.7489 46.8985L29.688 46.8605L29.6239 46.8164L29.5669 46.7758L29.5079 46.7307L29.455 46.6891L29.3989 46.6422L29.351 46.5999L29.339 46.5892L29.3169 46.5685L29.2339 46.4848L29.2 46.4496L29.121 46.3576L29.105 46.3385V46.3326L29.0299 46.2296V46.2267L28.964 46.1177V46.1117L28.9459 46.0771L28.912 46.0105L28.891 45.9653L28.865 45.9015L28.855 45.8873L28.845 45.8536L28.825 45.7915L28.8109 45.7432L28.7959 45.6805L28.7859 45.659V45.6315L28.7759 45.5662L28.766 45.5172V45.4499V45.4185L28.7654 45.3811L28.7394 35.7925V35.8602" fill="#224279"/>
<path fill-rule="evenodd" clip-rule="evenodd" d="M70.1094 27.9434C70.8998 27.4869 71.2941 26.8879 71.293 26.29L71.3199 35.8793C71.3199 36.4777 70.9266 37.0766 70.1357 37.5331L44.6818 52.2813L44.6548 42.6923L70.1099 27.9434" fill="#172742"/>
<path fill-rule="evenodd" clip-rule="evenodd" d="M57.6925 22.5721C58.7562 23.2574 59.0422 23.8124 59.0653 24.6352L59.0658 24.6665V26.2648V26.1763V26.1384L59.0508 26.0399V26.0261L59.0228 25.9133L59.0109 25.8781L58.9839 25.8L58.9608 25.7455L58.9339 25.6839L58.9059 25.6295L58.8728 25.5684L58.8179 25.4793L58.7959 25.4447L58.7058 25.3204L58.6218 25.2203L58.5979 25.1939L58.5228 25.1142L58.4999 25.0906L58.3998 24.9949L58.2623 24.8755L58.2383 24.8569L58.1129 24.7585L58.059 24.7194L57.9517 24.644L57.8866 24.6006L57.7771 24.5312L57.6671 24.4653L54.898 22.856L54.8529 22.8291L54.804 22.7989L54.7389 22.757L54.6709 22.7115L54.611 22.6697L54.548 22.6213L54.4929 22.5778L54.4349 22.5283L54.3829 22.4832L54.37 22.4727L54.3469 22.4497L54.2579 22.3622L54.2229 22.3242L54.141 22.2274L54.1239 22.2071V22.2021L54.0449 22.0932V22.0901L53.975 21.9758V21.9688L53.9559 21.9325L53.9199 21.8621L53.898 21.8143L53.87 21.7466L53.86 21.7318L53.8479 21.6966L53.8269 21.6317L53.8119 21.5795L53.7959 21.5141L53.7859 21.4915V21.4629L53.7749 21.3925L53.7649 21.3412C53.7109 20.8044 53.753 20.15 53.752 19.6C53.8576 21.2302 56.5569 21.8379 57.6987 22.5727" fill="#D0D0CE"/>
<path fill-rule="evenodd" clip-rule="evenodd" d="M38.8363 43.3379L38.5911 42.4138L38.8313 41.7407C40.5831 42.416 43.1967 42.4381 44.8154 41.7407L45.0453 42.5805L44.8203 43.3379C43.173 44.2894 40.4753 44.3004 38.8363 43.3379Z" fill="#E3E2E0"/>
<path fill-rule="evenodd" clip-rule="evenodd" d="M29.2631 35.8881L38.8313 41.7407V43.3378L29.153 37.7146L29.1089 37.6877C28.5622 37.3649 28.0105 36.7786 28.0105 36.0955L28.01 36.0553L28 34.4575C28.1766 35.0543 28.6628 35.5421 29.2535 35.8881" fill="#D0D0CE"/>
<path fill-rule="evenodd" clip-rule="evenodd" d="M70.9497 28.2524L44.8203 43.3379V41.7407L46.0759 40.9273L70.799 26.6388C71.4326 26.273 72.202 25.6905 72.1992 24.9084L72.2092 26.5073C72.2092 27.1387 71.7939 27.7712 70.9596 28.2524" fill="#F3F3F3"/>
<path fill-rule="evenodd" clip-rule="evenodd" d="M29.4005 32.5183C31.0582 31.5607 33.9044 31.4645 35.5517 32.4226L38.3204 34.0313C39.9671 34.9883 42.3129 35.1808 43.9706 34.2233L57.9719 26.1404C59.6296 25.1829 59.3051 23.8239 57.6579 22.8669L54.8891 21.2575C53.2413 20.3005 53.4179 18.6517 55.1361 17.66C56.7938 16.703 59.64 16.6068 61.2867 17.5638L70.9651 23.1881C72.6118 24.1451 72.6035 25.6972 70.9461 26.6537L44.8157 41.7408C43.1579 42.6972 40.4788 42.6972 38.8321 41.7408L29.1532 36.1159C27.5065 35.1583 27.6825 33.5105 29.4007 32.5183" fill="#FCFCFD"/>
<path fill-rule="evenodd" clip-rule="evenodd" d="M53.0022 32.3792L50.5331 31.5327V31.6988L52.9307 33.0919L53.0006 32.3792" fill="#224075"/>
<path fill-rule="evenodd" clip-rule="evenodd" d="M50.5331 31.5327L52.9312 32.4264C54.5961 31.465 56.2604 30.5042 57.9258 29.5428L55.5283 28.6501L50.5331 31.5327Z" fill="#28549F"/>
<path fill-rule="evenodd" clip-rule="evenodd" d="M57.9274 30.2082V29.5433L57.9269 29.5427C56.2615 30.5041 54.5972 31.465 52.9323 32.4264V33.0919C54.5971 32.1305 56.2615 31.1696 57.9268 30.2082" fill="#1E335B"/>
<path fill-rule="evenodd" clip-rule="evenodd" d="M62.2592 31.0497L62.2811 31.0537L60.6807 30.1237V30.1217V30.1207V30.1197V30.1191L60.6797 30.1197H60.6791L60.6691 30.1217L60.6591 30.1247L60.649 30.1287L58.9629 31.1022L60.5634 32.0328L62.2501 31.0587L62.2761 31.0497H62.2767" fill="#28549F"/>
<path fill-rule="evenodd" clip-rule="evenodd" d="M60.4767 32.1525V32.119L60.4773 32.118L60.4912 32.0845L60.5132 32.0554V32.0544L60.5392 32.0329L58.9388 31.1023L58.9159 31.1199V31.1239V31.1249V31.1289L58.9059 31.1359V31.1419V31.1479V31.1539V31.1549V31.1599V31.1649V31.1719V31.1779V31.1849V31.1879L58.9053 31.1884V31.1914V31.1995V31.2098V31.2231L58.9059 31.2791L58.9258 31.3242L60.5269 32.2543L60.5068 32.2098V32.1531" fill="#224075"/>
<path fill-rule="evenodd" clip-rule="evenodd" d="M62.301 31.0987L62.2321 31.0586L60.5452 32.0327L60.4762 32.1526V32.2093L60.5452 32.2488L62.2319 31.2759L62.2999 31.156V31.0988" fill="#1E335B"/>
<path fill-rule="evenodd" clip-rule="evenodd" d="M59.7249 30.4354L59.6509 31.3726L59.9716 31.5591L60.0455 30.6219L59.725 30.4354" fill="#1E335B"/>
<path fill-rule="evenodd" clip-rule="evenodd" d="M61.3798 29.8519L61.026 29.7023L60.0454 30.6219L59.9714 31.5591L61.4585 30.7011L61.3795 29.8519" fill="#172742"/>
<path fill-rule="evenodd" clip-rule="evenodd" d="M57.7657 31.2142L57.8097 27.472L57.4347 27.28L57.4457 31.0277V31.1036V31.4628L57.4657 31.5629L57.5187 31.6229L57.8392 31.8093C57.7942 31.7835 57.7662 31.7279 57.7662 31.6493V31.2901L57.7657 31.2142" fill="#224279"/>
<path fill-rule="evenodd" clip-rule="evenodd" d="M63.4438 23.9008L63.4799 23.8918L63.5159 23.8908V23.8914L63.5488 23.8994L63.2283 23.713L63.2173 23.709L63.2032 23.706L63.1932 23.705V23.7044V23.7039H63.1763L63.1622 23.7049V23.7054L63.1403 23.7104L63.1272 23.7144L63.1172 23.7174L63.1073 23.7204L63.0723 23.7374L57.6833 26.8488C57.548 26.9269 57.4369 27.1171 57.4341 27.2739V27.2799L57.7549 27.4663C57.7544 27.303 57.91 27.1429 58.0403 27.067L63.3928 23.9232L63.4348 23.9041L63.4448 23.9011" fill="#1E335B"/>
<path fill-rule="evenodd" clip-rule="evenodd" d="M63.644 24.0665C63.6435 23.9802 63.6091 23.9218 63.5551 23.8998C63.5121 23.8822 63.456 23.8883 63.3934 23.9235L58.0044 27.0354C57.8669 27.1146 57.7549 27.3088 57.7554 27.4666L57.7664 31.2143L57.7668 31.2902V31.6493C57.7673 31.8072 57.8796 31.8721 58.0171 31.7923L63.4065 28.681C63.544 28.6013 63.6557 28.4082 63.6552 28.2498V27.8901L63.6451 24.0665" fill="#172742"/>
<path fill-rule="evenodd" clip-rule="evenodd" d="M43.4491 37.9676C42.9662 37.6888 42.1864 37.6888 41.7063 37.9682C41.2267 38.2465 41.2288 38.6984 41.7162 38.9773C41.9577 39.1166 42.2739 39.1864 42.589 39.1864C42.9042 39.1864 43.2194 39.1165 43.4591 38.9773C43.9393 38.6984 43.9365 38.2465 43.4491 37.9676Z" fill="#979A9E"/>
<path fill-rule="evenodd" clip-rule="evenodd" d="M41.3477 38.4693L41.5935 39.7936C41.6235 39.9149 41.7172 40.0319 41.8778 40.1247C42.2683 40.3509 42.8998 40.3509 43.2875 40.1247C43.4652 40.0214 43.5614 39.8888 43.5757 39.7535L43.8127 38.476C43.7837 39.2855 41.3472 38.8286 41.3477 38.469" fill="#5A615E"/>
<path fill-rule="evenodd" clip-rule="evenodd" d="M43.2512 38.0826C42.8788 37.8671 42.2761 37.867 41.9048 38.0832C41.5347 38.2976 41.5363 38.647 41.9048 38.8625C42.2783 39.0782 42.881 39.0782 43.2512 38.8631C43.6224 38.647 43.6202 38.2977 43.2512 38.0826Z" fill="#2C1713"/>
<path fill-rule="evenodd" clip-rule="evenodd" d="M41.6039 37.2472C41.6039 37.168 41.7227 37.1245 41.8778 37.069C42.0334 37.0124 42.225 36.943 42.4048 36.9733C42.4348 36.9783 42.5455 36.9887 42.5768 37.0547C42.6748 37.2631 42.7473 37.8973 42.6578 38.1442C42.6578 38.1442 42.3642 38.159 42.2223 38.1442C42.0095 38.1216 41.6062 37.4325 41.604 37.2472" fill="#345323"/>
<path fill-rule="evenodd" clip-rule="evenodd" d="M42.9086 37.8583C42.9926 37.6003 43.0938 37.4216 43.2374 37.3215C43.5443 37.1075 44.189 37.2429 44.3479 37.6229C44.5256 38.0459 44.2838 38.702 44.2197 38.927C44.0492 38.67 43.8716 38.372 43.745 38.3636C43.4046 38.34 42.9597 38.6337 42.9031 38.3318C42.8621 38.1146 42.8461 38.0508 42.9131 37.8583" fill="#44722C"/>
<path fill-rule="evenodd" clip-rule="evenodd" d="M42.2519 37.8583C42.1679 37.6003 42.0671 37.4216 41.9235 37.3215C41.6161 37.1075 40.972 37.2429 40.8125 37.6229C40.6354 38.0459 40.8775 38.702 40.9412 38.927C41.1112 38.67 41.2894 38.372 41.4159 38.3636C41.7558 38.34 42.2006 38.6337 42.2578 38.3318C42.2988 38.1146 42.3148 38.0508 42.2478 37.8583" fill="#44722C"/>
<path fill-rule="evenodd" clip-rule="evenodd" d="M41.6078 39.5935C42.1947 39.0029 41.8669 38.2109 42.3273 38.2152C41.8531 37.7164 41.33 37.9056 41.1798 38.3396C41.0627 38.6789 41.2822 39.1376 41.6078 39.5935Z" fill="#56A034"/>
<path fill-rule="evenodd" clip-rule="evenodd" d="M43.469 39.6137C42.8822 39.0232 43.2104 38.231 42.7495 38.2355C43.2242 37.7361 43.7468 37.9259 43.8969 38.3597C44.0141 38.6985 43.7952 39.1572 43.469 39.6137Z" fill="#56A034"/>
<path fill-rule="evenodd" clip-rule="evenodd" d="M42.8837 38.0985C42.8427 38.1514 42.646 38.1361 42.5944 38.0935C42.4722 37.9016 42.4832 37.2295 42.6354 37.0067C42.6864 36.9324 42.7432 36.8566 43.027 36.9952C43.3289 37.1426 43.51 36.9922 43.8966 37.273C43.3939 37.2554 43.4143 37.1619 42.8835 38.099" fill="#2D421C"/>
<path fill-rule="evenodd" clip-rule="evenodd" d="M42.6039 39.6518C42.8057 39.4219 43.2643 38.8713 43.0317 38.3685C42.9717 38.2383 42.92 38.1734 42.8529 38.147C42.7849 38.1199 42.7011 38.1322 42.5779 38.155C42.4063 38.1251 42.2953 38.1004 42.22 38.1219C42.172 38.1357 42.0714 38.2428 42.0571 38.3077C41.9355 38.8676 41.9702 39.1229 42.6039 39.652" fill="#63C031"/>
<path fill-rule="evenodd" clip-rule="evenodd" d="M35.5143 37.6449L33.4832 36.4641V35.1331L35.875 36.188L35.5182 37.6449" fill="#172742"/>
<path fill-rule="evenodd" clip-rule="evenodd" d="M36.1331 35.694L37.9348 35.7474V36.2462L35.5127 37.6449V36.3139L36.1353 35.694" fill="#141D2A"/>
<path fill-rule="evenodd" clip-rule="evenodd" d="M36.3525 35.8271L34.3219 34.6473L35.9037 34.567L37.9348 35.7473L36.3525 35.827" fill="#1E335B"/>
<path fill-rule="evenodd" clip-rule="evenodd" d="M35.5105 36.3138L33.4794 35.133L34.3219 34.6473L36.3525 35.8271L35.5105 36.3138Z" fill="#1E335B"/>
<path fill-rule="evenodd" clip-rule="evenodd" d="M35.2734 34.8112L35.2484 34.9388C35.2484 34.9723 35.1357 34.9712 34.9971 34.9368C34.8585 34.9022 34.7457 34.8472 34.7457 34.8136L34.7727 34.6827L35.2738 34.8109" fill="#141D2A"/>
<path fill-rule="evenodd" clip-rule="evenodd" d="M35.0232 34.6864C35.1618 34.7205 35.2745 34.7755 35.2745 34.809C35.2745 34.8431 35.1618 34.842 35.0232 34.808C34.8846 34.7734 34.7719 34.7178 34.7719 34.6848C34.7719 34.6507 34.8846 34.6518 35.0232 34.6868" fill="#172742"/>
<path fill-rule="evenodd" clip-rule="evenodd" d="M35.7838 35.1093L35.7588 35.2375C35.7588 35.2705 35.646 35.2699 35.5074 35.2355C35.3683 35.2009 35.2561 35.1458 35.2561 35.1123L35.2831 34.9808L35.7842 35.109" fill="#141D2A"/>
<path fill-rule="evenodd" clip-rule="evenodd" d="M35.5336 34.9845C35.6722 35.0186 35.7849 35.0742 35.7849 35.1072C35.7849 35.1413 35.6722 35.1407 35.5336 35.1062C35.395 35.0716 35.2822 35.0165 35.2822 34.983C35.2822 34.9495 35.395 34.9499 35.5336 34.9849" fill="#172742"/>
<path fill-rule="evenodd" clip-rule="evenodd" d="M36.3409 35.463L36.3159 35.59C36.3159 35.6241 36.2038 35.6236 36.0652 35.588C35.9261 35.5545 35.8138 35.4989 35.8138 35.4654L35.8408 35.3345L36.3413 35.4626" fill="#141D2A"/>
<path fill-rule="evenodd" clip-rule="evenodd" d="M36.0912 35.3376C36.2298 35.3722 36.342 35.4273 36.342 35.4608C36.342 35.4949 36.2298 35.4943 36.0912 35.4588C35.9521 35.4247 35.84 35.3697 35.84 35.3356C35.84 35.3026 35.9521 35.3032 36.0912 35.3376Z" fill="#172742"/>
<path fill-rule="evenodd" clip-rule="evenodd" d="M37.099 35.502L37.074 35.6302C37.074 35.6632 36.9611 35.6626 36.8225 35.6282C36.6839 35.593 36.5713 35.5386 36.5713 35.5044L36.5983 35.3735L37.0994 35.5017" fill="#141D2A"/>
<path fill-rule="evenodd" clip-rule="evenodd" d="M36.8486 35.3772C36.9872 35.4113 37.1 35.4669 37.1 35.4998C37.1 35.5339 36.9872 35.5328 36.8486 35.4988C36.71 35.4642 36.5973 35.4091 36.5973 35.3756C36.5973 35.3415 36.71 35.3426 36.8486 35.3776" fill="#172742"/>
<path fill-rule="evenodd" clip-rule="evenodd" d="M36.5571 35.0824L36.5321 35.2095C36.5321 35.2436 36.4194 35.243 36.2808 35.2085C36.1422 35.1739 36.0294 35.1188 36.0294 35.0847L36.0564 34.9539L36.5575 35.0826" fill="#141D2A"/>
<path fill-rule="evenodd" clip-rule="evenodd" d="M36.3069 34.9569C36.4455 34.991 36.5582 35.0466 36.5582 35.0801C36.5582 35.1136 36.4455 35.1131 36.3069 35.0781C36.1683 35.0435 36.0555 34.989 36.0555 34.9549C36.0555 34.9219 36.1683 34.9219 36.3069 34.9569Z" fill="#172742"/>
<path fill-rule="evenodd" clip-rule="evenodd" d="M36.0544 34.7486L36.0294 34.8762C36.0294 34.9097 35.9173 34.9086 35.7781 34.8742C35.6395 34.8396 35.5272 34.7845 35.5272 34.751L35.5542 34.6195L36.0547 34.7482" fill="#141D2A"/>
<path fill-rule="evenodd" clip-rule="evenodd" d="M35.8047 34.6236C35.9433 34.6577 36.0555 34.7133 36.0555 34.7463C36.0555 34.7798 35.9433 34.7792 35.8047 34.7442C35.6655 34.7101 35.5533 34.6545 35.5533 34.6216C35.5533 34.5875 35.6655 34.5886 35.8047 34.6236Z" fill="#172742"/>
<path fill-rule="evenodd" clip-rule="evenodd" d="M33.2187 35.1726C33.2287 35.3233 33.3265 35.4536 33.4854 35.458L33.4964 35.1363L33.6114 35.0593L35.2009 35.9492C35.3285 35.9582 35.1349 36.481 35.5237 36.7087C35.7767 36.8567 36.2882 36.5872 36.3564 36.4623C36.5033 36.195 36.4916 35.8337 36.099 35.6109C35.5693 35.3106 34.8647 34.8536 34.3285 34.6286C34.1371 34.5489 33.9903 34.4724 33.8329 34.5016C33.4919 34.5643 33.1956 34.8112 33.2187 35.1726Z" fill="#224279"/>
<path fill-rule="evenodd" clip-rule="evenodd" d="M49.9919 31.377C50.3203 31.4012 50.3017 31.4105 50.6713 31.5261C50.8 31.5662 51.1234 31.5772 51.3428 31.5804C51.3958 31.6437 51.3818 31.6981 51.4583 31.8505C51.6002 31.526 51.5422 31.3918 51.4752 31.201L51.3542 30.9215C51.2922 30.7631 51.2742 30.8159 51.083 30.7912C50.9664 30.7758 50.8663 30.7681 50.7024 30.7791C50.5545 30.7901 50.3951 30.8423 50.2466 30.8528L49.8302 30.8308L49.9869 31.3462L50.001 31.3471L49.991 31.3769" fill="#FCD797"/>
<path fill-rule="evenodd" clip-rule="evenodd" d="M50.2163 31.4513C50.4099 31.387 50.434 30.9442 50.2642 30.8122C50.054 30.8364 47.616 30.298 46.8922 30.5614C46.4549 30.7391 46.6519 31.3177 46.9062 31.3963C48.0596 31.7544 49.0529 31.4865 50.2161 31.4513" fill="#41668F"/>
<path fill-rule="evenodd" clip-rule="evenodd" d="M51.8483 29.9915L52.1606 29.9041C52.5054 29.7842 52.6254 29.7886 52.8427 29.9036C53.0539 30.0169 53.3679 30.2127 53.6132 30.4222L53.4119 30.7627C53.1853 30.7104 52.9647 30.5543 52.7441 30.4806C52.5274 30.4086 52.303 30.6835 52.1545 30.6269L51.6078 30.4178L51.8483 29.9916" fill="#FCD797"/>
<path fill-rule="evenodd" clip-rule="evenodd" d="M50.1322 29.1193C50.7883 29.3965 51.7877 29.7859 52.0039 29.8563C52.2134 30.0532 52.0189 30.5372 51.8047 30.5234L49.9678 30.068C50.0088 29.7385 50.0717 29.4212 50.1108 29.1825L50.1318 29.1193" fill="#2D4765"/>
<path fill-rule="evenodd" clip-rule="evenodd" d="M61.7262 22.5198V22.5363L61.7268 22.5383L61.7368 22.5526V22.5556L61.7499 22.5694L61.7609 22.5774L61.7709 22.5844L63.0287 23.3148L63.0293 23.5161L61.7714 22.7857V22.7847L61.7614 22.7777L61.7504 22.7697V22.7691L61.7404 22.7581V22.7551V22.7521V22.7481V22.7391L61.7397 22.7381L61.7393 22.7361V22.7301V22.7211V22.7191L61.7388 22.5178" fill="#2A57A4"/>
<path fill-rule="evenodd" clip-rule="evenodd" d="M63.0786 23.3338L63.0886 23.3358L63.1437 23.3418L63.2017 23.3348L63.2537 23.3144L64.7117 22.4729L64.7587 22.4075L64.7592 22.6088L64.7131 22.6742L63.2545 23.5157L63.2316 23.5272L63.2125 23.5332L63.2025 23.5352V23.5357V23.5367L63.1865 23.5397L63.1715 23.5417L63.1555 23.5423H63.1455H63.1355L63.1185 23.5413L63.0985 23.5383L63.0885 23.5363L63.0785 23.5343L63.0646 23.5313L63.0295 23.5153L63.0289 23.314L63.0769 23.3327" fill="#22457E"/>
<path fill-rule="evenodd" clip-rule="evenodd" d="M61.7736 22.4543C61.7106 22.4901 61.7106 22.5485 61.7736 22.5847L63.0314 23.3151C63.0934 23.3509 63.1937 23.3514 63.2564 23.3151L64.7144 22.4736C64.7764 22.4373 64.7774 22.379 64.7144 22.3427L63.4566 21.6123C63.3946 21.5765 63.2938 21.5765 63.2316 21.6123L61.7736 22.4543Z" fill="#3467BA"/>
<path fill-rule="evenodd" clip-rule="evenodd" d="M61.6136 17.703L63.032 22.4467C63.085 22.5352 63.3982 22.5275 63.3938 22.34L61.9165 17.5044C61.7597 17.2344 61.6003 17.4609 61.6136 17.703Z" fill="#172742"/>
<path fill-rule="evenodd" clip-rule="evenodd" d="M58.6698 17.0622C59.3947 17.3927 60.5272 17.9009 61.3357 18.0973C61.7575 18.2331 61.977 18.0026 62.1013 17.8195C62.2525 17.5956 62.1634 17.2761 61.8819 17.1496L59.3513 16.1052C58.9751 15.9275 58.5125 15.9759 58.3679 16.2432C58.2524 16.4566 58.1407 16.8202 58.6698 17.0622Z" fill="#3467BA"/>
<path fill-rule="evenodd" clip-rule="evenodd" d="M73.9971 31.6955C74.0601 32.1993 74.226 32.4286 74.2684 32.8043C74.3767 33.7651 74.6159 34.6682 74.7996 35.6345C74.8206 35.7429 74.8276 35.9079 74.7996 36.0558C74.8336 36.7604 74.9399 36.3204 75.6621 36.2313C75.5951 36.0234 75.4245 35.8848 75.4283 35.6631C75.4523 34.4003 75.5845 33.588 75.4283 32.7877C75.293 32.1063 75.2303 31.7241 75.2028 31.426C75.1838 30.475 73.8013 30.5196 73.9965 31.6955" fill="#EEBB66"/>
<path fill-rule="evenodd" clip-rule="evenodd" d="M74.8322 35.798C74.7352 36.7665 74.5594 37.4754 74.2421 37.5112L74.6705 37.8973L75.5752 36.1588C75.5392 35.9432 75.3904 35.7804 75.4272 35.562L74.8322 35.798Z" fill="#EEBB66"/>
<path fill-rule="evenodd" clip-rule="evenodd" d="M74.6934 37.2087C74.8128 36.915 74.9262 36.6455 75.0466 36.4194C75.0996 36.3182 75.1886 35.9866 75.5339 36.002C75.7633 36.2115 75.8139 36.5102 75.7264 36.8413C75.6164 37.2582 75.5917 37.6223 75.5609 38.1041L75.4559 38.1091C75.4559 37.6035 75.5128 37.532 75.3798 37.0233C75.1659 37.1756 75.15 37.5612 75.1132 37.8164C75.0982 37.9187 75.0872 37.9868 74.9553 38.004C74.8288 38.0192 74.6534 38.0375 74.4818 38.028C74.1545 38.01 74.07 37.7916 74.1272 37.6266C74.1702 37.5012 74.2503 37.5078 74.2547 37.5061C74.2687 37.5804 74.3773 37.6128 74.4296 37.5715C74.5006 37.516 74.6341 37.3549 74.6934 37.2091" fill="#100F0D"/>
<path fill-rule="evenodd" clip-rule="evenodd" d="M75.3799 37.0228C75.166 37.1752 75.1501 37.5613 75.1133 37.8159C75.0983 37.9182 75.0872 37.9863 74.9553 38.0036L74.6484 38.0326C74.7074 38.0101 74.8277 37.9474 74.8893 37.8253C74.9553 37.6938 74.9633 37.4975 74.9977 37.3704C75.0757 37.0839 75.1925 36.7781 75.319 36.7528C75.351 36.7458 75.364 36.8194 75.376 36.9854V37.0228" fill="#421417"/>
<path fill-rule="evenodd" clip-rule="evenodd" d="M73.1933 32.4248L74.8124 36.1037C74.8574 36.2049 74.8973 36.3655 74.9043 36.5146C75.0864 37.1966 75.0974 36.7434 75.7843 36.5036C75.6743 36.3149 75.4786 36.2148 75.4357 35.9981C75.191 34.759 75.148 33.9373 74.8235 33.1882C74.5469 32.5513 74.4044 32.191 74.3147 31.905C74.0947 30.9794 72.7528 31.3165 73.1929 32.4248" fill="#FCD797"/>
<path fill-rule="evenodd" clip-rule="evenodd" d="M74.8789 36.2567C74.9894 37.2236 74.9679 37.954 74.6649 38.0558L75.1654 38.3428L75.6808 36.4519C75.5998 36.249 75.4207 36.1214 75.4098 35.9003L74.8789 36.2567Z" fill="#FCD797"/>
<path fill-rule="evenodd" clip-rule="evenodd" d="M75.0417 37.6652C75.0957 37.3523 75.15 37.0652 75.2199 36.8188C75.2509 36.7082 75.2669 36.3656 75.6076 36.3073C75.8766 36.4629 75.9888 36.7451 75.9734 37.0866C75.9544 37.5173 76.0074 37.8786 76.079 38.3559L75.9778 38.383C75.8667 37.8891 75.9108 37.8066 75.6736 37.3375C75.4971 37.5322 75.5626 37.9122 75.5807 38.169C75.5907 38.2719 75.5926 38.3411 75.4662 38.3858C75.3463 38.4285 75.178 38.4825 75.008 38.51C74.6846 38.5618 74.5559 38.366 74.5768 38.1922C74.5928 38.0611 74.6729 38.0502 74.6769 38.0481C74.7059 38.1173 74.8187 38.1267 74.8611 38.0749C74.9191 38.0051 75.0156 37.8198 75.042 37.6652" fill="#23201F"/>
<path fill-rule="evenodd" clip-rule="evenodd" d="M75.6736 37.3374C75.4971 37.5321 75.5626 37.9121 75.5807 38.1689C75.5907 38.2718 75.5926 38.341 75.4662 38.3857L75.1725 38.4792C75.2255 38.4446 75.3292 38.3587 75.3639 38.2251C75.4009 38.0833 75.3639 37.8896 75.3739 37.7582C75.3889 37.4623 75.4389 37.1378 75.557 37.0861C75.587 37.0734 75.615 37.1422 75.6615 37.3022L75.6746 37.3374" fill="#70181F"/>
<path fill-rule="evenodd" clip-rule="evenodd" d="M74.2449 21.7344C74.2719 21.9159 74.4247 22.3141 74.2819 22.7656C74.2709 22.8014 74.0883 22.9372 73.8722 23.1336L75.5782 24.8386L76.0941 23.3415L75.9764 22.6331C75.8185 22.2107 75.2971 22.2712 75.3802 21.8933L74.2445 21.7344" fill="#EEBB66"/>
<path fill-rule="evenodd" clip-rule="evenodd" d="M73.6843 20.5344C73.6843 20.7582 73.6583 21.999 74.0726 22.2471C74.1952 22.3197 74.5324 22.1146 74.7574 21.9232C75.7495 21.0789 73.7058 18.9394 73.6843 20.5344Z" fill="#FCD797"/>
<path fill-rule="evenodd" clip-rule="evenodd" d="M75.5995 27.856C75.2783 28.5853 74.5857 29.996 74.2821 30.7259C74.0181 31.8809 74.9807 31.7923 75.2233 31.1884C75.5494 30.6599 76.2896 29.2304 76.1549 28.9615L75.5995 27.856Z" fill="#EEBB66"/>
<path fill-rule="evenodd" clip-rule="evenodd" d="M74.2634 27.3318L73.7537 28.6435C73.5491 29.414 73.2955 31.0145 73.1084 31.7823C73.0264 32.9643 74.1177 32.9704 74.264 32.3362C74.4114 31.6322 74.5154 31.4788 74.797 30.772C75.6716 28.5759 75.5786 29.7683 75.3195 27.3004L74.2634 27.3317" fill="#FCD797"/>
<path fill-rule="evenodd" clip-rule="evenodd" d="M75.9025 25.5443C75.8885 26.3709 76.5569 26.889 76.7126 27.609C76.8016 28.0198 76.7227 28.3471 76.6167 28.7183C76.4214 29.4284 75.983 29.8442 75.7151 30.4173C75.6771 30.4976 75.7151 30.5443 75.7601 30.5988C75.9191 30.8039 75.7431 31.107 75.473 31.2676C75.2475 31.4007 74.9814 31.3248 74.542 31.481C74.3264 31.5569 73.8368 32.3896 72.9524 31.8209C73.0547 30.5185 73.4534 29.5769 73.9099 28.1892C74.0079 27.8906 74.2807 27.4187 74.2037 27.1052C74.1024 26.6905 73.7098 26.2224 73.5756 25.8242C73.4458 25.4827 73.123 25.0361 73.1884 24.5229C73.2174 24.2985 73.4315 23.6748 73.657 23.4152C73.8342 23.2717 73.9985 22.929 74.3015 22.7783C74.45 22.8514 75.4202 23.2464 75.8938 22.7981C75.9428 22.8404 76.1056 23.1155 76.1216 23.1716C76.363 24.0323 75.928 24.6115 75.9021 25.5443" fill="#204C7A"/>
<path fill-rule="evenodd" clip-rule="evenodd" d="M73.4666 23.72C73.5749 22.7256 74.8723 22.7789 74.7595 23.8932C74.6985 24.4883 74.4714 25.4002 74.3609 26.0322C74.2597 26.6124 73.9759 26.7202 73.7619 26.6548C73.5496 26.5894 73.3736 26.3506 73.4418 25.7401C73.5168 25.068 73.3928 24.3965 73.4668 23.72" fill="#FCD797"/>
<path fill-rule="evenodd" clip-rule="evenodd" d="M73.5221 23.2986C73.5961 22.7508 74.3944 23.0373 74.5237 22.1562C74.5707 21.8334 74.4626 21.0601 74.3058 21.0491C74.2148 21.0421 74.1343 21.1514 74.158 21.5072C74.0111 21.1602 73.8845 21.0529 73.6617 20.7691C73.3427 19.8248 74.5846 19.3281 75.3612 19.5173C76.6752 19.8374 76.6715 21.923 76.3832 22.6254C76.1495 23.1946 75.8608 23.4509 75.4174 23.4625C74.1403 23.495 74.4489 22.8602 73.5221 23.2986Z" fill="#222020"/>
<path fill-rule="evenodd" clip-rule="evenodd" d="M71.3689 25.0471C71.3009 25.3793 71.3788 25.2534 71.2109 25.5504L73.3676 26.5646C73.8725 26.7785 74.1854 26.6141 74.235 26.3589C74.284 26.1103 74.0825 25.7748 73.566 25.6175L71.3689 25.0471Z" fill="#FCD797"/>
<path fill-rule="evenodd" clip-rule="evenodd" d="M70.568 24.771C70.4338 24.7429 70.3639 24.8556 70.1324 24.8226C70.0504 24.8116 69.9663 24.7506 69.8216 24.6989C69.7716 24.8952 69.8216 24.9079 69.9333 25.0883C70.0548 25.2808 70.2011 25.481 70.2457 25.514C70.3197 25.5684 70.469 25.5498 70.6169 25.6053C70.7412 25.6515 70.9921 25.6143 71.2241 25.5718L71.8589 25.7219L72.0002 25.2341L71.3946 25.0405L71.1295 24.7253C70.8529 24.5455 70.7693 24.6087 70.5498 24.4927C70.4968 24.452 70.3617 24.3689 70.3188 24.3546C70.3078 24.3526 70.1715 24.5389 70.4607 24.6709L70.568 24.771" fill="#FCD797"/>
<path fill-rule="evenodd" clip-rule="evenodd" d="M100.932 42.124L101.625 45.8541C101.707 46.1951 101.972 46.5251 102.424 46.7868C103.525 47.4227 105.303 47.4227 106.395 46.7874C106.896 46.4965 107.167 46.1225 107.207 45.7418L107.875 42.1438C107.793 44.4241 100.929 43.1366 100.932 42.1241" fill="#141E2C"/>
<path fill-rule="evenodd" clip-rule="evenodd" d="M106.851 40.7117C105.491 39.9268 103.293 39.9268 101.942 40.7127C100.591 41.4969 100.598 42.7703 101.958 43.5551C102.638 43.9478 103.527 44.1446 104.416 44.1446C105.304 44.1446 106.191 43.9483 106.866 43.5555C108.219 42.7703 108.211 41.4969 106.851 40.7116" fill="#1D3459"/>
<path fill-rule="evenodd" clip-rule="evenodd" d="M106.294 41.0343C105.244 40.4288 103.546 40.4288 102.502 41.0353C101.459 41.6417 101.464 42.6253 102.514 43.2318C103.565 43.8385 105.263 43.8385 106.306 43.2318C107.351 42.6247 107.346 41.6418 106.294 41.034" fill="#1F1411"/>
<path fill-rule="evenodd" clip-rule="evenodd" d="M104.758 32.4846V32.4951V32.5041V32.5147V32.5237V32.5346V32.5426L104.748 32.5552L104.738 32.5668V32.5698L104.723 32.5842L104.712 32.5932L104.702 32.6002L104.689 32.6082L104.676 32.6172L104.642 32.6341L104.631 32.6391L104.604 32.6491L104.594 32.6531L104.576 32.6581L104.562 32.6621L104.543 32.6661L104.529 32.6691L104.489 32.6741L104.477 32.6751L104.453 32.6761H104.438L104.419 32.6768L104.403 32.6761L104.385 32.6751L104.369 32.6741L104.351 32.6721L104.335 32.6701L104.316 32.6671L104.301 32.6641L104.279 32.6591L104.267 32.6561L104.229 32.6434L104.211 32.6354L104.201 32.6314L104.175 32.6177C104.105 32.5775 104.07 32.5246 104.071 32.4718V42.0898C104.071 42.143 104.106 42.1959 104.175 42.2361L104.201 42.2492L104.211 42.2542L104.227 42.2612V42.2618L104.266 42.2745V42.2755L104.276 42.2775L104.298 42.2835L104.308 42.2855L104.318 42.2875L104.337 42.2905L104.347 42.2915L104.357 42.2925L104.375 42.2945L104.385 42.2955L104.395 42.2962L104.413 42.2968H104.423H104.433H104.452H104.462H104.472L104.496 42.2958L104.506 42.2949L104.546 42.2888L104.558 42.2859L104.578 42.2819L104.592 42.2779L104.61 42.2729V42.2719L104.62 42.2689L104.648 42.2585L104.658 42.2535L104.692 42.2367V42.2346L104.702 42.2277L104.715 42.2196L104.725 42.2116L104.735 42.2026V42.2007L104.748 42.1876V42.1845L104.758 42.1765V42.1725L104.768 42.1599V42.1548V42.1519V42.1408V42.1349L104.769 42.1328V42.1219V42.115V42.1129V42.1021V42.0951V42.092V32.4737V32.4846" fill="#3A1D16"/>
<path fill-rule="evenodd" clip-rule="evenodd" d="M104.655 32.3275C104.515 32.2482 104.292 32.2482 104.154 32.3281C104.016 32.4082 104.017 32.5376 104.154 32.6179C104.293 32.6976 104.517 32.6976 104.655 32.6179C104.792 32.5375 104.792 32.4082 104.655 32.3275" fill="#979A9E"/>
<path fill-rule="evenodd" clip-rule="evenodd" d="M104.404 28C106.837 28 108.809 29.7946 108.809 32.0079C108.809 34.2221 106.837 36.0163 104.404 36.0163C101.972 36.0163 100 34.2221 100 32.0079C100 29.7946 101.972 28 104.404 28Z" fill="#54A635"/>
<path fill-rule="evenodd" clip-rule="evenodd" d="M108.788 31.6135C108.801 31.7433 108.809 31.8748 108.809 32.008C108.809 34.2222 106.837 36.0163 104.405 36.0163C101.972 36.0163 100 34.2222 100 32.008C100 31.8748 100.01 31.7433 100.022 31.6135C100.9 32.8065 102.534 33.6084 104.405 33.6084C106.276 33.6084 107.91 32.8065 108.788 31.6135" fill="#3F782F"/>
<path fill-rule="evenodd" clip-rule="evenodd" d="M52.9329 68.1234L53.6252 71.854C53.7072 72.1951 53.9723 72.5245 54.4244 72.7868C55.5255 73.4221 57.3031 73.4221 58.396 72.7875C58.8964 72.4966 59.167 72.1225 59.2072 71.7418L59.8754 68.1438C59.7934 70.4235 52.9301 69.136 52.9329 68.1234Z" fill="#141E2C"/>
<path fill-rule="evenodd" clip-rule="evenodd" d="M58.8509 66.711C57.4913 65.9262 55.294 65.9262 53.9416 66.712C52.5908 67.4975 52.5979 68.7696 53.9576 69.555C54.6385 69.9476 55.5273 70.1439 56.4162 70.1439C57.3039 70.1439 58.1916 69.9482 58.8669 69.5555C60.2194 68.7696 60.2117 67.4968 58.8509 66.7109" fill="#1D3459"/>
<path fill-rule="evenodd" clip-rule="evenodd" d="M58.2942 67.0351C57.2437 66.4284 55.5464 66.4283 54.502 67.0355C53.4586 67.6415 53.4642 68.6255 54.5151 69.2316C55.5661 69.8389 57.264 69.839 58.3073 69.2323C59.3518 68.6255 59.3462 67.6415 58.2942 67.0351Z" fill="#1F1411"/>
<path fill-rule="evenodd" clip-rule="evenodd" d="M56.7581 58.4839V58.4955V58.5045V58.5152V58.5232L56.7481 58.5348V58.5428L56.738 58.5547L56.728 58.5667V58.5688L56.713 58.5836L56.702 58.5927L56.692 58.6006L56.679 58.6086L56.666 58.6176L56.632 58.6349L56.6221 58.6389L56.594 58.6497L56.584 58.6527L56.5651 58.6588L56.552 58.6617L56.532 58.6657L56.5181 58.6688L56.478 58.6738L56.4661 58.6747L56.442 58.6768L56.427 58.6774H56.408L56.392 58.6768L56.374 58.6758L56.3571 58.6747L56.339 58.6728L56.323 58.6707L56.304 58.6678L56.2891 58.6648L56.267 58.6588L56.255 58.6558L56.217 58.6426L56.199 58.6357L56.189 58.6317L56.163 58.6175C56.093 58.5779 56.058 58.5245 56.0585 58.4722L56.058 68.0905C56.0574 68.1434 56.092 68.1956 56.1619 68.2365L56.1879 68.2502L56.1979 68.2542L56.2139 68.2603V68.2609L56.252 68.274V68.275L56.262 68.277L56.2839 68.282L56.294 68.283L56.304 68.284L56.3229 68.287L56.3329 68.288L56.3429 68.289L56.361 68.291L56.3709 68.2916L56.3809 68.2921L56.3989 68.2931L56.4089 68.2937H56.419H56.439L56.4489 68.2931H56.4589L56.4829 68.291L56.4929 68.2905V68.2898L56.533 68.2848V68.2842L56.5449 68.2812L56.5649 68.2772L56.5789 68.2742L56.5969 68.2692V68.2682L56.6069 68.2662L56.6349 68.2559L56.6449 68.2509L56.6779 68.234V68.232L56.6879 68.225L56.7009 68.217L56.7109 68.209L56.7219 68.2V68.198L56.7349 68.1853V68.1823L56.7449 68.1743V68.1703L56.7549 68.1583V68.1533V68.1503V68.1394V68.1324L56.7555 68.1304V68.1198V68.1128L56.7561 68.1108V68.0999L56.7566 68.0929L56.7572 68.0899L56.7578 58.4719V58.4819" fill="#3A1D16"/>
<path fill-rule="evenodd" clip-rule="evenodd" d="M56.6547 58.3278C56.5161 58.2477 56.2916 58.2477 56.1542 58.3278C56.0161 58.4077 56.0172 58.5379 56.1542 58.6172C56.2928 58.698 56.5172 58.698 56.6547 58.6176C56.7927 58.5375 56.7916 58.4077 56.6547 58.3278Z" fill="#979A9E"/>
<path fill-rule="evenodd" clip-rule="evenodd" d="M56.4049 54C58.8371 54 60.8088 55.7939 60.8088 58.0083C60.8088 60.2214 58.8371 62.0162 56.4049 62.0162C53.9723 62.0162 52 60.2214 52 58.0083C52 55.7939 53.9723 54 56.4049 54Z" fill="#54A635"/>
<path fill-rule="evenodd" clip-rule="evenodd" d="M60.788 57.6128C60.802 57.7428 60.809 57.8751 60.809 58.0083C60.809 60.2214 58.8372 62.0162 56.405 62.0162C53.9724 62.0162 52.0001 60.2214 52.0001 58.0083C52.0001 57.8751 52.0101 57.7428 52.0211 57.6128C52.8995 58.8059 54.533 59.6083 56.4047 59.6083C58.2752 59.6083 59.9098 58.8059 60.7876 57.6128" fill="#3F782F"/>
<path fill-rule="evenodd" clip-rule="evenodd" d="M7.93286 42.1234L8.62524 45.854C8.70724 46.1951 8.97234 46.5245 9.42444 46.7868C10.5255 47.4221 12.3031 47.4221 13.396 46.7875C13.8964 46.4966 14.167 46.1225 14.2072 45.7418L14.8754 42.1438C14.7934 44.4235 7.93006 43.136 7.93286 42.1234Z" fill="#141E2C"/>
<path fill-rule="evenodd" clip-rule="evenodd" d="M13.8509 40.711C12.4913 39.9262 10.294 39.9262 8.94157 40.712C7.59077 41.4975 7.59786 42.7696 8.95756 43.555C9.63846 43.9476 10.5273 44.1439 11.4162 44.1439C12.3039 44.1439 13.1916 43.9482 13.8669 43.5555C15.2194 42.7696 15.2117 41.4968 13.8509 40.7109" fill="#1D3459"/>
<path fill-rule="evenodd" clip-rule="evenodd" d="M13.2942 41.0351C12.2437 40.4284 10.5464 40.4283 9.50199 41.0355C8.45859 41.6415 8.46415 42.6255 9.51505 43.2316C10.5661 43.8389 12.264 43.839 13.3073 43.2323C14.3518 42.6255 14.3462 41.6415 13.2942 41.0351Z" fill="#1F1411"/>
<path fill-rule="evenodd" clip-rule="evenodd" d="M11.7581 32.4839V32.4955V32.5045V32.5152V32.5232L11.7481 32.5348V32.5428L11.738 32.5547L11.728 32.5667V32.5688L11.713 32.5836L11.702 32.5927L11.692 32.6006L11.679 32.6086L11.666 32.6176L11.632 32.6349L11.6221 32.6389L11.594 32.6497L11.584 32.6527L11.5651 32.6588L11.552 32.6617L11.532 32.6657L11.5181 32.6688L11.478 32.6738L11.4661 32.6747L11.442 32.6768L11.427 32.6774H11.408L11.392 32.6768L11.374 32.6758L11.3571 32.6747L11.339 32.6728L11.323 32.6707L11.304 32.6678L11.2891 32.6648L11.267 32.6588L11.255 32.6558L11.217 32.6426L11.199 32.6357L11.189 32.6317L11.163 32.6175C11.093 32.5779 11.058 32.5245 11.0585 32.4722L11.058 42.0905C11.0574 42.1434 11.092 42.1956 11.1619 42.2365L11.1879 42.2502L11.1979 42.2542L11.2139 42.2603V42.2609L11.252 42.274V42.275L11.262 42.277L11.2839 42.282L11.294 42.283L11.304 42.284L11.3229 42.287L11.3329 42.288L11.3429 42.289L11.361 42.291L11.3709 42.2916L11.3809 42.2921L11.3989 42.2931L11.4089 42.2937H11.419H11.439L11.4489 42.2931H11.4589L11.4829 42.291L11.4929 42.2905V42.2898L11.533 42.2848V42.2842L11.5449 42.2812L11.5649 42.2772L11.5789 42.2742L11.5969 42.2692V42.2682L11.6069 42.2662L11.6349 42.2559L11.6449 42.2509L11.6779 42.234V42.232L11.6879 42.225L11.7009 42.217L11.7109 42.209L11.7219 42.2V42.198L11.7349 42.1853V42.1823L11.7449 42.1743V42.1703L11.7549 42.1583V42.1533V42.1503V42.1394V42.1324L11.7555 42.1304V42.1198V42.1128L11.7561 42.1108V42.0999L11.7566 42.0929L11.7572 42.0899L11.7578 32.4719V32.4819" fill="#3A1D16"/>
<path fill-rule="evenodd" clip-rule="evenodd" d="M11.6547 32.3278C11.5161 32.2477 11.2916 32.2477 11.1542 32.3278C11.0161 32.4077 11.0172 32.5379 11.1542 32.6172C11.2928 32.698 11.5172 32.698 11.6547 32.6176C11.7927 32.5375 11.7916 32.4077 11.6547 32.3278Z" fill="#979A9E"/>
<path fill-rule="evenodd" clip-rule="evenodd" d="M11.4049 28C13.8371 28 15.8088 29.7939 15.8088 32.0083C15.8088 34.2214 13.8371 36.0162 11.4049 36.0162C8.97231 36.0162 7 34.2214 7 32.0083C7 29.7939 8.97231 28 11.4049 28Z" fill="#54A635"/>
<path fill-rule="evenodd" clip-rule="evenodd" d="M15.788 31.6128C15.802 31.7428 15.809 31.8751 15.809 32.0083C15.809 34.2214 13.8372 36.0162 11.405 36.0162C8.97243 36.0162 7.00012 34.2214 7.00012 32.0083C7.00012 31.8751 7.01012 31.7428 7.02112 31.6128C7.89952 32.8059 9.53296 33.6083 11.4047 33.6083C13.2752 33.6083 14.9098 32.8059 15.7876 31.6128" fill="#3F782F"/>
</g>
   <style>
      .st1 {
         fill: none;
         stroke: #dcdcdc;
         stroke-width: 0.264583px;
         stroke-dasharray: 82;
         stroke-dashoffset: 82;
         -webkit-animation: dash1 3s linear alternate infinite;
         animation: dash1 3s linear alternate infinite;
      }


      .st2 {
         fill: none;
         stroke: #dcdcdc;
         stroke-width: 0.264583px;
         stroke-dasharray: 82;
         stroke-dashoffset: 82;
         -webkit-animation: dash1 3s linear alternate infinite;
         animation: dash1 3s linear alternate infinite;
      }

      @-webkit-keyframes dash1 {
         from {
            stroke-dashoffset: 82;
         }

         to {
            stroke-dashoffset: 0;
         }
      }

      @keyframes dash1 {
         from {
            stroke-dashoffset: 82;
         }

         to {
            stroke-dashoffset: 0;
         }
      }


      #platform {
         /* fill: red; */
         fill-opacity: 1;
         transform-origin: 50% 50%;
         animation-duration: 2s;
         animation-name: pulse;
         animation-iteration-count: infinite;
      }

      @keyframes pulse {
         from {
            stroke-width: 3px;
            stroke-opacity: 1;
            /* transform: scale(0.8); */
         }

         to {
            stroke-width: 0.1;
            stroke-opacity: 0;
            /* transform: scale(0.9); */
         }
      }

      .blob {
         background: black;
         border-radius: 50%;
         margin: 10px;
         height: 20px;
         width: 20px;

         box-shadow: 0 0 0 0 rgba(0, 0, 0, 1);
         transform: scale(1);
         animation: c_pulse 2s infinite;
      }

      @keyframes c_pulse {
         0% {
            transform: scale(0.95);
            box-shadow: 0 0 0 0 rgba(0, 0, 0, 0.7);
         }

         70% {
            transform: scale(1.1);
            box-shadow: 0 0 0 10px rgba(0, 0, 0, 0);
         }

         100% {
            transform: scale(0.95);
            box-shadow: 0 0 0 0 rgba(0, 0, 0, 0);
         }
      }


      .bounce-1 {
         animation-name: bounce-1;
         animation-timing-function: linear;
      }

      @keyframes bounce-1 {
         0% {
            transform: translateY(0);
         }

         50% {
            transform: translateY(100px);
         }

         100% {
            transform: translateY(0px);
         }
      }



      .bounce {
         width: 100px;
         height: 100px;
         border-radius: 50%;
         background-color: #FF5722;
         animation: bounce .1s;
         animation-direction: alternate;
         /* 	animation-timing-function: cubic-bezier(2.5, 2.5, 1, 1.5); */
         animation-timing-function: cubic-bezier(0, .99, 1, .99);
         animation-iteration-count: infinite;
      }

      @keyframes bounce {
         from {
            transform: translate3d(0, 0, 0);
         }

         to {
            transform: translate3d(0, 2px, 0);
         }
      }

      /* Prefix Support */

      .bounce {
         -webkit-animation-name: bounce;
         -webkit-animation-duration: 0.5s;
         -webkit-animation-direction: alternate;
         -webkit-animation-timing-function: cubic-bezier(.5, 0.05, 1, .5);
         -webkit-animation-iteration-count: infinite;
      }

      @-webkit-keyframes bounce {
         from {
            -webkit-transform: translate3d(0, 0, 0);
            transform: translate3d(0, 0, 0);
         }

         to {
            -webkit-transform: translate3d(0, 2px, 0);
            transform: translate3d(0, 2px, 0);
         }
      }
   </style>
</svg>