<svg width="32" height="32" viewBox="0 0 32 32" fill="none" xmlns="http://www.w3.org/2000/svg">
<g clip-path="url(#clip0_603_120)">
<path d="M28 1C29.654 1 31 2.346 31 4V28C31 29.654 29.654 31 28 31H4C2.346 31 1 29.654 1 28V4C1 2.346 2.346 1 4 1H28ZM28 0H4C1.8 0 0 1.8 0 4V28C0 30.2 1.8 32 4 32H28C30.2 32 32 30.2 32 28V4C32 1.8 30.2 0 28 0Z" fill="white"/>
<path d="M25.965 11.6641C25.965 11.6641 25.767 10.1681 25.157 9.50909C24.383 8.64609 23.517 8.64109 23.119 8.59209C20.273 8.37109 16.004 8.37109 16.004 8.37109H15.994C15.994 8.37109 11.725 8.37109 8.87903 8.59209C8.48303 8.64109 7.61703 8.64609 6.84303 9.50909C6.23403 10.1681 6.03503 11.6641 6.03503 11.6641C6.03503 11.6641 5.83203 13.4191 5.83203 15.1751V16.8201C5.83203 18.5771 6.03503 20.3311 6.03503 20.3311C6.03503 20.3311 6.23303 21.8261 6.84303 22.4841C7.61703 23.3471 8.63303 23.3211 9.08503 23.4121C10.712 23.5781 16 23.6291 16 23.6291C16 23.6291 20.274 23.6211 23.12 23.4031C23.517 23.3521 24.384 23.3471 25.158 22.4841C25.767 21.8271 25.966 20.3311 25.966 20.3311C25.966 20.3311 26.169 18.5761 26.169 16.8201V15.1751C26.169 13.4191 25.965 11.6641 25.965 11.6641ZM13.46 19.8151V12.1861L19.818 16.0001L13.46 19.8151Z" fill="white"/>
</g>
<defs>
<clipPath id="clip0_603_120">
<rect width="32" height="32" fill="white"/>
</clipPath>
</defs>
</svg>
