<svg width="32" height="32" viewBox="0 0 32 32" fill="none" xmlns="http://www.w3.org/2000/svg">
<g clip-path="url(#clip0_600_88)">
<path d="M28 1C29.654 1 31 2.346 31 4V28C31 29.654 29.654 31 28 31H4C2.346 31 1 29.654 1 28V4C1 2.346 2.346 1 4 1H28ZM28 0H4C1.8 0 0 1.8 0 4V28C0 30.2 1.8 32 4 32H28C30.2 32 32 30.2 32 28V4C32 1.8 30.2 0 28 0Z" fill="white"/>
<path d="M13.5975 25.2608H17.4245V15.9988H19.9775L20.3155 12.8078H17.4245L17.4285 11.2098C17.4285 10.3778 17.5075 9.93177 18.7015 9.93177H20.2975V6.73877H17.7435C14.6765 6.73877 13.5975 8.28777 13.5975 10.8908V12.8068H11.6855V15.9988H13.5975V25.2608Z" fill="white"/>
</g>
<defs>
<clipPath id="clip0_600_88">
<rect width="32" height="32" fill="white"/>
</clipPath>
</defs>
</svg>
