<svg width="32" height="32" viewBox="0 0 32 32" fill="none" xmlns="http://www.w3.org/2000/svg">
<g clip-path="url(#clip0_603_114)">
<path d="M28 1C29.654 1 31 2.346 31 4V28C31 29.654 29.654 31 28 31H4C2.346 31 1 29.654 1 28V4C1 2.346 2.346 1 4 1H28ZM28 0H4C1.8 0 0 1.8 0 4V28C0 30.2 1.8 32 4 32H28C30.2 32 32 30.2 32 28V4C32 1.8 30.2 0 28 0Z" fill="white"/>
<path d="M22.8698 6.84082H9.1318C7.8388 6.84082 6.8418 7.83782 6.8418 9.13082V22.8688C6.8418 24.1618 7.8388 25.1588 9.1318 25.1588H22.8698C24.1628 25.1588 25.1598 24.1618 25.1598 22.8688V9.13082C25.1598 7.83782 24.1628 6.84082 22.8698 6.84082ZM16.0138 12.4018C18.0458 12.4018 19.6918 13.9968 19.6918 15.9658C19.6918 17.9328 18.0458 19.5298 16.0138 19.5298C13.9838 19.5298 12.3368 17.9328 12.3368 15.9658C12.3378 13.9968 13.9848 12.4018 16.0138 12.4018ZM22.8698 22.2968C22.8698 22.6978 22.6978 22.8688 22.2978 22.8688H9.7038C9.3038 22.8688 9.1318 22.6978 9.1318 22.2968V14.2828L10.5588 14.5928C10.4022 15.1018 10.3227 15.6313 10.3228 16.1638C10.3228 19.2078 12.8728 21.6788 16.0148 21.6788C19.1588 21.6788 21.7068 19.2088 21.7068 16.1638C21.7068 15.6168 21.6238 15.0908 21.4708 14.5928L22.8708 14.2828V22.2968H22.8698ZM22.8698 11.9928C22.8699 12.068 22.8552 12.1424 22.8265 12.2119C22.7978 12.2813 22.7557 12.3444 22.7026 12.3976C22.6494 12.4507 22.5863 12.4928 22.5168 12.5215C22.4474 12.5502 22.373 12.565 22.2978 12.5648H20.0078C19.9326 12.565 19.8582 12.5502 19.7887 12.5215C19.7193 12.4928 19.6562 12.4507 19.603 12.3976C19.5499 12.3444 19.5078 12.2813 19.4791 12.2119C19.4504 12.1424 19.4357 12.068 19.4358 11.9928V9.70282C19.4358 9.38582 19.6918 9.13082 20.0078 9.13082H22.2978C22.6148 9.13082 22.8698 9.38682 22.8698 9.70282V11.9928Z" fill="white"/>
</g>
<defs>
<clipPath id="clip0_603_114">
<rect width="32" height="32" fill="white"/>
</clipPath>
</defs>
</svg>
