<svg width="32" height="32" viewBox="0 0 32 32" fill="none" xmlns="http://www.w3.org/2000/svg">
<g clip-path="url(#clip0_600_108)">
<path d="M28 1C29.654 1 31 2.346 31 4V28C31 29.654 29.654 31 28 31H4C2.346 31 1 29.654 1 28V4C1 2.346 2.346 1 4 1H28ZM28 0H4C1.8 0 0 1.8 0 4V28C0 30.2 1.8 32 4 32H28C30.2 32 32 30.2 32 28V4C32 1.8 30.2 0 28 0Z" fill="white"/>
<path d="M24.2992 23.9211V17.7841C24.2992 14.4961 22.5442 12.9661 20.2032 12.9661C18.3142 12.9661 17.4682 14.0051 16.9972 14.7341V13.2171H13.4392C13.4862 14.2221 13.4392 23.9211 13.4392 23.9211H16.9972V17.9431C16.9972 17.6241 17.0202 17.3041 17.1142 17.0761C17.3712 16.4371 17.9562 15.7751 18.9392 15.7751C20.2272 15.7751 20.7422 16.7561 20.7422 18.1951V23.9221L24.2992 23.9211ZM9.69017 11.7561C10.9302 11.7561 11.7032 10.9331 11.7032 9.90613C11.6802 8.85613 10.9302 8.05713 9.71317 8.05713C8.49617 8.05713 7.70117 8.85613 7.70117 9.90613C7.70117 10.9341 8.47317 11.7561 9.66817 11.7561H9.69017ZM11.4692 23.9211V13.2171H7.91217V23.9211H11.4692Z" fill="white"/>
</g>
<defs>
<clipPath id="clip0_600_108">
<rect width="32" height="32" fill="white"/>
</clipPath>
</defs>
</svg>
