<svg width="745" height="757" viewBox="0 0 745 757" fill="none" xmlns="http://www.w3.org/2000/svg">
<g opacity="0.15">
<path opacity="0.0909" d="M269.933 482.776L363.702 446.711C368.987 443.664 375.628 442.021 382.294 442.093C385.174 442.116 387.888 442.497 390.411 443.14C392.792 443.735 395.577 444.902 397.529 446.02L466.874 486.656C466.945 486.704 468.897 487.846 468.945 487.894C474.444 491.179 476.944 496.321 476.634 501.868C476.325 507.533 472.04 513.842 465.898 517.389L408.218 572.426C403.028 575.426 396.553 577.068 389.983 577.068C384.27 577.068 379.056 575.83 374.962 573.474L268.1 511.413C262.72 508.295 259.649 503.415 259.673 498.011C259.744 492.06 263.458 486.513 269.933 482.776V482.776Z" fill="#9FA5D0"/>
<path opacity="0.1818" d="M270.361 483.467L364.13 447.402C369.391 444.355 376.057 442.784 382.651 442.903C385.507 442.974 388.197 443.427 390.697 444.069C392.839 444.641 395.982 446.022 397.719 447.021L466.683 487.443C466.802 487.514 468.635 488.585 468.731 488.681C474.111 492.013 475.896 497.131 475.277 502.583C474.706 507.653 469.992 514.485 464.446 517.675L407.837 571.713C402.79 574.641 396.434 576.236 390.054 576.236C384.484 576.236 379.389 575.046 375.39 572.737L268.528 510.677C263.363 507.701 260.482 503.059 260.53 497.917C260.577 492.323 264.124 487.062 270.361 483.467Z" fill="#8F95BB"/>
<path opacity="0.2727" d="M270.767 484.181L364.536 448.116C369.773 445.093 376.462 443.546 382.961 443.76C385.818 443.855 388.484 444.379 390.912 445.045C392.816 445.569 396.316 447.188 397.863 448.069L466.446 488.252C466.636 488.371 468.327 489.371 468.469 489.49C473.73 492.87 474.802 497.893 473.897 503.321C473.135 507.796 467.898 515.128 462.994 517.961L407.433 570.975C402.505 573.832 396.316 575.379 390.103 575.403C384.675 575.427 379.7 574.26 375.819 572.023L268.958 509.962C264.006 507.106 261.292 502.702 261.364 497.869C261.435 492.608 264.815 487.609 270.767 484.181V484.181Z" fill="#7F84A7"/>
<path opacity="0.3636" d="M271.172 484.895L364.941 448.83C370.154 445.831 376.867 444.331 383.295 444.593C386.127 444.712 388.77 445.307 391.174 445.997C392.84 446.473 396.673 448.33 398.03 449.116L466.232 489.085C466.494 489.228 468.041 490.18 468.232 490.346C473.374 493.798 474.921 499.059 472.517 504.082C472.517 508.058 465.804 515.818 461.519 518.294L407.028 570.308C402.22 573.094 396.173 574.593 390.151 574.617C384.866 574.641 380.009 573.522 376.224 571.356L269.363 509.295C264.649 506.582 262.078 502.416 262.173 497.845C262.269 492.87 265.482 488.156 271.172 484.895Z" fill="#6F7492"/>
<path opacity="0.4545" d="M271.574 485.584L365.343 449.519C370.533 446.52 377.27 445.068 383.602 445.425C386.435 445.591 389.029 446.234 391.41 446.972C392.814 447.401 397.028 449.495 398.194 450.162L466.016 489.893C466.349 490.083 467.753 490.94 467.991 491.155C473.014 494.654 474.133 499.963 471.134 504.819C471.134 508.223 463.706 516.46 460.04 518.602L406.598 569.593C401.908 572.307 396.028 573.759 390.148 573.806C385.006 573.83 380.245 572.759 376.579 570.64L269.717 508.58C265.218 505.985 262.838 502.057 262.933 497.796C263.1 493.154 266.17 488.703 271.574 485.584V485.584Z" fill="#5F637D"/>
<path opacity="0.5455" d="M271.979 486.298L365.748 450.233C370.913 447.257 377.65 445.853 383.935 446.257C386.744 446.448 389.315 447.186 391.672 447.924C392.838 448.305 397.385 450.638 398.361 451.209L465.801 490.726C466.182 490.94 467.468 491.749 467.777 492.011C472.681 495.558 473.395 500.914 469.777 505.58C469.777 508.413 461.659 517.149 458.588 518.911L406.217 568.902C401.646 571.544 395.909 572.949 390.219 572.997C385.244 573.02 380.578 571.997 377.031 569.949L270.17 507.889C265.908 505.413 263.671 501.747 263.814 497.748C263.956 493.416 266.837 489.274 271.979 486.298V486.298Z" fill="#505368"/>
<path opacity="0.6364" d="M272.386 487.014L366.155 450.949C371.297 447.973 378.058 446.64 384.247 447.093C387.056 447.307 389.579 448.116 391.912 448.878C392.841 449.187 397.745 451.782 398.53 452.235L465.613 491.537C466.066 491.799 467.208 492.513 467.565 492.822C472.35 496.417 472.636 501.821 468.446 506.32C468.446 508.582 459.614 517.794 457.163 519.222L405.838 568.19C401.411 570.761 395.793 572.118 390.294 572.165C385.461 572.213 380.914 571.213 377.463 569.213L270.601 507.153C266.554 504.82 264.483 501.369 264.649 497.679C264.792 493.679 267.53 489.823 272.386 487.014V487.014Z" fill="#404253"/>
<path opacity="0.7273" d="M272.788 487.704L366.557 451.639C371.675 448.688 378.46 447.378 384.578 447.926C387.363 448.188 389.862 449.045 392.148 449.83C392.838 450.068 398.099 452.925 398.67 453.258L465.373 492.323C465.896 492.632 466.92 493.275 467.301 493.632C471.967 497.274 471.848 502.725 467.039 507.034C467.039 508.748 457.493 518.413 455.66 519.484L405.407 567.452C401.099 569.951 395.647 571.285 390.315 571.332C385.625 571.38 381.197 570.428 377.841 568.499L270.979 506.439C267.146 504.225 265.242 501.035 265.432 497.607C265.623 493.965 268.194 490.371 272.788 487.704Z" fill="#30323E"/>
<path opacity="0.8182" d="M273.193 488.417L366.962 452.352C372.056 449.4 378.864 448.162 384.887 448.757C387.672 449.043 390.124 449.972 392.386 450.805C392.838 450.971 398.432 454.09 398.813 454.328L465.134 493.178C465.706 493.511 466.61 494.107 467.039 494.487C471.586 498.177 471.038 503.652 465.634 507.818C465.634 508.961 455.374 519.126 454.16 519.84L404.979 566.784C400.789 569.212 395.48 570.498 390.338 570.545C385.792 570.593 381.483 569.688 378.245 567.831L271.384 505.771C267.789 503.7 266.051 500.724 266.242 497.582C266.48 494.226 268.86 490.917 273.193 488.417V488.417Z" fill="#20212A"/>
<path opacity="0.9091" d="M273.623 489.132L367.392 453.067C372.462 450.139 379.27 448.925 385.222 449.616C387.983 449.925 390.411 450.925 392.649 451.782C392.887 451.877 398.815 455.257 399.005 455.376L464.946 494.012C465.588 494.393 466.35 494.893 466.826 495.322C471.254 499.059 470.302 504.582 464.279 508.581C464.279 509.153 453.329 519.793 452.71 520.151L404.575 566.095C400.505 568.451 395.363 569.689 390.387 569.761C385.983 569.808 381.794 568.951 378.651 567.142L271.79 505.082C268.409 503.13 266.838 500.416 267.052 497.559C267.314 494.512 269.552 491.465 273.623 489.132V489.132Z" fill="#101115"/>
<path opacity="0.15" d="M379.078 566.379L272.217 504.319C265.789 500.606 266.599 494.107 274.026 489.822L367.795 453.757C375.222 449.472 386.458 448.996 392.909 452.709L464.73 494.797C471.157 498.511 470.348 505.01 462.921 509.295L404.193 565.356C396.742 569.641 385.506 570.093 379.078 566.379Z" fill="black"/>
</g>
<path d="M379.079 566.237L272.217 504.176C269.361 502.51 267.909 500.32 267.885 497.987V489.917C267.932 487.108 270.027 491.988 274.027 489.68L367.795 453.615C375.223 449.33 386.459 448.854 392.91 452.567L464.73 494.655C466.873 495.893 468.444 490.632 468.991 492.298C469.182 492.846 469.063 500.249 469.063 500.82C469.135 503.701 467.04 506.772 462.922 509.152L404.194 565.214C396.743 569.475 385.507 569.951 379.08 566.237L379.079 566.237Z" fill="url(#paint0_linear_222_1098)"/>
<path d="M379.079 558.31L272.218 496.249C265.79 492.536 266.6 486.037 274.027 481.752L367.796 445.687C375.223 441.402 386.459 440.926 392.91 444.639L464.731 486.727C471.158 490.441 470.349 496.94 462.921 501.224L404.194 557.286C396.743 561.571 385.507 562.023 379.079 558.31V558.31Z" fill="url(#paint1_linear_222_1098)"/>
<path d="M464.73 486.728L392.91 444.641C386.483 440.927 375.223 441.38 367.795 445.688L320.542 463.852C320.995 464.209 321.47 464.542 322.018 464.875L428.88 526.936C430.356 527.792 432.093 528.411 433.998 528.84L462.921 501.226C470.348 496.917 471.158 490.442 464.73 486.728Z" fill="url(#paint2_linear_222_1098)"/>
<path d="M462.921 499.87L404.194 555.932C396.767 560.217 385.531 560.693 379.079 556.979L272.218 494.919C269.551 493.372 268.147 491.348 267.933 489.206C267.599 491.824 269.004 494.395 272.218 496.252L379.079 558.788C385.507 562.502 396.767 562.026 404.194 557.741L462.921 501.203C467.278 498.704 469.325 495.443 469.016 492.419C468.683 495.038 466.635 497.728 462.921 499.87Z" fill="white"/>
<path d="M720.732 347.49H543.359V371.819C543.359 400.338 583.066 423.453 632.034 423.453C681.025 423.453 720.708 400.338 720.708 371.819C720.735 371.581 720.735 347.49 720.735 347.49H720.732Z" fill="url(#paint3_linear_222_1098)"/>
<path d="M631.589 399.009C680.562 399.009 720.263 375.892 720.263 347.375C720.263 318.859 680.562 295.742 631.589 295.742C582.615 295.742 542.914 318.859 542.914 347.375C542.914 375.892 582.615 399.009 631.589 399.009Z" fill="url(#paint4_linear_222_1098)"/>
<path d="M744.428 382.144C744.428 399.851 732.099 415.974 711.963 427.699C691.84 439.416 664.008 446.679 633.238 446.679C602.467 446.679 574.635 439.416 554.512 427.699C534.377 415.974 522.047 399.851 522.047 382.144C522.047 364.437 534.377 348.313 554.512 336.589C574.635 324.872 602.467 317.608 633.238 317.608C664.008 317.608 691.84 324.872 711.963 336.589C732.099 348.313 744.428 364.437 744.428 382.144Z" stroke="#C2C2C2"/>
<path d="M632.057 399.291C583.613 399.291 544.263 376.676 543.406 348.562C543.406 348.872 543.361 349.181 543.361 349.491C543.361 378.009 583.069 401.124 632.036 401.124C681.027 401.124 720.71 378.009 720.71 349.491C720.71 349.181 720.684 348.872 720.666 348.562C719.856 376.676 680.506 399.291 632.062 399.291H632.057Z" fill="white"/>
<path d="M121.817 672.814L697.285 340.398L647.103 313.665L73.4683 645.081L121.817 672.814Z" fill="#AFB6E5"/>
<path d="M121.817 665.72L697.285 333.279L647.103 306.546L73.4683 637.963L121.817 665.72Z" fill="url(#paint5_linear_222_1098)"/>
<path opacity="0.95" d="M99.9399 630.869L647.246 314.688L682.645 333.542L119.913 658.602L99.9399 630.869Z" fill="#32D681"/>
<path opacity="0.95" d="M719.328 322.139H545.145V346.04C545.145 374.058 584.138 396.769 632.248 396.769C680.358 396.769 719.351 374.058 719.351 346.04C719.324 345.802 719.324 322.139 719.324 322.139H719.328Z" fill="#3CD787"/>
<path d="M720.732 316.544H543.359V340.873C543.359 369.392 583.066 392.507 632.034 392.507C681.025 392.507 720.708 369.392 720.708 340.873C720.735 340.635 720.735 316.544 720.735 316.544H720.732Z" fill="url(#paint6_linear_222_1098)"/>
<path d="M632.057 368.535C681.031 368.535 720.731 345.418 720.731 316.902C720.731 288.385 681.031 265.268 632.057 265.268C583.083 265.268 543.382 288.385 543.382 316.902C543.382 345.418 583.083 368.535 632.057 368.535Z" fill="url(#paint7_linear_222_1098)"/>
<path d="M632.057 368.345C583.613 368.345 544.263 345.73 543.406 317.616C543.406 317.926 543.361 318.235 543.361 318.545C543.361 347.063 583.069 370.178 632.036 370.178C681.027 370.178 720.71 347.063 720.71 318.545C720.71 318.235 720.684 317.926 720.666 317.616C719.856 345.707 680.506 368.345 632.062 368.345H632.057Z" fill="white"/>
<path d="M632.058 353.824C665.176 353.824 692.024 338.189 692.024 318.902C692.024 299.614 665.176 283.979 632.058 283.979C598.94 283.979 572.093 299.614 572.093 318.902C572.093 338.189 598.94 353.824 632.058 353.824Z" fill="url(#paint8_linear_222_1098)"/>
<path d="M632.058 353.824C665.176 353.824 692.024 338.189 692.024 318.902C692.024 299.614 665.176 283.979 632.058 283.979C598.94 283.979 572.093 299.614 572.093 318.902C572.093 338.189 598.94 353.824 632.058 353.824Z" fill="#22B467"/>
<path d="M632.058 287.81C664.076 287.81 690.143 302.427 691.857 320.828C691.929 320.185 692.024 319.566 692.024 318.924C692.024 299.641 665.171 284.001 632.058 284.001C598.945 284.001 572.093 299.641 572.093 318.924C572.093 319.567 572.188 320.185 572.259 320.828C573.973 302.427 600.04 287.81 632.058 287.81H632.058Z" fill="white"/>
<path d="M201.467 651.198H24.0942V675.527C24.0942 704.046 63.8013 727.161 112.769 727.161C161.76 727.161 201.443 704.046 201.443 675.527C201.467 675.289 201.467 651.198 201.467 651.198H201.467Z" fill="url(#paint9_linear_222_1098)"/>
<path d="M112.955 703.187C161.929 703.187 201.63 680.069 201.63 651.553C201.63 623.037 161.929 599.919 112.955 599.919C63.9817 599.919 24.2808 623.037 24.2808 651.553C24.2808 680.069 63.9817 703.187 112.955 703.187Z" fill="url(#paint10_linear_222_1098)"/>
<path d="M222.881 688.079C222.881 705.786 210.552 721.91 190.416 733.634C170.293 745.352 142.461 752.615 111.691 752.615C80.9206 752.615 53.088 745.352 32.965 733.634C12.8296 721.91 0.5 705.786 0.5 688.079C0.5 670.372 12.8296 654.249 32.965 642.524C53.088 630.807 80.9206 623.544 111.691 623.544C142.461 623.544 170.293 630.807 190.416 642.524C210.552 654.249 222.881 670.372 222.881 688.079Z" stroke="#C2C2C2"/>
<path d="M112.77 702.999C64.3265 702.999 24.9764 680.384 24.1194 652.27C24.1194 652.579 24.0718 652.889 24.0718 653.198C24.0718 681.717 63.7789 704.832 112.746 704.832C161.737 704.832 201.421 681.717 201.421 653.198C201.421 652.889 201.398 652.579 201.373 652.27C200.588 680.36 161.238 702.999 112.77 702.999H112.77Z" fill="white"/>
<path d="M200.063 625.844H25.8804V649.745C25.8804 677.763 64.8734 700.474 112.984 700.474C161.094 700.474 200.087 677.763 200.087 649.745C200.064 649.506 200.064 625.844 200.064 625.844H200.063Z" fill="#3CD887"/>
<path d="M201.467 620.252H24.0942V644.581C24.0942 673.1 63.8013 696.214 112.769 696.214C161.76 696.214 201.443 673.1 201.443 644.581C201.467 644.343 201.467 620.252 201.467 620.252H201.467Z" fill="url(#paint11_linear_222_1098)"/>
<path d="M112.769 672.241C161.742 672.241 201.443 649.124 201.443 620.608C201.443 592.091 161.742 568.974 112.769 568.974C63.7952 568.974 24.0942 592.091 24.0942 620.608C24.0942 649.124 63.7952 672.241 112.769 672.241Z" fill="url(#paint12_linear_222_1098)"/>
<path d="M112.77 672.026C64.3265 672.026 24.9764 649.411 24.1194 621.297C24.1194 621.607 24.0718 621.916 24.0718 622.226C24.0718 650.744 63.7789 673.859 112.746 673.859C161.737 673.859 201.421 650.744 201.421 622.226C201.421 621.916 201.398 621.607 201.373 621.297C200.588 649.411 161.238 672.026 112.77 672.026H112.77Z" fill="white"/>
<path d="M112.77 657.529C145.888 657.529 172.735 641.894 172.735 622.607C172.735 603.32 145.888 587.685 112.77 587.685C79.6517 587.685 52.8042 603.32 52.8042 622.607C52.8042 641.894 79.6517 657.529 112.77 657.529Z" fill="url(#paint13_linear_222_1098)"/>
<path d="M112.77 657.529C145.888 657.529 172.735 641.894 172.735 622.607C172.735 603.32 145.888 587.685 112.77 587.685C79.6517 587.685 52.8042 603.32 52.8042 622.607C52.8042 641.894 79.6517 657.529 112.77 657.529Z" fill="#22B467"/>
<path d="M112.77 591.494C144.788 591.494 170.855 606.11 172.568 624.512C172.616 623.869 172.735 623.25 172.735 622.607C172.735 603.325 145.883 587.685 112.77 587.685C79.6565 587.685 52.8042 603.325 52.8042 622.607C52.8042 623.25 52.8994 623.869 52.9709 624.512C54.6848 606.134 80.7754 591.494 112.77 591.494V591.494Z" fill="white"/>
<path d="M201.063 354.489H23.6899V378.818C23.6899 407.336 63.3971 430.451 112.365 430.451C161.356 430.451 201.039 407.336 201.039 378.818C201.062 378.58 201.062 354.489 201.062 354.489H201.063Z" fill="url(#paint14_linear_222_1098)"/>
<path d="M112.365 406.779C161.338 406.779 201.039 383.661 201.039 355.145C201.039 326.629 161.338 303.511 112.365 303.511C63.3909 303.511 23.6899 326.629 23.6899 355.145C23.6899 383.661 63.3909 406.779 112.365 406.779Z" fill="url(#paint15_linear_222_1098)"/>
<path d="M222.881 386.029C222.881 403.736 210.552 419.859 190.416 431.584C170.293 443.301 142.461 450.564 111.691 450.564C80.9206 450.564 53.088 443.301 32.965 431.584C12.8296 419.859 0.5 403.736 0.5 386.029C0.5 368.322 12.8296 352.198 32.965 340.474C53.088 328.757 80.9206 321.493 111.691 321.493C142.461 321.493 170.293 328.757 190.416 340.474C210.552 352.198 222.881 368.322 222.881 386.029Z" stroke="#C2C2C2"/>
<path d="M112.364 406.266C63.9208 406.266 24.5707 383.651 23.7137 355.537C23.7137 355.846 23.666 356.156 23.666 356.465C23.666 384.984 63.3732 408.099 112.341 408.099C161.332 408.099 201.015 384.984 201.015 356.465C201.015 356.156 200.992 355.846 200.967 355.537C200.158 383.651 160.808 406.266 112.364 406.266H112.364Z" fill="white"/>
<path d="M633.913 679.789L58.4453 347.372L108.627 320.639L682.262 652.056L633.913 679.789Z" fill="#AFB6E5"/>
<path d="M633.913 672.695L58.4453 340.279L108.627 313.521L682.262 644.962L633.913 672.695Z" fill="url(#paint16_linear_222_1098)"/>
<path opacity="0.95" d="M655.79 637.843L108.484 321.662L73.0854 340.516L635.818 665.577L655.79 637.843Z" fill="#28D57A"/>
<path opacity="0.95" d="M199.659 329.114H25.4761V353.014C25.4761 381.033 64.4691 403.743 112.579 403.743C160.69 403.743 199.683 381.033 199.683 353.014C199.66 352.776 199.66 329.114 199.66 329.114H199.659Z" fill="#32D681"/>
<path d="M201.063 323.519H23.6899V347.848C23.6899 376.366 63.3971 399.481 112.365 399.481C161.356 399.481 201.039 376.366 201.039 347.848C201.062 347.609 201.062 323.519 201.062 323.519H201.063Z" fill="url(#paint17_linear_222_1098)"/>
<path d="M112.365 375.51C161.338 375.51 201.039 352.393 201.039 323.876C201.039 295.36 161.338 272.243 112.365 272.243C63.3909 272.243 23.6899 295.36 23.6899 323.876C23.6899 352.393 63.3909 375.51 112.365 375.51Z" fill="url(#paint18_linear_222_1098)"/>
<path d="M112.364 375.319C63.9208 375.319 24.5707 352.704 23.7137 324.59C23.7137 324.9 23.666 325.209 23.666 325.519C23.666 354.037 63.3732 377.152 112.341 377.152C161.332 377.152 201.015 354.037 201.015 325.519C201.015 325.209 200.992 324.9 200.967 324.59C200.158 352.681 160.808 375.319 112.364 375.319H112.364Z" fill="white"/>
<path d="M112.365 360.823C145.483 360.823 172.331 345.187 172.331 325.9C172.331 306.613 145.483 290.978 112.365 290.978C79.2474 290.978 52.3999 306.613 52.3999 325.9C52.3999 345.187 79.2474 360.823 112.365 360.823Z" fill="url(#paint19_linear_222_1098)"/>
<path d="M112.365 360.823C145.483 360.823 172.331 345.187 172.331 325.9C172.331 306.613 145.483 290.978 112.365 290.978C79.2474 290.978 52.3999 306.613 52.3999 325.9C52.3999 345.187 79.2474 360.823 112.365 360.823Z" fill="#22B467"/>
<path d="M112.365 294.787C144.383 294.787 170.45 309.403 172.164 327.805C172.212 327.162 172.331 326.543 172.331 325.9C172.331 306.618 145.478 290.978 112.365 290.978C79.2522 290.978 52.3999 306.618 52.3999 325.9C52.3999 326.543 52.4951 327.162 52.5666 327.805C54.2806 309.403 80.3711 294.787 112.365 294.787V294.787Z" fill="white"/>
<path d="M720.707 658.174H543.334V682.503C543.334 711.022 583.042 734.137 632.009 734.137C681 734.137 720.684 711.022 720.684 682.503C720.711 682.289 720.711 658.174 720.711 658.174H720.707Z" fill="url(#paint20_linear_222_1098)"/>
<path d="M741.515 691.965C741.515 709.672 729.185 725.795 709.05 737.52C688.927 749.237 661.094 756.5 630.324 756.5C599.554 756.5 571.721 749.237 551.598 737.52C531.463 725.795 519.133 709.672 519.133 691.965C519.133 674.258 531.463 658.134 551.598 646.41C571.721 634.692 599.554 627.429 630.324 627.429C661.094 627.429 688.927 634.692 709.05 646.41C729.185 658.134 741.515 674.258 741.515 691.965Z" stroke="#C2C2C2"/>
<path d="M632.033 709.8C681.007 709.8 720.708 686.683 720.708 658.167C720.708 629.65 681.007 606.533 632.033 606.533C583.06 606.533 543.359 629.65 543.359 658.167C543.359 686.683 583.06 709.8 632.033 709.8Z" fill="url(#paint21_linear_222_1098)"/>
<path d="M632.035 709.976C583.591 709.976 544.241 687.361 543.384 659.247C543.384 659.556 543.339 659.866 543.339 660.175C543.339 688.694 583.046 711.809 632.013 711.809C681.005 711.809 720.688 688.694 720.688 660.175C720.688 659.865 720.661 659.556 720.643 659.247C719.833 687.361 680.484 709.976 632.04 709.976H632.035Z" fill="white"/>
<path opacity="0.95" d="M719.303 632.821H545.12V656.721C545.12 684.74 584.113 707.45 632.224 707.45C680.334 707.45 719.327 684.74 719.327 656.721C719.3 656.484 719.3 632.821 719.3 632.821H719.303Z" fill="#3CD787"/>
<path d="M720.707 627.228H543.334V651.557C543.334 680.076 583.042 703.191 632.009 703.191C681 703.191 720.684 680.076 720.684 651.557C720.711 651.319 720.711 627.228 720.711 627.228H720.707Z" fill="url(#paint22_linear_222_1098)"/>
<path d="M632.033 679.218C681.007 679.218 720.708 656.101 720.708 627.584C720.708 599.068 681.007 575.95 632.033 575.95C583.06 575.95 543.359 599.068 543.359 627.584C543.359 656.101 583.06 679.218 632.033 679.218Z" fill="url(#paint23_linear_222_1098)"/>
<path d="M632.035 679.025C583.591 679.025 544.241 656.41 543.384 628.296C543.384 628.605 543.339 628.915 543.339 629.224C543.339 657.743 583.046 680.858 632.013 680.858C681.005 680.858 720.688 657.743 720.688 629.224C720.688 628.915 720.661 628.605 720.643 628.296C719.833 656.386 680.484 679.025 632.04 679.025H632.035Z" fill="white"/>
<path d="M632.034 664.506C665.152 664.506 692 648.87 692 629.583C692 610.296 665.152 594.661 632.034 594.661C598.916 594.661 572.069 610.296 572.069 629.583C572.069 648.87 598.916 664.506 632.034 664.506Z" fill="url(#paint24_linear_222_1098)"/>
<path d="M632.034 664.506C665.152 664.506 692 648.87 692 629.583C692 610.296 665.152 594.661 632.034 594.661C598.916 594.661 572.069 610.296 572.069 629.583C572.069 648.87 598.916 664.506 632.034 664.506Z" fill="#22B467"/>
<path d="M632.034 598.492C664.053 598.492 690.119 613.108 691.833 631.51C691.878 630.867 692 630.248 692 629.605C692 610.323 665.147 594.683 632.034 594.683C598.921 594.683 572.069 610.323 572.069 629.605C572.069 630.248 572.164 630.867 572.235 631.51C573.949 613.108 600.016 598.492 632.034 598.492H632.034Z" fill="white"/>
<path opacity="0.2" d="M51.2578 326.065C51.2578 345.61 78.4672 361.464 112.033 361.464C145.598 361.464 172.807 345.61 172.807 326.065V97.4398C172.688 -21.9911 51.3769 -22.0149 51.2816 97.416C51.2578 98.7968 51.2578 324.685 51.2578 326.065V326.065Z" fill="url(#paint25_linear_222_1098)"/>
<path opacity="0.2" d="M51.2578 621.465C51.2578 641.009 78.4672 656.864 112.033 656.864C145.598 656.864 172.807 641.009 172.807 621.465V392.839C172.688 273.409 51.3769 273.385 51.2816 392.816C51.2578 394.196 51.2578 620.084 51.2578 621.465V621.465Z" fill="url(#paint26_linear_222_1098)"/>
<path opacity="0.2" d="M570.234 318.211C570.234 337.755 597.444 353.609 631.009 353.609C664.575 353.609 691.784 337.755 691.784 318.211V89.5851C691.665 -29.8458 570.353 -29.8696 570.258 89.5613C570.234 90.942 570.234 316.806 570.234 318.211Z" fill="url(#paint27_linear_222_1098)"/>
<path opacity="0.2" d="M570.234 630.63C570.234 650.174 597.444 666.005 631.009 666.005C664.575 666.005 691.784 650.15 691.784 630.63V402.005C691.665 282.574 570.353 282.55 570.258 401.981C570.234 403.361 570.234 629.226 570.234 630.63Z" fill="url(#paint28_linear_222_1098)"/>
<g opacity="0.15">
<path opacity="0.0909" d="M269.933 465.757L363.702 429.692C368.987 426.645 375.628 425.002 382.294 425.074C385.174 425.097 387.888 425.478 390.411 426.121C392.792 426.716 395.577 427.883 397.529 429.001L466.874 469.637C466.945 469.685 468.897 470.827 468.945 470.875C474.444 474.16 476.944 479.302 476.634 484.849C476.325 490.514 472.04 496.823 465.898 500.37L408.218 555.407C403.028 558.407 396.553 560.049 389.983 560.049C384.27 560.049 379.056 558.811 374.962 556.455L268.1 494.394C262.72 491.276 259.649 486.396 259.673 480.992C259.744 475.041 263.458 469.494 269.933 465.757Z" fill="#9FA5D0"/>
<path opacity="0.1818" d="M270.361 466.448L364.13 430.383C369.391 427.336 376.057 425.765 382.651 425.884C385.507 425.955 388.197 426.408 390.697 427.05C392.839 427.622 395.982 429.002 397.719 430.002L466.683 470.424C466.802 470.495 468.635 471.566 468.731 471.661C474.111 474.994 475.896 480.112 475.277 485.564C474.706 490.634 469.992 497.466 464.446 500.656L407.837 554.694C402.79 557.622 396.434 559.217 390.054 559.217C384.484 559.217 379.389 558.027 375.39 555.718L268.528 493.658C263.363 490.682 260.482 486.04 260.53 480.898C260.577 475.304 264.124 470.043 270.361 466.448V466.448Z" fill="#8F95BB"/>
<path opacity="0.2727" d="M270.767 467.162L364.536 431.097C369.773 428.074 376.462 426.527 382.961 426.741C385.818 426.836 388.484 427.36 390.912 428.026C392.816 428.55 396.316 430.169 397.863 431.05L466.446 471.233C466.636 471.352 468.327 472.352 468.469 472.471C473.73 475.851 474.802 480.874 473.897 486.302C473.135 490.777 467.898 498.109 462.994 500.942L407.433 553.956C402.505 556.813 396.316 558.36 390.103 558.384C384.675 558.408 379.7 557.241 375.819 555.003L268.958 492.943C264.006 490.087 261.292 485.683 261.364 480.85C261.435 475.589 264.815 470.59 270.767 467.162V467.162Z" fill="#7F84A7"/>
<path opacity="0.3636" d="M271.172 467.876L364.941 431.811C370.154 428.812 376.867 427.312 383.295 427.574C386.127 427.693 388.77 428.288 391.174 428.978C392.84 429.454 396.673 431.311 398.03 432.097L466.232 472.066C466.494 472.209 468.041 473.161 468.232 473.327C473.374 476.779 474.921 482.064 472.517 487.063C472.517 491.039 465.804 498.799 461.519 501.275L407.028 553.289C402.22 556.074 396.173 557.574 390.151 557.598C384.866 557.622 380.009 556.503 376.224 554.337L269.363 492.276C264.649 489.563 262.078 485.397 262.173 480.826C262.269 475.851 265.482 471.137 271.172 467.876Z" fill="#6F7492"/>
<path opacity="0.4545" d="M271.575 468.565L365.344 432.5C370.533 429.501 377.27 428.049 383.602 428.406C386.435 428.572 389.03 429.215 391.41 429.953C392.815 430.382 397.029 432.476 398.195 433.143L466.016 472.874C466.349 473.064 467.754 473.921 467.992 474.136C473.015 477.635 474.134 482.943 471.134 487.8C471.134 491.204 463.707 499.441 460.041 501.559L406.622 552.574C401.932 555.288 396.053 556.74 390.173 556.787C385.031 556.811 380.27 555.74 376.604 553.621L269.742 491.561C265.243 488.966 262.862 485.038 262.957 480.777C263.1 476.135 266.171 471.707 271.575 468.565Z" fill="#5F637D"/>
<path opacity="0.5455" d="M271.979 469.279L365.748 433.214C370.913 430.238 377.65 428.834 383.935 429.238C386.744 429.429 389.315 430.167 391.672 430.905C392.838 431.286 397.385 433.619 398.361 434.19L465.801 473.707C466.182 473.921 467.468 474.73 467.777 474.992C472.681 478.539 473.395 483.895 469.777 488.561C469.777 491.394 461.659 500.13 458.588 501.892L406.217 551.883C401.646 554.525 395.909 555.93 390.219 555.978C385.244 556.001 380.578 554.978 377.031 552.93L270.17 490.87C265.908 488.394 263.671 484.728 263.814 480.729C263.956 476.397 266.837 472.254 271.979 469.279V469.279Z" fill="#505368"/>
<path opacity="0.6364" d="M272.386 469.995L366.155 433.93C371.297 430.954 378.057 429.621 384.247 430.074C387.056 430.288 389.579 431.097 391.912 431.859C392.84 432.168 397.744 434.763 398.53 435.215L465.613 474.518C466.065 474.78 467.208 475.494 467.565 475.803C472.35 479.398 472.635 484.802 468.446 489.301C468.446 491.563 459.614 500.775 457.162 502.203L405.838 551.171C401.41 553.742 395.792 555.099 390.293 555.146C385.461 555.194 380.914 554.194 377.462 552.194L270.6 490.134C266.553 487.801 264.482 484.35 264.649 480.66C264.792 476.684 267.529 472.804 272.386 469.995V469.995Z" fill="#404253"/>
<path opacity="0.7273" d="M272.788 470.685L366.557 434.62C371.675 431.668 378.46 430.359 384.578 430.907C387.363 431.169 389.862 432.026 392.148 432.811C392.838 433.049 398.099 435.906 398.67 436.239L465.373 475.303C465.896 475.613 466.92 476.256 467.301 476.613C471.967 480.255 471.848 485.706 467.039 490.015C467.039 491.729 457.493 501.394 455.66 502.465L405.407 550.433C401.099 552.932 395.647 554.266 390.315 554.313C385.625 554.361 381.197 553.409 377.841 551.48L270.979 489.42C267.146 487.206 265.242 484.016 265.432 480.588C265.623 476.946 268.194 473.351 272.788 470.685V470.685Z" fill="#30323E"/>
<path opacity="0.8182" d="M273.193 471.398L366.962 435.333C372.056 432.381 378.864 431.143 384.887 431.738C387.672 432.024 390.124 432.953 392.386 433.786C392.838 433.952 398.432 437.071 398.813 437.309L465.134 476.159C465.706 476.492 466.61 477.087 467.039 477.468C471.586 481.158 471.038 486.633 465.634 490.799C465.634 491.942 455.374 502.107 454.16 502.821L404.979 549.765C400.789 552.193 395.48 553.478 390.338 553.526C385.792 553.574 381.483 552.669 378.245 550.812L271.384 488.752C267.789 486.681 266.051 483.705 266.242 480.563C266.48 477.206 268.86 473.898 273.193 471.398V471.398Z" fill="#20212A"/>
<path opacity="0.9091" d="M273.623 472.113L367.392 436.048C372.462 433.12 379.27 431.906 385.222 432.597C387.983 432.906 390.411 433.906 392.649 434.763C392.887 434.858 398.815 438.238 399.005 438.357L464.946 476.993C465.588 477.374 466.35 477.874 466.826 478.303C471.254 482.04 470.302 487.563 464.279 491.562C464.279 492.133 453.329 502.774 452.71 503.131L404.575 549.076C400.505 551.432 395.363 552.67 390.387 552.742C385.983 552.789 381.794 551.932 378.651 550.123L271.79 488.063C268.409 486.111 266.838 483.397 267.052 480.54C267.314 477.493 269.552 474.446 273.623 472.113V472.113Z" fill="#101115"/>
<path opacity="0.15" d="M379.078 549.36L272.217 487.3C265.789 483.586 266.599 477.088 274.026 472.803L367.795 436.738C375.222 432.453 386.458 431.977 392.909 435.69L464.73 477.778C471.157 481.491 470.348 487.99 462.921 492.275L404.193 548.337C396.742 552.622 385.506 553.074 379.078 549.36V549.36Z" fill="black"/>
</g>
<path d="M379.079 549.216L272.217 487.155C269.361 485.489 267.909 483.299 267.885 480.966V472.896C267.932 470.087 270.027 474.967 274.027 472.658L367.795 436.593C375.223 432.308 386.459 431.832 392.91 435.545L464.73 477.633C466.873 478.871 468.444 473.61 468.991 475.276C469.182 475.824 469.063 483.227 469.063 483.798C469.135 486.679 467.04 489.75 462.922 492.13L404.194 548.192C396.743 552.477 385.507 552.929 379.08 549.215L379.079 549.216Z" fill="url(#paint29_linear_222_1098)"/>
<path d="M379.079 541.29L272.218 479.229C265.79 475.516 266.6 469.017 274.027 464.732L367.796 428.667C375.223 424.382 386.459 423.906 392.91 427.62L464.731 469.707C471.158 473.421 470.349 479.92 462.921 484.205L404.194 540.266C396.743 544.551 385.507 545.003 379.079 541.29V541.29Z" fill="url(#paint30_linear_222_1098)"/>
<path d="M462.921 482.847L404.194 538.908C396.767 543.193 385.531 543.669 379.079 539.955L272.218 477.895C269.551 476.348 268.147 474.324 267.933 472.182C267.599 474.8 269.004 477.372 272.218 479.228L379.079 541.765C385.507 545.478 396.767 545.002 404.194 540.717L462.921 484.18C467.278 481.68 469.325 478.419 469.016 475.396C468.683 478.014 466.635 480.704 462.921 482.847V482.847Z" fill="white"/>
<path d="M518.673 541.646L256.244 390.007C242.817 382.27 231.938 361.488 231.938 343.587V142.861C231.938 124.959 242.817 116.747 256.244 124.483L518.673 276.123C532.099 283.859 542.978 304.641 542.978 322.543V523.245C542.978 541.17 532.099 549.383 518.673 541.646V541.646Z" fill="url(#paint31_linear_222_1098)"/>
<path d="M521.816 527.674L263.077 378.2C252.269 371.345 245.604 357.633 245.604 343.588V141.552C245.604 138.22 249.222 136.172 252.079 137.839C252.412 138.029 252.674 138.196 252.841 138.291L511.866 287.955C524.721 295.358 529.339 308.522 529.339 322.568V523.96C529.339 527.531 525.482 529.768 522.388 527.983C522.126 527.84 521.935 527.745 521.816 527.674V527.674Z" fill="#28D57A"/>
<path d="M511.866 287.954L252.841 138.29C252.674 138.195 252.412 138.052 252.079 137.838C249.199 136.148 245.604 138.219 245.604 141.551V343.587C245.604 357.608 252.293 371.32 263.077 378.199L521.816 527.673C521.935 527.745 522.149 527.863 522.388 528.005C525.482 529.767 529.339 527.53 529.339 523.982V322.59C529.339 308.521 524.721 295.357 511.866 287.954V287.954ZM526.601 523.959C526.601 525.149 525.601 525.887 524.673 525.887C524.34 525.887 524.031 525.792 523.721 525.625L264.434 375.819C254.674 369.63 248.318 356.941 248.318 343.587V141.551C248.318 140.575 249.151 139.98 249.913 139.98C250.175 139.98 250.46 140.051 250.698 140.195L510.485 290.31C523.792 297.976 526.601 312.092 526.601 322.543V523.959Z" fill="#AFB6E5"/>
<path d="M529.861 269.648L267.432 118.008C262.123 114.938 257.22 114.39 253.22 115.914C252.72 116.104 241.651 122.531 241.175 122.817C241.151 122.817 241.151 122.84 241.151 122.84C245.293 120.817 250.554 121.198 256.268 124.507L518.696 276.147C532.123 283.883 543.002 304.665 543.002 322.567V523.269C543.002 534.434 538.764 541.837 532.313 543.932C532.837 543.959 533.503 543.765 534.432 543.217C534.741 543.051 546.382 536.052 546.691 535.862C551.31 532.624 554.19 525.983 554.19 516.794V316.092C554.163 298.19 543.287 277.408 529.861 269.648V269.648Z" fill="url(#paint32_linear_222_1098)"/>
<path d="M529.67 269.79L267.218 118.151C261.909 115.08 257.005 114.508 253.006 116.056C252.506 116.246 241.627 122.555 241.151 122.816C241.127 122.816 241.127 122.84 241.127 122.84C245.27 120.816 250.53 121.197 256.244 124.506L518.672 276.146C532.099 283.883 542.978 304.665 542.978 322.566V523.268C542.978 534.433 538.74 541.836 532.289 543.931C532.813 543.958 533.479 543.765 534.408 543.217C534.717 543.05 546.168 536.194 546.453 535.98C551.071 532.743 553.952 526.101 553.952 516.912V316.21C553.952 298.309 543.073 277.527 529.67 269.79Z" fill="url(#paint33_linear_222_1098)"/>
<path d="M529.456 269.909L267.027 118.269C261.719 115.199 256.815 114.627 252.816 116.175C252.316 116.365 241.651 122.531 241.175 122.792C241.151 122.792 241.151 122.816 241.151 122.816C245.293 120.792 250.554 121.173 256.268 124.482L518.697 276.122C532.123 283.858 543.002 304.64 543.002 322.542V523.244C543.002 534.409 538.765 541.812 532.313 543.907C532.837 543.934 533.504 543.741 534.432 543.193C534.742 543.027 545.978 536.313 546.263 536.099C550.881 532.862 553.762 526.22 553.762 517.031V316.329C553.762 298.451 542.883 277.669 529.457 269.909H529.456Z" fill="url(#paint34_linear_222_1098)"/>
<path d="M529.242 270.052L266.813 118.412C261.504 115.341 256.6 114.77 252.601 116.317C252.101 116.508 241.651 122.554 241.151 122.816C241.127 122.816 241.127 122.839 241.127 122.839C245.27 120.816 250.53 121.197 256.244 124.506L518.672 276.146C532.099 283.882 542.978 304.664 542.978 322.566V523.268C542.978 534.433 538.74 541.836 532.289 543.931C532.813 543.958 533.479 543.764 534.408 543.216C534.717 543.05 545.739 536.456 546.049 536.265C550.667 533.028 553.547 526.386 553.547 517.197V316.495C553.547 298.594 542.668 277.812 529.242 270.052Z" fill="url(#paint35_linear_222_1098)"/>
<path d="M529.052 270.194L266.623 118.555C261.314 115.484 256.41 114.913 252.411 116.46C251.911 116.65 241.651 122.554 241.175 122.816C241.151 122.816 241.151 122.839 241.151 122.839C245.293 120.816 250.554 121.197 256.268 124.506L518.696 276.146C532.123 283.882 543.002 304.664 543.002 322.566V523.268C543.002 534.433 538.764 541.836 532.313 543.931C532.837 543.958 533.503 543.764 534.432 543.216C534.741 543.05 545.573 536.599 545.858 536.384C550.476 533.147 553.357 526.505 553.357 517.316V316.614C553.33 298.713 542.454 277.931 529.052 270.194V270.194Z" fill="url(#paint36_linear_222_1098)"/>
<path d="M528.837 270.313L266.408 118.674C261.1 115.603 256.196 115.056 252.197 116.579C251.697 116.77 241.651 122.53 241.175 122.792C241.151 122.792 241.151 122.816 241.151 122.816C245.293 120.792 250.554 121.173 256.268 124.482L518.697 276.121C532.123 283.858 543.002 304.64 543.002 322.542V523.244C543.002 534.409 538.765 541.812 532.313 543.907C532.837 543.934 533.504 543.741 534.432 543.193C534.742 543.026 545.359 536.718 545.668 536.504C550.286 533.266 553.167 526.624 553.167 517.436V316.734C553.14 298.856 542.264 278.074 528.838 270.313H528.837Z" fill="url(#paint37_linear_222_1098)"/>
<path d="M528.647 270.458L266.218 118.819C260.909 115.748 256.005 115.176 252.006 116.724C251.506 116.914 241.651 122.556 241.175 122.818C241.151 122.818 241.151 122.841 241.151 122.841C245.293 120.818 250.554 121.199 256.268 124.508L518.696 276.147C532.122 283.884 543.002 304.666 543.002 322.568V523.27C543.002 534.434 538.764 541.838 532.313 543.933C532.837 543.96 533.503 543.766 534.432 543.218C534.741 543.052 545.168 536.862 545.453 536.672C550.072 533.434 552.952 526.793 552.952 517.604V316.902C552.925 299 542.049 278.219 528.647 270.458Z" fill="url(#paint38_linear_222_1098)"/>
<path d="M528.433 270.601L266.004 118.961C260.695 115.89 255.791 115.319 251.792 116.867C251.292 117.057 241.651 122.556 241.175 122.818C241.151 122.818 241.151 122.841 241.151 122.841C245.293 120.818 250.554 121.199 256.268 124.508L518.696 276.147C532.122 283.884 543.002 304.666 543.002 322.568V523.27C543.002 534.434 538.764 541.838 532.313 543.933C532.837 543.96 533.503 543.766 534.432 543.218C534.741 543.052 544.954 537.005 545.239 536.791C549.858 533.553 552.738 526.912 552.738 517.723V317.021C552.738 299.12 541.859 278.338 528.433 270.601V270.601Z" fill="url(#paint39_linear_222_1098)"/>
<path d="M528.218 270.719L265.789 119.08C260.481 116.009 255.577 115.438 251.578 116.985C251.078 117.175 241.651 122.532 241.151 122.793C241.127 122.793 241.127 122.817 241.127 122.817C245.27 120.793 250.53 121.174 256.244 124.483L518.673 276.123C532.099 283.859 542.978 304.641 542.978 322.543V523.245C542.978 534.41 538.741 541.813 532.289 543.908C532.813 543.935 533.48 543.742 534.408 543.194C534.718 543.027 544.716 537.124 545.025 536.909C549.643 533.672 552.524 527.03 552.524 517.841V317.139C552.524 299.262 541.645 278.48 528.219 270.719H528.218Z" fill="url(#paint40_linear_222_1098)"/>
<path d="M528.028 270.863L265.599 119.223C260.29 116.152 255.387 115.605 251.387 117.128C250.887 117.319 241.651 122.556 241.175 122.818C241.151 122.818 241.151 122.841 241.151 122.841C245.293 120.818 250.554 121.199 256.268 124.508L518.696 276.147C532.122 283.884 543.002 304.666 543.002 322.568V523.27C543.002 534.434 538.764 541.838 532.313 543.933C532.837 543.96 533.503 543.766 534.432 543.218C534.741 543.052 544.549 537.267 544.835 537.077C549.453 533.839 552.333 527.197 552.333 518.009V317.307C552.306 299.405 541.43 278.623 528.028 270.863Z" fill="url(#paint41_linear_222_1098)"/>
<path d="M527.814 271.005L265.385 119.365C260.076 116.295 255.172 115.723 251.173 117.271C250.673 117.461 241.651 122.555 241.175 122.817C241.151 122.817 241.151 122.841 241.151 122.841C245.293 120.817 250.554 121.198 256.268 124.507L518.696 276.147C532.123 283.884 543.002 304.666 543.002 322.567V523.269C543.002 534.434 538.764 541.837 532.313 543.932C532.837 543.959 533.503 543.766 534.432 543.218C534.741 543.051 544.335 537.409 544.644 537.195C549.262 533.957 552.143 527.316 552.143 518.127V317.425C552.116 299.524 541.24 278.742 527.814 271.005V271.005Z" fill="url(#paint42_linear_222_1098)"/>
<path d="M527.623 271.123L265.194 119.484C259.886 116.413 254.982 115.842 250.983 117.389C250.483 117.579 241.651 122.531 241.175 122.793C241.151 122.793 241.151 122.816 241.151 122.816C245.293 120.793 250.554 121.174 256.268 124.483L518.697 276.122C532.123 283.859 543.002 304.641 543.002 322.542V523.245C543.002 534.409 538.765 541.813 532.313 543.908C532.837 543.935 533.504 543.741 534.432 543.193C534.742 543.027 544.145 537.528 544.43 537.313C549.049 534.076 551.929 527.434 551.929 518.245V317.543C551.902 299.666 541.026 278.884 527.624 271.123H527.623Z" fill="url(#paint43_linear_222_1098)"/>
<path d="M527.409 271.266L264.98 119.627C259.671 116.556 254.768 115.985 250.768 117.532C250.268 117.722 241.651 122.555 241.175 122.817C241.151 122.817 241.151 122.84 241.151 122.84C245.293 120.817 250.554 121.198 256.268 124.507L518.696 276.146C532.123 283.883 543.002 304.665 543.002 322.567V523.269C543.002 534.433 538.764 541.837 532.313 543.932C532.837 543.959 533.503 543.765 534.432 543.217C534.741 543.051 543.93 537.671 544.216 537.48C548.834 534.243 551.714 527.601 551.714 518.412V317.71C551.714 299.809 540.835 279.027 527.409 271.266Z" fill="url(#paint44_linear_222_1098)"/>
<path d="M527.195 271.409L264.766 119.77C259.457 116.699 254.553 116.128 250.554 117.675C250.054 117.865 241.627 122.555 241.151 122.817C241.127 122.817 241.127 122.84 241.127 122.84C245.27 120.817 250.53 121.198 256.244 124.507L518.672 276.146C532.099 283.883 542.978 304.665 542.978 322.567V523.269C542.978 534.433 538.74 541.837 532.289 543.932C532.813 543.959 533.479 543.765 534.408 543.217C534.717 543.051 543.692 537.813 544.001 537.599C548.619 534.362 551.5 527.72 551.5 518.531V317.829C551.5 299.928 540.621 279.146 527.195 271.409V271.409Z" fill="url(#paint45_linear_222_1098)"/>
<path d="M527.004 271.528L264.575 119.889C259.267 116.818 254.363 116.27 250.364 117.794C249.864 117.984 241.651 122.531 241.175 122.793C241.151 122.793 241.151 122.816 241.151 122.816C245.293 120.793 250.554 121.174 256.268 124.483L518.697 276.122C532.123 283.859 543.002 304.641 543.002 322.542V523.245C543.002 534.41 538.765 541.813 532.313 543.908C532.837 543.935 533.504 543.741 534.432 543.193C534.742 543.027 543.526 537.933 543.811 537.718C548.43 534.481 551.31 527.839 551.31 518.65V317.948C551.283 300.071 540.407 279.289 527.005 271.528H527.004Z" fill="url(#paint46_linear_222_1098)"/>
<path d="M526.79 271.67L264.361 120.031C259.052 116.96 254.148 116.389 250.149 117.936C249.649 118.127 241.651 122.554 241.151 122.816C241.127 122.816 241.127 122.839 241.127 122.839C245.27 120.816 250.53 121.197 256.244 124.506L518.672 276.146C532.099 283.882 542.978 304.664 542.978 322.566V523.268C542.978 534.433 538.74 541.836 532.289 543.931C532.813 543.958 533.479 543.765 534.408 543.217C534.717 543.05 543.287 538.075 543.597 537.884C548.215 534.647 551.095 528.005 551.095 518.816V318.091C551.095 300.213 540.216 279.431 526.79 271.67V271.67Z" fill="url(#paint47_linear_222_1098)"/>
<path d="M526.6 271.814L264.171 120.174C258.862 117.103 253.958 116.556 249.959 118.079C249.459 118.27 241.651 122.555 241.175 122.817C241.151 122.817 241.151 122.84 241.151 122.84C245.293 120.817 250.554 121.197 256.268 124.506L518.696 276.146C532.122 283.883 543.002 304.665 543.002 322.566V523.269C543.002 534.433 538.764 541.837 532.313 543.931C532.837 543.958 533.503 543.765 534.432 543.217C534.741 543.051 543.121 538.218 543.406 538.004C548.024 534.766 550.905 528.125 550.905 518.936V318.234C550.878 300.332 540.002 279.55 526.6 271.814V271.814Z" fill="url(#paint48_linear_222_1098)"/>
<path d="M526.386 271.934L263.956 120.295C258.648 117.224 253.744 116.652 249.745 118.2C249.245 118.39 241.651 122.532 241.175 122.794C241.151 122.794 241.151 122.818 241.151 122.818C245.293 120.794 250.554 121.175 256.268 124.484L518.697 276.123C532.123 283.86 543.002 304.642 543.002 322.544V523.246C543.002 534.411 538.765 541.814 532.313 543.909C532.837 543.936 533.504 543.743 534.432 543.195C534.742 543.028 542.907 538.338 543.192 538.124C547.811 534.887 550.691 528.245 550.691 519.056V318.354C550.691 300.477 539.812 279.695 526.386 271.934H526.386Z" fill="url(#paint49_linear_222_1098)"/>
<path d="M526.171 272.075L263.742 120.436C258.433 117.365 253.53 116.817 249.53 118.341C249.03 118.531 241.627 122.554 241.151 122.816C241.127 122.816 241.127 122.84 241.127 122.84C245.27 120.816 250.53 121.197 256.244 124.506L518.672 276.146C532.099 283.882 542.978 304.664 542.978 322.566V523.268C542.978 534.433 538.74 541.836 532.289 543.931C532.813 543.958 533.479 543.765 534.408 543.217C534.717 543.05 542.692 538.479 542.978 538.289C547.596 535.051 550.476 528.41 550.476 519.221V318.519C550.476 300.618 539.597 279.836 526.171 272.075V272.075Z" fill="url(#paint50_linear_222_1098)"/>
<path d="M525.981 272.22L263.552 120.58C258.243 117.509 253.339 116.938 249.34 118.485C248.84 118.676 241.651 122.556 241.175 122.818C241.151 122.818 241.151 122.841 241.151 122.841C245.293 120.818 250.554 121.199 256.268 124.508L518.696 276.148C532.123 283.884 543.002 304.666 543.002 322.568V523.27C543.002 534.435 538.764 541.838 532.313 543.933C532.837 543.96 533.503 543.766 534.432 543.218C534.741 543.052 542.502 538.624 542.787 538.41C547.406 535.172 550.286 528.531 550.286 519.342V318.64C550.259 300.738 539.383 279.956 525.981 272.22V272.22Z" fill="url(#paint51_linear_222_1098)"/>
<path d="M525.766 272.338L263.337 120.699C258.029 117.628 253.125 117.056 249.126 118.604C248.626 118.794 241.651 122.532 241.151 122.794C241.127 122.794 241.127 122.817 241.127 122.817C245.27 120.793 250.53 121.174 256.244 124.483L518.673 276.123C532.099 283.859 542.978 304.641 542.978 322.543V523.245C542.978 534.41 538.741 541.814 532.289 543.908C532.813 543.935 533.48 543.742 534.408 543.194C534.718 543.028 542.264 538.742 542.573 538.528C547.192 535.291 550.072 528.649 550.072 519.46V318.758C550.072 300.881 539.193 280.099 525.767 272.338H525.766Z" fill="url(#paint52_linear_222_1098)"/>
<path d="M525.576 272.481L263.147 120.842C257.838 117.771 252.935 117.2 248.935 118.747C248.435 118.937 241.651 122.532 241.175 122.818C241.151 122.818 241.151 122.841 241.151 122.841C245.293 120.818 250.554 121.198 256.268 124.507L518.696 276.147C532.123 283.884 543.002 304.666 543.002 322.567V523.27C543.002 534.434 538.764 541.838 532.313 543.932C532.837 543.959 533.503 543.766 534.432 543.218C534.741 543.052 542.097 538.885 542.383 538.695C547.001 535.458 549.881 528.816 549.881 519.627V318.925C549.854 301.024 538.978 280.242 525.576 272.481V272.481Z" fill="url(#paint53_linear_222_1098)"/>
<path d="M519.84 275.551L257.411 123.912C251.912 120.745 246.842 120.293 242.771 122.031C246.247 121.483 250.246 122.317 254.483 124.769L516.936 276.432C530.362 284.168 541.241 304.95 541.241 322.852V523.554C541.241 534.1 537.432 541.265 531.576 543.789C539.075 542.598 544.145 534.909 544.145 522.673V321.971C544.145 304.093 533.266 283.312 519.84 275.551V275.551Z" fill="white"/>
<path d="M319.545 312.888L333.062 320.692V305.196L319.545 297.39V312.888ZM333.967 323.164L333.514 323.042L318.188 314.192C317.908 314.033 317.735 313.734 317.735 313.411V295.823C317.735 295.5 317.908 295.202 318.188 295.042C318.467 294.879 318.813 294.879 319.092 295.042L334.417 303.89C334.697 304.052 334.87 304.35 334.87 304.673V322.259C334.87 322.582 334.697 322.88 334.417 323.042L333.967 323.164" fill="#AED2F0"/>
<path d="M367.637 340.653L381.156 348.459V332.961L367.637 325.155V340.653ZM382.059 350.928L381.606 350.806L366.281 341.959C366.002 341.797 365.829 341.498 365.829 341.175V323.59C365.829 323.267 366.002 322.968 366.281 322.807C366.559 322.645 366.905 322.645 367.184 322.807L382.511 331.657C382.791 331.816 382.964 332.115 382.964 332.438V350.025C382.964 350.348 382.791 350.647 382.511 350.806L382.058 350.928" fill="#AED2F0"/>
<path d="M355.83 330.284C356.666 330.767 357.271 330.902 357.644 330.691C358.018 330.478 358.212 329.879 358.233 328.898C358.254 328.214 358.265 327.788 358.265 327.615C358.265 327.431 358.254 326.995 358.233 326.315C358.211 325.354 358.005 324.537 357.613 323.866C357.221 323.195 356.602 322.613 355.756 322.126L353.91 321.058V329.178L355.83 330.284ZM351.887 329.898L351.78 329.543V318.252L351.877 317.997L352.141 318.029L355.83 320.157C358.803 321.873 360.318 324.32 360.379 327.501C360.401 328.183 360.411 328.639 360.411 328.871C360.411 329.09 360.401 329.529 360.379 330.189C360.341 331.784 359.957 332.757 359.238 333.111C358.518 333.464 357.406 333.206 355.906 332.339L352.141 330.168L351.886 329.898" fill="#254A98"/>
<path d="M380.808 260.676C377.762 260.676 374.902 261.073 372.239 261.84C377.558 263.383 383.023 265.765 388.591 268.98C399.221 275.117 409.268 283.84 418.155 294.144C419.131 295.277 420.091 296.422 421.038 297.591C440.804 321.977 454.152 354.127 454.152 382.081C454.152 395.765 450.907 407.218 445.093 415.591C460.078 412.097 469.101 397.309 469.101 375.264C469.101 341.61 448.518 301.487 421.038 278.493C420.085 277.694 419.125 276.917 418.155 276.162C414.669 273.443 411.082 271.009 407.422 268.896C398.111 263.518 388.908 260.676 380.808 260.676Z" fill="#21AD63"/>
<path d="M322.369 311.537C322.369 350.556 350.038 398.276 384.047 417.908C393.357 423.285 402.562 426.125 410.661 426.125C429.893 426.125 441.841 410.369 441.841 385.002C441.841 345.983 414.174 298.265 380.163 278.63C370.853 273.254 361.65 270.414 353.549 270.414C334.318 270.414 322.369 286.17 322.369 311.537" fill="#21AD63"/>
<path d="M372.491 383.957C372.767 383.957 373.038 383.93 373.304 383.867L418.773 373.362C422.268 372.556 422.268 366.609 418.773 361.767L373.304 298.76C371.282 295.956 368.88 294.562 366.968 294.562C365.01 294.562 363.563 296.024 363.563 298.933V372.445C363.563 377.82 368.5 383.957 372.491 383.957" fill="#28D57A"/>
<path d="M326.911 308.616C326.911 347.635 354.58 395.353 388.589 414.986C397.899 420.364 407.102 423.205 415.203 423.205C434.433 423.205 446.383 407.448 446.383 382.081C446.383 343.061 418.714 295.343 384.705 275.71C375.395 270.334 366.192 267.493 358.091 267.493C338.86 267.493 326.911 283.25 326.911 308.616ZM384.705 421.714C348.553 400.842 319.143 350.108 319.143 308.616C319.143 278.915 334.43 259.725 358.091 259.725C367.69 259.725 377.947 262.839 388.589 268.982C424.741 289.856 454.149 340.59 454.149 382.081C454.149 411.783 438.862 430.971 415.203 430.971C405.604 430.971 395.346 427.859 384.705 421.714" fill="#28D57A"/>
<path d="M368.815 386.304C369.093 386.304 369.365 386.271 369.631 386.213L415.1 375.709C418.594 374.901 418.594 368.956 415.1 364.112L369.631 301.105C367.608 298.303 365.207 296.909 363.295 296.909C361.336 296.909 359.89 298.371 359.89 301.28V374.791C359.89 380.165 364.827 386.304 368.815 386.304Z" fill="white"/>
<path d="M368.084 386.79C368.362 386.79 368.634 386.758 368.9 386.699L414.369 376.195C417.863 375.387 417.863 369.443 414.369 364.599L368.9 301.592C366.877 298.789 364.476 297.396 362.564 297.396C360.606 297.396 359.159 298.858 359.159 301.767V375.277C359.159 380.653 364.096 386.79 368.084 386.79" fill="white"/>
<path d="M323.342 311.051C323.342 350.069 351.011 397.789 385.02 417.422C394.33 422.798 403.535 425.639 411.636 425.639C430.865 425.639 442.814 409.882 442.814 384.516C442.814 345.497 415.147 297.777 381.136 278.144C371.826 272.768 362.623 269.927 354.522 269.927C335.292 269.927 323.342 285.684 323.342 311.051ZM381.136 424.148C344.984 403.276 315.576 352.543 315.576 311.051C315.576 281.349 330.863 262.159 354.522 262.159C364.121 262.159 374.379 265.273 385.02 271.418C421.172 292.29 450.582 343.024 450.582 384.516C450.582 414.217 435.295 433.407 411.636 433.407C402.037 433.407 391.778 430.293 381.136 424.148Z" fill="white"/>
<path d="M322.368 311.535C322.368 350.554 350.037 398.274 384.046 417.907C393.356 423.283 402.561 426.123 410.66 426.123C429.891 426.123 441.84 410.367 441.84 385C441.84 345.982 414.173 298.263 380.162 278.629C370.852 273.252 361.649 270.412 353.548 270.412C334.316 270.412 322.368 286.169 322.368 311.535V311.535ZM380.162 424.633C344.01 403.76 314.602 353.027 314.602 311.535C314.602 281.834 329.889 262.646 353.548 262.646C363.147 262.646 373.405 265.758 384.046 271.903C420.197 292.775 449.608 343.508 449.608 385C449.608 414.701 434.321 433.891 410.66 433.891C401.063 433.891 390.804 430.777 380.162 424.633" fill="white"/>
<path d="M302.401 322.821C301.953 322.821 301.552 322.497 301.468 322.039C301.354 321.412 301.248 320.785 301.139 320.155C301.052 319.638 301.402 319.148 301.917 319.06C302.432 318.982 302.926 319.319 303.014 319.838C303.118 320.459 303.227 321.079 303.339 321.699C303.432 322.216 303.09 322.712 302.573 322.806L302.402 322.822" fill="#45C0B5"/>
<path d="M346.994 233.64C346.496 233.64 346.075 233.25 346.045 232.744C346.013 232.221 346.416 231.771 346.938 231.74C348.011 231.678 349.058 231.625 350.201 231.646L350.859 231.649C351.383 231.655 351.803 232.089 351.798 232.613C351.792 233.134 351.366 233.551 350.847 233.551H350.836L350.203 233.547H350.155C349.111 233.547 348.075 233.579 347.052 233.638L346.994 233.64ZM360.436 234.427L360.279 234.416C359.01 234.203 357.754 234.03 356.514 233.895C355.993 233.84 355.615 233.37 355.672 232.849C355.727 232.324 356.201 231.958 356.718 232.005C357.995 232.144 359.288 232.323 360.594 232.541C361.109 232.627 361.461 233.117 361.374 233.634C361.295 234.1 360.893 234.429 360.436 234.429L360.436 234.427ZM337.49 235.115C337.068 235.115 336.68 234.831 336.57 234.404C336.437 233.895 336.745 233.375 337.25 233.244C338.499 232.921 339.792 232.642 341.091 232.415C341.596 232.324 342.098 232.668 342.189 233.187C342.281 233.705 341.935 234.199 341.418 234.288C340.169 234.505 338.927 234.773 337.729 235.084L337.49 235.115ZM369.807 236.643L369.533 236.6C368.298 236.228 367.075 235.887 365.86 235.583C365.351 235.456 365.043 234.939 365.17 234.431C365.297 233.922 365.807 233.61 366.324 233.739C367.566 234.051 368.818 234.399 370.083 234.781C370.584 234.933 370.87 235.463 370.718 235.965C370.592 236.378 370.216 236.642 369.807 236.642V236.643ZM328.503 238.51C328.157 238.51 327.823 238.32 327.655 237.989C327.416 237.521 327.601 236.949 328.072 236.712C329.234 236.12 330.439 235.573 331.65 235.086C332.14 234.892 332.692 235.124 332.886 235.613C333.083 236.101 332.848 236.654 332.359 236.85C331.199 237.316 330.047 237.839 328.933 238.405L328.503 238.51ZM378.862 239.94L378.491 239.864C377.303 239.36 376.121 238.887 374.946 238.444C374.457 238.26 374.208 237.712 374.392 237.219C374.577 236.729 375.121 236.478 375.619 236.666C376.814 237.117 378.02 237.6 379.233 238.113C379.716 238.318 379.942 238.877 379.737 239.358C379.585 239.721 379.231 239.94 378.862 239.94H378.862ZM320.477 243.797C320.203 243.797 319.933 243.681 319.745 243.455C319.408 243.05 319.465 242.451 319.87 242.117C320.88 241.276 321.935 240.476 323.005 239.735C323.431 239.438 324.028 239.543 324.327 239.976C324.627 240.408 324.518 240.999 324.085 241.297C323.06 242.008 322.051 242.774 321.083 243.579C320.908 243.727 320.692 243.797 320.477 243.797L320.477 243.797ZM387.548 244.106L387.102 243.993C385.961 243.385 384.828 242.803 383.699 242.248C383.229 242.018 383.033 241.448 383.263 240.978C383.495 240.505 384.067 240.317 384.537 240.543C385.685 241.106 386.837 241.697 387.997 242.317C388.461 242.564 388.636 243.14 388.389 243.602C388.216 243.923 387.887 244.106 387.548 244.106L387.548 244.106ZM395.862 248.976C395.687 248.976 395.51 248.928 395.353 248.826C394.271 248.138 393.185 247.468 392.096 246.818C391.645 246.548 391.495 245.965 391.765 245.514C392.035 245.06 392.621 244.915 393.069 245.183C394.178 245.845 395.278 246.524 396.373 247.223C396.816 247.504 396.948 248.092 396.664 248.535C396.482 248.82 396.176 248.976 395.862 248.976H395.862ZM313.773 250.689C313.564 250.689 313.359 250.623 313.184 250.484C312.772 250.161 312.701 249.562 313.026 249.149C313.847 248.113 314.707 247.111 315.583 246.168C315.94 245.784 316.543 245.764 316.927 246.125C317.311 246.482 317.332 247.083 316.976 247.467C316.134 248.372 315.307 249.334 314.52 250.33C314.333 250.568 314.054 250.691 313.774 250.691L313.773 250.689ZM403.803 254.436C403.607 254.436 403.407 254.375 403.238 254.25C402.208 253.489 401.17 252.744 400.128 252.018C399.698 251.716 399.592 251.122 399.892 250.693C400.196 250.261 400.79 250.16 401.218 250.457C402.273 251.196 403.322 251.949 404.368 252.721C404.792 253.033 404.879 253.628 404.567 254.05C404.383 254.303 404.094 254.436 403.803 254.436L403.803 254.436ZM308.534 258.759L308.087 258.647C307.623 258.402 307.446 257.826 307.694 257.362C308.312 256.201 308.967 255.058 309.648 253.967C309.926 253.52 310.511 253.387 310.958 253.661C311.405 253.938 311.54 254.524 311.262 254.971C310.606 256.026 309.971 257.13 309.372 258.254C309.201 258.575 308.872 258.759 308.534 258.759L308.534 258.759ZM304.707 267.588L304.395 267.534C303.899 267.361 303.636 266.82 303.807 266.325C304.245 265.074 304.707 263.858 305.199 262.671C305.401 262.186 305.954 261.956 306.441 262.158C306.926 262.357 307.155 262.914 306.956 263.399C306.479 264.551 306.026 265.736 305.606 266.95C305.467 267.342 305.1 267.587 304.707 267.587L304.707 267.588ZM302.139 276.868L301.941 276.846C301.426 276.738 301.099 276.232 301.207 275.719C301.483 274.43 301.783 273.164 302.106 271.926C302.237 271.42 302.754 271.114 303.264 271.245C303.773 271.378 304.078 271.897 303.945 272.405C303.629 273.616 303.334 274.852 303.068 276.114C302.973 276.561 302.578 276.867 302.138 276.867L302.139 276.868ZM300.652 286.383L300.551 286.377C300.03 286.323 299.65 285.856 299.705 285.335C299.842 284.024 300 282.737 300.186 281.471C300.262 280.949 300.751 280.579 301.264 280.668C301.785 280.744 302.144 281.227 302.068 281.746C301.888 282.988 301.73 284.248 301.595 285.531C301.547 286.02 301.131 286.383 300.652 286.383L300.652 286.383ZM300.085 296.001H300.075C299.548 295.995 299.13 295.559 299.137 295.035C299.159 293.721 299.2 292.426 299.264 291.151C299.286 290.628 299.725 290.227 300.259 290.248C300.785 290.275 301.188 290.721 301.162 291.244C301.101 292.5 301.059 293.774 301.038 295.065C301.033 295.584 300.607 296.001 300.088 296.001H300.085ZM300.309 305.633C299.809 305.633 299.389 305.245 299.361 304.742C299.283 303.441 299.22 302.149 299.182 300.862C299.166 300.337 299.579 299.898 300.102 299.881H300.134C300.646 299.881 301.068 300.288 301.085 300.803C301.123 302.073 301.182 303.346 301.259 304.626C301.292 305.151 300.891 305.601 300.368 305.632L300.309 305.633ZM301.224 315.228C300.755 315.228 300.346 314.879 300.283 314.399C300.117 313.111 299.967 311.827 299.836 310.546C299.781 310.023 300.159 309.557 300.682 309.502C301.188 309.459 301.671 309.827 301.726 310.35C301.857 311.614 302.003 312.882 302.169 314.156C302.235 314.677 301.869 315.152 301.348 315.221L301.224 315.226" fill="white"/>
<path d="M409.947 259.224C409.734 259.224 409.521 259.154 409.344 259.008C408.857 258.608 408.365 258.211 407.876 257.817C407.466 257.49 407.401 256.892 407.726 256.483C408.055 256.07 408.66 256.008 409.064 256.335C409.561 256.732 410.057 257.135 410.551 257.54C410.958 257.872 411.015 258.472 410.682 258.878C410.494 259.106 410.222 259.224 409.946 259.224" fill="#45C0B5"/>
<path d="M299.977 328.488C299.977 331.127 301.847 334.351 304.146 335.68C304.775 336.043 305.399 336.235 305.946 336.235C307.246 336.235 308.053 335.171 308.053 333.456C308.053 330.817 306.184 327.591 303.883 326.264C303.254 325.901 302.632 325.709 302.085 325.709C300.784 325.709 299.977 326.773 299.977 328.488Z" fill="white"/>
<path d="M409.501 253.537L414.254 261.774L405.699 260.19L409.501 253.537Z" fill="white"/>
<defs>
<linearGradient id="paint0_linear_222_1098" x1="276.026" y1="509.39" x2="488.131" y2="509.39" gradientUnits="userSpaceOnUse">
<stop stop-color="#CDD2F3"/>
<stop offset="0.4343" stop-color="#E5E9FF"/>
<stop offset="0.4834" stop-color="#EFF2FF"/>
<stop offset="0.5354" stop-color="white"/>
<stop offset="0.5905" stop-color="#EBEDF9"/>
<stop offset="0.7024" stop-color="#B9BFE8"/>
<stop offset="0.7222" stop-color="#AFB6E5"/>
<stop offset="0.9091" stop-color="#AFB6E5"/>
<stop offset="0.9503" stop-color="#BAC0EA"/>
<stop offset="1" stop-color="#CDD2F3"/>
</linearGradient>
<linearGradient id="paint1_linear_222_1098" x1="394.838" y1="441.045" x2="338.658" y2="548.502" gradientUnits="userSpaceOnUse">
<stop stop-color="#AFB6E5"/>
<stop offset="0.1449" stop-color="#B6BCE8"/>
<stop offset="0.3485" stop-color="#C8CDF1"/>
<stop offset="0.5808" stop-color="#E5E9FF"/>
<stop offset="0.8551" stop-color="#F5F6FF"/>
<stop offset="1" stop-color="white"/>
</linearGradient>
<linearGradient id="paint2_linear_222_1098" x1="407.169" y1="455.091" x2="383.15" y2="501.964" gradientUnits="userSpaceOnUse">
<stop offset="0.1818" stop-color="#4D5A96"/>
<stop offset="0.2483" stop-color="#6A75A7"/>
<stop offset="0.3644" stop-color="#979FC2"/>
<stop offset="0.4813" stop-color="#BDC2D8"/>
<stop offset="0.5972" stop-color="#DADCE9"/>
<stop offset="0.712" stop-color="#EEF0F5"/>
<stop offset="0.825" stop-color="#FBFBFD"/>
<stop offset="0.9343" stop-color="white"/>
</linearGradient>
<linearGradient id="paint3_linear_222_1098" x1="544.216" y1="385.483" x2="718.78" y2="385.483" gradientUnits="userSpaceOnUse">
<stop stop-color="#B9BFEA"/>
<stop offset="0.2475" stop-color="#E5E9FF"/>
<stop offset="0.702" stop-color="#AFB6E5"/>
<stop offset="0.9464" stop-color="#BAC0EA"/>
<stop offset="1" stop-color="#BDC3EC"/>
</linearGradient>
<linearGradient id="paint4_linear_222_1098" x1="735.713" y1="235.705" x2="595.262" y2="386.368" gradientUnits="userSpaceOnUse">
<stop stop-color="#AFB6E5"/>
<stop offset="0.1449" stop-color="#B6BCE8"/>
<stop offset="0.3485" stop-color="#C8CDF1"/>
<stop offset="0.5808" stop-color="#E5E9FF"/>
<stop offset="0.9546" stop-color="#F5F4FC"/>
<stop offset="1" stop-color="#F7F6FB"/>
</linearGradient>
<linearGradient id="paint5_linear_222_1098" x1="236.153" y1="196.827" x2="427.5" y2="567.166" gradientUnits="userSpaceOnUse">
<stop stop-color="#AFB6E5"/>
<stop offset="0.1449" stop-color="#B6BCE8"/>
<stop offset="0.3485" stop-color="#C8CDF1"/>
<stop offset="0.5808" stop-color="#E5E9FF"/>
<stop offset="0.8551" stop-color="#F5F6FF"/>
<stop offset="1" stop-color="white"/>
</linearGradient>
<linearGradient id="paint6_linear_222_1098" x1="544.216" y1="354.537" x2="718.78" y2="354.537" gradientUnits="userSpaceOnUse">
<stop stop-color="#B9BFEA"/>
<stop offset="0.2475" stop-color="#E5E9FF"/>
<stop offset="0.702" stop-color="#AFB6E5"/>
<stop offset="0.9464" stop-color="#BAC0EA"/>
<stop offset="1" stop-color="#BDC3EC"/>
</linearGradient>
<linearGradient id="paint7_linear_222_1098" x1="736.182" y1="205.231" x2="595.731" y2="355.895" gradientUnits="userSpaceOnUse">
<stop stop-color="#AFB6E5"/>
<stop offset="0.1449" stop-color="#B6BCE8"/>
<stop offset="0.3485" stop-color="#C8CDF1"/>
<stop offset="0.5808" stop-color="#E5E9FF"/>
<stop offset="0.9546" stop-color="#F5F4FC"/>
<stop offset="1" stop-color="#F7F6FB"/>
</linearGradient>
<linearGradient id="paint8_linear_222_1098" x1="694.762" y1="251.866" x2="589.304" y2="364.87" gradientUnits="userSpaceOnUse">
<stop offset="0.0050505" stop-color="#FFE4A7"/>
<stop offset="0.0998" stop-color="#FAC098"/>
<stop offset="0.202" stop-color="#F49587"/>
<stop offset="0.4638" stop-color="#A142B5"/>
<stop offset="0.596" stop-color="#7C1DC9"/>
<stop offset="0.6346" stop-color="#7926CB"/>
<stop offset="0.6973" stop-color="#703ED1"/>
<stop offset="0.7764" stop-color="#6165DB"/>
<stop offset="0.8686" stop-color="#4C9CE9"/>
<stop offset="0.9709" stop-color="#32E1FA"/>
<stop offset="1" stop-color="#2AF6FF"/>
</linearGradient>
<linearGradient id="paint9_linear_222_1098" x1="24.9512" y1="689.191" x2="199.515" y2="689.191" gradientUnits="userSpaceOnUse">
<stop stop-color="#B9BFEA"/>
<stop offset="0.2475" stop-color="#E5E9FF"/>
<stop offset="0.702" stop-color="#AFB6E5"/>
<stop offset="0.9464" stop-color="#BAC0EA"/>
<stop offset="1" stop-color="#BDC3EC"/>
</linearGradient>
<linearGradient id="paint10_linear_222_1098" x1="217.175" y1="539.883" x2="76.7239" y2="690.546" gradientUnits="userSpaceOnUse">
<stop stop-color="#AFB6E5"/>
<stop offset="0.1449" stop-color="#B6BCE8"/>
<stop offset="0.3485" stop-color="#C8CDF1"/>
<stop offset="0.5808" stop-color="#E5E9FF"/>
<stop offset="0.9546" stop-color="#F5F4FC"/>
<stop offset="1" stop-color="#F7F6FB"/>
</linearGradient>
<linearGradient id="paint11_linear_222_1098" x1="24.9512" y1="658.221" x2="199.515" y2="658.221" gradientUnits="userSpaceOnUse">
<stop stop-color="#B9BFEA"/>
<stop offset="0.2475" stop-color="#E5E9FF"/>
<stop offset="0.702" stop-color="#AFB6E5"/>
<stop offset="0.9464" stop-color="#BAC0EA"/>
<stop offset="1" stop-color="#BDC3EC"/>
</linearGradient>
<linearGradient id="paint12_linear_222_1098" x1="216.988" y1="508.937" x2="76.5374" y2="659.601" gradientUnits="userSpaceOnUse">
<stop stop-color="#AFB6E5"/>
<stop offset="0.1449" stop-color="#B6BCE8"/>
<stop offset="0.3485" stop-color="#C8CDF1"/>
<stop offset="0.5808" stop-color="#E5E9FF"/>
<stop offset="0.9546" stop-color="#F5F4FC"/>
<stop offset="1" stop-color="#F7F6FB"/>
</linearGradient>
<linearGradient id="paint13_linear_222_1098" x1="175.33" y1="555.572" x2="70.1103" y2="668.575" gradientUnits="userSpaceOnUse">
<stop offset="0.0050505" stop-color="#FFE4A7"/>
<stop offset="0.0998" stop-color="#FAC098"/>
<stop offset="0.202" stop-color="#F49587"/>
<stop offset="0.4638" stop-color="#A142B5"/>
<stop offset="0.596" stop-color="#7C1DC9"/>
<stop offset="0.6346" stop-color="#7926CB"/>
<stop offset="0.6973" stop-color="#703ED1"/>
<stop offset="0.7764" stop-color="#6165DB"/>
<stop offset="0.8686" stop-color="#4C9CE9"/>
<stop offset="0.9709" stop-color="#32E1FA"/>
<stop offset="1" stop-color="#2AF6FF"/>
</linearGradient>
<linearGradient id="paint14_linear_222_1098" x1="24.5231" y1="392.458" x2="199.087" y2="392.458" gradientUnits="userSpaceOnUse">
<stop stop-color="#B9BFEA"/>
<stop offset="0.2475" stop-color="#E5E9FF"/>
<stop offset="0.702" stop-color="#AFB6E5"/>
<stop offset="0.9464" stop-color="#BAC0EA"/>
<stop offset="1" stop-color="#BDC3EC"/>
</linearGradient>
<linearGradient id="paint15_linear_222_1098" x1="216.512" y1="243.475" x2="76.0609" y2="394.114" gradientUnits="userSpaceOnUse">
<stop stop-color="#AFB6E5"/>
<stop offset="0.1449" stop-color="#B6BCE8"/>
<stop offset="0.3485" stop-color="#C8CDF1"/>
<stop offset="0.5808" stop-color="#E5E9FF"/>
<stop offset="0.9546" stop-color="#F5F4FC"/>
<stop offset="1" stop-color="#F7F6FB"/>
</linearGradient>
<linearGradient id="paint16_linear_222_1098" x1="519.553" y1="203.803" x2="328.159" y2="574.141" gradientUnits="userSpaceOnUse">
<stop stop-color="#AFB6E5"/>
<stop offset="0.1449" stop-color="#B6BCE8"/>
<stop offset="0.3485" stop-color="#C8CDF1"/>
<stop offset="0.5808" stop-color="#E5E9FF"/>
<stop offset="0.8551" stop-color="#F5F6FF"/>
<stop offset="1" stop-color="white"/>
</linearGradient>
<linearGradient id="paint17_linear_222_1098" x1="24.5231" y1="361.512" x2="199.087" y2="361.512" gradientUnits="userSpaceOnUse">
<stop stop-color="#B9BFEA"/>
<stop offset="0.2475" stop-color="#E5E9FF"/>
<stop offset="0.702" stop-color="#AFB6E5"/>
<stop offset="0.9464" stop-color="#BAC0EA"/>
<stop offset="1" stop-color="#BDC3EC"/>
</linearGradient>
<linearGradient id="paint18_linear_222_1098" x1="216.512" y1="212.206" x2="76.0609" y2="362.87" gradientUnits="userSpaceOnUse">
<stop stop-color="#AFB6E5"/>
<stop offset="0.1449" stop-color="#B6BCE8"/>
<stop offset="0.3485" stop-color="#C8CDF1"/>
<stop offset="0.5808" stop-color="#E5E9FF"/>
<stop offset="0.9546" stop-color="#F5F4FC"/>
<stop offset="1" stop-color="#F7F6FB"/>
</linearGradient>
<linearGradient id="paint19_linear_222_1098" x1="175.092" y1="258.841" x2="69.635" y2="371.844" gradientUnits="userSpaceOnUse">
<stop offset="0.0050505" stop-color="#FFE4A7"/>
<stop offset="0.0998" stop-color="#FAC098"/>
<stop offset="0.202" stop-color="#F49587"/>
<stop offset="0.4638" stop-color="#A142B5"/>
<stop offset="0.596" stop-color="#7C1DC9"/>
<stop offset="0.6346" stop-color="#7926CB"/>
<stop offset="0.6973" stop-color="#703ED1"/>
<stop offset="0.7764" stop-color="#6165DB"/>
<stop offset="0.8686" stop-color="#4C9CE9"/>
<stop offset="0.9709" stop-color="#32E1FA"/>
<stop offset="1" stop-color="#2AF6FF"/>
</linearGradient>
<linearGradient id="paint20_linear_222_1098" x1="544.191" y1="696.168" x2="718.755" y2="696.168" gradientUnits="userSpaceOnUse">
<stop stop-color="#B9BFEA"/>
<stop offset="0.2475" stop-color="#E5E9FF"/>
<stop offset="0.702" stop-color="#AFB6E5"/>
<stop offset="0.9464" stop-color="#BAC0EA"/>
<stop offset="1" stop-color="#BDC3EC"/>
</linearGradient>
<linearGradient id="paint21_linear_222_1098" x1="736.181" y1="546.496" x2="595.731" y2="697.16" gradientUnits="userSpaceOnUse">
<stop stop-color="#AFB6E5"/>
<stop offset="0.1449" stop-color="#B6BCE8"/>
<stop offset="0.3485" stop-color="#C8CDF1"/>
<stop offset="0.5808" stop-color="#E5E9FF"/>
<stop offset="0.9546" stop-color="#F5F4FC"/>
<stop offset="1" stop-color="#F7F6FB"/>
</linearGradient>
<linearGradient id="paint22_linear_222_1098" x1="544.191" y1="665.221" x2="718.755" y2="665.221" gradientUnits="userSpaceOnUse">
<stop stop-color="#B9BFEA"/>
<stop offset="0.2475" stop-color="#E5E9FF"/>
<stop offset="0.702" stop-color="#AFB6E5"/>
<stop offset="0.9464" stop-color="#BAC0EA"/>
<stop offset="1" stop-color="#BDC3EC"/>
</linearGradient>
<linearGradient id="paint23_linear_222_1098" x1="736.181" y1="515.914" x2="595.73" y2="666.577" gradientUnits="userSpaceOnUse">
<stop stop-color="#AFB6E5"/>
<stop offset="0.1449" stop-color="#B6BCE8"/>
<stop offset="0.3485" stop-color="#C8CDF1"/>
<stop offset="0.5808" stop-color="#E5E9FF"/>
<stop offset="0.9546" stop-color="#F5F4FC"/>
<stop offset="1" stop-color="#F7F6FB"/>
</linearGradient>
<linearGradient id="paint24_linear_222_1098" x1="694.761" y1="562.548" x2="589.303" y2="675.551" gradientUnits="userSpaceOnUse">
<stop offset="0.0050505" stop-color="#FFE4A7"/>
<stop offset="0.0998" stop-color="#FAC098"/>
<stop offset="0.202" stop-color="#F49587"/>
<stop offset="0.4638" stop-color="#A142B5"/>
<stop offset="0.596" stop-color="#7C1DC9"/>
<stop offset="0.6346" stop-color="#7926CB"/>
<stop offset="0.6973" stop-color="#703ED1"/>
<stop offset="0.7764" stop-color="#6165DB"/>
<stop offset="0.8686" stop-color="#4C9CE9"/>
<stop offset="0.9709" stop-color="#32E1FA"/>
<stop offset="1" stop-color="#2AF6FF"/>
</linearGradient>
<linearGradient id="paint25_linear_222_1098" x1="112.033" y1="355.87" x2="112.033" y2="57.8279" gradientUnits="userSpaceOnUse">
<stop offset="0.0101" stop-color="#66CCFF"/>
<stop offset="1" stop-color="#66CCFF" stop-opacity="0"/>
</linearGradient>
<linearGradient id="paint26_linear_222_1098" x1="112.033" y1="651.269" x2="112.033" y2="353.228" gradientUnits="userSpaceOnUse">
<stop offset="0.0101" stop-color="#66CCFF"/>
<stop offset="1" stop-color="#66CCFF" stop-opacity="0"/>
</linearGradient>
<linearGradient id="paint27_linear_222_1098" x1="630.985" y1="348.015" x2="630.985" y2="49.9708" gradientUnits="userSpaceOnUse">
<stop offset="0.0101" stop-color="#66CCFF"/>
<stop offset="1" stop-color="#66CCFF" stop-opacity="0"/>
</linearGradient>
<linearGradient id="paint28_linear_222_1098" x1="630.985" y1="660.434" x2="630.985" y2="362.393" gradientUnits="userSpaceOnUse">
<stop offset="0.0101" stop-color="#66CCFF"/>
<stop offset="1" stop-color="#66CCFF" stop-opacity="0"/>
</linearGradient>
<linearGradient id="paint29_linear_222_1098" x1="276.026" y1="492.392" x2="488.131" y2="492.392" gradientUnits="userSpaceOnUse">
<stop stop-color="#CDD2F3"/>
<stop offset="0.4343" stop-color="#E5E9FF"/>
<stop offset="0.4834" stop-color="#EFF2FF"/>
<stop offset="0.5354" stop-color="white"/>
<stop offset="0.5905" stop-color="#EBEDF9"/>
<stop offset="0.7024" stop-color="#B9BFE8"/>
<stop offset="0.7222" stop-color="#AFB6E5"/>
<stop offset="0.9091" stop-color="#AFB6E5"/>
<stop offset="0.9503" stop-color="#BAC0EA"/>
<stop offset="1" stop-color="#CDD2F3"/>
</linearGradient>
<linearGradient id="paint30_linear_222_1098" x1="394.838" y1="424.025" x2="338.658" y2="531.482" gradientUnits="userSpaceOnUse">
<stop stop-color="#AFB6E5"/>
<stop offset="0.1449" stop-color="#B6BCE8"/>
<stop offset="0.3485" stop-color="#C8CDF1"/>
<stop offset="0.5808" stop-color="#E5E9FF"/>
<stop offset="0.8551" stop-color="#F5F6FF"/>
<stop offset="1" stop-color="white"/>
</linearGradient>
<linearGradient id="paint31_linear_222_1098" x1="18.1197" y1="252.008" x2="693.403" y2="400.22" gradientUnits="userSpaceOnUse">
<stop stop-color="#AFB6E5"/>
<stop offset="0.1449" stop-color="#B6BCE8"/>
<stop offset="0.3485" stop-color="#C8CDF1"/>
<stop offset="0.5808" stop-color="#E5E9FF"/>
<stop offset="0.8551" stop-color="#F5F6FF"/>
<stop offset="1" stop-color="white"/>
</linearGradient>
<linearGradient id="paint32_linear_222_1098" x1="329.468" y1="76.4849" x2="560.451" y2="539.242" gradientUnits="userSpaceOnUse">
<stop stop-color="#B3BAE7"/>
<stop offset="0.1919" stop-color="#B7BDE9"/>
<stop offset="0.2828" stop-color="#BAC0E9"/>
<stop offset="0.4091" stop-color="#AFB6E5"/>
<stop offset="0.9091" stop-color="#AFB6E5"/>
<stop offset="1" stop-color="#B3BAE7"/>
</linearGradient>
<linearGradient id="paint33_linear_222_1098" x1="329.373" y1="76.5628" x2="560.332" y2="539.313" gradientUnits="userSpaceOnUse">
<stop stop-color="#B4BBE8"/>
<stop offset="0.1919" stop-color="#B9BEEA"/>
<stop offset="0.2828" stop-color="#BCC2EA"/>
<stop offset="0.4091" stop-color="#B2B8E6"/>
<stop offset="0.4343" stop-color="#B2B8E6"/>
<stop offset="0.5354" stop-color="#B3B9E6"/>
<stop offset="0.7222" stop-color="#AFB6E5"/>
<stop offset="0.9091" stop-color="#AFB6E5"/>
<stop offset="1" stop-color="#B4BBE8"/>
</linearGradient>
<linearGradient id="paint34_linear_222_1098" x1="329.278" y1="76.6436" x2="560.237" y2="539.361" gradientUnits="userSpaceOnUse">
<stop stop-color="#B5BCE8"/>
<stop offset="0.1919" stop-color="#BAC0EA"/>
<stop offset="0.2828" stop-color="#BDC3EB"/>
<stop offset="0.4091" stop-color="#B4BBE7"/>
<stop offset="0.4343" stop-color="#B4BBE7"/>
<stop offset="0.5354" stop-color="#B7BDE7"/>
<stop offset="0.7222" stop-color="#AFB6E5"/>
<stop offset="0.9091" stop-color="#AFB6E5"/>
<stop offset="1" stop-color="#B5BCE8"/>
</linearGradient>
<linearGradient id="paint35_linear_222_1098" x1="329.183" y1="76.7243" x2="560.117" y2="539.408" gradientUnits="userSpaceOnUse">
<stop stop-color="#B7BDE9"/>
<stop offset="0.1919" stop-color="#BCC1EB"/>
<stop offset="0.2828" stop-color="#BFC5EC"/>
<stop offset="0.4091" stop-color="#B7BDE9"/>
<stop offset="0.4343" stop-color="#B7BDE9"/>
<stop offset="0.5354" stop-color="#BAC0E9"/>
<stop offset="0.7222" stop-color="#AFB6E5"/>
<stop offset="0.9091" stop-color="#AFB6E5"/>
<stop offset="1" stop-color="#B7BDE9"/>
</linearGradient>
<linearGradient id="paint36_linear_222_1098" x1="329.088" y1="76.8052" x2="560.022" y2="539.455" gradientUnits="userSpaceOnUse">
<stop stop-color="#B8BFE9"/>
<stop offset="0.1919" stop-color="#BDC3EC"/>
<stop offset="0.2828" stop-color="#C1C6EC"/>
<stop offset="0.4091" stop-color="#B9C0EA"/>
<stop offset="0.4343" stop-color="#B9C0EA"/>
<stop offset="0.5354" stop-color="#BEC4EA"/>
<stop offset="0.7222" stop-color="#AFB6E5"/>
<stop offset="0.9091" stop-color="#AFB6E5"/>
<stop offset="1" stop-color="#B8BFE9"/>
</linearGradient>
<linearGradient id="paint37_linear_222_1098" x1="328.992" y1="76.8862" x2="559.903" y2="539.527" gradientUnits="userSpaceOnUse">
<stop stop-color="#B9C0EA"/>
<stop offset="0.1919" stop-color="#BFC4ED"/>
<stop offset="0.2828" stop-color="#C2C8ED"/>
<stop offset="0.4091" stop-color="#BCC2EB"/>
<stop offset="0.4343" stop-color="#BCC2EB"/>
<stop offset="0.5354" stop-color="#C2C7EB"/>
<stop offset="0.7222" stop-color="#AFB6E5"/>
<stop offset="0.9091" stop-color="#AFB6E5"/>
<stop offset="1" stop-color="#B9C0EA"/>
</linearGradient>
<linearGradient id="paint38_linear_222_1098" x1="328.897" y1="76.9689" x2="559.784" y2="539.576" gradientUnits="userSpaceOnUse">
<stop stop-color="#BAC1EA"/>
<stop offset="0.1919" stop-color="#C0C6ED"/>
<stop offset="0.2828" stop-color="#C4C9EE"/>
<stop offset="0.4091" stop-color="#BEC4EC"/>
<stop offset="0.4343" stop-color="#BEC5EC"/>
<stop offset="0.5354" stop-color="#C6CBEC"/>
<stop offset="0.698" stop-color="#B2B9E6"/>
<stop offset="0.7222" stop-color="#AFB6E5"/>
<stop offset="0.9091" stop-color="#AFB6E5"/>
<stop offset="0.999" stop-color="#BAC1EA"/>
<stop offset="1" stop-color="#BAC1EA"/>
</linearGradient>
<linearGradient id="paint39_linear_222_1098" x1="328.802" y1="77.0498" x2="559.689" y2="539.624" gradientUnits="userSpaceOnUse">
<stop stop-color="#BCC2EB"/>
<stop offset="0.1919" stop-color="#C2C7EE"/>
<stop offset="0.2828" stop-color="#C6CBEF"/>
<stop offset="0.4091" stop-color="#C1C7ED"/>
<stop offset="0.4343" stop-color="#C1C7EE"/>
<stop offset="0.5354" stop-color="#CACEEE"/>
<stop offset="0.6768" stop-color="#B6BDE7"/>
<stop offset="0.7222" stop-color="#AFB6E5"/>
<stop offset="0.9091" stop-color="#AFB6E5"/>
<stop offset="0.9881" stop-color="#BAC0EA"/>
<stop offset="1" stop-color="#BCC2EB"/>
</linearGradient>
<linearGradient id="paint40_linear_222_1098" x1="328.707" y1="77.1278" x2="559.57" y2="539.671" gradientUnits="userSpaceOnUse">
<stop stop-color="#BDC3EC"/>
<stop offset="0.1919" stop-color="#C4C9EF"/>
<stop offset="0.2828" stop-color="#C7CDF0"/>
<stop offset="0.4091" stop-color="#C3C9EF"/>
<stop offset="0.4343" stop-color="#C4C9EF"/>
<stop offset="0.5354" stop-color="#CDD2EF"/>
<stop offset="0.6644" stop-color="#B9C0E8"/>
<stop offset="0.7222" stop-color="#AFB6E5"/>
<stop offset="0.9091" stop-color="#AFB6E5"/>
<stop offset="0.9836" stop-color="#BAC0EA"/>
<stop offset="1" stop-color="#BDC3EC"/>
</linearGradient>
<linearGradient id="paint41_linear_222_1098" x1="328.611" y1="77.2094" x2="559.475" y2="539.743" gradientUnits="userSpaceOnUse">
<stop stop-color="#BEC4EC"/>
<stop offset="0.1919" stop-color="#C5CAEF"/>
<stop offset="0.2828" stop-color="#C9CEF1"/>
<stop offset="0.4091" stop-color="#C6CBF0"/>
<stop offset="0.4343" stop-color="#C6CCF0"/>
<stop offset="0.5289" stop-color="#D0D4F0"/>
<stop offset="0.5354" stop-color="#D1D5F0"/>
<stop offset="0.651" stop-color="#BDC3EA"/>
<stop offset="0.7222" stop-color="#AFB6E5"/>
<stop offset="0.9091" stop-color="#AFB6E5"/>
<stop offset="0.9797" stop-color="#BAC0EA"/>
<stop offset="1" stop-color="#BEC4EC"/>
</linearGradient>
<linearGradient id="paint42_linear_222_1098" x1="328.516" y1="77.2896" x2="559.356" y2="539.79" gradientUnits="userSpaceOnUse">
<stop stop-color="#BFC5ED"/>
<stop offset="0.1919" stop-color="#C7CCF0"/>
<stop offset="0.2828" stop-color="#CBD0F2"/>
<stop offset="0.4091" stop-color="#C8CEF1"/>
<stop offset="0.4343" stop-color="#C9CEF1"/>
<stop offset="0.5228" stop-color="#D3D7F1"/>
<stop offset="0.5354" stop-color="#D5D9F1"/>
<stop offset="0.6403" stop-color="#C1C7EB"/>
<stop offset="0.7222" stop-color="#AFB6E5"/>
<stop offset="0.9091" stop-color="#AFB6E5"/>
<stop offset="0.9763" stop-color="#BAC0EA"/>
<stop offset="1" stop-color="#BFC5ED"/>
</linearGradient>
<linearGradient id="paint43_linear_222_1098" x1="328.421" y1="77.3699" x2="559.261" y2="539.837" gradientUnits="userSpaceOnUse">
<stop stop-color="#C1C7ED"/>
<stop offset="0.1919" stop-color="#C8CDF1"/>
<stop offset="0.2828" stop-color="#CCD1F2"/>
<stop offset="0.4091" stop-color="#CBD0F2"/>
<stop offset="0.4343" stop-color="#CBD1F3"/>
<stop offset="0.513" stop-color="#D5D9F3"/>
<stop offset="0.5354" stop-color="#D9DCF3"/>
<stop offset="0.6316" stop-color="#C5CAEC"/>
<stop offset="0.7222" stop-color="#AFB6E5"/>
<stop offset="0.9091" stop-color="#AFB6E5"/>
<stop offset="0.9704" stop-color="#BAC0EA"/>
<stop offset="1" stop-color="#C1C7ED"/>
</linearGradient>
<linearGradient id="paint44_linear_222_1098" x1="328.326" y1="77.4511" x2="559.141" y2="539.885" gradientUnits="userSpaceOnUse">
<stop stop-color="#C2C8EE"/>
<stop offset="0.1919" stop-color="#CACFF2"/>
<stop offset="0.2828" stop-color="#CED3F3"/>
<stop offset="0.4091" stop-color="#CDD3F3"/>
<stop offset="0.4343" stop-color="#CED3F4"/>
<stop offset="0.509" stop-color="#D8DCF4"/>
<stop offset="0.5354" stop-color="#DDE0F4"/>
<stop offset="0.6245" stop-color="#C9CEEE"/>
<stop offset="0.7222" stop-color="#AFB6E5"/>
<stop offset="0.9091" stop-color="#AFB6E5"/>
<stop offset="0.9679" stop-color="#BAC0EA"/>
<stop offset="1" stop-color="#C2C8EE"/>
</linearGradient>
<linearGradient id="paint45_linear_222_1098" x1="328.23" y1="77.532" x2="559.022" y2="539.956" gradientUnits="userSpaceOnUse">
<stop stop-color="#C3C9EE"/>
<stop offset="0.1919" stop-color="#CBD0F2"/>
<stop offset="0.2828" stop-color="#D0D4F4"/>
<stop offset="0.4091" stop-color="#D0D5F4"/>
<stop offset="0.4343" stop-color="#D0D6F5"/>
<stop offset="0.5022" stop-color="#DADEF5"/>
<stop offset="0.5354" stop-color="#E1E3F5"/>
<stop offset="0.6182" stop-color="#CDD1EF"/>
<stop offset="0.7222" stop-color="#AFB6E5"/>
<stop offset="0.9091" stop-color="#AFB6E5"/>
<stop offset="0.9656" stop-color="#BAC0EA"/>
<stop offset="1" stop-color="#C3C9EE"/>
</linearGradient>
<linearGradient id="paint46_linear_222_1098" x1="328.135" y1="77.6107" x2="558.927" y2="540.004" gradientUnits="userSpaceOnUse">
<stop stop-color="#C4CAEF"/>
<stop offset="0.1919" stop-color="#CDD2F3"/>
<stop offset="0.2828" stop-color="#D1D6F5"/>
<stop offset="0.4091" stop-color="#D2D7F6"/>
<stop offset="0.4343" stop-color="#D3D8F6"/>
<stop offset="0.5022" stop-color="#DDE1F6"/>
<stop offset="0.5354" stop-color="#E4E7F6"/>
<stop offset="0.6142" stop-color="#D0D5F0"/>
<stop offset="0.7222" stop-color="#AFB6E5"/>
<stop offset="0.9091" stop-color="#AFB6E5"/>
<stop offset="0.9635" stop-color="#BAC0EA"/>
<stop offset="1" stop-color="#C4CAEF"/>
</linearGradient>
<linearGradient id="paint47_linear_222_1098" x1="328.04" y1="77.6909" x2="558.808" y2="540.051" gradientUnits="userSpaceOnUse">
<stop stop-color="#C6CBF0"/>
<stop offset="0.1919" stop-color="#CFD3F4"/>
<stop offset="0.2828" stop-color="#D3D8F6"/>
<stop offset="0.4091" stop-color="#D5DAF7"/>
<stop offset="0.4343" stop-color="#D6DAF8"/>
<stop offset="0.4993" stop-color="#E0E3F8"/>
<stop offset="0.5354" stop-color="#E8EAF8"/>
<stop offset="0.6093" stop-color="#D4D8F1"/>
<stop offset="0.7222" stop-color="#AFB6E5"/>
<stop offset="0.9091" stop-color="#AFB6E5"/>
<stop offset="0.9597" stop-color="#BAC0EA"/>
<stop offset="1" stop-color="#C6CBF0"/>
</linearGradient>
<linearGradient id="paint48_linear_222_1098" x1="327.945" y1="77.7723" x2="558.713" y2="540.123" gradientUnits="userSpaceOnUse">
<stop stop-color="#C7CCF0"/>
<stop offset="0.1919" stop-color="#D0D5F4"/>
<stop offset="0.2828" stop-color="#D5D9F7"/>
<stop offset="0.4091" stop-color="#D7DCF8"/>
<stop offset="0.4343" stop-color="#D8DDF9"/>
<stop offset="0.4942" stop-color="#E2E6F9"/>
<stop offset="0.5354" stop-color="#ECEEF9"/>
<stop offset="0.6051" stop-color="#D8DCF3"/>
<stop offset="0.7222" stop-color="#AFB6E5"/>
<stop offset="0.9091" stop-color="#AFB6E5"/>
<stop offset="0.9581" stop-color="#BAC0EA"/>
<stop offset="1" stop-color="#C7CCF0"/>
</linearGradient>
<linearGradient id="paint49_linear_222_1098" x1="327.85" y1="77.8522" x2="558.594" y2="540.172" gradientUnits="userSpaceOnUse">
<stop stop-color="#C8CDF1"/>
<stop offset="0.1919" stop-color="#D2D6F5"/>
<stop offset="0.2828" stop-color="#D6DBF8"/>
<stop offset="0.4091" stop-color="#DADEF9"/>
<stop offset="0.4343" stop-color="#DBDFFA"/>
<stop offset="0.4921" stop-color="#E5E8FA"/>
<stop offset="0.5354" stop-color="#F0F1FA"/>
<stop offset="0.6013" stop-color="#DCDFF4"/>
<stop offset="0.7222" stop-color="#AFB6E5"/>
<stop offset="0.9091" stop-color="#AFB6E5"/>
<stop offset="0.9566" stop-color="#BAC0EA"/>
<stop offset="1" stop-color="#C8CDF1"/>
</linearGradient>
<linearGradient id="paint50_linear_222_1098" x1="327.754" y1="77.9314" x2="558.475" y2="540.217" gradientUnits="userSpaceOnUse">
<stop stop-color="#C9CFF1"/>
<stop offset="0.1919" stop-color="#D3D8F6"/>
<stop offset="0.2828" stop-color="#D8DCF8"/>
<stop offset="0.4091" stop-color="#DCE1FA"/>
<stop offset="0.4343" stop-color="#DDE2FB"/>
<stop offset="0.4882" stop-color="#E7EAFB"/>
<stop offset="0.5354" stop-color="#F4F5FB"/>
<stop offset="0.598" stop-color="#E0E3F5"/>
<stop offset="0.7222" stop-color="#AFB6E5"/>
<stop offset="0.9091" stop-color="#AFB6E5"/>
<stop offset="0.9551" stop-color="#BAC0EA"/>
<stop offset="1" stop-color="#C9CFF1"/>
</linearGradient>
<linearGradient id="paint51_linear_222_1098" x1="327.659" y1="78.0141" x2="558.38" y2="540.267" gradientUnits="userSpaceOnUse">
<stop stop-color="#CBD0F2"/>
<stop offset="0.1919" stop-color="#D5D9F7"/>
<stop offset="0.2828" stop-color="#DADEF9"/>
<stop offset="0.4091" stop-color="#DFE3FC"/>
<stop offset="0.4343" stop-color="#E0E4FD"/>
<stop offset="0.4882" stop-color="#EAEDFD"/>
<stop offset="0.5354" stop-color="#F7F8FD"/>
<stop offset="0.5957" stop-color="#E3E6F6"/>
<stop offset="0.7185" stop-color="#B1B8E6"/>
<stop offset="0.7222" stop-color="#AFB6E5"/>
<stop offset="0.9091" stop-color="#AFB6E5"/>
<stop offset="0.9526" stop-color="#BAC0EA"/>
<stop offset="1" stop-color="#CBD0F2"/>
</linearGradient>
<linearGradient id="paint52_linear_222_1098" x1="327.564" y1="78.0944" x2="558.261" y2="540.338" gradientUnits="userSpaceOnUse">
<stop stop-color="#CCD1F2"/>
<stop offset="0.1919" stop-color="#D6DBF7"/>
<stop offset="0.2828" stop-color="#DBDFFA"/>
<stop offset="0.4091" stop-color="#E1E6FD"/>
<stop offset="0.4343" stop-color="#E2E7FE"/>
<stop offset="0.4849" stop-color="#ECEFFE"/>
<stop offset="0.5354" stop-color="#FBFCFE"/>
<stop offset="0.593" stop-color="#E7EAF8"/>
<stop offset="0.7101" stop-color="#B5BBE7"/>
<stop offset="0.7222" stop-color="#AFB6E5"/>
<stop offset="0.9091" stop-color="#AFB6E5"/>
<stop offset="0.9514" stop-color="#BAC0EA"/>
<stop offset="1" stop-color="#CCD1F2"/>
</linearGradient>
<linearGradient id="paint53_linear_222_1098" x1="327.445" y1="78.1732" x2="558.165" y2="540.385" gradientUnits="userSpaceOnUse">
<stop stop-color="#CDD2F3"/>
<stop offset="0.4343" stop-color="#E5E9FF"/>
<stop offset="0.4834" stop-color="#EFF2FF"/>
<stop offset="0.5354" stop-color="white"/>
<stop offset="0.5905" stop-color="#EBEDF9"/>
<stop offset="0.7024" stop-color="#B9BFE8"/>
<stop offset="0.7222" stop-color="#AFB6E5"/>
<stop offset="0.9091" stop-color="#AFB6E5"/>
<stop offset="0.9503" stop-color="#BAC0EA"/>
<stop offset="1" stop-color="#CDD2F3"/>
</linearGradient>
</defs>
</svg>
