<svg width="32" height="32" viewBox="0 0 32 32" fill="none" xmlns="http://www.w3.org/2000/svg">
<path d="M25.0127 0H6.98728C3.13448 0 0 3.13448 0 6.98728V25.0127C0 28.8655 3.13448 32 6.98728 32H25.0127C28.8655 32 32 28.8655 32 25.0127V6.98728C32 3.13448 28.8655 0 25.0127 0ZM30.3505 25.0127C30.3505 27.956 27.956 30.3505 25.0127 30.3505H6.98728C4.04401 30.3505 1.64948 27.956 1.64948 25.0127V6.98728C1.64948 4.04401 4.04401 1.64948 6.98728 1.64948H25.0127C27.956 1.64948 30.3505 4.04401 30.3505 6.98728V25.0127ZM18.2714 14.4869L24.4966 6.72805C24.7816 6.37275 24.7247 5.85369 24.3694 5.56859C24.0141 5.28363 23.4951 5.34044 23.21 5.6958L17.214 13.169L11.2181 5.6958C11.0615 5.5007 10.8249 5.38715 10.5748 5.38715H5.71863C5.4014 5.38715 5.11228 5.56912 4.97504 5.85514C4.83781 6.14116 4.8768 6.48056 5.07533 6.72798L13.7285 17.5131L7.50337 25.272C7.21834 25.6273 7.27528 26.1463 7.63052 26.4314C7.7828 26.5535 7.96503 26.6129 8.14614 26.6129C8.38763 26.6129 8.62707 26.5072 8.78997 26.3042L14.786 18.831L20.7819 26.3042C20.9384 26.4993 21.175 26.6129 21.4252 26.6129H26.2813H26.2826C26.7381 26.6129 27.1074 26.2436 27.1074 25.7881C27.1074 25.5778 27.0287 25.386 26.8992 25.2403L18.2714 14.4869ZM21.8209 24.9634L7.43779 7.03664H10.1791L24.5622 24.9634H21.8209Z" fill="black"/>
</svg>
