<svg width="522" height="462" viewBox="0 0 522 462" fill="none" xmlns="http://www.w3.org/2000/svg">
<path d="M423.911 334.411H301.744C296.616 334.411 292.448 330.242 292.448 325.115V180.226C292.448 175.099 296.616 170.931 301.744 170.931H423.911C429.038 170.931 433.206 175.099 433.206 180.226V325.115C433.206 330.242 429.038 334.411 423.911 334.411Z" fill="#F4F4F4"/>
<path fill-rule="evenodd" clip-rule="evenodd" d="M356.151 284.725C341.654 289.926 326.015 285.241 316.609 274.175C314.358 271.52 312.477 268.532 311.039 265.212C310.719 264.474 310.424 263.724 310.153 262.962C307.424 255.327 307.424 247.322 309.674 240.129C312.957 229.727 320.85 220.949 331.916 216.965C335.568 215.674 339.294 215.01 342.945 214.899C358.106 214.42 372.528 223.678 377.913 238.728C384.59 257.466 374.852 278.048 356.151 284.725ZM369.43 241.789C365.372 230.465 354.601 223.531 343.24 223.899C340.474 223.973 337.671 224.49 334.941 225.449C326.678 228.436 320.74 235.002 318.268 242.822C316.609 248.207 316.572 254.183 318.637 259.937C318.834 260.503 319.055 261.068 319.301 261.634C320.371 264.105 321.81 266.355 323.469 268.347C330.552 276.647 342.244 280.151 353.126 276.241C367.143 271.224 374.446 255.806 369.43 241.789Z" fill="#CECECE"/>
<path d="M318.268 242.822L309.674 240.129C312.957 229.728 320.85 220.949 331.916 216.965C335.568 215.674 339.293 215.01 342.945 214.899L343.24 223.9C340.474 223.973 337.67 224.49 334.941 225.449C326.678 228.436 320.74 235.002 318.268 242.822Z" fill="#28D57A"/>
<path d="M319.301 261.634L311.039 265.212C310.719 264.474 310.424 263.724 310.153 262.962C307.424 255.327 307.424 247.322 309.674 240.129L318.268 242.822C316.609 248.207 316.572 254.183 318.637 259.937C318.834 260.503 319.055 261.068 319.301 261.634Z" fill="#26A073"/>
<path d="M316.609 274.175C314.359 271.52 312.478 268.532 311.039 265.212L319.302 261.634C320.371 264.105 321.81 266.356 323.47 268.347L316.609 274.175Z" fill="#037105"/>
<path fill-rule="evenodd" clip-rule="evenodd" d="M416.164 280.52C413.471 286.274 407.532 289.483 401.52 289.004C400.118 288.893 398.68 288.561 397.278 288.008C396.983 287.885 396.676 287.749 396.356 287.602C393.331 286.163 391.007 283.839 389.532 281.073C387.466 277.089 387.208 272.183 389.274 267.794C389.975 266.355 390.86 265.064 391.893 263.958C396.208 259.384 403.106 257.872 409.082 260.712C416.533 264.216 419.705 273.106 416.164 280.52ZM407.496 264.068C403.032 261.966 397.831 263.073 394.622 266.503C393.811 267.351 393.147 268.31 392.631 269.38C391.081 272.7 391.266 276.352 392.852 279.339C393.921 281.405 395.692 283.176 397.942 284.245C398.188 284.368 398.422 284.467 398.643 284.54C399.676 284.946 400.745 285.204 401.815 285.278C406.315 285.647 410.779 283.249 412.807 278.934C415.463 273.364 413.065 266.724 407.496 264.068Z" fill="#CECECE"/>
<path d="M392.852 279.339L389.532 281.073C387.466 277.089 387.208 272.183 389.274 267.794C389.975 266.355 390.86 265.064 391.893 263.958L394.622 266.503C393.811 267.351 393.147 268.31 392.631 269.38C391.081 272.7 391.266 276.352 392.852 279.339Z" fill="#26CA74"/>
<path d="M398.643 284.54L397.278 288.008C396.983 287.885 396.676 287.749 396.356 287.602C393.332 286.163 391.008 283.84 389.532 281.073L392.852 279.339C393.922 281.405 395.692 283.176 397.942 284.245C398.188 284.368 398.422 284.467 398.643 284.54Z" fill="#26A073"/>
<path fill-rule="evenodd" clip-rule="evenodd" d="M396.356 242.306C390.602 239.576 387.393 233.637 387.91 227.662C388.02 226.223 388.352 224.785 388.869 223.42C388.991 223.1 389.127 222.793 389.274 222.498C390.713 219.436 393.037 217.112 395.803 215.674C399.824 213.571 404.693 213.313 409.082 215.416C410.558 216.08 411.812 216.965 412.955 217.998C417.492 222.313 419.005 229.248 416.164 235.223C412.66 242.638 403.807 245.81 396.356 242.306ZM412.808 233.637C414.947 229.137 413.804 223.936 410.373 220.727C409.562 219.953 408.603 219.289 407.496 218.772C404.213 217.223 400.561 217.407 397.537 218.957C395.471 220.063 393.738 221.797 392.631 224.084C392.533 224.305 392.434 224.526 392.336 224.748C391.93 225.817 391.709 226.887 391.598 227.957C391.229 232.457 393.627 236.883 397.943 238.949C403.512 241.568 410.189 239.207 412.808 233.637Z" fill="#CECECE"/>
<path d="M397.536 218.957L395.803 215.674C399.823 213.571 404.692 213.313 409.082 215.416C410.557 216.079 411.811 216.965 412.955 217.998L410.373 220.727C409.561 219.953 408.602 219.289 407.496 218.772C404.213 217.223 400.561 217.407 397.536 218.957Z" fill="#CECECE"/>
<path d="M392.336 224.748L388.868 223.42C388.991 223.1 389.126 222.793 389.274 222.498C390.713 219.436 393.036 217.112 395.803 215.674L397.536 218.957C395.471 220.063 393.737 221.797 392.631 224.084C392.532 224.305 392.434 224.526 392.336 224.748Z" fill="#26A073"/>
<path d="M387.909 227.662C388.02 226.223 388.352 224.785 388.868 223.42L392.336 224.748C391.93 225.817 391.708 226.887 391.598 227.957L387.909 227.662Z" fill="#037105"/>
<path d="M398.164 298.815H370.389V298.262H397.611V287.749H398.164V298.815Z" fill="#E5F2FD"/>
<path d="M345.822 298.815H309.674V298.262H345.269V281.073H345.822V298.815Z" fill="#E5F2FD"/>
<path d="M334.572 295.828H309.674V292.508H334.572V295.828Z" fill="#CECECE"/>
<path d="M384.996 295.828H370.389V292.508H384.996V295.828Z" fill="#CECECE"/>
<path d="M315.945 187.493H304.067V184.948H315.945V187.493Z" fill="#CECECE"/>
<path d="M372.122 197.083H353.679V194.538H372.122V197.083Z" fill="#CECECE"/>
<path d="M341.064 197.083H329.776V194.538H341.064V197.083Z" fill="#CECECE"/>
<path d="M326.384 197.083H304.067V194.538H326.384V197.083Z" fill="#CECECE"/>
<path d="M337.227 187.493H319.596V184.948H337.227V187.493Z" fill="#CECECE"/>
<path d="M349.438 197.083H344.605V194.538H349.438V197.083Z" fill="#CECECE"/>
<path d="M372.122 187.64H358.954V185.095H372.122V187.64Z" fill="#CECECE"/>
<path d="M388.057 197.083H376.844V194.538H388.057V197.083Z" fill="#CECECE"/>
<path d="M355.523 187.64H341.543V185.095H355.523V187.64Z" fill="#CECECE"/>
<path d="M140.144 166.394C148.259 184.136 152.833 200.882 146.858 208.37C146.489 208.813 146.095 209.219 145.677 209.588C141.103 213.645 132.029 213.719 116.759 207.669C76.0731 191.624 74.1181 163.886 65.8925 136.774C57.7775 110.032 29.4489 114.569 28.748 114.679C94.7744 91.6992 126.386 136.368 140.144 166.394Z" fill="#21AD63"/>
<path d="M146.858 208.37C146.489 208.813 146.096 209.219 145.678 209.588C138.042 204.977 123.435 195.202 116.501 184.247C113.255 179.083 110.525 173.255 107.611 167.095C102.152 155.476 96.4714 143.451 86.5859 134.229L87.6925 133.012C97.7994 142.492 103.554 154.664 109.087 166.431C111.964 172.517 114.693 178.308 117.902 183.398C124.616 194.058 139.407 203.87 146.858 208.37Z" fill="#21AD63"/>
<path d="M133.063 173.66C132.583 174.804 132.288 175.505 132.251 175.578C132.128 174.914 132.005 174.275 131.882 173.66C126.46 145.848 119.194 142.934 97.4308 118.589C75.1884 93.7279 87.9879 70.5265 87.9879 70.5265C162.535 92.068 138.153 161.193 133.063 173.66Z" fill="#21AD63"/>
<path d="M133.062 173.66C132.583 174.804 132.288 175.505 132.251 175.578C132.128 174.914 132.005 174.275 131.882 173.66C134.317 149.61 119.783 121.393 115.246 116.339C110.525 111.101 107.611 103.872 106.504 101.179C106.32 100.699 106.172 100.294 106.099 100.183L107.168 99.5928C107.242 99.7403 107.39 100.035 107.648 100.699C108.718 103.355 111.558 110.437 116.132 115.528C121.923 121.946 135.313 150.274 133.062 173.66Z" fill="#53D0A2"/>
<path d="M464.744 163.664H138.116C128.6 163.664 120.854 155.955 120.854 146.438V46.8086C120.854 37.2919 128.6 29.5827 138.116 29.5827H464.744C474.261 29.5827 481.97 37.2919 481.97 46.8086V146.438C481.97 155.955 474.261 163.664 464.744 163.664Z" fill="#F4F4F4"/>
<path d="M451.17 72.5183H407.054V68.092H451.17V72.5183Z" fill="#CDCDCD"/>
<path d="M457.772 86.2031H407.054V81.7767H457.772V86.2031Z" fill="#CDCDCD"/>
<path d="M433.206 99.851H406.979V95.4247H433.206V99.851Z" fill="#CDCDCD"/>
<path d="M447.407 113.462H406.979V109.036H447.407V113.462Z" fill="#CDCDCD"/>
<path d="M275.185 324.931H139.775V320.394H275.185V324.931Z" fill="white"/>
<path d="M240.327 303.795H139.775V299.258H240.327V303.795Z" fill="url(#paint0_linear_421_180)"/>
<path d="M248.442 314.344H139.775V309.807H248.442V314.344Z" fill="url(#paint1_linear_421_180)"/>
<path d="M210.265 324.931H139.775V320.394H210.265V324.931Z" fill="url(#paint2_linear_421_180)"/>
<path d="M207.315 156.176H167.994V151.344H207.315V156.176Z" fill="#D4D4D4"/>
<path d="M216.868 147.545H158.44V142.713H216.868V147.545Z" fill="#D4D4D4"/>
<path d="M197.908 76.2069C197.908 81.8136 193.371 86.3507 187.765 86.3507C182.121 86.3507 177.584 81.8136 177.584 76.2069C177.584 70.6002 182.121 66.0263 187.765 66.0263C193.371 66.0263 197.908 70.6002 197.908 76.2069Z" fill="#21AD63"/>
<path d="M206.061 109.294V128.622C200.454 131.167 194.22 132.606 187.654 132.606C181.089 132.606 174.855 131.167 169.248 128.622V109.294C169.248 99.1502 177.474 90.8877 187.654 90.8877C197.835 90.8877 206.061 99.1502 206.061 109.294Z" fill="#21AD63"/>
<path d="M345.822 67.2805H251.209V61.1574H345.822V67.2805Z" fill="white"/>
<path d="M392.741 67.2805H355.966V61.1574H392.741V67.2805Z" fill="white"/>
<path d="M295.657 53.3743H251.209V47.2881H295.657V53.3743Z" fill="white"/>
<path fill-rule="evenodd" clip-rule="evenodd" d="M187.654 133.786C181.051 133.786 174.707 132.422 168.731 129.729C152.428 122.315 141.915 105.937 141.915 88.0474C141.915 62.8172 162.424 42.2716 187.654 42.2716C212.884 42.2716 233.393 62.8172 233.393 88.0474C233.393 105.937 222.88 122.315 206.577 129.729C200.601 132.422 194.257 133.786 187.654 133.786ZM187.654 44.7061C163.752 44.7061 144.313 64.1451 144.313 88.0474C144.313 105.015 154.309 120.507 169.764 127.516C175.371 130.098 181.42 131.389 187.654 131.389C193.925 131.389 199.937 130.098 205.581 127.516C220.999 120.507 230.995 105.015 230.995 88.0474C230.995 64.1451 211.556 44.7061 187.654 44.7061Z" fill="url(#paint3_linear_421_180)"/>
<path d="M374.409 349.792H351.245C347.814 349.792 345.048 346.989 345.048 343.558V320.431C345.048 317 347.814 314.197 351.245 314.197H374.409C377.84 314.197 380.606 317 380.606 320.431V343.558C380.606 346.989 377.84 349.792 374.409 349.792Z" fill="white"/>
<path d="M364.523 339.058H361.13V324.931H364.523V339.058Z" fill="#C5CACF"/>
<path d="M355.745 333.673V330.316H369.909V333.673H355.745Z" fill="#C5CACF"/>
<path d="M260.357 137.401H257.923V78.8259H260.357V137.401Z" fill="#DFDFDF"/>
<path d="M271.46 137.401H269.025V78.8259H271.46V137.401Z" fill="#DFDFDF"/>
<path d="M282.562 137.401H280.128V78.8259H282.562V137.401Z" fill="#DFDFDF"/>
<path d="M293.666 137.401H291.231V78.8259H293.666V137.401Z" fill="#DFDFDF"/>
<path d="M304.768 137.401H302.334V78.8259H304.768V137.401Z" fill="#DFDFDF"/>
<path d="M315.834 137.401H313.437V78.8259H315.834V137.401Z" fill="#DFDFDF"/>
<path d="M326.937 137.401H324.539V78.8259H326.937V137.401Z" fill="#DFDFDF"/>
<path d="M338.039 137.401H335.642V78.8259H338.039V137.401Z" fill="#DFDFDF"/>
<path d="M349.143 137.401H346.745V78.8259H349.143V137.401Z" fill="#DFDFDF"/>
<path d="M360.245 137.401H357.848V78.8259H360.245V137.401Z" fill="#DFDFDF"/>
<path d="M371.348 137.401H368.913V78.8259H371.348V137.401Z" fill="#DFDFDF"/>
<path d="M382.451 137.401H380.017V78.8259H382.451V137.401Z" fill="#DFDFDF"/>
<path d="M260.357 137.401H257.923V96.3468H260.357V137.401Z" fill="#41BF8A"/>
<path d="M271.46 137.401H269.025V110.548H271.46V137.401Z" fill="#41BF8A"/>
<path d="M282.562 137.401H280.128V87.2728H282.562V137.401Z" fill="#41BF8A"/>
<path d="M293.666 137.401H291.231V122.794H293.666V137.401Z" fill="#41BF8A"/>
<path d="M304.768 137.401H302.334V108.113H304.768V137.401Z" fill="#41BF8A"/>
<path d="M315.834 137.401H313.437V97.1583H315.834V137.401Z" fill="#41BF8A"/>
<path d="M326.937 137.401H324.539V111.433H326.937V137.401Z" fill="#41BF8A"/>
<path d="M338.039 137.401H335.642V93.4328H338.039V137.401Z" fill="#41BF8A"/>
<path d="M349.143 137.401H346.745V113.241H349.143V137.401Z" fill="#41BF8A"/>
<path d="M360.245 137.401H357.848V98.7444H360.245V137.401Z" fill="#41BF8A"/>
<path d="M371.348 137.401H368.913V118.073H371.348V137.401Z" fill="#41BF8A"/>
<path d="M382.451 137.401H380.017V98.7444H382.451V137.401Z" fill="#41BF8A"/>
<path d="M271.091 378.711H69.7292C62.647 378.711 56.9297 372.994 56.9297 365.948V183.693C56.9297 176.648 62.647 170.931 69.7292 170.931H271.091C278.136 170.931 283.854 176.648 283.854 183.73V365.948C283.854 372.994 278.136 378.711 271.091 378.711Z" fill="#F4F4F4"/>
<path fill-rule="evenodd" clip-rule="evenodd" d="M100.234 253.187C86.8811 248.392 78.6555 235.629 79.0612 222.166C79.1719 218.92 79.7621 215.6 80.9424 212.354C84.4466 202.579 92.2296 195.534 101.451 192.657C107.869 190.628 114.952 190.628 121.739 193.063C122.403 193.308 123.066 193.567 123.73 193.837C126.681 195.128 129.337 196.788 131.661 198.78C141.473 207.153 145.641 221.022 141.03 233.859C135.091 250.458 116.833 259.126 100.234 253.187ZM133.505 231.166C136.973 221.539 133.837 211.137 126.497 204.903C124.726 203.391 122.735 202.137 120.521 201.178C120.054 200.956 119.562 200.759 119.046 200.587C113.956 198.78 108.644 198.78 103.849 200.292C96.951 202.432 91.0861 207.706 88.4672 215.047C87.5819 217.481 87.1393 219.953 87.0655 222.387C86.7335 232.494 92.8935 242.084 102.927 245.662C115.357 250.089 129.079 243.634 133.505 231.166Z" fill="#28D57A"/>
<path d="M103.849 200.292L101.451 192.657C92.2299 195.534 84.4469 202.579 80.9427 212.354C79.7624 215.6 79.1722 218.92 79.0615 222.166L87.0658 222.387C87.1396 219.953 87.5822 217.481 88.4675 215.047C91.0864 207.706 96.9513 202.432 103.849 200.292Z" fill="#037105"/>
<path d="M120.521 201.178L123.73 193.837C123.067 193.567 122.403 193.308 121.739 193.063C114.952 190.628 107.869 190.628 101.451 192.657L103.849 200.292C108.644 198.78 113.956 198.78 119.046 200.587C119.562 200.759 120.054 200.956 120.521 201.178Z" fill="#26A073"/>
<path d="M131.661 198.78C129.337 196.788 126.681 195.128 123.731 193.837L120.521 201.178C122.735 202.137 124.726 203.391 126.497 204.903L131.661 198.78Z" fill="#CECECE"/>
<path d="M242.652 298.668H231.549V336.624H242.652V298.668Z" fill="#CECECE"/>
<path d="M226.164 309.328H215.098V336.624H226.164V309.328Z" fill="#CECECE"/>
<path d="M258.623 281.073H247.521V336.624H258.623V281.073Z" fill="#CECECE"/>
<path d="M256.816 253.335L256.632 252.154L227.381 256.95L217.901 277.126L186.401 279.266L176.183 294.315L152.096 293.725L152.06 294.942L176.81 295.569L187.065 280.446L218.713 278.307L228.23 258.019L256.816 253.335Z" fill="#CECECE"/>
<path d="M221.11 202.764H252.611C254.603 202.764 256.189 201.177 256.189 199.186C256.189 197.194 254.603 195.571 252.611 195.571H221.11C219.118 195.571 217.495 197.194 217.495 199.186C217.495 201.177 219.118 202.764 221.11 202.764Z" fill="#26CA74"/>
<path d="M221.11 215.342H252.611C254.603 215.342 256.189 213.719 256.189 211.727C256.189 209.772 254.603 208.149 252.611 208.149H221.11C219.118 208.149 217.495 209.772 217.495 211.727C217.495 213.719 219.118 215.342 221.11 215.342Z" fill="#CECECE"/>
<path d="M221.11 227.92H252.611C254.603 227.92 256.189 226.297 256.189 224.305C256.189 222.313 254.603 220.69 252.611 220.69H221.11C219.118 220.69 217.495 222.313 217.495 224.305C217.495 226.297 219.118 227.92 221.11 227.92Z" fill="#CECECE"/>
<path d="M164.084 208.997H146.047V208.333H163.789L173.269 198.817H184.888V199.518H173.564L164.084 208.997Z" fill="#CECECE"/>
<path d="M181.163 240.498H157.961L150.437 232.973L150.953 232.494L158.256 239.797H181.163V240.498Z" fill="#CECECE"/>
<path d="M199.016 206.342H175.003V203.391H199.016V206.342Z" fill="#26CA74"/>
<path d="M186.991 236.441H167.662V233.49H186.991V236.441Z" fill="#26CA74"/>
<path d="M6.13701 247.617C12.1864 244.703 18.1988 263.995 18.1988 263.995C28.49 277.606 42.8757 259.495 41.474 279.819C39.0395 315.414 82.4177 291.032 62.3885 328.14C42.3962 365.284 80.0939 349.165 67.6263 379.117C55.1957 409.031 71.315 444.774 52.6137 430.093C52.6137 430.093 36.1255 393.945 19.1209 382.732C2.11639 371.555 29.3015 358.276 23.9899 343.079C16.2438 321.021 -2.38373 321.906 11.0429 298.188C24.4694 274.47 -14.4455 257.466 6.13701 247.617Z" fill="#21AD63"/>
<path d="M58.5151 416.482C50.4001 410.765 40.9203 371.002 40.3302 347.284C40.072 335.148 36.4571 330.095 33.3218 325.632C30.2971 321.39 27.6782 317.701 29.1905 309.254C32.1045 293.098 24.4322 286.09 24.3584 286.053L25.2437 285.02C25.6125 285.315 33.58 292.508 30.5184 309.475C29.0799 317.369 31.4406 320.689 34.3915 324.857C37.5268 329.246 41.3998 334.706 41.6949 347.284C42.2851 372.698 52.0231 410.249 59.2897 415.376L58.5151 416.482Z" fill="white"/>
<path fill-rule="evenodd" clip-rule="evenodd" d="M61.5774 419.433C60.5199 419.433 59.3765 419.31 58.147 419.064C55.0116 418.437 52.946 416.777 52.0238 414.158C49.8475 407.888 54.9378 397.744 59.0322 392.838C59.106 392.764 66.0037 384.318 65.266 372.661C65.1184 370.707 64.934 368.899 64.7496 367.313C64.2332 362.702 63.8643 359.346 65.8561 357.132C67.5898 355.141 70.9464 354.292 77.1064 354.292C87.9141 354.218 92.1929 349.755 95.6234 346.177C97.0988 344.628 98.4636 343.189 100.123 342.267C105.509 339.353 111.226 338.911 113.698 341.271C114.878 342.378 115.874 344.554 113.919 348.612C112.148 352.337 109.825 354.698 107.98 356.579C105.472 359.124 103.849 360.784 104.697 364.141C104.882 364.952 105.14 365.727 105.361 366.538C107.021 372.219 108.902 378.674 99.1644 383.063C97.0988 383.986 95.2176 384.723 93.5577 385.387C86.7338 388.043 82.6394 389.666 77.9917 399.441C77.1065 401.359 76.295 403.13 75.5572 404.863C71.9055 413.163 69.139 419.433 61.5774 419.433ZM100.787 343.448C99.2751 344.259 98.0578 345.587 96.5824 347.099C93.0044 350.862 88.5043 355.583 77.1434 355.62C71.4629 355.657 68.2907 356.395 66.8521 358.018C65.266 359.788 65.598 362.887 66.0775 367.165C66.2619 368.752 66.4832 370.596 66.5939 372.588C67.3685 384.797 60.3601 393.318 60.065 393.687C56.0075 398.556 51.3967 408.183 53.3148 413.716C54.0526 415.855 55.7862 417.22 58.4051 417.736C67.5898 419.581 70.0981 413.863 74.3031 404.347C75.0777 402.576 75.8892 400.806 76.7745 398.888C81.6435 388.596 86.1805 386.826 93.0413 384.133C94.7012 383.469 96.5824 382.768 98.6111 381.846C107.279 377.936 105.73 372.588 104.07 366.907C103.849 366.096 103.591 365.284 103.406 364.473C102.337 360.415 104.402 358.313 107.021 355.62C108.902 353.739 111.005 351.563 112.702 348.022C113.587 346.177 114.325 343.706 112.775 342.23C110.747 340.312 105.583 340.829 100.787 343.448Z" fill="#41BF8A"/>
<path d="M58.2945 427.179L56.9297 427.106C57.0035 425.852 58.7002 396.158 70.6145 387.49C83.7091 377.936 87.8035 367.682 89.7953 360.821C92.0823 352.706 103.886 350.567 104.365 350.456L104.587 351.784C104.476 351.821 93.152 353.886 91.0863 361.19C89.0576 368.272 84.8157 378.785 71.3891 388.56C59.9912 396.859 58.2945 426.884 58.2945 427.179Z" fill="#41BF8A"/>
<path d="M85.5161 277.569C77.0692 274.655 78.8028 290.995 75.2249 303.057C71.6469 315.156 35.4247 308.332 50.6218 338.616C65.8558 368.862 31.404 348.722 41.6953 375.133C51.9865 401.507 42.5806 429.761 53.7571 422.569C64.9336 415.376 60.0646 382.141 71.6838 378.194C83.303 374.248 85.2211 369.637 73.7126 358.903C62.1672 348.169 103.885 337.509 93.5942 315.82C83.303 294.131 95.3279 280.925 85.5161 277.569Z" fill="#21AD63"/>
<path d="M58.9584 421.314C57.8887 416.777 48.7778 377.014 57.2985 372.219C64.7495 367.977 64.5651 351.489 63.4216 335.923C62.3888 322.164 80.0573 315.709 80.832 315.451L81.2746 316.705C81.0901 316.779 63.7905 323.086 64.7495 335.812C65.9299 351.821 66.0774 368.752 57.9256 373.362C51.5074 377.014 57.4461 408.994 60.2494 420.982L58.9584 421.314Z" fill="white"/>
<path d="M78.2125 407.15L66.1138 453.037H39.0762L26.9775 407.15H78.2125Z" fill="url(#paint4_linear_421_180)"/>
<path d="M78.2125 407.15C78.2125 407.15 51.5806 412.13 51.5806 453.037H39.0762L26.9775 407.15H78.2125Z" fill="url(#paint5_linear_421_180)"/>
<path d="M151.358 11.3241V15.234H113.402V53.153H109.529V11.3241H151.358Z" fill="#CDCDCD"/>
<path d="M494.732 2.17629H463.821V0H494.732V2.17629Z" fill="#CDCDCD"/>
<path d="M494.732 13.1684H463.821V4.09436H494.732V13.1684Z" fill="#CDCDCD"/>
<path d="M460.87 8.88961H442.648V7.52481H460.87V8.88961Z" fill="#CDCDCD"/>
<path d="M460.87 13.1684H442.648V9.47974H460.87V13.1684Z" fill="#CDCDCD"/>
<path d="M495.396 0H494.031V25.4884H495.396V0Z" fill="#CDCDCD"/>
<path d="M153.867 347.542H115.764V349.792H153.867V347.542Z" fill="#DCD0C8"/>
<path d="M120.854 458.57H124.21V355.694H120.854V458.57Z" fill="#6D6865"/>
<path d="M174.376 346.878H147.892V350.124H174.376V346.878Z" fill="#C6BBB5"/>
<path d="M166.15 349.792H156.117V319.324H166.15V349.792Z" fill="#948C87"/>
<path d="M248.848 355.694H102.078V349.829H248.848V355.694Z" fill="#A98E75"/>
<path d="M73.8974 314.418C73.8974 314.418 72.3113 336.919 76.7008 339.648C79.4672 341.308 90.4593 347.026 90.1274 348.058C89.7954 349.128 83.9305 357.575 83.9305 357.575C83.9305 357.575 62.8315 343.669 62.1307 339.316C61.4668 335.038 63.1636 306.34 66.0776 305.012C68.2539 304.016 69.3973 304.865 72.1269 306.893C75.963 309.734 73.8974 314.418 73.8974 314.418Z" fill="white"/>
<path d="M99.865 444.516C99.865 444.516 99.238 449.053 99.1273 449.754C99.0535 450.418 91.8238 449.348 91.8238 449.348L91.2705 443.926C91.2705 443.926 98.9797 443.852 99.865 444.516Z" fill="#454971"/>
<path d="M99.2012 449.164C99.2012 449.164 101.488 451.93 103.701 453.11C105.915 454.291 109.419 454.77 110.71 456.024C111.669 456.91 114.14 460.746 104.955 460.672C95.7708 460.598 91.3444 461.225 90.3485 459.75C89.3895 458.274 91.7871 448.868 91.7871 448.868C91.7871 448.868 93.9634 449.643 99.2012 449.164Z" fill="#2E3048"/>
<path d="M146.121 444.553C146.121 444.553 145.457 449.09 145.383 449.791C145.309 450.492 138.079 449.385 138.079 449.385L137.489 443.963C137.489 443.963 145.198 443.926 146.121 444.553Z" fill="#454971"/>
<path d="M145.456 449.2C145.456 449.2 147.743 451.967 149.956 453.147C152.17 454.365 160.321 455.324 161.612 456.578C162.571 457.463 164.121 461.078 151.211 460.709C142.026 460.488 137.6 461.262 136.604 459.787C135.608 458.311 138.042 448.905 138.042 448.905C138.042 448.905 140.071 449.754 145.456 449.2Z" fill="#2E3048"/>
<path d="M76.5898 365.838C76.5898 365.838 102.853 370.264 108.755 371.186C114.693 372.145 146.821 380.149 150.842 382.584C154.051 384.502 149.182 431.089 148.038 448.868H135.386L134.464 395.568C119.267 395.937 108.423 391.99 97.3567 393.687C86.2908 395.347 77.0692 397.744 70.0609 388.301C70.0609 388.301 69.8027 367.903 76.5898 365.838Z" fill="#2E3048"/>
<path d="M102.448 448.905L90.1276 448.131L88.9104 395.568C82.3815 395.715 80.1315 395.31 74.8567 394.646L64.8975 371.518C73.6395 373.252 101.599 380.297 105.325 382.584C108.497 384.502 103.591 431.126 102.448 448.905Z" fill="#2E3048"/>
<path d="M88.6883 267.462C88.6883 267.462 98.2787 264.806 101.967 272.294C105.619 279.745 103.959 293.909 99.1271 295.237C94.2581 296.565 87.2866 295.053 85.2948 290.405C83.266 285.758 81.6799 279.155 82.1595 274.876C82.639 270.597 86.1063 268.495 88.6883 267.462Z" fill="#DBA585"/>
<path d="M96.6194 293.762C96.6194 293.762 96.5087 299.442 97.1358 300.623C97.7629 301.84 83.7461 301.545 83.7461 301.545C83.7461 301.545 85.9593 294.721 84.7052 288.93C83.451 283.176 96.6194 293.762 96.6194 293.762Z" fill="#DBA585"/>
<path d="M83.9303 286.754C83.9303 286.754 84.7049 288.303 88.3197 288.045C91.9346 287.786 96.7298 283.434 98.279 283.028C99.8282 282.622 99.902 281.774 99.902 281.774L100.714 283.212L102.3 283.434C102.3 283.434 101.23 279.044 103.554 277.532C105.914 275.983 102.521 263.515 90.6805 266.54C90.6805 266.54 81.6433 268.2 81.5327 273.216C81.3851 278.27 82.1966 284.098 83.9303 286.754Z" fill="#3E4148"/>
<path d="M97.8737 300.475C97.8737 300.475 97.8368 298.188 96.7671 297.967C95.7343 297.746 85.775 296.381 84.484 296.86L83.9307 299.922C83.9307 299.922 86.4021 301.434 97.8737 300.475Z" fill="#DCD0C8"/>
<path d="M100.751 280.741C100.493 278.823 98.3164 276.647 97.0991 279.598C95.845 282.549 97.9106 286.864 99.3123 286.643C100.714 286.385 101.12 283.286 100.751 280.741Z" fill="#DBA585"/>
<path d="M139.629 327.808C139.703 327.857 139.703 327.857 139.629 327.808Z" fill="#363957"/>
<path d="M85.8857 268.827C85.8857 268.827 74.1559 268.274 83.8201 286.569L85.8857 268.827Z" fill="#3E4148"/>
<path d="M59.7334 455.139L60.6187 457.611L97.468 446.176L95.6975 441.196L59.7334 455.139Z" fill="#8C8581"/>
<path d="M98.7219 444.442H94.5537V404.347H98.7219V444.442Z" fill="#8C8581"/>
<path d="M109.013 404.568H84.2988V402.207H109.013V404.568Z" fill="#5D5955"/>
<path d="M133.874 455.139L132.989 457.61L96.1396 446.176L97.7626 440.901L133.874 455.139Z" fill="#8C8581"/>
<path d="M107.906 457.315V460.193L96.1396 446.176L97.7626 440.901L107.906 457.315Z" fill="#8C8581"/>
<path d="M137.305 458.569C137.305 460.451 135.793 462 133.875 462C131.957 462 130.444 460.451 130.444 458.569C130.444 456.651 131.957 455.102 133.875 455.102C135.793 455.102 137.305 456.651 137.305 458.569Z" fill="#B9AFAA"/>
<path d="M108.201 458.569C108.201 460.451 106.652 462 104.734 462C102.853 462 101.304 460.451 101.304 458.569C101.304 456.651 102.853 455.102 104.734 455.102C106.652 455.102 108.201 456.651 108.201 458.569Z" fill="#B9AFAA"/>
<path d="M63.2004 458.569C63.2004 460.451 61.6512 462 59.7331 462C57.8519 462 56.3027 460.451 56.3027 458.569C56.3027 456.651 57.8519 455.102 59.7331 455.102C61.6512 455.102 63.2004 456.651 63.2004 458.569Z" fill="#B9AFAA"/>
<path d="M121.997 402.207H71.61C69.36 402.207 67.5156 400.4 67.5156 398.15V397.338C67.5156 395.088 69.36 393.281 71.61 393.281H121.997C124.247 393.281 126.091 395.088 126.091 397.338V398.15C126.091 400.4 124.247 402.207 121.997 402.207Z" fill="#DCD0C8"/>
<path d="M230.073 458.57H226.717V355.694H230.073V458.57Z" fill="#6D6865"/>
<path d="M200.38 334.005H121.923C119.673 334.005 117.829 332.16 117.829 329.91V276.979C117.829 274.729 119.673 272.884 121.923 272.884H200.38C202.631 272.884 204.438 274.729 204.438 276.979V329.91C204.438 332.16 202.631 334.005 200.38 334.005Z" fill="#B2A8A3"/>
<path d="M201.044 324.414H121.223V276.204H201.044V324.414Z" fill="#F4F6FF"/>
<path d="M197.503 328.988C197.503 330.353 196.065 331.46 194.294 331.46C192.524 331.46 191.085 330.353 191.085 328.988C191.085 327.587 192.524 326.48 194.294 326.48C196.065 326.48 197.503 327.587 197.503 328.988Z" fill="#8C8480"/>
<path d="M179.06 349.903V348.833C179.06 348.833 177.547 342.046 166.74 342.046C155.932 342.046 156.116 349.903 156.116 349.903H179.06Z" fill="#948C87"/>
<path d="M156.006 343.079C156.006 343.079 158.366 342.894 159.215 342.378C160.063 341.825 165.227 338.394 166.444 338.947C167.625 339.501 175.703 341.935 175.408 343.116C175.113 344.296 174.375 344.185 173.822 344.001C173.268 343.78 167.404 342.562 166.887 342.747C166.887 342.747 172.641 344.849 172.641 346.362C172.678 347.911 171.461 348.28 170.908 348.87C170.354 349.423 169.727 350.862 168.215 350.972C166.74 351.083 159.547 348.575 158.034 348.464C156.559 348.353 153.792 348.538 153.608 348.317C153.424 348.058 156.006 343.079 156.006 343.079Z" fill="#DBA585"/>
<path d="M113.255 303.684C105.767 302.393 97.8739 300.475 97.8739 300.475L83.9308 299.922C83.9308 299.922 71.1314 302.725 66.0779 305.012C65.5984 305.234 65.5984 316.447 64.2705 319.361L68.4755 328.214C68.4755 328.214 70.8731 345.661 71.3895 353.444C71.6108 356.985 70.7256 387.896 70.7256 387.896C70.7256 387.896 71.9797 388.523 81.4964 389.555C91.013 390.625 114.805 389.187 114.952 388.08C115.1 386.936 110.341 346.214 110.12 344.075C109.825 340.866 111.079 325.89 111.079 325.89C112.887 328.287 117.424 339.169 122.219 344.333C125.022 347.394 138.891 349.276 141.51 349.349C147.191 349.534 157.593 350.677 157.888 350.124C158.146 349.792 158.81 340.902 158.146 340.681C157.593 340.497 138.301 339.39 133.358 336.771C131.551 335.812 126.129 324.009 126.129 324.009C126.129 324.009 117.387 305.565 113.255 303.684Z" fill="white"/>
<path d="M86.4018 387.01H61.6881C57.3724 387.01 53.8682 383.506 53.8682 379.154V338.948C53.8682 334.595 57.3724 331.091 61.6881 331.091H86.4018C90.7175 331.091 94.2217 334.595 94.2217 338.948V379.154C94.2217 383.506 90.7175 387.01 86.4018 387.01Z" fill="#DCD0C8"/>
<path d="M87.0659 399.994C81.1272 399.994 76.2951 398.002 72.7171 394.056C64.6391 385.129 66.1145 369.489 66.1883 368.825C66.2989 367.571 67.4055 366.686 68.6227 366.797C69.8769 366.907 70.7621 368.014 70.6515 369.268C70.6146 369.416 69.3236 383.617 76.0738 391.031C78.7665 394.056 82.3813 395.494 87.0659 395.494C88.32 395.494 89.3159 396.49 89.3159 397.744C89.3159 398.998 88.32 399.994 87.0659 399.994Z" fill="#DCD0C8"/>
<path d="M149.699 282.585H127.456C127.161 282.585 126.866 282.327 126.866 281.995V280.63C126.866 280.298 127.161 280.04 127.456 280.04H149.699C149.994 280.04 150.252 280.298 150.252 280.63V281.995C150.252 282.327 149.994 282.585 149.699 282.585Z" fill="#DEDFE6"/>
<path d="M149.699 288.045H127.456C127.161 288.045 126.866 287.786 126.866 287.491V286.09C126.866 285.758 127.161 285.499 127.456 285.499H149.699C149.994 285.499 150.252 285.758 150.252 286.09V287.491C150.252 287.786 149.994 288.045 149.699 288.045Z" fill="#DEDFE6"/>
<path d="M148.297 320.578H128.858C127.751 320.578 126.866 319.693 126.866 318.623V293.725C126.866 292.655 127.751 291.77 128.858 291.77H148.297C149.404 291.77 150.252 292.655 150.252 293.725V318.623C150.252 319.693 149.404 320.578 148.297 320.578Z" fill="#DEDFE6"/>
<path d="M193.52 320.578H158.109C156.375 320.578 154.974 319.177 154.974 317.48V283.139C154.974 281.442 156.375 280.04 158.109 280.04H193.52C195.253 280.04 196.618 281.442 196.618 283.139V317.48C196.618 319.177 195.253 320.578 193.52 320.578Z" fill="#DEDFE6"/>
<path d="M463.157 274.138L440.288 286.68L417.308 250.531L445.083 240.904L463.157 274.138Z" fill="#2E3048"/>
<path d="M461.719 273.032L440.325 284.799L418.82 250.974L444.825 241.974L461.719 273.032Z" fill="#F8F8F8"/>
<path d="M469.538 266.724C469.538 266.724 465.555 264.806 463.821 263.81C462.05 262.814 457.55 261.45 457.218 261.118C456.849 260.823 443.865 260.011 443.091 259.31C442.316 258.646 441.542 260.933 444.898 261.634C448.255 262.372 452.939 264.179 453.198 265.507C453.456 266.798 449.73 267.13 449.361 268.2C448.993 269.306 449.472 269.048 449.989 269.27C450.542 269.528 454.415 267.351 456.112 267.979C457.808 268.569 460.427 267.72 461.718 268.2C463.046 268.642 469.391 270.782 469.391 270.782L469.538 266.724Z" fill="#DBA585"/>
<path d="M439.181 282.18C439.181 282.18 435.825 279.155 434.202 277.901C432.579 276.647 429.554 272.921 429.111 272.7C428.669 272.479 422.841 260.601 421.919 260.122C420.959 259.642 422.804 258.019 424.796 260.896C426.788 263.81 430.329 267.499 431.656 267.241C432.984 266.946 431.841 263.331 432.726 262.556C433.575 261.782 433.538 262.335 433.98 262.741C434.386 263.146 433.87 267.646 435.124 269.011C436.378 270.376 436.599 273.179 437.521 274.249C438.444 275.282 442.944 280.446 442.944 280.446L439.181 282.18Z" fill="#DBA585"/>
<path d="M511.183 443.077C511.183 443.077 511.92 448.094 511.994 448.832C512.105 449.606 520.072 448.389 520.072 448.389L520.699 442.413C520.699 442.413 512.179 442.34 511.183 443.077Z" fill="#454971"/>
<path d="M511.921 448.205C511.921 448.205 509.413 451.229 506.978 452.557C504.544 453.848 500.708 454.401 499.269 455.766C498.199 456.725 495.47 460.967 505.577 460.893C515.72 460.82 520.589 461.484 521.696 459.861C522.765 458.238 520.11 447.873 520.11 447.873C520.11 447.873 517.712 448.721 511.921 448.205Z" fill="#2E3048"/>
<path d="M454.193 443.077C454.193 443.077 454.894 448.094 455.005 448.832C455.079 449.606 463.046 448.389 463.046 448.389L463.673 442.413C463.673 442.413 455.189 442.34 454.193 443.077Z" fill="#454971"/>
<path d="M454.894 448.205C454.894 448.205 452.386 451.229 449.951 452.557C447.517 453.848 438.517 454.955 437.078 456.32C436.045 457.316 434.312 461.262 448.587 460.893C458.694 460.635 463.599 461.484 464.669 459.861C465.739 458.238 463.083 447.873 463.083 447.873C463.083 447.873 460.833 448.795 454.894 448.205Z" fill="#2E3048"/>
<path d="M504.618 314.012C504.618 314.012 512.069 325.89 511.515 336.624C510.962 347.395 514.245 359.087 515.352 370.338C516.606 382.842 521.733 412.425 521.917 419.138C522.102 425.815 521.143 447.172 521.143 447.172L510.888 447.43C510.888 447.43 502.257 395.642 500.044 390.367C497.794 385.092 486.728 347.431 486.359 343.226C485.99 338.984 504.618 314.012 504.618 314.012Z" fill="#2E3048"/>
<path d="M465.26 315.636C465.26 315.636 459.616 345.071 458.878 351.637C458.104 358.202 457.624 383.432 457.255 387.564C456.886 391.658 454.784 441.307 452.792 447.43H465.887C465.923 447.43 475.957 411.318 475.957 394.24C475.957 377.162 483.74 357.133 488.756 345.845C493.809 334.595 505.281 334.3 508.38 313.422C508.38 313.422 469.428 308.996 465.26 315.636Z" fill="#2E3048"/>
<path d="M492.113 214.125C492.113 214.125 482.08 210.399 477.469 218.035C472.821 225.67 473.301 240.978 478.354 242.859C483.408 244.74 491.006 243.744 493.588 238.949C496.17 234.191 498.531 227.256 498.42 222.645C498.31 218.035 494.769 215.453 492.113 214.125Z" fill="#DBA585"/>
<path d="M479.424 243.191C479.424 243.191 479.867 245.921 479.166 247.248C478.465 248.576 492.15 248.613 492.15 248.613C492.15 248.613 493.293 241.347 495.396 235.223C497.498 229.063 479.424 243.191 479.424 243.191Z" fill="#DBA585"/>
<path d="M495.395 235.224C495.395 235.224 494.436 236.773 490.563 236.183C486.727 235.556 482.006 230.428 480.419 229.875C478.797 229.285 478.76 228.363 478.76 228.363L477.764 229.838L476.067 229.949C476.067 229.949 477.616 225.338 475.255 223.457C472.895 221.613 477.727 208.629 490.084 212.944C490.084 212.944 499.563 215.563 499.231 220.949C498.899 226.371 497.498 232.531 495.395 235.224Z" fill="#3E4148"/>
<path d="M478.354 247.064C478.354 247.064 478.391 244.519 479.535 244.297C480.715 244.039 492.297 242.933 493.736 243.486V246.437C493.736 246.437 491.006 248.134 478.354 247.064Z" fill="#DCD0C8"/>
<path d="M479.018 226.408C479.239 225.486 481.563 222.904 482.449 225.67C483.334 228.436 481.121 232.162 479.867 231.867C478.649 231.535 478.502 228.695 479.018 226.408Z" fill="#DBA585"/>
<path d="M432.284 277.2C432.284 277.2 432.296 277.2 432.321 277.2C432.222 277.249 432.21 277.249 432.284 277.2Z" fill="#363957"/>
<path d="M513.027 342.304C513.027 342.304 506.904 344.149 496.392 345.292C485.879 346.436 459.653 344.886 459.505 343.632C459.321 342.378 465.149 297.451 464.817 295.127C464.485 292.84 464.301 284.577 464.301 284.577C464.19 286.827 461.866 296.086 459.1 301.102C458.104 302.91 454.71 308.627 453.087 307.336C445.231 301.065 433.095 277.421 432.32 277.2C432.947 276.942 438.075 274.581 438.812 274.323C439.439 274.138 445.083 280.114 448.513 283.84C450.063 285.499 451.132 286.717 451.132 286.717C452.128 284.467 455.743 270.413 456.887 265.544C459.395 254.589 459.026 254.109 459.026 254.109C466.698 251.822 478.354 247.064 478.354 247.064L493.736 246.437C493.736 246.437 507.826 249.572 513.396 252.081C513.913 252.302 513.913 264.659 515.388 267.905L510.777 277.606C510.777 277.606 508.122 296.897 507.568 305.455C507.31 309.365 513.027 342.304 513.027 342.304Z" fill="#21AD63"/>
<path d="M516.015 283.95C515.609 285.241 513.802 286.348 512.621 286.827C511.847 287.122 510.998 287.233 510.15 287.049L509.523 286.938L499.01 284.983C499.01 284.983 496.687 258.425 513.396 252.081C513.839 252.228 519.704 272.036 516.015 283.95Z" fill="#21AD63"/>
<path d="M512.622 286.827C511.847 287.122 510.999 287.233 510.15 287.049L509.523 286.938L510.593 273.364L512.622 286.827Z" fill="#145030"/>
<path d="M451.132 286.717L449.841 292.176C449.841 292.176 448.477 286.68 448.513 283.84C450.063 285.499 451.132 286.717 451.132 286.717Z" fill="#145030"/>
<path d="M494.99 215.047C494.99 215.047 508.159 213.387 495.211 235.371L494.99 215.047Z" fill="#3E4148"/>
<path d="M427.894 248.613L426.529 246.326L437.079 242.674L438.407 244.961L427.894 248.613Z" fill="#2E3048"/>
<defs>
<linearGradient id="paint0_linear_421_180" x1="289.744" y1="303.782" x2="96.4499" y2="303.782" gradientUnits="userSpaceOnUse">
<stop stop-color="#EEBE63"/>
<stop offset="1" stop-color="#DC3B57"/>
</linearGradient>
<linearGradient id="paint1_linear_421_180" x1="289.743" y1="314.349" x2="96.4507" y2="314.349" gradientUnits="userSpaceOnUse">
<stop stop-color="#EEBE63"/>
<stop offset="1" stop-color="#DC3B57"/>
</linearGradient>
<linearGradient id="paint2_linear_421_180" x1="289.746" y1="324.916" x2="96.4499" y2="324.916" gradientUnits="userSpaceOnUse">
<stop stop-color="#EEBE63"/>
<stop offset="1" stop-color="#DC3B57"/>
</linearGradient>
<linearGradient id="paint3_linear_421_180" x1="233.41" y1="56.4846" x2="233.41" y2="151.685" gradientUnits="userSpaceOnUse">
<stop stop-color="#D3D8DE"/>
<stop offset="1" stop-color="white"/>
</linearGradient>
<linearGradient id="paint4_linear_421_180" x1="26.9897" y1="407.142" x2="78.2117" y2="407.142" gradientUnits="userSpaceOnUse">
<stop stop-color="#D6D6D6"/>
<stop offset="1" stop-color="#EDEDED"/>
</linearGradient>
<linearGradient id="paint5_linear_421_180" x1="26.9897" y1="407.142" x2="78.2117" y2="407.142" gradientUnits="userSpaceOnUse">
<stop stop-color="#C5C5C5"/>
<stop offset="1" stop-color="white"/>
</linearGradient>
</defs>
</svg>
